<svg xmlns="http://www.w3.org/2000/svg" viewBox="0 0 600 400" enable-background="new 0 0 600 400"><path fill="#090" d="m0 0h600v400h-600z"/><path fill="#bf0000" d="m0 0h400v400h-400z"/><path d="m0 0h200v400h-200z"/><g fill="#fff"><path d="m319.5 225.84l8.354.001c.031 3.157 1.882 6.549 4.48 8.493h-16.01c2.505-2.271 3.19-4.963 3.174-8.494z" stroke="#bd6b00" stroke-width=".5"/><path d="m266.71 178.53l4.574 5.04 56.934.093 4.667-5.04-14.56-.186-7.094-4.947-22.868-.093-6.627 5.133h-15.03"/><path d="m290.02 172.74l19.66-.02c2.662-1.407 3.492-5.901 3.479-8.416-.037-7.428-5.233-10.991-10.447-11.18-.781-.039-1.688-.647-1.895-1.359-.514-1.613-.381-2.641-.944-2.584-.501-.007-.354.94-.799 2.452-.245.753-1.091 1.495-1.934 1.538-6.49.324-10.676 5.062-10.513 11.134.11 4.01.577 6.412 3.393 8.435z" stroke="#bd6b00" stroke-width=".5"/><path d="m257.66 242.83h84.47l-7.561-6.161h-69.35l-7.56 6.161"/><path d="m296.39 219.69l1.54 4.62h3.499l-2.799-4.621-2.24.001zm-1.959 4.62l.886 4.573 4.106.047-1.493-4.621-3.499.001zm6.953.046l2.847 4.526h5.833l-4.573-4.574-4.107.048zm-34.441 10.36c3.095-2.878 5.071-5.335 5.087-8.866h7.56c.016 1.976.731 3.157 1.821 3.08l7.654-.047-.047-4.526h-5.554v-24.688c-.202-8.727 10.609-13.813 15.03-13.767l-26.27-.047v-.793h55.25l.047.793-26.647.047c7.902.016 15.524 7.499 15.587 13.815v6.999h-1.027l-.047-6.906c0-6.907-8.699-13.363-15.681-13.161-6.04.173-15.4 5.928-15.307 13.12v2.147l14.327.093-.14 2.473 2.25 1.436 4.487 1.43-.066 3.709 3.214.947.027 3.706 3.855 1.655v3.836l2.445 1.506-.112 3.896 3.314 2.333h-7.84l4.9 5.461h-7.233l-3.595-5.461h-4.759l2.147 5.413-5.086-.047-1.215-5.366h-6.206l.047 5.786-22.21.001v-.002zm22.17-14.981v4.573h5.321l-1.075-4.573h-4.246z" stroke="#bd6b00" stroke-width=".5"/></g><g stroke="#bd6b00" stroke-width=".5"><g fill="none"><path d="m289.39 211.66h3.313v7.607h-3.313z"/><path d="m284.71 219.8h3.234l-.02-5.597c-.042-2.433 2.142-4.885 3.187-4.967 1.159-.044 2.867 2.296 2.924 4.776l.047 5.806 3.431-.007v-14.411l-12.803.068v14.332z"/><path d="m310.3 223.14h4.01v3.127h-4.01z"/><path d="m307.92 217.77h4.01v3.127h-4.01z"/><path d="m304.05 212.4h4.01v3.127h-4.01z"/><path d="m300.74 207.88h4.01v3.127h-4.01z"/><path d="m298.08 219.82l4.106.14 7.327 6.487v-3.826l-2.473-1.773v-3.034l-3.593-2.052v-3.267l-3.5-1.166v-4.434l-1.774-1.447-.093 14.372z"/></g><g fill="#fff"><path d="m315.43 210.35h.98v7.05h-.98z"/><path d="m257.32 186.53c-1.234-1.982-2.712 2.749-7.788 6.271-2.363 1.608-4.01 5.893-4.03 8.712-.078 1.936.215 3.868-.001 5.741-.136 1.185-1.371 3.816-.527 4.488 2.234 1.661 5.126 5.431 6.468 6.732 1.16 1.017 2.165-5.248 3.036-8.05.933-3 .515-6.595 3.102-9.372 1.834-1.874 6.459-3.719 5.94-4.554l-6.205-9.966z"/></g><path d="m257.06 201.88c-.385-.886-.958-1.802-1.656-2.594-.699-.792-1.525-1.457-2.438-1.781-.882-.325-1.779-.751-2.406-1.531-.314-.39-.584-.882-.719-1.469-.125-.544-.123-1.21-.031-1.969-.11.08-.168.171-.281.25-2.363 1.608-4.02 5.899-4.03 8.719-.031.779-.031 1.539 0 2.312.175.485.344.956.594 1.25.326.383.713.636 1.125.812.824.352 1.775.425 2.656.75.913.324 1.852 1.058 2.656 1.938.767.838 1.357 1.801 1.75 2.656.066-.242.154-.604.219-.812.845-2.721.697-5.889 2.562-8.531z" fill="#bf0000"/><g fill="none"><path d="m249.82 192.39c-.484 3.356 1.385 4.473 3.148 5.123 1.825.649 3.322 2.607 4.093 4.378"/><path d="m245.3 203.44c.771 2.893 2.798 2.531 4.561 3.181 1.825.649 3.745 2.957 4.516 4.728"/></g><g fill="#fff"><path d="m255.61 184.48l.925-.594 17.752 29.898-.923.594-17.754-29.898z"/><path d="m257.52 183.29c0 1.13-.916 2.046-2.046 2.046-1.13 0-2.046-.916-2.046-2.046 0-1.13.916-2.046 2.046-2.046 1.13 0 2.046.916 2.046 2.046z"/><path d="m272.7 159.27h7.194v1.65h-7.194z"/><path d="m272.7 162.4h7.194v13.784h-7.194z"/><path d="m272.26 157.39l7.98.047c.312-2.706-2.389-5.629-3.966-5.599-1.559.075-4.076 2.955-4.01 5.552z"/></g></g><g fill="#bd6b00"><path d="m292.62 155.76c-1.521.64-2.688 2.377-3.406 4.375-.719 1.998-.991 4.267-.656 6.094v.031c.128.63.301 1.083.5 1.406.199.323.422.513.688.562.265.049.514-.093.656-.312.142-.22.212-.509.188-.844-.144-1.879-.135-3.732.312-5.406.447-1.674 1.338-3.164 2.969-4.375.295-.216.464-.463.5-.719.036-.256-.099-.474-.281-.625-.365-.301-.939-.407-1.47-.187m.156.437c.371-.154.842-.063 1.031.094.095.078.106.133.094.219-.012.086-.078.234-.312.406-1.713 1.272-2.656 2.871-3.125 4.625s-.459 3.66-.312 5.562c.019.258-.055.455-.125.562s-.107.14-.188.125c-.081-.015-.248-.117-.406-.375-.159-.258-.317-.656-.438-1.25-.315-1.715-.037-3.947.656-5.875.694-1.926 1.803-3.537 3.125-4.093"/><path d="m295.19 157.73c-1.519.639-2.501 2.292-3.03 4.188-.53 1.896-.613 4.066-.281 5.875.26 1.284.934 1.961 1.594 2.062.33.051.648-.079.844-.344.196-.264.26-.619.156-1.062-.372-1.498-.516-3.366-.25-5.062s.94-3.211 2.219-4.125c.296-.215.464-.463.5-.719.036-.256-.099-.505-.281-.656-.365-.303-.938-.377-1.47-.157m.188.437c.37-.154.81-.064 1 .094.095.079.137.134.125.219-.012.085-.108.235-.344.406-1.412 1.01-2.129 2.664-2.406 4.438-.278 1.773-.105 3.665.281 5.219.083.353.001.591-.094.719-.094.127-.214.186-.406.156-.384-.059-.983-.555-1.219-1.719-.318-1.731-.227-3.868.281-5.688.509-1.819 1.458-3.287 2.782-3.844"/></g><g stroke="#bd6b00" stroke-width=".5"><g fill="#fff"><path d="m272.31 187.39h8.03v11.11h-8.03z"/><path d="m272.78 204.85h7.747v2.333h-7.747z"/><path d="m272.59 208.95h7.934v8.68h-7.934z"/><path d="m272.03 219.41h8.68v4.853h-8.68z"/><path d="m273.1 202.76h6.995l1.387-2.309h-9.636l1.254 2.309z"/><path d="m282.53 194.25l.066-6.071h4.818c-1.893 1.561-3.652 3.454-4.884 6.071z"/></g><g fill="none"><path d="m273.56 196.74c.048 1.299 1.518.719 1.518.066 0-2 .026-4.169-.054-5.587-.01-1.045 2.491-.784 2.477-.14.01 1.692.029 4.01.038 5.991-.018.964 1.615.88 1.592 0-.01-2.211-.011-5.425 0-7.05.014-2.095-5.501-2.05-5.544-.047.002 1.645-.03 4.59-.027 6.769z"/><path d="m273.57 209.98h5.694v7.094h-5.694z"/></g><g fill="#fff"><path d="m277.21 212.92h2.01v1.167h-2.01z"/><path d="m273.71 212.92h1.96v1.167h-1.96z"/><path d="m275.67 210.07h1.54v2.893h-1.54z"/><path d="m275.67 214.04h1.54v3.08h-1.54z"/><path d="m243.99 138.97c.356 5.567-1.371 8.623-4.32 8.158-.812-3.088 1.036-5.16 4.32-8.158z"/><path d="m237.52 151.31c-2.621-1.333-.73-11.513.276-15.78.744 5.496 1.989 13.309-.276 15.78z"/><path d="m238.45 151.79c4.406 1.533 7.894-3.212 9.07-8.708-3.636 5.02-9.554 5.03-9.07 8.708z"/><path d="m235.11 156.93c-3.445-.91-1.37-11.71-.744-16.03.757 4.462 3.132 14.552.744 16.03z"/><path d="m236.29 156.59c.192-3.725 3.905-2.648 6.468-4.636-.418 1.861-1.994 5.159-6.468 4.636z"/><path d="m232.07 161.58c-3.414-.921-1.362-12.544-1.555-17.329 1 4.135 4.17 16.209 1.555 17.329z"/><path d="m233.66 161.08c2.797.909 6.501-.908 6.793-4.239-2.409 1.635-6.254.385-6.793 4.239z"/><path d="m229.52 166.71c-3.265.26-1.804-9.638-1.801-18.857 1.199 8.617 4.466 16.505 1.801 18.857z"/><path d="m230.65 166.26c2.205 1.106 6.156-.662 7.284-4.387-3.984 1.732-6.648.04-7.284 4.387z"/><path d="m256.28 144.13c-.581 4.829-2.554 7.638-5.503 7.174-.812-3.088 1.579-5.062 5.503-7.174z"/><path d="m248.48 156.52c4.898.695 6.662-3.064 9.96-7.87-4.621 3.344-10.146 4.04-9.96 7.87z"/><path d="m247.09 155.97c-2.67-3.204-.09-7.228 1.951-10.657-.439 5.102 1.3 7.941-1.951 10.657z"/><path d="m245.91 161.26c-.301-3.133 5.04-3.83 7.452-5.572-.812 1.811-2.043 6.686-7.452 5.572z"/><path d="m244.79 161.33c-3.691-.418-2.159-6.686.487-10.17-1.114 4.807 1.95 8.15-.487 10.17z"/><path d="m242.01 166.55c-4.201-1.858-1.509-7.127.07-10.238-.673 4.086 2.693 7.196-.07 10.238z"/><path d="m242.84 166.06c2.205 2.879 6.501-.859 7.383-5.224-3.738 3.112-6.5 2.601-7.383 5.224z"/><path d="m233.24 186.32c-.432-4.288 2.793-12.08.504-16.24-.312-.571.685-2.087 1.329-1.167 1.01 1.468 2.041 5.652 2.474 4.107.459-1.68.529-4.651 2.02-5.228.949-.338 2.291-.559 1.925.934-.364 1.436-1.178 3.419-.276 3.547.523.078 2.03-1.954 3.3-2.893 1.023-.837 2.549.473 1.053 1.726-4.86 4.04-9.57 5.854-12.325 15.214z"/><path d="m224.51 250.85c-.57-.109-1.352-.303-.641.584 5.679 6.996 7.322 8.924 15.603 7.94 8.365-1.101 10.357-3.364 16.214-6.65 3.128-1.835 7.703-2.243 11.17-1.105 1.614.528 2.591.56 1.434-.598-1.158-1.157-2.525-2.731-3.948-3.815-3.118-2.394-8.407-3.432-12.723-2.662-6.104.957-11.148 4.844-17.18 6.312-3.168.722-6.641.613-9.933-.006z"/><path d="m272.3 263.35c1.056.131 1.725 2.177 2.245.792.882-2.242.264-4.03-.726-3.829-1.17.312-3.148 2.934-1.519 3.037z"/></g></g><g fill="#fff"><path d="m220.6 182.92c-1.215-1.269-.864-1.754.933-1.774 1.425-.09 4.249.873 5.321.093.982-.713.591-3.738 1.027-5.133.19-.778.735-1.999 1.959-.093 3.622 5.805 8.146 12.773 10.08 19.6 1.057 3.826.062 9.8-3.454 13.814.124-3.423-1.152-5.725-2.707-8.587-1.92-3.762-9.06-13.951-13.159-17.92"/><g stroke="#bd6b00" stroke-width=".5"><path d="m235.53 213.44c3.983.019 4.667-5.32 4.667-6.813-1.96.373-5.414 3.64-4.667 6.813z"/><path d="m269.95 265.26c2.833.645 2.794-6.178-.099-9.07 1.274 4.382-2.129 8.388.099 9.07z"/><path d="m268.85 265.2c.187 3.243-7.959-.424-10.05-2.946 4.813 2.044 9.815.352 10.05 2.946z"/><path d="m265.28 260.57c.291 3.141-7.06.379-9.238-2.074 4.83 1.56 8.917-.511 9.238 2.074z"/><path d="m266.63 261.01c2.833.645 2.374-6.412-.379-8.837 1.321 4.709-1.849 8.155.379 8.837z"/><path d="m263.65 256.72c2.833.645 1.207-5.431-.893-7.858.341 4.43-1.055 7.503.893 7.858z"/><path d="m262.15 256.7c.292 3.235-5.43.751-7.651-2.309 4.783 1.561 7.33-.276 7.651 2.309z"/><path d="m260.59 254.24c1.856-1.334-.113-4.863-3.645-4.645.346 2.132 1.566 5.88 3.645 4.645z"/><path d="m274.54 268.87c.187 3.243-7.96 1.63-10.519-1.826 5.139.972 10.281-.768 10.519 1.826z"/><path d="m242.18 263.07c.292 3.235-8.602-.322-10.823-3.383 4.783 1.561 10.502.798 10.823 3.383z"/><path d="m247.63 264.45c1.856-1.334-1.933-4.77-4.951-5.578.346 2.131 2.872 6.813 4.951 5.578z"/><path d="m248.2 266.69c.199 2.908-9.537 1.313-12.08-1.374 8.377 1.514 11.81-1.117 12.08 1.374z"/><path d="m252.76 268.63c1.081 2.702-8.264 2.042-11.545.471 5.301-.046 10.802-2.353 11.545-.471z"/><path d="m257.13 270.6c1.034 2.421-7.61 2.369-11.824 1.03 5.581-.045 10.801-3.426 11.824-1.03z"/><path d="m263.42 271.9c1.531 2.865-7.588 3.143-10.547 1.733 5.273-.725 9.242-3.988 10.547-1.733z"/><path d="m252.74 267c-2.901 1.829-2.746-3.564-5.05-7.3 3.625 3.302 7.02 5.556 5.05 7.3z"/><path d="m257.88 268.94c-2.434 2.156-4.379-5.246-6.594-9.399 3.581 3.954 8.84 7.609 6.594 9.399z"/><path d="m264.68 271c-2.061 2.389-8.02-7.02-10.187-11.919 3.299 3.815 11.826 9.895 10.187 11.919z"/><path d="m258.88 278.18c-1.028 3.632-16.192-3.423-17.885-7.078 8.677 4.597 18.09 3.635 17.885 7.078z"/><path d="m210.15 204.38c-.355-.46-1.374.012-1.119 1.121.237 1.5 2.449 9.203 6.251 11.853 2.712 1.954 16.965 5.102 23.427 6.439 3.556.716 6.535 2.49 8.868 5.321-.965-3.702-1.741-6.445-2.987-9.8-1.211-2.948-4.421-6.174-7.746-6.347-6.175-.222-14.167-.748-19.974-3.267-2.997-1.253-4.792-2.944-6.72-5.32z"/><path d="m245.54 234.87c1.947 1.434 4.096-3.704 1.622-8.588-.077 4.701-3.814 6.279-1.622 8.588z"/><path d="m247.41 239.58c2.693.827 3.536-3.937 1.763-7.747.295 4.093-4.234 6.559-1.763 7.747z"/><path d="m249.46 243.36c2.601 1.295 3.585-3.518 1.716-7.092.204 4.56-3.72 5.904-1.716 7.092z"/><path d="m248.39 243.65c-1.03 3.08-7.01-2.655-8.01-5.775 3.709 3.685 8.757 3.278 8.01 5.775z"/><path d="m245.68 238.94c-1.171 3.08-8.686-4.85-10.348-8.668 3.709 3.685 11.184 6.498 10.348 8.668z"/><path d="m244.19 234.32c-1.171 3.5-9.34-5.829-11.654-9.135 3.897 3.639 12.537 6.592 11.654 9.135z"/><path d="m243.93 230.86c2.876-.559-.163-2.955-3.689-6.849-.165 4.1.508 6.966 3.689 6.849z"/><path d="m239.08 228.53c1.242-1.353-1.191-1.929-4.203-5.31-.444 2.28 2.794 6.454 4.203 5.31z"/><path d="m253 243.73c1.574.921 2.652-2.305.69-5.225-.449 3.159-2.133 4.04-.69 5.225z"/><path d="m218.81 223.38c-3.342 2-8.652-5.992-10.07-9.282 2.933 3.776 10.699 7.224 10.07 9.282z"/><path d="m221.65 228.04c-1.85 2.051-7.671-3.519-9.694-6.341 3.12 2.702 10.512 3.02 9.694 6.341z"/><path d="m224.82 232.22c-.61 2.801-9.106-3.495-11.09-6.476 3.663 3.452 11.649 3.14 11.09 6.476z"/><path d="m223.52 235.25c-1.311 2.522-8.221-3.727-9.879-6.987 4.222 3.684 10.949 4.493 9.879 6.987z"/><path d="m219.97 222.97c2.18-2.299 1.252-3.376-.338-6.999-.869 3.72-2.179 5.205.338 6.999z"/><path d="m222.86 227.31c3.954.174.038-4.638-.897-8.679.344 4.606-1.014 8.237.897 8.679z"/><path d="m225.38 231.13c2.74-.619 1.95-4.497-.151-9.193.437 5.073-2.32 8.01.151 9.193z"/><path d="m224.45 238.8c-1.03 3.08-8.826-4.055-10.07-6.755 3.943 3.312 10.763 4.445 10.07 6.755z"/><path d="m229.12 243.61c-1.17 3.082-9.339-3.167-11.839-6.568 4.922 3.872 12.443 3.513 11.839 6.568z"/><path d="m233.88 248.46c-1.31 4.294-9.853-2.561-12.399-5.915 5.436 4.151 13.1 2.859 12.399 5.915z"/><path d="m225.85 237.43c2.321 1.201 3.258-5.384 1.949-10.03.017 5.074-4.654 8.845-1.949 10.03z"/><path d="m229.81 242.66c2.788.828 1.904-6.269-.478-10.873-.309 4.561-2.366 8.892.478 10.873z"/><path d="m234.76 247.56c3.114.174.971-6.084-1.597-9.613.437 4.607-1.013 9.08 1.597 9.613z"/><path d="m229.3 250.23c-.936 1.586-3.226-1.348-6.986-3.489 3.382.885 7.402 2.02 6.986 3.489z"/><path d="m227.52 197.49c2.906-2.15.689-6.173 0-9.998-.935 3.628-3.398 8.389 0 9.998z"/><path d="m227.42 202.85c-4.366-.524-3.709-6.172-3.841-9.751 1.313 4.859 4.892 5.68 3.841 9.751z"/><path d="m228.11 202.12c3.694-.214 3.498-4.417 3.695-8.668-1.872 3.907-4.089 4.514-3.695 8.668z"/><path d="m227.96 207.34c-2.873.229-4.366-2.594-5.02-6.993 2.725 4.054 5.203 2.79 5.02 6.993z"/><path d="m228.99 206.99c3.694.475 3.104-3.825 2.956-6.995-1.133 3.02-4.137 3.974-2.956 6.995z"/><path d="m223.23 205.17c.295 2.807 2.069 7.634 4.926 6.55 1.181-3.448-2.513-4.137-4.926-6.55z"/><path d="m229.04 212.02c-1.281-2.462 2.905-3.695 3.792-6.895.509 4.58.082 7.584-3.792 6.895z"/><path d="m217.13 182.84c2.3-2.477.269-6.406-.421-10.231-.935 3.628-2.556 8.435.421 10.231z"/><path d="m217.06 187.45c-4.04.41-5.02-7.805-5.427-11.337 1.313 4.859 5.965 7.079 5.427 11.337z"/><path d="m217.89 187.37c2.854-1.474 2.191-4.65 3.088-7.03-1.918 2.928-3.669 3.347-3.088 7.03z"/><path d="m217.09 192.75c-4.225.362-6.742-8.739-6.874-12.318 1.313 4.859 7.366 7.5 6.874 12.318z"/><path d="m217.9 192.61c3.973-.914 3.498-3.483 2.902-7.642-1.265 4.188-3.483 3.301-2.902 7.642z"/><path d="m217.04 198c-4.646.788-4.32-6.561-8.01-11.893 3.191 3.96 8.936 8.95 8.01 11.893z"/><path d="m218.09 197.75c3.507.102 3.85-5.179 3.656-7.321-.807 2.134-4.931 4.16-3.656 7.321z"/><path d="m209.78 192.34c1.742 5.654 4.216 11.32 7.259 10.89 1.461-3.215-2.887-3.625-7.259-10.89z"/><path d="m218.14 202.4c-1.281-2.462 2.905-3.695 3.792-6.895.509 4.58.082 7.584-3.792 6.895z"/><path d="m210.98 198.8c2.487 5.094 3.609 10.948 7.02 10.1 1.275-3.961-3.771-4.79-7.02-10.1z"/><path d="m218.71 207.93c-1.467-2.695 2.719-3.648 3.745-7.363.556 4.861.036 8.332-3.745 7.363z"/><path d="m225.87 173.45c2.451.663 5.02-2.089 4.131-6.208-2.801.697-4.087 3.24-4.131 6.208z"/><path d="m218.03 171.39c.214 1.159 1.624 1.264 1.214-.373-.342-1.328-.4-2.327 0-3.407.548-1.354.366-3.658-.047-4.62-.416-1.015-1.793-.421-1.214.374.638.921.671 2.837.233 3.732-.577 1.322-.42 3.075-.186 4.294z"/><path d="m240.9 187.31c-.947 1.393-2.881.541-1.408-1.372 1.207-1.549 2.928-2.814 3.055-4.414.1-2.029 1.291-5.107 2.373-6.145 1.118-1.106 2.409.45 1.214 1.187-1.343.872-2.215 4.457-2.185 5.836-.045 2-2.041 3.448-3.049 4.908z"/><path d="m237.92 185.07c-.947 1.393-2.457.585-1.601-1.652.722-1.549.8-3.468 1.604-4.6 1.125-1.716 3.03-3.147 4.113-4.185 1.118-1.106 2.046-.04 1.021.908-1.245 1.245-2.595 2.795-3.345 3.969-1.4 2.28-.784 4.1-1.792 5.56z"/><path d="m222.18 177.86c-.112 1.967 1.471 2.443 1.4-.409-.072-2.978-2.179-5.702-.886-10.235.68-2.218.692-6.281.28-8.441-.362-2.142-1.886-.743-1.307.926.638 1.934-.119 5.644-.607 7.511-1.464 5.433 1.206 8.08 1.12 10.648z"/><path d="m226.5 166.98c-.232 1.81-1.764 1.974-1.319-.582.371-2.075.435-3.635 0-5.321-.596-2.114-.397-5.713.051-7.215.452-1.586 1.949-.657 1.319.584-.693 1.439-.73 4.431-.253 5.829.626 2.063.456 4.802.202 6.705z"/><path d="m210.94 204c.758.902 2.036.298.871-.923-.953-.987-.639-1.298-1.22-2.5-.574-1.343-.544-2.084-1.238-3.044-.613-.91-1.535.018-.917.785.775.906.561 1.574 1.036 2.451.877 1.499.663 2.287 1.468 3.231z"/><path d="m231.34 228.61c2.439 1.199 4.291 4.195 4.413 6.636.207 2.809.612 5.18 1.873 7.176-2.01-.559-2.97-3.759-3.255-6.825-.289-3.173-1.999-4.549-3.03-6.987z"/><path d="m236.42 234.49c1.688 3.116 4.049 4.304 4.169 6.617.204 2.661.407 2.797 1.128 5.414-1.987-.53-2.487-.703-3.02-4.685-.331-2.798-2.571-4.772-2.273-7.346z"/></g><path d="m288.97 263.32c.949 1.788 2.038 4.511 4.01 4.01.031-1.369-2.131-2.318-4.01-4.01"/><path d="m291.91 263.93c3.835 1.572 7.147 1.184 7.56 3.595-3.598.388-4.914-1.09-7.56-3.595"/><path d="m275.85 251.24c2.583 2.116 4.259 4.531 5.04 7.653.815 2.908 1.96 5.227 3.641 7.84-2.738-1.867-4.46-4.407-5.321-7.468-.756-3.01-1.648-5.256-3.36-8.02"/><path d="m279.03 251.23c2.769 2.21 5.379 4.719 6.161 7.84.815 2.908 1.307 5.133 3.174 8.03-2.924-1.867-4.086-4.688-4.947-7.748-.756-3.01-2.49-5.256-4.388-8.119"/><path d="m288.17 258.47c-.077-.546.297-1.023.747-1.166.874-.327 1.745-.594 2.613-.84.986-.233 1.538.471 1.541.933.005.769.041 1.423 0 2.01-.054.726-.192.78-.653.888-.738.124-1.684.251-2.426.747-.588.361-1.153.075-1.447-.559-.191-.486-.295-1.434-.375-2.01"/><path d="m298.8 258.47c.068-.546-.22-1.069-.621-1.213-.781-.327-1.559-.407-2.38-.374-.911-.014-1.141.191-1.144.653-.004.769-.036 1.516 0 2.099.048.726.032.78.444.888.66.124 1.784.158 2.447.653.525.361 1.124.075 1.153-.606-.013-.512.029-1.525.101-2.1"/><path d="m342.68 186.53c1.234-1.982 2.712 2.749 7.788 6.271 2.363 1.608 4.01 5.893 4.02 8.712.078 1.936-.215 3.868.001 5.741.136 1.185 1.371 3.816.527 4.488-2.234 1.661-5.126 5.431-6.468 6.732-1.16 1.017-2.165-5.248-3.035-8.05-.933-3-.515-6.595-3.102-9.372-1.834-1.874-6.459-3.719-5.94-4.554l6.204-9.966z" stroke="#bd6b00" stroke-width=".5"/></g><g stroke="#bd6b00" stroke-width=".5"><path d="m342.94 201.88c.385-.886.958-1.802 1.656-2.594.699-.792 1.525-1.457 2.438-1.781.882-.325 1.779-.751 2.406-1.531.314-.39.584-.882.719-1.469.125-.544.123-1.21.031-1.969.11.08.168.171.281.25 2.363 1.608 4.02 5.899 4.03 8.719.031.779.031 1.539 0 2.312-.175.485-.344.956-.594 1.25-.326.383-.713.636-1.125.812-.824.352-1.775.425-2.656.75-.913.324-1.852 1.058-2.656 1.938-.767.838-1.358 1.801-1.75 2.656-.066-.242-.154-.604-.219-.812-.845-2.721-.697-5.889-2.562-8.531z" fill="#bf0000"/><g fill="none"><path d="m350.18 192.39c.484 3.356-1.385 4.473-3.148 5.123-1.825.649-3.322 2.607-4.093 4.378"/><path d="m354.7 203.44c-.771 2.893-2.798 2.531-4.561 3.181-1.825.649-3.745 2.957-4.516 4.728"/></g><g fill="#fff"><path d="m344.39 184.48l-.925-.594-17.752 29.898.923.594 17.754-29.898z"/><path d="m342.48 183.29c0 1.13.916 2.046 2.046 2.046 1.13 0 2.046-.916 2.046-2.046 0-1.13-.916-2.046-2.046-2.046-1.13 0-2.046.916-2.046 2.046z"/><path d="m320.11 159.27h7.194v1.65h-7.194z"/><path d="m320.11 162.4h7.194v13.784h-7.194z"/><path d="m327.74 157.39l-7.98.047c-.312-2.706 2.389-5.629 3.966-5.599 1.559.075 4.076 2.955 4.01 5.552z"/></g></g><g fill="#bd6b00"><path d="m307.38 155.76c1.521.64 2.688 2.377 3.406 4.375.719 1.998.991 4.267.656 6.094v.031c-.128.63-.301 1.083-.5 1.406-.199.323-.422.513-.688.562-.265.049-.514-.093-.656-.312-.142-.22-.212-.509-.188-.844.144-1.879.135-3.732-.312-5.406-.447-1.674-1.338-3.164-2.969-4.375-.295-.216-.464-.463-.5-.719-.036-.256.099-.474.281-.625.365-.301.939-.407 1.47-.187m-.156.437c-.371-.154-.842-.063-1.031.094-.095.078-.106.133-.094.219.012.086.078.234.312.406 1.713 1.272 2.656 2.871 3.125 4.625s.459 3.66.312 5.562c-.019.258.055.455.125.562s.107.14.188.125c.081-.015.248-.117.406-.375.159-.258.317-.656.438-1.25.315-1.715.037-3.947-.656-5.875-.694-1.926-1.803-3.537-3.125-4.093"/><path d="m304.81 157.73c1.519.639 2.501 2.292 3.03 4.188.53 1.896.613 4.066.281 5.875-.26 1.284-.934 1.961-1.594 2.062-.33.051-.648-.079-.844-.344-.196-.264-.26-.619-.156-1.062.372-1.498.516-3.366.25-5.062s-.94-3.211-2.219-4.125c-.296-.215-.464-.463-.5-.719-.036-.256.099-.505.281-.656.365-.303.938-.377 1.47-.157m-.188.437c-.37-.154-.81-.064-1 .094-.095.079-.137.134-.125.219.012.085.108.235.344.406 1.412 1.01 2.129 2.664 2.406 4.438.278 1.773.105 3.665-.281 5.219-.083.353-.001.591.094.719.094.127.214.186.406.156.384-.059.983-.555 1.219-1.719.318-1.731.227-3.868-.281-5.688-.509-1.819-1.458-3.287-2.782-3.844"/></g><g stroke="#bd6b00" stroke-width=".5"><g fill="#fff"><path d="m319.66 187.39h8.03v11.11h-8.03z"/><path d="m319.47 204.85h7.747v2.333h-7.747z"/><path d="m319.48 208.95h7.934v8.68h-7.934z"/><path d="m319.29 219.41h8.68v4.853h-8.68z"/><path d="m326.9 202.76h-6.995l-1.387-2.309h9.636l-1.254 2.309z"/><path d="m317.47 194.25l-.066-6.071h-4.818c1.893 1.561 3.652 3.454 4.884 6.071z"/></g><g fill="none"><path d="m326.44 196.74c-.048 1.299-1.518.719-1.518.066 0-2-.026-4.169.054-5.587.01-1.045-2.491-.784-2.477-.14-.01 1.692-.029 4.01-.038 5.991.018.964-1.615.88-1.592 0 .01-2.211.011-5.425 0-7.05-.014-2.095 5.501-2.05 5.544-.047-.002 1.645.03 4.59.027 6.769z"/><path d="m320.74 209.98h5.694v7.094h-5.694z"/></g><g fill="#fff"><path d="m320.78 212.92h2.01v1.167h-2.01z"/><path d="m324.33 212.92h1.96v1.167h-1.96z"/><path d="m322.79 210.07h1.54v2.893h-1.54z"/><path d="m322.79 214.04h1.54v3.08h-1.54z"/><path d="m356.01 138.97c-.356 5.567 1.371 8.623 4.32 8.158.812-3.088-1.036-5.16-4.32-8.158z"/><path d="m362.48 151.31c2.621-1.333.73-11.513-.276-15.78-.744 5.496-1.989 13.309.276 15.78z"/><path d="m361.55 151.79c-4.406 1.533-7.894-3.212-9.07-8.708 3.636 5.02 9.554 5.03 9.07 8.708z"/><path d="m364.89 156.93c3.445-.91 1.37-11.71.744-16.03-.757 4.462-3.132 14.552-.744 16.03z"/><path d="m363.71 156.59c-.192-3.725-3.905-2.648-6.468-4.636.418 1.861 1.994 5.159 6.468 4.636z"/><path d="m367.93 161.58c3.414-.921 1.362-12.544 1.555-17.329-1 4.135-4.17 16.209-1.555 17.329z"/><path d="m366.34 161.08c-2.797.909-6.501-.908-6.793-4.239 2.409 1.635 6.254.385 6.793 4.239z"/><path d="m370.48 166.71c3.265.26 1.804-9.638 1.802-18.857-1.2 8.617-4.467 16.505-1.802 18.857z"/><path d="m369.35 166.26c-2.205 1.106-6.156-.662-7.284-4.387 3.984 1.732 6.648.04 7.284 4.387z"/><path d="m343.72 144.13c.581 4.829 2.554 7.638 5.503 7.174.812-3.088-1.579-5.062-5.503-7.174z"/><path d="m351.52 156.52c-4.898.695-6.662-3.064-9.96-7.87 4.621 3.344 10.146 4.04 9.96 7.87z"/><path d="m352.91 155.97c2.67-3.204.09-7.228-1.951-10.657.439 5.102-1.3 7.941 1.951 10.657z"/><path d="m354.09 161.26c.301-3.133-5.04-3.83-7.452-5.572.812 1.811 2.043 6.686 7.452 5.572z"/><path d="m355.21 161.33c3.691-.418 2.159-6.686-.487-10.17 1.114 4.807-1.95 8.15.487 10.17z"/><path d="m357.99 166.55c4.202-1.858 1.509-7.127-.07-10.238.673 4.086-2.693 7.196.07 10.238z"/><path d="m357.16 166.06c-2.205 2.879-6.501-.859-7.383-5.224 3.738 3.112 6.5 2.601 7.383 5.224z"/><path d="m366.76 186.32c.432-4.288-2.793-12.08-.504-16.24.312-.571-.685-2.087-1.329-1.167-1.01 1.468-2.041 5.652-2.474 4.107-.459-1.68-.529-4.651-2.02-5.228-.949-.338-2.291-.559-1.925.934.364 1.436 1.178 3.419.276 3.547-.523.078-2.03-1.954-3.3-2.893-1.023-.837-2.549.473-1.053 1.726 4.86 4.04 9.57 5.854 12.325 15.214z"/><path d="m375.49 250.85c.57-.109 1.352-.303.641.584-5.679 6.996-7.322 8.924-15.603 7.94-8.365-1.101-10.357-3.364-16.214-6.65-3.128-1.835-7.703-2.243-11.17-1.105-1.614.528-2.591.56-1.434-.598 1.158-1.157 2.525-2.731 3.948-3.815 3.118-2.394 8.407-3.432 12.723-2.662 6.104.957 11.148 4.844 17.18 6.312 3.168.722 6.641.613 9.933-.006z"/><path d="m327.7 263.35c-1.056.131-1.725 2.177-2.245.792-.882-2.242-.264-4.03.726-3.829 1.17.312 3.148 2.934 1.519 3.037z"/></g></g><g fill="#fff"><path d="m379.4 182.92c1.215-1.269.864-1.754-.933-1.774-1.425-.09-4.249.873-5.321.093-.982-.713-.591-3.738-1.027-5.133-.19-.778-.735-1.999-1.959-.093-3.622 5.805-8.146 12.773-10.08 19.6-1.057 3.826-.062 9.8 3.454 13.814-.124-3.423 1.152-5.725 2.707-8.587 1.92-3.762 9.06-13.951 13.159-17.92"/><g stroke="#bd6b00" stroke-width=".5"><path d="m364.47 213.44c-3.983.019-4.667-5.32-4.667-6.813 1.96.373 5.414 3.64 4.667 6.813z"/><path d="m330.05 265.26c-2.833.645-2.794-6.178.099-9.07-1.274 4.382 2.129 8.388-.099 9.07z"/><path d="m331.15 265.2c-.187 3.243 7.959-.424 10.05-2.946-4.813 2.044-9.815.352-10.05 2.946z"/><path d="m334.72 260.57c-.291 3.141 7.06.379 9.238-2.074-4.83 1.56-8.917-.511-9.238 2.074z"/><path d="m333.37 261.01c-2.833.645-2.374-6.412.379-8.837-1.321 4.709 1.849 8.155-.379 8.837z"/><path d="m336.35 256.72c-2.833.645-1.207-5.431.893-7.858-.341 4.43 1.055 7.503-.893 7.858z"/><path d="m337.85 256.7c-.292 3.235 5.43.751 7.651-2.309-4.783 1.561-7.33-.276-7.651 2.309z"/><path d="m339.41 254.24c-1.856-1.334.113-4.863 3.645-4.645-.346 2.132-1.566 5.88-3.645 4.645z"/><path d="m325.46 268.87c-.187 3.243 7.96 1.63 10.519-1.826-5.139.972-10.281-.768-10.519 1.826z"/><path d="m357.82 263.07c-.292 3.235 8.602-.322 10.823-3.383-4.783 1.561-10.502.798-10.823 3.383z"/><path d="m352.37 264.45c-1.856-1.334 1.933-4.77 4.951-5.578-.346 2.131-2.872 6.813-4.951 5.578z"/><path d="m351.8 266.69c-.199 2.908 9.537 1.313 12.08-1.374-8.377 1.514-11.81-1.117-12.08 1.374z"/><path d="m347.24 268.63c-1.081 2.702 8.264 2.042 11.545.471-5.301-.046-10.802-2.353-11.545-.471z"/><path d="m342.87 270.6c-1.034 2.421 7.61 2.369 11.824 1.03-5.581-.045-10.801-3.426-11.824-1.03z"/><path d="m336.58 271.9c-1.531 2.865 7.588 3.143 10.547 1.733-5.273-.725-9.242-3.988-10.547-1.733z"/><path d="m347.26 267c2.901 1.829 2.746-3.564 5.05-7.3-3.625 3.302-7.02 5.556-5.05 7.3z"/><path d="m342.12 268.94c2.434 2.156 4.379-5.246 6.594-9.399-3.581 3.954-8.84 7.609-6.594 9.399z"/><path d="m335.32 271c2.061 2.389 8.02-7.02 10.187-11.919-3.299 3.815-11.826 9.895-10.187 11.919z"/><path d="m341.12 278.18c1.028 3.632 16.192-3.423 17.885-7.078-8.677 4.597-18.09 3.635-17.885 7.078z"/><path d="m389.85 204.38c.355-.46 1.374.012 1.119 1.121-.237 1.5-2.449 9.203-6.252 11.853-2.712 1.954-16.965 5.102-23.427 6.439-3.556.716-6.535 2.49-8.868 5.321.965-3.702 1.741-6.445 2.987-9.8 1.211-2.948 4.421-6.174 7.746-6.347 6.175-.222 14.167-.748 19.974-3.267 2.998-1.253 4.793-2.944 6.721-5.32z"/><path d="m354.46 234.87c-1.947 1.434-4.096-3.704-1.622-8.588.077 4.701 3.814 6.279 1.622 8.588z"/><path d="m352.59 239.58c-2.693.827-3.536-3.937-1.763-7.747-.295 4.093 4.234 6.559 1.763 7.747z"/><path d="m350.54 243.36c-2.601 1.295-3.585-3.518-1.716-7.092-.204 4.56 3.72 5.904 1.716 7.092z"/><path d="m351.61 243.65c1.03 3.08 7.01-2.655 8.01-5.775-3.709 3.685-8.757 3.278-8.01 5.775z"/><path d="m354.32 238.94c1.171 3.08 8.686-4.85 10.348-8.668-3.709 3.685-11.184 6.498-10.348 8.668z"/><path d="m355.81 234.32c1.171 3.5 9.34-5.829 11.654-9.135-3.897 3.639-12.537 6.592-11.654 9.135z"/><path d="m356.07 230.86c-2.876-.559.163-2.955 3.689-6.849.165 4.1-.508 6.966-3.689 6.849z"/><path d="m360.92 228.53c-1.242-1.353 1.191-1.929 4.203-5.31.444 2.28-2.794 6.454-4.203 5.31z"/><path d="m347 243.73c-1.574.921-2.652-2.305-.69-5.225.449 3.159 2.133 4.04.69 5.225z"/><path d="m381.19 223.38c3.342 2 8.652-5.992 10.07-9.282-2.933 3.776-10.699 7.224-10.07 9.282z"/><path d="m378.35 228.04c1.85 2.051 7.671-3.519 9.694-6.341-3.12 2.702-10.512 3.02-9.694 6.341z"/><path d="m375.18 232.22c.61 2.801 9.106-3.495 11.09-6.476-3.663 3.452-11.649 3.14-11.09 6.476z"/><path d="m376.48 235.25c1.311 2.522 8.221-3.727 9.879-6.987-4.222 3.684-10.949 4.493-9.879 6.987z"/><path d="m380.03 222.97c-2.181-2.299-1.252-3.376.338-6.999.869 3.72 2.179 5.205-.338 6.999z"/><path d="m377.14 227.31c-3.954.174-.038-4.638.897-8.679-.344 4.606 1.014 8.237-.897 8.679z"/><path d="m374.62 231.13c-2.74-.619-1.95-4.497.151-9.193-.437 5.073 2.32 8.01-.151 9.193z"/><path d="m375.55 238.8c1.03 3.08 8.827-4.055 10.07-6.755-3.943 3.312-10.763 4.445-10.07 6.755z"/><path d="m370.88 243.61c1.17 3.082 9.339-3.167 11.839-6.568-4.922 3.872-12.443 3.513-11.839 6.568z"/><path d="m366.12 248.46c1.31 4.294 9.853-2.561 12.399-5.915-5.436 4.151-13.1 2.859-12.399 5.915z"/><path d="m374.15 237.43c-2.321 1.201-3.258-5.384-1.949-10.03-.017 5.074 4.654 8.845 1.949 10.03z"/><path d="m370.19 242.66c-2.788.828-1.904-6.269.478-10.873.309 4.561 2.366 8.892-.478 10.873z"/><path d="m365.24 247.56c-3.114.174-.971-6.084 1.597-9.613-.437 4.607 1.013 9.08-1.597 9.613z"/><path d="m370.7 250.23c.936 1.586 3.226-1.348 6.986-3.489-3.382.885-7.402 2.02-6.986 3.489z"/><path d="m372.48 197.49c-2.906-2.15-.689-6.173 0-9.998.935 3.628 3.398 8.389 0 9.998z"/><path d="m372.58 202.85c4.366-.524 3.709-6.172 3.841-9.751-1.313 4.859-4.892 5.68-3.841 9.751z"/><path d="m371.89 202.12c-3.694-.214-3.498-4.417-3.695-8.668 1.872 3.907 4.089 4.514 3.695 8.668z"/><path d="m372.04 207.34c2.873.229 4.366-2.594 5.02-6.993-2.725 4.054-5.203 2.79-5.02 6.993z"/><path d="m371.01 206.99c-3.694.475-3.104-3.825-2.956-6.995 1.133 3.02 4.137 3.974 2.956 6.995z"/><path d="m376.77 205.17c-.295 2.807-2.069 7.634-4.926 6.55-1.181-3.448 2.513-4.137 4.926-6.55z"/><path d="m370.96 212.02c1.281-2.462-2.905-3.695-3.792-6.895-.509 4.58-.082 7.584 3.792 6.895z"/><path d="m382.87 182.84c-2.3-2.477-.269-6.406.421-10.231.935 3.628 2.556 8.435-.421 10.231z"/><path d="m382.94 187.45c4.04.41 5.02-7.805 5.427-11.337-1.313 4.859-5.965 7.079-5.427 11.337z"/><path d="m382.11 187.37c-2.854-1.474-2.191-4.65-3.088-7.03 1.918 2.928 3.669 3.347 3.088 7.03z"/><path d="m382.91 192.75c4.225.362 6.742-8.739 6.874-12.318-1.313 4.859-7.366 7.5-6.874 12.318z"/><path d="m382.1 192.61c-3.973-.914-3.498-3.483-2.902-7.642 1.265 4.188 3.483 3.301 2.902 7.642z"/><path d="m382.96 198c4.646.788 4.32-6.561 8.01-11.893-3.191 3.96-8.936 8.95-8.01 11.893z"/><path d="m381.91 197.75c-3.507.102-3.85-5.179-3.656-7.321.807 2.134 4.931 4.16 3.656 7.321z"/><path d="m390.22 192.34c-1.742 5.654-4.216 11.32-7.259 10.89-1.461-3.215 2.887-3.625 7.259-10.89z"/><path d="m381.86 202.4c1.281-2.462-2.905-3.695-3.792-6.895-.509 4.58-.082 7.584 3.792 6.895z"/><path d="m389.02 198.8c-2.487 5.094-3.609 10.948-7.02 10.1-1.275-3.961 3.771-4.79 7.02-10.1z"/><path d="m381.29 207.93c1.467-2.695-2.719-3.648-3.745-7.363-.556 4.861-.036 8.332 3.745 7.363z"/><path d="m374.13 173.45c-2.451.663-5.02-2.089-4.131-6.208 2.801.697 4.087 3.24 4.131 6.208z"/><path d="m381.97 171.39c-.214 1.159-1.624 1.264-1.214-.373.342-1.328.4-2.327 0-3.407-.548-1.354-.366-3.658.047-4.62.416-1.015 1.793-.421 1.214.374-.638.921-.671 2.837-.233 3.732.577 1.322.42 3.075.186 4.294z"/><path d="m359.1 187.31c.947 1.393 2.881.541 1.408-1.372-1.207-1.549-2.928-2.814-3.055-4.414-.1-2.029-1.291-5.107-2.373-6.145-1.118-1.106-2.409.45-1.214 1.187 1.343.872 2.215 4.457 2.185 5.836.045 2 2.041 3.448 3.049 4.908z"/><path d="m362.08 185.07c.947 1.393 2.457.585 1.601-1.652-.722-1.549-.8-3.468-1.604-4.6-1.125-1.716-3.03-3.147-4.112-4.185-1.118-1.106-2.046-.04-1.021.908 1.245 1.245 2.595 2.795 3.345 3.969 1.399 2.28.783 4.1 1.791 5.56z"/><path d="m377.82 177.86c.112 1.967-1.471 2.443-1.4-.409.072-2.978 2.179-5.702.886-10.235-.68-2.218-.692-6.281-.28-8.441.362-2.142 1.886-.743 1.307.926-.638 1.934.119 5.644.607 7.511 1.464 5.433-1.206 8.08-1.12 10.648z"/><path d="m373.5 166.98c.232 1.81 1.764 1.974 1.319-.582-.371-2.075-.435-3.635 0-5.321.596-2.114.397-5.713-.051-7.215-.452-1.586-1.949-.657-1.319.584.693 1.439.73 4.431.253 5.829-.626 2.063-.456 4.802-.202 6.705z"/><path d="m389.06 204c-.758.902-2.036.298-.871-.923.953-.987.639-1.298 1.22-2.5.574-1.343.544-2.084 1.237-3.044.613-.91 1.535.018.917.785-.775.906-.561 1.574-1.036 2.451-.876 1.499-.662 2.287-1.467 3.231z"/><path d="m368.66 228.61c-2.439 1.199-4.291 4.195-4.413 6.636-.207 2.809-.612 5.18-1.873 7.176 2.01-.559 2.97-3.759 3.255-6.825.289-3.173 1.999-4.549 3.03-6.987z"/><path d="m363.58 234.49c-1.688 3.116-4.049 4.304-4.169 6.617-.204 2.661-.407 2.797-1.128 5.414 1.987-.53 2.487-.703 3.02-4.685.331-2.798 2.571-4.772 2.273-7.346z"/></g><path d="m311.03 263.32c-.949 1.788-2.038 4.511-4.01 4.01-.031-1.369 2.131-2.318 4.01-4.01"/><path d="m308.09 263.93c-3.835 1.572-7.147 1.184-7.56 3.595 3.598.388 4.914-1.09 7.56-3.595"/><path d="m324.15 251.24c-2.583 2.116-4.259 4.531-5.04 7.653-.815 2.908-1.96 5.227-3.641 7.84 2.738-1.867 4.46-4.407 5.321-7.468.756-3.01 1.648-5.256 3.36-8.02"/><path d="m320.97 251.23c-2.769 2.21-5.379 4.719-6.161 7.84-.815 2.908-1.307 5.133-3.174 8.03 2.924-1.867 4.086-4.688 4.947-7.748.756-3.01 2.49-5.256 4.388-8.119"/><path d="m311.83 258.47c.077-.546-.297-1.023-.747-1.166-.874-.327-1.745-.594-2.613-.84-.986-.233-1.538.471-1.541.933-.005.769-.041 1.423 0 2.01.054.726.192.78.653.888.738.124 1.684.251 2.426.747.588.361 1.153.075 1.447-.559.191-.486.295-1.434.375-2.01"/><path d="m301.2 258.47c-.068-.546.22-1.069.621-1.213.781-.327 1.559-.407 2.38-.374.911-.014 1.141.191 1.144.653.004.769.036 1.516 0 2.099-.048.726-.032.78-.444.888-.66.124-1.784.158-2.447.653-.525.361-1.124.075-1.153-.606.013-.512-.029-1.525-.101-2.1"/><path d="m328.54 286.65c.047 1.181.188 2.131.888 3.08-4.076-1.633-9.831-.759-13.767 1.074-1.756.839-3.88-.958-1.821-2.66 2.929-2.374 9.706-1.028 14.7-1.494m-57.5-.062c.057 1.113-.072 2.134-.481 3.106 4.431-1.835 9.188-.311 13.664 1.495 3.077 1.272 3.326-.931 2.782-1.693-.934-1.352-2.742-2.837-5.03-2.87-1.522-.021-7.382-.074-10.937-.038m3.74-21.642c-1.236-.533-2.672-.02-3.96 1.336-4.327 4.24-9.404 8.371-13.502 11.584-1.529 1.328-3.092 3.712 3.431 6.094.237.09 4.991 1.852 8 1.964 1.23-.035 1.227 1.803.999 2.293-.52.978-.143 1.352-1.193 2.294-1.094.923.117 2.119.977 1.307 3.672-3.188 9.628-1.148 15.366.718 1.356.375 3.837.27 3.816-1.601.024-2.038 1.5-3.479 2.404-3.531 2.343.406 13.919.535 17.485.102 2.079-.27 2.204 2.848 3.316 4.077.767.815 3.719 1.031 5.743.137 4-1.859 10.1-1.859 12.582-.082 1.021.778 1.828.147 1.247-.643-.748-1.08-.731-1.581-1.103-2.433-.933-1.898-.189-2.363.79-2.5 11.05-1.425 14.582-5.197 11.202-8.272-4.364-3.828-9.223-7.676-13.408-12.198-1.135-1.199-1.885-1.681-4.247-.699-7.221 3.289-16.388 5.686-25.358 5.862-8.348.07-19.825-3.791-24.591-5.809"/></g><path d="m326.62 265.54c-.58.058-1.197.238-1.656.406-8.921 3.134-17.12 5.328-25.656 5.312-8.335-.016-17.07-2.309-24.906-5.531-.446-.191-.96-.161-1.469-.031-.509.13-1.013.366-1.344.688-3.641 3.627-7.582 7.148-11.812 10.344-.639.488-.535 1.731.5 2.156h.031c8.304 2.979 16.412 8.531 39.625 8.312 23.433-.221 31.746-5.64 39.19-8.125.525-.2 1.064-.499 1.312-.969.124-.235.158-.526.062-.812-.095-.287-.284-.554-.625-.844h-.031c-4.224-3.452-8.749-6.206-11.719-10.406-.334-.479-.92-.558-1.5-.5m.031.438c.507-.051.895.027 1.094.312 3.041 4.301 7.621 7.07 11.812 10.5.3.254.442.48.5.656.059.176.044.296-.031.438-.15.284-.59.57-1.062.75-7.534 2.516-15.668 7.904-39.03 8.125-23.12.218-31.09-5.302-39.469-8.312-.755-.31-.687-1.161-.406-1.375 4.242-3.206 8.227-6.741 11.875-10.375.251-.243.653-.45 1.094-.562.441-.112.912-.131 1.219 0 7.879 3.238 16.613 5.578 25.03 5.594 8.618.016 16.903-2.203 25.844-5.344.444-.164 1.023-.357 1.53-.407" fill="#bd6b00"/><g fill="#fff"><path d="m269.71 114.56c-.068-1.379 2.069-1.484 1.824.412-.313 2.362 4.458 8.342 4.854 12.03.265 2.473-1.453 4.637-3.154 5.984-2.086 1.616-5.293 1.393-6.794.467-.908-.731-1.736-3.233-1.056-4.224.24-.333 1.327 3.673 3.721 3.657 3.258-.021 5.897-2.468 5.993-4.651.168-3.801-5.328-9.809-5.388-13.674"/><path d="m279.24 123.95c.539-.385 1.399 1.296.792 1.716-.505.337-1.492-1.249-.792-1.716"/><path d="m280.69 120.54c-.272.132-.814-.055-.652-.287.762-1.089 2.387-2.728 3.565-3.3.362-.176.995.463.777.776-.706 1.01-2.421 2.195-3.69 2.811"/><path d="m293.28 110.55c.302-.631 2.117-1.344 2.579-1.771.428-.438.632.37.449.752-.302.631-1.868 1.695-2.555 1.724-.369.016-.656-.324-.473-.705"/><path d="m297.59 110.75c.393-1.107 1.66-2.786 2.533-3.339.448-.283 1.252-.061 1.101.364-.333.94-1.884 2.581-2.927 3.355-.316.282-.798-.123-.707-.38"/><path d="m293.9 113.52c-.263.132-.121.691.133.776.539.179 1.52.214 1.964-.031.645-.398.351-2.844-.513-1.537-.579.806-1 .547-1.584.792"/><path d="m286.61 119.14c-1.318-1.026.355-2.464 1.732-1.46 2.683 2.024-4 9.778-7.641 13.403-.665.71-1.25-1.078-.397-1.848 2.608-2.212 5.05-4.855 6.747-7.585.328-.526.641-1.659-.441-2.51"/><path d="m301.88 112.47c.164-.982-1.589.021-1.621-1.281-.017-.689 1.915-1.173 2.723-.38 1.364 1.384.344 3.718-1.924 3.865-1.891.084-5.05 2.685-4.566 3.232.546.675 5.45 1.121 8.302.675 1.766-.248 1.395 1.331-.413 1.545-1.748.201-3.172.015-4.805.528-1.922.549-2.761 3.129-3.829 4.092-.238.167-.879-.846-.636-1.227.769-1.203 1.996-3.045 3.346-3.572.852-.345-2.349-.454-3.37-.745-.81-.244-.575-1.273-.264-1.848.412-.895 3.429-3.916 4.645-3.867 1.141.049 2.299-.284 2.412-1.017"/><path d="m306.96 112.73c.567-.501.858-1.338 1.453-1.848.326-.327.847.065.76.853-.073.621-.907 1.156-1.467 1.623-.457.342-.987-.396-.746-.628"/><path d="m313.43 110.43c.845-.093 1.055 1.537.131 1.801-.56.187-1.05-1.705-.131-1.801"/><path d="m311.3 115.47c-.013 1.404.68 1.275 2 1.227 1.283-.048 2.412.033 2.407-1.235-.006-1.314-.728-2.464-.939-1.569-.186.84-.335 2.215-.823 1.616-.461-.515-.278-.628-1.072.217-.44.466-.49-.226-.754-.66-.183-.257-.82.208-.821.404"/><path d="m302.08 122.63c-.315 1.858-.026 4.459.925 4.488 1.176.038 3.608-4.062 4.759-6.188.69-1.187 1.877-1.394 1.382-.156-.749 1.91-.682 5.998-.024 7.199.354.647 2.964-.593 3.386-1.515.767-1.675.143-4.762.412-6.647.13-1.238 1.263-1.496 1.203-.349-.112 2.052-.307 5.815-.162 7.524.086.982 2.895 2.432 3.346-.543.238-1.872 1.202-3.719-.047-5.793-.774-1.297 1.136-1.134 2.166.637.72 1.206-.607 3.201-.56 4.744.119 2.373-1.726 3.721-3.065 3.749-1.197.024-1.977-1.446-2.958-1.467-1.088-.069-2.207 1.693-3.106 1.631-3.486-.238-1.64-5.333-2.702-5.396-1.181-.07-2.574 4.994-4.03 4.813-1.435-.172-2.92-4.127-2.322-5.8.539-1.556 1.557-1.92 1.397-.931"/><path d="m318.96 114.6c-1.701-1.038.108-3.736.939-2.788 1.606 1.923 3.224 6.487 4.356 6.864.717.239.683-3.374 1.189-5.02.326-1.213 1.793-.817 1.512.737-.096.519-1.916 6.421-1.776 6.655 1.262 2.522 2.51 5.081 3.3 7.788.326 1.167-1.075.381-1.242.139-.895-1.338-2.461-6.452-2.461-6.219-.72 3.598-.89 4.66-1.655 7.717-.233.98-1.675.801-1.35-.924.313-1.418 2.375-8.393 2.259-8.595-1.622-2.861-3.105-5.124-5.071-6.358"/><path d="m322.03 131.2c-.474-.054-1.21 1.055 1.152 1.491 3.156.571 6.611-.492 7.669-3.587 1.212-3.687 2.01-7.177 2.647-8.493.791-1.535 1.803-1.411 1.056-3.651-.527-1.612-1.51-1.126-1.717-.264-.552 2.35-2.646 9.952-3.3 11.352-1.232 2.555-3.717 3.565-7.507 3.152"/><path d="m328.35 119.07c-.338-.725-1.126-.164-.986.629.084.717.665 1.107 1.25 1.087.692-.024 2.155.023 2.159-1.125.002-.807-.632-1.481-1.103-.591-.45.806-1.03.722-1.32 0"/><path d="m329.14 116.03c-.243.168-.025 1.066.264 1.056 1.031-.034 2.492-.363 3.275-.908.229-.159.134-.702-.192-.691-.995.033-2.576.007-3.347.543"/><path d="m337.9 118.29c.747-1.167 2.806-1.285 2.065.38-.524 1.148-5.652 11.05-6.352 12.315-.763 1.417-1.388.715-.846-.388.731-1.42 4.899-11.962 5.133-12.307"/><path d="m330.18 133.04c-.219-.788-1.442-1.954-1.305.155.244 3.829 5.504 2.618 7.096 1.258 1.445-1.281.191 4.322 2.112 4.922 1.058.339 3.051-1.105 4.03-2.376 2.717-3.525 4.445-8.578 7.06-12.06.987-1.361-.54-2.332-1.158-1.249-2.272 3.81-5.094 11.585-8.176 13.604-2.512 1.608-1.768-2.07-1.855-3.175-.11-.811-1.098-2-2.415-.908-.921.72-2.352 1.305-3.648 1.188-.752-.044-1.386-.031-1.74-1.361"/><path d="m339.57 125.93c.027-.216-1.112-.314-1.056.792.039.819 1.019 1.041 1.188.924 1.541-1.121-.328-.562-.132-1.716"/><path d="m337.33 130.42c-.303.071-.582 1.04.133 1.095.653.047 3.214-.228 3.921-.187.458-.017.632-.892-.349-.845-1.19.059-2.754-.239-3.705-.063"/><path d="m275.37 113.76c.406.019 1.52 1.462 1.447 1.913-.05.213-1.191-.032-1.54-.327-.258-.218-.154-1.598.093-1.586m-5.369 10.452c-1.018.555.161 1.651.923 1.188 2.861-1.853 7.155-3.798 8.05-7.468.288-1.243 1.443-3.148 2.54-3.573 1.06-.411 2.598 1.917 3.603.085.589-1.047 2.653.687 3.151-.433.607-1.353.318-2.098.343-3.395-.044-.849-.693-1.103-1.164.272-.245.623.043 1.251-.156 1.576-.152.247-.625.486-.9.28-.253-.19-.078-.72-.685-.955-.235-.118-.613-.216-.776.085-.72 1.285-1.119 2.483-2.128 1.117-.898-1.176-1.353-3.209-2.01-.427-.237.982-1.729 2.407-2.609 2.407-1.099 0-.823-2.894-3.237-2.453-1.241.265-1.155 2.64-.97 3.518.305 1.22 3.931.344 3.751 1.141-.619 2.771-4.466 5.406-7.726 7.04"/><path d="m247.3 137.42c-.154.464.462 1.723 1.101 1.816.627.047.947-1.359.745-1.816-.148-.336-1.736-.329-1.846 0"/><path d="m250.63 142.3c-.403-.434-1.589.73-.63 1.553.539.436 2.512 1.069 3.052.148.731-1.185-.72-5.488-.078-6.06.502-.444 2.828 2.874 3.976 3.113 2.698.374 2.05-4.618 4.957-4.279 1.981.264 2.198-2.211 1.922-3.757-.221-1.483-2.622-3.624-3.726-4.581-1.453-1.209-2.1.892-1.189 1.584 1.173.939 3.236 2.837 3.565 4.092.155.593-1.434 1.77-2.02 1.452-1.351-.737-2.608-3.898-3.789-4.62-.403-.246-1.393.31-.916 1.296.536 1.057 2.905 2.693 3.044 3.821.125 1.029-1.056 3.253-1.831 3.253-.853 0-3.03-2.688-3.706-3.953-.339-.606-1.515-.547-1.638.289-.195 1.256.182 3.912.481 5.559.238 1.559-.878 1.638-1.475 1.087"/><path d="m246.56 133.73c-.339.384.792 1.134 1.017.939.436-.378 2.129-2.307 1.803-2.982-.29-.602-2.619-1.919-2.997-1.267-.702 1.129 2.195 1.634 1.741 1.965-.225.129-1.022.68-1.564 1.345"/><path d="m250.73 125.27c0 0 .728 2.489 1.32 1.452.479-.719-1.32-1.452-1.32-1.452"/><path d="m251.92 129.23c-.266.146-1.017.74-.528 1.056.773.457 2.876.819 2.421-.676-.276-.881 3.171.025 2.331-2.36-.22-.66-1.259-1.612-1.77-1.747-.325-.086-1.429.52-.738.853.504.261 2.025 1.155 1.46 1.74-.642.612-1.088-.275-1.886-.132-.401.076-.14 1.219-.366 1.529-.127.174-.707-.381-.924-.263"/><path d="m257.4 119.77c-.435.217-1.214 1.396-1.242 1.941-.016.291.303.691.552.567.456-.228 1.161-1.344 1.188-1.856.016-.324-.228-.787-.498-.652"/><path d="m260.24 119.46c-.84-1.027.891-2.551 1.67-.496.471 1.289 5.488 7.892 6.514 10.132.726 1.516-.026 2.142-.925 1.056-2.54-3.242-4.625-7.283-7.259-10.692"/><path d="m265.39 119.6c.895-.969 2.721-2.949 2.229-4.053-.378-.95-1.487-.855-1.677-.636-1.086 1.296.772.971.504 1.413-.553 1.038-1.104 1.61-1.389 2.608-.067.234.172.843.333.668"/><path d="m343.17 122.84c-.643-.521.632-3.044 1.495-2.053 2.368 2.74 3.468 11.636 4.152 18.294 0 0-1.064.888-1.073.747 0-3.548-1.425-14.398-4.574-16.988"/><path d="m290.07 114.18c-.766-1.76 1.149-2.412 1.436-1.157 1.331 5.783 4.517 10.161 6.942 14.09.73 1.229.145 1.962-1.631.831-1.229-.843-2.478-3.916-3.082-4.04-1.094-.204-3.713 4.993-9.07 3.509-1.386-.387-1.294-4.508-1.32-6.328-.059-.853.884-1.079.916.085.049 1.678-.002 5.164 2.144 5.281 1.75.098 5.627-2.377 6.444-4.311.729-1.988-1.951-5.941-2.779-7.966"/><path d="m344.61 138.38c.428-1.191 6.114-10.735 6.861-12.835.382-1.013 2.01 1.737.421 3.22-1.4 1.26-5.531 8.03-6.302 10.408-.355 1.072-1.432.562-.98-.793"/><path d="m354.28 129.28c1.05-3.935 3.593.607 1.353 2.847-3.458 3.387-4.5 9.854-9.987 10.827-1.479.318-4.082-.665-4.854-1.214-.301-.214.195-1.619 1.119-.933 1.337 1.044 4.098 1.279 5.555.093 3.119-3.06 5.658-7.113 6.814-11.62"/><path d="m297.27 142.02c-.247.284-1 .238-1.072.637-.297 1.48 0 2.23-.326 3.656-.312 1.364-1.259 1.416-1.195.303.086-1.442 1.275-3.478.435-3.617-.559-.131-.99-.879-.412-1.248 1.092-.757 1.678-.642 2.429-.413.262.079.329.463.141.682"/><path d="m296.5 140.09c-1.448 1.266-2.791 1.784-4.123 3.384-.545.656-.529 1.57-.854 2.406-.326.888-1.375 1.062-1.7.877-.544-.357-.465-2-1.072-1.117-.515.816-.847 1.94-1.608 1.926-.688-.014-1.987-1.422-1.328-1.49 2.252-.231 2.224-2.033 3.068-2.151.946-.127 1.01 1.488 1.592 1.165.459-.235.675-2.117 1.173-2.625 1.527-1.56 2.734-2.385 4.292-3.531.789-.629 1.352.505.56 1.156"/><path d="m301.78 144.94c-1.159.234-.962 1.724-.621 1.909.561.262 1.43.372 1.755-1.342.152-.704.289 3.498 1.831 1.879.888-.981 3.087.178 4.01-1.056.659-.822.863-1.395.349-2.609-.149-.369-1.052-.188-1 .708.045.755-.535 1.687-1.29 1.528-.367-.067.207-1.847-.161-2.329-.203-.265-.511-.237-.713.038-.283.385.284 2.091-.646 2.315-1.174.271-.559-1.141-1.056-1.399-1.6-.806-1.754.21-2.455.358"/><path d="m310.83 142.08c.849-.239.584-.24 1.921-1.334.521-.394.624.76.569 1.216-.097.775-1.018.228-1.303.91-.418.886-.248 2.948-.388 3.788-.096.431-.787.394-.853.054-.198-1.024.14-2.026.108-3.307-.012-.435-.635-1.117-.054-1.327"/><path d="m305.83 139.46c-.205.927-.19 1.69-.19 2.326.047.514.986.183.982.117-.047-.814.139-1.939-.102-2.253-.13-.169-.642-.365-.69-.19"/><path d="m299.54 130.19l-1.458 5.594-2.029-3.75v3.844l-4.375-5.188 1.522 5.562-3.931-3.344 2.092 3.781-6.975-4.5 4.439 5.188-5.58-2.75 3.995 3.375-9.13-3.438 8.814 4.344c3.223-1.588 7.641-2.562 12.554-2.562 4.896 0 9.335.984 12.554 2.562.012.006.052-.006.063 0l8.75-4.344-9 3.469 3.931-3.406-5.516 2.719 4.375-5.156-6.975 4.5 2.092-3.781-3.931 3.344 1.522-5.562-4.375 5.219.063-3.875-2.029 3.75-1.458-5.595"/><path d="m291.82 251.63c0 .593-.089 1.449-.267 2.568h-.415c0-.762-.036-1.349-.107-1.759-.067-.41-.201-.898-.401-1.464-.165-.477-.346-.883-.542-1.217-.196-.339-.51-.789-.943-1.351l.829-2.046c.383.49.655.867.816 1.13.183.303.354.684.515 1.143.165.459.292.941.381 1.444.089.504.134 1.021.134 1.552"/><path d="m298.32 247.67c0 .624-.118 1.092-.354 1.404-.236.312-.64.535-1.21.669.165.58.274 1.032.328 1.358.058.325.087.689.087 1.09 0 .259-.016.535-.047.829-.027.294-.078.691-.154 1.19h-.374c0-.446-.025-.829-.074-1.15-.045-.325-.114-.631-.207-.916-.022-.071-.14-.386-.354-.943-.21-.562-.419-1.028-.629-1.398-.205-.374-.542-.889-1.01-1.545l.642-1.926c.339.486.635.823.889 1.01.254.183.555.274.903.274.758 0 1.137-.41 1.137-1.23h.388c0 .268.007.49.02.669.012.174.019.379.019.615"/><path d="m304.29 252.19l-.481 2.01c-.303-.085-.551-.323-.742-.716-.16-.325-.276-.738-.348-1.237-.067-.499-.1-1.017-.1-1.551-.406.107-.727.161-.963.16-.468 0-.856-.123-1.164-.368-.303-.25-.455-.564-.455-.943 0-.816.21-1.549.629-2.2.424-.655.901-.983 1.431-.983.41 0 .695.116.856.348.178.254.288.544.328.869.04.325.06.954.06 1.886 0 .834.067 1.422.201 1.765.106.269.356.589.748.964m-1.806-3.33c-.08-.508-.348-.762-.802-.762-.196 0-.377.053-.542.161-.165.107-.247.201-.247.281 0 .267.321.401.963.401.205-.001.414-.028.628-.081"/><path d="m310.61 251.69l-.241 2.434c-.477-.334-.918-.938-1.324-1.812-.424-.914-.852-2.209-1.284-3.885-.37 1.614-.675 2.798-.916 3.551-.236.749-.47 1.28-.702 1.592-.156.21-.406.421-.749.635l.053-2.327c.441-.602.751-1.061.93-1.378.263-.468.479-1.014.649-1.638.174-.629.33-1.469.468-2.521h.441c.272 1.057.535 1.897.789 2.521.236.589.513 1.108.829 1.558.223.316.575.739 1.057 1.27"/></g><path d="m328.98 274.65c.325.381.553.755.685 1.121.128.362.22.88.277 1.553l-.725.059c-.309-.605-.61-1.078-.902-1.421-.223-.261-.583-.632-1.079-1.114-.497-.481-1-.951-1.524-1.407-.523-.461-1.188-.994-1.997-1.598-.284-.211-.464-.362-.54-.452-.113-.133-.203-.394-.268-.784-.069-.394-.113-.885-.13-1.471l2.533 2.06c.955.787 1.746 1.481 2.372 2.084.482.464.914.921 1.298 1.37m-8.982-5.412l-.152 1.862-2.982-.081.224-1.901 2.91.12m7.845 8.336l-7.105 2.165-1.308-1.807 6.143-1.871c-.279-.385-.495-.655-.647-.808-.237-.236-.509-.421-.814-.555-.02.341-.161.641-.424.899-.263.258-.602.451-1.019.578-.546.166-1.092.189-1.637.069-.545-.12-.946-.358-1.202-.712-.378-.523-.581-1.217-.609-2.085-.031-.953.23-1.513.782-1.681.717-.218 1.686-.019 2.907.598 1.221.617 2.159 1.377 2.813 2.281l2.12 2.929m-5.457-3.794c-.335-.152-.603-.246-.804-.282-.197-.043-.378-.039-.542.011-.205.062-.346.178-.423.348-.077.169-.058.334.057.493.074.102.198.17.372.203.178.027.366.01.564-.05.157-.048.293-.124.408-.23.119-.112.241-.276.368-.493m-7.612-1.454l-.435 1.843-2.955-.272.449-1.862 2.941.291m7 7.196l-1.578.362c-.562.129-1.096.168-1.603.119-.507-.05-.981-.208-1.423-.475-.261.475-.72.873-1.376 1.195-.435.214-.941.387-1.517.519l-1.12.257-1.026-1.882 1.12-.257c.59-.135.992-.248 1.207-.339.219-.097.494-.261.823-.492-.362-.223-.653-.377-.875-.461-.27-.099-.508-.125-.714-.078-.078.018-.143.053-.194.107-.046.047-.086.129-.118.245l-.492.066c-.455-.835-.559-1.48-.312-1.937.252-.463.858-.804 1.817-1.024.988-.227 1.832-.278 2.532-.153.704.119 1.176.397 1.415.835.128.235.177.478.146.729-.034.246-.156.601-.367 1.065.147.065.32.103.518.115s.376-.001.532-.036l1.578-.362 1.027 1.882m-7.543 1.755l-1.539.241c-.858.134-1.562.003-2.113-.393-.613-.437-1.142-1.253-1.586-2.447l-.757-2.033c-.172-.461-.405-.805-.698-1.031-.141-.109-.428-.253-.859-.432l.523-1.97c.567.314 1 .643 1.31.987.359.402.664.938.913 1.608l.524 1.405c.37.994.73 1.667 1.078 2.02.276.284.591.398.942.343l1.539-.241.723 1.943m-6.578-7.06l-.994 1.75-2.812-.649 1-1.765 2.804.664m1.636 7.922l-7.01.635-.425-1.977 5.892-.534c-.153-.322-.362-.587-.628-.795-.139-.116-.447-.31-.925-.583l.524-1.811c.649.361 1.122.758 1.421 1.19.306.432.554 1.091.745 1.978l.408 1.897m-5.63.897c-.843-.028-1.541-.09-2.092-.187-.551-.097-1.091-.24-1.62-.429-.453.186-.855.305-1.206.357-.344.052-.858.067-1.544.044l-1.841-.061c-.505-.017-.897-.116-1.177-.296s-.521-.473-.724-.876c-.447.397-.933.674-1.459.833-.449.137-.978.195-1.588.175l-1.615-.054.157-1.993 1.615.054c.791.026 1.461-.096 2.01-.367.715-.353 1.103-.914 1.163-1.681l.74.098c-.027.156-.057.334-.087.534-.031.2-.056.422-.075.666-.02.249.096.461.346.636s.545.268.884.279l1.389.046c.919.031 1.58-.031 1.985-.184.49-.185.757-.55.8-1.098.009-.117.074-.22.194-.31.072-.052.218-.127.437-.228l.447-.206c.008.093.009.221.004.382-.005.157-.009.259-.013.308-.021.269-.11.623-.265 1.064.272.097.578.183.92.258.341.075.703.136 1.084.183.013-.166-.064-.384-.231-.654-.167-.27-.247-.452-.24-.544.01-.127.044-.224.102-.291.017-.024.106-.097.266-.219l1.027-.811c.179.315.3.6.363.857.071.252.091.566.061.943l-.218 2.772m-10.644-8.191l-1.771 1.254-1.336-.824-1.315.98-1.757-1.06 1.678-1.194 1.418.792 1.37-1 1.713 1.054m-2.785 7.635l-6.865-1.125.753-1.935 5.768.945c.045-.336.005-.632-.12-.89-.062-.141-.234-.397-.518-.766l1.536-1.55c.391.493.6.976.626 1.45.033.475-.119 1.146-.457 2.01l-.723 1.857m-5.779-.896l-1.485-.357c-.827-.199-1.299-.563-1.415-1.092-.132-.585.131-1.453.789-2.604l1.121-1.961c.254-.445.357-.814.307-1.108-.024-.141-.138-.364-.341-.669l2.128-1.445c.2.466.28.897.238 1.294-.048.463-.256 1.018-.626 1.665l-.775 1.356c-.548.959-.829 1.648-.843 2.067-.015.336.147.544.487.626l1.485.357-1.07 1.871m-3.516-7.43l-2.409 1.017-1.655-1.612 2.43-1.026 1.634 1.621m-1.025 6.225c-.501.592-.993 1.036-1.477 1.332-.48.292-1.017.475-1.612.547-.588.075-1.334.041-2.236-.102-.9-.136-1.766-.353-2.599-.65-1.606-.572-2.684-1.205-3.233-1.898-.546-.686-.523-1.378.068-2.077.505-.596 1.104-1.091 1.8-1.485.765-.436 1.959-.932 3.582-1.487l.366.482c-1.268.491-2.142.864-2.623 1.116-.474.255-.858.556-1.152.904-.381.45-.323.951.174 1.502.507.549 1.365 1.039 2.575 1.47 1.19.424 2.316.633 3.379.627 1.063-.006 1.777-.224 2.14-.652.225-.266.376-.555.452-.869.083-.311.133-.837.15-1.579l2.343-1.426c.001.71-.032 1.186-.101 1.43-.118.444-.42.953-.906 1.527l-1.09 1.288" fill="#bf0000"/></svg>