<svg xmlns="http://www.w3.org/2000/svg" viewBox="0 0 450 300" enable-background="new 0 0 450 300"><path d="m0 0h450v300h-450z"/><path fill="#ce1126" d="m0 0h450v150h-450z"/><g fill="#f9d616"><path d="m231.12 91.82c32.13 3.378 55.44 32.16 52.06 64.3s-32.16 55.44-64.3 52.06c-11.364-1.195-22.13-5.691-30.968-12.935l-8.558 10.441c30.754 25.21 76.12 20.71 101.33-10.04 25.21-30.754 20.71-76.12-10.04-101.33-10.877-8.915-24.13-14.45-38.12-15.92l-1.411 13.426"/><path d="m302.62 142.35c.501 5.085.501 10.206 0 15.291l-14.928-1.47c.404-4.107.404-8.243 0-12.35l14.928-1.471"/><path d="m299.64 172.64c-1.483 4.889-3.443 9.621-5.851 14.13l-13.229-7.07c1.945-3.639 3.528-7.461 4.726-11.41l14.354 4.354" transform="matrix(.92388.38268-.38268.92388 74.53-74.69)"/><path d="m285.3 199.48c-3.241 3.949-6.863 7.571-10.812 10.812l-9.516-11.595c3.19-2.618 6.115-5.543 8.733-8.733l11.595 9.516" transform="matrix(.70711.70711-.70711.70711 171.97-115.17)"/><path d="m247.64 75.36c4.889 1.483 9.621 3.443 14.13 5.851l-7.07 13.229c-3.639-1.945-7.461-3.528-11.41-4.726l4.354-14.354"/><path d="m274.48 89.7c3.949 3.241 7.571 6.863 10.812 10.812l-11.595 9.516c-2.618-3.19-5.543-6.115-8.733-8.733l9.516-11.595" transform="matrix(.92388.38268-.38268.92388 74.53-74.69)"/><path d="m217.35 72.38c5.085-.5 10.206-.5 15.291.001 0 0-1.47 14.928-1.47 14.928-4.107-.404-8.244-.405-12.35 0 0 0-1.47-14.928-1.47-14.928"/><path d="m261.77 218.79c-4.506 2.408-9.238 4.368-14.13 5.851l-4.354-14.354c3.949-1.198 7.771-2.781 11.41-4.726l7.07 13.229"/><path d="m232.65 227.62c-5.085.501-10.206.501-15.291 0l1.47-14.928c4.107.404 8.243.404 12.35 0l1.471 14.928" transform="matrix(.92388.38268-.38268.92388 74.53-74.69)"/><path d="m202.36 224.64c-4.889-1.483-9.621-3.443-14.13-5.851l7.07-13.229c3.639 1.945 7.461 3.528 11.41 4.726l-4.354 14.354" transform="matrix(.38268.92388-.92388.38268 277.48-115.28)"/><path d="m199.32 114.66h51.35l-41.543 30.18 15.868-48.84 15.867 48.84-41.543-30.18"/><path d="m287.88 216.31c3.838 3.714 9.01 7.376 12.755 10.703 3.749 3.327 6.621 6.092 8.945 9.872 3.407 5.539-.419 11.812-5.724 8.13-2.869-1.991-4.672-7.367-9.07-11.815-3.255-2.771-5.82-5.677-14-7.078-.393-.067-.508-.897-.199-1.26l7.292-8.552"/></g><path d="m231.36 197.84l20.247 11.972 4.402 17.08 23.24-1.761 10.212-11.972-37.854-26.23-20.247 10.917"/><path d="m279.66 223.69c-26.03-17.314-42.591-26.663-67.54-40.85-9.802-5.573-25.02-19.582-13.02-43.02.756 15.387 61.57 57.62 87.26 75.988l-6.707 7.882" fill="#f9d616"/><path d="m216.09 167.52c20.05 18.891 45.29 34.3 67.812 51.34" fill="none" stroke="#000" stroke-linecap="round" stroke-width="1.5"/><circle cx="290.4" cy="222.3" r="1.01"/><circle cx="297.82" cy="228.76" r="1.01"/><circle cx="304.34" cy="235.39" r="1.01"/></svg>