<svg xmlns="http://www.w3.org/2000/svg" viewBox="0 0 640 480" enable-background="new 0 0 640 480"><path d="m.003 0h640v480h-640v-480" fill="#3a7dce"/><g fill="none" stroke="#fff" stroke-linejoin="round" stroke-width="2.108"><path d="m574.58 284.31c-.462 1.039-.38 2.077.097 2.822.857-1.285.134-1.875-.097-2.822z" stroke-linecap="round"/><path d="m203.29 167.76c0 0-2.422-.296-1.875 1.828.791-1.631 1.828-1.729 1.875-1.828z"/><path d="m203.83 162.82c-1.334.05-2.964-.197-2.422 1.927.792-1.631 2.373-1.828 2.422-1.927z"/><path d="m212.95 191.13c0 0 2.076-.148 1.532 1.976-.791-1.631-1.482-1.875-1.532-1.976z"/></g><path d="m184.83 225.33c-2.887-5.905-2.887-5.905-2.887-11.809-1.444 0-1.715.278-2.549.045-.834-.23-1.15 5.445-3.858 4.337-.451-.553 1.941-4.658-.653-6.365-.834-.556.203-3.923-.158-5.399 0 0-3.292 1.752-5.774-4.428-1.219-1.615-2.887 1.476-2.887 1.476s.722 1.894-.586 2.353c-1.85-1.385-3.203-.658-5.549-2.56-2.347-1.903.497-4.082-3.97-5.696 2.888-7.38 2.888-5.905 10.11-8.857-4.331-2.952-4.331-2.952-7.219-7.381-4.331-1.477-5.775-2.952-10.11-5.904-5.774-7.381-8.662-22.14-8.662-32.475 3.654-3.46 8.662 11.809 15.881 16.237l10.11 4.429c5.774 2.952 7.219 5.904 11.55 8.857l12.994 4.429c5.774 4.428 8.663 10.331 12.994 11.809 4.688 0 5.596-2.763 7.1-2.935 8.484-.445 12.819-1.563 14.511-4.169 1.714-2.076 5.819 1.199 17.369-3.229l-1.443-5.905c0 0 3.068-2.583 7.219-1.477-.112-2.698-.384-9.894 3.705-13.144-2.483-2.663-.817-4.572-.817-4.572s2.302-2.26 2.572-3.46c-1.217-6.504 1.057-6.609 1.567-8.522.509-1.913-1.964-1.258-1.267-3.895.696-2.639 4.879-3.264 5.438-5.438.562-2.173-1.193-3.263-1.091-3.778.903-2.076.136-6.966 0-8.857 7.761-2.122 10.287-8.58 12.994-5.904 1.444-8.857 2.888-11.809 11.55-11.809 1.219-2.722-3.159-5.03-1.444-5.904 2.888-.369 5.098-.185 8.484 4.29 1.069 1.418 1.262-2.076 2.345-2.445 1.083-.369 3.674-.375 4.059-2.122.408-1.799.994-4.151 2.438-7.104 1.218-2.399 2.166.923 3.247 5.625 6.092.231 19.847 1.614 25.626 3.229 4.331 1.153 7.219-1.153 11.372-1.614 3.068 3.137 5.955.785 7.575 7.473 2.293 3.609 6.05.323 6.858 1.384 4.828 13.608 21.43 4.429 22.697 4.659 2.12 0 4.706 6.084 6.379 5.933 2.712-.467 1.944-2.359 4.313-1.598-.633 5.121 4.647 11.03 4.647 14.854 0 0 1.285.646 2.476-.49 1.19-1.135 2.284-4.053 3.343-3.984 2.527.369 3.55.7 6.462 1.222 7.828 2.735 11.815 3.352 14.856 4.753 1.415 2.647 2.785 4 5.653 3.507 2.369 1.627.641 3.759 2.04 3.896 2.887-1.477 3.835-3.091 6.722-1.614 2.888 1.477 5.775 4.429 7.219 7.381 0 1.476-1.444 7.38 0 16.237.722 2.952 1.072 5.293 4.174 10.359-.824 5.201 3.903 13.954 3.903 16.17 0 2.952-2.302 4.475-3.745 7.426 5.775 4.429 0 11.809-2.887 16.237 21.656 4.429 11.55 13.285 28.874 8.857-4.331 10.331-2.797 9.503 1.534 19.838-8.663 5.905-.179 7.703-5.954 15.08-.361.462 3.427 6.413 8.752 6.413-1.444 11.809-5.775 7.38-4.331 25.09-11.372-.23-6.768 13.237-14.437 11.809.451 8.438 4.376 9.18 2.887 17.713-5.774 1.477-5.774 1.477-8.663 5.905l-4.331-1.477c-1.444 7.38-4.33 8.857 0 16.237 0 0-5.594.185-7.219 0-.136 2.538 2.482 3.23 2.887 5.904-.226 1.061-8.212 5.72-14.438 5.905-1.624 3.644 4.33 7.519 3.97 9.364-6.768 1.337-9.745 9.825-9.745 9.825s3.473 1.431 2.887 2.952c-1.849-1.385-2.887-1.477-5.774-1.477-1.444.369-4.962-.09-8.336 5.732-3.703 1.249-5.452.798-8.26 4.596-1.244-3.618-3.03.034-5.22 1.438-2.185 1.405-5.129 4.899-5.525 4.75.09-1.016 1.354-4.706 1.354-4.706l-7.219 1.477c0 0-.322.032-.889.091-.568.057-.416-4.309-1.784-4.15-1.368.159-5.282 5.491-6.619 5.663-1.332.167-1.754-1.696-2.902-1.534-1.147.162-3.385 5.624-4.198 5.768-.813.145-4.04-3.32-6.8-2.831-14.212 5.122-16.469-10.1-18.679-1.522-2.978-1.615-2.462-.678-5.487.132-1.93.509-2.107-2.609-3.823-2.561-3.435.099-3.254 3.421-5.127 2.429-1.533-6.921-10.783-5.672-11.685-8.627-.734-3.079 4.01-3.065 5.541-5.151 1.173-3.01-1.224-4.153 3.533-7.06 6.201-4.288 2.636-5.905 3.723-9.128 1.944-4.653 1.956-5.789.332-9.894 0 0-4.828-13.285-5.775-13.285-2.887-.83-2.887 4.889-7.129 6.458-8.662 2.952-23.955-7.474-26.618-7.474-2.436.047-13.717 2.732-13.292-3.02-1.687 5.592-7.89 1.313-8.272 1.313-5.775 0-3.565 4.568-7.446 4.382-1.76-.599-19.535-1.66-19.535-1.66v2.952l-11.55-5.905-10.11-2.952c-8.662-2.952-4.33-10.331-18.769-5.905v-8.857h-7.219c2.887-17.714 0-8.857-1.444-25.09l-5.775 1.477c-5.774-7.98 8.03-6.458-4.33-11.809 0 0 .225-8.812-2.887-5.905-.632.369 1.444 4.429 1.444 4.429-11.55-1.477-14.438-4.429-14.438-16.238 0 0 9.519 1.385 8.662 0-1.354-2.214-3.112-16.606-2.798-17.575-.135-1.938 8.843-6.827 7.105-11.487 1.105-.415 4.354-.46 4.354-.46" fill="#fff"/></svg>