<svg xmlns="http://www.w3.org/2000/svg" viewBox="0 0 640 480" xmlns:xlink="http://www.w3.org/1999/xlink"><defs><path id="3" d="m343.17 258.06c-3.977 10.41.379 15.358-1.567 20.964-1.874 5.398-10.02 18.776-3.821 24.589 4.931.228-.852-7.376 9.01-21.455 4.575-6.595-1.196-10.769 3.625-23.707.449-1.107-6.622-2.031-7.249-.391z" stroke-linejoin="round" stroke-width=".625" stroke="#000"/><path id="4" d="m342.97 258.16c-1.528 11.683-.62 47.577 3.037 46.14 4.049 1.305 4.583-35.16 4.212-45.946-.052-1.194-7.04-1.938-7.249-.195z" stroke-linejoin="round" stroke-width=".625" stroke="#000"/><path id="5" d="m328.14 202.55h-3.151" stroke="#000" stroke-width="1.25"/></defs><g fill-rule="evenodd"><g transform="matrix(.7553 0 0 1.1329-28.678-260.35)" stroke-width="1.25"><path fill="#00c4ff" d="m37.969 229.8h847.35v141.61h-847.35z"/><path fill="#fff" d="m37.969 370.83h847.35v141.61h-847.35z"/><path fill="#00c4ff" d="m37.969 511.86h847.35v141.61h-847.35z"/></g><path d="m382.49 221.33c0 14.564-11.864 26.37-26.499 26.37s-26.499-11.806-26.499-26.37 11.864-26.37 26.499-26.37 26.499 11.806 26.499 26.37z" stroke-opacity=".387" transform="matrix(1.64515 0 0 1.62013-265.89-116.57)" stroke="#000" stroke-width=".625" fill="#ffd600"/></g><g stroke-opacity=".387" fill="none" stroke="#000" stroke-width=".5" transform="matrix(1.2703 0 0 1.231-130.87-28.912)"><path d="m364.43 195.28c-4.34-1.049-8.785.422-10.185.318-1.925 0-6.79-1.68-10.185 0"/><path d="m338.71 200.49c4.305-3.01 9.115 1.086 10.394.315 3.492-2.294 6.736-1.868 10.08.21 2.155 1.272 5.914-3.71 10.289.315"/></g><path d="m333.88 205.63c2.275-1.855 9.694-1.925 17.324 2.414 1.155-.28 1.89-1.084.945-2.204-5.74-1.995-12.424-4.515-18.584-2.625-1.68 1.19-1.26 1.96.315 2.415z" stroke-opacity=".387" fill-rule="evenodd" transform="matrix(1.2703 0 0 1.231-130.87-28.912)" stroke="#000" stroke-width=".5" fill="#efc000" id="0"/><use transform="matrix(-1 0 0 1 638.11 0)" xlink:href="#0"/><path stroke-linejoin="round" d="m330.84 211.83c7.525-4.83 17.464-2.31 21.629.315-6.09-1.155-6.195-1.68-10.605-1.785-3.115.106-7.699-.21-11.02 1.47z" stroke-opacity=".387" fill-rule="evenodd" transform="matrix(1.2703 0 0 1.231-130.87-28.912)" stroke="#000" stroke-width=".625" fill="#f0bf00" id="1"/><path d="m348.06 211.3c-3.675 7.665-10.08 7.77-14.594-.42" stroke-opacity=".387" transform="matrix(1.2703 0 0 1.231-130.87-28.912)" stroke="#000" stroke-width=".625" fill="none" id="2"/><g fill-rule="evenodd"><path d="m308.78 234.09c-1.384 1.514-4.771 2.414-7.565 2.01s-3.937-1.959-2.553-3.473c1.384-1.514 4.771-2.414 7.565-2.01s3.937 1.959 2.553 3.473" fill-opacity=".368" stroke-width="2.03"/><path d="m301.91 232.14c.143.353-.298.82-.984 1.045s-1.358.121-1.501-.232c-.143-.353.298-.82.984-1.045s1.358-.121 1.501.232" fill="#ffd700" stroke-width="1.799"/></g><g stroke-opacity=".387"><g transform="matrix(1.2703 0 0 1.231-130.87-28.912)"><g fill="none" stroke="#000" stroke-width=".625"><path d="m349.18 224.5c-4.239 7.127 1.537 2.1 2.475 4.164 1.65 1.913 3.301 1.462 4.276 0 .976-1.651 7.127 3.113 2.926-3.938"/><g stroke-linejoin="round"><use xlink:href="#6"/><use xlink:href="#7"/></g></g><use fill-rule="evenodd" fill="#ffd700" xlink:href="#3"/></g><path stroke-linejoin="round" d="m342.97 258.16c-1.528 11.683-.62 47.577 3.037 46.14 4.049 1.305 4.583-35.16 4.212-45.946-.052-1.194-7.04-1.938-7.249-.195z" fill-rule="evenodd" transform="matrix(1.2703 0 0 1.231-119.92-28.07)" stroke="#000" stroke-width=".625" fill="#ffd700"/></g><g stroke-opacity=".082" stroke="#000" stroke-width=".625" transform="matrix(1.2703 0 0 1.231-130.87-28.912)"><path d="m349.18 224.5c-4.239 7.127 1.537 2.1 2.475 4.164 1.65 1.913 3.301 1.462 4.276 0 .976-1.651 7.127 3.113 2.926-3.938" fill="none"/><g fill="#f0bf00" fill-rule="evenodd" stroke-linejoin="round"><path d="m341.64 236.31c3.638-.413 9.753-3.188 11.929-.9 1.875-2.063 8.477.6 12.715.9-3.076 1.875-9.302.6-12.265 2.588-2.889-1.763-9.266-.15-12.379-2.588z" stroke-linecap="round" id="6"/><path d="m347.5 239.58c5.514 2.251 6.752 1.913 12.716.225-1.238 3.264-4.398 3.951-6.19 3.826-1.857-.121-4.388.113-6.526-4.051z" id="7"/></g></g><g fill="#ffd700" fill-rule="evenodd"><g stroke-opacity=".149"><use transform="matrix(-.90797-.86091-.88841.87987 837.01 353.18)" xlink:href="#3"/><use transform="matrix(.88889.8794-.90749.86138 204.62-258.71)" xlink:href="#3"/><use transform="matrix(-.00731-1.23097-1.27028.00709 601.74 676.9)" xlink:href="#3"/><use transform="matrix(-1.16529-.49007-.50571 1.12924 835.79 164.23)" xlink:href="#4"/><use transform="matrix(-.90489-.86396-.89154.87689 827.91 348.79)" xlink:href="#4"/><use transform="matrix(-.49635-1.13312-1.16931.481 748.11 528.49)" xlink:href="#4"/></g><g stroke-opacity=".387"><use transform="matrix(0-1.231 1.2703 0 41.18 668.38)" xlink:href="#4"/><use transform="matrix(-1.2703 0 0 1.231 770.68-28.28)" xlink:href="#3"/><use transform="matrix(.90797-.86091.88841.87987-196.84 353.81)" xlink:href="#3"/><use transform="matrix(-.88889.8794.90749.86138 435.56-258.39)" xlink:href="#3"/><use transform="matrix(.00731-1.23097 1.27028.00709 38.07 676.9)" xlink:href="#3"/><use transform="matrix(1.16529-.49007.50571 1.12924-195.68 164.87)" xlink:href="#4"/><use transform="matrix(.90489-.86396.89154.87689-188.6 348.79)" xlink:href="#4"/><use transform="matrix(.49635-1.13312 1.16931.481-107.76 528.49)" xlink:href="#4"/></g><g stroke-opacity=".149"><use transform="matrix(.90797-.86091.88841.87987-196.84 353.81)" xlink:href="#3"/><use transform="matrix(-.88889.8794.90749.86138 435.56-258.39)" xlink:href="#3"/><use transform="matrix(.00731-1.23097 1.27028.00709 38.07 676.9)" xlink:href="#3"/><use transform="matrix(1.16529-.49007.50571 1.12924-195.68 164.87)" xlink:href="#4"/><use transform="matrix(.90489-.86396.89154.87689-188.6 348.79)" xlink:href="#4"/><use transform="matrix(.49635-1.13312 1.16931.481-107.76 528.49)" xlink:href="#4"/></g><g stroke-opacity=".387"><use transform="matrix(0 1.231-1.2703 0 598.48-184.42)" xlink:href="#4"/><use transform="matrix(1.2703 0 0-1.231-131 512.22)" xlink:href="#3"/><use transform="matrix(-.90797.86091-.88841-.87987 836.51 130.14)" xlink:href="#3"/><use transform="matrix(.88889-.8794-.90749-.86138 204.12 742.35)" xlink:href="#3"/><use transform="matrix(-.00731 1.23097-1.27028-.00709 601.61-192.96)" xlink:href="#3"/><use transform="matrix(-1.16529.49007-.50571-1.12924 835.35 319.09)" xlink:href="#4"/><use transform="matrix(-.90489.86396-.89154-.87689 828.28 135.16)" xlink:href="#4"/><use transform="matrix(-.49635 1.13312-1.16931-.481 747.44-44.549)" xlink:href="#4"/></g><g stroke-opacity=".149"><use transform="matrix(-.90797.86091-.88841-.87987 836.51 130.14)" xlink:href="#3"/><use transform="matrix(.88889-.8794-.90749-.86138 204.12 742.35)" xlink:href="#3"/><use transform="matrix(-.00731 1.23097-1.27028-.00709 601.61-192.96)" xlink:href="#3"/><use transform="matrix(-1.16529.49007-.50571-1.12924 835.35 319.09)" xlink:href="#4"/><use transform="matrix(-.90489.86396-.89154-.87689 828.28 135.16)" xlink:href="#4"/><use transform="matrix(-.49635 1.13312-1.16931-.481 747.44-44.549)" xlink:href="#4"/></g><g stroke-opacity=".387"><use transform="matrix(-1.2703 0 0-1.231 759.53 512)" xlink:href="#4"/><use transform="matrix(0 1.231 1.2703 0 40.634-194.91)" xlink:href="#3"/><use transform="matrix(-.88841-.87987.90797-.86091 434.92 742.67)" xlink:href="#3"/><use transform="matrix(.90749.86138.88889-.8794-196.84 129.83)" xlink:href="#3"/><use transform="matrix(-1.27028-.00709.00731-1.23097 768.32 515.03)" xlink:href="#3"/><use transform="matrix(-.50571-1.12924 1.16529-.49007 239.93 741.54)" xlink:href="#4"/><use transform="matrix(-.89154-.87689.90489-.86396 429.72 734.68)" xlink:href="#4"/><use transform="matrix(-1.16931-.481.49635-1.13312 615.19 656.34)" xlink:href="#4"/></g><g stroke-opacity=".149"><use transform="matrix(-.88841-.87987.90797-.86091 434.92 742.67)" xlink:href="#3"/><use transform="matrix(.90749.86138.88889-.8794-196.84 129.83)" xlink:href="#3"/><use transform="matrix(-1.27028-.00709.00731-1.23097 768.32 515.03)" xlink:href="#3"/><use transform="matrix(-.50571-1.12924 1.16529-.49007 239.93 741.54)" xlink:href="#4"/><use transform="matrix(-.89154-.87689.90489-.86396 429.72 734.68)" xlink:href="#4"/><use transform="matrix(-1.16931-.481.49635-1.13312 615.19 656.34)" xlink:href="#4"/></g></g><g fill="#00699d" fill-rule="evenodd" fill-opacity=".867"><g stroke-opacity=".134"><use transform="matrix(-1.2703 0 0 1.231 769.71-28.594)" xlink:href="#5"/><use transform="matrix(-1.2703 0 0 1.231 770.71-26.1)" xlink:href="#5"/><use transform="matrix(-1.40641 0 0 1.231 815.79-23.746)" xlink:href="#5"/><use transform="matrix(-1.40639 0 0 1.231 817.08-21.53)" xlink:href="#5"/><use transform="matrix(-1.67856 0 0 1.231 906.69-19.17)" xlink:href="#5"/><use transform="matrix(-1.85997 0 0 1.231 966.09-16.82)" xlink:href="#5"/><use transform="matrix(-1.76927 0 0 1.231 937.16-14.188)" xlink:href="#5"/><use transform="matrix(-1.72391 0 0 1.231 921.99-11.555)" xlink:href="#5"/><use transform="matrix(-1.76927 0 0 1.231 936.89-9.06)" xlink:href="#5"/><use transform="matrix(-2.22296 0 0 1.231 1084.31-6.153)" xlink:href="#5"/><use transform="matrix(-1.90533 0 0 1.231 980.68-2.828)" xlink:href="#5"/></g><g stroke-opacity=".063"><use transform="matrix(-1.90533 0 0 1.231 980.53-.474)" xlink:href="#5"/><use transform="matrix(-1.90533 0 0 1.231 979.53 2.712)" xlink:href="#5"/><use transform="matrix(-1.90533 0 0 1.231 979.38 5.482)" xlink:href="#5"/><use transform="matrix(-1.90533 0 0 1.231 977.67 8.531)" xlink:href="#5"/><use transform="matrix(-1.90533 0 0 1.231 975.96 11.02)" xlink:href="#5"/><use transform="matrix(-1.90533 0 0 1.231 974.38 13.933)" xlink:href="#5"/><use transform="matrix(-1.90533 0 0 1.231 972.53 16.709)" xlink:href="#5"/><use transform="matrix(-1.90533 0 0 1.231 971.25 19.34)" xlink:href="#5"/><use transform="matrix(-1.90533 0 0 1.231 968.52 22.519)" xlink:href="#5"/><use transform="matrix(-1.2249 0 0 1.231 744.08 25.425)" xlink:href="#5"/></g></g><use transform="matrix(-1 0 0 1 639.42-.318)" xlink:href="#1"/><use transform="translate(33.17-.636)" xlink:href="#2"/><g fill-rule="evenodd"><path d="m341.93 233.54c-1.43 1.45-4.929 2.311-7.815 1.924s-4.067-1.876-2.637-3.325c1.43-1.45 4.929-2.311 7.815-1.924s4.067 1.876 2.637 3.325" fill-opacity=".368" stroke-width="2.097"/><path d="m335.08 231.51c.143.353-.298.82-.984 1.045s-1.358.121-1.501-.232c-.143-.353.298-.82.984-1.045s1.358-.121 1.501.232" fill="#ffd700" stroke-width="1.799"/></g></svg>