<svg xmlns="http://www.w3.org/2000/svg" viewBox="0 0 1000 500" enable-background="new 0 0 1000 500"><path fill="#006" d="m0 0h1000v500h-1000z"/><path d="M0,250L1000,0v500L0,250z" fill="#bd1021"/><path d="M107.14,250L1000,26.79v446.42" fill="#fff"/><g stroke="#000"><g stroke-width="1.72"><path d="m832.04 306.06c0 0-6.243-5.108 1.135-13.337-3.973-3.405-.283-9.931-.283-9.931s-6.811-2.555.283-13.05c-5.108-3.405-2.838-11.07-2.838-11.07s-16.742-6.243-.85-12.201c-13.05 5.675-25.26-7.663-25.26-7.663l-19.01.568c-3.216-15.797-28.28-2.081-9.648-47.39-4.824-.851-10.216-2.27-15.607 1.703-5.392 3.973-20.715 12.486-29.796 3.973-9.08-8.513 5.959-20.715 6.243-20.999.284-.284 20.15-10.5 22.986-17.31-.284-5.108-6.527-9.08-.851-20.15 6.527-10.5 46.538-20.432 64.7-23.837 8.796-3.973 12.769-11.635 12.769-11.635l1.987 7.378c0 0 40.3-11.918 42.28-17.594 1.987-5.675.852 5.108.852 5.108 15.891-1.419 36.04-15.04 38.876-8.797 13.337-2.554 38.877-13.905 38.877-13.905s8.796-.284 2.553 9.365c3.973 6.243-1.135 11.635-1.418 11.635-.285 0 1.702 6.243-3.406 9.648 1.705 5.392-3.122 9.648-3.122 9.648s2.271 6.527-6.81 9.932c.852 5.676-5.108 6.811-5.108 6.811s.852 5.959-3.122 8.513c0 4.54-4.54 6.811-4.54 6.811s2.837 1.703-1.136 4.54c-3.972 2.838-45.12 28.09-45.12 27.81 0-.284 30.08 5.392 32.07 6.527 1.987 1.135 24.688 16.18 24.688 16.18l-22.987 28.377c0 0-25.539-2.837-26.673-1.418-1.135 1.418 5.391 1.987 6.81 4.256 1.42 2.27 3.69 7.663 8.229 7.094 4.541-.568-8.513 8.23-17.03 9.08 0 3.122 10.783 3.405 13.621.852 2.838-2.555-6.811 7.378-7.946 8.796s12.771-1.987 12.771-1.987-2.271 9.364-14.472 12.202c4.823 7.946 2.837 13.05 2.553 13.05s-7.946-7.946-15.324-6.528c1.987 7.663 7.946 14.756 9.649 15.892 1.702 1.135-13.337.85-15.324-3.406-1.987-4.256-3.69 10.216 1.702 14.757-6.242.283-11.634-3.406-11.634-3.406s-3.688 8.513-1.135 12.771c2.555 4.256-8.796-8.514-8.796-8.514l-21.567 9.08-4.826-8.23z" fill="#9c3900" stroke-linejoin="round"/><g fill="#ffc221"><path d="m665.36 289.17c.505 0 31.33-.506 45.48-8.591 7.08 11.12 16.676 18.697 16.676 18.697l4.548-16.17c0 0 11.12.505 12.13 3.03-1.516 3.03-2.02 7.07-2.02 7.07s7.58.506 8.09 1.516c.505 1.01-2.02 9.601-2.02 9.601l32.34 7.58c0 0 2.527-12.633 5.05-11.12 2.527 1.516 13.644 17.18 29.31 18.19 15.665 1.01 16.676-13.14 16.676-13.14l3.537 2.02c0 0 6.569-14.15 7.58-14.15s2.527 2.02 11.12 2.02c2.527 3.03 3.538 10.11 3.538 10.11s-9.602 9.602-6.57 17.18c3.03 7.58 3.538 5.558 3.538 5.558l69.74 16.676c0 0 3.538 5.559-2.526 8.591 0 .505-70.24-16.17-70.24-16.17s-6.57 7.58-11.623 6.06c-5.05-1.516-1.516 3.03-1.516 3.03l75.8 6.06c0 0 5.559 7.07 1.516 9.1-5.05.505-81.86-5.05-81.86-5.05s-4.548 9.601-9.601 1.516c-3.537 5.558-7.58-1.516-7.58-1.516s-6.569 5.05-7.58-.506c-5.559 4.04-9.1-2.526-9.1-2.526l-32.34-2.02-2.02 3.03c0 0 5.559 1.516-3.03 5.05-8.591 3.537 51.54 2.02 53.06 2.526 1.516.506-4.04 5.05-4.04 5.05s30.825 2.02 36.38-4.548c5.559-6.57-2.02 8.59-2.02 8.59s24.26-1.01 24.26-2.02-.506 7.58-17.18 6.569c10.11 6.57 22.739 10.612 22.739 10.612s-12.633 3.03-27.29-.505c2.526 6.569 13.644 12.633 13.644 12.633s-8.09 7.07-26.28-10.11c5.05 9.1 1.01 12.634.506 11.623-.506-1.01-9.1-13.644-29.31-18.19 12.633 8.08 7.07 11.623 7.07 11.623s-6.569-11.623-17.18 0c-4.04-10.612-19.708-16.676-38.911-17.687-6.06-7.07-9.601-5.05-23.751-9.1-8.09-9.1-19.708-19.2-19.708-19.2s.505-13.644 14.15-12.13c1.516 4.548 1.516 3.03 1.516 3.03s15.16-5.559 19.708 2.02c6.569-11.623 15.665-1.737 17.18 2.304 4.354.638 26.28 1.233 26.28 1.233s-2.527-4.548-1.01-4.04c1.516.505 13.644-4.548 13.14-6.06-.506-1.516-1.01-6.569 1.01-6.06 2.02.505-17.18-2.527-27.793 5.559-3.537-3.538-1.01-13.14-1.01-13.14l-31.33-6.569-1.516 8.08c0 0-9.1 1.516-8.591-.505.505-2.02-2.02 7.07-2.02 7.07s-12.13-3.03-12.13-3.537c0-.505 3.537-18.19 3.537-17.687 0 .506-10.11 1.01-24.26 11.623-4.04-12.633-35.879-29.31-35.879-29.814z"/><path d="m704.78 247.73c0 0-21.22 18.19 0 28.803 1.01-7.07 2.527-8.08 2.527-8.08s17.687 6.569 28.3-9.1c-4.548-6.569-12.633-4.04-12.633-4.04s-16.676-.001-18.19-7.58z"/></g><path d="m722.47 255.82l-14.655 12.633" fill="none"/><g fill="#fff"><path d="m705.48 247.88c0 0 2.838-2.838 3.689-6.243.851-3.405-1.135-7.094 2.27-10.216 3.405-3.121 48.24-22.13 51.93-25.823 3.689-3.689 10.499-11.634 11.351-13.337.851-1.703 3.405 8.513-4.257 13.05 8.229-2.271 13.621-4.824 17.03-3.689-3.406 4.824-12.486 12.77-16.743 12.77 9.932-3.69 19.01-6.811 21.567-4.825 2.553 1.987-12.202 11.919-18.16 12.486 9.932-2.553 23.27-6.526 24.971-2.27-5.391 1.703-3.69 3.12-14.756 9.364-1.419 1.136-8.513 1.418-8.513 1.418 8.513-.852 20.15-4.256 21.282 1.987-6.81 2.553-9.364 5.96-15.04 7.378-5.675 1.42-18.729 3.973-26.675 7.094-7.945 3.122-19.58 12.202-19.58 12.202s-25.26.852-25.26.567c0-.283-4.824-11.634-5.108-11.918h.003z" stroke-linejoin="round"/><path d="m921.99 230.57l49.09 9.364c0 0 5.393-6.243 2.555-9.648 7.378-1.702 5.391-11.351 5.391-11.351s8.513-3.688 1.418-12.202c4.826-4.824-1.135-8.513-1.135-8.513s1.987-8.513-4.256-9.364c1.703-6.81-10.783-9.08-10.783-9.08s-25.823 7.094-43.985 7.662c5.959 5.959-2.27 9.648-2.27 9.648s4.825 3.405 3.405 6.243c-1.418 2.838.852 5.96-5.391 7.946 8.229 3.69-.852 9.931-.852 9.931s9.08 6.244 6.811 9.365z"/></g><g fill="none"><path d="m742.17 293.72l-6.569 29.31"/><path d="m748.24 304.83l-2.02 9.601"/><path d="m780.58 312.41l-3.03 9.1"/><path d="m836.67 374.06c-.505 0-16.17 2.02-18.19 1.516-2.02-.505 24.761 8.08 24.761 11.622"/><path d="m808.37 377.6c0 0-15.666-10.11-18.19-9.1-2.527 1.01 15.665-.505 17.18-2.02"/><path d="m776.03 365.98c0 0-16.17.505-17.687-1.01s15.665 11.12 18.697 10.11"/><path d="m744.7 358.9c-.505 0-11.12-4.04-15.665-5.05 4.04 4.04 7.08 9.602 17.18 11.623"/><path d="m748.74 352.34c-.505-1.01-20.21-7.07-20.21-10.11 4.548 1.516 11.12 3.537 17.18 2.02"/><path d="m853.35 329.09l-2.02 9.1"/><path d="m767.6 343.56c0 0 3.378 3.724.346 8.272"/><path d="m838.69 347.28l-5.558.506"/><path d="m793.21 344.25l10.11 1.516"/><path d="m820.4 318.26c0 0 .283 10.216-8.229 9.933-8.513-.285-5.676.283-5.676.283"/><path d="m826.93 316.55c0 0 3.405 1.135 2.555 3.69-.852 2.553.85 9.931-9.08 17.03-10.501 2.27-9.364-8.796-9.364-8.796"/><path d="m830.62 319.68c0 0 6.243-3.688 7.094 2.271.85 5.958-5.108 17.03-9.364 18.729-4.258 1.702-9.08-.285-8.514-3.121"/><path d="m838.28 322.23c0 0 5.676-4.541 7.378 1.418 1.703 5.96-4.54 19.297-7.094 19.58"/><path d="m846.23 323.65c0 0 2.838-1.418 4.823.283"/><path d="m837.15 344.08c-1.135.283-5.959.567-7.661-3.121"/><path d="m811.61 334.15c-.283 0-5.958.285-5.958.285"/><path d="m833.46 356.57l-.567-9.364-2.27-3.121-3.973 3.973c0 0-.568 9.364-2.27 10.216"/><path d="m826.65 347.77c-.283-.567-3.122-5.958-3.122-5.958l-4.825 5.958c0 0-.567 8.514-2.27 9.366"/><path d="m818.7 347.49c0-.283-1.987-5.675-1.987-5.675s-5.675 3.121-6.243 5.391c-.567 2.27-.852 8.513-2.27 9.08"/><path d="m810.47 346.07c0 0 .568-5.108-1.135-5.108-1.702 0-9.364 7.095-9.648 13.337"/><path d="m717.39 245.9c0 0 .284-5.675 2.838-7.661 2.554-1.986 15.324-6.811 18.16-11.07 2.838-4.256-4.257 7.378-3.122 10.499"/><path d="m722.5 237.38c0 0 6.243 2.271 4.824 7.094"/></g></g><g fill="none"><path d="m729.88 240.65c0 2.586-2.096 4.682-4.682 4.682s-4.682-2.096-4.682-4.682c0-2.586 2.096-4.682 4.682-4.682s4.682 2.096 4.682 4.682z"/><g stroke-width="1.72"><path d="m917.17 220.07c0 0 43.42 5.108 45.4 5.108 1.987 0 9.648 2.555 11.07 5.108"/><path d="m919.44 217.52l60.44 1.418"/><path d="m919.72 216.1c0 0 57.32-3.405 61.29-9.364"/><path d="m921.43 203.61c0 0 57.61-6.243 58.17-5.392"/><path d="m919.44 196.52c0 0 55.903-8.797 56.47-7.378"/><path d="m759.96 160.48c0 0 17.594 19.296 15.891 32.35"/><path d="m774.72 182.61c0 0 5.675 8.229 7.945 9.08s22.13 1.986 23.269 10.5c1.135 5.392-4.256 3.689-3.405 7.662 1.418 5.108 14.756 11.634 29.23 3.973"/><path d="m818.42 217.8c0 0 11.918 17.594 29.512-1.418"/><path d="m838.85 224.05c0 0 14.472 7.661 26.39-12.202"/><path d="m849.92 225.75c0 0 7.094 5.96 21.852-1.985"/><path d="m892.2 215.82c0 0 21.85 4.54 23.27 5.96"/><path d="m900.43 210.99c.283 0 15.324.568 15.324.568"/><path d="m891.06 202.48c0 0 26.11-1.703 29.513 3.69"/><path d="m879.71 194.25c0 0 36.607 1.419 38.31 3.405"/><path d="m887.94 231.71c0 0 6.243-1.702 7.094-.85"/><path d="m873.75 247.03c0 0 8.229 7.094 18.73 3.973"/><path d="m878.29 258.95c0 0 9.364 4.256 20.432 1.702"/><path d="m881.41 266.04c0 0 9.364 6.243 15.607 5.107"/><path d="m877.16 269.73c0 0 6.526 4.825 6.81 7.378"/><path d="m868.08 275.41c0 0 1.987 10.215 9.08 13.904"/><path d="m863.25 279.95c0 0-3.122 13.337 4.825 21.567"/><path d="m855.02 290.45c0 .283-.567 6.243-.283 6.811"/><path d="m803.94 238.8l15.324-.852c0 0 5.675-2.27 1.702-5.958"/><path d="m822.96 235.4c.285 0 14.472 1.135 18.16 5.391 3.688 4.256 8.229 12.769 10.783 14.189 2.555 1.418 3.122-.568 3.122-.568"/><path d="m848.78 252.14c0 0-7.661 13.05-1.702 17.03"/><path d="m844.52 266.61c0 0-6.81 9.08-1.418 13.621"/><path d="m841.69 279.1c0 0-5.391 8.798 1.136 14.756"/><path d="m839.3 255.76c-.366.366-6.591 4.76-8.788 3.662"/><path d="m832.71 269.68c0 0 2.563 2.563 4.76 2.197"/><path d="m833.01 282.98l4.09 2.805"/><path d="m833.56 293.17l3.538 2.135"/><path d="m769.47 154.01c0 0 7.46 3.879 13.428 0 5.969-3.879 34.615-18.501 42.08-20.888 7.459-2.387 11.637-16.11 13.13-22.08"/><path d="m832.44 127.15l41.777-12.235c0 0 6.863-5.67 7.162-16.11"/><path d="m878.39 110.14c0 0 41.776-4.178 41.776-19.695"/><path d="m913.6 101.19c0 0 43.866-11.936 48.04-16.412"/><path d="m791.26 163.55c0 0 26.558-13.727 30.736-15.219 4.177-1.492 13.725-13.428-.597-13.428"/><path d="m804.09 168.93c.299 0 21.783-14.03 28.945-15.815 3.88-5.371 1.791-11.04-4.774-9.847"/><path d="m834.82 149.53c.597-.298 11.638-.597 7.759 8.06-5.668 4.178-30.14 16.412-30.14 16.412"/><path d="m829.15 140.28l46.551-15.517c0 0 3.88-8.06-1.79-9.251"/><path d="m912.71 101.49c0 .298 5.969 3.581 2.388 8.952-6.565 3.879-37.599 11.339-37.599 11.339"/><path d="m959.85 96.71l-43.86 12.238"/><path d="m956.57 106.56l-38.2 11.638"/><path d="m953.29 116.11l-33.72 10.14"/><path d="m947.02 125.66c-.896 0-25.07 7.46-25.07 7.46"/><path d="m941.65 133.12l-15.518 6.266"/><path d="m937.77 141.47c-.597 0-13.428 5.67-13.428 5.67"/><path d="m933.89 148.34l-11.936 5.669"/><path d="m913.3 161.17c0 0 1.493.597 1.194 2.387"/><path d="m883.16 177.58c0 0 5.074 1.79.299 6.565-2.387 3.282-9.25 2.387-13.428 8.355"/><path d="m915.69 110.74c0 0 6.268 1.492 1.493 9.549-12.534 4.774-37.898 12.533-37.898 12.533s-1.193 2.089-4.475 3.879c-3.282 1.79-39.39 11.936-39.39 11.936"/><path d="m917.78 119.99c0 0 6.863 2.984 0 8.06-7.759 4.476-34.914 12.831-34.914 12.831s-.299 2.387-1.491 3.282c-1.194.895-37 12.831-37 12.831"/><path d="m919.57 128.04c0 0 7.162 2.089.896 8.06-7.46 4.476-31.33 12.533-31.33 12.533s-2.387 2.984-6.266 4.178c-3.88 1.194-28.646 11.339-28.646 11.339"/><path d="m921.36 136.1c2.09.895 7.759 1.79.896 7.162-8.06 3.581-27.751 11.339-27.751 11.339l-1.791 3.282-31.33 13.428"/><path d="m923.15 144.16c0 0 2.984 3.581-3.581 7.759-7.162 3.879-22.678 9.847-22.678 9.847"/><path d="m919.57 152.51c0 0 3.282 2.089-.894 5.073-4.775 2.387-23.574 12.235-23.574 12.235l-12.236 8.06"/><path d="m876.6 125.06c0 .298 5.074 4.476 3.282 9.25 4.477 3.282 3.581 6.863 3.581 6.863s6.266 3.581 5.372 8.654c6.266 1.492 5.968 5.073 5.968 5.073l-2.09 3.282c0 0 6.266-.298.896 7.759 3.282 1.79 1.791 3.879 1.791 3.879"/><path d="m893.61 166.24c-.896 0-21.783 7.759-27.15 12.533"/><path d="m843.18 156.99c0 0 6.266-.298 5.372 6.565 7.162-2.387 5.669 4.476 5.669 4.476s8.355-3.282 6.863 7.162c5.371-1.194 4.475 4.178 4.475 4.178s4.775-.298 4.775 2.387c3.282-2.984 6.863-1.492 6.863-1.492s2.387-3.283 5.669-2.387"/><path d="m848.85 163.26c0 .597-28.05 16.11-28.05 16.11"/><path d="m854.22 168.33l-21.19 13.13"/><path d="m861.38 174.89c0 .298-18.502 11.04-18.502 11.04"/><path d="m865.56 179.07c0 0-13.13 10.743-16.11 10.146"/><path d="m870.04 182.35c0 0-7.46 5.67-13.727 8.355"/><path d="m877.79 179.97c0 0 2.387 2.984-12.533 10.742"/></g></g></g></svg>