<svg xmlns="http://www.w3.org/2000/svg" viewBox="0 0 800 400" enable-background="new 0 0 800 400"><path fill="#002395" d="m0 0h800v400h-800z"/><path d="M212,0h400v400L212,0z" fill="#fecb00"/><g fill="#fff"><path d="m117.66 26.24l22.336-68.74 22.336 68.74-58.48-42.486h72.28l-58.48 42.486"/><path d="m167.66 76.24l22.336-68.74 22.336 68.74-58.48-42.486h72.28l-58.48 42.486"/><path d="m217.66 126.24l22.336-68.74 22.336 68.74-58.48-42.486h72.28l-58.48 42.486"/><path d="m267.66 176.24l22.336-68.74 22.336 68.74-58.48-42.485h72.28l-58.48 42.485"/><path d="m317.66 226.24l22.336-68.74 22.336 68.74-58.48-42.485h72.28l-58.48 42.485"/><path d="m367.66 276.24l22.336-68.74 22.336 68.74-58.48-42.485h72.28l-58.48 42.485"/><path d="m417.66 326.24l22.336-68.74 22.336 68.74-58.48-42.485h72.28l-58.48 42.485"/><path d="m467.66 376.24l22.336-68.74 22.336 68.74-58.48-42.485h72.28l-58.48 42.485"/><path d="m517.66 426.24l22.336-68.74 22.336 68.74-58.48-42.485h72.28l-58.48 42.485"/></g></svg>