<svg xmlns="http://www.w3.org/2000/svg" viewBox="0 0 1500 1000" enable-background="new 0 0 1500 1000"><path fill="#00267f" d="m0 0h1500v1000h-1500z"/><path fill="#ffc726" d="m500 0h500v1000h-500z"/><path d="m947.19 345.38c-37.25 5.798-75.61 25.359-101.84 52.53-3.045 3.748 16.222-4.1 17.979-4.334 14.407-4.334-4.275 20.263-5.329 26.706-14.758 47.14-27.584 92.71-32.33 146.94 0 3.748-.586 6.501-2.343 6.676l-49.31-7.321v-174.64c11.596-.293 29.634 2.753 39.941 6.149-33.21-33.09-48.726-76.31-63.953-117.83-15.227 41.522-30.747 84.74-63.953 117.83 10.307-3.397 28.345-6.442 39.941-6.149v174.64l-49.31 7.321c-1.757-.176-2.343-2.928-2.343-6.676-4.744-54.23-17.569-99.79-32.33-146.94-1.054-6.442-19.736-31.04-5.329-26.706 1.757.234 21.02 8.08 17.979 4.334-26.24-27.17-64.6-46.735-101.84-52.53-3.28-.82-5.212.82-2.284 4.627 49.43 76.08 90.77 165.86 90.42 272.38 19.21 0 65.768-11.362 85.04-11.362v123.22h23.719.586 23.719v-123.22c19.268 0 65.827 11.362 85.04 11.362-.351-106.53 40.995-196.31 90.42-272.38 2.93-3.807.997-5.447-2.282-4.627"/></svg>