<svg xmlns="http://www.w3.org/2000/svg" viewBox="0 0 900 600" enable-background="new 0 0 900 600"><path fill="#009e49" d="m0 0h900v600h-900z"/><path fill="#ef2b2d" d="m0 0h900v300h-900z"/><g fill="#fcd116"><path d="m391.22 380.9l30.902-95.11 47.553 15.451"/><path d="m508.78 380.9l-80.902-58.779 29.389-40.451"/><path d="m391.22 380.9l80.902-58.779-29.389-40.451"/><path d="m354.89 269.1h100v50"/><path d="m354.89 269.1l80.902 58.779 29.389-40.451"/><path d="m508.78 380.9l-30.902-95.11-47.553 15.451"/><path d="m450 200l-30.902 95.11 47.553 15.451"/><path d="m545.11 269.1h-100v50"/><path d="m545.11 269.1l-80.902 58.779-29.389-40.451"/><path d="m450 200l30.902 95.11-47.553 15.451"/></g></svg>