<svg xmlns="http://www.w3.org/2000/svg" viewBox="0 0 500 300" enable-background="new 0 0 500 300"><path d="M0,0h500L0,300h500L0,0z" fill="#ce1126"/><path d="M0,0l500,300 M500,0L0,300" stroke="#fff" stroke-width="40"/><path d="M0,0v300L500,0v300L0,0z" fill="#1eb53a"/><circle cx="250" cy="150" r="85" fill="#fff"/><g fill="#1eb53a"><path d="m267.32 96h-11.55l-5.77-10-5.77 10h-11.55l5.77 10-5.77 10h11.55l5.77 10 5.77-10h11.55l-5.77-10z"/><path d="m228.65 162h-11.54l-5.78-10-5.77 10h-11.55l5.78 10-5.78 10h11.55l5.77 10 5.78-10h11.54l-5.77-10z"/><path d="m305.33 162h-11.55l-5.77-10-5.78 10h-11.54l5.77 10-5.77 10h11.54l5.78 10 5.77-10h11.55l-5.78-10z"/></g><g fill="#ce1126"><path d="m297.48 171.66l4.73-8.2h-9.47l-4.73-8.2-4.74 8.2h-9.47l4.74 8.2-4.74 8.2h9.47l4.74 8.2 4.73-8.2h9.47z"/><path d="m259.47 106l4.73-8.2h-9.47l-4.73-8.2-4.73 8.2h-9.47l4.73 8.2-4.73 8.2h9.47l4.73 8.2 4.73-8.2h9.47z"/><path d="m220.47 172l4.73-8.2h-9.47l-4.73-8.2-4.73 8.2h-9.47l4.73 8.2-4.73 8.2h9.47l4.73 8.2 4.73-8.2h9.47z"/></g></svg>