<svg xmlns="http://www.w3.org/2000/svg" xmlns:xlink="http://www.w3.org/1999/xlink" viewBox="0 0 1200 600" enable-background="new 0 0 1200 600"><defs><path id="1" d="M0,0v150h700v150H600L0,0z M600,0H300v350H0v-50L600,0z"/><clipPath id="0"><use xlink:href="#1"/></clipPath></defs><path fill="#00247d" d="m0 0h1200v600h-1200z"/><path d="M0,0l600,300 M600,0L0,300" stroke="#fff" stroke-width="60"/><path d="M0,0l600,300 M600,0L0,300" stroke="#cf142b" stroke-width="40" clip-path="url(#0)"/><path d="M300,0v350 M0,150h700" stroke="#fff" stroke-width="100"/><path d="M300,0v350 M0,150h700" stroke="#cf142b" stroke-width="60"/><path d="M0,300h600V0h600v600H0V300z" fill="#cf142b"/><path d="m767.32 145.15v253.64c3 36.32 78.69 59.18 131.45 97.75 69.21-46.42 136.34-55.812 139.04-107.86l.842-243.53h-271.33-.005" fill="#fff"/><path d="m767.29 395.16l2.834 14.485 9.446 11.338 68.34 44.09 50.07 31.18 97.63-53.22 33.697-25.825 6.614-33.696-4.096-7.872.946 8.188-2.521 6.613-2.832-1.891-1.889-12.281-.317 9.131-4.723 5.357-.944-6.617 1.26-4.722-1.89-5.353-.63 10.706-2.519 4.726-2.206-3.151.946-4.726-.314-4.406-1.576-2.207-.317 4.726-.943 1.573.316 2.833-1.89 1.891-1.26-3.778.631-3.467-.631-3.146-1.26-3.467.317 5.67-3.15 6.928-2.52 1.574-1.574-1.89.317-6.613-2.206-3.778.629 8.188-3.148 7.244-1.889-2.207-.948-2.203v-3.467l3.467-8.816-3.467 3.15-2.832 7.556-1.26 2.203-1.574-3.778 2.206-8.503-1.261-1.572-2.833 10.391-2.521 1.574-1.889-.631-1.259.631-152.42 8.503-4.094-5.984-.943 5.984-2.521 2.203-2.518-11.02-1.89 11.654-2.521-5.669 1.261-12.914-1.261-.943-1.888 6.928v9.763l-.946 6.613-1.89-1.26-2.519-5.983-.314-9.764.943-6.928-2.519 8.188v10.08l-.314 5.04-3.151-6.928-1.574-5.67-3.149-6.612 1.89 8.503v4.41l-5.354-4.726-2.833-13.225-.63 9.763 1.26 4.722-1.574 1.891-3.149-5.67-1.889-7.556-2.204-7.244v11.651l1.574 6.3-1.26 1.576-2.519-1.26-.946-6.932-.631-10.07-2.518 6.928-.631 7.241-.944 5.67-1.574 3.781-4.41.322z" fill="#2f8f22" stroke="#000" stroke-width=".457"/><g fill="none"><path d="m876.02 472.1c-.818-14.885 12.643-29.772-23.593-44.66" stroke="#4dcf4a" stroke-width=".913"/><path d="m910.57 463.68c0-19.662-11.236-28.09-33.707-25.279" stroke="#38bb26" stroke-width="1.141"/><g stroke="#51c757" stroke-width=".913"><path d="m922.37 472.1c-11.875-14.298-27.737-12.642-46.35 0"/><path d="m951.86 453.57c-4.511-8.406-20.974-2.869-38.761 4.217"/></g><path d="m1011.69 426.6c-4.494-12.92-12.358-20.225-23.594-21.91" stroke="#7acb73" stroke-width=".822"/><path d="m1026.86 406.38c-2.981-6.674-6.101-13.07-13.482-10.955" stroke="#4cb135" stroke-width="1.141"/><path d="m845.69 459.47c3.925-13.476-.332-18.769-7.583-21.07" stroke="#60c85a" stroke-width="1.278"/><g stroke="#71ce5b" stroke-width="1.187"><path d="m781.64 409.75c7.5-3.256 13.489-9.532 24.436-5.896"/><path d="m772.38 401.32c6.125.128 10.402 2.519 11.796 8.425"/></g></g><g stroke="#000" stroke-width=".457"><path d="m905.36 150.64c-3.542 3.259-7.176 6.251-12.281 4.957-3.493 1.432-.105 9.672-5.793 7.974-5.518-4.368-4.058 5.21-7.594 7.214-3.232 1.033-9.233 2.622-4.482 6.46 2.904 2.836 5.695 7.763.941 10.235-2.755 5.184-3.342-4.775-7.426 1.074-1.324 5.916 8.791 4.627 4.088 9.212-.789 2.744-3.598-6.762-6.447.795-2.214 3.128-2.3 7.744 1.952 9.142 3.621 2.079 11.215-1.083 6.692 5.02.001 3.602-5.948 9.583-3.69 2.8 4.064-4.719-1.835-6.02-4.508-2.805-5.486 3.741-3.207 12.07 2.152 14.467 1.587 3.325 3.198 4.203-.819 8.204.549 4.01-.282 7.452-5.568 7.201-2.95 2.797-4.934 7.463-10.547 6.759-5.388 2.172-6.743-1.373-7.759-5.649-1.744-4.249-8.866-6.678-11.465-1.983-3.119-1.262-7.171-7.189-10.369-1.356-2.844 3.895-7.342-2.278-10.346 2.789-3.494 3.838 2.174 7.422 2.994 10.348 4.673 3.767 2.159 5.993 1.161 10.864-1.695 4.413 6.185 7.145 3.745 10.683-3.501 2.736-9.136 5.891-7.783 11.131-4.964 1.749-4.293 7.444-2.756 11.386 2.5 5.628 13.08 4.99 12.577-1.901 2.802-.399 6.095 5.682 8.138 8.636-1.979 2.08-8.403-.427-11.948 1.372-4.648-.479-8.636 4.573-13.274 5.254-3.363 1.993-7.841 4.584-6.723 9.42.834 4.066 2.372 8.11 1.773 12.29-2.229 3.695-4.139 7.612-3.958 12.07-1.966 6.513 2.427 14.368-3.145 19.699-1.574 4.818 2.703 4.796 4.609 1.724 2.582 1.133 4.215-3.279 3.972-5.184 2.26 4.124 3.04-1.129 5.086 2.743 4.139-1.375-.941-13.305 1.652-8.314 1.977 2.898 3.02 9.06 5.87 9.488 3.167-1.254 1.556-12.902 3.844-3.841 2.471 8.08 3.752 16.603 7.831 24.03 2.396 6.987 8.718 13.51 16.717 12.147 2.267 2.149-3.514 6.589-4.625 9.624-3.574 2.705-7.987-.786-11.767-.938-3.79 1.473-8.143 2.277-10.838 5.536-1.727 3.793-3.046 7.099-3.433 10.855-.889 5.31.13 11.423 5.429 14.05 1.326-4.065.322-7.529 5.988-7.181 3.963 2.273-.436 8.103 3.087 11.678 1.782 3.711 6.917 8.342 5.221 1.031-2.02-5.742 3.357-5.795 6.617-8.162 4.295-4.53 4.973-.126 4.395 4.302 2.407 3.149 7.216-2.931 8.382-5.643 1.664-3.146.099-9.928 3.056-8.559 3.808-.981 6.274-4.468 9.263-6.941 2.693-5.241 7.736-.069 11.705.689 4.945 2.133 11.575 1.377 13.804 7.372-3.809-1.882-8.259 1.64-6.864 6.386 1.925 4.869 7.809 3.45 11.349 2.756 3.562 1.468 7.575-3.01 11.407.298 3.75-.817 7.884-.305 11.406-2.177 3.468-2.849 2.046-9.281-3.03-8.299 2.324-3.432 7.592-4.395 11.09-6.786 4.03-.366 7.529-4.832 11.06-4.169 5.03 3.477 7.524 9.09 11.843 13.11 4.236.49.312 6.377.765 9.974-1.133 4.345 1.297 10.359 4.927 4.421 2.186-3.951 8.197-2.822 8.523-8.01 1.678-4.38 2.811 6.401 7.104 5.825.289 3.345-.977 11.534 4.069 6.148 4.429-4.065 5.167-10.29 3.59-15.805.71-4.513 7.239 2.715 6.05 5.955 1.01 4.167 6.178-3.601 6.909-5.973.568-6.086.746-13.276-3.863-17.94-3.499-1.737-4.949-7.177-9.954-6.975-3.445 1.895-7.375 5.505-8.844-.822-4.544-4.04 3.081-4.319 5.626-6.172 5.123-3.237 7.928-8.794 8.967-14.566 1.864-5.297 3.463-10.685 4.685-16.17 4.01-1.441 7.764-4.378 9.995-6.806 4.554-8.556.199 6.417-1.418 9.938 3.479 1.54 8.03-1.245 9.517-4.932 2.241-2.484 2.735-12.252 3.902-4.43.519 2.708-4.304 10.748-.395 9.326 4.04-1.293 7.281-5.179 9.137-8.92 1.618-5.02 3.228-11.126 1.187-15.964 3.248-2.224-.235-11.523-3.751-6.467-4.513-.851-3.215-7.42-4.04-10.661 3.697-5.232.613-15.367-6.579-15.12-3.635-2.084-6.535-3.01-10.262-4.421-4.842 1.511-8.302-3.067-13.12-2.274-7.278.361.612-7.967 3.435-5.097 3.301 4.252 10.294 6.275 13.691 1.072-.161-3.922-.152-9.324-3.655-12.394-.694-4.386-1.865-8.533-4.882-11.951-3.706-5.445 3.109-6.713 5.353-10.1.997-4.387-1.665-9.2-4.292-12.782 2.824-2.826 5.67-8.06 2.635-11.652 1.129-3.422-6.573-4.02-9.07-3.68-4.991-.331-9.181 4.221-14.15 4.562-4.251 3.469-9.404 5.395-14.873 4.01-3.868-.961-6.9-5.21-8.975-7.735-5.04 2.76-.915-5.447-5.01-7.85-2.833-3.885-8.699-3.051-6.572 2.649-3.706 4.527-.474-6.087-2.79-8.261-3.02-7.272-1.781-2.055 2.293-.065 4.528 3.1 11.122 1.225 12.254-4.338-2.222-3.304.26-9.824-4.752-9.356-3.669.56-3.854 9.498-5.908 2.19-.557-4.03-2.831-7.385-4.865-10.846 2.731 4.795 8.02 9.975 13.891 7.02 3.15-2.059 4.267-7.179 2.375-10.246.177-10.609-5.949 5.636-8.761-2.758-6.501-1.926 12.459-8.926 4.683-11.246-2.645 3.682-8.391 1.949-8.996-1.917 3.28-1.836 6.403-8.919 4.234-11.263-4.732-2.685-6.564-6.739-5.507-12.178-2.773-2.97-9.864 2.251-10.276-4.43-.231-6.205-5.882.819-8.981-1.423-2.339-1.386-4.715-2.759-6.925-4.483z"/><g fill="#d40000"><path d="m904.11 194.54c-.311 6.88-6.22 5.435-7.908 3.553-1.624-6.29 7.801-8.02 7.908-3.553z"/><path d="m907.31 194.14c.616 5.434 6.847 6.188 8.03 3.912 2.059-5.189-5.677-8.485-8.03-3.912z"/><path d="m903.48 188.9v1.19l-.655.12-.238-.298-.178-1.847-.358-.178v-.834l.833-.059v-.775h-1.012l-.359.775-.18 1.072.42.894-.42.715-.773.416-1.073 1.014-.716.356-1.668.179-1.369-.656-1.373-1.31c0 0-.595-.953-.655-1.192-.059-.238-.418-1.072-.418-1.072l-.359-.894-.655-.715-1.013-.12-.298 1.252-.356.476-.835.119-.892-.774-.596-1.013-.656-1.312-.536-.894-.774-1.13-.359-.655-.356-1.55-.895-1.132-.595-.953-.952-.774-1.014-.775h-1.192l-.775-.595-1.129-1.073-.835-1.132-.534-.655.119-.596.416-.538.894-.535.893-.06 1.014-.238 1.013-.536.179-.715.179-1.192 1.072-1.907.476-1.37.06-1.072 1.549-.239 1.49.179 1.072.299 1.132.356 1.31-.655 1.073-1.372.356-2.382.476-2.204.538-1.25h2.742l.95.655.775-.356.714-.358 1.729.178h.893c0 0 .715-1.132 1.014-1.31.296-.179 1.727-2.086 1.727-2.086l1.847-.476.953.12 1.312 1.49 1.072.655.954.06 2.264 1.489c0 0 .715.595.954.475.238-.119 2.266-1.013 2.266-1.013l1.784-.119 1.908-.655.655 1.488c0 0 .954 2.264 1.252 2.503.299.238 1.489 2.501 1.489 2.501s.596-.298.895-.358c.296-.059 1.667.299 1.667.299l3.932.179.536-.596.415.715-.534 2.741.238 2.086.715 2.801.893 1.31 1.193.059 1.549 1.312.06 1.31-1.192.418-1.073-.358-1.373.774-2.143 1.25-1.789 1.788-1.547 2.203-1.014 2.204-1.012.715-.895-.358-.894.059-.416 1.073-.894 1.072-.775 2.741-1.668 1.847-1.728.834-1.25.954h-.833l-1.43-1.372-.655-.595-.178-2.144-1.373-1.074h-1.014l1.49 1.193.06 1.608-.833.714-.419-.119-.415-.834h-.479l-.06 1.608-1.787 2.086-1.787-1.489-.06-1.907-.89-.174z" stroke-linejoin="round"/><path d="m874.31 173.86l2.662.085 1.375 2.063 1.202 1.288 1.201.946 1.032.17 1.975 2.921v.344l1.544 1.374.431 1.802.172.601-.086.773-.859.516-1.031-.173-.601-.43-1.888 1.632-1.204 1.632-.773.173-2.063 2.232-1.03.344-1.632 1.202-2.576-.086-1.631-1.975-.342-.774-.086-1.546 1.46-1.031.686.773-.342.773.084.946.86.343.858-.086 3.092-2.663.773-.43 1.804-1.802 1.117-.601-.085-1.116-1.289-1.975-.428-1.374-.343-1.289-.342-.946-1.204-1.373-.688-.774-.258-.773-1.201-.946-.343-.173v-.599l-.003.002z"/></g><path d="m926.01 183.91h1.375l1.46-.688 1.117-.944h1.03l.688.686 1.117-.085.686-.859.258-1.031.944-1.288.258-1.289.859-1.804.258-1.289-2.147-.085-2.491 2.148-1.89.085-1.546 1.632-1.201.17-1.289 1.89-.428 1.117.172 1.117.77.517z" fill="#a00"/><g fill="#d40000"><g stroke-linejoin="round"><path d="m899.47 201.17l-1.633 1.632-.428 1.459.686 1.459 1.547.258 1.117-.6 1.03 1.201.172 2.062 2.062 2.232.944.258.774-.859.858-.859.086-.858 1.375-.601.343-2.576.774.943 1.286-.773 1.633-.17v-2.148l-.601-1.459-1.29-.946-1.974-.859-2.147-.773-1.031.086-1.892 1.118-2.06.685-1.631.088z"/><path d="m912.4 200.64l3.101-.142c2.128-1.38 3.048-7 4.512-10.714 2.272-2.945 5.06-3.826 8.46-2.256l1.974.564 2.537 1.973h1.831l1.271.282 1.974.142 3.526-2.82-.14 2.96-2.398 2.114-4.934 1.834-3.808-2.255-.14.564 8.178 9.02h.704l1.41 1.41.704-.564.142-2.396 2.821-2.537.281 3.665.986 1.832v3.524l-2.678 3.384-4.229.564-4.934-3.101-.14-1.41-4.513-5.216v2.256l2.68 5.498.422 2.114.988.988.706 1.693v2.114l1.267 2.96 2.256.281.566-1.409v-1.974l2.396-2.398 1.552-.14.564.846-.706.704-.282 1.552v.986l1.974 2.678.565 1.692-2.962 4.511-1.975.565-3.523-.565-2.116-1.409h-1.128l-3.244-4.936-.421-2.396-4.372-6.908-.143 1.41 1.694 2.116.845 3.242.845 5.78 2.538 4.934.14 9.164.847.986h1.126l1.411-1.127 1.127-1.55-.282-5.358h1.552l2.678 1.552 1.974 3.242.704 1.41v2.96l-.985.14-1.975 2.116-3.244 1.409h-5.638l-1.268-1.127h-1.128l-.845-.846h-1.552l-4.373-6.203-.139-10.292.564-2.255v-3.102h-.704v3.102l-.707 1.975-.14 2.819.14 7.754 4.652 7.472 3.384 1.692.988 1.128h-1.551l.142 1.128-1.271-.282-.281.564-.704-.282-1.271-.847-1.692.283-1.126.564h-2.96l-1.271-2.538-.985-1.974-3.384-3.102h-2.537l-.564-1.832.424-3.242.707-2.96v-7.896l-.566 9.02-1.549 5.075-.565.424-.142 5.779.988 2.68 3.947 4.37-2.678.282-1.974-.845-2.116.421-3.241-.704-3.667-1.268-2.396-2.396-1.128-2.68-.424-2.677-.564-2.82.564-2.255.282-2.256-1.127 2.537v6.06l-1.552-.422v-1.692l-1.268-1.692-.281-2.256-.424-3.383-.143-5.498.143-3.384.704-3.806-.564-.142-.425 4.795-.281 9.445-.986.283-2.255 3.101h-5.079l-1.974-1.691 3.808-4.09-.422-3.242-.425-3.805-.422-6.486-4.372 4.652-4.933 3.526h-4.23l-2.396-2.962-.425-3.383.283-2.398 2.537-3.384 1.831-.281.707-.706.422.564-.985 2.82-.988 2.114.845 1.974 2.399.282 3.101-4.793 2.396-5.64 1.832-2.82v-1.55l-1.69 1.268-1.975.424-5.779.142-3.383-2.116-.565-1.692.14-1.55.143-2.114 3.665-2.398.14 5.075 2.399-1.974v-.982l3.101-4.09 7.472-6.625h4.512l2.677 1.974 1.127.282 3.244 3.102.14 3.947 3.808 3.102-2.256 2.678.138 1.411 2.118 1.55 1.973-.564.846 5.216 2.396 1.41 1.268.14 4.795-5.64 2.116-.281 1.268-2.82-.566-2.256-.562-1.277.001.002z"/></g><path d="m858.21 249.64v.827l1.657 2.248-.119 2.366-8.4 4.259-3.665.238-1.895 1.774-4.85 1.538-2.128-.474.354-1.182.236-2.01-.236-1.183-1.537-.828v-1.895l1.892-.59-.593-.827-1.064-.12.238-2.483.473-.946.119-.593-.119-1.183-.473-1.064-1.302-.356-3.785 1.54-.592-.593-1.775 1.892-.947.119-.118-1.538-1.892-2.485v-.474l-3.548-.59-2.485 3.194h-1.775l-1.3-.946h-1.067l-1.181.708-.712-.235-1.064 1.894h-.59l-.712-1.54-.946-1.537-.354-.948.474-1.891 1.537-.947 1.89-.948 1.423-.235 1.655.947.71 1.536 2.13-2.01 2.128-2.366 1.774-.709 2.249.354 2.485 3.313 2.364.235 2.84-2.01 1.064-.592 2.604.355 2.603 1.42 2.72 4.02.474 3.904.59 1.066 4.732-.356 4.968-.946 2.841-.116z"/></g></g><g fill="#d40000"><path d="m861.05 244.32l-1.302 5.797 1.537 1.656-.119 1.892.827.828 1.538-.828 1.537-1.064 1.537-.593 1.775-.946.235-1.066 1.892-.946 2.01-.593 2.602-.709 2.604-.355-1.892-1.302-5.442-3.547-2.249-.238-.828.709-3.192.119-1.774.473-1.298.713"/><g stroke="#000" stroke-width=".457"><path d="m887.19 238.52l-3.785-.119h-2.486l-2.01-.827-1.656-1.656-.236-1.538-1.182-1.892-1.183-1.183h-1.775l-2.483 1.656-1.066 2.129-.235 3.431 1.418 2.957 4.732 3.55 2.722.59 1.895-.826 4.256-1.894 2.722-1.774.949-1.538-.597-1.066z"/><path d="m878.08 233.08l2.128-2.246.119-5.088-.592-.473.592-2.01.236-1.656h-.828l-4.614 4.376-3.194.473-1.654.948-.12 1.182 1.302.828 2.366-.236 1.3.119 2.959 3.784z"/><path d="m879.98 246.45l4.139-.355 3.313.238 1.656.474 3.313 1.774 1.894.948 3.667-.238-1.42-1.774-1.421-1.775-.948-1.775-.235-1.774-.826.236-.948-.236-1.182-1.537-.709-2.249-.475-2.957-.944-.12-.712 1.42.712.709.708 1.42-1.183 1.537-.118 1.184-1.537 1.183-2.13.947-2.01.827-2.248.828-.355 1.065z"/><path d="m910.26 241.01l.119 5.087 1.775 1.538h1.655l1.302-.709.355-1.064-1.183-.709-.474-1.42-2.484-2.722h-1.065v-.001z"/><path d="m929.54 245.03l5.086 3.431 1.538.474 1.42-.474 2.365-1.892 1.182-2.603.12-1.891-1.182-.119-1.892 1.302-2.722.236-2.129.354h-1.657l-1.657.355-.472.827z"/><path d="m944.21 241.13l-.944 1.538-.947 2.365-2.13 2.249.119 1.655h-.948l.121 1.302 1.654 1.3 4.615.709 3.668-4.73v-1.302l-2.01-2.366-1.421-.354-1.775-2.366z"/><path d="m965.74 254.38l2.368 1.183v.828l-.947 1.302-.59 2.483-.238 1.538-2.839.119-2.957-1.064-1.657-1.064h-1.537l-.828-.709-1.418-.947-1.776-1.184-1.891-2.483-1.301-1.656v-1.183l1.775-2.248 1.775-.59h7.926l3.666-1.302 2.957-2.484 3.55-.709.828-.947 2.366-.474 5.915-3.076 3.312.59 3.313-.118 2.838.827 1.066.947-.592.355-1.537-.119-1.775.947-.238 3.194 1.42 2.602-.354.71-1.775-.119-1.182-.593-.593-1.064v-1.064l-1.181-1.656-.947-.354h-2.128l-.71 4.494h-1.067l-2.01-1.774-2.959-.356-2.01 1.775.709 2.366 2.959 2.839h1.537l1.42 1.655-.12 1.301-2.128-.474-2.13-.472-1.774-.83-1.421.238-1.656-.948-1.656-.708-1.064-.474-.714.95z"/><path d="m973.72 307.23l-1.882 1.705-1.255 2.419-.448 2.508-.806 3.137-.359 2.419.359 5.287.18 2.867 1.702 2.69.895.268 1.075 2.149 1.523-4.211.719.538.448 3.136 2.509 2.15c0 0-2.33-1.164-2.868-1.164s-.626.625-.626.625l.626 1.344 1.433 1.434 2.51.984 4.66.09-1.075 1.075h-3.226l-.809.626 1.166 1.703 1.433 2.239 2.6 1.255 2.686-.716h.896l-.448 1.075 1.344.984 1.164 1.075 1.076 1.165.895.179v1.344l-1.613 4.03-.36 1.88-.894 1.524-.538 2.328-1.613 2.778-.179.986h.806l1.164-1.525 1.704-.716 2.062-2.688c0 0 1.164.36 1.434-.18.268-.538 1.523-4.301 1.523-4.301l1.254-.269.628-3.942 1.075 3.674.898 4.66-.36 3.943-2.33 4.3-.625.72.358 1.432h1.703l1.972-2.063 3.404-4.57 1.346-4.57.716-8.872 1.523 4.123 1.434 4.03.719 3.136-1.076 4.122-1.344 4.841 1.793-1.256 3.764-4.212 2.956-4.388.808-3.226.718-6.184-.449-4.838.178-1.793.628-.985-.09-3.226-.626-1.344-2.149 2.867-.896.18-2.51-1.703-.625-.18-1.434-2.062-.984-3.316.088-3.763h-.536c0 0 .269-3.137.536-3.943.27-.806.628-2.328.628-2.328l-.449-3.317-1.702-3.137-2.062-1.79-3.314-.985-3.856-1.076-2.239-1.79-4.212-.448-2.15.269-4.03-1.882-2.599-.986-3.314-.088-3.137-.36-1.616.094-.004.002z"/><path d="m829.55 307.42l-8.264-.164-1.322-.661-1.982 1.651h-3.802l-4.133 2.315-2.809 2.148-1.487-.164-5.786 5.29.827 4.296.66 1.158.331 4.133.164 5.948-1.321.994-1.984 4.96-1.158 4.296-.991 8.43.827 6.28-1.158 3.306-2.314 3.637-.496 1.818 1.982-1.324-.329-.661.991 1.487 2.477-4.463.994 1.654.99.164v-5.62l-1.156-8.76 2.809 9.09.662 3.305.496-.167.33-7.438 1.817 4.133.167 3.635.826.662.498-.992v-5.454l-2.977-8.76-1.487-8.101 3.967 10.579 2.315 2.148 2.148 5.786 1.82 3.305.329 2.148 1.322-.826.498-.826-1.158-.827.826-.66-.167-2.975-.99-6.94h-.991l-3.472-7.273 3.14 4.464h1.322l.166-1.159-1.487-2.975-.33-3.472 2.975 4.298.99-.496-1.652-4.795-.329-5.454.991 2.314-.166 2.645 2.149 2.646 2.148 1.156 1.652-1.981-1.158-.828-.494-2.312-1.655-1.984v-2.646l2.317 4.133 2.147 1.488 2.149.496 2.149-1.487 3.635-4.133-.493-.497-3.804.167-2.975-1.984-2.644-2.478v-2.149l.496.329 1.156 2.316 2.149 2.149 2.479.329 3.142.167 3.469-3.14 1.82-5.951.496-3.306-.661-4.132-2.15-4.794-1.322-2.149-1.156-.497z"/><path d="m951.2 399l-8.762 9.09-1.157-.329-3.14 2.645-.164 2.81 2.975 2.316 1.158 2.148.827-.167 2.974 3.636 2.812 3.968 1.158.662.824 1.817-1.486 2.148.496 1.325 2.314-.332 2.646.167 1.651.991.662 2.976v1.154l1.818-.99 1.488-2.149.166-5.288-.329-1.487.493-3.968.496 5.288 1.158 1.654.826-.662.991 3.473 2.149 2.149 1.158 1.981.167-1.32-.167-2.645 1.158-2.976 1.322-3.47 1.322-.828 1.156.499 1.656 1.65-.167.662 1.488-.167-.332-3.966-2.147-2.976-3.307-2.146-1.652-1.652-1.487-2.645 2.314 1.321 2.479 2.315 2.314 1.158 1.654.329 2.812 5.455 1.818 2.645.33-3.636 1.322-4.134 1.324-1.817 1.652-.167 2.149.662-.497-2.48-1.652-3.14-3.306-2.974-3.472-2.645-2.974-1.325-2.647 2.316-.826.329-1.488 1.325-1.156-.496-3.803-3.64-.991-.659-1.652-3.968-2.48-1.158-3.802.332-4.634-.992z"/><path d="m851.86 396.85l1.158 1.981.992 3.14 1.651 1.82-.164.99 2.314 1.982 2.314 3.636 3.803 3.139-2.81 2.482-6.612 4.96-2.149.662-2.809-1.657.33 3.968 1.157 1.82-2.975-.662-3.473.329-2.148 1.82-.497 1.817-.826-1.321-1.158-1.82-.33-.329-.66.496.496.329.164 3.306-.826.662-.167.991-3.8 2.478-.991-2.478-1.325-2.81-2.314-1.158-2.478.332-2.81 1.652.826-2.315 1.654-2.645 3.139-2.644 3.14-1.982 2.479-.991.662-.332-.828-.826-4.626 1.321-3.307 2.149-3.472 2.48-2.644 3.799-1.322.991v-2.808l-1.489-3.802-.496-2.482-1.488-1.817h-1.817l-2.479.499 1.819-3.139 3.635-1.982 1.654-2.81 2.975-2.482 2.479-.496 3.637.496 1.816.995 3.474.163 2.147-.163 2.646-1.325 2.149-3.968 2.974-4.295 3.474-1.819 4.132-.327z"/></g></g><g stroke="#000" stroke-width=".457"><path d="m892.88 173.29v2.084l-.775 1.25h-1.37l-.833.894-.239.715 1.549 1.429 1.429 1.013.595.716.359.178 5.958-.06.714.715 1.312-.953 1.61-2.443 5.064.06 2.68 1.966.179 1.609.596.239 1.428-1.25 1.192-.059.595.774h1.074l3.515-3.158.596-.834 1.31-.06-.178-1.013-1.429-.358-1.25-1.25-.359-2.086-1.132-.178-1.966 1.013-3.396 1.668-1.133.834-1.013.059c0 0-.416-.356-.655-.356h-1.31l-1.074.894h-.834l-.298-.299-4.588-.358-3.812-.953-1.968-1.31-1.25-1.013-.359-.356-.534.237z"/><g fill="#fff"><path d="m913.25 178.65l-.416.356v.715l.534.358 2.623.12 2.86-2.263.06-.895-1.726-1.489h-1.49l-.239.416.359.775.475.715-.475.953-2.565.239z"/><path d="m895.74 178.77h2.621l.655.536v.714l-1.25.536-2.206.119-1.549-.238-1.074-.954-.236-1.906 1.428-1.609h1.372l.12.536.119 2.266z"/></g><g fill="#5656a6"><path d="m819.41 249.53l1.538 2.719-.118 4.85-.593.593-2.246-1.894-1.184-1.655-1.183-2.01v-1.774l1.183-.947 1.537-.354 1.066.473z"/><path d="m824.14 257.33l3.43-7.097v-1.892l-1.302-1.895h-1.775l-1.891 1.775v6.27l1.538 2.839z"/><path d="m830.05 257.33l1.894-.827 4.614-4.378.709-1.301-.356-1.064-1.3-.947-.827-.236-1.894.828-1.064 1.064-2.13 3.785.354 3.076z"/><path d="m838.22 260.41l-1.657 1.184-1.894-.119-3.428-2.366.118-.474 2.129-.355 1.892-.828 1.892.118 1.067.947.353 1.066-.472.827z"/></g><g fill="#48489c"><path d="m970 256.98h2.722l1.537.828h3.076v1.184l-1.775 1.3-3.431.947-1.538.709-1.182-.119-.828-1.064v-1.656l.709-1.42.71-.709z"/><path d="m988.81 253.31c0 0 1.894-1.067 2.246-1.892.356-.828 1.183-2.604 1.183-2.604l.712-3.076-.946-2.602-1.775-.473-1.537.118-.828.827-.235 2.249.827 1.892.71 1.064-.119 2.01-.238 2.486z"/><path d="m981.71 254.25l1.894-.946 1.181-2.248.121-2.485-.947-1.894-1.302-1.417h-1.775l-.474 3.311 1.301 1.302v4.376.001z"/><path d="m979.46 256.38l.709-.828.358-1.775-.71-2.602-1.067-1.183-1.3-1.183-1.421-.946h-2.01l-1.3 1.064.353 2.13 2.369 1.774 1.892.355 2.129 3.194z"/><path d="m988.11 250.76v2.134l-2.132.306-.152-2.896 2.284.456z"/></g><g fill="#4f4d9f"><path d="m971.7 428.42l-1.818 2.48v4.132l.826 1.985-.826 7.768 4.133-5.784 1.486-2.977-.164-3.965-1.158-1.82-1.322-1.157-1.157-.662z"/><path d="m985.42 419.82l-1.322.329-1.488 3.139-.329 4.132.826 2.148v2.977l.331 1.817 1.486-2.146 2.149-3.638.329-2.645v-3.635l-.991-1.654-.991-.824z"/><path d="m949.38 441.31l2.149-1.487 1.654-1.158 2.15-2.808-.332-2.148-1.324-.991-1.652-.662-1.487.167-1.654 2.312.167 4.63.329 2.145z"/></g><g fill="#4748a5"><path d="m848.72 426.77l1.652.659v4.464l-2.809 3.14-3.139 2.315.163-2.976-.826-.988v-3.144l.662-.826v-1.486l2.809-1.49 1.488.332z"/><path d="m827.23 429.41l2.314-.166 2.479 1.486.991 2.812-1.487 1.324-.826 1.321-.496 2.149.33 3.473.166 3.14-2.809-3.474-2.314-3.635-.167-3.635.826-3.14.993-1.655z"/><path d="m819.3 425.28l-.661 2.312-.826.496-.991 1.324v4.957l-1.654-.988-1.818-2.316-.991-2.48.331-6.28.826-2.645 1.984-.662 1.984.662 1.651 3.802.165 1.818z"/><path d="m819.47 409.25l-.992 2.477-2.645 1.982c-.405-2.64.955-4.03 3.637-4.459z"/></g><path d="m825.56 261.24l3.193 2.957 2.368 1.537 1.892.709 2.366 1.302h4.969l4.494-.474 2.248-.828 4.376-.119 3.55-1.656 2.602-1.774 2.602-.118 1.423-1.421h1.891l3.784-2.839 5.326-2.364 5.56-2.01 6.03-1.183 2.483.118.946.709 1.184 2.01.472.947-.59 2.01-2.246 1.302-.474-1.421 1.418-1.183-.354-.709-2.249-.355h-1.538l-1.417 1.42-.238 3.194 1.892 1.655 2.01 1.302 1.775.119 2.13-1.3 2.839-2.485 1.655-2.839-.474-4.14-.946-2.604-2.839-2.129-3.548-1.421-6.151.12-3.667.946-1.421.474-3.902 2.602-1.775.119-3.904 2.602-1.54.59-1.775.709-2.72 1.184-5.207 2.364-3.547 2.13-1.775.238-4.139 2.602-5.916.474-1.064-.593-2.722-.354-1.775-.712-1.774-.946-2.483-2.957-.712-.474h-2.248l-.709.948.355 2.01z" fill="#dfda4d"/><path d="m894.41 251.3l.71 5.915-1.301 3.666 2.722.119h3.192l2.839-.593 2.722-.236 2.485.119 2.01.236 2.483-.946.119-1.892-.592-1.656 1.182-3.668-.474-.828-18.1-.236z" fill="#d9d24d"/><path d="m922.44 257.8l-.709.474-1.064-.474-.593-1.655 1.183-1.066 2.602.119 2.366 2.129v3.076l-3.194 1.54-3.311.828-3.668-1.066-2.248-3.076-.592-2.129.474-3.668.592-2.366 3.194-2.366 3.43-1.064 4.02-.593 4.616 1.183 9.343 3.55 6.27 2.839 6.979 3.668 4.141 1.892 5.442 2.602 3.313 1.183 3.785-.474 1.656.119 3.312-1.064 2.248-.238 4.968-5.797 2.01-1.183-.235 2.602-3.313 3.668-2.838 3.194-1.182.119-1.538 1.3-2.957-.119-6.862.356-3.312-1.064-5.206-1.066-6.151-2.72-4.852-2.485-2.366-.353-3.668-1.894-2.246-.236-1.301-.947-4.02-1.182-3.313-1.184-3.192-.355-2.485-.354-1.182.709-1.183 1.656-.59 2.248.828 2.722 1.42.238 1.302-.59.472-.947-.593-.239z" fill="#d9d34a"/><path d="m852.56 388.19l-1.511 1.507-2.374-1.507 1.078-2.804 3.883-.648 2.158 3.235-.864 3.234-3.02 3.02-3.667 1.08-3.666.43-4.313-.214-5.825-1.297-4.528-5.39-3.451-6.901-2.586-5.822-3.02-11.862-1.511-4.961-.647-4.529-3.234-6.254 1.292-1.078 11.215-9.92h.648l2.374-2.158 4.096-7.764.432-.431 1.294-4.744-.216-8.195-1.078-3.882-2.587-4.314c0 0-.863-1.51 0-1.294.862.216-2.372-3.667-2.372-3.667l-3.884-4.1v-.86l-2.802-2.804-1.942-1.078h-1.51l-.648-.864-2.804-.862-1.292 1.294-.863 2.804v1.079l1.939.862.647-.431-.647-1.08.216-1.294 1.512-1.078 1.724 1.291-.216 3.235-1.294 1.511-3.234.217-2.588-1.295-1.078-2.158-.862-3.233.862-1.942 1.295-1.078 2.156.431 3.45-.864 1.078-.431 2.804.431 1.942 1.942 2.155 1.294 5.393 6.04 1.508 1.508 2.804 4.099 3.451 7.764.862 5.39-.43 5.393-2.804 7.764-3.235 4.96-4.528 5.608-7.764 6.472-1.078.215-1.726 2.158 3.02 6.469 4.744 19.842 3.882 8.195 5.608 5.822 4.313 2.374 5.609.648 4.96-1.296 2.158-1.938-.863-1.294z" fill="#ddd457"/><path d="m861.62 392.72l-.647 1.076.863 1.727 2.158.431 1.508-1.942v-2.159l-1.295-2.37-1.724-.434-1.94.217-2.804 1.942-1.511 1.726-.863 4.097 2.158 6.688 3.451 4.528 8.626 5.608 9.275 3.45 5.821.862 4.315 4.315 2.156 5.174-1.94 3.238-2.588.215v-1.294l1.078-.217 1.295-1.294-.647-1.294-2.587-1.511-2.156 1.726-.217 3.883 1.939 1.942 2.804.644 2.158-.863 2.155-2.374.218-2.803-.863-4.098-3.668-5.173-3.88-1.942-9.706-3.452-6.254-2.37-4.53-3.239-4.097-4.312-2.372-6.252 1.078-4.098 2.374-1.727 1.294.431-.435 1.298z" fill="#dbd45d"/><path d="m939.91 392.93l1.726 1.079.217 1.724-1.942.863-2.587-.431v-2.586l1.508-3.235 4.315-.217 1.94 2.374 1.295 4.528-1.295 4.746-4.961 4.097-6.901 4.746-7.548 3.234-11.214 5.39-3.235 2.37-2.804 5.177 1.727 3.02 2.156.431v-1.079l-.648-.863.431-2.374 1.295-1.292 2.586 1.511.649 3.234-2.374 2.374-2.588.431-4.097-1.942-1.295-2.155-.215-3.02 1.726-2.803 3.45-3.449 5.393-3.02 7.764-3.234 11.429-5.605 7.979-8.628v-3.449l-1.726-2.156-2.156.213z" fill="#e5dc5e"/><path d="m949.83 386.68v1.938h1.51l1.511-.215.647-2.586-1.294-1.724-1.726-.218-2.158.431-2.371 1.726-.216 3.452 1.076 2.37 2.158 3.234 3.882 1.942 3.881 1.079 5.825-.431 6.685-3.234 6.254-4.529 2.587-6.256 3.234-11.43 4.097-14.448 2.588-5.39 2.156-1.943-.647-.862h-1.94l-4.961-3.666-5.174-3.235-6.686-7.979-3.45-6.686-1.079-9.488 1.942-9.275 4.097-6.901 6.685-5.608 6.04-4.313 6.04-.214.86 2.371-.86 1.942-1.295-1.079-1.94-.216-.862 3.235 2.154 1.078 3.882-.431 1.08-2.587-.431-3.666-2.804-2.588-4.962.431-3.666.431-4.53 2.588-4.742 4.96-3.234 4.745-4.099 6.685-1.294 6.04.216 10.568 5.393 11.429 4.744 6.04 9.272 6.253 1.511 1.079-2.803 6.254-4.098 13.156-2.587 10.567-2.156 4.529-6.901 6.04-7.765 3.02-6.684-.214-3.235-2.374-.864-2.156-.216-3.234 1.725-.431z" fill="#d7d643"/><path d="m890.87 284.62l-.33 3.305.991 7.273 3.636 19.999h1.819l.164-3.139-6.28-27.438z" fill="#44b3cc"/><path d="m900.13 313.71l-6.611-28.926 4.957 29.422 1.654-.496z" fill="#50aece"/><path d="m901.28 313.38l2.314-.826-8.596-27.769 6.282 28.595z" fill="#50afce"/><path d="m897.48 283.13l10.08 28.926-1.984.66-8.098-29.586z" fill="#50abce"/><path d="m909.05 311.39l-9.752-29.25 12.397 28.926-2.645.329z" fill="#50b0ce"/><path d="m912.69 309.9l-11.57-27.935 14.38 28.27-2.81-.331z" fill="#50b3ce"/><path d="m822.09 258.77l-1.56.239-1.918 1.56-.84 2.039.121 3.718 1.319 2.278 2.279 2.4 1.079 1.799-.6 3.236-3.236 2.039-3.478 2.519-1.32 2.039-.48 2.278.121 2.399.479.599 2.639-.121 1.559-.478 2.398-.24 2.278.36 3.478 2.399 4.918 4.438 2.156 2.519-1.558-3.719-.839-4.438-.6-4.436.721-2.638 1.199-1.68 1.319.721 1.079-.6 1.44.72 1.2-.72 1.918.6 2.396-1.2 3.599-2.758h2.518l.721.599 1.438-.599.84 1.2 2.999-2.28 2.398-1.199 2.398.959 3.119.72 1.2-1.079 2.518-.121 3.476-.479 1.68 1.199 1.676 4.076 1.2 1.321 1.8.358.959.48 1.678 4.198 1.2 3.358.6 4.076-.241 1.079 1.079-.119 1.68 1.676 1.439.721 1.199 1.319.358 2.158.961-.119.84-1.079 1.679.36 1.439 1.558 1.438.121-2.52-16.669-2.398-1.319-.12-3.836 5.636-2.04.12-1.438-.839-2.4-1.079-2.158-2.159.239 1.678-5.395 4.198 4.316-1.919.241 1.676 6.594 7.198-1.199 1.319 1.8-.48 1.558.601 1.079.358 1.92 2.16 2.756 5.636 12.23 5.395 11.03 2.399-2.518 2.519-.599 2.759-1.92 1.678-.6 1.199-1.558 3.119-.121 4.675 4.198.721-1.079 4.435-.241 1.439 2.878.241 1.2 1.799-.72 4.916 1.078 2.998 2.4 2.276.958.601 1.201 1.319-1.56.96.121 1.56.36 4.915-.36 2.52-5.04c0 0 2.276-4.675 3.359-5.875 1.078-1.199 5.515-5.995 5.515-5.995l5.395-3.599 4.076-2.278 3.838-.48 3.599-.12-.12-3.238-1.439-3.118-3.599-4.675-.72-3.718v-2.28l3.119-2.039 3.718-2.998.121-3.119-1.079-3.838-2.16-3.236-.72-.6-1.2-.239-1.678 1.078-3.358 4.676-3.718 3.719-4.556 2.759-5.276.599-8.393-1.319-5.875-1.8-7.316-2.758-7.675-3.598-4.196-.841-6.356-3.116-2.398-.121-.121 1.08 1.918 1.918-.478 3.359-1.679 1.798-3.118.121c0 0 .36.241-1.439.72-1.8.48-3.358 0-3.358 0l-2.998-1.799-2.879-.48h-5.755l-6.355.601-7.196.599-3.596 3.119-3.119.48-3.358-.84-3.476-4.076.12-2.278 2.518-3.119-1.319-.12-7.915 2.879-4.918 2.756-2.636 1.68-1.919-.121-2.52 2.279-3.118.24-1.8 1.918-.599-.239-5.03 1.319-4.558.839c0 0-5.756.84-6.355.84-.601 0-6.115-.72-6.115-.72l-4.079-2.039-1.918-2.158-1.8-1.2-2.398-2.516.121-1.92-.722-.478z" fill="#64b4d1"/><g fill="#5db7d2"><path d="m893.77 318.6l-.17 3.743 2.723-.678-.341-3.574-2.212.509z"/><path d="m897.35 317.57v3.062h1.192v-3.233l-1.192.171z"/><path d="m900.07 316.89v3.403l1.7-.511-.17-3.062-1.53.17z"/><path d="m903.64 316.21l.172 2.552h1.529l.172-3.062-1.873.51z"/><path d="m907.05 315.53v2.724h2.381l-.34-3.065-2.041.341z"/><path d="m910.79 314.68v2.552l2.042-.511-.51-2.723-1.532.682z"/></g><path d="m973.63 345.67v2.69l.628.359.18.895 2.776.449-.27-.896-1.793-1.703-.448-1.255-1.073-.539z" fill="#fffcfc"/><g fill="#ccc"><path d="m916.93 309.89l-.46-.916 1.527-1.676 2.893-.607 2.286-1.83 2.896-1.829 3.048-.762 3.964 3.352-1.372 1.07-1.374-.154-2.59 1.675-1.98 1.22-1.676-.305-1.525-.457-.913.762h-1.374l-1.068.61-2.282-.153z"/><path d="m935.53 305.62l1.523-.607h2.286l1.22 3.352v1.068l1.98-.61h3.659l2.59 1.219 2.286 2.286 2.438 1.373h1.98v-1.068h1.981l.458.611 2.132.304 1.525-.456.457 1.372-.305 1.828-.458 1.374.61 5.789 2.744 9.907 5.182 8.383-1.98-.916-4.421-.61-1.373.61-1.828-.152-2.134 1.981-1.068.151-.913.763-1.676-2.286-6.401-8.534-1.676-1.829-3.658-7.924-5.03-10.823-.306-4.421-1.218-1.219-.61-.152v-.763h.003z"/><path d="m933.7 364.61l2.592 1.219-.152-1.219 1.829 1.219c0 0 1.675.306 2.59.152.913-.152 2.896-2.132 2.896-2.132l.61-4.115 3.964-6.859 2.893-1.676.918-.152 2.741-3.049 5.182-2.742 2.438-.916 3.964.762 2.896 1.373.61 2.438.458 6.553 1.828 1.374 1.525-.764 1.372-1.675 3.352-1.222 2.44.304-.154 3.05-1.066 5.639-1.676 5.944-2.747 9.447-2.59 6.708-6.402 4.878-5.03 3.198h-8.08l-2.437-2.285 3.048-.764 1.067-1.825.305-3.202-2.742-1.981-2.743.152-3.658 2.135-1.374 1.825-.762 2.136h-1.37l-3.05-.154-2.286 1.525-1.675 2.131-.458 3.202.764 2.287 1.675 1.067 3.048-.154.763-.607h.61l-2.744 3.044-3.504 3.66-4.573 3.048-3.048.913-5.03 1.83-3.658 1.676-4.116.152-4.267 3.809-2.896 2.288-1.981 2.742-.914 4.726v3.503l2.284 3.048-.304.917-1.372-.156-.763-.607h-3.352l-.916-1.373-1.676.306-2.437.761-1.068 1.069-1.829-.917 1.068-2.742.152-2.59-.762-3.508-2.286-4.573-1.98-2.131-3.508-2.135-6.706-1.982-7.314-2.738-5.334-2.594-1.981-3.048-.763-3.809 1.22 1.219-1.068-4.267 1.524 1.979 1.069.152 3.048 3.812 2.438.458.61.302h.761l.152-.302 2.286 1.219 2.592.761h3.656l-3.199-.761-3.964-1.829-4.115-2.288-2.286-3.044-.306-1.373-1.219-.152.154-.917.914-1.067 1.219.154.306.913 1.219-.458 1.98 1.526 3.354.302 2.437.306-2.131-1.219-3.354-1.829-3.353-3.049-1.068-.152-3.354-5.179-1.828-5.03-1.524-5.333v-6.251l1.98-5.03 2.896-4.573 1.676-1.525 1.372.457 3.505-2.59 2.438-.762 3.202.15 2.438.763 3.505 1.068 1.675 2.132 1.676.154.456 1.219-.913.305 1.219 1.676-.457 1.067 1.068 1.372-.152 1.98-1.98 2.287 1.37 2.285-.154.764 1.676 1.829 1.525 2.284 2.591.458 6.096.154 4.418-.458 2.592-.154-1.068-1.219 1.829-.458 2.286-.458 4.115-3.197c0 0 3.202-5.489 3.811-6.251.61-.761 1.828-3.353 1.828-3.353l5.182-5.334 1.98-.762 4.573-2.285h4.726l1.222 1.373 1.98.305 1.829 2.285.913 6.25-2.896 1.98h-2.436l-1.676-1.067-.458.914-1.98-.455z"/><path d="m859.74 387.07c0 0 .359-.716.719-.716.359 0 1.165-.088 1.165-.088l.089-4.662c0 0-.626-.356-.718-.716-.089-.356-.089-2.06-.089-2.06l-.626-.628-.09-18.818-1.793-4.838-1.523-2.598-1.254-.986-1.973-.178-2.24 1.434-1.344.716-2.868-.625-1.074-.719-1.705-.088-1.523-2.778-3.136-.986-1.433-.448-4.301-.359-1.254-.09-1.615 1.076-1.882 2.24-1.343 2.597-.179 4.213.985 1.344v1.97l.449.806v1.703l-1.434-1.703-1.434-3.494-.716-2.15-.628.896.179 2.868.089 2.328.808 2.153.806 3.044 1.344 3.853 1.075 4.124.986 3.941 1.882 3.584 1.613 2.24 3.674 3.673 2.329 1.613 3.584 1.256 4.03-.088 1.253-.9-1.613-1.522c0 0-.268-.984-.268-1.344s.536-2.152.536-2.152l1.703-1.793 4.928-.895 1.703 1.255 2.24 2.509 1.885.986z"/><path d="m913.68 313.83v2.552l1.53-.341-.338-2.212h-1.192z"/><path d="m916.23 313.15v2.041h1.022v-2.212l-1.022.171z"/><path d="m918.45 312.98l.169 1.871 1.702-.338-.17-2.213-1.701.68z"/><path d="m921.85 311.62v2.554h1.022l.34-2.554h-1.362z"/><path d="m924.74 311.11v2.213l1.361.17-.341-2.382h-1.02v-.001z"/><path d="m927.47 310.43v2.551l1.361.17v-2.212l-1.361-.509z"/><path d="m930.19 309.58l-.511 2.892h1.532l-.172-2.212-.849-.68z"/><path d="m932.23 309.58v2.383l2.213-1.022-.342-2.554-1.871 1.193z"/></g></g><path d="m890.05 266.6l-1.488 4.463 5.125-.827-3.637-3.636" fill="#76401b"/><g stroke="#000"><g stroke-width=".457"><g fill="#784421"><path d="m932.19 351.56l-4.792 1.325-3.306 2.645-4.298 4.462-3.472 6.282-3.966 4.794-7.274 2.974-6.612.167-5.124-1.486-1.818-2.813-.496-3.635-.661-4.464-1.488-2.809-2.314-2.812-2.645-1.818 2.812-11.902.826-2.645v-3.472l.496-4.626 2.479-4.133 2.479-2.314 4.297-1.984 7.602-1.982 7.604-2.479 7.934-1.818 8.926-2.149 3.802-.33-.33 4.958.992 1.819-.167 12.892-.826 11.406-.66 5.947z"/><path d="m934.01 351.39l4.627.992 3.636 2.149 1.487 2.148 1.984-1.652.826-2.812 3.472-1.981 5.291-4.628-4.465-6.778-2.315-3.306-3.14-3.635-3.802-6.942-4.297-9.422h-2.315l-.33 18.677.167 6.776-.826 10.414z"/></g><path d="m886.9 279.32l.167 3.472 14.215-4.463v-1.322l-14.382 2.313z" fill="#a05a2c"/><g fill="none"><path d="m846.53 359.35l.64 3.21 2.141 3.852 4.063 3.528-3.422-2.46 2.567 3.424-4.384-2.78 4.277 2.78-4.493-6.419-1.389-5.135z"/><path d="m841.28 373.58l-1.604 1.711-2.782-.427.107 3.53 3.85 5.67-3.85-5.347.108-3.635 2.675.21 1.496-1.712z"/><path d="m836.69 383.42l-.856-2.461v-2.779l.856 5.24z"/></g><g fill="#666"><path d="m887.27 369.73l-1.283 1.282-2.138.536c0 0-2.138-.214-2.567-.536-.427-.319-2.782-1.71-2.782-1.71l2.782 1.496h4.919l1.069-1.068z"/><path d="m890.7 374.76l.534 3.102 2.138 3.74 1.39 1.82-4.062-8.662z"/></g><path d="m898.08 383.52l-2.034-.638-1.818-1.715-2.567-4.596 2.674 3.422 3.745 3.527z" fill="#808080"/></g><g stroke-width=".137"><path d="m880.22 371.01l.322 9.09.856 3.53 1.28 2.567 1.714 2.675.427-1.069 1.818 1.283.536-.536-1.82-1.817-1.818-2.461-1.072-2.567-1.175-4.385-.427-4.705h1.495l-.427-.856-1.709-.75z" fill="#666"/><path d="m920.64 385.34l3.422-.32 3.21-2.675.534-1.82 1.496-1.07-.214 3.103.748 1.606 2.032.642 1.283 1.175 2.248.215 3.208-2.03 2.353-2.461 2.033-1.819 1.496-.642.535-2.994h.962l.214-1.392-.427-2.671-.962-2.568-1.283-1.711-2.14-1.925-.961.428 2.352 2.245 1.925 2.46.107 3.85-.534 1.498-2.888 3.317-3.743 4.063-1.818.856-3.85-.533-1.392-1.819-.32-1.283-.428-1.283v-1.498l.535-1.069-3.956 4.49-1.604.106-4.173 3.529z" fill="#808080"/></g><path d="m972.09 357.32l.856-.749.962 1.392.216 3.848.106.108v2.567l-1.495 2.782-3.21 3.422-3.743 1.602-3.424.427-2.353-.532-.856-1.392-.534-1.39v-3.208l.642-1.284.214.641-.107 3.53 1.175 1.391 2.46.746 2.245-.746 2.675-.75 2.245-1.283.108-.749-.856-.107.214-.32h1.283l1.604-3.21.534-2.675v-2.138l-.64-.641-.323-.534v-.75l.002.002z" fill="#808080" stroke-width=".228"/><path d="m887.38 406.84l-5.348 2.567-4.919 1.496-2.675-.427 5.239 1.925 2.034-1.603 3.208-1.606 2.461-2.352z" fill="#666" stroke-width=".457"/><path d="m891.55 417.64l2.887.856 1.39.536 2.995.427-2.246 1.388 2.886.641c0 0-2.778.323-3.206.323s-1.926.961-1.926.961-.32 1.715.642 1.606c.965-.108 2.352-.323 2.887-.323s2.246.323 2.246.323l1.07.856-.642.965-4.493.106.643.536h3.636l-3.528 2.352 4.276-.109 3.422 1.392v.856l-3.314.75-.749-1.286-4.278 1.177-.856 1.07-1.604-1.07 1.283-2.779-.107-2.888-.642-2.248-1.496-3.313-1.176-3.105z" fill="#999" stroke-width=".183"/><path d="m868.89 274.85l-3.445.416-2.436.298-1.604.952-1.307-.774-.773.475-2.911-1.544-3.388 1.843-1.604 1.424h-1.01l-.774-1.01-1.544 1.072-.892-.893-.95-.534-6.416 4.634-2.317-.773-1.01.892-.418.356-.235 1.01-.953-2.497-.83.594-1.426-.475-1.01 1.427-.238 3.743.594 4.693 1.547 5.17 1.424 2.138 1.188.238.358-1.486.654 2.792.95.949.298 5.05 3.862 8.675.356 4.456.178 7.723-1.426 1.726-1.841 2.792.059.829-1.901 3.625.118 5.526.418.475.12 5.287 1.484.119 1.188 1.307 2.615-.236v-1.604l.356 1.841 2.078 2.735 1.783 1.424 1.246.06.654-.95-.06-5.941.416 6.535 1.307-.06 1.666-1.484 2.198-.298.713.06c0 0 .594.356.892.89.296.534 1.367 1.012 1.367 1.012l.773 1.604.95.356.475-1.012-.653-12.655-.654-10.337-.713-13.13-.714-16.757-.119-5.346-.832-.713.06-1.723 2.02-.594 1.187-.356-.535-1.603-.593-5.347v-2.02l.714-.594 1.426-.059 1.01 1.188 1.961 8.138 1.01.356 3.564-.06 8.08 12.775 2.851 4.278 3.922 7.307 5.111 7.308 1.604 2.138 1.069.121.356-7.784 2.26-1.961-1.902-13.427-1.544-.296-2.138-1.961-1.188.178-1.188 1.961-1.484-1.663-.18-1.902-1.367-.889h-1.01l-1.309-1.782-.712-.18-.832.773-.179-6.06-1.307-2.851-.238-1.723-2.436-3.446-2.554-.594c0 0-1.128-2.556-1.128-2.912s-.478-1.604-.478-1.604l-1.79-1.847z" fill="#e4cb5e" stroke-width=".228"/><g stroke-width=".457"><path d="m871.03 356.13l-1.722-2.197-.594-2.317-.238-4.991-.534-4.754-.952-7.367-1.544-9.09-1.247-7.367-.476-4.337-1.01-5.111-.416-3.505-.416-2.911-.356-4.158 1.188 3.743 1.962 8.734 2.196 6.06.892 4.099v2.317l1.546 3.325 1.01 4.22 2.078 8.911 2.198 7.309 1.128 5.286.178 2.02-2.317.774-1.128.533-1.427.773z" fill="#dcc56a"/><path d="m882.61 354.35l1.249-6 1.486-4.574.653-3.09.475-2.495-.12-3.743-1.01-2.198-4.633-9.328-2.794-5.644-1.129-2.912-2.078-3.625-2.792-5.822-2.496-4.336-2.078-3.565-1.961-2.616-.593.536 1.781 6.654 1.484 5.702 1.427 6.298 2.376 8.258 1.367 5.705 1.367 3.505 1.307 4.931 3.624 11.765.714 3.089 1.783 3.566.59-.06z" fill="#e2cc75"/><g fill="#ddd690"><path d="m864 357.56l-1.873 1.871.17.682h2.212l.683-1.532-1.192-1.021z"/><path d="m861.78 355.01l.341 2.042 1.531-.17.85-1.53-.169-1.192-1.531.341-1.022.509z"/><path d="m865.53 354.16l.511 1.361h2.893v-1.02l-1.19-.511-2.214.17z"/><path d="m865.19 351.61l.168 1.53h2.044l1.02-1.363-1.19-1.02-2.042.853z"/><path d="m861.1 352.12l-.341 1.022 1.022.51 2.214-.51v-.852l-2.895-.17z"/><path d="m861.1 349.56v1.192l2.213.17.682-1.021-.852-.68-2.043.339z"/><path d="m865.53 348.54l-.337 1.02 2.04.511 1.02-.851-1.529-1.022-1.194.342z"/><path d="m861.28 345.82l-.341 1.531 1.361.17 1.192-.851.17-1.189-1.362-.173-1.02.512z"/><path d="m865.02 345.14v1.53l2.213.509v-2.212l-1.021-.338-1.192.511z"/><path d="m862.98 342.59h-2.041l-.173 2.381 2.383-1.02-.169-1.361z"/><path d="m864.68 341.91l-.85 1.702h2.382l1.021-2.21-1.362-.341-1.191.849z"/><path d="m864.17 339.01l.173 1.362 2.213-.341-.853-1.7-1.533.679z"/><path d="m861.96 339.53l-1.53-.341.172 1.873 2.212-.34-.854-1.192z"/><path d="m860.42 336.46l-.17 1.703h2.723l-.511-1.703h-2.042z"/><path d="m863.66 335.61v2.042h2.552l-.512-2.042h-2.04z"/><path d="m862.3 334.08l-1.7 2.04-.682-1.7 1.19-2.042 1.192 1.702z"/><path d="m863.83 332.55l-.34 1.703h2.21v-1.703l-.848-.51-1.022.51z"/><path d="m861.1 330.51h-1.19l-.17 1.362h2.041l-.681-1.362z"/></g><g fill="#e2d67e"><path d="m863.49 330l-.341 1.531h1.703v-1.531h-1.362z"/><path d="m862.98 326.93l-.34 1.53h2.381l.173-1.36-2.214-.17z"/><path d="m860.25 327.61l-.341 2.212 2.041-.848v-1.192l-1.7-.172z"/><path d="m860.08 324.55l-.68 1.361 1.021.511.852-1.192-.341-1.02-.852.34z"/><path d="m862.89 323.4l-.538 1.128.882 1.52 1.226-.295.052-1.717-1.376-.688-.246.052z"/><path d="m860 321.68l-.444 1.228.884.785c0 0 .734-.293.734-.541 0-.244.246-1.03.246-1.03l-.98-.589-.44.147z"/><path d="m862.36 321.05l-.295 1.375.688.442 1.226.098c0 0 .049-.934.049-1.277 0-.342-.884-.736-.884-.736l-.784.098z"/><path d="m859.75 319.18l-.1 1.374 1.032.246c0 0 .54-.538.54-.734 0-.196-.492-1.08-.492-1.08l-.98.194z"/><path d="m862.06 318.79l-.197 1.129c0 0 .394.539.884.539.49 0 .686-.49.686-.685 0-.198-.197-1.032-.197-1.032l-1.176.049z"/><path d="m859.65 317.27l-.342 1.13.98.44.737-.982-.786-.538-.589-.05z"/><path d="m861.96 316.58l-.146 1.03c0 0 .685.491.932.343.246-.146.539-.784.539-.784l-.884-.589h-.441z"/><path d="m858.97 314.37l-.245 1.276c0 0 .734.688.931.59.198-.1 1.228-.394 1.228-.394l-.54-1.276c0 0-.637-.148-.833-.148-.197.001-.59.001-.541-.048z"/><path d="m861.52 313.73l-.293 1.226 1.667.295c0 0 .246-1.375-.096-1.375-.347.001-1.181-.097-1.278-.146z"/><path d="m859.12 312.06l-.294.737.833.637.688-.391-.443-.934-.784-.049z"/><path d="m861.62 311.57l-.636.983 1.03.439.882-.685-1.276-.737z"/><path d="m859.16 309.42l-.442.737.491.784.786-.638-.835-.883z"/><path d="m860.93 308.92l-.392.54.589.784.98-.539.098-.442-.442-.54-.833.197z"/><path d="m858.92 307.4l-.442 1.03.98.54.542-.685-.346-.786-.734-.099z"/><path d="m860.78 306.42l-.54.689.737.736.931-.541-.636-.785-.492-.099z"/><path d="m858.92 305.68h-.392v.834l1.128-.098-.197-.834-.539.098z"/><path d="m860.44 304.7l-.049.932 1.03-.148-.049-.833-.932.049z"/><path d="m858.67 303.97l-.342.49.587.786.59-.541c0 0 .196-.734 0-.734h-.835z"/><path d="m858.77 302.35l-.439.392.538.539.686-.342-.785-.589z"/><path d="m858.92 301.12l-.54.784h.934l-.394-.784z"/><path d="m860.15 301.56l.098.786h.786l-.884-.786z"/><path d="m860.2 302.84c0 0-.194 1.03 0 1.03.197 0 .737-.148.737-.148l-.737-.882z"/></g><path d="m886.31 326.54l-1.078 1.472.097 1.523 1.424 1.325 1.325-1.866-1.768-2.454z" fill="#d3c55f"/><path d="m888.22 324.43l-1.325 1.916 1.276 2.01 1.325-.833c0 0 .197-1.672-.049-1.967-.247-.292-1.276-1.177-1.227-1.128z" fill="#d3c75f"/><path d="m885.77 321.73c0 0-.588.883-.588 1.081 0 .196.344 1.618.344 1.618l.834 1.081c0 0 .93-.295 1.028-.59.098-.292.443-1.423.443-1.423l-1.128-1.474-.933-.293z" fill="#e2d67e"/><path d="m883.71 323.84l-.246.49c0 0-.145 1.18.148 1.375.294.197 1.177 1.13 1.177 1.13s.784-.491.784-.737-.588-1.769-.588-1.769l-.685-.685-.59.196z" fill="#d3c95f"/><g fill="#e2d67e"><path d="m881.69 320.46l-.391.931.49 1.277.934.932c0 0 1.03-.194 1.03-.394v-1.374l-.64-1.079-1.079-.49-.344.197z"/><path d="m883.9 319.57l-.245.736c0 0 .098 1.032.294 1.128.197.098.982.492.982.492l.685-1.129-.685-1.423-1.031.196z"/><path d="m882.82 317.22l-.492 1.079.295.784.688.344c0 0 .784-.392.784-.589v-1.03l-.882-.541-.393-.047z"/><path d="m880.57 318l-.637.834.246 1.032 1.079.343.736-.884-.59-1.177-.834-.148z"/><path d="m879.73 315.79l-.538.491v.638l.834.64.784-.394-.196-.884-.391-.589-.493.098z"/><path d="m881.89 315.16l-.344.785.491 1.031.787-.442-.15-.884-.784-.49z"/><path d="m880.42 313.05l-.194 1.766 1.225-.197.295-.931-.44-.689-.886.051z"/><path d="m879.14 313.44c-.196.048-.882.098-.882.098l.197 1.765.784-.096.295-.638-.098-.785-.296-.344z"/><path d="m877.67 311.67l-.588.737.588.98.54-.098.342-.734-.882-.885z"/><path d="m879.58 311.18l-.49.541.394.589.491.049.49-.59-.44-.538-.445-.051z"/><path d="m876.44 309.91l-.344.931.934.246.244-.589-.293-.541-.541-.047z"/><path d="m878.06 309.42l-.097 1.079 1.03-.098-.098-.882-.835-.099z"/><path d="m875.26 308.19l.049.931h1.03c0 0 .344-1.079-.098-1.03-.442.05-.883.146-.981.099z"/><path d="m877.23 307.75v.932l1.079-.148-.245-.833-.834.049z"/><path d="m875.8 306.76h-1.079l.148.932.98-.098-.049-.834z"/><path d="m876.49 306.13l-.148.884 1.13-.049v-.835h-.982z"/><path d="m875.41 304.7l-.049 1.031c0 0 1.226.196 1.226 0 0-.197-.246-.883-.246-.883l-.931-.148z"/><path d="m874.72 304.8h-.982l.1 1.128h1.177l.146-.784-.441-.344z"/><path d="m872.42 301.46l-.492.491 1.523 2.405h.931l-.882-1.226c0 0 .146-.588-.098-.685-.244-.098-.44-.098-.44-.098l-.542-.887z"/><path d="m872.61 300.53l-.342.442 1.817 1.226v1.03l.834.786.685.194-.244-.833-.343-.931-.689-.541-.488-.882c0 0-.246-.049-.443-.098-.194-.049-.391-.344-.391-.344l-.396-.049z"/></g><path d="m851.58 283.38l-.173 7.996.511 2.552v4.426l.17 6.806v4.594l-3.914-4.766 4.084 5.106.68 4.933 1.022 1.873-.68 2.552.17 4.253v12.08l-3.914-9.528.341 19.738.341-11.399 1.362-2.044 2.212 5.617.34 2.552-.511-9.53"/><g fill="none"><path d="m835.58 282.69l-.68 5.106 1.362 3.571.172 4.936-.172-5.444-1.362-2.723.68-5.446z"/><path d="m840.52 285.76v6.466l1.19 1.531-.338 6.806 1.02 2.041v11.23"/><path d="m847.49 278.1l-1.361 2.551.511 4.595.34 3.233-.51 5.102"/><path d="m878.46 290.52l-.173 7.828.851 4.253.682 4.594"/><path d="m885.78 301.92l1.531 17.02"/><path d="m842.05 327.27l.341 9.869.68 4.255.17 4.592"/></g><g fill="#d38d5f"><path d="m893.26 345.48v-1.703l7.487-1.703-1.192.852.17 5.105"/><path d="m913.68 341.23v-2.213l7.487-1.361-1.703.341.341 5.274"/><path d="m897.52 357.73v-1.703l6.296-1.189-.172 6.295"/><path d="m912.49 355.35v-2.724l6.805-1.19.341 5.953"/><path d="m890.37 333.06v4.254l-1.531.341v-2.042l1.531-2.553z"/><path d="m893.95 332.38l.169 4.255h-1.192l-.34-3.744 1.363-.511z"/><path d="m896.66 331.53l-1.189.679v3.403l1.703-.341-.514-3.741z"/><path d="m899.9 330.34l-1.192 1.021v3.062l1.871-.17-.679-3.913z"/><path d="m903.64 329.49l-1.703.68v3.403l1.874-.34-.171-3.743z"/><path d="m907.22 328.46l-1.531.172v4.254l1.873-.341-.342-4.085z"/><path d="m911.81 327.61l-1.7.679.17 2.892 1.7-.509-.17-3.062z"/><path d="m916.06 326.42l-1.7.851v2.892h1.53l.17-3.743z"/><path d="m919.47 325.4l-1.362.68v3.233h1.703l-.341-3.913z"/><path d="m923.21 325.06l-1.362.85v2.551h1.874l-.512-3.401z"/><path d="m927.29 323.7l-1.532.682.172 2.551 1.531-.34-.171-2.893z"/><path d="m931.72 322.68l-1.702.851v2.723l2.044-.17-.342-3.404z"/></g></g><g stroke-width=".913"><path d="m891.56 368.79l26.371-5.954" fill="#fffcfc"/><path d="m885.1 352.29l2.725.341 44.918-10.21" fill="#c87137"/></g><path d="m887.65 340.72l6.976-1.024 38.795-10.208" fill="#c87137" stroke-width=".867"/><path d="m935.12 327.95l6.635-1.192" fill="none" stroke-width="1.187"/><path d="m935.12 341.91l14.633-3.912" fill="#fffcfc" stroke-width="1.324"/><path d="m767.32 145.15v253.64c3 36.32 78.69 59.18 131.45 97.75 69.21-46.42 136.34-55.812 139.04-107.86l.842-243.53h-271.33-.005z" fill="none" stroke-width="8.216"/></g></svg>