<svg xmlns="http://www.w3.org/2000/svg" viewBox="0 0 900 450" enable-background="new 0 0 900 450"><path fill="#c8313e" d="m0 0h900v450h-900z"/><path fill="#4aa657" d="m0 300h900v150h-900z"/><path fill="#fff" d="m0 0h100v450h-100z"/><g fill="#c8313e"><path d="m4.348 44.26h4.348v7.379h4.344v7.381h4.351v7.37h4.348v7.38h4.351v-7.38h4.345v-7.37h4.348v-7.381h4.347v-7.379h4.348v-7.375h4.348v-7.377h-4.348v-7.378h-4.348v-7.376h-4.347v-7.377h-4.348v-7.377h-13.04v7.377h-4.351v7.377h-4.344v7.376h-4.348v7.378h-4.348v7.377h4.348z"/><path d="m4.348 95.9h4.348v7.38h4.344v-7.38h4.351v-7.37h4.348v-7.38h-4.348v-7.38h-4.351v-7.38h-4.344v7.38h-4.348v7.38h-4.348v7.38h4.348z"/><path d="m0 51.639h4.348v7.377h-4.348z"/><path d="m0 110.66h4.348v7.377h-4.348z"/><path d="m39.13 103.28v-7.38h4.348v-7.37h4.348v-7.38h-4.348v-7.38h-4.348v-7.38h-4.347v7.38h-4.348v7.38h-4.345v7.38h4.345v7.37h4.348v7.38z"/><path d="m47.826 51.639h2.609v14.754h-2.609z"/><path d="m0 7.377h4.348v7.377h-4.348z"/><path d="m47.826 0h2.609v14.754h-2.609z"/><path d="m47.826 103.28h2.609v14.754h-2.609z"/><path d="m47.826 132.79h-4.348v-7.38h-4.348v-7.38h-4.347v-7.37h-4.348v-7.38h-4.345v-7.38h-4.351v7.38h-4.348v7.38h-4.351v7.37h-4.344v7.38h-4.348v7.38h-4.348v14.75h4.348v7.38h4.348v7.37h4.344v7.38h4.351v-7.38h4.348v-7.37h4.351v-7.38h-8.699v-7.38h13.04v7.38h4.348v7.38h4.347v7.37h-4.347v7.38h-4.348v7.38h-4.345v7.38h-4.351v7.37h-4.348v7.38h-4.351v-7.38h-4.344v-7.37h-4.348v-7.38h-4.348v22.13h4.348v7.38h4.348v7.37h4.344v7.38h4.351v4.43h8.699v-19.18h4.345v-7.38h4.348v-7.38h4.347v-7.37h4.348v-7.38h4.348v-7.38h2.614v-29.51h-2.614z"/><path d="m47.826 184.43h2.609v7.377h-2.609z"/><path d="m47.826 206.56h-4.348v-7.38h-4.348v14.75h4.348v7.38h4.348v4.43h2.614v-11.81h-2.614z"/><path d="m30.435 221.31h4.348v4.426h-4.348z"/><path d="m0 162.29h4.348v7.377h-4.348z"/><path d="m49.565 51.639h2.609v14.754h-2.609z"/><path d="m49.565 0h2.609v14.754h-2.609z"/><path d="m49.565 103.28h2.609v14.754h-2.609z"/><path d="m95.65 110.66h4.348v7.377h-4.348z"/><path d="m60.87 66.39v7.38h-4.35v7.38h-4.35v7.38h4.35v7.37h4.35v7.38h4.35v-7.38h4.34v-7.37h4.353v-7.38h-4.353v-7.38h-4.34v-7.38z"/><path d="m95.65 73.77h-4.35v-7.38h-4.343v7.38h-4.347v7.38h-4.35v7.38h4.35v7.37h4.347v7.38h4.343v-7.38h4.35v-7.37h4.35v-7.38h-4.35z"/><path d="m95.65 22.13h-4.35v-7.376h-4.343v-7.377h-4.347v-7.377h-13.05v7.377h-4.34v7.377h-4.35v7.376h-4.35v7.378h-4.35v7.377h4.35v7.375h4.35v7.379h4.35v7.381h4.34v7.37h4.353v7.38h4.347v-7.38h4.35v-7.37h4.347v-7.381h4.343v-7.379h4.35v-7.375h4.35v-7.377h-4.35z"/><path d="m95.65 7.377h4.348v7.377h-4.348z"/><path d="m95.65 51.639h4.348v7.377h-4.348z"/><path d="m49.565 184.43h2.609v7.377h-2.609z"/><path d="m95.65 162.29h4.348v7.377h-4.348z"/><path d="m95.65 125.41h-4.35v-7.38h-4.343v-7.37h-4.347v-7.38h-4.35v-7.38h-4.347v7.38h-4.353v7.38h-4.34v7.37h-4.35v7.38h-4.35v7.38h-4.35v7.37h-2.605v29.51h2.605v7.38h4.35v7.38h4.35v7.37h4.35v7.38h4.34v7.38h4.353v19.18h8.697v-4.43h4.347v-7.38h4.343v-7.37h4.35v-7.38h4.35v-22.13h-4.35v7.38h-4.35v7.37h-4.343v7.38h-4.347v-7.38h-4.35v-7.37h-4.347v-7.38h-4.353v-7.38h-4.34v-7.38h-4.35v-7.37h4.35v-7.38h4.34v-7.38h13.05v7.38h-8.697v7.38h4.347v7.37h4.35v7.38h4.347v-7.38h4.343v-7.37h4.35v-7.38h4.35v-14.75h-4.35z"/><path d="m56.52 206.56h-4.35v7.37h-2.605v11.81h2.605v-4.43h4.35v-7.38h4.35v-14.75h-4.35z"/><path d="m65.22 221.31h4.348v4.426h-4.348z"/><path d="m47.826 413.12h-4.348v-7.38h-4.348v-7.38h-4.347v-7.38h-4.348v-7.37h-4.345v-7.38h-4.351v7.38h-4.348v7.37h-4.351v7.38h-4.344v7.38h-4.348v7.38h-4.348v7.37h4.348v7.38h4.348v7.38h4.344v7.37h4.351v7.38h13.04v-7.38h4.348v-7.37h4.347v-7.38h4.348v-7.38h4.348z"/><path d="m47.826 435.25h2.609v14.754h-2.609z"/><path d="m34.783 346.72v7.38h-4.348v7.38h-4.345v7.37h4.345v7.38h4.348v7.38h4.347v-7.38h4.348v-7.38h4.348v-7.37h-4.348v-7.38h-4.348v-7.38z"/><path d="m0 435.25h4.348v7.377h-4.348z"/><path d="m0 331.97h4.348v7.377h-4.348z"/><path d="m4.348 376.23h4.348v7.38h4.344v-7.38h4.351v-7.38h4.348v-7.37h-4.348v-7.38h-4.351v-7.38h-4.344v7.38h-4.348v7.38h-4.348v7.37h4.348z"/><path d="m0 390.98h4.348v7.377h-4.348z"/><path d="m47.826 331.97h2.609v14.754h-2.609z"/><path d="m47.826 383.61h2.609v14.754h-2.609z"/><path d="m30.435 224.26h4.348v4.426h-4.348z"/><path d="m0 280.33h4.348v7.377h-4.348z"/><path d="m47.826 272.95h-4.348v-7.38h-4.348v-7.37h-4.347v-7.38h-4.348v-7.38h-4.345v-19.18h-8.699v4.43h-4.351v7.38h-4.344v7.37h-4.348v7.38h-4.348v22.13h4.348v-7.38h4.348v-7.37h4.344v-7.38h4.351v7.38h4.348v7.37h4.351v7.38h4.345v7.38h4.348v7.37h4.347v7.38h-4.347v7.38h-4.348v7.38h-13.04v-7.38h8.699v-7.38h-4.351v-7.38h-4.348v-7.37h-4.351v7.37h-4.344v7.38h-4.348v7.38h-4.348v14.75h4.348v7.38h4.348v7.38h4.344v7.37h4.351v7.38h4.348v7.38h4.351v-7.38h4.345v-7.38h4.348v-7.37h4.347v-7.38h4.348v-7.38h4.348v-7.37h2.614v-29.51h-2.614z"/><path d="m47.826 258.2h2.609v7.377h-2.609z"/><path d="m47.826 224.26v4.43h-4.348v7.38h-4.348v14.75h4.348v-7.38h4.348v-7.37h2.614v-11.81z"/><path d="m49.565 383.61h2.609v14.754h-2.609z"/><path d="m49.565 435.25h2.609v14.754h-2.609z"/><path d="m60.87 346.72v7.38h-4.35v7.38h-4.35v7.37h4.35v7.38h4.35v7.38h4.35v-7.38h4.34v-7.38h4.353v-7.37h-4.353v-7.38h-4.34v-7.38z"/><path d="m95.65 435.25h4.348v7.377h-4.348z"/><path d="m49.565 331.97h2.609v14.754h-2.609z"/><path d="m95.65 354.1h-4.35v-7.38h-4.343v7.38h-4.347v7.38h-4.35v7.37h4.35v7.38h4.347v7.38h4.343v-7.38h4.35v-7.38h4.35v-7.37h-4.35z"/><path d="m95.65 331.97h4.348v7.377h-4.348z"/><path d="m95.65 390.98h4.348v7.377h-4.348z"/><path d="m95.65 405.74h-4.35v-7.38h-4.343v-7.38h-4.347v-7.37h-4.35v-7.38h-4.347v7.38h-4.353v7.37h-4.34v7.38h-4.35v7.38h-4.35v7.38h-4.35v7.37h4.35v7.38h4.35v7.38h4.35v7.37h4.34v7.38h13.05v-7.38h4.347v-7.37h4.343v-7.38h4.35v-7.38h4.35v-7.37h-4.35z"/><path d="m65.22 224.26h4.348v4.426h-4.348z"/><path d="m52.17 243.44h4.35v7.38h4.35v-14.75h-4.35v-7.38h-4.35v-4.43h-2.605v11.81h2.605z"/><path d="m95.65 280.33h4.348v7.377h-4.348z"/><path d="m49.565 258.2h2.609v7.377h-2.609z"/><path d="m95.65 250.82v-7.38h-4.35v-7.37h-4.343v-7.38h-4.347v-4.43h-8.697v19.18h-4.353v7.38h-4.34v7.38h-4.35v7.37h-4.35v7.38h-4.35v7.38h-2.605v29.51h2.605v7.37h4.35v7.38h4.35v7.38h4.35v7.37h4.34v7.38h4.353v7.38h4.347v-7.38h4.35v-7.38h4.347v-7.37h4.343v-7.38h4.35v-7.38h4.35v-14.75h-4.35v-7.38h-4.35v-7.38h-4.343v-7.37h-4.347v7.37h-4.35v7.38h-4.347v7.38h8.697v7.38h-13.05v-7.38h-4.34v-7.38h-4.35v-7.38h4.35v-7.37h4.34v-7.38h4.353v-7.38h4.347v-7.37h4.35v-7.38h4.347v7.38h4.343v7.37h4.35v7.38h4.35v-22.13z"/></g></svg>