<svg xmlns="http://www.w3.org/2000/svg" viewBox="0 0 750 500" enable-background="new 0 0 750 500" xmlns:xlink="http://www.w3.org/1999/xlink"><defs><radialGradient id="3" cx="86.955" cy="294.11" r=".5" gradientTransform="matrix(20.0231 0 0-21.9609-1293.58 6622.34)" gradientUnits="userSpaceOnUse" xlink:href="#2"/><radialGradient id="2" cx="90.46" cy="288.04" r=".5" gradientTransform="matrix(87.588 0 0-58.3622-7477.5 17004.7)" gradientUnits="userSpaceOnUse"><stop stop-color="#952d1a"/><stop offset="1" stop-color="#570a00"/></radialGradient><radialGradient id="0" cx="90.46" cy="288.04" r=".5" gradientTransform="matrix(87.5286 0 0-58.3043-7614.83 16988.26)" gradientUnits="userSpaceOnUse"><stop stop-color="#ffef5d"/><stop offset="1" stop-color="#ea5700"/></radialGradient><radialGradient id="1" cx="86.78" cy="294.06" r=".5" gradientTransform="matrix(19.299 0 0-22.0925-1373.43 6659.84)" gradientUnits="userSpaceOnUse" xlink:href="#0"/></defs><path fill="#ce1126" d="m0 0h750v500h-750z"/><path fill="#003f87" d="m0 35.714h750v428.57h-750z"/><circle cx="375" cy="250" r="196.43" fill="#fff"/><circle cx="375" cy="249" r="162.81" fill="none" stroke="#552300" stroke-width="4.103"/><g fill="#007f00"><path d="m356.19 76.24c14.725-15.798 28.04 2.451 27.684 11-.355 8.551-15.207 27.416-28.646 12.234 13.922 3.565 18.08-12 25.13-12.157-7.04.155-9.919-15.259-24.16-11.08"/><path d="m202.92 200.12c-7.742-20.1 14.644-23.856 22.21-19.751 7.567 4.105 18.02 25.681-1.648 30.908 9.391-10.806-2.824-21.409.157-27.741-2.981 6.332-18.18 2.06-20.717 16.585v-.001"/><path d="m533.28 180.24c20.17 7.905 7.847 26.827-.314 29.594-8.16 2.767-31.26-4.144-21.861-22.07 1.691 14.171 17.821 12.387 20.515 18.846-2.696-6.459 10.741-14.701 1.66-26.366"/><path d="m269.58 393.14c-21.576-2.145-14.921-23.685-7.832-28.556 7.091-4.871 31.21-4.475 27.1 15.318-5.522-13.174-20.548-7.092-24.915-12.576 4.365 5.484-6.295 17.05 5.648 25.814"/><path d="m487.64 377.55c.308 21.517-22.01 17.408-27.698 10.973-5.684-6.435-8.03-30.26 12.251-28.463-12.559 6.945-4.761 21.07-9.754 25.998 4.995-4.929 17.788 4.266 25.2-8.508"/><path d="m218.64 159.24c-1.968-21.431 20.606-19.03 26.768-13.04 6.163 5.985 10.342 29.564-10.02 29.31 11.99-7.878 3.124-21.369 7.723-26.663-4.599 5.295-18.06-2.901-24.47 10.398"/><path d="m241.76 360.29c-21.382-3.587-13.276-24.631-5.871-29.02 7.405-4.384 31.444-2.372 25.994 17.1-4.613-13.517-20.02-8.453-24-14.218 3.984 5.766-7.44 16.593 3.88 26.14"/><path d="m410.72 77.13c19.418-9.578 25.333 12.174 21.94 20.04-3.391 7.868-24.03 20.269-31.16 1.337 11.738 8.24 21.2-4.845 27.839-2.507-6.638-2.338-3.812-17.762-18.622-18.873"/><path d="m452.04 404.49c-9.626 19.283-27.594 5.512-29.689-2.79-2.095-8.303 6.78-30.564 23.996-19.769-14.369.484-13.93 16.586-20.64 18.708 6.71-2.122 13.861 11.854 26.333 3.851"/><path d="m546.33 218.38c16.316 14.177-1.705 27.883-10.325 27.764-8.623-.118-28.03-14.337-13.1-28.09-3.211 13.909 12.583 17.614 12.931 24.595-.349-6.981 15.1-10.257 10.498-24.273"/><path d="m272.4 105.04c4.869-20.971 25.559-11.699 29.535-4.103 3.974 7.595.529 31.29-18.735 24.743 13.866-3.772 9.686-19.334 15.718-22.939-6.03 3.605-16.249-8.353-26.517 2.299h-.001"/><path d="m208.27 284.73c-19-10.373-4.365-27.596 4.082-29.32 8.446-1.722 30.477 8.03 18.871 24.64.129-14.266-16.1-14.523-17.948-21.267 1.849 6.745-12.528 13.235-5 25.945"/><path d="m482.8 118.48c21.462-3.086 20.24 19.412 14.544 25.837-5.696 6.425-29.2 11.816-30.02-8.378 8.561 11.464 21.665 1.962 27.24 6.239-5.57-4.276 1.963-18.05-11.759-23.698"/><path d="m360.73 425.12c-19.798 8.78-24.808-13.195-21.09-20.92 3.714-7.722 24.846-19.272 31.19-.066-11.388-8.711-21.384 3.977-27.919 1.371 6.535 2.605 3.075 17.899 17.827 19.615"/><path d="m538.37 305.08c8.94 19.606-13.18 24.682-20.979 21.03-7.8-3.648-19.538-24.565-.216-30.949-8.723 11.342 4.11 21.2 1.515 27.699 2.595-6.499 18.02-3.135 19.681-17.783"/><path d="m199.66 241.93c-12.438-17.629 8.355-26.675 16.7-24.519 8.345 2.155 23.778 20.558 5.978 30.377 6.46-12.748-7.988-20.08-6.647-26.945-1.342 6.86-17.13 6.387-16.03 21.09"/><path d="m316.63 412.08c-20.35 7.433-23.854-14.831-19.622-22.286 4.232-7.457 26.1-17.562 31.12 2.024-10.77-9.455-21.604 2.535-27.949-.504 6.343 3.037 1.848 18.06 16.451 20.766"/><path d="m310.76 84.939c12.06-17.887 28.08-1.926 29.08 6.575.996 8.501-10.703 29.437-26.369 16.525 14.312 1.363 15.973-14.659 22.903-15.902-6.931 1.242-12.2-13.535-25.61-7.198"/><path d="m519.27 347.62c1.302 21.482-21.19 18.39-27.16 12.218-5.975-6.171-9.42-29.868 10.927-28.989-12.229 7.505-3.786 21.262-8.547 26.412 4.761-5.149 17.965 3.455 24.78-9.641"/><path d="m513.74 145.08c21.257 4.259 12.48 25.04 4.938 29.19-7.542 4.149-31.503 1.379-25.433-17.913 4.175 13.655 19.738 9.08 23.535 14.969-3.795-5.886 7.969-16.347-3.04-26.24"/><path d="m244.54 129.94c.205-21.52 22.423-16.885 27.95-10.317 5.528 6.569 7.306 30.445-12.929 28.17 12.723-6.646 5.264-20.95 10.374-25.761-5.11 4.811-17.679-4.683-25.395 7.912"/><path d="m217.66 323.91c-19.346-9.723-5.311-27.431 3.072-29.438 8.383-2.01 30.735 6.996 19.708 23.987-.364-14.264-16.59-13.969-18.669-20.648 2.08 6.679-12.07 13.651-4.111 26.1"/><path d="m450 94.81c20.287-7.6 23.976 14.632 19.809 22.12-4.169 7.492-25.952 17.778-31.14-1.767 10.848 9.366 21.584-2.713 27.952.274-6.37-2.987-2-18.05-16.625-20.631"/><path d="m406.94 422.71c-15.777 14.795-27.803-4.297-26.862-12.805.942-8.51 17.05-26.357 29.418-10.32-13.645-4.475-18.865 10.787-25.902 10.475 7.04.31 8.849 15.882 23.345 12.65h.001"/><path d="m545.18 258.13c14.802 15.728-4.511 27.572-13.08 26.598-8.567-.973-26.442-17.05-10.202-29.25-4.598 13.52 10.741 18.778 10.382 25.758.359-6.981 16.06-8.706 12.897-23.11"/></g><g fill="#005800"><path d="m355.23 99.48c13.92 3.563 17.41-11.815 24.45-11.969-4.11 4.909-14.83 17.422-24.45 11.969"/><path d="m356.19 76.24c14.725-15.798 28.04 2.451 27.684 11-11.95-20.833-15.69-17.62-27.68-11h-.004"/><path d="m223.48 211.27c9.391-10.806-2.952-20.727.028-27.06 2.614 5.832 9.16 20.92-.028 27.06"/><path d="m202.92 200.12c-7.742-20.1 14.644-23.856 22.21-19.751-24.11 1.4-22.87 6.15-22.21 19.751"/><path d="m511.11 187.76c1.691 14.171 17.4 11.833 20.09 18.291-6.099-2.026-21.734-7.42-20.09-18.291"/><path d="m533.28 180.24c20.17 7.905 7.847 26.827-.314 29.594 15.24-18.601 10.869-20.896.314-29.594"/><path d="m288.85 379.91c-5.521-13.175-19.992-6.674-24.358-12.158 6.424.298 22.948 1.256 24.358 12.158"/><path d="m269.58 393.14c-21.576-2.145-14.921-23.685-7.832-28.556-9.551 22.02-4.713 23.04 7.832 28.556"/><path d="m472.19 360.06c-12.559 6.945-4.404 20.473-9.397 25.402-.434-6.369-1.357-22.769 9.397-25.402"/><path d="m487.64 377.55c.308 21.517-22.01 17.408-27.698 10.973 23.13 6.91 23.61 2.023 27.698-10.973"/><path d="m235.39 175.5c11.99-7.878 2.812-20.747 7.412-26.04.924 6.318 3.108 22.6-7.412 26.04"/><path d="m218.64 159.24c-1.968-21.431 20.606-19.03 26.768-13.04-23.597-5.133-23.694-.225-26.768 13.04"/><path d="m261.88 348.37c-4.612-13.515-19.492-7.998-23.476-13.762 6.388.727 22.81 2.79 23.476 13.762"/><path d="m241.76 360.29c-21.382-3.587-13.276-24.631-5.871-29.02-11.03 21.332-6.271 22.678 5.871 29.02"/><path d="m401.51 98.51c11.738 8.24 20.506-4.906 27.14-2.568-5.599 3.14-20.1 11.06-27.14 2.568"/><path d="m410.72 77.13c19.418-9.578 25.333 12.174 21.94 20.04-3.719-23.688-8.364-22-21.94-20.04"/><path d="m446.35 381.93c-14.369.484-13.339 16.217-20.05 18.338 2.544-5.861 9.269-20.871 20.05-18.338"/><path d="m452.04 404.49c-9.626 19.283-27.594 5.512-29.689-2.79 17.401 16.631 20.07 12.501 29.689 2.79"/><path d="m522.9 218.06c-3.211 13.909 12.375 16.952 12.723 23.933-5.056-3.944-17.952-14.243-12.723-23.933"/><path d="m546.33 218.38c16.316 14.177-1.705 27.883-10.325 27.764 20.656-12.427 17.317-16.05 10.325-27.764"/><path d="m283.2 125.68c13.866-3.772 9.197-18.839 15.23-22.445-1.11 6.287-4.154 22.434-15.23 22.445"/><path d="m272.4 105.04c4.869-20.971 25.559-11.699 29.535-4.103-20.806-12.184-22.441-7.553-29.535 4.103"/><path d="m231.22 280.05c.129-14.267-15.753-13.92-17.6-20.664 5.792 2.773 20.614 10.08 17.6 20.664"/><path d="m208.27 284.73c-19-10.373-4.365-27.596 4.082-29.32-17.488 16.54-13.445 19.366-4.082 29.32"/><path d="m467.32 135.94c8.561 11.464 21.02 1.689 26.596 5.965-6.307 1.25-22.577 4.278-26.596-5.965"/><path d="m482.8 118.48c21.462-3.086 20.24 19.412 14.544 25.837 3.915-23.657-1.028-23.493-14.544-25.837"/><path d="m370.82 404.14c-11.388-8.711-20.692 4.067-27.23 1.459 5.725-2.908 20.544-10.226 27.23-1.459"/><path d="m360.73 425.12c-19.798 8.78-24.808-13.195-21.09-20.92 2.737 23.82 7.449 22.324 21.09 20.92"/><path d="m517.17 295.17c-8.722 11.344 4.197 20.516 1.602 27.01-2.959-5.668-10.404-20.339-1.602-27.01"/><path d="m538.37 305.08c8.94 19.606-13.18 24.682-20.979 21.03 23.99-2.83 22.459-7.498 20.979-21.03"/><path d="m222.34 247.79c6.46-12.748-7.945-19.392-6.604-26.25 3.961 5.03 14.01 18.08 6.604 26.25"/><path d="m199.66 241.93c-12.438-17.629 8.355-26.675 16.7-24.519-23.05 7.181-20.675 11.487-16.7 24.519"/><path d="m328.12 391.82c-10.77-9.455-20.921 2.669-27.26-.367 5.909-2.519 21.19-8.828 27.26.367"/><path d="m316.63 412.08c-20.35 7.433-23.854-14.831-19.622-22.286 1.109 23.948 5.911 22.773 19.622 22.286"/><path d="m313.47 108.04c14.312 1.363 15.338-14.369 22.268-15.613-3.286 5.487-11.91 19.508-22.268 15.613"/><path d="m310.76 84.939c12.06-17.887 28.08-1.926 29.08 6.575-15.09-18.723-18.276-14.97-29.08-6.575"/><path d="m503.03 330.85c-12.229 7.505-3.457 20.65-8.219 25.801-.726-6.342-2.405-22.684 8.219-25.801"/><path d="m519.27 347.62c1.302 21.482-21.19 18.39-27.16 12.218 23.427 5.852 23.677.952 27.16-12.218"/><path d="m493.24 156.35c4.176 13.654 19.227 8.61 23.02 14.497-6.362-.928-22.709-3.508-23.02-14.497"/><path d="m513.74 145.08c21.257 4.259 12.48 25.04 4.938 29.19 11.708-20.971 6.997-22.467-4.938-29.19"/><path d="m259.57 147.78c12.723-6.646 4.894-20.363 10-25.17.281 6.376.812 22.795-10 25.17"/><path d="m244.54 129.94c.205-21.52 22.423-16.885 27.95-10.317-22.959-7.454-23.552-2.58-27.95 10.317"/><path d="m240.44 318.46c-.364-14.264-16.222-13.379-18.303-20.06 5.884 2.576 20.949 9.382 18.303 20.06"/><path d="m217.66 323.91c-19.346-9.723-5.311-27.431 3.072-29.438-16.91 17.12-12.771 19.808-3.072 29.438"/><path d="m438.67 115.16c10.848 9.366 20.896-2.842 27.27.144-5.888 2.568-21.12 9-27.27-.144"/><path d="m450 94.81c20.287-7.6 23.976 14.632 19.809 22.12-1.312-23.94-6.102-22.724-19.809-22.12"/><path d="m409.5 399.59c-13.645-4.475-18.18 10.643-25.22 10.331 4.435-4.628 15.994-16.407 25.22-10.331"/><path d="m406.94 422.71c-15.777 14.795-27.803-4.297-26.862-12.805 10.497 21.576 14.446 18.617 26.862 12.805"/><path d="m521.9 255.48c-4.597 13.52 10.602 18.1 10.242 25.08-4.633-4.426-16.424-15.956-10.242-25.08"/><path d="m545.18 258.13c14.802 15.728-4.511 27.572-13.08 26.598 21.809-10.312 18.852-14.247 13.08-26.598"/></g><g stroke-width=".509"><g fill="#730000" stroke="#000"><path d="m405.26 125.34c0 0 .61-1.426 1.73-.61 1.018.812 1.321 4.375 1.321 4.375l-1.628.812c.001.001.917-1.319-1.423-4.577z"/><path d="m396.01 157.29c0 0 .813-1.118-.305-3.563l1.628-.508c0 0 .609 1.932-.204 4.072l-1.119-.001"/><path d="m424.19 151.69l-3.865 2.342 1.934.916 4.679-2.748-2.748-.51"/><path d="m372.4 166.85c-1.019.815-1.12 2.24-1.73 3.052-.506.814-2.034 1.932-2.135 3.154-.203 1.22-.304 2.034.204 3.664.607 1.626 3.152 8.851 2.135 14.347-1.12 5.493-.71 7.833-.303 8.649.404.814 1.627 3.051 2.339 3.051 1.628-.203.916-.711 1.525-1.729 1.526-2.646 0-23.1-.712-28.796-.507-4.375-2.545-8.345-2.745-8.75-.203-.511-.609-1.832-.916-2.647-1.525-3.664-3.357-6.815-3.357-14.451 0 0-4.986 1.122-9.257-8.547-2.238-4.883-5.495-4.375-9.359-6l1.729-1.122c0 0 3.256 1.629 4.884 1.629s1.12-3.256 1.12-3.256l1.628-1.63v7.126c0 3.256 4.476 7.732 7.121 9.06 1.628.812 3.765-2.545 3.257-5.799-.509-3.256 0-7.631 0-7.631l2.238 1.321c0 0-.814 1.424-.61 2.238.303.816 1.422-.813 2.236-1.629 0 0 .203.205 1.018.205 0 0-1.628 2.745-2.44 4.172-.812 1.324-.812 6.514-.812 8.447 0 1.934.712 6.409.712 7.833 0 1.021 1.931 5.19 3.46 7.736.507 1.016 1.728 3.661 1.728 3.661 1.221 1.933 1.321 3.256 2.035 4.886.406.812 1.12 3.153 1.628 7.225.204 1.016.406 4.883.714 7.425.304 2.442 2.34.511 4.779-1.219 2.442-1.832 2.442-6.207 2.442-6.207s1.934-1.628 1.628-.712c-.204 1.018 1.019 2.035 1.019 2.035-1.525 3.458-.609 3.052.916 2.95 1.525-.206 6.814-4.172 6.814-4.172.713-.205 3.867-.205 3.358 0-.61.306-1.425 1.832-1.425 1.832l3.46-.408c-1.221.916-5.801 3.561-6.815 4.172-1.12.714-6.611 3.361-8.952 4.274-2.34 1.016-6.919 3.256-7.122 5.596-.103 2.342.304 8.649 0 10.683-.204 2.035-1.019 11.09-1.019 11.09h-10.886c0 0 2.137-7.937-.103-10.07-2.136-2.238-7.122-8.752-10.377-10.992-3.257-2.135 2.135-.505 2.135-.505v-2.24l4.984 6.01c0 0 8.647-7.632 0-18.01-2.746-3.256-5.494-8.241-7.629-8.752-2.238-.61-3.358-1.119-7.123 0-3.866 1.118-13.12 1.118-16.99-4.988l3.257-.508 2.744-1.119c0 0-1.118 3.867 6.613 3.867 7.631 0 8.749 0 8.139-7.123l2.238-1.119 1.629 1.63c0 0-1.12 3.866-.509 5.493.509 1.627 3.257 2.748 5.393 4.375.916.713 1.628.815 2.238.815.915-.102 1.118-.102 2.339-1.324 1.832-2.035 1.424-1.933 3.256-3.559 0 0 .916-1.426 1.12-1.63l1.12 2.952h-.006z"/><path d="m374.03 161.46c.405-.404 1.221-1.934 1.933-3.256 1.221-2.035 2.646-3.256 4.272-5.801 1.525-2.34 2.137-5.798 1.525-8.239l1.424.814.104 3.866c0 0 1.934-1.63 2.748-2.035l.812.405c0 0-6.104 6.31-11.802 16.485l-1.018-2.237.002-.002z"/><path d="m320.52 140.3c.814 1.421 1.629 4.172 4.07 6.307l1.628-.508c0 0-3.764-4.375-3.764-6.307l-1.934.508"/><path d="m330.08 137.85c0 0 .508 5.19-.812 7.123l1.627-.811c0 0 1.119-3.561.813-5.496l-1.628-.812v-.004z"/><path d="m383.7 121.47c0 0-.307 7.325 1.119 11.803l1.932-.608c0 0-.304-1.327 1.322-1.937 1.629-.508 5.494-2.135 7.426-3.765l-.608-1.626c0 0-2.95 2.34-4.375 2.949-1.322.51-2.136 1.119-3.256.816-1.12-.306-2.44-2.138-1.628-6.311l-1.932-1.321"/><path d="m405.26 155.66c0 0-.507 5.189-.202 7.429l1.729.408c0 0-.404-6.207.712-6.716l-2.239-1.121"/><path d="m413 159.53c0 0-1.933 3.358-4.17 3.664l3.561-.714c0 0 1.019-.508 2.544-2.135l-1.935-.815"/></g><g fill="#289400" stroke="#030"><path d="m381.87 144.16l1.321.811 1.424.206c0 0 1.525 1.424 3.256 2.745 1.321 1.122 1.321-.202 1.321-.202l.812 3.256h1.12c0 0-.306 2.136-.306 3.256l1.934-1.629 2.238 1.934c0 0 1.628-1.424 2.441-1.424.812 0 1.118-.812 1.118-.812h.104c-5.393-2.546-7.731-5.19-6.104-7.938 2.646-4.578 7.02-1.629 8.443-1.016l19.737 10.581c0 0 1.322-.814.406-1.63-1.019-.811-1.425-2.848-1.12-3.661.306-.814 2.544 2.542 3.662 2.847 1.12.306 3.661.714 3.661.714l-.102-1.018c0 0 3.256 2.237 3.256 3.358 0 0 2.341-1.221 1.525-1.934-.813-.71 3.562 1.731 3.866 3.055l.915-1.021c-.103 0 .306-3.256 1.424-4.782 1.019-1.524 2.137-1.933 2.137-1.933s1.019-1.731 2.034-1.731c0 0-1.019-.71-1.425-1.524-.508-.816-1.729-1.222-1.729-1.222s1.525-1.118 1.934-1.628c.406-.608.814-.714.814-.714s-2.342-1.932-3.97-2.235c0 0-.102-2.648-2.136-2.85h.916c0 0-1.526-2.849-2.951-2.95 0 0 .916-1.017 1.73-1.119 0 0-1.73-2.238-4.068-1.424l1.525-.608c0 0-1.119-1.22-4.576-.61 0 0 .303-1.424-1.221-2.545 0 0-1.322.1-1.322 1.118 0 0-1.221-1.118-2.746-1.118-1.526 0 .508 1.629.508 1.629s-2.034-1.324-3.256-.916c0 0 .508-2.34-.814-3.563 0 0-1.523.815-1.933 1.832l-.406-1.017c0 0-2.036 2.442-2.441 1.73-.305-.406-.609-2.135-.609-2.135l-1.219 1.832.202-2.546c0 0-1.424.815-2.543 3.458 0 0-1.425 1.324-1.425 2.542 0 0-1.119-1.32-2.137 0-.916 1.424 0 1.122 0 1.122s-.407.505-1.424.71l.204.812c0 0-1.321-.71-2.339-.404l.507 1.219c0 0-2.645.205-2.745-1.93 0 0-2.238-1.121-2.544.101l-1.628 1.018c0 0-.509-1.018-1.425-1.22-1.019-.306-.204 1.32-.204 1.32s-.304-1.219-1.525-1.832c-1.219-.505-.203 1.122-.203 1.122s-1.628-1.324-.812-2.34c0 0-1.526 1.424-.814 2.748l-1.018.711c0 0-.509-.508-.408-.916.104-.408-1.729 1.219-1.729 1.219s-1.119-2.643 0-2.643c.102 0-1.933-.102-2.237 2.24 0 0-1.322.101-2.544.505-1.322.408.916 1.324.916 1.324s-1.934-.408-3.053.204l.713.916c0 0-.713-.713-2.442-.104-1.832.508.406.814.406.814s-1.832-.406-2.747 0c-.916.408.305 1.119.305 1.119s-3.357-1.017-3.866-.71c-.507.304 1.12 1.934 1.12 1.934s-2.035.508-2.44 2.035l1.831.71c0 0-.812.406-1.222 1.222-.403.814 1.222.405 1.222.405s-2.237 1.63-2.237 2.849c0 0 1.627.508 2.848-.711s.406-.814.406-.814l.102.814c0 0 2.341-1.016 2.341-1.626 0-.508-.406.812-.406.812l2.341-1.22 1.524 1.018v-.002z"/><path d="m379.93 112.42l-.509-2.238 5.188.608.915-2.135c0 0 2.441 1.118 3.256 1.929 0 0 4.781-1.219 6.207-.71l-.61 2.24c0 0 4.373.303 5.799.812 1.322.508-.609 1.63-.609 1.63s4.984.608 7.122 1.932c2.238 1.321 2.238 2.442 1.12 2.745l2.744 4.375c0 0-4.373.508-5.187 1.626-.814 1.119-1.628-1.118-1.628-1.118l-.814 3.052c0 0-2.746-1.426-3.865-2.442 0 0-1.321 1.629-.508 2.442l-4.986-3.256c0 0-2.137-.304-2.137 1.63 0 0-2.439-2.748-3.051-3.563l-2.748.815c0 0-.812-1.118-1.83-1.426-1.12-.201-.306 1.426-.306 1.426l-1.628-1.934-1.627-1.929c0 0-1.425 1.929-2.544 1.929-1.02 0-1.02-1.321-.814-2.237.305-.814-3.256-1.016-3.561 0 0 0-1.019-4.07 2.746-5.188 3.866-1.018 3.866-1.018 3.866-1.018l-.001.003z"/><path d="m360.2 126.36l-1.729 1.629-1.019-.508-2.034 2.237-.407-1.223-1.119 1.832-1.729-.609-.814 1.322-1.525-.306c0 0-1.322 1.222-2.137 1.526-.813.206 0-1.829 0-1.829s-1.221 2.034-2.137 2.034c-.812 0-.507-.916-.507-.916s-.508 1.319-1.525 1.525c-.916.102-.51-1.017-.51-1.017l-1.629 1.219v-1.017l-.712-.304c0 0 .406-1.832 1.12-2.238.712-.408-.712-1.626-.712-1.626l.712-.815c0 0-2.036-.508-2.036-.101 0 0 1.019-2.745 2.441-3.258l.103-3.051c0 0 1.425-1.219 2.747-1.324 1.423-.203-.406-2.34-.406-2.34l3.255-1.929.406-2.34 4.984.403 1.018-2.135 3.969 1.016 3.356-1.73 2.441 2.849 3.662.307c0 0-.102 2.542-.102 3.256 0 0 4.373 1.321 4.883 1.73 0 0-.814 2.645-.814 3.153 0 0 3.054-.814 3.97-.61 0 0 .306 2.85.405 3.561 0 0 5.188 1.63 5.494 2.546 0 0-1.12.71-1.729 1.626 0 0 .608 3.156.608 4.172l-.406.61c0 0-1.526-1.424-2.747-1.627l-1.019 2.237-1.83-1.22-1.119.102c0 0-.916-1.119-1.629-1.119l-.103-1.018-1.424.916c0 0-2.237-1.12-2.237-1.832 0-.609.102-1.63.102-1.63l-2.34 1.63c0 0-.508-1.219-.405-1.73.103-.508-.915 1.222-.915 1.222s-1.222-2.138-1.12-2.546l-.306 1.732c0 0-2.441-.812-2.745-2.442v-.002h.001z"/><path d="m327.64 136.33c0 0 4.274 2.14 4.274 3.156 0 0 1.12-2.24.508-3.054l1.629 1.122c0 0 .506-2.034-.103-2.647-.509-.508 3.66-2.235 4.576.51 0 0 2.545-2.645-2.339-4.885 0 0-.405-1.626 2.544-1.219 0 0-.203-1.018-.916-1.424h2.849c0 0-1.729-1.426-4.273-1.832-2.44-.408-.916-.711-1.018-1.224-.204-.508 0-2.34 0-2.34s-1.424-.508-2.544.102l.406-.51c0 0-2.646-.71-3.661-.101 0 0-1.526-.61-1.322-2.24 0 0-1.526-.1-2.236 1.526 0 0-1.425 1.629-3.357 1.629-.406 0-1.832-.815-1.832-.815l-1.222 2.85-1.932-.102.609 1.118c0 0-2.95-.811-3.866 0 0 0 1.12 1.732.813 2.951 0 0-2.341.408-2.849.815-.61.403.813.71.813.71s-2.645.814-3.257 1.63l1.02.811-1.222 1.631 1.019.201c0 0-1.729.51-2.644.815-.916.303 1.627.508 1.627.508l-1.219 1.118 1.933.303c0 0-1.525 4.072-1.628 6.01 0 0 2.341-2.85 2.949-3.052l-1.83 3.052c0 0 3.46-1.118 3.766-1.631.304-.608.609-1.117.609-1.117l.103 1.73c0 0 1.322-1.832 1.525-2.545.103-.71 2.136.713 2.136.713v-1.02c0 0 1.832.609 2.441.714.712.101.813-.306.813-.306l1.729-.203-.306 1.421c0 0 1.22-.812 1.525-1.627.204-.815.813 0 .813 0l.812-3.256h1.729l.006.008z"/><path d="m313.7 150.78l1.628 3.358c-1.322.1-3.256 1.626-3.256 1.626.304 5.597-1.118 5.291-1.118 5.291.403 1.018-.259 2.905-.259 2.905l8.092-4.837.102-.508 9.564-4.48.303.508 2.748-1.524 1.933 5.085-1.933 1.119c.103 1.73 2.137 4.784 2.137 4.784l2.544-.608 2.747-1.021c0 0 .103 1.526.103 1.021 0-.411 2.949-1.424 2.949-1.424l1.322 1.322c1.02-.101 2.848-2.546 2.848-2.546l2.137.816c0 0 .712-1.22.712-2.136 0-.814 2.645-.814 2.645-.814l1.832 1.321 2.34-1.931c0 0 .712 1.424 1.628 1.626 1.019.102 3.561 2.034 3.561 1.63 0-.406 1.12-2.646 1.12-2.646l4.271 1.73c-.608-1.933-2.032-4.273-2.032-4.273s2.032-1.626 1.627-2.034-1.627 0-1.627 0l1.219-2.442h-1.627l.507-.608-2.645-1.118 1.423-2.85c-.61-.714-7.629-2.138-7.629-2.138l1.628-1.526c0 0-.814-1.219-1.628-1.219s-5.087.102-5.291-.303c-.103-.408-1.832-1.937-1.832-1.937l-2.646 1.937-1.322-.408-2.34.916c0 0 0 1.321-.307.405-.303-.816-2.44-2.951-2.44-2.951-.406.71-3.153 3.967-3.153 3.967s-.406 1.732-1.322.508c-1.019-1.219-3.154-2.542-3.46-1.524-.305 1.121-2.236 2.135-2.646 1.832-.405-.308-2.645-.102-2.849.508-.102.71-2.544 2.542-2.544 2.542-1.526-.71-3.969-.302-3.969-.302s-.712 1.118-.812 2.034l-4.984 1.319h.004v-.002h-.003z"/><path d="m359.69 191.99v-2.138l2.44 1.629 1.425-1.629 1.832 1.83 1.119-1.83v2.952l2.747-2.44 1.626.71v-2.34c0 0 1.935-3.258 1.12-3.866l1.628-.508c0 0-2.748-2.748-3.562-3.258-.812-.608-1.932-.608-1.932-.608s-2.137-2.14-3.561-2.748c-1.322-.508-2.138.608-2.138.608s-.813-1.626-2.237-1.933c-1.32-.303-1.32 1.119-1.32 1.119s-1.02-1.018-2.341-1.526c-1.322-.608-.407 1.22-.407 1.22l-4.681-1.422.609 1.422-4.373-1.115.506 1.627-3.051-.512-.203 1.326-4.375.812.814 1.424-2.747-1.119v1.934l-3.052 1.118 1.119 1.02c0 0-4.068 1.933-4.884 2.543-.812.508 1.629 1.626 1.629 1.626l-4.375-.61 1.629 1.426-3.866 3.562 2.746 1.934-1.628 2.44 4.069.812 1.628 2.748 3.357-.61v3.051l4.884-3.865c0 0 3.562 3.154 3.866 2.238.203-.814.203-3.562.203-3.562h1.729v-2.745l1.322 1.118 2.238-3.258 2.949 4.072 2.237-5.188 3.256.508.006.001z"/><path d="m379.63 179.68l-.508-4.68-1.423 1.424.607-4.375-2.235-.408.812-4.272-1.627-.816.404-2.034 1.629-1.219 2.95-2.85 6.814.105.813-2.24 4.885.815c.812.916 3.355-1.832 3.355-1.832h1.019l1.12 2.134c0 0 3.561-.508 5.188.61l-1.934 2.646 3.561.304 2.44.512 2.544-.816 3.257-.206.813 1.324h3.053l-1.019 1.219 3.968 1.832-.812.815c0 0 2.237.814 3.865.814h.813c0 0 .813 1.931-.307 2.745 0 0 1.12 2.748 3.562 3.258 2.441.508 2.441.508 2.746 1.117.307.51 0 3.258-2.746 3.258v2.748c0 0-2.137 1.933-2.441 2.745l-1.629-1.119c0 0-1.422 1.63-1.422 2.748 0 0-3.562-4.682-4.885-4.887-1.424-.303-1.12 2.647-1.12 2.647l-3.864-3.256-.509 2.237-3.256-2.745-1.934 1.319-3.46-3.559-3.357.408 1.321-1.731h-4.069l-.812-3.559-.61 2.949-2.44-1.626-3.154 3.458c0 0-.406-.409-.916-2.036-.507-1.628-1.933 1.932-1.933 1.932l-1.12-2.542-1.322 2.542c0 0-1.12-1.932-2.238-2.542-1.018-.508-2.135 3.051-2.439 4.681l.002.004z"/><path d="m380.24 190.36l.203-1.626 5.798-2.24 4.885-1.832 2.439-1.118 1.12 1.932 1.424-2.745 2.238 2.847 1.221-1.526 1.932 1.424h1.628l.305 2.14c0 0 4.07.303 4.374-.508.305-.815.812 2.745.812 2.745l3.865.508.814 4.375c0 0 1.931 4.072 1.322 5.699-.51 1.73-2.138-2.136-2.138-2.136s-.304 3.052-.609 3.866c-.203.812-5.188-.814-5.188-.814l-2.136 4.07c0 0-2.237-3.256-3.255-3.256-1.12 0-1.12 3.256-1.12 3.256s-3.256-3.867-4.681-5.496c-1.322-1.626-1.628 1.629-1.628 1.629s-2.136-3.562-2.136-4.578c0-1.119-1.934-2.24-1.934-2.24s-3.358 3.867-5.801 4.886c0 0 .306-2.442-.507-3.256-.813-.815-3.257 1.626-3.257 1.626s-1.729-3.764 0-7.631h.01z"/></g><g fill="none" stroke="#004b00"><path d="m407.1 129.71l.509 2.035c0 0 1.83-.408 3.053-.305 0 0-.305 1.627-.712 2.34 0 0 2.441-.406 3.561.304l-.509 1.219 2.849 1.222-2.645 2.136c0 0 4.271 1.524 5.087 2.748 0 0-2.746 1.932-3.154 1.832-.406-.206-.102.811.61 1.727l-2.341-.101c0 0 .916 2.138.813 2.95-.102.814-3.866.609-3.866.609"/><path d="m425 142.94c0 0 .712-4.07-.404-5.088 0 0 2.644 2.24 4.373 2.34 1.832.105-.103-3.357-.103-3.357s2.544 1.322 3.765 1.627c1.221.205-.916-2.543-.916-2.543s.712-1.324 2.746-.102"/><path d="m387.16 119.64c0 0 .1-.916-.308-1.424-2.44-3.358 2.545 2.545 3.561 2.748"/><path d="m395.09 120.96c0 0 1.628 1.219 2.442 1.219.813 0-.508-3.256-.916-3.661-.406-.408 2.95 1.321 4.172 1.526 1.221.303 1.423-2.035 1.423-2.035s3.765.609 4.579 1.119"/><path d="m380.64 118.42c0 0-.305-2.136-.405-3.052"/><path d="m355.01 128.6c-.204-.408 1.02-2.24.509-3.054 0 0 .712.612 1.424.714.61.101.404-2.342.404-2.342l.814.304c0 0 2.137-1.018 1.729-1.832-.408-.812 1.424 1.219 1.424 1.219s1.222-1.219 1.222-1.727c0-.513 1.422 1.219 1.422 1.219s1.525-.306 1.525-1.219c0-.916 1.934.303 1.934.303s.812-1.118.712-1.832"/><path d="m347.58 130.53c0 0 .914-2.135-.103-3.559"/><path d="m322.86 137.24c.103-1.016.609-3.764.103-4.172-.508-.403 1.019.408 2.238.713"/><path d="m334.86 133.38c-1.221-1.223-1.934-1.832-3.864-1.832"/><path d="m314.21 140.19c.306-.71.813-2.441.508-3.458"/><path d="m340.76 190.66l1.322-2.748 1.628 3.866 1.118-2.442.406.815 2.441-2.645 2.646 3.968"/><path d="m392.75 174.28l1.729-3.458 2.342 1.222 1.12-3.358 2.439 1.526 1.424-3.153 2.747.711.202-2.238c0 0 1.933 1.118 2.442 1.932.608.816 0-2.745 0-2.745l2.237 1.016c0 0 1.628-1.629-.609-2.545"/><path d="m399.57 169.91l2.441 3.562 2.033-2.34 1.832 3.967 2.34-1.424 3.356 1.933 1.525-1.219 3.662 2.645 1.526-3.153 3.256 1.017 2.135-3.661"/><path d="m335.78 161.67c0 0 1.425-2.445.916-3.564-.611-1.119 2.949 1.934 2.949 1.934s.812-2.443.305-3.56c-.611-1.119 4.07 3.256 4.07 3.256s.814-3.764 0-4.58c-.814-.814 4.477 1.122 4.477 1.122s2.137-.609 1.322-1.73c-.814-1.118 3.559 1.627 3.559 1.627s1.018-2.745 0-3.766c-1.118-1.117 3.257 1.324 3.257 1.324l-1.628-2.951 3.56.203-.305-3.256"/><path d="m389.8 194.73l2.34-1.119 2.035 2.035 2.238-3.56 2.746 2.645.406-2.645 2.949 1.223.611-1.631 3.255 1.732.304-2.443 1.628.51.307-1.629"/></g></g><path d="m336.59 310.53c-2.646-4.477-4.681-9.06-6.207-13.531l44.05-38.77 44.06 38.666c-1.526 4.475-3.562 9.26-6.409 13.84l-.352.563c-.812-.303-3.312-1.276-3.312-1.276s-1.425 1.324-2.541 1.424c-1.526.205-2.849-1.32-2.849-1.32s-1.934 1.627-3.866 1.32c-1.934-.201-2.748-1.424-2.748-1.424s-2.034 1.629-3.459 1.324c-1.322-.309-2.238-1.225-2.238-1.225s-1.22 1.529-2.95 1.225c-1.627-.309-3.153-1.225-3.153-1.225s-2.541 1.117-4.171 1.322c-1.626.308-3.052-1.424-3.052-1.424s-2.136 1.424-2.949 1.424c-.814 0-3.866-1.424-3.866-1.424s-3.154 1.018-4.272 1.018c-1.019 0-4.171-1.321-4.171-1.321s-2.95.812-4.271.812c-1.426 0-3.459-.812-3.459-.812s-2.438 1.119-3.764.812c-1.424-.303-2.544-.812-2.544-.812s-2.645 1.119-4.375.812c-1.628-.303-3.561-1.42-3.561-1.42s-.305.812-3.458 1.42h-.104" fill="#9dd7ff"/><g stroke="#000"><g stroke-width=".712"><path d="m374.44 213.66v44.566l-44.05 38.974c-4.272-12.414-4.577-23.504-4.577-28.29v-55.25h48.63" fill="#fff"/><path d="m374.44 213.66v44.566l43.951 38.974c4.271-12.414 4.577-23.504 4.577-28.29v-55.25h-48.53" fill="#ffd83c"/></g><g stroke-width=".509"><path d="m346.02 301.27c3.312 1.795 2.19 1.229 9.06 3.66 5.597 1.937 12.11 2.849 21.567 2.849 8.278 0 12.938-.656 15.56-1.38 2.719-.78 3.363-1.877 3.363-1.877l-6.814 6.92c0 0-27.394 1.479-32.354-1.729-1.931-1.019-6.104-4.375-10.376-8.444h-.001z" fill="#730000"/><g fill="none"><path d="m386.21 288.35c0 0 8.75 4.984 0 14.549"/><path d="m346.84 301.78l12.615-12.01-1.424 16.08"/><path d="m364.64 307.27v-26.86"/><path d="m386.21 307.27v-28.489"/><path d="m375.32 307.78v-30.625"/></g><g fill="#ff0018"><path d="m364.64 281.84l-5.698 1.832 5.698.61v-2.442"/><path d="m375.32 277.66l-6 2.24 6 .203v-2.443"/><path d="m386.21 279.29l-6 2.24 6 .303v-2.546.003z"/><path d="m389.77 292.22c-.305-1.222 3.562-1.118 3.562-1.118s1.12 4.068 0 6.611l-3.255-.609c0 0 .305-2.746-.307-4.884z"/></g><g fill="#fff"><path d="m348.77 300.15l10.683-10.379-.509 6.207c0 0-5.493 3.559-5.493 6.104l-4.681-1.932"/><path d="m354.46 302.29c0 0 1.12-3.256 4.171-4.883l-.305 6.512-3.864-1.629h-.002z"/><path d="m369.83 284.28c0 0 4.373-.61 7.63 0 0 0-.509 4.375 0 5.188 0 0-6-1.425-8.443.812-.001 0-.815-4.069.813-6z"/><path d="m360.57 285.4c0 0 4.375-.61 7.629 0 0 0-.812 4.886-.305 5.699 0 0-4.885-2.748-7.324-.512 0 0-1.629-3.355 0-5.187z"/><path d="m360.26 291.09c0 0 4.374-.508 7.631 0 0 0-.509 4.375 0 5.191 0 0-5.698-1.324-8.141.812.001.001-1.119-4.069.51-6z"/><path d="m369.01 290.28c0 0 6.308-.811 9.562-.303 0 0-1.322 3.561.307 6 0 0-6.817-1.832-9.361.303-.001 0-2.135-4.069-.508-6z"/><path d="m359.76 297.1l8.442.609c0 0-.812 6.207-.305 7.02 0 0-6.815-1.629-8.141.608 0 0-2.238-5.696 0-8.241h.003v.003h.001z"/><path d="m369.32 297.1c0 0 7.322-.51 10.682 0 0 0-1.936 4.683.204 8.75 0 0-9.565-2.744-10.889-.51 0 0-2.235-5.697 0-8.24h.003z"/><path d="m380.51 284.28c0 0 4.373-.61 7.63 0 0 0-.507 4.375 0 5.188 0 0-6-1.425-8.442.812-.002 0-.816-4.069.812-6z"/><path d="m380.51 290.28c0 0 4.373-.508 7.63 0 0 0-.507 4.375 0 5.189 0 0-6-1.322-8.442.815-.002.001-.816-4.071.812-6z"/><path d="m381.02 296.59c0 0 4.373-.607 7.73 0 0 0-1.119 6.817-.609 7.631 0 0-4.982-2.34-7.324-.303 0 0-1.423-5.392.203-7.328z"/><path d="m390.07 297.1c0 0 1.422 5.187 3.254 5.799l-2.44 2.951c0 0-2.95-2.137-3.256-4.576 0 0 1.932-2.241 2.442-4.174z"/></g></g></g><path d="m411.88 311.14c-7.02 11.703-18.516 22.689-37.438 29.506-19.229-6.916-30.928-18.414-37.847-30.02l.103-.102c3.153-.613 3.459-1.424 3.459-1.424s1.933 1.119 3.561 1.424c1.729.303 4.374-.814 4.374-.814s1.119.51 2.543.814c1.322.303 3.765-.814 3.765-.814s2.034.814 3.458.814c1.322 0 4.273-.814 4.273-.814s3.153 1.32 4.17 1.32c1.12 0 4.272-1.018 4.272-1.018s3.053 1.426 3.866 1.426c.812 0 2.95-1.426 2.95-1.426s1.423 1.729 3.051 1.426c1.628-.203 4.171-1.321 4.171-1.321s1.525.916 3.154 1.22c1.729.307 2.95-1.22 2.95-1.22s.916.916 2.238 1.22c1.424.307 3.458-1.322 3.458-1.322s.813 1.222 2.748 1.424c1.933.306 3.866-1.32 3.866-1.32s1.32 1.525 2.848 1.32c1.12-.102 2.542-1.424 2.542-1.424s2.544.812 3.459 1.121" fill="#006ac8"/><g stroke="#000"><path d="m410.15 313.79c-1.525.104-1.729-.916-1.729-.916s-2.032 1.731-3.967 1.425c-2.034-.303-2.95-1.627-2.95-1.627s-2.137 1.73-3.562 1.424c-1.423-.203-2.439-1.222-2.439-1.222s-1.322 1.528-3.053 1.222c-1.729-.203-3.257-1.222-3.257-1.222s-2.746 1.122-4.477 1.425c-1.729.307-3.153-1.627-3.153-1.627s-3.968 1.324-4.781 1.324c-.916 0-3.766-1.324-3.766-1.324s-1.932 1.223-3.051 1.223c-1.22 0-4.476-1.426-4.476-1.426s-3.054.816-4.478.816c-1.425 0-3.561-.816-3.561-.816s-2.645 1.119-4.069.816c-1.424-.307-2.544-.816-2.544-.816s-2.849 1.119-4.578.816c-1.729-.307-3.765-1.424-3.765-1.424s-.304.709-3.661 1.424h-.103" fill="none" stroke-width=".509"/><g stroke-width=".61"><path d="m346.97 317.94c0 0-.284.665-2.938 1.25-.057-.004-.719.156-.719.156.245-.044.443-.079.656-.125-.094.036-.303.112-.75.25 3 4.334 7.494 8.268 12.177 11.423 4.683 3.155 10.06 6.921 19.229 9.608 9.635-3.762 12.206-5.193 18.503-9.41 6.297-4.599 9.578-7.464 13.09-12.184-2.75 1.562-2.355 1.58-3.781 1.375-1.424-.303-2.469-1.344-2.469-1.344s-1.3 1.549-3.03 1.344c-1.729-.303-3.25-1.344-3.25-1.344s-2.26 1.538-4.5 1.438c-1.73-.104-3.156-1.625-3.156-1.625s-3.969 1.312-4.781 1.312c-.916 0-3.75-1.312-3.75-1.312s-1.944 1.219-3.062 1.219c-1.22 0-4.469-1.438-4.469-1.438s-3.045.812-4.469.812c-1.425 0-3.562-.812-3.562-.812s-2.538 1.117-4.062.812c-1.425-.303-2.562-.812-2.562-.812s-2.835 1.117-4.562.812c-1.732-.302-3.783-1.405-3.782-1.405z" fill="#5ac800"/><path d="m374.63 340.51c9.953-4.143 11.751-5.27 17.771-8.951-1.05.029-4.104-.957-2.999-1.272 0 0-1.224 1.103-2.444 1.103-1.12 0-4.375-1.42-4.375-1.42s-3.051.811-4.476.811-3.561-.811-3.561-.811-2.646 1.116-4.07.811c-1.425-.303-2.544-.811-2.544-.811s-2.949 1.116-4.577.811c-1.729-.303-3.765-1.424-3.765-1.424s-2.504 1.328-4.076 1.481c4.809 3.522 9.872 6.961 19.12 9.672z" fill="#ffd800"/></g><path d="m367.88 259.34c1.977-1.61 3.112-3.159 2.452-4.362-.743-1.033-1.905.646-3.214.252 0 0-1.976-1.222-2.515-2.098-1.153-1.281-2.636-2.434-3.49-3.535-.905-1.021-4.31-5.522-9.492-10.704-1.49-.972-1.149-4.65-2.217-5.792-.091-.796-10.358-10.96-14.02-14.637-1.481-1.09-2.262-1.797-4.865.563-2.055 1.854-2.794 3.767-.098 6.077l13.356 12.144c1.951 1.896 4.676 2.241 5.819 3.223l13.576 13.883c1.709 1.477 2.529 2.524 1.563 3.787-1.073 2.077.075 2.357.319 2.42.156.086 1.115.084 1.755-.41l1.073-.811z" fill="#b34b00" stroke-width=".509"/><path d="m334.02 222.92l13.958 13.792" fill="none" stroke-width=".5"/><path d="m352.92 229.22c.216-.415.688-1.473 1.187-2.627.196-.456 3.951-6.444 5.823-6.62 0 0 11.677 8.495 11.686 8.607.039.458-5.065 8.093-5.509 7.513-.002-.001-13.68-5.743-13.187-6.873z" fill="#fff" stroke-width=".571"/></g><path d="m360.36 231.22c-1.599-1.242-4.242-2.453-6.375-3.875l-.958 2c.771.863 10.487 5.381 12.08 6.25 0 0-1.851-2.122-4.75-4.375" fill="#ccb8c8"/><g stroke="#000"><path d="m353.98 227.09c1.25.875 3.625 2.375 5.125 3.25 2.875 2 4.695 4.203 6.75 5.375" fill="none" stroke-width=".4"/><g stroke-width=".509"><path d="m330.32 263.48l26.587-32.904c.498-.456 2.963-.481 3.297 2.068l-25.18 34.32c.001 0-2.868-.284-4.705-3.479z" fill="#782121"/><path d="m419.44 263.84c-.916.715-2.473.9-2.473.9-1.729-2.035-3.156-4.172-5.597-6.816l-26.555-32.663 2.747-2.645 23.907 27.981c.712.711 4.886 5.088 8.854 10.274.002.002.348 2.032-.883 2.969z" fill="#730000"/><path d="m393.87 229.43l-4.274-5.088c0 0-3.255.406-3.864 2.138 0 0-2.341 3.867-8.547 4.274 0 0 1.729 7.223 8.953 11.09 0 0 2.646-7.429 5.188-8.752-.001.001 2.644-1.934 2.544-3.661z" fill="#fff"/><g fill="#730000"><path d="m383.19 252.02c-.609-.205-1.221 0-2.137.509-.812.51-1.83.304-1.729-.714.102-.916 0-.812 1.119-1.524 1.629-.916 3.765-1.019 5.087-.51l-2.34 2.239"/><path d="m412.18 223.12c-.204-.71-.405-1.421.305-2.337.713-.814.713-2.24-1.019-1.528-1.729.714-2.339 2.646-.914 5.597l1.626-1.732h.002z"/></g><path d="m382.58 252.63l30.11-29.915 7.425 7.937c0 0-1.524-.612-2.136-.206-.508.408.61 1.934.61 1.934s-1.424-.508-2.034-.102c-.712.405 0 2.136 0 2.136s-1.221-.916-1.832-.51c-.508.408 0 2.339 0 2.339s-1.628-.507-2.033-.102c-.408.408 0 2.138 0 2.138s-1.629-.814-2.442 0c-.812.812.406 1.934.406 1.934s-2.034-.815-2.848.405c-.813 1.222.102 2.34.102 2.34s-1.627-.812-2.033-.408c-.407.408 0 2.34 0 2.34s-1.424-.814-2.34.206c-.916 1.119.102 2.035.102 2.035s-1.321-.816-2.036-.411c-.712.411.204 2.34.204 2.34s-1.321-.916-2.237 0c-.916 1.021 0 2.035 0 2.035s-1.12-1.018-2.238 0c-1.019 1.121 0 2.239 0 2.239s-1.626-.813-2.236 0c-.712.812.202 1.935.202 1.935s-1.219-.713-2.033-.309c-.812.408 0 2.24 0 2.24s-1.22-1.324-1.729-.609c-.61.711.102 2.441.102 2.441s-1.12-1.324-1.729-.609c-.713.609.405 2.137.405 2.137s-2.034-.916-1.525-.916l-6.211-7.01z" fill="#fff"/></g></g><g fill="#7e4b7e"><path d="m410.96 225.16l-2.34 2.34.508 8.04c0 0 .509-2.34 1.221-.714 0 0 .204-1.932.712-1.626-.409-.206-.102-8.04-.101-8.04"/><path d="m406.59 229.53l-1.729 1.626.609 8.04c0 0 .51-3.051 1.22-.609 0 0-.102-2.034-.102-2.748.002.509.002-6.308.002-6.308"/><path d="m388.38 247.55l-1.628 1.727.408 4.886c0 0 .508-3.153 1.22-.714 0 0-.204-2.031-.204-2.746 0 .509.204-3.155.204-3.155"/></g><g fill="none" stroke="#7e4b7e" stroke-width=".916"><path d="m386.34 227.4c1.12 1.119 4.274 5.187 4.274 5.187"/><path d="m387.77 229.64c-.202.612-.607 2.34-1.523 3.256"/><path d="m388.27 230.04c-.102.406-.102 1.73-1.523 3.054"/><path d="m388.78 230.66c-.204.71-.305 1.22-.812 1.731"/><path d="m389.09 231.27c0 .508-.303.61-.405.916"/><path d="m385.33 229.33c-.406.405-3.358 2.338-4.985 2.95"/><path d="m384.51 230.45c-.406.408-2.238 1.832-3.256 2.24"/><path d="m384.21 231.67c-.609.41-1.628 1.424-2.441 1.73"/><path d="m383.6 232.89c-.406.508-1.018.916-1.525 1.222"/><path d="m365.94 234.01c.332-.613.911-1.816 1.667-2.917.959-1.397 1.372-1.633 1.875-2.125" stroke-linecap="square"/></g><g stroke-width=".509"><path d="m267.72 316.03c1.526.711 0-4.987.507-7.123.61-2.238 4.984 5.494 7.123 6.514 2.238 1.118 15.87-5.395 15.87-5.395l3.256-6.104 1.73 4.985c0 0 3.763-4.375 4.883-6 1.119-1.627 0 3.257-1.12 4.884-1.12 1.629 3.256 2.239 2.746 5.495-.508 3.257 4.375-2.239 4.375-2.239l12.615 1.119c0 0 2.135-7.632 5.493-12.01l1.018 4.887 5.188-5.29c5.799 15.263 18.01 31.849 43.04 40.903 23.501-8.547 35.608-23.709 41.913-38.16l7.02 7.228c0 0 5.494-1.631 6.511-2.238 1.118-.51 12.92 4.172 12.92 4.172s2.136.814 3.256 1.63c1.118.812.304-3.563.304-3.563s6 1.118 5.493 4.375c0 0 1.322-3.051 2.442-3.56s3.763 2.748 4.375 3.866c.508 1.02 13.43 2.646 15.26 3.765 0 0 1.425 1.63 1.425 2.748 0 0 2.748-.306 4.885-.306 0 0-1.628.811-1.628 2.543 0 1.629-.814 2.953-2.442 3.764-1.628.816 0 1.424 2.137 1.63 2.238.304 0 3.052-4.375 4.683 0 0-1.018 2.439.814 3.252 0 0-3.766.308-4.375-.812 0 0-1.32 2.543-1.32 3.867 0 0-4.069-1.324-5.188-1.933 0 0-1.629 1.625-.51 2.439 0 0-7.425-.811-8.851-3.559 0 0-2.646.813-2.137 1.729 0 0-5.188-3.56-6.815-3.56l-1.119 1.828c0 0-3.561-2.135-4.681-2.135-1.02 0-.204 1.627-.204 1.627l-4.983-3.053-1.933 3.053c0 0-4.07-1.935-5.188-2.746-1.019-.813-1.32 1.627-2.136 1.931 0 0-1.628-2.235-3.866-1.931 0 0-.813 2.746-.508 3.561 0 0-6.308-1.322-7.426-1.63-1.12-.304-.508 1.323 0 2.444 0 0-4.681-1.323-5.698-2.139l-.305 2.139c0 0-3.864-.307-4.679-1.121l-2.442 3.356h-3.561l-.812 2.95c0 0-6.815-1.93-7.427-.811-.508 1.117.306 2.744.306 2.744l-6-.812-.507 2.441c0 0-6.919-2.138-8.547-1.121 0 0-2.137 2.24-3.562 2.748-1.319.61 0-.814 0-.814l-2.135-2.949c0 0-2.441 1.322-3.866.814-1.321-.613-5.697 2.135-7.123 1.32 0 0 0-1.935-1.117-2.442-1.019-.509-2.95-.509-3.766.815 0 0-.812-1.121-2.237-3.257-1.322-2.239-3.257.203-3.257.203l-.305-2.646-3.765-.307c-2.238-.305-2.746-2.24-2.746-2.24s-5.799.611-6.613.308l1.423-1.324c0 0-7.935 1.632-9.562 1.021-1.73-.508 1.832-2.748 1.832-2.748s-7.327-1.828-8.751-2.135c-1.321-.305-9.258 1.318-10.378 1.318-1.119 0-1.628-1.832-1.628-1.832s-1.935 1.631-3.562 2.141c0 0-1.322-3.256-.507-3.563 0 0-5.188 1.424-5.494 2.748 0 0-1.322-2.136-1.12-3.052 0 0-2.441 3.867-3.561 4.679-1.12.815-.204-1.933-.204-1.933s-3.05 3.865-4.17 4.172v-2.748c0 0-8.751 4.681-11.191 4.072 0 0 0-1.936.813-2.442l-5.494-.306c-1.32-.203-2.949-.812-4.373-1.119-1.322-.205 1.933-1.627 4.171-1.018 0 0-6.104-2.238-7.937-1.121 0 0-.814-2.236 2.44-3.052 0 0-4.172-4.069-6.614-3.765 0 0 2.748-1.627 4.986-.815 0 0-2.544-6.917-4.172-7.731 0 0 5.8-1.018 7.427-.201l.002-.002z" fill="#289400" stroke="#060"/><g stroke="#000"><path d="m259.27 196.67l74.06-38.36c.355-1.982-.771-3.54-1.932-5.088-21.18 10.387-40.456 22.992-63.992 30.628-1.322.51-13.02 5.393-19.03 12.619-1.903 1.908-2.043 4.724-2.043 4.724s.146 3.231.825 4.104c0 0 .176.887 1.282 1.596-.012 0 .684.341 1.166.169.538.101 1.413.094 2.635-2.045 1.222-2.037 5.189-6.716 7.02-8.346z" fill="#730000"/><path d="m318.89 158.72l9.562-4.58c0 0 3.257 2.442 2.951 5.19 0 0 .712 6.307 8.547 10.682 0 0-6.615 8.241-18.211 8.955 0 0 1.33-10.876-1.11-14.03 0 0-.406.389-.23-.15.347-1.058-.235-4.688-1.72-5.487-.181-.099.118-.396.211-.578z" fill="#fff"/></g></g><g fill="none" stroke="#7e4b7e" stroke-width=".814"><path d="m330.08 160.04c-2.034.814-8.647 4.272-8.647 4.272"/><path d="m326.93 162.07c-.103 1.017-.713 3.459 0 5.189"/><path d="m326.01 162.38c0 .508-.813 2.34.103 4.783"/><path d="m325 162.89c-.204 1.021-.406 1.63 0 2.751"/><path d="m324.18 163.5c-.203.609 0 .916 0 1.321"/><path d="m330.18 163.19c.304.812 3.052 5.086 4.68 6.816"/><path d="m330.59 165.12c.307.814 1.832 3.765 2.951 4.886"/><path d="m330.39 166.85c.406 1.018 1.221 2.85 2.034 3.866"/><path d="m330.39 168.89c.204.815.61 1.832 1.221 2.546"/></g><g stroke-width=".509"><g stroke="#000"><path d="m398.22 154.46l27.21 13.322c5.451 2.65 7.411.202 10.487 1.539l53.694 27.351c4.606 2.01 7.185 2.656 6.523 5.04-.112 3.786 1.79 3.843 2.31 3.883.376.101 2.191-.165 2.949-1.172.568-.656.589-.724.589-.724.608-.608.498-.663.687-.934 2.258-3.249 3.509-6.06 1.146-7.905-2.702-1.266-3.01 1.607-5.858 1.304 0 0-5.087-1.933-6.919-3.256-3.374-1.837-8.08-4.01-9.155-5.211-3.428-.642-29.23-15.16-43.852-22.442-1.568-1.313-2.422-6.166-5.503-7.79-.904-1.312-20.694-10.347-31.04-15.52-3.814-1.425-5.949-2.401-8.697 2.28-2.398 4.59-1.815 7.094 5.435 10.236z" fill="#b34b00"/><path d="m400.52 148.76l30.458 15.208" fill="none"/><path d="m309.73 165.12c-.203.61-.712.203-.712.408-.405 2.135-.305 3.253-.813 4.475-.712 1.424-3.256 2.748-3.154 2.645-2.034.609-4.475 3.054-8.442.814-.204-.101-.406-.306-.61-.508 0 0 1.117 4.169-2.95 6.204-1.424.713-15.77 8.244-15.77 8.244s-1.526 2.748-.509 6.512c.103.61.305 1.118-.305 1.526-.916.71-2.646 2.748-3.662 6 0 0-3.053-1.324-3.053-3.256 0-1.934 1.221-2.951 1.526-4.378.304-1.321 1.117-4.679.712-5.698-.406-1.119-2.238-1.526-2.95-1.933-.61-.408-1.425.406-1.322 1.322.103 1.018.813.812 1.628 1.018 0 0-.916 1.932-.813 3.356l-9.258 4.783c0 0 1.22 1.626 1.627 2.34.405.712 1.321 10.175 4.069 14.653 2.747 4.477 3.663 3.256 4.273 3.866.508.508 1.321 1.321 2.034 1.934.712.508 3.865.811 4.477-.916.712-1.631 1.22-2.647 3.154-4.174 1.933-1.524 5.899-5.391 5.899-7.123 0 0 2.34 6.716 2.034 12.313 0 0 8.546 1.731 16.177 1.932 7.632.105 11.497-1.524 11.497-1.524s1.018-6.409.608-7.631c0 0 1.221 4.172 2.137 5.596 1.019 1.727 2.136 5.288 4.374 5.493 2.137.101 3.969-2.135 4.171-3.051v-6.716h8.647c0-.101 3.866 1.424 5.086 1.22 1.221-.102 1.933-1.22.813-1.628l-.405-.303c1.117 0 2.543.71 2.543.71h4.271c.103-.101 0-.408-.103-.508-.305-1.222-2.544-2.24-4.17-2.95-1.629-.609-3.459-1.324-4.681-1.424-1.932-.206-3.256-.101-6.206.408-.813.101-3.865.405-5.799 1.321-.509.306-1.019.406-.813-.916.306-1.426.204-7.835-1.32-10.583-1.12-1.932-1.018-3.562-.814-5.188.104-1.63.204-7.225 0-8.854-.306-1.627-2.544-3.867-6.611-4.375-3.866-.511-7.123-3.664-7.325-6.207-.305-2.542.408-7.223.814-9.257" fill="url(#0)"/><path d="m292.44 153.63c-.712 3.253-.712 6.104-.609 9.257.102 2.135 1.118 4.577 2.034 6.715.609 1.426 1.425 3.052 2.746 3.867 3.562 2.34 6.919-.203 8.852-1.017.916-.308 2.341-1.626 2.747-2.442.508-1.219.303-2.135.812-4.475-.103.1.813-.408.712-.408.916-1.526.712-2.034 1.221-3.054.509-1.018-.609-2.136-1.832-1.931.609-1.933 1.019-4.072.405-5.904-.202-.608.51-2.235-.608-1.832-4.579 1.832-9.97 1.426-14.854 1.426-.406 0-.712-.815-1.321-.71-.103 0-.204.303-.307.505" fill="url(#1)"/><path d="m292.03 155.35c-.508-.406-.61-1.319 0-3.256.712-1.929 0-2.034 1.119-3.153 1.12-1.12.814-1.629 1.526-1.932.712-.206 2.849-.206 3.562-.508.609-.308 1.525-.714 2.947-.916 1.526-.308 4.579-.206 6 .608 1.526.812 2.544 2.85 3.46 3.561 1.02.71 1.63 3.661 1.426 7.938-.307 4.272-1.12 3.458-1.12 3.458s-1.222-2.034-2.238-.308c0 0 0-1.626.204-2.848.102-1.219-.61-3.458.102-4.985 0 0-5.8 1.832-8.751 1.729-3.051-.202-7.322-.916-7.526-1.626l-.714 2.238"/></g><path d="m294.98 151.8c-.305-.61-1.832-2.85-.609-3.561 1.12-.612.406 2.745 1.935 3.458 0 0-.509 1.526-1.321.102l-.005.001z" fill="#fff" stroke="#fff"/><g fill="none" stroke="#000"><path d="m298.34 160.14c-.508 1.732-.712 2.138-.916 3.156"/><path d="m308.01 164.92c.204.61.404.303.914.405"/><path d="m309.33 161.36c.509-.609 1.221-.303.813 1.223"/><path d="m292.44 157.7c.916.303 1.832.608 2.748 1.02 1.526.61.61 2.845.204 4.271-.204.714-1.019 1.933-.609 2.546.508.811 1.119.303 2.035.403 0-.303.609-.508.813-.508.712-.1 1.12.508 1.627.308.61-.308.51-1.224.306-1.731"/><path d="m299.46 159.53c.102-.403 1.018-.811 1.526-.915 2.136-.405 3.661-.712 5.393.511"/><path d="m300.68 170.21c-1.729.408-3.561.71-5.188-.206"/><path d="m295.49 169.2c.813-.408 1.12-.816 2.137-.308 0-.101 1.12-.405 1.12-.405.812 0 1.322.304 2.136.812"/><path d="m295.39 169.6c.916-.306 3.358-.306 5.394.102"/></g></g><g stroke="#000"><g stroke-width=".305"><g fill="#fff"><path d="m292.34 160.14c.713-.1 1.526-.916 3.154.306 1.12.712-1.832 1.426-1.322 1.324-1.32.202-1.729-.508-1.828-1.122 0-.202-.204-.508 0-.508h-.004z"/><path d="m300.68 160.95c.712-1.426 1.832-1.119 2.849-.816 1.019.306.713.105 1.629.613-1.12.203-.814.303-1.629.71-.916.408-1.729.61-2.341.206-.204-.206-.712-.508-.712-.916-.001.101.102.203.204.203z"/></g><path d="m293.76 161.36c.406 0 .712-.406.712-.814 0-.508-.306-.916-.712-.916-.507 0-.812.408-.812.916 0 .408.303.814.812.814z"/><path d="m302.41 161.56c.405 0 .712-.403.712-.916 0-.508-.407-.811-.813-.811-.405 0-.712.303-.712.811-.001.514.407.916.813.916z"/></g><g fill="none" stroke-width=".509"><path d="m345.85 213.66c-.608-.714-1.018-1.02-1.83-1.324-.609-.303-1.424-.71-2.036-1.016-.712-.408-1.729-.508-2.34-.916"/><path d="m340.05 213.05c-.306-.203-.508-.304-.812-.51-.306-.101-.712-.101-1.02-.203-.102 0-.102-.204-.203-.204-.915-.102-1.831-.51-2.44-1.321"/><path d="m272.8 201.45c.914.71 3.152 2.24 3.356 5.19.204 1.525 1.019 3.051 1.019 3.051"/><path d="m264.05 201.86c.51 1.727.61 7.425 6 13.43"/><path d="m265.07 193.92c-.408 1.119-.916 2.137.202 2.951"/><path d="m279.72 207.56c1.12-2.545 4.578-2.342 4.578-4.782"/><path d="m284.81 207.25c-.306-2.849-.916-4.475-.405-8.647.203-1.223.405-5.9 0-8.141 0 0 1.629 7.833-3.662 9.363"/><path d="m315.13 212.34c0-3.97.916-6.209.916-6.209 1.221-5.593-1.119-7.731-.203-9.155.812-1.221 2.035-3.766.407-8.854 0 0 2.847 10.484-4.478 10.484-7.425 0-7.121-2.748-7.121-2.748"/><path d="m284.4 190.46c0 2.135 0 8.447 9.06 8.447 2.746 0 5.698-1.933 7.324-3.256"/><path d="m303.02 192.9c-.306-1.934-.306-4.375-.306-6.92"/><path d="m289.08 182.53c2.441-.308 4.376-.61 8.955-.61"/><path d="m298.34 175.6c.509 2.24-.304 5.8 3.866 6.309"/><path d="m306.58 174.79c-.61 1.629-.61 3.256-.814 4.375"/><path d="m305.97 181.92c1.73 0 4.985-1.121 9.05-.306"/><path d="m316.45 204.4c.813 1.63 1.018 3.765 3.561 6.207"/><path d="m288.27 199.21c.204 1.324-1.729 5.698-.306 9.262 1.322 3.559 1.12 7.631-1.12 11.09"/><path d="m293.46 200.54c-.813 1.626-2.238 3.256-2.544 4.68"/><path d="m297.52 203.59c0 1.018-2.744 8.749-4.68 10.886 0 0 3.561 1.424 3.051 6.614"/><path d="m303.22 200.03c0 1.324-.204 1.63.916 2.44"/><path d="m306.58 202.47c1.32 1.628 5.492 6.514 4.576 9.259"/><path d="m303.83 205.22c.306 1.018.306 6.309-.61 8.955"/><path d="m301.09 213.97c-1.12 0-2.746.814-3.052 2.747"/><path d="m306.78 213.66c1.118-.306 3.355 1.626 3.355 7.123"/><path d="m325.81 210.51c-2.136.61-3.052 1.732-2.44 1.119-1.12.916-2.138 1.526-2.138 1.526"/></g><g stroke-width=".305"><path d="m289.79 197.99c.608 0 1.118-.408 1.118-.916 0-.411-.507-.816-1.118-.816-.509 0-1.02.405-1.02.816 0 .505.508.916 1.02.916z"/><path d="m312.89 198.3c.51 0 1.02-.405 1.02-.916 0-.505-.508-.811-1.02-.811-.607 0-1.118.306-1.118.811-.001.511.51.916 1.118.916z"/></g><g stroke-width=".509"><path d="m280.54 239.81c1.22-7.937 4.985-14.551 5.086-15.16 0 0 3.865.816 10.58 1.424 6.612.71 8.444.408 11.496.202 2.949-.303 6.815-.811 6.815-.811s1.221 2.44 1.322 4.883c.305 5.188 2.236 27.677 2.439 33.679 0 0 .814 3.562.814 12.312 0 9.567 2.645 28.999 2.645 39.38l-2.645.51c0 0-14.446 1.119-14.446-.814 0-2.135-.813-27.07 1.322-42.13 0 0-.508-2.95-1.322-5.496-.813-2.442-4.375-10.07-4.375-11.698 0 0-5.695 16.07-6 18.824-.304 2.543-1.12 38.36-1.628 41.31 0 0-8.241 6.308-9.36 6.92-1.118.509-9.05-3.36-9.258-4.375-.306-1.118.814-13.229 4.578-33.18 1.425-7.123.61-8.44.61-10.375 0-1.934.103-27.474 1.322-35.412l.006-.002z" fill="#fff"/><g fill="none"><path d="m294.27 274.92c-.609 2.24-1.628 4.375-3.559 5.803"/><path d="m287.96 227.09c-.304 1.322-2.238 7.325-7.122 10.887"/><path d="m295.08 228.21c-1.12 3.562-5.493 22.693-6.309 45.38"/><path d="m288.47 280.72c-.204 2.135-1.322 18.01-1.628 20.756"/><path d="m286.03 304.53c-.509 1.117-2.746 10.375-2.746 18.619"/><path d="m315.53 287.23c-.204 1.933-1.019 15.668 3.561 27.98"/><path d="m300.58 229.23c-.305 2.237-.813 16.688-.813 17.806 0 1.117 1.628 2.747 2.441 3.054 0 0-1.628.509-1.933 6"/><path d="m296.2 243.17c-.308 1.727-1.934 8.547-3.054 11.295"/><path d="m306.27 229.03c0 0 4.884 1.018 5.188 0 0 0 1.628 29.512 3.866 45.891"/><path d="m304.14 232.79c0 1.934-.609 16.485-.609 16.485"/><path d="m305.97 251.41c0 0 1.931 2.745 1.425 4.066"/><path d="m289.59 227.4c1.629.508 3.053.812 3.053.812"/><path d="m297.83 229.84c-.307.814-.61 4.58-.61 4.58"/><path d="m305.97 273.29c.61.814 1.425 1.936.814 4.377"/></g><path d="m284.91 224.45c0 0 0-3.256 1.22-4.886 0 0 3.457.714 8.342 1.222 4.984.508 8.951.916 12.615.508 3.663-.406 7.428-1.322 7.428-1.322s1.017 4.784.506 5.496c0 0-3.968.814-8.341 1.016-4.477.303-11.902-.408-14.445-.812-3.359-.408-6.31-1.02-7.325-1.222z" fill="#9b5f00"/><g fill="#fff"><path d="m288.06 224.85l.608-4.883 1.019.1-.203 5.088-1.424-.305"/><path d="m310.14 220.78l.103 5.496 1.221-.206-.102-5.597-1.222.307"/><path d="m294.47 220.78l-.406 5.291h.713l.712-5.291h-1.019"/></g><g fill="#ffa54b"><path d="m276.77 320.81c-.305 1.322-.812 3.154-1.018 5.496 0 .508-.507 3.256 1.018 3.356 1.12.103 1.425-2.849 1.425-2.849s-1.019 3.256.305 3.664c1.832.403 2.034-3.562 2.034-3.562-.204 1.119-1.425 3.969.306 4.271 1.831.307 2.339-3.867 2.339-3.867s-1.525 4.174.305 4.275c1.729.1 1.729-4.072 1.729-4.072s-.916 4.988 1.526 4.58c1.321-.203 1.628-1.934 1.933-2.951.406-1.524 1.322-3.457.204-6.612-.812-2.341-.507-2.951-.507-2.951s-2.85 2.138-5.087 3.562c-1.019.609-6.514-2.34-6.514-2.34h.002z"/><path d="m306.48 316.43c-.508-.307-.406 1.832-.609 2.846-.103 1.021.204 3.257 3.663 3.055 3.355-.307 6.715-1.018 8.851-.509 2.137.61 5.289.711 7.02.711 1.729 0 2.849-.202 3.661-.509.713-.303 2.238.408 2.95.408.713 0 1.831-1.119 1.73-1.832-.103-1.324-1.322-1.324-3.054-1.424-1.628-.203-3.865-.511-4.983-.916-1.12-.408-3.154-1.527-5.698-2.035 0 0-4.883.205-5.898.205-1.019 0-7.02.303-7.634 0z"/></g><path d="m255.71 189.85c-.507.306-1.12-2.035.406-2.951 0 0 .406-1.931 2.035-2.136 0 0 1.321-1.832 3.257-1.626 0 0 2.235-1.525 3.051-1.324.812.102 2.849 2.136 2.95 2.85.204.711 0 1.933-.511 2.442-.609.608-1.018-.102-1.119-.916 0 0 .407 1.524-.813 2.135-1.219.714-1.119.206-1.219-.61 0 0-.308 1.63-1.12 1.832-.814.305-1.322-.408-1.935-.408 0 0 1.019.816.307 1.426-.713.508-1.526.303-2.036-.102-.509-.508-1.12-1.832-3.257-.61l.004-.002z" fill="#ffb366"/><g fill="none"><path d="m265.68 186.09c-.51-1.629-2.137-3.054-4.069-2.848"/><path d="m263.85 187.61c-.306-.408-.408-.816-.712-1.22-.916-1.528-2.849-1.424-4.477-1.832"/><path d="m261.1 189.14c-.609-.406-.813-1.222-1.425-1.524-1.018-.408-2.034-.916-3.255-.714"/></g><path d="m439.14 165.12c.712-.306.51.61.61.916.306 1.321.306 2.748.813 3.967.608 1.119.812 1.526 1.83 2.035 1.627.916 6.407 3.562 9.767 1.424.204-.101.508-.306.712-.508 0 0-1.221 4.172 2.95 6.207 1.321.71 15.668 8.241 15.668 8.241s1.525 2.748.609 6.512c-.204.61-.405 1.118.204 1.526 1.019.71 2.644 2.748 3.766 6 0 0 2.947-1.324 2.947-3.256 0-1.934-1.219-2.951-1.525-4.375-.202-1.324-1.017-4.682-.608-5.698.405-1.118 2.135-1.526 2.847-1.936.714-.408 1.526.406 1.322 1.322-.102 1.018-.812.816-1.628 1.018 0 0 1.02 1.932.814 3.356l9.358 4.783c0 0-1.221 1.629-1.628 2.34-.509.715-1.425 10.175-4.171 14.653-2.748 4.477-3.663 3.256-4.171 3.866-.61.508-1.424 1.324-2.137 1.934-.608.508-3.764.814-4.476-.916-.712-1.628-1.221-2.647-3.153-4.174-1.934-1.524-5.9-5.391-5.9-7.123 0 0-2.341 6.719-2.035 12.313 0 0-8.443 1.731-16.18 1.936-7.631.102-11.497-1.528-11.497-1.528s-1.018-6.409-.61-7.631c0 0-1.22 4.172-2.033 5.596-1.118 1.727-2.236 5.291-4.375 5.493-2.236.104-3.968-2.135-4.271-3.051v-6.716h-8.646c0-.101-3.766 1.424-5.087 1.223-1.221-.105-1.832-1.223-.813-1.631l.407-.303c-1.119 0-2.544.71-2.544.71h-4.272c0-.101.103-.408.103-.508.307-1.219 2.545-2.24 4.272-2.95 1.628-.609 3.356-1.324 4.578-1.424 1.933-.203 3.256-.101 6.206.408.812.101 3.967.408 5.798 1.322.508.304 1.118.405.813-.915-.305-1.426-1.221-5.598.307-8.346 1.018-1.933.916-3.559.813-5.189-.204-1.729-1.118-5.598-1.118-7.325 0-5.699 4.375-8.04 8.24-9.262 4.272-1.319 7.121-2.748 6.92-5.288-.104-2.646.608-7.02.202-9.06" fill="url(#2)"/><path d="m456.34 153.63c.916 3.356 1.12 4.169 1.12 5.291 0 1.219-.509 1.424-.104 2.748.713 2.441-.712 5.088-2.441 7.937-.813 1.32-1.424 3.052-2.746 3.866-3.356 2.135-7.427-.408-9.563-1.327-1.117-.505-1.729-1.319-2.033-2.135-.407-1.219-.509-2.34-.813-3.967 0-.306.103-1.219-.609-.916-1.22-1.424-1.018-2.034-1.524-3.051-.509-1.021.916-2.139 2.034-1.934-.61-1.933-.916-4.072-.306-5.904.204-.608-.508-2.235.51-1.832 4.577 1.832 9.969 1.426 14.854 1.426.404 0 .71-.812 1.32-.71.098-.001.2.305.301.508" fill="url(#3)"/><path d="m456.75 155.35c.508-.406.204-2.34-.306-4.375-.203-1.017-1.018-1.424-2.136-2.542-1.12-1.122-1.525-1.122-2.236-1.424-.609-.206-2.034-.206-2.746-.508-.61-.308-2.238-.105-3.766.101-2.036.304-3.153.202-4.679 1.018-1.526.814-2.746 1.73-3.256 3.256-.406 1.118-1.12 2.542-.814 6.817.204 4.272 1.019 3.458 1.019 3.458s1.12-1.628 1.832-.61c0 0-.103-2.24-.305-3.561-.103-1.222 0-2.748.509-4.58 0 0 4.679 1.732 9.05 1.732 3.053 0 7.02-.306 7.123-1.017l.71 2.235h-.003z"/><g fill="none"><path d="m450.44 160.14c.61 1.732.104 1.222.408 2.34"/><path d="m440.57 164.51c0 .812-.61.61-1.019.61"/><path d="m456.85 158.82c-.916-.713-2.645-.204-3.46.102-1.525.71-.712 2.24-.204 3.664.204.71 1.02 1.727.511 2.441-.407.812-.713.408-1.629.51.104-.308-.812 0-1.117 0-.61-.102-.916.403-1.426.202-.608-.304-.508-1.22-.306-1.729"/><path d="m449.32 159.53c0-.403-1.321-.811-2.745-.915-2.238-.102-2.442.104-4.172 1.322"/><path d="m453.9 168.89c-.405-.608-1.018-.916-2.137-.405 0-.204-1.524-.406-1.524-.406-.812 0-1.321.303-2.136.71"/><path d="m453.69 169.4c-.916-.609-3.256-.201-5.596-.201"/><path d="m448.3 170.01c1.73.512 3.46.816 5.188 0"/></g></g><g stroke-width=".305"><g fill="#fff"><path d="m456.44 160.14c-.712-.1-1.018-.916-3.153.306-1.119.61 1.832 1.426 1.425 1.324 1.22.202 1.628-.508 1.729-1.122-.001-.203.203-.508-.001-.508z"/><path d="m448.1 160.95c0-.816-1.829-1.119-2.847-.816-1.019.306-.61.105-1.526.613 1.02.203.712.303 1.526.71.914.408 1.12.814 2.339.206.306-.105.712-.508.813-.916-.101.101-.202.203-.305.203z"/></g><path d="m455.12 161.36c-.508 0-.813-.406-.813-.814 0-.508.307-.916.813-.916.405 0 .712.408.712.916 0 .408-.307.814-.712.814z"/><path d="m446.37 161.56c-.406 0-.712-.403-.712-.916 0-.508.403-.811.812-.811s.712.303.712.811c0 .514-.303.916-.812.916z"/></g><g fill="none" stroke-width=".509"><path d="m402.97 213.66c.608-.714 1.018-1.02 1.83-1.324.609-.303 1.424-.71 2.036-1.016.712-.408 1.729-.508 2.34-.916"/><path d="m408.77 213.05c.306-.203.508-.304.812-.51.306-.101.712-.101 1.02-.203.102 0 .102-.204.203-.204.915-.102 1.831-.51 2.44-1.321"/><path d="m476.02 201.45c-.914.71-3.152 2.24-3.356 5.19-.204 1.525-1.019 3.051-1.019 3.051"/><path d="m484.77 201.86c-.51 1.727-.61 7.425-6 13.43"/><path d="m483.75 193.92c.408 1.119.916 2.137-.202 2.951"/><path d="m469.1 207.56c-1.12-2.545-4.578-2.342-4.578-4.782"/><path d="m464.01 207.25c.306-2.849.916-4.475.405-8.647-.203-1.223-.405-5.9 0-8.141 0 0-1.629 7.833 3.662 9.363"/><path d="m433.69 212.34c0-3.97-.916-6.209-.916-6.209-1.221-5.593 1.119-7.731.203-9.155-.812-1.221-2.035-3.766-.407-8.854 0 0-2.847 10.484 4.478 10.484 7.425 0 7.121-2.748 7.121-2.748"/><path d="m464.42 190.46c0 2.135 0 8.447-9.06 8.447-2.746 0-5.698-1.933-7.324-3.256"/><path d="m445.8 192.9c.306-1.934.306-4.375.306-6.92"/><path d="m459.74 182.53c-2.441-.308-4.376-.61-8.955-.61"/><path d="m450.48 175.6c-.509 2.24.304 5.8-3.866 6.309"/><path d="m442.24 174.79c.61 1.629.61 3.256.814 4.375"/><path d="m442.85 181.92c-1.73 0-4.985-1.121-9.05-.306"/><path d="m432.37 204.4c-.813 1.63-1.018 3.765-3.561 6.207"/><path d="m460.55 199.21c-.204 1.324 1.729 5.698.306 9.262-1.322 3.559-1.12 7.631 1.12 11.09"/><path d="m455.36 200.54c.813 1.626 2.238 3.256 2.544 4.68"/><path d="m451.3 203.59c0 1.018 2.744 8.749 4.68 10.886 0 0-3.561 1.424-3.051 6.614"/><path d="m445.6 200.03c0 1.324.204 1.63-.916 2.44"/><path d="m442.24 202.47c-1.32 1.628-5.492 6.514-4.576 9.259"/><path d="m444.99 205.22c-.306 1.018-.306 6.309.61 8.955"/><path d="m447.73 213.97c1.12 0 2.746.814 3.052 2.747"/><path d="m442.04 213.66c-1.118-.306-3.355 1.626-3.355 7.123"/><path d="m423.01 210.51c2.136.61 3.052 1.732 2.44 1.119 1.12.916 2.138 1.526 2.138 1.526"/></g><g stroke-width=".305"><path d="m459.03 197.99c-.608 0-1.118-.408-1.118-.916 0-.411.507-.816 1.118-.816.509 0 1.02.405 1.02.816 0 .505-.508.916-1.02.916z"/><path d="m435.93 198.3c-.51 0-1.02-.405-1.02-.916 0-.505.508-.811 1.02-.811.607 0 1.118.306 1.118.811.001.511-.51.916-1.118.916z"/></g><g stroke-width=".509"><path d="m468.28 239.81c-1.22-7.937-4.985-14.551-5.086-15.16 0 0-3.865.816-10.58 1.424-6.612.71-8.444.408-11.496.202-2.949-.303-6.815-.811-6.815-.811s-1.221 2.44-1.322 4.883c-.305 5.188-2.236 27.677-2.439 33.679 0 0-.814 3.562-.814 12.312 0 9.567-2.645 28.999-2.645 39.38l2.645.51c0 0 14.446 1.119 14.446-.814 0-2.135.813-27.07-1.322-42.13 0 0 .508-2.95 1.322-5.496.813-2.442 4.375-10.07 4.375-11.698 0 0 5.695 16.07 6 18.824.304 2.543 1.12 38.36 1.628 41.31 0 0 8.241 6.308 9.36 6.92 1.118.509 9.05-3.36 9.258-4.375.306-1.118-.814-13.229-4.578-33.18-1.425-7.123-.61-8.44-.61-10.375 0-1.934-.103-27.474-1.322-35.412l-.006-.002z" fill="#fff"/><g fill="none"><path d="m454.55 274.92c.609 2.24 1.628 4.375 3.559 5.803"/><path d="m460.86 227.09c.304 1.322 2.238 7.325 7.122 10.887"/><path d="m453.74 228.21c1.12 3.562 5.493 22.693 6.309 45.38"/><path d="m460.35 280.72c.204 2.135 1.322 18.01 1.628 20.756"/><path d="m462.79 304.53c.509 1.117 2.746 10.375 2.746 18.619"/><path d="m433.29 287.23c.204 1.933 1.019 15.668-3.561 27.98"/><path d="m448.24 229.23c.305 2.237.813 16.688.813 17.806 0 1.117-1.628 2.747-2.441 3.054 0 0 1.628.509 1.933 6"/><path d="m452.62 243.17c.308 1.727 1.934 8.547 3.054 11.295"/><path d="m442.55 229.03c0 0-4.884 1.018-5.188 0 0 0-1.628 29.512-3.866 45.891"/><path d="m444.68 232.79c0 1.934.609 16.485.609 16.485"/><path d="m442.85 251.41c0 0-1.931 2.745-1.425 4.066"/><path d="m459.23 227.4c-1.629.508-3.053.812-3.053.812"/><path d="m450.99 229.84c.307.814.61 4.58.61 4.58"/><path d="m442.85 273.29c-.61.814-1.425 1.936-.814 4.377"/></g><path d="m463.91 224.45c0 0 0-3.256-1.22-4.886 0 0-3.457.714-8.342 1.222-4.984.508-8.951.916-12.615.508-3.663-.406-7.428-1.322-7.428-1.322s-1.017 4.784-.506 5.496c0 0 3.968.814 8.341 1.016 4.477.303 11.902-.408 14.445-.812 3.359-.408 6.31-1.02 7.325-1.222z" fill="#9b5f00"/><g fill="#fff"><path d="m460.76 224.85l-.608-4.883-1.019.1.203 5.088 1.424-.305"/><path d="m438.68 220.78l-.103 5.496-1.221-.206.102-5.597 1.222.307"/><path d="m454.35 220.78l.406 5.291h-.713l-.712-5.291h1.019"/></g><g fill="#730000"><path d="m472.05 320.81c.305 1.322.812 3.154 1.018 5.496 0 .508.507 3.256-1.018 3.356-1.12.103-1.425-2.849-1.425-2.849s1.019 3.256-.305 3.664c-1.832.403-2.034-3.562-2.034-3.562.204 1.119 1.425 3.969-.306 4.271-1.831.307-2.339-3.867-2.339-3.867s1.525 4.174-.305 4.275c-1.729.1-1.729-4.072-1.729-4.072s.916 4.988-1.526 4.58c-1.321-.203-1.628-1.934-1.933-2.951-.406-1.524-1.322-3.457-.204-6.612.812-2.341.507-2.951.507-2.951s2.85 2.138 5.087 3.562c1.019.609 6.514-2.34 6.514-2.34h-.002z"/><path d="m442.34 316.43c.508-.307.406 1.832.609 2.846.103 1.021-.204 3.257-3.663 3.055-3.355-.307-6.715-1.018-8.851-.509-2.137.61-5.289.711-7.02.711-1.729 0-2.849-.202-3.661-.509-.713-.303-2.238.408-2.95.408-.713 0-1.831-1.119-1.73-1.832.103-1.324 1.322-1.324 3.054-1.424 1.628-.203 3.865-.511 4.983-.916 1.12-.408 3.154-1.527 5.698-2.035 0 0 4.883.205 5.898.205 1.019 0 7.02.303 7.634 0z"/><path d="m491.64 193.51c.508.206 1.934-2.033.508-3.051 0 0-.508-1.932-2.136-2.034 0 0-1.322-1.933-3.257-1.63 0 0-2.136-1.524-2.948-1.421-.916.202-2.951 2.237-3.053 2.95-.102.609 0 1.832.508 2.441.61.51 1.02-.104 1.119-1.02 0 0-.405 1.529.813 2.24 1.221.71 1.119.1 1.221-.71 0 0 .306 1.626 1.12 1.932.812.303 1.321-.408 1.934-.408 0 0-1.018.815-.305 1.324.713.61 1.525.303 2.035-.104.61-.404.306-1.727 2.441-.509z"/></g><g fill="none"><path d="m482.49 189.75c.506-1.73 2.235-3.153 4.067-2.849"/><path d="m484.42 191.28c.203-.411.305-.816.61-1.224.915-1.524 2.948-1.524 4.576-1.832"/><path d="m487.06 192.7c.61-.408.814-1.118 1.426-1.421 1.018-.512 2.136-.916 3.256-.714"/></g></g></g><path d="m482.31 186.77c-.896.716-1.837 1.798-1.906 2.281-.103.61-.008 1.827.5 2.438.551.461.949-.017 1.095-.781-.059.463-.071 1.465.844 2 1.22.71 1.118.095 1.219-.719 0 0 .312 1.635 1.125 1.938.813.306 1.325-.406 1.938-.406 0 0-1.026.804-.312 1.312.712.61 1.522.309 2.031-.094.61-.408.3-1.722 2.438-.5.267.106.804-.452 1.031-1.156l-7.688-5.531-2.315-.782" fill="#730000"/><g fill="none" stroke="#000" stroke-width=".509"><path d="m480.68 188.19c-1.502 2.582.5 4.132 1.164 2.619-.193 2.386 1.606 2.292 2.285 1.538.658 2.512 1.83 1.395 2.909 1.164-1.223 2.29 1.479 1.609 2.12 1.081.924-1.362 1.356-.277 2.036-.416l1.164-1.247"/><path d="m484.38 187.23c-1.686.896-2.512 2.137-2.535 3.699"/><path d="m486.71 188.73c-1.687.896-2.512 2.137-2.535 3.699"/><path d="m489.58 190.68c-1.687.897-1.765 1.722-2.493 2.826"/></g><g fill="#5ac800"><path d="m290.1 323.66l-.204-4.68 1.934 1.629.508-3.562c.813-.206 2.137 1.426 2.137 1.426l-.204-3.564 2.95 3.257c0 0-.203-2.748.812-4.377 0 0 2.237 1.935 2.237 4.172 0 1.938 1.934-2.748 1.934-2.748.509 1.63 1.628 5.19 1.628 5.19l1.321-1.934 1.12 4.07 2.442-3.562 1.931 4.174 4.375-.307.509 2.439 1.933-2.135 2.544 1.627c0 0 2.137-.609 3.256-.609s2.442 1.426 2.442 1.426.813-1.426 1.628-1.938c.812-.506 1.935.816 2.236 1.63l1.629-2.95c0 0 2.137 2.137 2.441 2.95 0 0 .304-2.44.813-3.257.51-.813 1.321.307 1.933 1.324l1.322-4.375c0 0 1.425.303 2.441 1.934 1.117 1.626 1.117-2.441 1.117-2.441s2.441 3.256 3.052 5.493c0 0-16.846 5.784-28.726 4.203-13.983-1.862-25.501-4.507-25.501-4.507"/><path d="m405.57 323.15c0 0 .813-2.239 1.935-3.36 0 0 2.136 2.546 2.136 3.36 0 0 .608-.305 1.729-1.121l1.628 1.627 1.935-1.32 1.832 1.626 3.356-1.424 1.322 1.424 5.188-.606 1.933.812 1.832-2.341 1.73 1.832 2.746-2.748c0 0 1.322 1.118 1.628 1.935 0 0 2.238-1.117 2.747-1.935 0 0 2.136-.813 2.44.509 0 0 1.322-1.018 1.222-2.135-.102-1.118 1.525-.307 2.034 1.117 0 0 .609-2.235 2.236-2.44 0 0 1.118 1.319.813 3.767 0 0 2.441-1.938 3.561-2.141 0 0 .508 2.748-.305 5.193 0 0 2.543-4.174 3.053-2.748.204.812.814 3.561.204 5.492l2.238-1.424.812 2.748 2.44-.509c0 0-14.442 2.212-28.05.914-13.607-1.298-26.376-6.104-26.375-6.104"/><path d="m395.51 333.25c.661-.408-4.546 10.708-17.17 11.299-17.563.823-32.577-7.94-32.577-7.94s1.832-3.051 2.949-3.867c0 0 2.441 1.936 3.256 4.375 0 0 .306-1.627 1.12-3.051 0 0 3.052 1.422 3.561 3.358 0 0 1.12-1.935 1.934-2.442.812-.612 1.628 2.135 1.628 3.766 0 0 1.932-2.038 3.052-2.139 0 0 2.137 1.017 2.747 4.58 0 0 2.035-1.933 2.746-1.631 0 0 2.442 1.631 1.83 3.867-.304 1.223 2.442-1.421 5.801-2.236l2.949 2.236c0 0 2.746-3.66 3.561-4.885 0 0 2.238.816 2.238 2.141 0 0 1.019-3.869 1.832-4.275.812-.508 1.931 1.22 1.931 2.342 0 0 .307-2.952 1.935-3.562 0 0 1.628 1.118 1.628 2.24-.003-.002 1.726-3.36 3.049-4.176"/></g><g fill="none" stroke="#060" stroke-width=".509"><path d="m290.1 323.66l-.204-4.68 1.934 1.629.508-3.562c.813-.203 2.137 1.426 2.137 1.426l-.204-3.561 2.95 3.256c0 0-.203-2.748.812-4.375 0 0 2.237 1.934 2.237 4.172 0 1.936 1.934-2.748 1.934-2.748.509 1.631 1.628 5.191 1.628 5.191l1.321-1.936 1.119 4.069 2.441-3.56 1.933 4.172 4.375-.307.509 2.443 1.933-2.137 2.544 1.629c0 0 2.135-.609 3.255-.609s2.442 1.422 2.442 1.422.812-1.422 1.628-1.931c.812-.509 1.933.812 2.235 1.626l1.629-2.949c0 0 2.137 2.137 2.441 2.949 0 0 .305-2.439.814-3.256.51-.812 1.321.307 1.933 1.324l1.322-4.375c0 0 1.424.303 2.44 1.933 1.12 1.626 1.12-2.444 1.12-2.444s2.44 3.258 3.054 5.495"/><path d="m405.57 323.15c0 0 .812-2.235 1.933-3.356 0 0 2.136 2.545 2.136 3.356 0 0 .61-.305 1.73-1.117l1.628 1.626 1.933-1.32 1.832 1.627 3.358-1.424 1.319 1.424 5.188-.608 1.935.812 1.83-2.337 1.73 1.828 2.746-2.744c0 0 1.322 1.115 1.628 1.932 0 0 2.238-1.119 2.747-1.932 0 0 2.135-.814 2.439.505 0 0 1.322-1.017 1.221-2.135-.103-1.118 1.525-.304 2.034 1.122 0 0 .609-2.24 2.238-2.445 0 0 1.118 1.323.812 3.766 0 0 2.441-1.932 3.561-2.137 0 0 .509 2.745-.304 5.189 0 0 2.544-4.172 3.052-2.747.204.812.814 3.562.204 5.493l2.238-1.424.813 2.748 2.44-.51"/><path d="m345.68 336.63c0 0 1.832-3.051 2.949-3.866 0 0 2.442 1.934 3.256 4.375 0 0 .308-1.627 1.12-3.051 0 0 3.053 1.42 3.561 3.357 0 0 1.12-1.934 1.934-2.441.813-.613 1.628 2.135 1.628 3.764 0 0 1.933-2.037 3.053-2.138 0 0 2.136 1.017 2.746 4.58 0 0 2.036-1.933 2.746-1.63 0 0 2.442 1.63 1.831 3.867-.305 1.221 2.442-1.422 5.8-2.237l2.949 2.237c0 0 2.746-3.662 3.561-4.885 0 0 2.238.814 2.238 2.139 0 0 1.019-3.869 1.832-4.273.812-.508 1.931 1.219 1.931 2.34 0 0 .307-2.951 1.936-3.562 0 0 1.628 1.118 1.628 2.239 0 0 1.729-3.356 3.052-4.174"/></g><g fill="#fff"><path d="m374.44 376.98c22.892.205 36.424-8.141 43.851-13.13 17.396-11.699 21.06-12.11 23.908-11.906 3.257.309 8.04 1.427 8.24 4.277.306 4.375-6.815 6.307-10.886 6.307-4.17 0-15.06-2.748-15.06-2.748l-2.85 1.936c1.934.916 24.21 8.342 28.488 1.323 4.372-7.122 8.749-18.622 8.749-18.622s-4.883-8.751-15.771-8.751c-10.987 0-21.671 6.922-28.791 12.11-7.123 5.19-16.07 12.312-39.883 12.312-23.807 0-32.86-7.122-39.981-12.312-7.121-5.188-17.805-12.11-28.689-12.11-10.987 0-15.872 8.751-15.872 8.751s4.374 11.5 8.749 18.622c4.272 7.02 26.555-.407 28.485-1.323l-2.746-1.936c0 0-10.987 2.748-15.06 2.748-4.171 0-11.293-1.932-10.987-6.307.204-2.85 4.984-3.97 8.241-4.277 2.848-.201 6.511.207 23.907 11.906 7.431 4.986 20.962 13.02 43.954 13.13"/><path d="m337.61 350.01c0 0 0-1.938-.308-4.783-.406-3.664-2.542-4.58-4.271-4.071-1.118.403-3.356 3.155-3.356 3.155v.103c-1.018-.715-2.034-1.323-3.154-1.935.814-.916 5.494-3.764 6.613-3.764 1.019 0 15.06 5.697 19.532 9.562 1.12 1.021 1.935 7.328 1.322 9.361-7.528-1.933-12.411-4.781-16.381-7.529v-.102"/><path d="m330.89 364.26c0 0-3.053 3.051-3.153 8.648-.104 6.613 4.68 6.92 7.833 6.816 3.765-.104 6.815-2.238 6.715-9.259 0 0-6.207-2.647-11.396-6.207"/><path d="m411.17 350.01c0 0 .103-1.938.408-4.783.403-3.664 2.44-4.58 4.17-4.071 1.119.403 3.356 3.155 3.356 3.155v.103c1.017-.715 2.032-1.323 3.152-1.935-.812-.916-5.491-3.764-6.51-3.764-1.118 0-15.16 5.697-19.634 9.562-1.02 1.021-1.832 7.328-1.322 9.361 7.631-1.933 12.411-4.781 16.38-7.529v-.102"/><path d="m417.88 364.26c0 0 3.053 3.051 3.154 8.648.204 6.613-4.682 6.92-7.833 6.816-3.766-.104-6.715-2.238-6.715-9.259 0 0 6.207-2.647 11.396-6.207"/></g><g fill="#69f"><path d="m324.28 359.78c0 0-10.887 2.748-14.956 2.748-4.17 0-11.293-1.93-10.987-6.308.204-2.85 4.985-3.967 8.241-4.272 2.441-.207 5.595.101 17.702 7.832"/><path d="m424.5 359.78c0 0 10.885 2.748 15.06 2.748 4.07 0 11.191-1.93 10.885-6.308-.202-2.85-4.983-3.967-8.239-4.272-2.444-.207-5.598.101-17.704 7.832"/><path d="m337.61 350.11c-1.119-.814-2.238-1.631-3.258-2.441-1.525-1.121-3.052-2.139-4.681-3.256 0 0 2.238-2.85 3.357-3.156 1.729-.609 3.865.303 4.271 3.967.306 2.85.306 4.887.306 4.887"/><path d="m330.18 378.81c1.936 1.121 4.07 1.02 5.394.916 3.765-.102 6.816-2.238 6.715-9.258 0 0 4.678 2.34 12.309 4.172 0 0 1.222 1.525 1.424 4.576.308 2.547-1.424 5.291-3.457 5.09 0 0-10.683-1.934-17.192-3.051-3.766-.711-5.189-2.443-5.189-2.443"/><path d="m411.17 350.11c1.118-.814 2.238-1.631 3.355-2.441 1.426-1.121 2.95-2.139 4.579-3.256 0 0-2.237-2.85-3.356-3.156-1.729-.609-3.765.303-4.17 3.967-.307 2.847-.408 4.886-.408 4.886"/><path d="m418.59 378.81c-1.933 1.121-4.07 1.02-5.393.916-3.765-.102-6.715-2.238-6.715-9.258 0 0-4.681 2.34-12.209 4.172 0 0-1.322 1.525-1.526 4.576-.204 2.547 1.526 5.291 3.459 5.09 0 0 10.783-1.934 17.193-3.051 3.765-.711 5.188-2.443 5.188-2.443"/></g><g fill="none" stroke-width=".712"><g stroke="#000"><path d="m374.44 376.98c22.893.203 36.424-8.143 43.851-13.13 17.396-11.701 21.06-12.11 23.907-11.904 3.257.305 8.04 1.425 8.24 4.273.307 4.375-6.815 6.307-10.887 6.307-4.17 0-15.06-2.743-15.06-2.743l-2.848 1.934c1.934.916 24.21 8.343 28.485 1.32 4.375-7.122 8.748-18.619 8.748-18.619s-4.883-8.754-15.77-8.754c-10.986 0-21.669 6.922-28.792 12.11-7.121 5.189-16.07 12.312-39.881 12.312-23.807 0-32.859-7.123-39.981-12.312-7.121-5.188-17.806-12.11-28.69-12.11-10.986 0-15.87 8.754-15.87 8.754s4.373 11.497 8.749 18.619c4.273 7.02 26.555-.404 28.486-1.32l-2.745-1.934c0 0-10.989 2.743-15.06 2.743-4.173 0-11.294-1.928-10.989-6.307.204-2.85 4.984-3.967 8.241-4.273 2.847-.202 6.509.205 23.907 11.904 7.429 4.988 20.96 13.03 43.952 13.13z"/><path d="m324.28 359.78c0 0-10.888 2.748-14.954 2.748-4.172 0-11.293-1.933-10.989-6.308.204-2.85 4.985-3.97 8.241-4.272 2.439-.207 5.595.101 17.702 7.832z"/><path d="m424.49 359.78c0 0 10.887 2.748 15.06 2.748 4.069 0 11.191-1.933 10.886-6.308-.204-2.85-4.983-3.97-8.238-4.272-2.442-.207-5.598.102-17.702 7.832h-.004z"/><path d="m337.61 350.11c-1.12-.814-2.238-1.631-3.258-2.441-1.523-1.121-3.051-2.139-4.679-3.256 0 0 2.238-2.85 3.356-3.156 1.729-.609 3.865.303 4.271 3.971.31 2.843.31 4.882.31 4.882z"/><path d="m337.61 350.01c0 0 0-1.936-.308-4.783-.404-3.664-2.542-4.58-4.271-4.071-1.12.407-3.358 3.155-3.358 3.155v.103c-1.018-.712-2.036-1.323-3.154-1.935.814-.916 5.494-3.764 6.614-3.764 1.02 0 15.06 5.697 19.533 9.565 1.12 1.019 1.933 7.325 1.322 9.362-7.529-1.937-12.413-4.785-16.383-7.53"/><path d="m330.89 364.26c0 0-3.051 3.051-3.152 8.648-.103 6.609 4.679 6.918 7.833 6.816 3.765-.104 6.814-2.238 6.717-9.263 0 0-6.207-2.646-11.396-6.207l-.002.006z"/><path d="m333.44 365.78c0 0-2.439 2.543-2.847 6.715-.204 3.257 1.932 5.086 4.679 4.883 3.866-.201 5.394-5.492 3.562-8.443l-5.394-3.155"/><path d="m330.18 378.81c1.934 1.119 4.068 1.018 5.392.916 3.765-.104 6.814-2.24 6.717-9.26 0 0 4.679 2.34 12.31 4.172 0 0 1.222 1.525 1.423 4.58.307 2.543-1.423 5.291-3.456 5.086 0 0-10.685-1.934-17.194-3.051-3.768-.715-5.192-2.443-5.192-2.443z"/><path d="m411.17 350.11c1.12-.814 2.238-1.631 3.357-2.441 1.425-1.121 2.95-2.139 4.578-3.256 0 0-2.237-2.85-3.357-3.156-1.729-.609-3.765.303-4.17 3.971-.306 2.846-.406 4.883-.406 4.883l-.002-.001z"/><path d="m411.17 350.01c0 0 .103-1.936.408-4.783.405-3.664 2.44-4.58 4.17-4.071 1.12.407 3.356 3.155 3.356 3.155v.103c1.019-.712 2.035-1.323 3.154-1.935-.814-.916-5.493-3.764-6.512-3.764-1.119 0-15.16 5.697-19.634 9.565-1.02 1.019-1.832 7.325-1.322 9.362 7.631-1.937 12.411-4.785 16.38-7.53"/><path d="m417.88 364.26c0 0 3.053 3.051 3.154 8.648.204 6.609-4.682 6.918-7.835 6.816-3.764-.104-6.713-2.238-6.713-9.263 0 0 6.205-2.646 11.394-6.207v.006z"/><path d="m415.34 365.78c0 0 2.442 2.543 2.849 6.715.307 3.257-1.935 5.086-4.681 4.883-3.865-.201-5.289-5.492-3.561-8.443l5.393-3.155"/><path d="m418.59 378.81c-1.933 1.119-4.07 1.018-5.393.916-3.764-.104-6.713-2.24-6.713-9.26 0 0-4.682 2.34-12.208 4.172 0 0-1.322 1.525-1.526 4.58-.203 2.543 1.526 5.291 3.459 5.086 0 0 10.785-1.934 17.192-3.051 3.766-.715 5.189-2.443 5.189-2.443z"/></g><g stroke="#fff"><path d="m353.79 376.47c0 0 3.357 2.445-.712 5.496"/><path d="m343.72 374.84l10.275 4.478"/><path d="m345.44 377.18l7.526 3.254"/><path d="m348.09 375.25l5.697 2.547"/><path d="m395.09 376.47c0 0-3.46 2.445.61 5.496"/><path d="m405.06 374.84l-10.276 4.478"/><path d="m403.43 377.18l-7.527 3.254"/><path d="m400.69 375.25l-5.596 2.547"/></g></g><g stroke="#000"><g stroke-width=".7"><path d="m313.56 345.17c.146.236.239.483.285.736.039.258.029.547-.03.865-.145.756-.55 1.322-1.206 1.712-.66.388-1.417.495-2.254.335-.389-.072-.771-.206-1.132-.402-.362-.19-.675-.395-.924-.619-.112.132-.23.259-.348.392-.163-.03-.326-.062-.488-.093.157-.985.312-1.971.475-2.954.161.03.327.062.495.096.031.382.093.728.174 1.048.076.321.208.623.384.924.167.276.378.516.639.709.255.194.572.33.946.399.282.056.534.065.763.031.221-.034.415-.101.565-.211.153-.109.284-.248.384-.416.096-.164.165-.36.211-.601.064-.344.023-.68-.112-1.014-.135-.336-.393-.613-.748-.839-.241-.153-.528-.331-.846-.524-.319-.195-.593-.361-.821-.527-.445-.311-.777-.661-.976-1.073-.204-.403-.257-.888-.148-1.457.062-.325.188-.612.377-.871.188-.262.428-.469.719-.646.277-.172.588-.275.935-.338.345-.054.694-.049 1.043.018.398.074.751.205 1.043.386.29.183.557.372.785.587.109-.119.221-.24.329-.361.165.031.325.062.491.095-.165.95-.328 1.903-.493 2.854-.165-.033-.33-.063-.498-.096-.026-.343-.067-.674-.119-.994-.06-.318-.158-.617-.288-.893-.13-.271-.312-.497-.536-.684-.222-.189-.523-.314-.894-.386-.385-.073-.741-.017-1.062.183-.318.199-.515.465-.582.82-.069.368-.038.692.092.971.126.281.344.526.649.748.271.201.545.373.814.533.267.159.52.319.769.489.224.149.444.312.644.492.194.175.364.369.494.576"/><path d="m326.04 346.92c-.105-.053-.268-.112-.484-.182-.217-.07-.406-.104-.579-.088-.17.014-.348.139-.537.369-.191.232-.392.537-.596.91-.611 1.107-1.224 2.215-1.834 3.324-.234.422-.526.74-.878.955-.351.217-.729.34-1.129.381-.396.041-.772.008-1.14-.078-.368-.098-.695-.223-.985-.383-.463-.256-.849-.541-1.146-.863-.297-.328-.52-.656-.647-.998-.131-.342-.186-.678-.161-1.012.021-.332.113-.639.271-.924.831-1.508 1.663-3.01 2.494-4.521.067-.125.103-.246.113-.354.002-.102-.045-.229-.129-.371-.066-.102-.156-.207-.28-.317-.129-.104-.229-.188-.32-.246.069-.127.141-.256.21-.382 1.078.595 2.151 1.188 3.228 1.779-.069.127-.142.257-.211.382-.105-.054-.24-.103-.409-.161-.171-.062-.302-.098-.388-.109-.147-.023-.271 0-.365.082-.1.079-.181.172-.245.291-.777 1.408-1.556 2.816-2.332 4.225-.112.205-.208.433-.281.68-.083.249-.107.51-.081.777.029.279.139.539.313.799.176.26.478.508.902.742.396.22.771.345 1.111.371.337.021.642-.021.912-.14.252-.112.475-.256.649-.435.178-.178.327-.375.445-.588.578-1.049 1.153-2.092 1.73-3.137.221-.4.374-.742.453-1.029.083-.286.086-.491.019-.637-.072-.162-.213-.328-.401-.496-.195-.172-.349-.299-.462-.367.07-.127.142-.256.211-.381 1.056.582 2.111 1.164 3.169 1.748-.069.13-.139.257-.21.384"/><path d="m330.53 354.69c.135.278.214.583.219.906.006.326-.087.662-.287 1.01-.201.35-.452.611-.76.783-.304.174-.629.264-.975.289-.337.031-.677-.006-1.029-.094-.356-.094-.696-.23-1.021-.416-1.211-.697-2.423-1.396-3.631-2.092.073-.127.146-.254.219-.379.09.045.222.1.404.17.181.073.314.113.402.125.142.018.257-.011.356-.066.093-.055.176-.146.253-.279 1.044-1.812 2.088-3.627 3.132-5.439.069-.123.11-.239.125-.354.009-.115-.031-.236-.119-.367-.077-.115-.174-.227-.292-.332-.12-.104-.216-.188-.305-.246.071-.125.146-.252.218-.377 1.178.678 2.358 1.357 3.54 2.039.274.158.521.334.743.531.216.199.401.43.551.693.14.248.223.521.231.81.009.292-.065.595-.241.899-.152.264-.339.471-.556.621-.215.156-.457.254-.721.303-.251.051-.505.055-.773.029-.273-.02-.548-.08-.828-.172-.01.017-.02.032-.028.049.207.156.422.348.647.586.224.245.403.499.526.77zm-.652-1.894c.226-.078.412-.188.568-.34.152-.152.305-.349.45-.601.237-.415.309-.808.217-1.18-.09-.375-.39-.699-.886-.985-.114-.064-.261-.148-.437-.244-.181-.099-.329-.178-.442-.236-.562.973-1.119 1.941-1.679 2.912.227.131.451.26.681.392.298.172.571.28.824.327.256.044.489.035.704-.045zm-.637 2.847c.257-.445.312-.898.179-1.363-.136-.467-.491-.857-1.061-1.186-.23-.133-.427-.245-.584-.33-.16-.086-.281-.148-.363-.191-.514.894-1.023 1.779-1.536 2.668-.128.223-.136.446-.019.664.117.219.34.422.671.611.533.309 1.035.396 1.498.25.464-.152.866-.517 1.215-1.123z"/><path d="m348.94 360.14c-.111-.041-.275-.086-.499-.132-.222-.048-.416-.062-.585-.03-.167.031-.331.174-.498.422-.167.25-.334.574-.502.965-.498 1.164-.996 2.326-1.494 3.49-.19.443-.45.789-.777 1.039-.327.248-.692.408-1.086.49-.392.08-.769.084-1.142.033-.376-.059-.716-.151-1.02-.281-.485-.207-.897-.454-1.226-.746-.328-.297-.581-.6-.744-.928-.163-.326-.252-.654-.26-.99-.013-.333.046-.648.174-.948.678-1.581 1.355-3.163 2.033-4.745.056-.13.079-.254.08-.361-.009-.102-.066-.225-.165-.356-.076-.094-.176-.188-.313-.289-.137-.09-.244-.165-.341-.213.058-.133.114-.269.171-.399 1.129.483 2.259.967 3.389 1.451-.058.133-.114.268-.173.399-.109-.042-.249-.078-.423-.12-.176-.044-.31-.064-.396-.07-.15-.01-.27.026-.356.117-.09.09-.161.189-.215.314-.633 1.479-1.267 2.957-1.898 4.437-.093.214-.165.449-.216.701-.057.258-.055.521-.001.784.058.273.191.521.392.763.201.24.524.458.971.647.418.181.804.267 1.146.259.335-.013.636-.082.891-.229.239-.139.449-.301.606-.496.157-.192.288-.404.385-.629.471-1.1.939-2.195 1.409-3.293.181-.42.299-.775.351-1.068.051-.295.036-.498-.046-.635-.091-.156-.244-.307-.449-.455-.215-.152-.377-.264-.495-.319.057-.134.114-.269.171-.399 1.107.475 2.218.949 3.325 1.424-.06.129-.118.263-.174.396"/><path d="m358.51 371.38c-1.251-.361-2.504-.725-3.755-1.086.041-.141.082-.281.122-.42.139.033.315.07.537.109.217.034.376.045.469.028.146-.045.262-.099.349-.183.08-.078.147-.188.189-.336.588-2.033 1.176-4.065 1.765-6.102-.033-.01-.062-.018-.092-.025-1.642 2.113-3.323 4.195-4.968 6.31-.098-.028-.195-.058-.298-.086-.2-2.699-.453-5.396-.653-8.093-.024-.008-.053-.017-.077-.022-.482 1.668-.966 3.336-1.447 5.01-.141.482-.215.854-.225 1.132-.015.271.032.477.124.625.063.11.225.237.479.395.253.156.422.244.504.273-.04.139-.081.278-.122.42-1.142-.33-2.286-.66-3.432-.99.041-.143.082-.283.122-.422.185.033.385.062.595.074.209.017.378-.002.514-.062.169-.073.312-.207.436-.426.116-.213.252-.586.406-1.121.413-1.43.827-2.863 1.24-4.293.072-.248.101-.457.087-.633-.014-.181-.062-.324-.146-.461-.096-.145-.226-.263-.388-.367-.165-.108-.337-.188-.51-.244.04-.139.081-.279.121-.418.966.279 1.929.557 2.894.836.19 2.336.432 4.669.62 7.01 1.188-1.563 2.41-3.103 3.6-4.667.133-.173.261-.354.374-.555.112-.191.182-.324.208-.397.923.267 1.85.534 2.771.802-.04.139-.081.279-.121.418-.114-.027-.258-.047-.439-.068s-.322-.029-.409-.023c-.15.01-.264.061-.344.159-.078.101-.138.208-.175.339-.583 2.02-1.166 4.03-1.748 6.05-.039.135-.049.26-.03.368.021.109.089.216.203.328.062.062.179.133.354.218.176.09.312.147.42.186-.042.134-.083.275-.124.416"/><path d="m367.6 368.62c.23.205.423.455.553.752.129.299.179.645.128 1.041-.05.4-.187.738-.397 1.018-.216.275-.479.484-.786.645-.302.158-.632.256-.988.312-.364.051-.729.057-1.102.01-1.386-.174-2.771-.349-4.156-.522.018-.146.035-.291.054-.435.101.007.243.007.439 0 .193-.002.336-.017.422-.041.136-.039.233-.106.301-.198.063-.086.107-.201.127-.355.262-2.075.521-4.15.783-6.227.019-.142.005-.267-.021-.375-.037-.109-.12-.205-.252-.293-.118-.076-.248-.142-.396-.191-.153-.051-.272-.092-.376-.109.018-.145.035-.289.054-.434 1.35.17 2.701.341 4.054.511.312.04.606.106.893.204.275.1.533.238.772.426.223.173.409.393.529.656.121.266.164.572.12.922-.038.303-.129.566-.267.788-.141.228-.324.411-.548.56-.211.143-.448.244-.701.326-.263.088-.538.137-.83.162-.003.018-.006.037-.009.055.25.064.521.157.823.289.296.136.56.302.777.503zm-1.334-1.494c.177-.158.31-.334.396-.533.081-.198.144-.438.18-.729.061-.475-.025-.861-.256-1.172-.229-.311-.627-.492-1.198-.564-.128-.016-.298-.037-.493-.058-.207-.021-.372-.036-.507-.048-.14 1.113-.278 2.225-.419 3.336.262.032.521.064.78.098.339.043.637.037.891-.018.248-.056.457-.158.626-.312zm.514 2.873c.063-.513-.06-.951-.36-1.328-.308-.377-.786-.6-1.437-.682-.267-.033-.487-.061-.668-.078-.183-.019-.317-.029-.412-.037-.129 1.021-.256 2.037-.384 3.056-.032.254.05.464.241.62.192.156.479.257.855.304.613.078 1.106-.035 1.476-.351.372-.321.602-.814.689-1.504z"/><path d="m378.69 372.75h-2.387c-.519-.825-1-1.518-1.423-2.119-.427-.598-.896-1.199-1.392-1.838h-.905v2.769c0 .142.026.271.068.374.045.111.145.195.295.254.073.029.205.053.392.08.188.023.346.037.475.043v.438h-3.74v-.438c.098-.006.242-.023.437-.043.188-.021.318-.051.393-.08.124-.057.219-.129.272-.234.06-.104.082-.232.082-.394v-6.313c0-.139-.019-.27-.061-.383-.045-.108-.14-.194-.295-.25-.104-.037-.236-.076-.405-.104-.168-.028-.305-.052-.423-.056v-.437h4.085c.373 0 .723.034 1.055.11.329.082.623.199.89.371.255.166.466.371.617.639.152.264.231.584.231.959 0 .34-.053.633-.155.893-.104.26-.26.479-.463.67-.184.183-.413.324-.673.457-.261.129-.55.238-.865.332.43.574.803 1.047 1.091 1.438.282.39.647.858 1.059 1.421.182.249.353.426.5.542.145.121.295.214.437.291.105.058.244.093.405.121.163.03.3.045.405.051-.002.143-.002.289-.002.436zm-3.28-6.506c0-.528-.16-.942-.46-1.26-.303-.311-.742-.463-1.303-.463h-1.062v3.742h.818c.573 0 1.058-.173 1.434-.542.375-.368.573-.854.573-1.477z"/><path d="m388.88 372.1c-1.223.094-2.443.186-3.669.279-.012-.146-.022-.293-.033-.438.323-.043.588-.104.802-.184.205-.08.307-.16.3-.251-.003-.037-.015-.079-.023-.135-.013-.057-.024-.096-.048-.139-.288-.633-.592-1.261-.882-1.895-1.034.078-2.063.156-3.098.234-.095.297-.172.549-.223.771-.057.222-.111.421-.153.604-.041.182-.07.323-.08.438-.01.113-.018.203-.011.271.012.164.151.276.42.351.269.073.565.099.897.093.011.145.022.29.033.438-1.106.084-2.216.168-3.323.252-.011-.146-.021-.293-.033-.438.107-.014.239-.047.398-.102.159-.053.287-.111.387-.187.159-.125.276-.248.359-.381.085-.124.159-.293.229-.517.351-1.127.767-2.387 1.188-3.793.421-1.403.824-2.651 1.153-3.746.165-.012.33-.024.498-.036 1.152 2.437 2.354 4.848 3.511 7.282.073.156.156.277.24.373.089.094.202.181.352.261.099.052.226.09.384.114.158.031.285.041.392.037.012.151.023.298.033.444zm-3.818-3.292c-.523-1.091-1.07-2.175-1.596-3.271-.344 1.162-.715 2.314-1.062 3.473.887-.068 1.77-.134 2.658-.202z"/><path d="m401.43 361.92c-.147.039-.301.08-.446.121-.172-.293-.439-.573-.801-.862-.361-.285-.674-.41-.928-.382-.131.021-.281.045-.45.084-.175.043-.368.09-.588.148-.478.129-.953.26-1.432.389.307 1.129.612 2.259.918 3.384.324-.089.654-.179.979-.267.295-.08.525-.17.671-.281.141-.104.263-.237.341-.393.056-.113.096-.27.111-.473.017-.198.01-.406-.027-.623.152-.042.305-.083.451-.123.301 1.109.601 2.213.898 3.316-.146.039-.299.08-.45.123-.058-.168-.157-.357-.283-.562-.136-.2-.256-.34-.363-.416-.157-.118-.338-.18-.529-.185-.202-.006-.428.033-.687.104-.325.089-.655.179-.979.267.264.969.524 1.934.787 2.902.035.129.094.241.178.329.077.089.189.142.341.173.068.016.21.01.418-.009.209-.012.37-.039.474-.062.037.14.077.283.114.423-1.233.334-2.467.67-3.701 1-.037-.14-.077-.283-.114-.423.12-.038.278-.098.472-.172.191-.075.319-.127.373-.174.106-.084.178-.188.201-.299.023-.117.021-.244-.018-.389-.55-2.025-1.1-4.053-1.649-6.08-.034-.129-.098-.238-.16-.333-.072-.085-.189-.138-.346-.167-.121-.021-.278-.023-.468-.018-.201.006-.354.024-.462.049-.037-.141-.076-.283-.114-.424 2.233-.605 4.469-1.211 6.696-1.815.189.706.382 1.413.572 2.116"/><path d="m411.29 361.17c.324.806.641 1.615.964 2.42-2.08 1-4.154 2.01-6.229 3.01-.063-.131-.128-.266-.191-.395.088-.049.209-.125.375-.229.156-.099.265-.181.315-.241.091-.104.144-.212.148-.333.004-.114-.027-.241-.099-.386-.906-1.877-1.812-3.754-2.719-5.631-.062-.129-.138-.225-.223-.303-.089-.074-.212-.11-.372-.104-.104-.01-.247.006-.425.039-.178.031-.316.068-.419.111-.062-.129-.128-.265-.189-.395 1.123-.542 2.24-1.082 3.362-1.624.063.13.128.265.19.396-.106.057-.231.137-.377.248-.154.115-.264.203-.32.268-.112.107-.16.225-.15.352-.001.131.034.256.094.377.851 1.76 1.7 3.521 2.551 5.283.116.24.217.424.31.545.093.127.199.207.324.234.113.029.263.01.444-.061.182-.059.424-.162.73-.312.139-.065.277-.142.428-.219.148-.077.281-.166.404-.248.121-.089.224-.181.318-.272.09-.092.149-.174.172-.262.067-.246.132-.585.166-1.035.031-.441.046-.787.019-1.041.134-.061.267-.126.399-.19"/><path d="m415.95 352.52c.537.154 1.054.408 1.527.785.479.388.896.867 1.247 1.461.354.598.571 1.195.67 1.795.098.6.062 1.173-.07 1.723-.129.537-.369 1.021-.697 1.469-.328.447-.742.812-1.245 1.107-.529.312-1.073.51-1.642.572s-1.112.029-1.639-.137c-.526-.155-1.026-.412-1.498-.799-.473-.386-.874-.849-1.203-1.404-.361-.612-.582-1.215-.678-1.811-.093-.591-.062-1.16.062-1.714.132-.543.378-1.034.711-1.485.332-.451.742-.812 1.231-1.101.508-.301 1.042-.491 1.593-.562.561-.075 1.103-.047 1.631.101zm2.347 5.807c.003-.442-.051-.895-.206-1.354-.148-.459-.37-.937-.666-1.438-.306-.516-.635-.959-.989-1.334-.354-.369-.729-.643-1.104-.832-.374-.188-.764-.269-1.158-.265-.391.001-.787.124-1.169.349-.426.252-.737.562-.918.939-.182.375-.282.781-.277 1.213.008.418.084.857.245 1.326.16.471.374.934.646 1.395.299.506.621.937.949 1.295.332.355.701.629 1.083.832.382.201.763.287 1.163.293.396 0 .801-.113 1.209-.354.38-.225.679-.525.879-.88.198-.36.31-.757.313-1.185z"/><path d="m429.27 352.37c-.647.459-1.301.922-1.948 1.381-.896-.373-1.697-.656-2.383-.904-.696-.246-1.43-.46-2.195-.695-.249.176-.494.35-.743.525.532.749 1.066 1.504 1.602 2.259.081.113.181.199.271.265.104.064.231.071.386.035.079-.017.198-.074.368-.162s.301-.168.411-.24c.083.119.17.24.253.357-1.017.723-2.034 1.442-3.051 2.163-.084-.116-.17-.239-.254-.356.079-.062.186-.157.332-.287.138-.125.229-.223.274-.295.067-.112.103-.229.083-.346-.012-.117-.063-.236-.156-.367-1.219-1.717-2.437-3.437-3.652-5.152-.081-.113-.172-.206-.271-.273-.099-.066-.226-.082-.381-.037-.111.033-.24.078-.393.146-.16.074-.281.141-.378.203-.084-.117-.17-.24-.254-.357 1.11-.787 2.219-1.572 3.33-2.361.305-.215.613-.389.924-.517.315-.126.629-.204.941-.216.308-.016.596.037.87.162.283.127.529.346.745.65.198.278.329.547.389.819.068.271.071.538.016.813-.045.254-.149.498-.287.76-.14.257-.307.513-.516.771.686.221 1.262.389 1.724.541.453.156 1.025.326 1.685.547.291.103.535.146.724.156.185.014.364.004.522-.018.12-.014.25-.066.401-.135.151-.067.271-.139.358-.194.083.119.17.24.253.359zm-6.435-3.41c-.306-.432-.68-.678-1.105-.762-.43-.076-.874.049-1.333.375-.288.203-.575.407-.867.614.723 1.021 1.442 2.035 2.166 3.056.224-.158.446-.315.67-.475.468-.331.761-.755.852-1.271.094-.52-.024-1.032-.383-1.537z"/><path d="m436.56 346.87c.243.822.487 1.648.735 2.469-2.299.853-4.593 1.703-6.891 2.556-.051-.135-.103-.274-.152-.41.116-.049.27-.122.449-.224.185-.098.305-.164.354-.217.101-.105.162-.215.178-.321.015-.113-.002-.233-.057-.379-.729-1.964-1.454-3.923-2.184-5.888-.047-.125-.114-.23-.189-.315-.08-.079-.201-.119-.359-.136-.122-.012-.279 0-.467.025-.199.021-.345.053-.455.088-.051-.135-.104-.274-.152-.41 2.142-.795 4.281-1.588 6.422-2.383.243.656.488 1.318.731 1.975-.147.056-.296.109-.438.164-.184-.27-.475-.51-.849-.745-.387-.239-.698-.322-.945-.267-.124.029-.272.067-.441.125-.175.06-.364.123-.581.203-.435.161-.868.322-1.302.483.4 1.082.805 2.169 1.205 3.251.312-.115.621-.23.938-.348.296-.109.509-.217.63-.33.112-.104.204-.234.258-.408.048-.145.062-.319.056-.533-.011-.208-.033-.393-.077-.57.144-.053.291-.106.438-.162.397 1.071.793 2.14 1.19 3.211-.147.056-.296.109-.438.162-.089-.178-.202-.363-.343-.545-.144-.175-.269-.3-.383-.365-.179-.104-.347-.149-.518-.139-.177.008-.386.062-.638.156-.314.117-.627.232-.938.348.305.822.606 1.639.912 2.461.092.244.182.428.271.562.088.133.194.207.321.245.126.039.286.029.466-.014.184-.051.439-.129.761-.248.129-.049.296-.109.509-.188.212-.078.389-.147.523-.224.14-.073.289-.157.432-.256.142-.104.236-.195.271-.289.112-.252.201-.604.255-1.051s.086-.768.07-.961c.141-.054.278-.105.422-.158"/><path d="m445.63 343.96c-.09-.685-.285-1.289-.574-1.832-.285-.534-.661-.968-1.099-1.321-.427-.342-.915-.581-1.455-.733-.54-.149-1.107-.182-1.686-.106-.562.075-1.087.245-1.569.53-.481.285-.896.642-1.23 1.09-.332.459-.588.973-.734 1.553-.146.585-.178 1.227-.085 1.932.083.641.273 1.225.562 1.764.279.539.643.969 1.061 1.32.419.36.912.602 1.459.766.542.166 1.119.199 1.734.117.574-.076 1.096-.248 1.575-.531.478-.283.893-.635 1.217-1.076.338-.455.592-.969.737-1.559.147-.59.179-1.226.087-1.914zm-1.441 1.782c-.042.484-.165.922-.345 1.327-.172.394-.432.714-.756.968-.322.246-.71.405-1.148.463-.469.063-.89.01-1.255-.146-.367-.164-.683-.389-.95-.727-.274-.335-.511-.73-.672-1.188-.167-.458-.294-.98-.371-1.562-.069-.53-.084-1.041-.043-1.537.03-.493.138-.927.288-1.313.165-.402.418-.736.731-1.01.315-.278.723-.441 1.218-.506.439-.057.848-.014 1.212.137.364.149.687.378.963.697.27.319.503.719.683 1.198.181.482.311 1.019.389 1.613.077.578.094 1.105.056 1.584z"/></g><path d="m422.97 213.66v55.25c0 10.988-1.525 54.744-48.53 71.74-47.1-16.994-48.63-60.746-48.63-71.74v-55.25h97.16" fill="none" stroke-width="1.017"/></g></svg>