<svg xmlns="http://www.w3.org/2000/svg" viewBox="0 0 600 300" enable-background="new 0 0 600 300"><path fill="#008000" d="m0 0h600v300h-600z"/><circle cx="300" cy="150" r="62.5" fill="#ffe000"/><circle cx="319.49" cy="150" r="51.43" fill="#008000"/><circle cx="102.98" cy="87.5" r="65.48" fill="#ffe000"/><path d="m98.46 136.87h16.349c0 0 .738-1.499-.165-2.248-.903-.749-4.418-.914-3.469-3.565 1.953-5.45 2.225-3.769 3.451-16.712 1.226-12.943 1.817-33.24 1.817-33.24h-2.362c0 0 .454 6.312-.908 14.533-1.362 8.22-1.771 8.946-3.27 15.259-1.499 6.312-1.726 6.858-3.088 10.536s-1.499 3.86-3.633 7.266c-2.134 3.406-1.362 2.134-2.543 4.178-.59 1.022-1.317.749-1.714 1.493-.396.743-.464 2.503-.465 2.503z" fill="#802000" stroke="#7b3100" stroke-width="23.333"/><path d="m110.94 39.798c.136 2.539-.119 5.901-1.172 8.637-1.067 3.049-2.228 6.088-2.17 9.245-1.697.577-3.445-3.671-5.078-1.172 1.228 3.453 4.062 6.188 6 9.299.327.965 3.121 3.483 1.505 4.069-4.08-1.396-5.069-6.566-7.6-9.705-2.939-5.283-8.419-9.02-14.524-9.275-2.293.06-9.749-.568-7.809 3.358 2.857 1.942 6.377 3.209 9.198 5.389 2.102.197 5.911 3.705 5.689 5.03-3.697-1.497-5.427-3.292-9.41-4.867-5.396-2.084-12.861-.831-15.848 4.525-.557 1.395-1.379 5.46.372 5.848 2.047-3.196 4.974-6.768 9.312-5.81 3.407.266-3.802 6.348-1.044 5.124.874-.388 2.892-1.712 4.292-1.851 1.4-.138 2.182.91 3.244 1.055 2.124.29 2.709 1.181 2.512 1.699-.232.611-.907.089-3.067.774-1.08.342-1.644 1.291-2.903 1.726-1.259.434-3.879.465-4.858.08-3.425-1.488-9.04-1.229-10.11 3.064-.001 1.888-1.681-.209-2.457.607-.582 2.06-.733 4.175-3.788 3.988-1.854 1.945-3.754 3.96-6.108 5.344 1.382 3.172 6.857-3.185 6.601-.505-2.393 3.264 1.231 3.951 2.818 1.438 2.684-2.836 6.01-6.287 10.01-3.43 1.907 1.796 3.02-.949 4.396-.802.87 2.231 1.964.11 2.951-.521 1.616-.201 1.161 2.02 3.082.651 3.827-2.533 8.535-.405 12.274-2.869 3.979-1.813.559 1.46-.54 2.74-1.748 3.391-.232 7.843-4.03 9.949-1.523 4.04 1.8 9.369-1.59 12.359-.493 1.875 4.359 1.66 5.721 2.43 2.386.095-.103-5.462 2.265-6.207 3.175 1.965 3.03-3.515 2.371-5.205.308-3.842.525-8.04 2.434-11.524 2.03-4.266 3.909 1.737 1.636 3.426-1.291 3.922-3.17 8.831-.235 12.479.846.189 1.54 2.24 2.636 2.87s2.591-.16 2.864-2.025c1.405-5.617.697-11.658 2.703-17.12 1.416-1.692 3.369-.273 4.247 1.283 2.811 3.264 4.787 7.344 8.191 10.03 3.099 1.45 5.84 3.644 7.268 6.834-.019 2.461 6.991 2.839 4.896.103-2.01-2.664-.684-5.328 1.352-7.099 1.09.269.768-1.684-.087-.911-1.369-.323-1.456-2.828.446-1.637 3.205 1.034-.25-2.319-1.408-2.422-2.71-1.679-5.823-3.612-7.155-6.531 3.527.036 7.189 1.938 10.793.758 2.889-1.484 5.82.124 6.829 2.67 2.233-.356 1.281-2.596 0-3.342 1.634-.674 2.763-2.072.783-3.304-1.046-1.365 1.403-3.694-1.607-3.597.098-2.299-.807-4.403-3.313-5.197-2.511-2.126-9.878 3.132-9.664-1.66-.742-2.608 2.993-.348 4.04-1.649 1.078-2.75-5.139-2.481-3.088-4.613 1.34-.863 7.628-2.102 2.697-3.02-2.461.676-4.573.176-6.51-1.042-1.765 2.953-6.806-1.603-5.908 3.646-.69 1.978-5.195 7.117-6.414 3.18 1.037-3.086 6.375-4.095 4.72-8.256-.254-2.597-2.408.452-3.422.258-.514-1.617 1.554-3.522 2.995-3.906 2.859 2.199 2.946-2.775 5.665-2.37 1.985-.441-.641-1.293-1.195-1.666.544-1.453 3.592-2.196.603-3.458-2.637-1.957-4.592 1.948-6.767 2.156-2.088-2.357 1.895-3.49 2.995-4.731.059-.925-2.322-.279-1.606-1.085.622-1.112 4.839-1.195 2.865-2.865-2.974-1.021-6.812-.766-9.665.556-1.798.582-2.327 4.647-3.876 4.478-.729-1.809.237-5.379-2.257-5.903h.004m14.06 39.713c2.266-.384.048 3.442-1.042 3.385.096-1.375-3.278-1.242-1.184-2.44.679-.437 1.435-.772 2.226-.945" fill="#008000"/><g fill="#ffe000"><path d="m470.89 254.77l-11.6-6.89 7.46-11.24-12.62 4.78-4.13-12.85-4.13 12.85-12.62-4.78 7.46 11.24-11.6 6.89 13.44 1.17-1.85 13.37 9.3-9.79 9.3 9.79-1.85-13.37z"/><path d="m395.89 136.02l-11.6-6.89 7.46-11.24-12.62 4.78-4.13-12.85-4.13 12.85-12.62-4.78 7.46 11.24-11.6 6.89 13.44 1.17-1.85 13.37 9.3-9.79 9.3 9.79-1.85-13.37z"/><path d="m470.89 54.768l-11.6-6.887 7.46-11.241-12.62 4.78-4.13-12.849-4.13 12.849-12.62-4.78 7.46 11.241-11.6 6.887 13.44 1.17-1.85 13.372 9.3-9.79 9.3 9.79-1.85-13.372z"/><path d="m537.56 116.02l-11.61-6.89 7.47-11.24-12.62 4.78-4.13-12.85-4.14 12.85-12.62-4.78 7.47 11.24-11.61 6.89 13.45 1.17-1.85 13.37 9.3-9.79 9.29 9.79-1.85-13.37z"/><path d="m491.89 158.64l-8.62-.64-3.27-8-3.26 8-8.63.64 6.61 5.58-2.07 8.39 7.35-4.55 7.35 4.55-2.07-8.39z"/></g></svg>