<svg xmlns="http://www.w3.org/2000/svg" viewBox="0 0 900 600" enable-background="new 0 0 900 600"><path fill="#de2910" d="m0 0h900v600h-900z"/><g fill="#ffde00"><path d="m182.69 160.62l52.9-38.43h-65.38l-20.21-62.19-20.21 62.19h-65.38l52.9 38.43-20.21 62.19 52.9-38.43 52.9 38.43z"/><path d="m308.64 67.52l21.24-4.89-20.05-8.53 1.91-21.708-14.31 16.441-20.06-8.533 11.21 18.694-14.31 16.446 21.25-4.89 11.21 18.68z"/><path d="m365.05 130.29l21.47 3.73-15.18-15.64 10.19-19.27-19.57 9.6-15.17-15.64 3.08 21.57-19.57 9.6 21.47 3.74 3.09 21.58z"/><path d="m371.02 213.15l17.16-13.44-21.78.78-7.48-20.47-5.98 20.96-21.79.78 18.09 12.17-5.99 20.96 17.16-13.44 18.08 12.17z"/><path d="m308.95 277.16l21.02-5.77-20.4-7.69 1.01-21.77-13.61 17.02-20.4-7.69 11.98 18.21-13.61 17.02 21.02-5.77 11.98 18.21z"/></g></svg>