<svg xmlns="http://www.w3.org/2000/svg" viewBox="0 0 510 300" enable-background="new 0 0 510 300"><path fill="#003893" d="m0 0h510v300h-510z"/><path fill="#fff" d="m0 150h510v75h-510z"/><path fill="#cf2027" d="m0 175h510v25h-510z"/><g fill="#f7d116"><path d="m191.25 97.5l-3.37 10.36h-10.9l8.82 6.41-3.37 10.37 8.82-6.41 8.82 6.41-3.37-10.37 8.82-6.41h-10.9z"/><path d="m194.62 257.87l-3.37-10.37-3.37 10.37h-10.9l8.82 6.4-3.37 10.36 8.82-6.4 8.82 6.4-3.37-10.36 8.82-6.4z"/><path d="m268.03 166.09l8.82-6.4h-10.9l-3.37-10.37-3.37 10.37h-10.9l8.82 6.4-3.37 10.37 8.82-6.41 8.82 6.41z"/><path d="m123.29 206.04l-3.37-10.36-3.37 10.36h-10.89l8.81 6.41-3.37 10.36 8.82-6.4 8.82 6.4-3.37-10.36 8.82-6.41z"/><path d="m238.7 243.54l-3.37-10.36-3.36 10.36h-10.9l8.81 6.41-3.36 10.36 8.81-6.4 8.82 6.4-3.37-10.36 8.82-6.41z"/><path d="m149.91 111.01l-3.36 10.37h-10.9l8.82 6.4-3.37 10.37 8.81-6.41 8.82 6.41-3.37-10.37 8.82-6.4h-10.9z"/><path d="m235.33 108.62l-3.36 10.37h-10.9l8.81 6.4-3.36 10.37 8.81-6.41 8.82 6.41-3.37-10.37 8.82-6.4h-10.9z"/><path d="m119.92 149.32l-3.37 10.37h-10.89l8.81 6.4-3.37 10.37 8.82-6.41 8.82 6.41-3.37-10.37 8.82-6.4h-10.9z"/><path d="m262.58 195.68l-3.37 10.36h-10.9l8.82 6.41-3.37 10.36 8.82-6.4 8.82 6.4-3.37-10.36 8.82-6.41h-10.9z"/><path d="m149.91 233.18l-3.36 10.36h-10.9l8.82 6.41-3.37 10.36 8.81-6.4 8.82 6.4-3.37-10.36 8.82-6.41h-10.9z"/></g></svg>