<svg xmlns="http://www.w3.org/2000/svg" viewBox="0 0 1000 500" enable-background="new 0 0 1000 500"><path fill="#0021ad" d="m0 0h1000v500h-1000z"/><path d="M0,0h1000v500L0,0z" fill="#1c8a42"/><circle cx="500" cy="250" r="90.32" fill="#ffc639"/><path d="m444.84 209.43c6.179 8.477 15.542 22.689 23.07 18.979 5.876.02 8.91.433 9.706 4.344 13.859 2.359 37.15-3.488 51.647-22.366 0 0 1.22.161.796-7.01.081-3.125 4.274-2.5 4.374-1.482.585 1.552.484 2.711 1.27 2.752 1.784-.595 4.223-4.596 6.269-7.136.554-1.119.252-2.298.383-3.709 1.078-2.651 3.77-2.076 4.334-.685.514.897.524 1.582 1.028 2.479 2.732 1.824 7.66.121 8.04.121.484-2.228 1.915-2.02 1.915-2.02 1.824-.403 1.109-.242 2.308.383-1.058 12 2.359 12.539 2.076 18.697.121 6.874-2.076 8.829-2.076 11.45.695 3.205 10.835 3.316 7.267 6.03-3.135 1.673.01 4.808-4.707 6.03-13.728 6.965-16.359 12.942-16.359 12.942s-3.447 6.511-3.83 6.511c-2.298 4.344-5.211 1.976-6.834 4.092-.806 2.661-1.714 8.557-.101 11.622.806 4.213-.101 6.511-1.109 10.724-.907 8.789-4.395 10.12-4.798 13.204-1.613 3.296.343 18.778-1.189 18.778-10.22.202-18.05-1.955-22.09-2.762 3.941-16.984 2.409-31.901 2.409-33.433-1.01-12.146-18.19-9.192-20.824-10.805-2.177-.464-3.548-2.238-4.314-3-2.429-.262-3.336-.816-5.765-1.068-1.21.605-.484 1.23-3.185 2.066-6.854.827-9.878-5.977-9.878-5.977.333-2.288-15.411.464-23.969-1.522-3.508 1.955-5.04 7.741-7.912 8.426-.081 1.794-4.727-1.472-5.665-3.236-.191-5.13 4.475-7.398 4.475-7.398 3.709-2.611 5.906-3.034 7.691-4.838.897-4.465.443-7.771 2.349-11.128 1.613-2.56 3.991-1.361 5.604-2.51 1.734-1.149 2.469-8.668.867-10.724 0 0-6.935-6.259-7.318-6.642-2.256-6.469 2.643-10.642 4.04-10.168" fill="#1c8a42"/><path d="m877.93 97.56c-4.092-16.194-40.721-51.07-68.25-73.27-6.572-4.477-10.855-1.81-9.999 4.573 3.427 5.716 5.997 12 9.424 17.716.958 3.81 2.762 6.477 3.719 10.286 0 0 .282 6.573.857 7.144 8.568 9.433 9.716 17.432 9.716 17.432 4.949 9.526 9.333 16.478 18 24.29 9.716 6.098 2.57 25.05 2.852 35.15 0 6.38-4.566 5.624-8.567 4.858-31.528-28.958-62.774-29.05-90.3-37.435-10.765-1.139-10.956 4-7.429 6.854 19.242 20.582 37.33 34.582 61.15 46.29 4 2.479 8 4.959 12 7.439 4.566 3.81 9.142 7.62 13.708 11.43 10.573 6.854 11.44 13.14 11.44 13.708.282 12.861-6.582 22.86-8.578 26.861-3.608 13.637-10.855 16.01-10.855 16.01-58.874 39.723-89.74 50-185.18 37.717-1.431-.756-10.573.766 0 4.576 24.291 8.094 83.961 21.08 141.69-6.259 13.859-9.716 23.13-6.531 33.17-12.347 16.49-10.17 40.03-22.83 44.32-24.25 12.861-6.864 48.865-14.575 57.16-21.439 9.515-.766 19.393-2.02 20.06-10.2 3.125-2.026 7.701-.544 11.1-7.217 7.549-1.31 6.279-4.01 6.279-4.01-1.905-5.332-8.961-7.529-14-11.43-7.439-2.48-12.579-3.246-18.01-.575-1.714.766-3.427 1.522-5.141 2.288 0 0-8-1.149-8-1.714-17.78-.978-16.05-59.902-22.336-84.48v.003" fill="#ffc639"/><path d="m919.63 194.01c-.514 1.432-2.811 2-5.129 1.274-2.318-.728-3.781-2.479-3.267-3.911.514-1.432 2.811-2 5.129-1.274 2.319.728 3.781 2.479 3.267 3.911" fill="#1c8a42"/><g fill="#fff"><path d="m188.16 190.94l-12.751-11.936-12.904 11.77 1.383-17.405-17.249-2.753 14.475-9.774-8.606-15.197 16.668 5.22 6.518-16.204 6.31 16.287 16.734-5.01-8.801 15.09 14.348 9.959-17.283 2.531 1.158 17.423"/><path d="m233.39 335.53l-13.752-9.167-13.391 9.664 4.712-15.568-13.582-9.415 16.667-.445 4.988-15.496 5.594 15.299 16.667-.155-13.21 9.902 5.307 15.381"/><path d="m190.68 460l-12.751-11.936-12.904 11.77 1.383-17.405-17.249-2.753 14.475-9.774-8.606-15.197 16.668 5.22 6.518-16.204 6.31 16.287 16.734-5.01-8.801 15.09 14.348 9.959-17.283 2.531 1.158 17.423"/><path d="m76.09 314.16l-12.751-11.936-12.904 11.77 1.383-17.405-17.249-2.753 14.475-9.774-8.606-15.197 16.668 5.22 6.518-16.204 6.31 16.287 16.734-5.01-8.801 15.09 14.348 9.959-17.283 2.531 1.158 17.423"/><path d="m296.59 275.97l-12.751-11.936-12.904 11.77 1.383-17.405-17.249-2.753 14.475-9.774-8.606-15.197 16.668 5.22 6.518-16.204 6.31 16.287 16.734-5.01-8.801 15.09 14.348 9.959-17.283 2.531 1.158 17.423"/></g></svg>