<svg xmlns="http://www.w3.org/2000/svg" viewBox="0 0 275 180" enable-background="new 0 0 275 180"><path fill="#fff" stroke="#fff" stroke-width="4" d="m0-.149h273.16v179.17h-273.16z"/><g fill="#435024" stroke="#435024"><path d="m80.31 109.07c0 0-.462 3.923 1.154 5.769 1.615 1.846 5.538 3.923 6.923 4.154 1.385.231-1.615-5.077-1.615-5.077s-4.385-5.538-6.462-4.846z"/><path d="m80.999 119c0 0 .462 3.692 3 4.154 2.538.462 4.846.231 4.846.231s0-4.154-7.846-4.385z"/><path d="m89.31 111.38c0 0 2.538.923 2.538 3.231 0 2.308-.231 4.615-.231 4.615s-1.846-2.308-1.846-3.462c0-1.154-.461-4.384-.461-4.384z"/><path d="m88.37 125.27c0 0-.326 2.285 2.285 2.285 2.61-.001.325-2.938-2.285-2.285z"/><path d="m88.2 128.86c0 0 2.774-.816 6.04-.163 3.264.653 4.895 3.1 4.895 3.1s-3.427.979-7.343 0c-3.916-.979-3.59-2.937-3.59-2.937z"/><path d="m89.999 120.7c0 0 3.916-1.142 7.669 7.343.001 0-7.179-1.795-7.669-7.343z"/><path d="m94.08 118.91c0 0 4.406-2.448 7.996 8.975 0 0-5.059-1.959-7.996-8.975z"/><path d="m99.95 129.51c0 0 4.406-1.632 10.117 5.059-9.301-.326-10.117-5.059-10.117-5.059z"/><path d="m102.9 126.41c0 0-.216 2.573 1.511 2.573 1.727 0 .216-3.308-1.511-2.573z" stroke-width=".863"/><path d="m99.72 133.09c0 0-.168 2.247 1.178 2.247 1.347 0 .169-2.889-1.178-2.247z" stroke-width=".712"/><g stroke-width=".863"><path d="m113.18 140.03c0 0-.216 2.573 1.511 2.573 1.726 0 .215-3.308-1.511-2.573z"/><path d="m117.26 132.36c0 0-.216 2.573 1.511 2.573 1.727 0 .216-3.308-1.511-2.573z"/></g><path d="m106.48 127.88c0 0 6.201-1.632 8.812 6.201-7.506-1.143-8.812-6.201-8.812-6.201z"/><path d="m100.93 136.53c0 0 7.02-1.795 10.28.653s-6.2 3.427-10.28-.653z"/><path d="m113.17 136.69c0 0 4.732-2.285 9.954 2.774-9.791 1.306-9.954-2.774-9.954-2.774z"/><path d="m121.17 133.59c0 0 4.732-1.469 9.301 7.18-10.28-1.469-9.301-7.18-9.301-7.18z"/><path d="m129.32 143.06c0 0-5.222 3.59-11.749-.163.001 0 2.122-4.406 11.749.163z"/><path d="m191.9 108.99c0 0 .462 3.923-1.154 5.769-1.615 1.846-5.538 3.923-6.923 4.154s1.615-5.077 1.615-5.077 4.385-5.539 6.462-4.846z"/><path d="m191.2 118.92c0 0-.462 3.692-3 4.154-2.538.462-4.846.231-4.846.231s0-4.155 7.846-4.385z"/><path d="m182.9 111.3c0 0-2.538.923-2.538 3.231s.231 4.615.231 4.615 1.846-2.308 1.846-3.462c0-1.153.461-4.384.461-4.384z"/><path d="m183.84 125.19c0 0 .326 2.285-2.285 2.285s-.326-2.937 2.285-2.285z"/><path d="m184 128.78c0 0-2.774-.816-6.04-.163-3.264.653-4.895 3.1-4.895 3.1s3.427.979 7.343 0 3.59-2.937 3.59-2.937z"/><path d="m182.2 120.62c0 0-3.916-1.142-7.669 7.343-.001 0 7.179-1.795 7.669-7.343z"/><path d="m178.12 118.83c0 0-4.406-2.448-7.996 8.975.001 0 5.059-1.958 7.996-8.975z"/><path d="m172.25 129.43c0 0-4.406-1.632-10.117 5.059 9.301-.327 10.117-5.059 10.117-5.059z"/><path d="m169.3 126.32c0 0 .216 2.573-1.511 2.573-1.727 0-.216-3.308 1.511-2.573z" stroke-width=".863"/><path d="m172.48 133c0 0 .168 2.247-1.178 2.247-1.347.001-.168-2.889 1.178-2.247z" stroke-width=".712"/><g stroke-width=".863"><path d="m159.02 139.95c0 0 .216 2.573-1.511 2.573-1.727-.001-.216-3.308 1.511-2.573z"/><path d="m154.94 132.28c0 0 .216 2.573-1.511 2.573-1.727 0-.216-3.308 1.511-2.573z"/></g><path d="m165.72 127.8c0 0-6.201-1.632-8.812 6.201 7.506-1.142 8.812-6.201 8.812-6.201z"/><path d="m171.27 136.45c0 0-7.02-1.795-10.28.653-3.264 2.447 6.2 3.426 10.28-.653z"/><path d="m159.03 136.61c0 0-4.732-2.285-9.954 2.774 9.791 1.305 9.954-2.774 9.954-2.774z"/><path d="m151.04 133.51c0 0-4.732-1.469-9.301 7.18 10.28-1.468 9.301-7.18 9.301-7.18z"/><path d="m142.88 142.98c0 0 5.222 3.59 11.749-.163 0 0-2.122-4.406-11.749.163z"/><path d="m135.12 145.07c0 0-3.577 4.846-3.577 4.385s-2.538-2.538-2.538-2.538l4.385-3.231-1.731-.808.923-1.038 3.231 1.385"/><path d="m136.09 145.06c0 0 3.577 4.846 3.577 4.385s2.538-2.538 2.538-2.538l-4.385-3.231 1.731-.808-.923-1.038-3.231 1.385"/><path d="m134.88 145.31h1.5"/></g><path d="m70.15 68.23c0 0 1.846 4.846 3.923 4.846 2.077 0 7.615.462 7.615.462s2.769-.462 3.692-3 3.462-13.154 16.15-6.692 13.385-11.08 13.385-11.08l-2.077-3 .462-5.769c0 0 6.923 4.846 11.308 4.615 4.385-.231 7.615 1.385 9 1.385s5.769 1.385 5.769 1.385l11.308.462c0 0 1.846-1.615 3.692-1.385 1.846.231 1.846-1.154 5.308-1.154s6.923-4.385 6.923-4.385.923-.923 6 0c0 0 3.462-2.769 8.538-4.385 5.077-1.615 4.385-3.692 4.385-3.692s3.692-.692 5.308-.462c1.615.231 2.538-2.769 2.538-2.769l3.923-.462 1.615-2.308 3.923-.692c0 0 4.615-3.231 5.308-5.308s6-.462 6-.462 2.308-2.077 2.538-3.231c.231-1.154 2.308-.231 2.308-.231l-.231 3.692-2.538 1.385v2.308h-3.923l-.231 2.308-3.231.231-.462 2.769-.692 1.154-.923.462h-2.308l-.923 1.385-2.308 1.615-1.615 2.077-3.231-.231-2.077 2.769-1.385-.231-2.077 3.462-1.615 2.077-.923 1.385-1.615.462-.462 1.846-2.769.692-3.692.923-1.385 1.615c0 0-3.923 7.846.231 10.615s4.385 5.769 4.385 5.769l2.077 1.385 1.615 2.769.692 3.231c0 0-.692.462-1.615.231-.923-.231-2.538-.462-2.538-.462l-1.846-1.615-3.462-.231-1.846 2.077c0 0-.923 1.385-.923 2.308s-.462.692-1.615 0-3-1.846-3-1.846l-2.538-.692-.231-1.154-1.615.923c0 0-.462 1.385-1.385.923-.923-.462-1.846-.462-1.846-.462h-1.615c0 0-3.692 2.769-3.231 11.769l-4.154.692-2.077 1.846-1.154 1.154h-3l-1.615 1.385-3 1.154-1.385 1.846-3.692.231-1.615 1.154-.692 1.615-2.538-1.615-3.462-.923-3 .692c0 0-.923.231-1.846.923s-3.462 1.154-3.462 1.154-1.615.462-1.615 1.385-.462 2.538-.462 2.538v3.462c0 0-.462 2.308-2.308 2.308-1.846 0-1.385 0-2.308-.231-.923-.231-.692-2.308-.692-2.308v-2.538l-3.692-3.462-2.308-.923-2.538.231-2.308 1.385-2.077 1.385c0 0 .462 1.615-1.154.462-1.615-1.154-2.769-1.615-2.769-1.615l-2.077-1.154-2.769-.692-2.077-2.538-5.308-.231-4.615-5.308-1.385-1.385-.231-4.154-3-.462v-2.308l-1.154-2.308.462-4.154-2.769-1.154-1.154-3.923-.924-6z" fill="#d87503" stroke="#d87503"/></svg>