<svg xmlns="http://www.w3.org/2000/svg" viewBox="0 0 1200 600" enable-background="new 0 0 1200 600"><path fill="#006b3f" d="m0 0h1200v600h-1200z"/><g fill="#fcd116"><path d="m525 0h75v600h-75z"/><path d="m0 225h1200v75h-1200z"/></g><g fill="#fff"><path d="m600 0h75v600h-75z"/><path d="m0 300h1200v75h-1200z"/></g><path d="m575 0h50v600h-50z"/><path d="m0 275h1200v50h-1200z"/><circle cx="600" cy="300" r="150" fill="#d41c30"/><g stroke="#000"><g fill="#006b3f"><path d="m595.19 181.59l4.81-13.72 4.37 13.5 14.65.22-11.59 8.85 5.25 15.05-12.68-9.29-12.46 8.85 4.81-14.61-11.37-8.63c0 0 14.21-.22 14.21-.22z"/><path d="m534.29 398.62l-11.956 8.272 4.4-13.49-11.723-8.789 14.578-.347 4.599-15.262 4.798 14.969 15.282.164-12.479 8.992 4.126 13.665c0 0-11.625-8.174-11.625-8.174z"/><path d="m665.71 201.38l11.956-8.272-4.4 13.49 11.723 8.789-14.578.347-4.599 15.262-4.798-14.969-15.282-.164 12.479-8.992-4.126-13.665c0 0 11.625 8.174 11.625 8.174z"/><path d="m488.87 341.17l-14.535-.335 11.489-8.328-4.318-14 11.998 8.288 12.691-9.644-4.917 14.93 12.267 9.115-15.381-.06-4.694 13.48c0 .002-4.6-13.445-4.6-13.445z"/><path d="m714.1 332.02l11.562 8.814-14.19-.016-4.736 13.865-4.835-13.758-15.936.342 12.754-9.189-4.566-14.585 12.409 9.09 11.721-8.147c-.001.003-4.183 13.585-4.183 13.585z"/><path d="m711.13 258.83l14.535.335-11.489 8.328 4.318 14-11.998-8.288-12.691 9.644 4.917-14.93-12.267-9.115 15.381.06 4.694-13.48c0-.002 4.6 13.445 4.6 13.445z"/><path d="m485.9 267.98l-11.562-8.814 14.19.016 4.736-13.865 4.835 13.758 15.936-.342-12.754 9.189 4.566 14.585-12.409-9.09-11.721 8.147c.001-.003 4.183-13.585 4.183-13.585z"/><path d="m673.49 392.97l4.173 13.927-11.471-8.353-11.981 8.433 4.175-13.972-13.09-9.09 15.719.063 4.878-14.484 4.696 14.647 14.271.299c.001 0-11.366 8.53-11.366 8.53z"/><path d="m526.51 207.03l-4.173-13.927 11.471 8.353 11.981-8.433-4.175 13.972 13.09 9.09-15.719-.063-4.878 14.484-4.696-14.647-14.271-.299c-.001 0 11.366-8.53 11.366-8.53z"/><path d="m604.81 418.41l-4.81 13.72-4.37-13.5-14.65-.22 11.59-8.85-5.25-15.05 12.68 9.29 12.46-8.85-4.81 14.61 11.37 8.63c0 0-14.21.22-14.21.22z"/><g stroke-width="2.5"><path d="m617.41 295.59c4.926-.513 10.329 18.809 12.07 43.16 1.739 24.349-.845 44.503-5.771 45.02-4.926.514-10.329-18.809-12.07-43.16-1.738-24.349.845-44.504 5.771-45.02z"/><path d="m626.2 295.49c5.21-.542 10.852 18.757 12.601 43.1 1.749 24.348-1.057 44.525-6.267 45.07-5.21.542-10.852-18.757-12.601-43.1-1.749-24.347 1.057-44.524 6.267-45.07z"/><path d="m621.8 293.21c4.168-.44 9.07 21.02 10.945 47.939s.018 49.09-4.15 49.53-9.07-21.02-10.945-47.939c-1.876-26.917-.018-49.09 4.15-49.53z"/></g></g><path d="m555.79 362.56c7.657-.319 4.332-4.416 8.199-6.596 3.865-2.177 9.365-.737 11.02 1.986s.327 5.397 2.451 5.433c2.126.037 59.928-2.388 62.01-.105 2.085 2.28 2.428 6.776.269 8.524-2.159 1.77-75.24 2.588-77.75.738-2.517-1.824-6.202-9.53-6.194-9.98z" fill="#9c4a00" stroke-width=".657"/><g fill="#fcd116" stroke-width=".633"><path d="m596.62 368.19c-.139 5.776 8.404 4.14 8.521 8.963-.257 5.114-14.324.313-14.46-9.04.585-9.345 14.354-13.962 14.524-8.625.127 4.436-8.446 2.928-8.585 8.704z"/><path d="m601.66 368.26c-.139 5.776 8.404 4.14 8.521 8.963-.257 5.114-14.324.313-14.46-9.04.585-9.345 14.354-13.962 14.524-8.625.127 4.436-8.446 2.929-8.585 8.704z"/><path d="m607.07 368.06c-.139 5.776 8.404 4.14 8.521 8.963-.257 5.114-14.324.313-14.46-9.04.585-9.345 14.354-13.962 14.524-8.625.127 4.436-8.446 2.928-8.585 8.704z"/><path d="m612.11 368.12c-.139 5.776 8.404 4.14 8.521 8.963-.257 5.114-14.324.313-14.46-9.04.585-9.345 14.354-13.962 14.524-8.625.127 4.436-8.446 2.929-8.585 8.704z"/></g><path d="m636.26 362.44c2.693.041 4.83 2.289 4.772 5.02-.058 2.734-2.287 4.917-4.981 4.876-2.693-.041-4.83-2.289-4.772-5.02.058-2.734 2.287-4.917 4.981-4.876z" fill="#9c4a00" stroke-width=".399"/><g fill="#006b3f" stroke-width="2.5"><path d="m605.84 341.28c2.384-.36 4.774 3.62 5.338 8.889s-.913 9.832-3.297 10.191c-2.384.36-4.774-3.62-5.338-8.889-.563-5.269.913-9.831 3.297-10.191z"/><path d="m598.48 340.7c2.384-.36 4.774 3.62 5.338 8.889s-.913 9.832-3.297 10.191c-2.384.36-4.774-3.62-5.338-8.889s.912-9.831 3.297-10.191z"/><path d="m593.22 331.28c2.384-.36 4.774 3.62 5.338 8.889.563 5.269-.913 9.832-3.297 10.191-2.384.36-4.774-3.62-5.338-8.889-.563-5.268.913-9.831 3.297-10.191z"/><path d="m600.57 329.89c2.292-.363 4.652 4.056 5.269 9.869.618 5.813-.74 10.819-3.03 11.181-2.292.362-4.652-4.056-5.269-9.869s.741-10.819 3.03-11.181z"/><path d="m610.93 330.64c2.293-.355 4.623 3.776 5.204 9.227.581 5.45-.807 10.156-3.101 10.51-2.293.354-4.623-3.776-5.204-9.227-.58-5.45.808-10.155 3.101-10.51z"/><path d="m605.28 327.23c2.293-.355 4.623 3.776 5.204 9.227.581 5.45-.807 10.156-3.101 10.51-2.293.354-4.623-3.776-5.204-9.227-.581-5.449.808-10.155 3.101-10.51z"/><path d="m598.14 322.31c2.293-.355 4.623 3.776 5.204 9.227s-.807 10.156-3.101 10.51c-2.293.354-4.623-3.776-5.204-9.227-.58-5.45.808-10.156 3.101-10.51z"/><path d="m591.54 319.34c2.293-.355 4.623 3.776 5.204 9.227s-.807 10.156-3.101 10.51c-2.293.354-4.623-3.776-5.204-9.227-.58-5.449.808-10.155 3.101-10.51z"/></g><path d="m585.27 247.31c0 0-14.655 12.719-13.01 47.14 1.845 34.62 32.393 50.894 32.393 50.894s7.786-9.827 6.882-37.643c-2.183-40.668-16.608-58.64-16.608-58.64l-9.656-1.758z" fill="#9461c9" stroke-width=".575"/><g fill="#006b3f" stroke-width="2.5"><path d="m618.97 342.36c2.41.071 4.052 4.413 3.668 9.698-.385 5.285-2.65 9.512-5.061 9.441-2.41-.071-4.052-4.413-3.668-9.698.385-5.286 2.651-9.513 5.061-9.441z"/><path d="m611.83 340.48c2.41.071 4.052 4.413 3.668 9.698-.385 5.285-2.65 9.512-5.06 9.441-2.41-.071-4.053-4.413-3.668-9.698.384-5.285 2.649-9.512 5.06-9.441z"/><path d="m608.33 330.27c2.41.071 4.052 4.413 3.668 9.698-.385 5.285-2.65 9.512-5.06 9.441-2.41-.071-4.053-4.413-3.668-9.698.384-5.286 2.65-9.512 5.06-9.441z"/><path d="m615.82 330.21c2.32.052 3.854 4.82 3.426 10.65s-2.656 10.514-4.977 10.462-3.854-4.82-3.426-10.65 2.656-10.514 4.977-10.462z"/><path d="m625.87 332.79c2.32.06 3.876 4.54 3.476 10.01s-2.604 9.849-4.924 9.79c-2.32-.06-3.876-4.54-3.476-10.01s2.605-9.849 4.924-9.789z"/><path d="m620.92 328.43c2.32.06 3.876 4.54 3.476 10.01-.4 5.467-2.604 9.849-4.924 9.79-2.32-.06-3.876-4.54-3.476-10.01.399-5.466 2.604-9.848 4.924-9.789z"/><path d="m614.77 322.33c2.32.06 3.876 4.54 3.476 10.01-.4 5.467-2.604 9.849-4.924 9.79-2.32-.06-3.876-4.54-3.476-10.01.4-5.466 2.605-9.849 4.924-9.789z"/><path d="m608.81 318.22c2.32.06 3.876 4.54 3.476 10.01-.4 5.467-2.604 9.849-4.924 9.79-2.32-.06-3.876-4.54-3.476-10.01.399-5.466 2.604-9.849 4.924-9.789z"/></g><path d="m601.38 271.57c6.369-2.46 18.231 11.167 26.495 30.437s9.8 36.886 3.431 39.35c-6.369 2.46-18.231-11.167-26.495-30.437-8.263-19.27-9.8-36.886-3.431-39.35z" fill="#d41c30"/><g fill="#006b3f"><ellipse transform="matrix(.0178-.9998.9998.0178 325.28 872.71)" cx="606.84" cy="270.79" rx="4.762" ry="5.394" stroke-width="1.464"/><g stroke-width="1.546"><ellipse transform="matrix(.0178-.9998.9998.0178 336 870.15)" cx="610.89" cy="264.06" rx="4.762" ry="4.832"/><ellipse transform="matrix(.0178-.9998.9998.0178 329.71 863.52)" cx="604.37" cy="263.94" rx="4.762" ry="4.832"/></g><g stroke-width="1.56"><ellipse transform="matrix(.0178-.9998.9998.0178 336.05 860.11)" cx="605.81" cy="259.01" rx="4.471" ry="5.057"/><ellipse transform="matrix(.0178-.9998.9998.0178 341.14 853.99)" cx="605.24" cy="253.36" rx="4.471" ry="5.057"/></g><ellipse transform="matrix(.0178-.9998.9998.0178 327.4 853.56)" cx="598.15" cy="260.14" rx="4.762" ry="4.832" stroke-width="1.546"/><ellipse transform="matrix(.0178-.9998.9998.0178 334.93 849.03)" cx="599.6" cy="254.04" rx="4.665" ry="4.832" stroke-width="1.562"/><ellipse transform="matrix(.0178-.9998.9998.0178 326.94 841.19)" cx="591.62" cy="254.19" rx="4.762" ry="5.394" stroke-width="1.464"/><ellipse transform="matrix(.0178-.9998.9998.0178 344.57 843.36)" cx="601.54" cy="246.3" rx="4.471" ry="5.057" stroke-width="1.56"/><ellipse transform="matrix(.0178-.9998.9998.0178 337.08 837.44)" cx="594.78" cy="247.15" rx="4.665" ry="4.832" stroke-width="1.562"/><ellipse transform="matrix(.0178-.9998.9998.0178 319.72 834.37)" cx="584.54" cy="254.45" rx="4.762" ry="4.832" stroke-width="1.546"/><g stroke-width="1.562"><ellipse transform="matrix(.0178-.9998.9998.0178 324.92 832.56)" cx="586.22" cy="250.9" rx="4.665" ry="4.832"/><ellipse transform="matrix(.0178-.9998.9998.0178 330.85 830.75)" cx="588.26" cy="246.98" rx="4.665" ry="4.832"/></g><path d="m602.09 259c8.168-2.884 22.784 13.378 32.646 36.32 9.861 22.944 11.234 43.882 3.065 46.766s-22.784-13.378-32.646-36.32c-9.861-22.945-11.234-43.882-3.065-46.766z" stroke-width="2.545"/><path d="m628.98 299.16c1.514-.72 4.471 2.568 6.605 7.344 2.134 4.776 2.637 9.231 1.123 9.951-1.514.72-4.471-2.568-6.605-7.344-2.134-4.776-2.637-9.231-1.123-9.951z" stroke-width="2.5"/><g stroke-width=".575"><path d="m631.46 307.8c12.811 15.598 11.193 25.503 9.857 33.884-4.02-9.663-6.222-15.746-19.03-31.347s-6.417-26.548-5.538-32.32c1.926 4.992 1.903 14.178 14.716 29.779z"/><path d="m632.62 320.4c12.811 15.598 11.193 25.503 9.857 33.884-4.02-9.663-6.222-15.746-19.03-31.347s-6.417-26.548-5.538-32.32c1.927 4.992 1.903 14.178 14.716 29.779z"/><path d="m633 330.55c13.12 15.322 11.701 25.26 10.533 33.666-4.217-9.575-6.536-15.61-19.659-30.935-13.12-15.325-6.947-26.405-6.183-32.19 2.026 4.951 2.186 14.13 15.309 29.46z"/></g><path d="m617.09 277.69c3-.764 8.482 5.516 12.243 14.02s4.378 16.03 1.378 16.79-8.482-5.516-12.243-14.02c-3.762-8.509-4.379-16.03-1.378-16.79z" stroke-width="1.389"/><g stroke-width="1.64"><path d="m613.52 289c2.699-.464 7.258 4.87 10.182 11.914 2.924 7.04 3.106 13.13.407 13.595-2.699.464-7.258-4.87-10.182-11.914s-3.106-13.13-.407-13.595z"/><path d="m607.71 294.79c2.708-.407 7.155 5.02 9.933 12.13s2.833 13.193.124 13.6c-2.708.407-7.155-5.02-9.933-12.13-2.777-7.104-2.832-13.193-.124-13.6z"/></g><g stroke-width="2.097"><path d="m613.22 276.82c2.182-.4 5.987 3.534 8.5 8.785s2.78 9.832.599 10.232c-2.182.4-5.987-3.534-8.5-8.785-2.513-5.252-2.781-9.833-.599-10.232z"/><path d="m608.67 280.54c2.204-.28 5.758 3.854 7.939 9.233 2.181 5.379 2.163 9.966-.04 10.245-2.203.28-5.758-3.854-7.939-9.233-2.182-5.378-2.164-9.965.04-10.245z"/></g><path d="m608.62 284.23c3.788 9.255 5.321 17.577 3.42 18.577-1.899.999-6.513-5.7-10.301-14.955" stroke-width=".575"/><g stroke-width="2.097"><path d="m608.05 269.67c2.203-.28 5.758 3.854 7.939 9.233 2.181 5.379 2.163 9.966-.04 10.245s-5.758-3.854-7.939-9.233c-2.181-5.378-2.163-9.965.04-10.245z"/><path d="m601.93 272.65c2.209-.236 5.671 3.966 7.731 9.386 2.06 5.42 1.939 10-.27 10.242-2.209.236-5.671-3.966-7.731-9.386-2.061-5.42-1.94-10.01.27-10.242z"/></g><g stroke-width=".575"><path d="m602.03 271.66c3.678 6.254 5.658 12.09 4.418 13.04-1.238.942-5.227-3.368-8.905-9.622"/><path d="m604.57 267.51c3.678 6.254 5.658 12.09 4.419 13.04-1.238.942-5.228-3.368-8.905-9.622"/><path d="m616.01 268.39c5.125 8.543 7.883 16.521 6.153 17.811-1.727 1.289-7.288-4.599-12.413-13.14"/><path d="m608.45 263.92c3.693 6.905 5.687 13.348 4.449 14.385-1.236 1.036-5.236-3.727-8.928-10.632"/></g></g><g fill="#9461c9"><g stroke-width=".591"><path d="m608.13 253.91c-2.465 2.482-.051 7.124 2.206 8.801 2.531 2.294 16.742 17.286 26.769 4.672-8.03-.146-23.03-19-28.975-13.473z"/><path d="m606.37 246.51c-2.465 2.482-.051 7.124 2.206 8.801 2.531 2.294 16.742 17.286 26.769 4.672-8.03-.145-23.03-19-28.975-13.473z"/><path d="m604.12 239.42c-2.465 2.482-.051 7.124 2.206 8.801 2.531 2.294 16.742 17.286 26.769 4.672-8.04-.146-23.03-19-28.975-13.473z"/><path d="m599.24 231.31c-2.465 2.482-.051 7.124 2.206 8.801 2.531 2.294 16.742 17.286 26.769 4.672-8.03-.145-23.03-19-28.975-13.473z"/></g><path d="m581.73 223.55c5.08-3.779 14.412-4.884 21.681-1.183 6.05 2.967 16.15 15.07 23.734 17.935-5.34.953-8.589.148-12-1.492-6.739 4.88-9.14 5.611-16.01 6.57-9.552 1.378-17.48-1.109-20.266-6.089-2.839-4.7-1.615-12.239 2.86-15.741z" stroke-width=".628"/></g><g stroke-width="2.5"><ellipse transform="matrix(.0178-.9998.9998.0178 350.9 819.38)" cx="592.5" cy="231.09" rx="2.538" ry="4.376" fill="#d41c30"/><path d="m577.87 237.88c3.157-1.174 6.294-.566 7.01 1.359.714 1.925-1.266 4.437-4.423 5.611-3.157 1.174-6.294.566-7.01-1.359s1.267-4.437 4.423-5.611z" fill="#fcd116"/></g></g><ellipse transform="matrix(.0178-.9998.9998.0178 350.85 819)" cx="592.28" cy="230.92" rx="1.361" ry="1.573"/><path d="m582.87 234.49c.402 1.949-1.043 4.582-4.18 5.515-3.195 1.323-5.618 4.322-7.02 9.226-4.856-11.184-1.77-15.916 3.388-17.07 4.436-1.414 7.11-1.235 7.808 2.325z" fill="#fcd116" stroke="#000" stroke-width=".732"/><ellipse transform="matrix(-.0551-.9985.9985-.0551 375.07 825.61)" cx="578.19" cy="235.34" rx="1.14" ry="1.113"/></svg>