<svg xmlns="http://www.w3.org/2000/svg" xmlns:xlink="http://www.w3.org/1999/xlink" viewBox="0 0 900 600" enable-background="new 0 0 900 600"><defs><path id="1" d="m0 0h900v600h-900v-600m486.23 420c66.27 0 120-53.726 120-120s-53.726-120-120-120-120 53.726-120 120 53.726 120 120 120"/><clipPath id="0"><use xlink:href="#1"/></clipPath></defs><path d="M0,0h900v600H0V0z" fill="#fff"/><path d="M0,0h450v600H0V0z" fill="#006233"/><g fill="#d21034"><circle cx="450" cy="300" r="150" clip-path="url(#0)"/><path d="m533.85 316.84l51.83-16.84-51.83-16.84v-54.49l-32.03 44.08-51.82-16.83 32.03 44.08-32.03 44.08 51.82-16.83 32.03 44.08z"/></g></svg>