<svg xmlns="http://www.w3.org/2000/svg" viewBox="0 0 640 480" enable-background="new 0 0 640 480" xmlns:xlink="http://www.w3.org/1999/xlink"><g transform="scale(1.25.9375)"><path fill="#ffe800" d="m0 0h512v512h-512z"/><path fill="#00148e" d="m0 256h512v256h-512z"/><path fill="#da0010" d="m0 384h512v128h-512z"/></g><g transform="matrix(1.2423 0 0 1.4908-142.19-129.94)"><g transform="matrix(-.47007 0 0 .41368 605.23 96.09)"><path d="m582.5 450l124 124 2.2-2.7-124-124-2.2 2.7" id="0"/><path d="m496.1 470.3l162.3 162 2.8-2.5-162.3-162-2.8 2.5" id="1"/><path d="m655.5 631.1l13.5 12.9 15.5 11-11.4-14.9-13.5-12.9-4.1 3.9z" fill="#808080" stroke="#000" stroke-width="4.104" id="2"/><path d="m697.4 567.8l13.5 12.9 15.5 11-11.4-14.9-13.5-12.9-4.1 3.9z" fill="#808080" stroke="#000" stroke-width="4.104" id="3"/></g><g transform="matrix(.47007 0 0 .41368 122.21 80.33)"><g stroke="#000"><path d="m338.8 204.6c0 0-13.6 351.7 40.8 351.7s81.7-37 81.7-37l-.7-193.3-121.8-121.4z" fill="#ffdf00"/><path d="m372 237.4c0 18.5-6 281.9 21.2 281.9s68.1-18.5 68.1-18.5l-.7-174.8-88.6-88.6z" fill="#0000c4"/><path d="m389.8 255.1c0 18.5 3.5 227.1 30.7 227.1h40.8l-.7-156.2-70.8-70.9z" fill="#e10000"/></g><path d="m336.6 204.6l124 124 2.2-2.7-124-124-2.2 2.7"/><g stroke="#000"><path d="m301.2 272.8c0 0-35.4 336.6 70.9 336.6 88.6 0 88.6-53.2 106.3-53.2l-17.7-124-159.5-159.4z" fill="#ffdf00"/><g transform="matrix(.51617-.27185.21845.40928 202.4 380.19)"><path d="m306.6 85.8c1.2.7 84.6-77.5 209.6-78.2" fill="none" stroke-width="2.305"/><path d="m342-20.2c10.4 16.9 15.2 31.6 18.5 47.3-14-14.4-21.4-21.3-31.7-38.3s-15.6-35.8-19.7-50.9c8.5 10.6 22.5 25 32.9 41.9z" fill="#005b00"/><path d="m359.1 68.6c0 2.8-2.3 5.1-5.1 5.1-2.8 0-5.1-2.3-5.1-5.1 0-2.8 2.3-5.1 5.1-5.1 2.8 0 5.1 2.3 5.1 5.1z" fill="#f00"/><g fill="#005b00"><path d="m447.8-37.6c-13.9 14.7-25.6 22.6-38 29 12.1-18.4 18-28.1 31.9-42.7s28.9-23.8 41-31c-8.9 11.6-21.1 30-34.9 44.7z"/><path d="m436.1-45.5c-9.2 17.3-18.3 29.3-28.5 40.8 6.4-18.4 9.3-27.7 18.5-45 9.2-17.3 21.1-32 30.8-43.8-5.2 12.4-11.6 30.8-20.8 48z"/><path d="m437.5-12.1c-12.7 5.4-21.4 5.5-29.8 3.5 13.6-10.4 20.5-16.2 33.2-21.7 12.7-5.4 23.4-4.5 32-3.5-9.1 5.7-22.7 16.2-35.4 21.7z"/><path d="m360.3-23.1c3.2 19 2.1 34.3-.8 50-7.5-17.8-11.8-26.5-15-45.6-3.2-19-.9-38.4 1.1-53.9 3.9 12.7 11.5 30.4 14.7 49.5z"/><path d="m296.9 35.4c7 19.2 8.3 35.1 7.8 51.6-11.8-17.4-18.2-25.9-25.2-45.1-7-19.2-7.7-39.4-8.1-55.6 6.6 12.5 18.5 29.9 25.5 49.1z"/><path d="m353.9 65.2c-16.6 11.9-31.5 17.5-47.6 21.4 13.6-16 20-24.5 36.6-36.4s35.9-18 51.3-22.8c-10.1 9.8-23.6 25.9-40.3 37.8z"/><path d="m362 92c-20.3 2.4-36 .1-52-4.2 19.6-7.5 29.3-11.9 49.6-14.3 20.3-2.4 40.1 1.5 56 4.7-13.7 3.8-33.3 11.4-53.6 13.8z"/><path d="m528.9 1.3c-10.2 4.9-18.3 6.8-26.6 7.7 9.7-7.2 14.5-11.1 24.7-16s20.4-6.8 28.6-8.2c-6.9 4.3-16.5 11.6-26.7 16.5z"/><path d="m522.9-5c-7.7 7.2-14.8 11.7-22.4 15.7 6.2-8.3 9.2-12.6 16.9-19.8s16.8-12.6 24.2-16.8c-4.8 5.4-11 13.7-18.7 20.9z"/><path d="m519.4 12.6c-8.3.4-13.6-1.3-18.4-3.9 9.5-2.8 14.4-4.5 22.8-4.8s14.7 2.2 19.7 4.4c-6.2 1.1-15.8 3.9-24.1 4.3z"/><path d="m409.7 20.6c-15.4.7-27-.9-38.7-3.5 15.3-3.4 22.9-5.4 38.2-6.1 15.4-.7 30 1.8 41.6 3.9-10.5 1.5-25.7 4.9-41.1 5.7z"/><path d="m448.9 42.9c-20.4.8-35.9-2.7-51.5-8.3 20.2-5.9 30.2-9.5 50.6-10.3 20.4-.8 39.9 4.7 55.4 9.2-13.9 2.6-34.1 8.6-54.5 9.4z"/></g><path d="m269.6 155.2c1.3 0 33.2-104.1 139.3-163.1" fill="none" stroke-width="2.37"/><g fill="#f00"><path d="m459.9 8.6c0 2.8-2.3 5.1-5.1 5.1-2.8 0-5.1-2.3-5.1-5.1s2.3-5.1 5.1-5.1c2.8 0 5.1 2.2 5.1 5.1z"/><path d="m496.1 7.4c0 2.8-2.3 5.1-5.1 5.1-2.8 0-5.1-2.3-5.1-5.1s2.3-5.1 5.1-5.1c2.8 0 5.1 2.3 5.1 5.1z"/><path d="m371.9 5c0 2.1-2.4 3.8-5.3 3.8-2.9 0-5.3-1.7-5.3-3.8s2.4-3.8 5.3-3.8c2.9 0 5.3 1.7 5.3 3.8z"/><path d="m381.7 6.2c0 2.1-2.4 3.8-5.3 3.8s-5.3-1.7-5.3-3.8 2.4-3.8 5.3-3.8c3 0 5.3 1.7 5.3 3.8z"/><path d="m373.3 12.1c0 2.1-2.4 3.8-5.3 3.8-2.9 0-5.3-1.7-5.3-3.8s2.4-3.8 5.3-3.8c2.9 0 5.3 1.7 5.3 3.8z"/><path d="m405.5 26.1c0 3.1-2.5 5.7-5.7 5.7-3.1 0-5.7-2.5-5.7-5.7s2.5-5.7 5.7-5.7c3.2.1 5.7 2.6 5.7 5.7z"/><path d="m414.6 22.7c0 3.1-2.5 5.7-5.7 5.7-3.1 0-5.7-2.5-5.7-5.7s2.5-5.7 5.7-5.7c3.1.1 5.7 2.6 5.7 5.7z"/><path d="m414.6 27.2c0 3.1-2.5 5.7-5.7 5.7-3.1 0-5.7-2.5-5.7-5.7s2.5-5.7 5.7-5.7c3.1.1 5.7 2.6 5.7 5.7z"/></g></g><path d="m336.6 308.3c0 17.7-35.4 212.6 53.1 265.8 35.4 17.7 88.6-17.7 88.6 0l-17.7-141.7-124-124.1z" fill="#0000c4"/><path d="m372.1 343.7c0 17.7-17.7 159.5 35.4 194.9 35.4 35.4 124 25.8 124 25.8l-70.9-132.1-88.5-88.6z" fill="#e10000"/></g><path d="m298.3 272.8l162.3 162 2.8-2.5-162.3-162-2.8 2.5"/><g stroke="#000"><g fill="#cececc"><path d="m271.1 255l10.4 2.2 3.2 3.1c-.4 0 3.2 3.1-.9 7.2-4.1 4.1-10.4-2.2-10.4-2.2s2.2 10.3 8.5 16.6 13.6 5.3 13.6 5.3-7.2-5.9-2.2-10.3c4.9-4.4 7.3-.9 7.3-.9l6.3 6.3 4.1-4.1-25.3-25.1-2.2-10.3-15.8-3.2 3.4 15.4z"/><path d="m301.2 184.3l12.2 17.5 15.9 3.4-10.6 6.5 19-1.2 8.5 5.3 3.2-4.6-8.5-5.3-6.4-17.2-2.1 11.8-9.5-12.6-21.7-3.6z"/></g><path d="m348.5 198.6c0 1-1.3 1.9-3 1.9-1.7 0-3-.8-3-1.9s1.3-1.9 3-1.9c1.6 0 3 .8 3 1.9zm-4.3 4c0 18 14.4 94.5 15.5 96.4.1 2.2-3.2 3.2-4.9.4-4.5-8.7-14.2-80.4-14.6-97.2-.2-6.9 2.6-7.4 5.7-7.3 2.6.1 5.7 1.9 5.7 4 0 2.4-4 4.3-7.4 3.7z" fill="#e10000"/><path d="m352 205.6c-.5 1-2.2 1.5-3.8 1.1-1.6-.4-2.4-1.4-1.9-2.4.5-1 2.2-1.5 3.8-1.1 1.6.3 2.4 1.4 1.9 2.4zm-6.1 2.8c4.5 33.8-11.5 86.3-11.4 88.3-1.1 2.1-4.7 2.3-4.8-.6-.7-1.9 17.7-49.4 12.6-88.9 3.4-6.6 6.3-6.5 9.2-5.7 2.4.7 4.4 3 3.3 5-1.2 2.3-6 3.3-8.9 1.9z" fill="#0000c4"/><path d="m312 263.3c0 1.7-1.7 3.1-3.8 3.1-2.1 0-3.8-1.4-3.8-3.1 0-1.7 1.7-3.1 3.8-3.1 2.1 0 3.8 1.4 3.8 3.1zm-5.5 6.4c0 29.3 18.3 153.7 19.8 156.8.1 3.6-4.1 5.2-6.2.7-5.7-14.2-18.2-130.9-18.7-158.1-.2-11.2 3.3-12.1 7.3-11.9 3.3.2 7.3 3 7.3 6.5 0 4-5.1 7.1-9.5 6z" fill="#e10000"/><path d="m316.5 274.7c-.7 1.6-2.9 2.4-4.9 1.8-2-.6-3.1-2.3-2.4-3.9s2.9-2.4 4.9-1.8c2 .5 3.1 2.3 2.4 3.9zm-7.8 4.6c5.8 55-14.7 140.4-14.5 143.7-1.3 3.5-6 3.8-6.1-1.1-1-3.2 22.6-80.4 16.1-144.7 4.3-10.7 8-10.5 11.7-9.3 3 1.1 5.7 4.9 4.3 8.1-1.7 4-7.8 5.5-11.5 3.3z" fill="#0000c4"/></g></g><g transform="matrix(.47007 0 0 .41368 138.86 96.09)"><use xlink:href="#0"/><use xlink:href="#1"/><use xlink:href="#2"/><use xlink:href="#3"/></g><g transform="matrix(.47007 0 0 .41368 122.21 80.33)"><g stroke="#000"><path d="m724.2 204.6c0 0 13.6 351.7-40.8 351.7-54.4 0-81.7-37-81.7-37l.7-193.3 121.8-121.4z" fill="#ffdf00"/><path d="m690.9 237.4c0 18.5 6 281.9-21.2 281.9-27.2 0-68.1-18.5-68.1-18.5l.7-174.8 88.6-88.6z" fill="#0000c4"/><path d="m673.2 255.1c0 18.5-3.5 227.1-30.7 227.1h-40.8l.7-156.3 70.8-70.8z" fill="#e10000"/></g><path d="m726.4 204.6l-124 124-2.2-2.7 124-124 2.2 2.7"/><g stroke="#000"><g transform="matrix(.52429-.22358.16895.69382 362.76 423.13)" fill="#005b00"><path d="m516.5-14.2c0 0 43.6 74.6 59.3 126.8 15.7 52.2 29.1 128.7 29.1 128.7s1.2-70.9-19.4-134.3c-27.8-80.2-70.2-117.5-69-121.2z"/><path d="m518.2-59c0 0 44.6 87.1 58.8 145.9 14.2 58.8 23.8 143.5 23.8 143.5s6.7-76.5-12.2-148.1c-26.1-90.8-72.1-137.4-70.4-141.3z"/><path d="m603.8-103.6c0 0 15.7 116.2 10.5 183.1-5.3 67-23.7 155.5-23.7 155.5s32-68.9 36.8-151.6c4-106.4-26.6-184.5-23.6-187z"/><path d="m556.4-125.8c0 0 34.9 110.3 39.7 179.2 4.9 68.9-.9 164.5-.9 164.5s23.3-81 15.4-165.5c-12.3-107.9-57-174.5-54.2-178.2z"/><path d="m632.5-72.1c0 0 2.5 107.9-7.4 168.8-9.9 61-32 140.6-32 140.6s31.2-60.5 42-135.9c12.3-97.2-5.1-171.5-2.6-173.5z"/><path d="m538.6-95.5c0 0 38.9 98.1 47.6 160.7 8.7 62.6 9.3 150.3 9.3 150.3s16.4-75.7 4-152.4c-18-97.6-63.2-155.1-60.9-158.6z"/><path d="m512.4-47.2c0 0 45.7 82.7 60.3 139.6 14.5 56.9 24.2 139.4 24.2 139.4s7.1-75.6-12.3-144.7c-26.6-87.6-73.9-130.4-72.2-134.3z"/><path d="m530.7-73.6c0 0 38.7 89.9 48.9 149.5 10.2 59.6 14.1 144.7 14.1 144.7s11.8-75.8-2.3-148.6c-19.9-92.3-62.7-141.9-60.7-145.6z"/><path d="m618-96.6c0 0 8.3 111.5-1.2 174.9-9.5 63.3-33.5 146.3-33.5 146.3s36.3-63.4 46.4-141.7c10.7-101-14.8-177.3-11.7-179.5z"/><path d="m573.2-137.7c0 0 27.4 112.3 27.6 181.5.2 69.1-11.9 164.1-11.9 164.1s28.7-79.3 26.5-164.1c-5-108.6-45.1-178.1-42.2-181.5z"/><path d="m643.7-58.7c0 0-4.1 100.8-17.6 156.9-13.6 56.1-40.6 128.8-40.6 128.8s34.8-54.2 50.2-123.8c18.2-89.8 5.3-160.2 8-161.9z"/><path d="m550.7-110.5c0 0 34 101 38.4 164.4 4.4 63.5-1.8 151.6-1.8 151.6s23.6-75.1 16.3-152.9c-11.6-99.2-55.6-159.7-52.9-163.1z"/></g><path d="m761.8 272.8c0 0 35.4 336.6-70.9 336.6-88.6 0-88.6-53.2-106.3-53.2l17.7-124 159.5-159.4z" fill="#ffdf00"/><path d="m726.4 308.3c0 17.7 35.4 212.6-53.2 265.8-35.4 17.7-88.6-17.7-88.6 0l17.7-141.7 124.1-124.1z" fill="#0000c4"/><path d="m691 343.7c0 17.7 17.7 159.5-35.4 194.9-35.4 35.4-124 25.8-124 25.8l70.9-132.1 88.5-88.6z" fill="#e10000"/></g><path d="m764.7 272.8l-162.3 162-2.8-2.5 162.3-162 2.8 2.5"/><g stroke="#000"><g fill="#cececc"><path d="m791.9 255l-10.4 2.2-3.2 3.1c.4 0-3.2 3.1.9 7.2 4.1 4.1 10.4-2.2 10.4-2.2s-2.2 10.3-8.5 16.6c-6.3 6.3-13.6 5.3-13.6 5.3s7.2-5.9 2.2-10.3c-4.9-4.4-7.3-.9-7.3-.9l-6.3 6.3-4.1-4.1 25.3-25.1 2.2-10.3 15.8-3.2-3.4 15.4z"/><path d="m761.8 184.3l-12.2 17.5-15.9 3.4 10.6 6.5-19-1.2-8.5 5.3-3.2-4.6 8.5-5.3 6.4-17.2 2.1 11.8 9.5-12.6 21.7-3.6z"/></g><path d="m714.6 198.6c0 1 1.3 1.9 3 1.9 1.7 0 3-.8 3-1.9s-1.3-1.9-3-1.9c-1.7 0-3 .8-3 1.9zm4.3 4c0 18-14.4 94.5-15.5 96.4-.1 2.2 3.2 3.2 4.9.4 4.5-8.7 14.2-80.4 14.6-97.2.2-6.9-2.6-7.4-5.7-7.3-2.6.1-5.7 1.9-5.7 4-.1 2.4 3.9 4.3 7.4 3.7z" fill="#e10000"/><path d="m711 205.6c.5 1 2.2 1.5 3.8 1.1 1.6-.4 2.4-1.4 1.9-2.4-.5-1-2.2-1.5-3.8-1.1-1.6.3-2.4 1.4-1.9 2.4zm6.1 2.8c-4.5 33.8 11.5 86.3 11.4 88.3 1.1 2.1 4.7 2.3 4.8-.6.7-1.9-17.7-49.4-12.6-88.9-3.4-6.6-6.3-6.5-9.2-5.7-2.4.7-4.4 3-3.3 5 1.2 2.3 6 3.3 8.9 1.9z" fill="#0000c4"/><path d="m751 263.3c0 1.7 1.7 3.1 3.8 3.1 2.1 0 3.8-1.4 3.8-3.1 0-1.7-1.7-3.1-3.8-3.1-2.1 0-3.8 1.4-3.8 3.1zm5.5 6.4c0 29.3-18.3 153.7-19.8 156.8-.1 3.6 4.1 5.2 6.2.7 5.7-14.2 18.2-130.9 18.7-158.1.2-11.2-3.3-12.1-7.3-11.9-3.3.2-7.3 3-7.3 6.5 0 4 5.1 7.1 9.5 6z" fill="#e10000"/><path d="m746.5 274.7c.7 1.6 2.9 2.4 4.9 1.8 2-.6 3.1-2.3 2.4-3.9-.7-1.6-2.9-2.4-4.9-1.8-2.1.5-3.1 2.3-2.4 3.9zm7.7 4.6c-5.8 55 14.7 140.4 14.5 143.7 1.3 3.5 6 3.8 6.1-1.1 1-3.2-22.6-80.4-16.1-144.7-4.3-10.7-8-10.5-11.7-9.3-3 1.1-5.7 4.9-4.3 8.1 1.7 4 7.8 5.5 11.5 3.3z" fill="#0000c4"/></g></g><g transform="matrix(.47007 0 0 .41368 122.21 80.33)"><g stroke="#000"><path d="m478.4 698c17.7 10.7 37.1 8.3 53.1 0v-141.7h-35.4c17.7 53.2 17.7 106.3-17.7 141.7z" fill="#e10000"/><g fill="#0000c4"><path d="m503.9 556.3c0 99.7-25.5 121.8-25.5 141.7 10.7 0 17.7-9.3 25.5-22.1 10.7-19.9 11.7-121.1 10.7-119.6h-10.7z"/><path d="m482.6 556.3c-.5 58.2-26.9 112.1-21.9 124 5.7 10.7 21.9-24.4 43.2-4.4 10.7-19.9 11.7-121.1 10.7-119.6h-32z"/></g><g fill="#ffdf00"><path d="m485.1 556.3c0 66.4-24.5 70.9-24.5 88.6 10.7 0 24.4-9.7 24.5-8.8 10.7-13.3 11.7-80.8 10.7-79.7l-10.7-.1z"/><path d="m463.8 556.3c-.5 38.8-26.3 71.8-21.3 79.7 5.7 7.1 21.3-13.3 42.6 0 10.7-13.3 11.7-80.8 10.7-79.7h-32z"/></g><path d="m584.7 698c-17.7 10.7-37.1 8.3-53.2 0v-141.7h35.4c-17.7 53.2-17.7 106.3 17.8 141.7z" fill="#e10000"/><g fill="#0000c4"><path d="m559.1 556.3c0 99.7 25.5 121.8 25.5 141.7-10.7 0-17.7-9.3-25.5-22.1-10.7-19.9-11.7-121.1-10.7-119.6h10.7z"/><path d="m580.4 556.3c.5 58.2 26.9 112.1 21.9 124-5.7 10.7-21.9-24.4-43.2-4.4-10.7-19.9-11.7-121.1-10.7-119.6h32z"/></g><g fill="#ffdf00"><path d="m577.9 556.3c0 66.4 24.5 70.9 24.5 88.6-10.7 0-24.4-9.7-24.5-8.8-10.7-13.3-11.7-80.8-10.7-79.7l10.7-.1z"/><path d="m599.2 556.3c.5 38.8 26.3 71.8 21.3 79.7-5.7 7.1-21.3-13.3-42.6 0-10.7-13.3-11.7-80.8-10.7-79.7h32z"/></g><path d="m397.5 570.8l-18.5 12.9 18.5 12.9 9.3-6.4 4.6 6.4 4.6 12.9 4.6-12.9 4.6-6.4h248v-12.9h-248l-4.6-6.4c0-6.4 1-12.9 4.6-12.9 3.7 0 11.2 0 18.5 0 0-6.4-9.3-19.3-27.8-19.3-18.5 0-27.8 12.9-27.8 19.3 7.3 0 14.8 0 18.5 0 3.7 0 4.6 6.4 4.6 12.9l-4.6 6.4-9.1-6.5z" fill="#908f8a" stroke-width="4.467"/><g fill="#b74d00" stroke-width="1.378"><path d="m608.57 612.76h.127v8.1h-155.6z"/><path d="m608.57 604.92h.128v8.1h-155.6z"/><path d="m608.57 597.07h.129v8.1h-155.6z"/><path d="m608.57 589.22h.13v8.1h-155.6z"/><path d="m608.57 581.27h.127v8.1h-155.6z"/><path d="m608.57 573.42h.128v8.1h-155.6z"/><path d="m608.57 565.57h.129v8.1h-155.6z"/></g><g fill="#908f8a"><g stroke-width="3.255"><path d="m459.2 554.3l59.1 55.1h8.4l-59.1-55.1h-8.4z"/><path d="m459.2 609.4l59.1-55.1h8.4l-59.1 55.1h-8.4z"/></g><path d="m459.2 554.3v55.1h8.4v-55.1h-8.4z" stroke-width="3.088"/><g stroke-width="3.255"><path d="m535.2 554.3l59.1 55.1h8.4l-59.1-55.1h-8.4z"/><path d="m535.2 609.4l59.1-55.1h8.4l-59.1 55.1h-8.4z"/></g><g stroke-width="3.088"><path d="m594.2 554.3v55.1h8.4v-55.1h-8.4z"/><path d="m535.2 554.3v55.1h8.4v-55.1h-8.4z"/><path d="m518.3 554.3v55.1h8.4v-55.1h-8.4z"/></g></g><g fill="#ffdf00"><path d="m655.5 396.8c0 88-55.6 159.5-124 159.5-68.5 0-124-71.4-124-159.5 0-88 55.6-159.4 124-159.4 68.4 0 124 71.4 124 159.4zm-17.7.1c0 78.2-47.6 141.7-106.3 141.7-58.7 0-106.3-63.5-106.3-141.7 0-78.2 47.6-141.7 106.3-141.7 58.7-.1 106.3 63.4 106.3 141.7z"/><path d="m579.8 249.9c-14.8-8.1-31.1-12.5-48.3-12.5s-33.4 4.5-48.3 12.5l6.9 16.3c12.7-7.2 26.7-11.1 41.4-11.1s28.6 4 41.4 11.1l6.9-16.3z"/><path d="m580 543.8c-14.8 8.1-31.1 12.5-48.3 12.5s-33.4-4.5-48.3-12.5l6.9-16.3c12.7 7.2 26.7 11.1 41.4 11.1s28.6-4 41.4-11.1l6.9 16.3z"/></g></g><path d="m637.8 396.8c0 78.3-47.6 141.7-106.3 141.7-58.7 0-106.3-63.5-106.3-141.7 0-78.3 47.6-141.7 106.3-141.7 58.7 0 106.3 63.5 106.3 141.7" fill="#a7cfff"/><g stroke="#000"><path d="m637.8 396.8c1.1 26.7-4.6 39.6-11.9 67.4-1.9 3-11-6.5-16.4-11.2s-7.8 4.2-14.5-3c-6.7-7.3-11 2.1-16-4.1s-51.3-7.1-51.4-7.6c4.6-2.3 28.3.2 24.5-11.2-4.3-11.7-31.1-.4-34.7-15.4-2.4-14.9-53.6-15.5-57.2-19.2 1.4 5.7 39.7 8 38.8 22.6-.8 5.9-37.7 7.6-41.2 12.7-3 6.3 28.9-1.7 30.1 6-.1 3.2-4.7.1-21.4 5-8.3 2.5 15.5 10.3 6.4 14.6-9 4.3-28.3 6.2-27.4 8 2.9 8.9 44.7 19.5 40.5 21.1-14.8 6.6-22.6 10.9-29.6 14.7-19.2-25.7-31.1-61.1-31.1-100.2 31.7-11.4 25-13.7 83.6-13.7s77.9 2.2 128.9 13.5z" fill="#afff7b"/><path d="m637.8 396.8c-8.1 0-16.5 3.4-25.1 3.4-8.6 0-17.5-3.4-26.5-3.4s-19.3 4.5-28.5 4.5c-9.2 0-17.4-4.5-26.7-4.5-9.3 0-18.6 3.4-27.8 3.4-9.2 0-18.3-3.4-27.2-3.4s-17.7 3.4-26.2 3.4-16.8-3.4-24.7-3.4c0-19.6 3-38.2 8.4-55.2 27.1 2 11-15.7 27.1-15.7 8.7 0 17.4 1.9 25.2 9.8 2.4 0 14.5-11.4 27.9-9.8 13.4 1.6 8.5 27.3 26.4 28.6 9.1 6.8 14.4 11.1 26.8 13.9 17.7 1.6 68.4-2.5 68.7-.2 1.5 9.3 2.2 18.9 2.2 28.6z" fill="#fff"/><path d="m548.5 482.8c0-4.4 4.7-7.4 4.7-14.5 0-7.1-4.2-7.3-4.3-13.9-.1-2.7 3.6-5.5 5.2-5.7 1.6-.2 3 5.8 3 7.1 0 1.3-1.6-3.3-3-3.4-1.4-.1-4.3.5-4.3 1.8 0 2.7 5.2 5.9 4.8 14.8-.4 8.8-4.5 11.4-4.5 14.1 0 2.7 1.8 10 1.8 10s-3.4-5.8-3.4-10.3z"/><path d="m553.9 482.2c0-4.4-4.7-7.4-4.7-14.5s4.2-7.3 4.3-13.9c.3-3.1-4.1-5.1-5.8-5.3-1.6-.2-3.5 6.2-3.5 7.5s1.9-4.1 3.3-4.2c1.4-.1 5.1.5 5.1 1.8 0 2.7-5.2 5.9-4.8 14.8.4 8.8 4.5 11.4 4.5 14.1s-1.8 10-1.8 10 3.4-5.9 3.4-10.3z"/></g><path d="m553.7 446c0 2.2-1.1 3.9-2.5 3.9-1.4 0-2.5-1.8-2.5-3.9s1.1-3.9 2.5-3.9c1.4-.1 2.5 1.7 2.5 3.9"/><path d="m586.73 490.13h.773v32.6h-.8z"/><path d="m593.95 487.73h.753v32.6h-.8z"/><path d="m587.3 472.5v-.8l6.8 1.1v.8z"/><path d="m492.7 479.2c0 0 26.1 11.3 31.7 18.1 5.7 6.8 3.4 6.8 3.4 6.8l57.8 2.3c0-3.4 10.2-3.4 12.5-11.3 2.3-7.9 2.3-10.2 2.3-10.2l-18.1 5.7 1.1-10.2h-15.9l-2.3 10.2-34-1.1 2.3-27.2-6.8 1.1-1.1 26.1c-1.2-.1-31.7-8-32.9-10.3z" fill="#b74d00" stroke="#000"/><path d="m440.5 316.3c0 0 37.6-11.2 92.1-10.4s92.1 12.8 91.3 12.8-10.4-18.4-10.4-18.4-38.4-10.4-81.7-11.2c-43.3-.8-80.9 8-80.1 8.8l-11.2 18.4z" fill="#fede00" stroke="#fede00"/><g fill="#38a9f9"><path d="m507.6 291.9l23.3-.4.2 12.8-23.2.4z"/><path d="m454 298.9l-8.2 12.6 27.7-3.2-2.2-12.6-17.3 3.2"/><path d="m477.6 294l23.2-1.9 1 12.8-23.1 1.9z"/><path d="m561.3 292.7l-23.2-1.4-.8 12.7 23.1 1.5z"/><path d="m611.2 300.8l8.4 15.7-25.1-5.9 2.8-12.5 13.9 2.7"/><path d="m591.1 296.2l-23-3-1.6 12.7 23 3z"/></g><g fill="#ffdf00" stroke="#000"><path d="m532.6 323.5l-2.5-13.5-7.6 11.5 2.8-13.5-11.3 7.7 7.7-11.3-13.5 2.8 11.5-7.6-13.5-2.5 13.5-2.6-11.5-7.6 13.5 2.8-7.7-11.3 11.3 7.7-2.8-13.5 7.6 11.5 2.5-13.5 2.6 13.5 7.6-11.5-2.8 13.5 11.3-7.7-7.7 11.3 13.5-2.8-11.5 7.6 13.5 2.6-13.5 2.5 11.5 7.6-13.5-2.8 7.7 11.3-11.3-7.7 2.8 13.5-7.6-11.5z"/><path d="m547 296.7c0 7.7-6.5 14-14.4 14-8 0-14.4-6.3-14.4-14 0-7.7 6.5-14 14.4-14 8-.1 14.4 6.2 14.4 14z"/></g><path d="m532.6 293.1c0 .9-2.2 1.6-4.8 1.6s-4.8-.7-4.8-1.6 2.2-1.6 4.8-1.6 4.8.7 4.8 1.6"/><path d="m543 293.1c0 .9-1.6 1.6-3.6 1.6s-3.6-.7-3.6-1.6 1.6-1.6 3.6-1.6 3.6.7 3.6 1.6"/><g fill="none" stroke="#000"><path d="m530 298.7l1 .5c-2.4-1.3-1.3-.8 2.4 2.6 2.2-1.2 2.6-2.2 3.9-3.7"/><path d="m526.2 304.3l.8.8c-1.9-1.9-1.1-1 3.2 1.6 4 .5 8.1-1.2 10.4-4"/></g><g fill="#b7e1ff"><path d="m468.6 330.7c0 0 1.6 12.8-8.8 28.8-10.4 16-8.8 10.4-8.8 10.4s4.8 8.8 4 8.8-8-8-8-8l-8.8 8.8c0 0 8-13.6 7.2-13.6s-2.4-4.8-2.4-4.8l6.4-2.4c0 0 9.6-16.8 9.6-16s-28.8 18.4-28.8 18.4l38.4-30.4"/><path d="m475 335.5c-.8 0 4 12.8 8 19.2 4 6.4 4 14.4 4 14.4l13.6 6.4-17.6-24.8 11.2 4-19.2-19.2"/><path d="m475 369.1c0 0 9.6 9.6 10.4 12.8s.8 10.4.8 10.4l-4-8-5.6 7.2c0 0 4-11.2 3.2-12s-6.4 4-6.4 4 2.4-6.4 2.4-7.2 0-4.7-.8-7.2"/><path d="m426.9 391.6c3.2-2.4 9.6-4 9.6-4s-4 6.4-4.8 6.4-3.2 0-4.8-2.4"/><path d="m537.4 356.3c0 0 20.8 12 20.8 12.8s-13.6-5.6-13.6-5.6l-7.2-7.2"/><path d="m499.8 331.5c1.6.8 30.4 23.2 29.6 23.2s-12.8-6.4-12.8-5.6v5.6l-6.4-12.8-1.6 4.8-8.8-15.2"/><path d="m507 367.5l8 15.2 8-1.6c0 .1-15.2-13.6-16-13.6"/><path d="m531.8 357.9c0 2.4.8 14.4.8 14.4s4.8 4 4.8 3.2-4.8-16.8-5.6-17.6"/></g></g><g transform="matrix(.42172 0 0 .40723 143.48 81.974)"><path d="m279.7 160.2c0 0 40-19.1 85.6-33.4 45.6-14.2 96.7-23.6 103.5-23.6 13.5 0 36.7 29.3 40.5 29.3 3.9 0 19.3-8.1 38.6-8.1s30.9 13 34.7 13h34.7c3.9 0-11.6-32.5 0-30.9 5.8.8 55 7.3 100.8 20.1 45.8 12.8 110.9 35.4 110.9 35.4s-106.3 12.3-134.5 8.6c-3.9 1.6-.2 21.5-5.6 12.8-8.9-1.8-41.5-6.1-47.3-6.1s-16.6 5.6-32 8.9c-15.4 3.3-34.7 8.1-34.7 8.1l25.1 34.2-30.9 13c0 0-19.3-39.1-27-39.1s-11.6 27.7-21.2 26c-9.6-1.6-13.5-26-21.2-32.5-7.7-6.5-48.4-8.9-63.9-12.1-15.4-3.3-40.4-5.8-53.9-9-13.5-3.3-27 8.1-32.8 8.1-5.8 0 7.7-9.8 1.9-11.4-5.8-1.6-9.6 4.9-13.5 4.9-3.9 0-44.4-6.5-48.2-8.1-3.9-1.6 9.6-8.1 5.8-8.1h-15.4" fill="#984000"/><g stroke="#772600"><path d="m566.7 143.5c0 9.2-8.6 16.6-19.1 16.6-10.6 0-19.1-7.4-19.1-16.6 0-9.2 8.6-16.6 19.1-16.6s19.1 7.4 19.1 16.6z" fill="#808080" stroke-width="3.706"/><path d="m471.9 147c3.5-3.5 7.8-8.8 19.1-8.8 2.6-.9 2.6-6.1 8.7-6.1 6.1 0 4.3 5.3 8.7 7 4.3 1.8 40-1.8 40-1.8s3.5 2.6 3.5 6.1c0 3.5-2.6 6.1-3.5 6.1s-35.6-2.6-38.3-1.8c-2.6.9-4.3 1.8-10.4 1.8-6.1 0-7.8-6.1-12.2-6.1-4.3.1-8.6-.8-15.6 3.6z" fill="#984000" stroke-width="5.25"/><g fill="none" stroke-width="3.5"><path d="m578 145.3h13.9c5 .1 6.7 1.6 11.3 1.8h12.2c4.4-.2 6.8-1.2 11.3-1.8 7.6-.1 5-.7 3.5-5.3-1.4-3.5-1.5-5.1-3.5-7-.7-4.2-2.4-5.7-2.6-10.5-.8-3.7-2.3-6.2-.9-10.5 2 3 2.8 4.2 7.8 4.4 5.2 0 7.3-.1 10.4 1.8 2.4 2.6 5.7 1.8 10.4 1.8 4 .7 4.7 2.8 7.8 4.4 3.7 2.1 6.1 2.6 11.3 2.6 4.2.7 7.8 1.4 10.4 2.6 2.2 2.7 5.7 3.3 10.4 3.5 2.6 0 4.7-.3 7-.9 4 .2 8.1 0 13 0 3.2 3.8 4 5.2 9.6 5.3 3.8 2.7 7.1 3.2 10.4 4.4h13c4.7.4 6.2 2.3 10.4 3.5 4.2 2 8.2 3.3 11.3 4.4 3.1.7 7.1.9 11.3.9 3.2 1.7 7.1 1.8 9.6 3.5 3.6.8 8.5 1.7 11.3 2.6 4.6.6 6.4 2.1 10.4 2.6 3.5 1-1.2 1.9-3.5 2.6-5.1-.2-5.5-2.1-10.4-2.6-2.6-1.5-6.6-1.3-10.4-2.6h-.7c3.4 2.1 6.8 3.4 5.2 7-4.4 0-8-.6-12.2-.9-4.4-.8-6.4-1.8-11.3-1.8 4.9-1.2 6.2.1 9.6 1.8 1.3 4.2-1.4 2.6-6.1 2.6-4-1.4-6.4-3.1-11.3-3.5h-10.4c5.2.2 6.3 2.2 9.6 4.4.3 1.4-.1 1.3-2.6 1.8-2.7-2.4-6.2-3.2-10.4-4.4-4.1-.1-8.5-.5-12.2-1.8-2.5-.2-2.1-3.2 3.5 1.8 3.4 2 4.6 3.7 4.3 5.3-4.5-1.1-6.7-2.9-9.6-4.4-4-1.5-7.4-1.8-12.2-1.8-4.5-1.2.5-1.9 3.5 2.6 6.5 4.6-.9 2.6-3.5 1.8-3.9-1.1-8-2.7-11.3-3.5-2.6-.8-4.9-1.5-7.8-1.8 4.5.4 6 2 7.8 5.3 4.6 3.2-.2 1.6-4.3.9-2.6-2.3-6-3.5-7.8-6.1-4.4-2.2-4.5-4.7-1.7.9.7 1.8.6 5.7.9 6.1-3.2-3.5-2.5-4.4-6.1-4.4-2.4-1.7-6-3-7.8-5.3-3.4-.3-3.6-1.5-7-2.6 2.8 3.3 6.5 6.6 8.7 9.6 4 2.2 5.1 4.2 7.8 6.1 1.1 1.9 4.1 3.5.9.9-3.7-3.7-6.5-4.6-12.2-7-3.2-2.6-4.4-3.7-7.8-6.1-4.7-1.5-2.9-2.4 0 2.6 3.3 3 5.8 6.4 8.7 8.8 2 2.6 5.3 5.3 7.8 7 .8 1.2 3.1 1.4 0 1.8-2.7-2.4-6.5-4-9.6-6.1-4.3-1.2-6.4-3.5-9.6-6.1-2-3.1-5.4-5.5-7.8-7.9-5-2 1 1.9 2.6 4.4 1.1 3.2 2.5 5.8 3.5 8.8 1.5 2.9-4.4-.7-6.1-1.8-3.8-2.2-6.6-3.6-11.3-4.4-3.1-.7-7.1-1.3-10.4-1.8-4-1.1 2.1 2.5 4.3 6.1 4.4 4.2-4.4.7-7 0-4.3-.9-8.5-.9-13-.9-5.6.3-1.6 1 0 3.5 1.7 1.3 2.9 4.1 2.6 5.3-3.7-.5-6.8-1.6-11.3-1.8-3.6 1.2-8 .9-12.2.9-.2 2.2.8.3 2.6 2.6 3 1.2 5 2.7 4.3 4.4h-12.2-13c-2.8.8.6.4 2.6 3.5-1.1 2.8-2.6 1.8-6.1 1.8-2.4-1-7.1-1.4-9.6-2.6-2.4 0-2.3-.6-4.3-.9 7.3 5.2 3.7 3.9 7.8 7.9.7.2 2.4.9.9.9"/><path d="m517.1 224.1c-.5 0-1.7-2.8-3.5-5.3-1.2-3.2-2.8-1.4-4.3-6.1.2-4.9.4-5.8 0-10.5-3.6-2.5-5.1-3.3-7.8-7.9-4.4-3.7.6-10 1.5-14.6-3.9-.9-5.7 6-11.7 8.5-4.3 2.9-.5-6-2.6-11.1-1.4-7.3-5.7 3.7-7.3 6.8-2.9 2-3.7 4.5-7.8.9 0-2.7 2.6-10.2 1.5-11.7-4.1 2-9.4 8.1-13.7 9.1-4.2-.9.9-7.8.9-12.9-1.5-.5-7.7 13.5-10.2 13.7-2.5.1-1.4-13.7-2.6-13.4-1.8 2.6-5.6 8.1-8.1 10-4.9-.6.7-9.2 1.5-12.3.9-3.8-4.6 7.2-7.6 7.9-2.1 1.9-6.4 3.2-7.8 3.5 1.7-3.2 10-9.8 9.4-11.7-4.8.2-12.2 6.6-16.3 7.3-2.7 0-6.5.9-7 .9.2-4.2 10.1-7.7 11.7-10.2-4.9.8-14.2 5.1-16.9 8.5-3.2.7-7.3 1.6-10.4 0 .5-3.9 7.8-11.6 9.4-14.1-4.4 1.9-6.6 3.5-11.3 4.4-.9.9-3.4 2.8-2.6.9 1.4-3.7 3.5-5.3 5.2-7.9-3.9.7-5.4 3-9.6 5.3-2.7.1-10.3 7.8-12.8 7.9-6 4.4-8.4 5.2-14.8 7-4 .7-5.9 1.5-7.8 3.5 2-3.5 5-6.9 7.8-8.8 1.9-2.9 3.7-5.4 7.8-7 1-1.2 3.8-1.5.9-1.8-2.5 2.2-6.6 4.7-8.7 6.1-2.7 1.7-5.7 3.4-7 2.6 1.4-3.8 3.9-4.7 6.1-7.9 4.6-2.9 0-1-3.5 0-2.3 2-6.3 3.5-9.6 5.3-3.7 1-6.1 3.2-10.4 4.4 0 1.2 1.2-2.2 1.7-3.5 3.6-3.9 4.5-5 8.7-6.1 1-1.5 2.3-.9-.9-.9-2.4 2.1-5.6 3.3-8.7 5.3-3.1.7-7.1.9-11.3.9-5.4.7-4.9 1.1 0-1.8 2.8-2.7 5.1-2 5.2-5.3-3.3 2.4-7.2 4.1-11.3 6.1-3.4.1-4.2.9-7.8.9 1.7-1.8 2.8-4 5.2-5.3 3.6-4-2.3-.8-3.5 0h-13c-2.3 2.9-.1 0 1.7-1.8 2.2-1.2 4.6-2.7 4.3-3.5-2.6 2.3-5.6 3.3-7.8 5.3-2.4.7-5.2 1.1-5.2 1.8 1.9-2.8 5-4.5 7-7 2.9-.6 5.4-1.5 6.1-2.6h-12.2 8.7c4.4 0 8.2-.4 12.2-.9 6.9-1.2-.6-1.8-4.3-1.8-.7-1.3 2.1-2.1 5.2-2.6 2.6-1.3 5.9-2.4 8.7-3.5 2.7-.8 6.6-3.1 7-3.5-2.6.1-2.6.7-5.2.9 3.9-.3 6.7-.9 11.3-.9 4.2-1.4 7.8-2.8 11.3-4.4 1.5-1.9 2.2-1.8-1.7-1.8 3.5-1.1 8.5-1.7 11.3-2.6 4.1-.9 7.8-2.2 10.4-3.5 2.5-1.7 4-3.8 7-5.3 3.4 2.3 3.4 2.6 9.6 2.6 4.9-.1 7.9-1.2 10.4-3.5 3.8-1 4.4-2.9 8.7-3.5 3.9.7 7.8.9 12.2.9 4.2-1.1 8.2-3.2 11.3-5.3 2.7-1.3 5.8-3.2 8.7-4.4 3.2 1.6 5.7 3 9.6 3.5 4-.6 6.1-2.6 9.6-3.5 1.9-2.3 4.6-3.5 7.8-4.4 5-2.5 4.7.8 7 3.5 2.6 2.7 5.9 1.4 9.6 2.6 2 3.1 3.5 5.2 6.1 7 2 2.5 4.4 3.2 8.7 3.5 1.5 2.1.3 3.6 3.5 4.4 1.2 1.3 3.4 1.9 5.2 2.6"/></g></g><path d="m568 201.7v.4c0-1.2-.1-.6.9 1.8.3 1.9-.4 1.7-1.3 3.1-.1 2-.4 3.4-.4 5.7-.3 1.9-1.3 3.7-2.2 5.3-.8 1.6-4.5 2.6-4.3 4.8-2.1.6-2.1-.8-2.2-3.1-1.2-1.4-1.7-3.4-2.6-5.3-.6-1.8-1.8-3.2-2.6-5.3-1.3-2-2.4-2.6-3.5-4.8-.4-1.1-.4-2.4-1.3-3.1-1.4-1.8-2.3-2.1-4.8-2.2-1.9.4-2.6 1.3-4.3 1.8-1.3.5-4 .3-5.7.9-.4.7.8 1 1.3 2.6-1.1.9-1.5 2.6-2.2 3.9-1 1.3-1.7 1.9-2.2 3.9.7 1.2.1 2.8-.9 3.9-.3 2-1.3 3.1-1.7 4.8-1.4 1-1.9 1.9-3 3.5-1 1.4-1.9 1.3-4.3 1.3-1.9-.5-2.2-1.6-3.9-2.2-.2-.6-.3-.7-.9-.9" fill="none" stroke="#782600" stroke-width="3.125"/><g fill="#812e00"><path d="m518.4 219.5c0 0-.9 8.2-7 13.6-6.1 5.4-18.7 11.8-18.7 11.8s17-7 18.7-5.4c1.7 1.5-10.9 13.6-10.9 13.6s16.5-12.7 18.7-12.7 7 12.4 8.7 12.1c1.7-.3-3.9-15.7-3-18.1.9-2.4 0-15.4 0-15.4l-6.5.5"/><path d="m557.5 218.4c0 0-.9 8.7-7 14.5-6.1 5.8-18.7 12.6-18.7 12.6s17-7.4 18.7-5.8c1.7 1.6-10.9 14.5-10.9 14.5s16.5-13.6 18.7-13.6 7 13.2 8.7 12.9c1.7-.3-3.9-16.8-3-19.4.9-2.6 0-16.5 0-16.5l-6.5.8"/><path d="m502.8 139.3c0 1.6-1.8 2.9-4.1 2.9s-4.1-1.3-4.1-2.9 1.8-2.9 4.1-2.9 4.1 1.2 4.1 2.9"/></g></g></g></svg>