<svg xmlns="http://www.w3.org/2000/svg" viewBox="0 0 640 480" enable-background="new 0 0 640 480" xmlns:xlink="http://www.w3.org/1999/xlink"><defs><linearGradient id="9" gradientUnits="userSpaceOnUse" x1="860.74" y1="-93.79" x2="898.51" y2="-79.81" gradientTransform="matrix(-1.2337 0 0-1.8498 1732.06 210.81)" xlink:href="#0"/><linearGradient id="6" gradientUnits="userSpaceOnUse" x1="671.22" y1="-88.58" x2="960.09" y2="-90.1" gradientTransform="matrix(1.2155 0 0-1.8774-162.99 218.98)" xlink:href="#0"/><linearGradient id="8" gradientUnits="userSpaceOnUse" x1="886.68" y1="-88.51" x2="864.13" y2="-90.83" gradientTransform="matrix(-1.2155 0 0-1.8774 1724.63 218.98)" xlink:href="#0"/><linearGradient id="7" gradientUnits="userSpaceOnUse" x1="835.48" y1="-87.85" x2="812.44" y2="-88.77" gradientTransform="matrix(1.2337 0 0-1.8498-170.46 210.81)" xlink:href="#0"/><linearGradient id="5" gradientUnits="userSpaceOnUse" x1="852.72" x2="612.71" xlink:href="#0"/><linearGradient id="0" gradientUnits="userSpaceOnUse" x1="698.2" y1="-68.933" x2="724.7" y2="-53.873" gradientTransform="matrix(1.1715 0 0-1.165-395.6 468.47)"><stop stop-color="#a43907" stop-opacity=".996"/><stop offset="1" stop-color="#fff"/></linearGradient><linearGradient id="4" gradientUnits="userSpaceOnUse" x1="785.51" y1="-120.81" x2="723.98" y2="-125.19" gradientTransform="matrix(1.3833 0 0-1.6498-224.92 160.18)" xlink:href="#0"/><linearGradient id="1" gradientUnits="userSpaceOnUse" x1="764.66" y1="-139.52" x2="791.16" y2="-124.46" gradientTransform="matrix(-1.4814 0 0-1.5405 1822.24 132.52)" xlink:href="#0"/><linearGradient id="3" gradientUnits="userSpaceOnUse" x1="747.74" y1="-132.34" x2="720.64" y2="-133.86" gradientTransform="matrix(1.4814 0 0-1.5405-260.65 132.52)" xlink:href="#0"/><linearGradient id="2" gradientUnits="userSpaceOnUse" x1="779.16" y1="-126.67" x2="841.47" y2="-116.99" gradientTransform="matrix(-1.3833 0 0-1.6498 1786.52 160.18)" xlink:href="#0"/></defs><path fill="#006" d="m0 0h640v480h-640z"/><g transform="scale(.78125)"><path fill="#006" d="m0 0h512v256h-512z"/><g transform="matrix(7.6172 0 0 9.7548 0 .001)"><g fill="#fff"><path d="M0,0v3.4L53.3,30H60v-3.4L6.7,0L0,0L0,0z M60,0v3.4L6.7,30H0v-3.4L53.3,0H60z"/><path d="M25,0v30h10V0H25z M0,10v10h60V10H0z"/></g><g fill="#c00"><path d="M0,12v6h60v-6H0z M27,0v30h6V0H27z"/><path d="M0,30l20-10h4.5l-20,10H0z M0,0l20,10h-4.5L0,2.2C0,2.2,0,0,0,0z M35.5,10l20-10H60
				L40,10H35.5z M60,30L40,20h4.5L60,27.8V30z"/></g></g></g><g transform="matrix(1.1682 0 0 1.1682-389.21-20.789)"><path d="m671 320.6c-.7 0-1.4.1-2 .2-3.4.6-8.7 11.6-11.7 18.1-4.6 5.6-7.1 10-9 13.3-.8 1.3-1.9 2.7-1.6 4.4-7 1.7-7.3 7.7-7.3 10.1 0 2.5.8 3.7.8 3.7l4.2 7.8v.1c4.5 9.2 11.1 21.6 14.8 22.7 5.2 1.5 18.8-3.6 29-12.2 16.7 6.9 38.1 12.6 62 12.6 23.9 0 45.2-5.7 61.9-12.6 10.2 8.6 23.8 13.6 29 12.2 3.7-1 10.3-13.5 14.8-22.8l4.2-7.8c0 0 .8-1.2.8-3.7 0-2.3-.4-8.3-7.4-10.1.4-1.7-.8-3.1-1.5-4.4-2-3.3-4.4-7.7-9.1-13.4-3-6.5-8.3-17.4-11.7-18-4.7-.8-15 1.6-15 2.4 0 0-.1.4-.1.5l-20.6 19.3c0 .6 1.1 14.6 4.9 27-13.7 5-30.6 8.5-50.4 8.5-19.8 0-36.7-3.5-50.5-8.5 3.8-12.4 5-26.4 5-27l-20.5-19.4c0-.1-.1-.5-.1-.5 0-.7-7.8-2.6-12.9-2.5zm5.2 24c2.6 0 5.3 2.1 7.6 4.5-.1.5-.2.9-.2 1.4-.6 2.9-1.7 6.7-3.2 10.6-5.9-3.4-10.7-7-14.3-10.3 2.2-2.4 5.8-5.6 9.6-6.1.1 0 .3 0 .5-.1zm147.6 0c.2 0 .4 0 .6 0 3.8.5 7.4 3.8 9.6 6.1-3.7 3.3-8.5 6.9-14.3 10.3-1.5-4-2.6-7.8-3.2-10.7-.1-.4-.2-.9-.2-1.4 2.1-2.2 4.9-4.3 7.5-4.3zm-166 27.4c2.7 2.1 6.3 4.5 10.6 7-1.2.8-2.5 1.3-3.8 1.6-1.8.4-3.6.3-5.5-.1-.6-1.5-1.1-3.3-1.2-5.7-.1-1-.1-1.9-.1-2.8zm184.4 0c0 .9-.1 1.8-.1 2.8-.1 2.4-.6 4.3-1.2 5.7-1.9.4-3.8.5-5.5.1-1.3-.3-2.6-.9-3.8-1.6 4.3-2.5 7.9-4.9 10.6-7z" fill="url(#0)" stroke="#fff" stroke-width="10"/><g stroke="#000"><g stroke-width="1.16"><path d="m688.7 355.4c0 0-7.1-11.6-13-10.7-5.9.8-11.5 8.3-11.9 8.7-.4.4-9.1-9.5-8.7-9.9.4-.4 9.1-21.9 13.8-22.7s15 1.6 15 2.4c0 .7 4.8 32.2 4.8 32.2z" fill="url(#1)"/><path d="m704.5 343c0 .8-2.4 31.4-12.6 42.1-10.3 10.7-26.9 17.4-32.8 15.7-5.9-1.7-19.4-32.6-19.4-32.6s14.2 14.9 24.9 12.4c10.7-2.5 17-21.1 19-30.2 2-9.1.4-26.9.4-26.9l20.5 19.5z" fill="url(#2)"/><path d="m811.3 355.4c0 0 7.1-11.6 13-10.7 5.9.8 11.5 8.3 11.9 8.7.4.4 9.1-9.5 8.7-9.9-.4-.4-9.1-21.9-13.8-22.7s-15 1.6-15 2.4c0 .7-4.8 32.2-4.8 32.2z" fill="url(#3)"/><path d="m795.5 343c0 .8 2.4 31.4 12.6 42.1 10.3 10.7 26.9 17.4 32.8 15.7 5.9-1.7 19.4-32.6 19.4-32.6s-14.2 14.9-24.9 12.4c-10.7-2.5-17-21.1-19-30.2-2-9.1-.4-26.9-.4-26.9l-20.5 19.5z" fill="url(#4)"/></g><path d="m657.4 338.6c-4.7 5.8-7.3 10.3-9.2 13.6-2 3.3-.8 7.9 3.8 14.5 4.9 7.1 45.4 34.7 98.1 34.7 52.7 0 93.1-27.6 98.1-34.7 4.6-6.6 5.7-11.2 3.7-14.5-2-3.3-4.5-7.8-9.2-13.6 0 8.7-33.5 40-92.6 40-59.1 0-92.7-31.4-92.7-40z" fill="url(#5)" stroke-width="1.5"/><g stroke-width="1.16"><path d="m840.2 396.3c.8-1.2 9.1-15.7 9.1-15.7l-4.5-3.4c-1.4 4.1-6.5 5.4-7.3 10.4-.9 4.9 3.5 9.9 2.7 8.7z" fill="url(#6)"/><path d="m848.4 391.8c0 0 1.6-7-3.6-7.9-5.1-.8-7.9 3.9-7.1 2.1.8-2.1 4-4.1 4.3-11.2.4-7-.4-10.7-.4-10.7s2-9.1 10.3-7.9c8.3 1.2 8.7 7.9 8.7 10.3s-.8 3.7-.8 3.7l-11.4 21.6z" fill="url(#7)"/></g></g><path d="m819.6 365.6l1.7 3 1.1-.7-.8-2 .1-.4 2-1.2 5.2 9.1-.1.4-1 .8.5.8 4.9-3.1-.5-.8-1.1.6-.4-.1-5.2-9.1 2-1.2.4.1 1.3 1.6 1.1-.7-1.7-3-9.5 5.9"/><path d="m807.4 372.6l.4.9 1-.4.4.1 4.5 9.2-.1.4-1 .6.4.8 4.9-2.6-.4-.9-1.1.5-.4-.1-2.1-4.4 5-2.6 2.1 4.4-.1.4-1 .6.4.9 4.8-2.6-.4-.9-1 .4-.4-.1-4.5-9.2.1-.4 1-.6-.4-.8-4.9 2.6.4.9 1.1-.5.4.1 1.8 3.8-5 2.6-1.8-3.8.1-.4 1-.6-.4-.8-4.8 2.5"/><path d="m804.6 380.5l.3.9 1.4-.3.4.2 1.1 3.8c-.5.2-.8.3-1 .4-2.8.9-5.1-.5-6.1-3.9-.9-3.3.2-5.7 3-6.6.5-.2 1.1-.2 1.6-.2l.4.2.9 1.9 1.3-.4-.9-3.2c-1.5 0-2.9.2-4.1.6-4.1 1.3-6 4.7-4.9 8.5 1.1 3.9 4.5 5.7 8.4 4.5 1.3-.4 2.6-1.1 3.9-2.1l-1.2-4.3.2-.4 1-.4-.3-.9-5.4 1.7"/><path d="m793.2 391.2l5.5-1.7-.3-.9-1.3.3-.4-.2-3-9.9.2-.4 1.2-.5-.3-.9-5.5 1.7.3.9 1.2-.3.4.2 3 9.9-.2.4-1.2.5.4.9"/><path d="m763.4 396l9.7-.9-.3-3.5-1.2.1-.1 2.1-.2.3-4.2.4-.4-5 2.3-.2.3.2.3 1.4 1.1-.1-.4-4.5-1.1.1-.1 1.4-.2.3-2.3.2-.4-4.6 3.6-.3.3.2.4 1.7 1.3-.1-.3-3-9.1.8.1.9h1.1l.3.2.9 10.3-.3.3-1.1.2v1.1"/><path d="m749 383.3v1l1.1.1.3.3.2 10.3-.3.3-1 .1v1l5.1-.1v-1l-1.1-.1-.3-.3-.1-4.9 5.2-.1.1 4.9-.3.3-1.1.1v1l5.1-.1v-1l-1.1-.1-.3-.3-.2-10.3.3-.3 1-.1v-1l-5.1.1v1l1.1.1.3.3.1 4.3-5.2.1-.1-4.3.3-.3 1.1-.1v-1l-5.1.1"/><path d="m738 382.9v3.4h1.2l.3-2.1.3-.2h2.2l-.1 10.6-.3.3-1.2.1v1l5.4.1v-1l-1.2-.1-.3-.3.1-10.6h2.2l.3.3.3 2.1h1.2v-3.4l-10.4-.2"/><path d="m721.3 393.9l9.5.5.2-3.5-1.2-.1-.4 2-.2.3-4.2-.1.2-5 2.3.1.2.3.1 1.4 1 .1.2-4.5-1-.1-.2 1.4-.3.3-2.3-.1.2-4.6 3.5.2.2.3.2 1.7 1.2.1.1-3-8.9-.4v1l1.1.2.3.3-.5 10.3-.3.3h-1.1l.1.6"/><path d="m699.6 388.3l5 1.7.3-.9-1.1-.5-.2-.4 3-9.9.3-.2 1.2.3.3-.9-5-1.7-.3.9 1.1.5.2.3-3 9.9-.4.2-1.1-.3-.3 1"/><path d="m690.7 384.8c.9.8 2 1.3 3.1 1.7 2.8.9 4.9-.1 5.6-2.3.3-1.1.1-2.3-.7-3.3-.8-1-1.6-1.6-2-2.1-.7-.9-1-1.6-.7-2.5.3-1 1.3-1.5 2.5-1.1.5.2.9.4 1.1.7l.2.3-.3 2 1.2.4.9-3c-.9-.8-1.9-1.3-3-1.7-2.4-.8-4.5.3-5.1 2.3-.3.9-.2 1.9.4 2.9.5.9 1.2 1.5 1.8 2.1 1 1.1 1.4 1.9 1.1 2.9-.3 1-1.3 1.5-2.7 1-.5-.2-1-.4-1.4-.8l-.1-.4.4-2.3-1.3-.4-1 3.6"/><path d="m679.3 380.1l8.6 4.3 1.4-3.1-1.1-.5-1.1 1.7-.3.2-3.7-1.8 2.1-4.6 2.1 1 .1.4-.4 1.3.9.5 1.9-4.1-.9-.5-.9 1.1-.3.1-2.1-1 1.9-4.2 3.2 1.6.1.3-.5 1.7 1.1.6 1.3-2.8-8-4-.4.9.9.6.1.4-4.3 9.3-.4.2-1-.4-.3.8"/><path d="m677.9 364.5l-4.3-3-.5.8.8.7.1.4-5.4 8.6-.4.1-1-.5-.5.8 4.3 3c1.5 1 2.7 1.5 4.1 1.4 1.8-.2 3.4-1.2 4.6-3.2 2.2-3.4 1.6-6.8-1.8-9.1m-1.8 0l.9.6c2.3 1.6 2.6 3.9.6 6.9s-4 3.8-6.3 2.1l-.9-.6 5.7-9"/><path d="m710.4 378l-.2.9 1 .3.2.3-2.1 10.1-.3.2-1-.1-.2.9 4.9 1.1.2-.9-1-.3-.2-.4.9-4.3.3.1c1.7.4 2 1.3 2.2 3.2.1 1 .1 1.9.8 2.8.3.5.9.8 1.7 1 .5.1 1.1.2 1.8.2l.2-.9h-.2c-1.2-.3-1.6-.7-1.8-1.8-.1-1-.1-2.1-.4-3-.3-.7-.8-1.2-1.6-1.6 2 0 3.3-.8 3.6-2.6.4-2.1-.7-3.6-3.4-4.1l-5.4-1.1m3.3 1.8l.8.2c1.7.4 2.4 1.4 2.1 3-.4 1.8-1.4 2.4-3.3 1.9-.2 0-.4-.1-.6-.2l1-4.9"/><path d="m777.1 380.9l.1.9 1.1-.1.3.2 1.6 10.2-.3.4-1.1.3.1.9 5.4-.9-.1-.9-1.2.1-.4-.3-.7-4.3.3-.1c1.9-.3 2.5.4 3.4 2.1.4.9.8 1.7 1.9 2.3.5.3 1.3.4 2.1.3.6-.1 1.2-.3 1.9-.5l-.1-.9h-.2c-1.3.2-1.9 0-2.5-1-.5-.9-.8-1.9-1.5-2.7-.5-.5-1.2-.8-2.2-.8 2.1-.8 3-2.1 2.8-3.8-.3-2.1-2-3-5-2.5l-5.7 1.1m4.1.5l.9-.1c1.8-.3 3 .4 3.2 2 .3 1.8-.6 2.7-2.6 3.1-.2 0-.4.1-.7.1l-.8-5.1"/><g stroke="#000" stroke-width="1.16"><path d="m659.8 396.3c-.8-1.2-9.1-15.7-9.1-15.7l4.6-3.4c1.4 4.1 6.5 5.4 7.3 10.4.8 4.9-3.6 9.9-2.8 8.7z" fill="url(#8)"/><path d="m651.5 391.8c0 0-1.6-7 3.6-7.9 5.1-.8 7.9 3.9 7.1 2.1-.8-2.1-4-4.1-4.3-11.2-.4-7 .4-10.7.4-10.7s-2-9.1-10.3-7.9c-8.3 1.2-8.7 7.9-8.7 10.3s.8 3.7.8 3.7l11.4 21.6z" fill="url(#9)"/></g><path d="m750 372.6c0 0-95.4-28.1-94.8-135.1l.7-141.4h188.2l.7 140.6c.6 107-94.8 135.9-94.8 135.9z" fill="#0072c4" stroke="#fff" fill-opacity=".996" stroke-width="3.867"/><g><path d="m669 128.2c.2 0 1.3-1.1 2.4-2.1 1.5-.7 2.8-1.8 4.3-2.5 1.1-.6 3.3-1.2 4.3-1.7 1.3-.7 2.4-1.5 3.6-2.9.1-1.8.4-3.2.4-5.4 1.6-.8 3-1.5 4.3-2.1 2-.6 2.4-1.3 4.3-1.7 1.2-.4 3.3-.4 5.1-.4 2 0 3.2 1.4 5 1.7 2.1.8 3.1 1.4 4.7 2.9.9 1.2 1.5 2.2 3.1 3.1 1.3.7 2.5 1.6 4 2.1 1.6.9 3.1 1.5 4.3 2.9 1.2.8 1.6 2.1 2.8 2.9 1.3 1.1 2.5 2.1 4 2.9 1.7 1.1 3.4 2 6.1 1.7 1.5-.1 3-.3 4.7.1 1.9 0 3.8 0 5.5.4 2 0 3.6.3 5.5.4 1.8.3 3.6.4 5.5.4 1.7.4 3.6.4 5.5.4h5.5 5.5c2 0 4.1.1 5.5.4 2 0 3.7-.2 5.5-.4 2.1 0 3.8-.4 5.9-.4h6.7c1.7.5 3.9.8 5.1 1.7 1.6.5 2.4 1.2 4 1.7 1.2.6 3.1 1.6 4 2.9 1.1 1.2 2.3 2.8 3.2 4.5 1.1 1.6 1.5 3.4 2.4 5.4.5 1.9.8 3.7.8 5.8.4 1.8.4 3.8.4 5.8-.5 1.9-.6 4-1.2 5.8-.1 2-.5 3.8-.8 5.4-.4 1.7-.8 2.8-.8 5v5.8c-.1 1.9-.6 3.3-.8 5.4-1 1.8-1.9 3.9-2.8 6.2-1.3.9-2.5 2.2-3.2 3.3-.8.5-1.3 1.3-1.2 1.7 1.6.6 1.2 1.6 1.2 3.7.2 1.6.4 3.6.8 5.4.1 2 .6 3.2 1.2 4.5.6.8.7.4-.8.4-1.1.9-2.3.4-2.8-1.2-.9-1.1-1.2-2.5-1.6-4.5-.2-1.9-.5-3.8-1.2-5-.2-2.3-.8-2.3-3.2-2.5-1.1-1-2.6-1.2-4.7-1.2-2.2 0-2.3-.2-2.4 2.1v5.8c-.4 1.7-1.2 3-1.6 4.5-1.2.9-1.8 2.3-3.2 3.3-.7 1.9-1.6 2.2-3.6 2.5-.7-.9-1.8-2-2.4-2.9 1.1-1.9 2.1-2.1 2.8-4.1.8-1.6 1.3-2.7 2-4.1-.8-1.3-1.6-1.9-2.4-3.7-.7-1-1.6-3.2-2-4.5-1.3-.5-3.3-.5-4.3-1.2-1.9-.4-2.5 1.7-4.7 1.7h-5.5c-2.4 0-3.1 1.4-5.1 1.2-.6.2-2.1-.1-4.3 0-1.7.6-3.6.4-5.5.4-2 0-3.6-.5-5.1-.8-1.8-.5-3.6-1-5.5-1.2-2.3 0-3.2.2-4.7 1.2-1.2.7-3 2.4-4.3 3.3-.6 1.4-.9 3.7-1.6 5.4-.4 1.6-1.1 2.6-1.6 4.1-.5 1.4-1 2.8-1.2 5-.1 2.8-.7 2.4-2.4 1.7-.7-1.2-1.8-2.4-2.4-3.7.4-2.1.8-3.1.8-5.4-.4-1.6-1.3-1.6-2.4-.4 0 2.2.1 3.8-.8 5-.4 1.7-1.2 2.4-2.4 3.3-.6 1.5-1.9 2.2-3.2 2.9-.2-.1 0-.6 0-1.7-.9-1.9-.1-3.5-.1-5.8 0-2.1-.1-3.5.5-5.4 0-2-.9-3.9-1.2-5.4-.7-1.5-1.2-2.3-3.2-2.9-1.4-.6-3.4-1.3-4.3-2.5-1.1-1.5-1.9-2.1-3.6-2.9-1.8-.7-2.7-1.3-4-2.1-1.2-1.3-2.2-1.9-2.8-3.7-.8-1.3-1-3.6-1.6-5.4-.1-1.8-.7-3.5-1.2-5-.2-1.8-.5-3.1-1.2-5-.2-1.7-.7-3.5-1.2-5.4 0-2 0-4-.4-5.8v-5.8c-.3-1.7-.4-4.1-.8-5.4 0-2.2-.2-3.5-.8-5-.9-1.5-1-2.1-2.4-2.5-1 1.3-2.7 1.8-4.7 2.1-1.5-.3-3.5-.5-5.1-1.2-1.6-.4-2.7-1-4-1.7-.7-1.1-1.5-2.3-2.4-3.3-.2-2.2-.7-3.3-.8-5.4.7-1.6.7-.8 2.3-2.9" fill="#bcbcbc"/><g fill="#fefefe"><path d="m692.4 143.1c.1-.1.2-.2.3-.3-.6.7-.4.3 1.1-.3.8-.5 2.5-1.5 3.1-2 .7-.3 1.9-.8 2.5-1.5.8-.8 1.6-1.5 2.5-2.3 1.1-.9 2.1-1.2 3.4-2 1.6-.1 2.2-.8 3.6-.3 1.4.3 2 .3 3.1-.9 1.1-.7 2.4-1.4 2.8-2.6v-1.8c0 1.9-.4 2.5-1.7 3.2-.9 1-2.1 2.2-2.5 3.2-.9 1.3-1.1 2-2 2.6-.7.9-2 1.4-2.2 2.9.4.7 0 1.1.8 1.2.8.7 1.7.4 2.8 0 1.1-1.3 1.6-2.2 2.2-3.5.9-1.3 1.5-1.9 2-2.9 1-.7 1.6-1.3 2-2.3 1.1-.7 2-1.4 2.8-2 .8-.5 1.3-1 2.5-1.2 0 1.6-.3 2.3-.8 3.2-.3 1.6-.2 2.4.3 3.5.8.5.7.9 1.1 2 .5-1 .7-2.9.8-4.1v-.3c0 1.3.1 3-.3 3.8 0 1.7.4 2.5.8 3.8.5.6.8 1.1 1.4 1.5.1-1.7.5-2.8.6-4.4.4 1.2.3 2.8.6 4.1.1 1.4.6 2.4 1.1 3.5.6.4.9 1.6 1.1.6.7-2.1.7-4.3 1.1-6.4.1-1.1.2-2.7.6-3.5l-.6 3.5c.1-1.1.2-2.7.6-3.5v-.3c.3 1.5.5 3 .6 4.7 0 1.3-.1 2.7.3 3.8.9-.4 1.5-1.4 2-2.6.7-1.4 1.3-2 2.2-3.2l-2.2 3.2c.7-1.4 1.3-2 2.2-3.2v-.3c-.2 1.3-.3 2.6-.3 4.1 0 1.3 0 2.9.3 3.8.3 1.5.8 1.8.8 3.5 0 .8-.1 1.6.3 2 1.2.3 1.2-.4 1.4-2 0-1.9.5-3.2.6-5 0-2.2.3.3.6 1.2.6 1.3.7 2.5.8 3.8 0 .8-.1 1.6.3 2 1.1-.4 1.5-1.7 2.2-2.3.6-1.4 1.1-2 1.7-2.9 1.4-.3 1.4-.9 1.4-2.6 0-1.4-.1-2.9.3-4.1.4-1.3.9-2.7 1.1-3.8.5-.3 1.1.5 1.4 1.2.6.9.6 2.3.6 3.8.3 1.3.8 2.3 1.4 3.5.7 1.4 1.3 2.2 2 2.9.3.9.3 2.5.3 3.8 1.1-1.2 1.3-3.1 1.4-5-.1-1.3-.2-2.9-.6-4.1 0-1.3-.3-2.6-.6-3.5-.9-.5-1.1-.9-.3-2 .9-.8 1.9-.5 3.4-.3.7.8 1.1 1.2 1.1 2.9 0 1.6.1 2.8.6 3.8.5.8 1.1 1.4 1.4 2.9.4.4.8 1 1.4.3.4-.9.6-2.6.8-3.5.3-1.1.8-1.7 1.4-2 0 1.6 0 2.6.6 3.8.5 1.3.9 1.8 1.4 3.2.6.4.7 1.3 1.4 1.8.2-1.4.3-2.9.3-4.7v-4.1c.1-1.4.4-2.2.8-3.2.9 1.1.8 1.6.8 3.2.9-.3 1.1-1 1.4-2 .7-.6.8-.8 1.1.6.2 1.5.6 2.9.8 4.4.6.7 1.2 2.3 2 2.9.5.8 1 1.6 1.7 2.3.4 1 .5 1.5 1.7 1.8 0-2 .1-4-.3-5.8 0-1.7-.4-2.3-.6-3.8-.5-1-.7-2.5-.6-2.9 1.3 1.3 1.9 2.1 2.5 3.5.7 1.4 1.2 2.3 1.7 3.8.6.6 1.8 2.2 2.2 2.9 1 .9 1.5 1.8 2.5 2.6.5.5 1.7.8 2 .6-.1-1.7-.3-3.2-.8-4.7 0-1.6-.4-2.5-.8-3.5-1.1-.9-1.9-1.6-2.5-2.9-.4-.4-.5-.6-.6-1.5 1.6 1.3 2.7 2.5 3.9 4.1.8 1 1.2 1.5 2.2 2 .6.6 2.2 1.4 3.4 1.8.7.9 1.6 1.5 2.8 1.8l-2.8-1.8c.7.9 1.6 1.5 2.8 1.8v.3c-.1-1.8-.8-3.2-1.7-4.7-.7-1.6-1.4-2.2-2.5-3.2-.7-1.2-1.5-1.8-2.8-2.6-.8-.9-1.9-2.4-2.5-2.9 1.2-.7 2.6.5 3.9 1.2 1.1 1.2 2.1 2.7 2.8 3.5.7 1.5 1.3 2.4 2.5 3.8 1.2.7 2 1.4 3.1 2.3 1.6.4 1-.1.6-1.5-.6-1.6-.1-1.7 1.1-.6.8.6 1.6 1.5 2.8 2 .5.6 1.2 1 2 .6.3-.4.3-.4.3-.9-.6-1.8-1.1-3.2-2.5-3.8-.6-.8-1.7-1.8-2.5-2.6-.6-.9-1.2-1.3-1.7-2.3l1.7 2.3c-.6-.9-1.2-1.3-1.7-2.3h-.3c1.7.1 2.3.5 3.6 1.2 1 .3 2 1.3 2.5 2 .5.7 1.4 1.5 2 2.3.9.7 1.8 1.4 2.8 2 .9 1.2 1.1 2 1.1 3.8.5.8.6 2.5.8 3.5-.2 1.6-.8.3-.8-.6-.2-1.3-.7-1.2-1.7-.9 0 1.8.2 2.2.8 3.5-.2 1.2-.6 2.1-1.1 2.9-.7.4-.8-.9-1.4-1.5-.1-1.8-.6-2-1.7-2.9v1.2c.6 1.2 1.3 2.4 1.4 4.1.4 1.3.6 2.1.6 3.8 0 1.4 0 2.8-.3 4.1 0 1.6-.3 2.3-.3 3.8v4.1 4.1c-.2 1-.3 2.4-.3 3.8l.3-3.8c-.2 1-.3 2.4-.3 3.8v.3c-.5-1.5-1.1-2.8-1.4-4.4-.9-.9-1.5-1.8-2-2.9-.2-1.3-.3-2.8-.6-3.8-.4-1-.8-2.1-1.7-1.5-.3 2.2.1 3.5.8 5.6.4 1.4.4 2.5.8 3.8.6 1.5 1.2 1.8 0 3.5-.6.9-.9 1.2-1.1 2.3-1 .5-1.3.8-1.4 2-.3-1.1-1.2-2.5-1.7-3.8-.5-1.4-1.1-2.8-1.4-4.1-.7-1-1.5-2.6-2.2-3.2-.7-.9-1.7-2.5-2.2-3.5-1.1-1.2-1.3-2-2.2-2.6-.2-.6-.5-1.3-1.1-.9 0 1.4-.1 2.9.3 4.1.3 1.7.8 2.7.8 4.4v3.2c-.7-1.6-1.4-3.1-2-4.7-.6-.9-1.2-2.6-2-3.2-.5-1.1-.8-2.1-1.4-2.9-.1-.8-.5-.8-.8-1.5 0 1.7.5 2.2.8 3.5.5 1.1.7 3 .6 3.5-.7-2-1.3-4.3-2.2-6.1-.8-1.2-1.7-2.7-2.2-3.8-.8-1-1.7-1-2.5-1.8-.8-.4-1.5-.8-2-1.5.2 1.5.8 2.5 1.1 3.8.2 1.5.8 2.6 1.1 3.8-.3 2-.8-.6-1.1-1.5-.3-1.6-.8-2.6-1.4-3.5-.7-.5-1.4-1.5-2.2-2-.8-.3-.6.1-.6 1.2 0 1.8.1 3 .6 4.1.6.9.6 2 .6 3.5 0 1.4-.3 2.6-.3 4.1v2.3c-.6-1.2-1.3-1.9-1.7-3.5-1-1.3-1.3-2.3-2-3.8-.6-.3-1.6-.5-2.2 0 .1 1.5.8 2.1.8 3.8-1.1 1.1-.9 1.5-1.7-.3-.6-1.3-1.4-1.3-2.2-2-1.4-.2-1-1.1-1.4-2.3 0-1.1.1-2.3-.3-3.2-1.5 0-2.4-.1-3.4.9-.4.9-.3 2.6 0 3.8v4.1c-.3 1-.9 1.1-1.1 2.3-.5 1.2-.7 2.6-1.1 3.5-1 .9-.6 1-1.1-.6v-5.3-4.2c0-1.6.2-2.4.3-3.8-.6-1.2-.7-1.4-2.5-1.5-.4.8-.3 2.2 0 2.9 0 1.4.1 2.8.3 3.8 0 1.6.2 2.5.3 3.8-.1 1.5-.3 2.8-1.1 3.5-1 .3-.1.9-1.1 1.2-1-.5-2.2-1.2-3.1-2-1.1-.3-2.1-.6-3.6-.6-1.9 0-1.9-.2-2.5-1.8-.6-1.6-.8-3-1.1-4.7-.6-1.4-.8-2.3-1.1-3.8-.5-.9-1-1.6-1.7-2-.4 1.5-.8 2.7-.8 4.4-.3.7-.4 2.4-.6 3.2-.6-.9-.8-2.6-1.1-3.8-.5-1.8-1-2.9-2.8-2.3-1.9 0-1.9.1-2 2 .8 1.3 1.7 2.5 2.2 3.5v4.1c0 1.7.1 2.2-1.1 2.6-.5-1.8-1.4-3.4-2.5-5-.1-1.2-.5-.9-1.7-.9-.8 0-1.6-.1-2 .3 0 1 .1 2.4 0 2.6-.7.1-.9 0-1.4-.6-.5.9-.1 2 0 3.2-.4 1.3-.8 2.5-1.4 3.2-.1-.4-.4-.3 0-.3-1.9-.7-3.4-1.2-5-1.8-1 .1-1.7 1-2.2 1.8-1.4.5-2 .9-3.6.9-1.5 0-2.3.2-3.6.3-1 .2-2.3.3-3.6.3-.8-.2-2.1-.2-2.5-.6.6-.9 1.2-1.3 1.7-2.6.8-.5 1.5-1.2 2.2-2 .7-.5 1.6-1.6 2.2-2.3.4-1.4 1-1.7 2-2.3 1.7.1 2 .6 3.6.9 1.6.6 2.5.8 3.4-.3 1.3-.6 2.5-1.4 3.9-1.8 1.1-.6 1.8-1.1 2.8-1.8 1.2-.7 1.8-1.5 2.8-2.3.3-1.2 1.1-2.1.8-3.5-1.5-.4-2.5-.2-3.4.6-1.2 1-1.5 1.4-2.8 2.3-1.2.3-1.7.8-3.1 1.2-1.2.4-2.6.3-3.9.3-1.2 0-2.8-.1-3.6.3 1.2-.8 2.7-1.7 3.9-2 1.1-.8 1.6-1.1 3.1-1.2.7-.9 1.4-.9 1.7-2.3.5-1.7-1-1.2-2.2-.6-1.1.2-2.4 1-3.4 1.5-.9.3-2.3.6-3.6.6-.4-.5.3-.9.6-1.8 1.3-.5 1.5-.6 1.7-2-1.5.2-2 .7-3.4.9-1.4.4-2.9.5-4.5.6h-3.9c-1.4-.1-2.1-.3-3.6-.3-1.1-.6-1.1-.9-1.1-2.6.9-1 1.7-.9 3.4-.9 1.3-.6 2.2-.9 3.1-1.5 1-.2 1.7-.7 1.4-1.2h-3.9c-1.5-.6-.1-.9.8-1.5 1.4 0 2.8.1 3.6.6 1.7-.1 2.3-.6 3.6-1.8 1.1-.9 1.6-1.4 2.8-2 .9-1 1.7-1.5 2.2-2.3 1.1-1.1 1.9-1.7 2.5-2.6.7-.4 1.2-.9.8-1.5-1.8.2-2.5.9-3.6 1.8-.7.7-1.3 1.3-2.2 1.8-1.3.7-2 1-3.6 1.2-1.4 0-2.5-.2-3.9-.3-1.5-.2-.1-.5.3-1.2.6-.4 1-1.3.6-2-1.2-.4-2.6-.3-3.9-.3h-3.9c-1.5-.1-2.1-.4-3.1-.9-.3-.8.1-.6 1.1-.6 1.3-.1 2.3-.2 3.6-.6 1.3-.4 1.5-.8 1.7-2.3-1.3 0-2.7 0-3.6-.3l-2.9-.1"/><path d="m668.2 136.5c-.2-2.2-.7-3.3-.8-5.4 0-1.6 0-.7 1.6-2.9.2 0 1.3-1.1 2.4-2.1 1.5-.7 2.8-1.8 4.3-2.5 1.1-.6 3.3-1.2 4.3-1.7 1.3-.7 2.4-1.5 3.6-2.9.1-1.8.4-3.2.4-5.4 1.6-.8 3-1.5 4.3-2.1 2-.6 2.4-1.3 4.3-1.7 1.2-.4 3.3-.4 5.1-.4 2 0 3.2 1.4 5 1.7 2.1.8 3.1 1.4 4.7 2.9.9 1.2 1.5 2.2 3.1 3.1 1.3.7 2.5 1.6 4 2.1 0 1.5.3 1.2-.7 1.2-.1 1.5-.5 1.4-2 1.5-1.1-.6-1.9-1.4-2.5-2.3.6-1.5.2 1.2 0 1.8-.7.6-1.1 1.2-2 .6-.5-1.4-.8-2.4-.8-4.1-.2-1.8-.7-.5-1.1.3-.4 1.5-.2 2 .3 3.2-1.4 0-2.5-.1-3.6-.3-1-.3-2.2.1-3.4.6-1.5.9-1 .9-.3 2 1.3.4 2.2 1.1 3.4 1.8 1.3-.3 2.6-.5 3.9-.9 1.3-.5 2.6-.2 3.9 0 .7.4 1.6.4 2 .9 0 .9.1 1.8-.3 2.3-.6.4-1.1 1.5-2 1.8-1.2.7-2.5 1.2-3.9 1.5-1.7.1-2.3.4-3.6 1.2-.2 1.5-.6 1.9-2 2.3-1.3.6-2.3.9-3.9.9-.8 0-1.6.1-2-.3 1.2-1.4 1.6-2.1 2.2-3.5.2-.6.7-1 .3-1.5-1.7.1-2.1.1-2.2 1.8-.2 1.5-.8 1.8-2 2.3.3-1.4.4-2.5.8-3.8-1 .2-2.3.3-3.6.3-.8.5-1.2.7-.8 1.8-1.1.4-2.5.2-3.9 0-1.2-.1-.5-.6-1.4-1.2-.6-1.1-1.2-1.4-2.5-1.5-.6.8-1.8 1.1-2.5 1.8-1.2.4-2 .1-3.1-.6-1.4 0-1.2.5-.8 1.5.5.4 0 .8.8.9.8.7 1.5.9 3.1.9 1.2-.3 2.5-.3 3.9-.3 1.4 0 1.1.4 1.1 1.8-.9.6-2.2.6-3.6.6-1.3-.2-2.4-.5-3.4-.9-1.3-.1-2.4-.3-3.4 0-.5.5-1.8.7-.3.9.6.6 3.8.3 4.1 1.3.8.8.6 2-.7 2-.8-.4-1.4-.3-2 0-.9.2-2 .1-3.7.2 2.4-.1-1.3-2.5-2.1-3.5"/></g><g fill="#bcbcbc"><path d="m677 126.7c-.1 0-.9.6-1.7 1.2-1.2.7-2.5 1.8-3.4 2.3-.6.5-.6.7-1.4.9 1.3-.2 1.9-.5 3.1-1.2 1.5-.2 2.9-.5 3.6-1.2.8-.2 0-1.4-.2-2"/><path d="m689.9 113c.2 0 .5.9 1.1 1.5.4 1.1.8 1.9.8 3.2.3-1.4.9-2.6 1.1-4.1-.4-.8-.5-1.1-1.7-1.2.1.8.2.3-1.3.6"/></g><path d="m681.2 125c-.6 0 1.1-.7 1.7-.9.5-1 .8-1.7 1.7-2.3 1.4.1 2.1.5 2.8 1.5 1.2.3 1.6.9 3.1 1.2.5.5 1.3.5 0 .9-.9.5-2 .6-3.4.6-1.4.1-2.5.4-3.4.9-1.8-.2-1.5-.1-2.5-1.9z" fill="#c4c4c2" stroke="#000" stroke-width=".875"/><g fill="#bcbcbc"><path d="m694.9 113.3v.3c0-.8 0-.4.3 1.2.5 1 .6 2 .6 3.5.7-.5 1.3-1.6 1.7-2.6-.1-2.4-.4-2.3-2.6-2.4"/><path d="m705.2 146.9h.3c-.8 0-.4.1 1.1-.9 1-.7 1.7-1.7 3.1-2 1.3-1.1 2.3-1.6 3.6-2 .7-.3 1.2-.9 2-.3-.2 1.4-.4 2-1.7 2.6-.6.8-1.6 1.3-2.5 1.8-.9.4-1.9.4-2.2 1.5-1.5.6-1.7.4-3.7-.7"/><path d="m710.6 155.4c.5-.4 2.2-2.2 3.1-2.9.9-1.3 1.9-2.3 2.8-2.9.8-1.3 1.9-2.1 2.5-3.2.8-1 1.3-1.8 2.2-2.9 0 1.3-.1 3 .3 3.8 0 1.8-.2 2.2-.8 3.5-.6 1-1.1 1.7-2.5 2.3-1.3.7-2 1-3.1 1.8-.8.5-1.6 1-2.5 1.5-.9.2-.5 0-2-1"/><path d="m701.9 162.1h.3c-.8 0-.4.1 1.1-.9 1.2-1.2 2.1-1.7 3.6-2.3 1.1-.1 2.5-.4 3.4-.9.7-.1 1.1-.6 1.7 0 .9 1.2 1.1 1.6-.3 2.3-.7.6-1.8 1.2-2.8 1.5-.7.6-2.1.6-3.4.9-1.1 0-1.8.1-2.2-.6l2.2.6c-1.1 0-1.7.1-3.6-.6"/><path d="m713.9 162.1v-.3c0 .8 0 .4.6-1.2 1-1.6 1.4-2.5 2.8-2.9.6-.8 1.7-1 3.1-1.5.5.9.1 1.9 0 2.9-.4 1.1-1.4 1.9-2 2.6-.9.6-1.2 1.2-2.5 1.5-1.1 0-.5 0-2-1.1"/></g><path d="m686.5 124.1c0 .8-.6 1.5-1.4 1.5-.8 0-1.4-.7-1.4-1.5 0-.8.6-1.5 1.4-1.5.8 0 1.4.7 1.4 1.5"/></g><g transform="matrix(1.0079 0 0 1.0079-15.16 2.199)" stroke-opacity=".996" fill="#005120" stroke="#002b0d" fill-opacity=".996"><path d="m699.5 201.8h1.1c-3.5 0-1.4-.2 4.4 4.6 2.4-2.1 2.4-2.4 4.4 1.2 1.2 2 1.5-.2 3.3-2.3.9 4.2 1.4 8.6 4.4 4.6 3.4 0 7-.3 8.9 1.2 2.2 4.4 1.5-.7 3.3 1.2 4.9.6 4.8-4.4 10.1-5.7 3.3 4.3 4.8 1 8.9-1.2 3.1.9 5.9 5.7 6.5 1 2.5-4.3 2.7-3.9 4.4 0 2.4 2.3 3.5-1.1 5.5-2.3 3.7 2.3 7.9 2.6 13.3 1.2.9 3.9 3.3 2.2 5.5 1.2 4.9 2.2 6.6 2.8 12.2 0 2.8-3.4 1.2.1 3.3 2.3 4.1-1.3 3-1.6 7.8-1.2 4.8 0 5.2-.1 6.7-3.5 2.4 2.5 3.3 4.3 6.7 1.2 5.2.2 3.6.7 6.7-1.2 2.3 5.3 2.8 1.5 5.5 3.5-1.8 4.8-4.6 7-7.8 9.3-2.1 3.7-3.5 7.7-7.8 9.3-3.1 3.3-6.5 5.3-10 8.1-4.8 1.3-10.1 1.2-15.5 1.2h-15.3-15.5-15.5c-3.3 1.7-8.7 2.6-13.3 3.5-5.1 0-10.9.1-14.4-1.2-2.4-2.5-6.5-5.3-8.9-8.1-2.4-2-2.4-5.9-4.4-8.1-1.9-3.3-2.4-8.5-4.4-11.6l-.1-8.2z"/><path d="m807 212.2v1.2c0-3.2.1-1.5-2.2 4.6-.5 1.5-1.5 1.8-3.3 2.3"/><path d="m797.1 216.9h1.1c-4.1 4.1-6.9 5.9-7.8 10.4l7.8-10.4c-4.1 4.1-6.9 5.9-7.8 10.4"/><path d="m781.5 211.1c0 .1-.2 4.1-1.1 5.8"/><path d="m777.1 219.2v1.2-1.2z"/><path d="m768.2 212.2h1.1-1.1c.4 0 .8 0 0 0z"/><path d="m706.1 212.2c.5 0 2.7 3.7 5.5 5.8-.7 3.4-1.8 7.3 0 10.4"/><path d="m715 219.2c.5 0 2.7 3.7 5.5 5.8l-5.5-5.8c.5 0 2.7 3.7 5.5 5.8v1.2c0-3.6-.3-7.3 1.1-9.3 1.2 2.2 2.8 5.7 3.3 2.3 6.2-.2 9.3-2.1 13.3-3.5 0 1.7-.3.9 1.1 2.3"/><path d="m814.8 213.4h1.1c-2.1 1.8-3.7 5.5-5.5 8.1"/><path d="m769.3 209.9h8.9"/></g><g fill="#fff"><path d="m687.2 222.7c-13.4 0-17.9 14-31.3 14-.3 0-.5 0-.8 0v.9c-.1 9.7.7 18.8 2.1 27.3 12.4-.9 17-14 30-14 13.4 0 17.9 14.1 31.4 14.1 13.4 0 17.9-14.1 31.4-14.1s17.9 14.1 31.4 14.1 17.9-14.1 31.4-14.1c12.9 0 17.6 13 29.9 14 1.5-8.7 2.3-18 2.2-28.1-.3 0-.5 0-.8 0-13.4 0-17.9-14-31.3-14-13.4 0-17.9 14-31.4 14-13.4 0-17.9-14-31.4-14s-17.9 14-31.4 14c-13.4-.1-17.9-14.1-31.4-14.1"/><path d="m687.2 277.5c-10.5 0-15.5 8.5-23.5 12.3 2.8 7.7 6.2 14.8 10 21.3 3.8-2.9 7.9-5.4 13.5-5.4 13.4 0 17.9 14 31.4 14 13.4 0 17.9-14 31.4-14 13.4 0 17.9 14 31.4 14s17.9-14 31.4-14c5.5 0 9.5 2.4 13.3 5.2 3.8-6.4 7.2-13.5 10-21.2-7.9-3.8-12.9-12.2-23.3-12.2-13.4 0-17.9 14-31.4 14-13.4 0-17.9-14-31.4-14-13.4 0-17.9 14-31.4 14s-17.9-14-31.4-14"/><path d="m750 332.3c-13.4 0-17.9 14.1-31.4 14.1-12.7 0-17.4-12.6-29.3-14 15.8 17.6 33.8 28.3 46 34.2 4.1-3.2 8.4 3.9 14.6 3.9 6.1 0 10.4-7.2 14.5-4 12.1-5.9 29.8-16.6 45.6-34-11.5 1.7-16.2 13.9-28.7 13.9-13.4 0-17.9-14.1-31.3-14.1"/></g><g transform="matrix(1.0079 0 0 1.0079-15.16 2.199)" stroke-opacity=".996" stroke="#512007"><g fill="none"><path d="m676.6 280.2c2.2-.8 12.8-4.2 13.1-3.8.4.4 20.4 20.6 20.4 20.6l-16.8 3.4-16.7-20.2z" stroke-width=".475"/><g stroke-width=".594"><path d="m716.4 306.7c.3-4.8 9.3-32 9.3-32"/><path d="m719.5 307c0-.3 7.1-32 7.1-32"/><path d="m721.9 307.1c.3-1.8 5.9-32.1 5.9-32.1"/><path d="m716.7 302.8c1.5-.9 6.2-2.1 6.2-2.1"/><path d="m718.9 298c1.5 0 4.6-1.2 4.6-1.2"/><path d="m719.8 294.4c0-.3 4.6-1.2 4.6-1.2"/><path d="m720.4 290l4.9-.9"/><path d="m722.6 286.1c0 .3 3.4.3 3.4.3"/><path d="m723.5 282.5c.6 0 3.4.6 3.4.6"/></g><g stroke-width=".41"><path d="m771.4 327.9c-.4-8.2-10.9-54.8-10.9-54.8"/><path d="m767.8 326.3c0-.5-8.4-52.8-8.4-52.8"/><path d="m764.2 322.2c-.4-3.1-6.2-48.7-6.2-48.7"/><path d="m771.1 321.2c-1.8-1.5-7.3-3.6-7.3-3.6"/><path d="m768.5 313c-1.8 0-5.5-2-5.5-2"/><path d="m767.4 306.9c0-.5-5.5-2-5.5-2"/><path d="m766.7 299.2l-5.8-1.5"/><path d="m764.2 292.5c0 .5-4 .5-4 .5"/><path d="m763.1 286.4c-.7 0-4 1-4 1"/></g><g stroke-width=".475"><path d="m802.3 316c-.4-6.1-10.9-40.8-10.9-40.8"/><path d="m798.7 314.8c0-.4-8.4-39.3-8.4-39.3"/><path d="m795.1 311.8c-.4-2.3-6.2-36.2-6.2-36.2"/><path d="m802 311c-1.8-1.1-7.3-2.7-7.3-2.7"/><path d="m799.4 304.9c-1.8 0-5.5-1.5-5.5-1.5"/><path d="m798.3 300.4c0-.4-5.5-1.5-5.5-1.5"/><path d="m797.6 294.6l-5.8-1.1"/><path d="m795.1 289.7c0 .4-4 .4-4 .4"/><path d="m794 285.1c-.7 0-4 .8-4 .8"/></g></g><g stroke-width=".475"><g fill="#dd8b59"><path d="m755.3 320.6c0-.4 1.1-95.7 1.1-95.7s3.3-.4 3.3 0-.4 95.3-.7 95.7c-.4.4-4 .8-3.7 0z"/><path d="m791.1 229.1c0 .8-.7 80.5-.7 80.5l-2.6 3.1.7-83.5 2.6-.1z"/><path d="m714.8 305c0 0 3.6 39.3 45.6 38.1 41.9-1.1 53.6-39.7 53.6-39.7s-17.9-.8-18.2-.8c-.4 0-14.6 18.3-32.8 17.9-18.2-.4-24.1-5-28.1-8.8-4-3.8-7.7-9.5-7.7-9.5l-21.2-8.8 1.1 8.4 7.7 3.2z"/><path d="m828.1 300.9c-.4-1.1-1.3-5.1-1.3-5.1v-4.6l2-4.6c0 0-31.7 4.8-31.7 5.1 0-.4-.2 9-.2 9l31.2.2z"/></g><g fill="none"><path d="m822.1 291.3l-.7 8h5.1l-.4-8h-4z"/><path d="m816.6 291.6l-.4 8.4 3.3-.4.4-8h-3.3z"/><path d="m811.1 300v-6.5l3.3-1.1.4 6.5-3.7 1.1z"/><path d="m804.9 299.7l.7-5.7 3.6.4.4 6.1-4.7-.8z"/><path d="m798 299.7l.4-5 3.6-.4v5.7l-4-.3z"/><path d="m713.4 304.6c1.1 0 9.5 1.9 9.5 1.9l8.8 12.2"/><path d="m719.6 306.1c.4.4 7.7 25.9 42.7 25.9 35 0 43.4-29 43.4-29"/><path d="m811.1 303.8c0 0-16.8 38.1-48.9 35.5-32.1-2.7-37.2-15.3-39.8-21.7-2.6-6.5-4-11.8-4-11.8"/></g><g fill="#dd8b59"><path d="m727.6 302.3c.4-2.3.4-71.3.4-71.3l-2.2-.4-.4 70.5 2.2 1.2z"/><path d="m675.5 279.8l27.7 14.1-.7 1.9c0 0-26.6-13-26.6-13.3-.1-.4.3-1.9-.4-2.7z"/><path d="m688.2 275.6c0 1.1 4 24.4 4 24.4s2.6.4 2.6 0c0-.4-4.4-24-4.4-24l-2.2-.4z"/><path d="m713.7 276.4c1.5 0 26.3-4.2 26.3-4.2l-.4 4.2-24.4 2.7-1.5-2.7z"/></g><path d="m717.4 244.7c.7 0 8.8 4.2 12 3.1 3.3-1.1 1.1-3.8 1.8-3.8.7 0 3.3 1.9 4.7.4 1.5-1.5 2.6-6.1 1.8-5.7-.6.3-19.9 7.6-20.3 6z" fill="#fecf3e"/><path d="m714.1 254.3c1.5.4 29.9-8 29.9-8s0 2.7-.4 2.7c-.4 0-29.5 8-29.5 8v-2.7z" fill="#dd8b59"/><g fill="#fecf3e"><path d="m780.1 242.4c0 0 1.8 4.6 3.6 3.8s3.6-2.3 3.6-2.3 1.5 3.8 4 3.1c2.6-.8 4-5 4-5s2.6.8 3.6.4c1.1-.4 2.6-6.5 2.6-6.5l-21.4 6.5z"/><path d="m777.9 279.4c-.4.8 1.8 2.7 3.6 2.7s2.6-2.7 2.9-1.9c.4.8.4 4.2 5.1 3.1 4.7-1.1 4.7-4.6 4.7-4.6s-1.5 1.1 1.8 1.5c3.3.4 6.6-5 6.2-5-.2 0-23.5 4.6-24.3 4.2z"/></g><g fill="#dd8b59"><path d="m715.2 243.2c-.4 1.5.4 3.4.4 3.4l23.7-8.4c0 0 1.1-1.9 0-1.9-1.1 0-24.5 7.7-24.1 6.9z"/><path d="m746.6 237.9c.7 0 24.4-8 24.4-8s.4 3.4 0 3.4c-.4 0-22.2 6.9-22.2 6.9l-2.2-2.3z"/></g><path d="m777.9 254.7c0 0-3.6 4.2-2.6 9.9 1.1 5.7 2.6 10.7 2.9 10.7.4 0 4.4-7.6 8.8-8s12.4 4.2 12.4 4.2-1.1-9.2-.7-13.3c.4-4.2 6.6-11.4 6.6-11.4l-27.4 7.9z" fill="#fecf3e"/><path d="m744.7 247.8c0 0-.7 3.4-.4 3.4.4 0 31-8.4 31-8.4v-2.3l-30.6 7.3z" fill="#dd8b59"/><path d="m705.4 293.9c0 0-7.3-1.1-6.9.8.4 1.9 3.6 3.8 4 5 .4 1.1-1.1 5.3 1.1 5 2.2-.4 4.4-1.9 4.4-3.1 0-1.1-.4-6.5-.4-6.5l-2.2-1.2z" fill="#b6b6b4" fill-opacity=".996"/><path d="m745.8 274.9v2.7l26.3-3.8-.7-1.9-25.6 3z" fill="#dd8b59"/><g fill="#fecf3e"><path d="m714.8 279.4c.4 0 0 3.4 2.9 2.7 2.9-.8 3.6-2.7 3.6-2.7s.7 4.2 4.7 3.8c4-.4 6.2-5 6.2-5s.4 3.4 2.9 2.3c2.6-1.1 3.3-3.8 3.3-3.8l-23 3.4-.6-.7z"/><path d="m714.8 256.9c0 0-3.3 1.1-2.2 8 1.1 6.9 3.6 10.7 4 10.7.4 0 3.3-6.5 7.7-7.6 4.4-1.1 12 3.4 12 3.4s-.7-6.1.4-11.8c1.1-5.7 4.7-9.9 4.7-9.9s-25.5 7.2-26.6 7.2z"/></g><g fill="#dd8b59"><path d="m776.1 276.8l.4 2.3c0 0 26.3-3.4 26.3-3.8 0-.4 0-2.7-.4-2.7-.4 0-25.9 4.5-26.3 4.2z"/><path d="m775.7 252.4l.4 2.7 31-8.8c0 0 .7-2.3.4-2.3s-31 9.5-31.8 8.4z"/></g><g fill="none"><path d="m779 240.2c0 0-.4 2.3 0 2.3.4 0 23-5.7 23-6.1 0-.4 2.2-2.7.4-2.3-1.9.3-22.6 7.2-23.4 6.1z"/><path d="M827.5,284.4L804.9,247"/><path d="m802 273c.4-1.1 1.5-24 1.5-24"/></g><g fill="#fecf3e"><path d="m747.3 239c1.5.4 4 4.2 5.5 3.4 1.5-.8 3.6-3.1 3.6-3.1s-.4 4.6 2.6 3.8c2.9-.8 3.3-3.8 3.3-3.8s2.2 1.1 4 0c1.8-1.1 3.6-6.9 2.9-6.9s-21.2 7-21.9 6.6z"/><path d="m746.6 250.1c0 .8-3.6 6.9-2.6 12.6 1.1 5.7 3.3 11.1 3.6 11.1s5.8-6.1 10.6-7.2c4.7-1.1 11.7 3.8 11.3 3.8-.4 0-1.8-5.7-1.8-9.9 0-4.2 5.5-17.2 5.5-17.2l-26.6 6.8z"/><path d="m746.6 277.5c0 .4 1.1 3.1 3.6 3.1 2.6 0 2.9-2.7 2.9-2.7s-.4 4.6 3.6 4.2c4-.4 5.5-4.6 5.5-4.6s.4 2.3 3.6 1.1c3.3-1.1 7.7-5 7.3-5-.3.1-26.2 5.1-26.5 3.9z"/></g></g><g fill="#be0f17" fill-opacity=".996" stroke-width=".581"><path d="m743.34 264.47c1.1 0 1.9 1 1.9 2.1 0 1.1-.9 2-2 1.9-1.1 0-1.9-1-1.9-2.1.1-1.1 1-2 2-1.9z"/><path d="m769.56 257.46c1.1 0 1.9 1 1.9 2.1 0 1.1-.9 2-2 1.9-1.1 0-1.9-1-1.9-2.1.1-1.1 1-2 2-1.9z"/><path d="m756.5 271.93c1.1 0 1.9 1 1.9 2.1 0 1.1-.9 2-2 1.9-1.1 0-1.9-1-1.9-2.1 0-1 .9-1.9 2-1.9z"/><path d="m756.5 249.9c1.1 0 1.9 1 1.9 2.1 0 1.1-.9 2-2 1.9-1.1 0-1.9-1-1.9-2.1 0-1.1.9-1.9 2-1.9z"/></g><g stroke-width=".475"><g fill="none"><path d="m759 226c0-.4 11.3 5 11.3 5.3 0 .4 40.1 56.1 40.5 56.1"/><path d="m790.7 231.4l10.2 4.6 3.3 8.4"/><path d="m727.2 230.6c-.4 0 11.3 9.2 11.3 9.2l1.5 7.6"/><path d="m687.5 286.3c5.1-2.3 40.5-34.7 40.5-34.7"/><path d="m678 280.2c4.4-3.8 39.8-35.1 39.8-35.1"/><path d="m744.4 250.5l37.6 65.2"/><path d="m777.5 277.4c0 0 4.4 15.4 8.8 17.7 4.4 2.3 9.5 6.1 9.5 6.1"/><path d="m777 277.7c0 0 3.1 18.1 7.5 21.5 4.4 3.4 8.8 7.2 8.8 7.2"/><path d="m746.8 276.5c0 0 4.4 25.2 13.1 30.9 8.8 5.7 16 10.7 16 10.7"/><path d="m746.4 276.1c0 0 9.5 19.8 17.5 25.9 8 6.1 19 11.8 19 11.8"/><path d="m715.8 277.6c2.6 4.6 2.2 13.3 5.1 16.4 2.9 3.1 7.3 9.9 7.3 9.9"/><path d="m716.5 278c1.5 2.3 5.5 13.7 8 17.2 1.8 3.1 20.4 22.5 20.4 22.5"/></g><path d="m738.7 318.6c0 1.6-1.2 2.9-2.7 2.9s-2.7-1.3-2.7-2.9 1.2-2.9 2.7-2.9 2.7 1.3 2.7 2.9z"/><path d="m752.2 324.7c0 1.4-1.1 2.5-2.4 2.5-1.3 0-2.4-1.1-2.4-2.5 0-1.4 1.1-2.5 2.4-2.5 1.4 0 2.4 1.1 2.4 2.5z"/><path d="m769.4 326.2c0 1.4-1.1 2.5-2.4 2.5s-2.4-1.1-2.4-2.5 1.1-2.5 2.4-2.5 2.4 1.2 2.4 2.5z"/><path d="m784.3 320.3c0 1.3-.9 2.3-2 2.3s-2-1-2-2.3.9-2.3 2-2.3c1.1 0 2 1.1 2 2.3z"/><path d="m796.4 312.9c0 1.2-1.1 2.1-2.4 2.1-1.3 0-2.4-.9-2.4-2.1 0-1.2 1.1-2.1 2.4-2.1 1.3 0 2.4.9 2.4 2.1z"/><g fill="#f00" fill-opacity=".996"><path d="m725.6 231.1c-1.1.8-19.3 5.3-16.8 5 2.6-.4 17.1 3.8 16.8 2.7-.4-1.2 0-6.9 0-7.7z"/><path d="m756.6 225.4c-.7 0-11.3 4.2-10.9 4.2.4 0 12 3.4 11.7 2.7-.4-.8-.4-5.8-.8-6.9z"/><path d="m788.3 229.2c-.7.4-13.1 3.4-10.9 3.8 2.2.4 10.6 3.4 10.6 2.7 0-.8 0-6.1.3-6.5z"/></g><g fill="none"><path d="m775.2 318.4c.4-6.1 10.9-40.8 10.9-40.8"/><path d="m778.9 317.3c0-.4 8.4-39.3 8.4-39.3"/><path d="m782.5 314.2c.4-2.3 6.2-36.2 6.2-36.2"/><path d="m775.6 313.5c1.8-1.1 7.3-2.7 7.3-2.7"/><path d="m778.1 307.4c1.8 0 5.5-1.5 5.5-1.5"/><path d="m779.2 302.8c0-.4 5.5-1.5 5.5-1.5"/><path d="m779.9 297.1l5.8-1.1"/><path d="m782.5 292.1c0 .4 4 .4 4 .4"/><path d="m783.6 287.5c.7 0 4 .8 4 .8"/><path d="m744.3 318.7c.4-6.3 10.9-42.4 10.9-42.4"/><path d="m747.9 319.1c0-.4 8.4-42.4 8.4-42.4"/><path d="m750.8 319.2c.4-2.4 7-42.5 7-42.5"/><path d="m744.6 313.6c1.8-1.2 7.3-2.8 7.3-2.8"/><path d="m747.2 307.2c1.8 0 5.5-1.6 5.5-1.6"/><path d="m748.3 302.5c0-.4 5.5-1.6 5.5-1.6"/><path d="m749 296.5l5.8-1.2"/><path d="m751.6 291.4c0 .4 4 .4 4 .4"/><path d="m752.6 286.6c.7 0 4 .8 4 .8"/></g></g><g fill="none" stroke-width=".474"><path d="m740.2 314.4c-.4-6.1-10.9-41-10.9-41"/><path d="m736.6 313.2c0-.4-8.4-39.5-8.4-39.5"/><path d="m733 310.1c-.4-2.3-6.2-36.4-6.2-36.4"/><path d="m739.9 309.4c-1.8-1.2-7.3-2.7-7.3-2.7"/><path d="m737.3 303.2c-1.8 0-5.5-1.5-5.5-1.5"/><path d="m736.2 298.6c0-.4-5.5-1.5-5.5-1.5"/><path d="m735.5 292.9l-5.8-1.2"/><path d="m733 287.9c0 .4-4 .4-4 .4"/><path d="m731.9 283.3c-.7 0-4 .8-4 .8"/></g><g fill="#dd8b59" stroke-width=".475"><path d="m794.3 302.7l34.6.8.4-2.7-35.7-.4.7 2.3z"/><path d="m795.8 293.2c4 0 34.3-6.1 34.3-6.1s1.1-3.8 0-3.8-34.3 7.2-34.3 7.2v2.7z"/></g><path d="m756.5 260.92c1.1 0 1.9 1 1.9 2.1 0 1.1-.9 2-2 1.9-1.1 0-1.9-1-1.9-2.1 0-1.1.9-1.9 2-1.9z" fill="#be0f17" fill-opacity=".996" stroke-width=".581"/></g></g></svg>