<svg xmlns="http://www.w3.org/2000/svg" viewBox="0 0 640 480" xmlns:xlink="http://www.w3.org/1999/xlink"><defs><path id="0" d="m256.44 57.23l-17.17-12.245-17.19 12.215 6.34-20.11-16.92-12.574 21.08-.185 6.73-19.983 6.69 19.995 21.08.222-16.95 12.545z" stroke-width="1.25" fill="#ffce00"/></defs><g fill-rule="evenodd"><path stroke-width="1.25" fill="#f00" d="m0 0h640v480h-640z"/><g transform="translate(83.91-.155)"><g stroke-width="1.25"><path fill="#009a00" d="m62.09 83.61h360.91v314.41h-360.91z"/><g fill="#ffca00"><path d="m62.09 398.02h360.91l-180.46-157.19-180.46 157.19z"/><path d="m62.09 83.68l180.46 157.19 180.45-157.19h-360.91"/></g></g><use transform="matrix(.95788 0 0 .95788-151.84 6.704)" xlink:href="#0"/><use transform="matrix(.95788 0 0 .95788 13.05 7.193)" xlink:href="#0"/><use transform="matrix(.95788 0 0 .95788 178.04 6.928)" xlink:href="#0"/><use transform="matrix(.95788 0 0 .95788-151.84 414.13)" xlink:href="#0"/><use transform="matrix(.95788 0 0 .95788 13.05 414.62)" xlink:href="#0"/><use transform="matrix(.95788 0 0 .95788 178.04 414.36)" xlink:href="#0"/><path d="m285.81 243.25c0 24.17-19.594 43.765-43.765 43.765-24.17 0-43.765-19.594-43.765-43.765 0-24.17 19.594-43.765 43.765-43.765 24.17 0 43.765 19.594 43.765 43.765" fill="#f00" stroke-width=".958"/><use transform="matrix(1.1378 0 0 1.1378-29.933 205.08)" xlink:href="#0"/><g transform="matrix(.93812 0 0 .93812 88.68-6.833)"><path d="m-2.789 298.95s2.367-19.607 1.015-32.791c-1.353-13.184-35.16-16.903-35.16-16.903l-.338 30.763s27.05 21.974 34.481 18.931" fill="#f00"/><path d="m-52.15 221.2s3.258 17.276-1.352 51.723c-2.463 18.703 17.917 31.439 42.933 37.19-5.071-8.789-18.592-22.988-15.212-49.02 18.255 2.366 35.495 37.862 35.495 37.862s13.658-50.33-13.86-58.15c-26.744-7.514-48-19.269-48-19.607z" fill="#ffce00"/></g></g></g></svg>