<svg xmlns="http://www.w3.org/2000/svg" viewBox="0 0 900 600" enable-background="new 0 0 900 600"><g fill="#f00"><path d="M390,0v240H0v120h390v240h120V360h390V240H510V0H390z"/><path d="m193.35 133.35c-5.158 0-10.284.133-15.38.38-.708 14.581-2.431 28.893-5.074 42.881 6.702-.829 13.527-1.262 20.454-1.262s13.752.433 20.454 1.262c-2.643-13.988-4.366-28.3-5.074-42.881-5.096-.247-10.222-.38-15.38-.38"/><path d="m193.35 103.35c5.158 0 10.284-.133 15.38-.38.708-14.581 2.431-28.893 5.074-42.881-6.702.829-13.527 1.262-20.454 1.262s-13.752-.433-20.454-1.262c2.643 13.988 4.366 28.3 5.074 42.881 5.096.247 10.222.38 15.38.38"/><path d="m178.35 118.35c0-5.158-.133-10.284-.38-15.38-14.581-.708-28.893-2.431-42.881-5.074.829 6.702 1.262 13.527 1.262 20.454s-.433 13.752-1.262 20.454c13.988-2.643 28.3-4.366 42.881-5.074.247-5.096.38-10.222.38-15.38"/><path d="m208.35 118.35c0 5.158.133 10.284.38 15.38 14.581.708 28.893 2.431 42.881 5.074-.829-6.702-1.262-13.527-1.262-20.454s.433-13.752 1.262-20.454c-13.988 2.643-28.3 4.366-42.881 5.074-.247 5.096-.38 10.222-.38 15.38"/><path d="m208.73 102.97c-5.096.247-10.223.38-15.38.38s-10.284-.133-15.38-.38c.247 5.096.38 10.223.38 15.38s-.133 10.284-.38 15.38c5.096-.247 10.223-.38 15.38-.38s10.284.133 15.38.38c-.247-5.096-.38-10.223-.38-15.38s.133-10.284.38-15.38"/><path d="m706.65 466.65c5.158 0 10.284-.133 15.38-.38.708-14.581 2.431-28.893 5.074-42.881-6.702.829-13.527 1.262-20.454 1.262s-13.752-.433-20.454-1.262c2.643 13.988 4.366 28.3 5.074 42.881 5.096.247 10.222.38 15.38.38"/><path d="m706.65 496.65c-5.158 0-10.284.133-15.38.38-.708 14.581-2.431 28.893-5.074 42.881 6.702-.829 13.527-1.262 20.454-1.262s13.752.433 20.454 1.262c-2.643-13.988-4.366-28.3-5.074-42.881-5.096-.247-10.222-.38-15.38-.38"/><path d="m691.65 481.65c0-5.158-.133-10.284-.38-15.38-14.581-.708-28.893-2.431-42.881-5.074.829 6.702 1.262 13.527 1.262 20.454s-.433 13.752-1.262 20.454c13.988-2.643 28.3-4.366 42.881-5.074.247-5.096.38-10.222.38-15.38"/><path d="m721.65 481.65c0 5.158.133 10.284.38 15.38 14.581.708 28.893 2.431 42.881 5.074-.829-6.702-1.262-13.527-1.262-20.454s.433-13.752 1.262-20.454c-13.988 2.643-28.3 4.366-42.881 5.074-.247 5.096-.38 10.222-.38 15.38"/><path d="m722.03 466.27c-5.096.247-10.223.38-15.38.38s-10.284-.133-15.38-.38c.247 5.096.38 10.223.38 15.38s-.133 10.284-.38 15.38c5.096-.247 10.223-.38 15.38-.38s10.284.133 15.38.38c-.247-5.096-.38-10.223-.38-15.38s.133-10.284.38-15.38"/><path d="m706.65 133.35c-5.158 0-10.284.133-15.38.38-.708 14.581-2.431 28.893-5.074 42.881 6.702-.829 13.527-1.262 20.454-1.262s13.752.433 20.454 1.262c-2.643-13.988-4.366-28.3-5.074-42.881-5.096-.247-10.222-.38-15.38-.38"/><path d="m706.65 103.35c5.158 0 10.284-.133 15.38-.38.708-14.581 2.431-28.893 5.074-42.881-6.702.829-13.527 1.262-20.454 1.262s-13.752-.433-20.454-1.262c2.643 13.988 4.366 28.3 5.074 42.881 5.096.247 10.222.38 15.38.38"/><path d="m691.65 118.35c0-5.158-.133-10.284-.38-15.38-14.581-.708-28.893-2.431-42.881-5.074.829 6.702 1.262 13.527 1.262 20.454s-.433 13.752-1.262 20.454c13.988-2.643 28.3-4.366 42.881-5.074.247-5.096.38-10.222.38-15.38"/><path d="m721.65 118.35c0 5.158.133 10.284.38 15.38 14.581.708 28.893 2.431 42.881 5.074-.829-6.702-1.262-13.527-1.262-20.454s.433-13.752 1.262-20.454c-13.988 2.643-28.3 4.366-42.881 5.074-.247 5.096-.38 10.222-.38 15.38"/><path d="m722.03 102.97c-5.096.247-10.223.38-15.38.38s-10.284-.133-15.38-.38c.247 5.096.38 10.223.38 15.38s-.133 10.284-.38 15.38c5.096-.247 10.223-.38 15.38-.38s10.284.133 15.38.38c-.247-5.096-.38-10.223-.38-15.38s.133-10.284.38-15.38"/><path d="m193.35 466.65c5.158 0 10.284-.133 15.38-.38.708-14.581 2.431-28.893 5.074-42.881-6.702.829-13.527 1.262-20.454 1.262s-13.752-.433-20.454-1.262c2.643 13.988 4.366 28.3 5.074 42.881 5.096.247 10.222.38 15.38.38"/><path d="m193.35 496.65c-5.158 0-10.284.133-15.38.38-.708 14.581-2.431 28.893-5.074 42.881 6.702-.829 13.527-1.262 20.454-1.262s13.752.433 20.454 1.262c-2.643-13.988-4.366-28.3-5.074-42.881-5.096-.247-10.222-.38-15.38-.38"/><path d="m178.35 481.65c0-5.158-.133-10.284-.38-15.38-14.581-.708-28.893-2.431-42.881-5.074.829 6.702 1.262 13.527 1.262 20.454s-.433 13.752-1.262 20.454c13.988-2.643 28.3-4.366 42.881-5.074.247-5.096.38-10.222.38-15.38"/><path d="m208.35 481.65c0 5.158.133 10.284.38 15.38 14.581.708 28.893 2.431 42.881 5.074-.829-6.702-1.262-13.527-1.262-20.454s.433-13.752 1.262-20.454c-13.988 2.643-28.3 4.366-42.881 5.074-.247 5.096-.38 10.222-.38 15.38"/><path d="m208.73 466.27c-5.096.247-10.223.38-15.38.38s-10.284-.133-15.38-.38c.247 5.096.38 10.223.38 15.38s-.133 10.284-.38 15.38c5.096-.247 10.223-.38 15.38-.38s10.284.133 15.38.38c-.247-5.096-.38-10.223-.38-15.38s.133-10.284.38-15.38"/></g></svg>