<svg xmlns="http://www.w3.org/2000/svg" viewBox="0 0 1000 500" enable-background="new 0 0 1000 500"><path fill="#da000c" d="m0 0h1000v500h-1000z"/><path fill="#fff" d="m0 0h1000v334.96h-1000z"/><path d="m383.93 227.16h125v85.92h-125z"/><g fill="#da000c" stroke="#000" stroke-linecap="square"><path d="m448.87 300.52h-76.31l-16.914 11.132v11.796h93.22"/><path d="m416.93 251.16c10.986 0 19.958 9.159 19.958 20.447v28.87h14.343v-109.38h-78.67v109.38h24.414v-28.87c.001-10.847 8.819-20.446 19.959-20.446z"/></g><path d="m399.47 117.11h36.18v66.33h-36.18z"/><g fill="#da000c" stroke="#000"><g stroke-linecap="square"><path d="m435.55 173.16h-31.658v-11.23h-23.21v11.23h-15.747v-11.23h-9.399v20.386h80.02m-70.62-.075h68.3v8.863h-68.3v-8.863z"/><path d="m392.03 93.02v68.909h11.86v-18.921c0-7.088 5-12.889 12-13.245.226-.011.443 0 .671 0 7.317 0 13.245 5.927 13.245 13.245v18.921h11.292v-68.909h-49.07z"/><path d="m387.76 83.68v9.338h57.13v-9.338h-57.13z"/><path d="m380.43 65.796v17.883h68.54v-17.883h-10.559v9.09h-12.756v-9.09h-19.47v9.09h-12.756v-9.09h-13z"/><path d="m355.64 311.65h93.57"/><path d="m509.77 306.27h-63.35l-19.1 9.216v13.733h82.46"/></g><path d="m427.29 315.47h84.43"/></g><path d="m491.07 227.16h125v85.92h-125z"/><g fill="#da000c" stroke="#000" stroke-linecap="square"><path d="m551.13 300.52h76.31l16.914 11.132v11.796h-93.22"/><path d="m583.07 251.16c-10.986 0-19.958 9.159-19.958 20.447v28.87h-14.343v-109.38h78.67v109.38h-24.414v-28.87c-.001-10.847-8.819-20.446-19.959-20.446z"/></g><path d="m564.35 117.11h36.18v66.33h-36.18z"/><g stroke="#000"><g fill="#da000c"><g stroke-linecap="square"><path d="m564.45 173.16h31.658v-11.23h23.21v11.23h15.747v-11.23h9.399v20.386h-80.02m70.62-.075h-68.3v8.863h68.3v-8.863z"/><path d="m607.97 93.02v68.909h-11.86v-18.921c0-7.088-5-12.889-12-13.245-.226-.011-.443 0-.671 0-7.317 0-13.245 5.927-13.245 13.245v18.921h-11.292v-68.909h49.07z"/><path d="m612.24 83.68v9.338h-57.13v-9.338h57.13z"/><path d="m619.57 65.796v17.883h-68.54v-17.883h10.559v9.09h12.756v-9.09h19.47v9.09h12.756v-9.09h13z"/><path d="m644.36 311.65h-93.57"/><path d="m490.23 306.27h63.35l19.1 9.216v13.733h-82.46"/></g><path d="m572.71 315.47h-84.43"/></g><g fill="#f8d80e"><g stroke-linecap="round"><path d="m533.78 293.03c-5.184 1.725-9.87 4.627-14.588 7.33-6.05 3.577-11.927 7.475-17.392 11.912-1.923 1.268-3.768 2.658-5.252 4.44-2 1.714-4.03 4.01-3.65 6.861.101 1.256 1.706-1.475 2.762-1.607 1.841-1.057 4.07-1.397 6.137-.921 2.483-2.614 5.683-4.366 8.447-6.653 5.868-4.379 12.181-8.14 18.604-11.642 2.242-1.149 4.494-2.316 6.885-3.129-.651-2.196-1.302-4.393-1.953-6.591z" stroke-width=".768"/><path d="m508.6 307.4v7.64"/><path d="m513.31 304.07v7.584"/><path d="m518.03 301.13v7.535"/><path d="m522.75 298.23v7.776"/><path d="m466.58 293.27c-.773 2.157-1.546 4.313-2.319 6.47 10.814 4.102 21.11 9.529 30.855 15.743 3.302 2.248 6.772 4.426 9.367 7.512.572 1.584-1 2.908-2.567 2.43-1.43-.486-2.839-1.038-4.348-.008-2.161.983-4.113 4.183-.832 5.256 4.522 3.037 11.878 1.717 14.05-3.604 1.136-2.737 1.209-6.241-.991-8.485-4.03-4.617-9.37-7.828-14.495-11.08-9.159-5.509-18.697-10.496-28.722-14.236z" stroke-width=".768"/><path d="m496.19 308.66l-.61 6.522"/><path d="m501.63 311.99l-1.684 6.386"/><path d="m507.43 316.43l-3.533 4.956"/><path d="m509.21 328.48l-5.098-2.735"/><path d="m510.8 323.1l-5.85.548"/><path d="m503.25 331.57l-.401-5.141"/><path d="m501.11 325.69l-4.83 3.559"/><path d="m477.88 298.7v6.084"/><path d="m490.16 305.16v6.903"/><path d="m484.02 301.94v6.482"/></g><path d="m460.51 444.46v15.686h9.827v-7.874h13.367v7.874h10.559v-15.686h-33.753zm0 21.606v15.747h33.752v-15.747h-10.559v7.874h-13.367v-7.874h-9.826z"/><path d="m494.24 378.23h9.747v113.51h-9.747z"/><path d="m494.24 388.05h9.747v97.77h-9.747z"/><g stroke-width="1.024"><path d="m499.12 350.4l20.752 12.08-20.752 12.02-20.752-12.02 20.752-12.08zm-27.771 7.751h-5.432v8.667h5.432l27.771 16.11 27.771-16.11h5.432v-8.667h-5.432l-27.771-16.11-27.771 16.11z"/><path d="m498.72 320.86c-4.724.663-8.254 5.332-7.996 10.03.018 7.3-.036 14.602.028 21.901.25 4.704 4.36 8.918 9.13 8.961 3.877.367 7.771-1.899 9.398-5.429-1.119-.671-2.238-1.343-3.357-2.01-.867 2.312-3.366 3.745-5.798 3.479-3.194.09-5.78-3.02-5.493-6.121.02-7.253-.038-14.508.029-21.759.176-2.959 2.998-5.381 5.953-5.078 1.224-.351 2.905 1.323 3.662-.122 1.14-1.62-.809-2.885-1.892-3.784-1.201-.164-2.452-.016-3.664-.062zm11.291 7.63c-.774 1.457-2.375 2.323-3.662 3.087v14.674c1.302.753 2.604 1.506 3.906 2.258-.016-6.257.03-12.516-.023-18.773-.061-.384-.015-.973-.221-1.246z"/></g></g></g><path d="m470.32 74.905h57.28v104.01h-57.28z"/><g fill="#da000c" stroke="#000"><path d="m466.31 74.951v87.04h18.19v-25.818c0-5.955 3.814-14.221 15.503-14.221s15.503 8.266 15.503 14.221v25.818h18.19v-87.04h-67.38zm30.883 9.766h5.615v29.785h-5.615v-29.785zm-16.11 5.859h5.676v21.79h-5.676v-21.79zm32.17 0h5.676v21.79h-5.676v-21.79z"/><path d="m460.14 62.44v12.39h79.71v-12.39h-79.71z"/><path d="m452.64 48.03v14.404h94.73v-14.404h-11.902v7.935h-13.428v-7.935h-15.32v7.935h-13.428v-7.935h-15.32v7.935h-13.428v-7.935h-11.901z"/><path d="m435.06 191.1v8.972h129.88v-8.972h-129.88z"/><path d="m429.75 161.93v29.18h140.5v-29.18h-13.306v11.23h-17.7v-11.23h-23.743v11.23h-31.01v-11.23h-23.743v11.23h-17.7v-11.23h-13.305z"/><path d="m446.65 200.07v106.14h25.08v-39.734c0-18.716 12.493-27.527 28.26-27.527 15.15 0 28.26 8.811 28.26 27.527v39.734h25.09v-106.14h-106.69z" stroke-linejoin="round"/></g></svg>