<svg xmlns="http://www.w3.org/2000/svg" xmlns:xlink="http://www.w3.org/1999/xlink" viewBox="0 0 640 480" enable-background="new 0 0 640 480"><defs><path id="1" d="m0 0h640v480h-640z"/><clipPath id="0"><use xlink:href="#1"/></clipPath></defs><g transform="scale(.9375)" clip-path="url(#0)"><g transform="scale(1.0321)"><path fill="#3e9a00" d="m0 0h744.1v166.5h-744.1z"/><path fill="#fff" d="m0 166.5h744.1v163h-744.1z"/><path fill="#e32118" d="M 0,329.5 H744.1 V496 H0 z"/><path d="M0,0v496.1l248-248C248,248,0,0,0,0z" fill="#5567e4"/></g><g transform="matrix(.20377 0 0 .18554 287 179.77)"><path d="m245.8 148.8v442.9c0 35.4 20.7 70.9 62.2 70.9h82.9c20.7 0 41.4 35.4 41.4 35.4s19.8-35.4 41.4-35.4h82.9c41.4 0 62.2-35.4 62.2-70.9v-442.9h-373z" fill="#ccc" stroke="#000" stroke-width="3.791"/><g transform="matrix(1.108 0 0 1-59.61 0)"><g transform="matrix(1.0612 0 0 .99999-28.554-106.29)"><g fill="#ccc"><path d="m212.9 733.5c-18 0-35.7-17.7-35.7-35.4v-88.6c15.5 15.5 88.6 70.9 70.9 88.6-17.7 17.7-35.7 0-35.4 0s.2 35.4.2 35.4z" stroke="#000"/><path d="m212.6 698c17.7-17.7 17.7 17.7 35.4 0l-17.7 106.3c-17.2-3.3-17.8 0-27.7-17.7 0-17.7 0-74.3 10-88.6"/><path d="m675.7 733.5c18 0 35.7-17.7 35.7-35.4v-88.6c-15.5 15.5-88.6 70.9-70.9 88.6 17.7 17.7 35.7 0 35.4 0s-.2 35.4-.2 35.4z" stroke="#000"/><path d="m673.2 698c-17.7-17.7-17.7 17.7-35.4 0l17.7 106.3c17.2-3.3 17.8 0 27.7-17.7 0-17.7 0-74.3-10-88.6"/><g stroke="#000"><path d="m513.8 857.4c0-17.7-35.4-53.1-35.4-70.9s35.4 17.7 106.3 17.7c70.9 0 106.3-88.6 88.6-106.3 17.7 35.4 17.7 70.9 17.7 88.6 0 35.4-35.4 70.9-106.3 70.9h-70.9z"/><path d="m372.1 857.4c0-17.7 35.4-53.1 35.4-70.9s-35.4 17.7-106.3 17.7c-70.9 0-106.3-88.6-88.6-106.3-17.7 35.4-17.7 70.9-17.7 88.6 0 35.4 35.4 70.9 106.3 70.9h70.9z"/></g><path d="m372.1 839.7c0-17.7 35.4-35.4 35.4-53.2v88.6h-35.4v-35.4"/><path d="m513.8 839.7c0-17.7-35.4-35.4-35.4-53.2v88.6h35.4v-35.4"/><path d="m372 839.7c0 17.7 141.7 17.7 141.7 0v70.9c0 17.7-141.7 17.7-141.7 0 0 0 0-70.9 0-70.9z" stroke="#000"/></g><path d="m248 698c-17.7 17.7-17.7-17.7-35.4 0-17.7 17.7 17.7 106.3 88.6 106.3s106.3-35.4 106.3-17.7c0 17.7-35.4 35.4-35.4 53.2s141.7 17.7 141.7 0-35.4-35.4-35.4-53.2c0-17.7 35.4 17.7 106.3 17.7 70.9 0 106.3-88.6 88.6-106.3-17.7-17.7-17.7 17.7-35.4 0" fill="none" stroke="#000" stroke-width="1.25"/></g><path d="m673.2 721.3l-19.3-39.3 3.4-1.7 19.3 39.3-3.4 1.7"/><path d="m661 712.8h4c1 4.7 1.1 8.6.1 11.7-1 3.1-2.8 5.2-5.6 6.3-2.8 1.1-5.5 1.2-8 .1-2.5-1.1-4.9-3.1-7.2-6.1-2.3-3-4.2-6.4-5.8-10.3-1.7-4.2-2.7-8.1-2.9-11.7-.2-3.6.3-6.6 1.6-9 1.3-2.4 3.1-4.1 5.4-5 2.6-1.1 5.3-.9 7.9.4 2.6 1.3 5.1 3.7 7.3 7.2l-2.8 2.6c-1.8-2.7-3.6-4.5-5.3-5.4-1.7-.9-3.4-1-5.2-.2-2 .8-3.4 2.3-4.2 4.3-.7 2-.9 4.4-.4 7.2.5 2.7 1.2 5.4 2.3 8.1 1.4 3.4 2.9 6.3 4.6 8.7 1.7 2.3 3.5 3.8 5.4 4.5 1.9.7 3.6.7 5.3.1 2-.8 3.3-2.3 3.9-4.6.7-2.3.5-5.3-.4-8.9"/><path d="m637.4 739.9l-12.6-41.9 3.6-1.1 12.6 41.9-3.6 1.1"/><path d="m613.6 744.5l-3.3-38.5-9.3.8-.4-5.1 22.5-1.9.4 5.1-9.4.8 3.3 38.5c-.1 0-3.8.3-3.8.3"/><path d="m577.5 732.8l3.6-.5c.2 2.2.6 4 1.2 5.4.6 1.4 1.6 2.5 2.9 3.4 1.3.9 2.8 1.3 4.4 1.3 1.4 0 2.7-.3 3.8-1 1.1-.7 1.9-1.6 2.4-2.7.5-1.2.8-2.4.8-3.8 0-1.4-.3-2.6-.8-3.6-.5-1-1.4-1.9-2.6-2.6-.8-.5-2.5-1.2-5.1-2.1-2.6-1-4.4-1.9-5.5-2.7-1.4-1.1-2.4-2.4-3-4.1-.7-1.6-1-3.4-1-5.5 0-2.2.4-4.3 1.2-6.2.8-1.9 2-3.4 3.6-4.4 1.6-1 3.3-1.5 5.2-1.5 2.1 0 4 .5 5.6 1.6 1.6 1 2.9 2.6 3.7 4.6.9 2 1.3 4.3 1.4 6.9l-3.6.4c-.2-2.8-.9-4.9-2-6.3-1.1-1.4-2.8-2.1-4.9-2.1-2.3 0-3.9.6-5 1.9-1 1.3-1.6 2.8-1.6 4.6 0 1.6.4 2.9 1.1 3.9.7 1 2.6 2.1 5.7 3.1 3.1 1.1 5.2 2 6.3 2.8 1.7 1.2 2.9 2.7 3.7 4.5.8 1.8 1.2 3.9 1.2 6.2 0 2.3-.4 4.5-1.3 6.6-.9 2.1-2.1 3.7-3.7 4.8-1.6 1.1-3.4 1.7-5.5 1.7-2.6 0-4.7-.6-6.5-1.7-1.7-1.2-3.1-2.9-4.1-5.2-1-2.1-1.5-4.7-1.6-7.7"/><path d="m567.3 702.7l3.8.2-1.2 25.3c-.2 4.4-.7 7.9-1.4 10.4-.8 2.6-2 4.6-3.8 6.2-1.8 1.5-4 2.2-6.7 2.1-2.7-.1-4.8-.9-6.4-2.4-1.6-1.5-2.7-3.6-3.3-6.3-.6-2.7-.8-6.4-.6-11l1.2-25.3 3.8.2-1.1 25.2c-.2 3.8-.1 6.6.3 8.4.4 1.8 1.1 3.2 2.2 4.3 1.1 1 2.4 1.6 4 1.6 2.8.1 4.8-.7 6-2.6 1.3-1.9 2-5.6 2.3-11-.3-.1.9-25.3.9-25.3"/><path d="m520.8 732l3.4-.7c.1 3.3.5 5.6 1.2 6.9.7 1.2 1.7 1.8 3 1.8.9 0 1.8-.3 2.4-1 .7-.7 1.2-1.6 1.4-2.7.3-1.2.4-3 .4-5.5v-30.2h3.8v29.8c0 3.7-.3 6.5-.9 8.5-.6 2-1.5 3.5-2.7 4.6-1.2 1.1-2.7 1.6-4.4 1.6-2.5 0-4.4-1.1-5.7-3.3-1.3-2.2-1.9-5.5-1.9-9.8"/><path d="m456.9 805.1v-6.1l14.6-31.6c1-2.2 2-4.2 3-5.9h-15.9v-5.8h20.4v5.8l-16 34.3-1.7 3.5h18.2v5.8h-22.6"/><path d="m249.7 744.4l9-48.6 3.7.7-9 48.6-3.7-.7"/><path d="m209.5 725.2l23.4-43.5 3.4 1.8-5.2 41.2 18.4-34.2 3.2 1.7-23.4 43.5-3.4-1.8 5.2-41.3-18.5 34.4c0 0-3.1-1.8-3.1-1.8"/><path d="m229.6 676.7l2.7 2.7-20.2 20.2c-3.5 3.5-6.5 6.1-9 7.7-2.5 1.6-5 2.5-7.5 2.6-2.5.1-4.7-.8-6.6-2.8-1.9-1.9-2.9-4-2.9-6.3-.1-2.3.7-4.8 2.3-7.5 1.6-2.7 4.3-5.8 8-9.5l20.2-20.2 2.7 2.7-20.1 20.2c-3 3-5.1 5.4-6.2 7.2-1.1 1.8-1.6 3.4-1.6 5 0 1.6.6 2.9 1.7 4.1 2 2 4.1 2.6 6.5 1.9 2.4-.7 5.8-3.3 10.1-7.7-.3-.1 19.9-20.3 19.9-20.3"/><path d="m269.7 748.1l1.4-49.4 9.8.3c2.2.1 3.9.3 5 .8 1.6.7 3 1.9 4.1 3.7 1.4 2.2 2.5 5.1 3.1 8.5.7 3.4.9 7.4.8 11.8-.1 3.8-.4 7.1-1 10-.6 2.9-1.3 5.3-2.1 7.2-.8 1.9-1.7 3.3-2.7 4.4-1 1-2.1 1.8-3.5 2.4-1.3.5-2.9.8-4.6.7l-10.3-.4m4-5.7l6.1.2c1.9.1 3.4-.2 4.4-.8 1.1-.6 2-1.4 2.6-2.5.9-1.5 1.7-3.6 2.2-6.2.6-2.6.9-5.8 1-9.5.1-5.2-.2-9.1-1.1-11.9-.9-2.8-2-4.7-3.4-5.7-1-.7-2.6-1.1-4.8-1.1l-6-.2c0 0-1 37.7-1 37.7"/><path d="m296 748.5l10.9-49.4h4.1l11.6 49.4h-4.3l-3.3-15h-11.9l-3.1 15c0 0-4 0-4 0m8.2-20.3h9.6l-3-13.7c-.9-4.2-1.6-7.6-2-10.2-.4 3.2-.9 6.3-1.5 9.4l-3.1 14.5"/><path d="m325.6 748.5v-49.4h9.8c2.2 0 3.9.2 5.1.7 1.6.7 3 1.8 4.2 3.5 1.5 2.2 2.6 5 3.4 8.5.8 3.4 1.1 7.3 1.1 11.7 0 3.8-.3 7.1-.8 10-.5 2.9-1.1 5.3-1.9 7.2-.8 1.9-1.7 3.4-2.6 4.5-.9 1.1-2.1 1.9-3.4 2.5-1.3.6-2.8.8-4.6.8 0 0-10.3 0-10.3 0m3.8-5.9h6.1c1.9 0 3.3-.3 4.4-.9 1.1-.6 1.9-1.5 2.6-2.6.9-1.6 1.6-3.6 2.1-6.2.5-2.6.8-5.8.8-9.5 0-5.2-.5-9.1-1.5-11.9-1-2.8-2.2-4.6-3.6-5.6-1-.7-2.6-1-4.9-1h-6c0 0 0 37.7 0 37.7"/><path d="m406.1 805.1v-49.4h10.7c1.9 0 3.3.2 4.3.5 1.4.4 2.6 1.2 3.5 2.3.9 1.1 1.7 2.7 2.3 4.8.6 2 .9 4.3.9 6.7 0 4.2-.8 7.8-2.3 10.7-1.5 2.9-4.3 4.3-8.3 4.3h-7.3v20.1h-3.8m3.8-25.9h7.4c2.4 0 4.2-.8 5.2-2.4 1-1.6 1.5-3.8 1.5-6.6 0-2.1-.3-3.8-.9-5.3-.6-1.5-1.4-2.5-2.4-2.9-.6-.3-1.8-.4-3.5-.4h-7.3v17.6"/><path d="m429.5 805.1l10.9-49.4h4.1l11.6 49.4h-4.3l-3.3-15h-11.9l-3.1 15h-4m8.2-20.3h9.6l-3-13.7c-.9-4.2-1.6-7.6-2-10.2-.4 3.2-.9 6.3-1.5 9.4l-3.1 14.5"/><path d="m681.7 717.5l-19-42.2 3-2.2 35.7 30-3.2 2.3-10.7-9.2-8.8 6.5 5.9 12.7-2.9 2.1m-5.1-19.4l7.1-5.2-9.7-8.4c-3-2.6-5.3-4.7-7.1-6.4 1.5 2.5 2.8 5.1 4 7.8.1-.1 5.7 12.2 5.7 12.2"/></g><g stroke="#000"><path d="m426.4 385.4c0 26.4 14.4 105.3-27.2 228-3.1 8.9 5.1 13.2 11.9 15.1 6.8 1.9 10.2-7.5 10.2-9.4 0-1.9 1.7 15.1 8.5 13.2 6.8-1.9 13.6-13.2 13.6-13.2s3.4 17 11.9 17c8.5 0 8.5-20.7 8.5-20.7 0 1.9 5.9 17.8 12.7 17.8 6.8 0 17.3-7 11.2-18.5-43.3-80.6-41-214-41-229.1 0-15.1 20.1-42.5 40.1-43.1l-7.7-13.4c-5 1.7-11 2.9-21.3 12.4-10.2 9.4-16.2 19.7-16.2 19.7v-64.1h-17l1.7 58.4c0 0-5.8-7.6-14.5-15.9-8.2-7.9-23.1-7.4-32.3-5.7l-.9 12.8c10.8 2.5 24.6-2.5 31.4 8.8 8.7 9.2 16.4 16.8 16.4 29.9z" fill="#682900" stroke-width="5.03"/><path d="m303.9 312.4v-.7c0 1.6-.1.9.8-2.1.8-2.3 2.4-4.5 4.2-6.2 3-.8 7.4 0 10.8-.7 2.3-2.7 5.8 3.5 5.8-.7 4.3-.3 4.4-3.8 5.8-5.5 4.1-.4 5-4.5 8.3-2.1 2.8 1.1.4-.7 5-.7 2.7.5 4.1 1.9 6.7.7.6-2.3 1.4-5.2 1.7-8.2-1.2-1.9-.8-5.9-.8-8.9 2.3-2.5 6.3 2 10 1.4 1-2.9 4.1-2.9 2.5-5.5-.3-3.3-1.1-5.4 0-8.9 1.3-3 3.2-3 6.7-4.8 1.1-2.7-.1-5 .8-8.2 3.9-.1 3.8-.9 4.2-4.1 1.3-2.2 2.9-4.4 5-6.2 2-2 4.3-1.8 5.8-4.8 1.3-2.7 1.3-3.9 5-4.8 2.7-1 4.8-1.2 6.7-2.7 1.7-2.5 3.2-4.5 5.8-7.5 2.6-1.5 15.2 1.4 19.1 1.4 2.1-2.2 5.4-5.6 7.5-6.9 3.6-1.6 5-2.1 10-2.1 4.3 1 6.1 2.3 10.8 1.4 1.9-2.2 3.8-3.3 8.3-2.1 3.4 1.8 5.3 1.7 6.7 4.8 1.9 3.8 1.5 5.1 6.7 5.5 5.2.2 5.7 1.2 9.2 3.4 5.2 1.9 5 .8 5 4.8 3.7 0 4.1-.4 4.2 2.7 2.3.6 4.9 2.2 6.7 3.4 2.1 2 2.6 3.2 7.5 3.4 3.6-1.2 4.8-1.2 5-4.8 2.8-.8 3.2-3 4.2-5.5 2.1-2.4 3.5-2.7 8.3-2.7 4.3 1.5 4.1 2.9 3.3 6.2 2.7.5 3.8.2 4.2 2.7 1.4 1.9 1 4.2-.8 5.5 2.1 1.3 3.4 3.5 4.2 6.2-1.4 1.9-.5 4.8 0 6.9 2.9 1.2 4.4 2.3 8.3 3.4 2 1.4 6.2 2.8 10 3.4 4.5-.5 6-.5 10 1.4 2.1 2.5 2.2 5.6 4.2 6.9 2.2 1.5 5.8 2.2 7.5 4.1 2.8 1.7 3.6 3.5 7.5 4.1 1.5 1.8 4.6 4.9 5.8 6.9.9 2.2 1.4 6.1 2.5 8.9v9.6c-.2 3.5-.8 5.7-.8 9.6-.7 2-1.7 2.7-1.7 5.5-1.6 2.9-2.9 5.3-5 7.5-.9 3.5-2.5 5.1-4.2 8.2.1 3.6.8 5.2.8 8.9-1.8 2.2-3.9 3.8-7.5 5.5-2.7 2.6-4.4 3.6-5 7.5-1.6 2.2-1.4 2.1-5 2.1-4.2 0-7.8.3-11.7.7-3.4 0-4.6.3-6.7-1.4-4-1.5-7.3-1.6-11.7-.7-2.3-1.3-3.3-2.1-7.5-2.1-3.2.4-6 .7-10 .7-2.5-2.3-3.9-2.7-8.3-2.7-2.4 1-7.2.7-10.8.7-3.8-.9-4.3-2.2-5.8-4.8-2.6-1-3.6-2.5-7.5-2.7-3.6 0-8.5.3-10.8-.7-2.7-.3-5.6-.8-7.5-2.1-1.6-1.9-3.5-3.5-5.8-4.8-3.7 0-5.9.3-7.5-1.4-2.7-1.8-4.9-4.6-8.3-6.2-3.1-2-5.1-3.2-6.7-6.9 0-3.2.8-4-3.3-4.1-2.8 2.3-4 2.7-9.2 2.7-3.4 0-6.9 0-9.2-.7-3.7-1.7-5-2.5-9.2-2.7-2.6 1.4-6 2.9-10 3.4-3.4 1.6-5.4 2-6.7 4.8-3.1 2.1-5 3.4-9.2 4.8-2.3 1.8-4.5 2.1-5.8 5.5-.8 2.8-1.7 4.4-1.7 8.2.6 3.6.4 5.1-1.7 8.2-1.7 2-4.8 3-7.5 4.8-4.1.4-4.5.2-7.5-1.4-2.9-.8-6.3-1.5-10-2.1-4.5-.7-6-1.6-8.3-3.4l8.3 3.4c-4.5-.7-6-1.6-8.3-3.4-5.1-2.9-6.1-4.4-11.7-4.8-5.2.1-7.4.3-8.3 4.1 3 .6.6 2.1-.8 2.7-2.1 1.5-5.4 2.8-8.3 3.4-1.3 1.1-1.1-.9-3.3-1.4-3.4-1.5-4.9-2.7-8.3-3.4-1.7-2.4-3.6-4.3-5.8-6.9-1.7-2.3-3.4-3.2-5.8-5.5-1.2-1.4-4.2-1.5-5.8-2.7-1-2.5-3.2-7.1-2.5-9.6 1.7-1.3 2.6-6 5-6.9 3.4-2.1 4.6-.2 9.2 0 4.3 0-5.9-5.5-1.7-5.5 3.9-.5 4.4-2.1 5.8-4.1l9.9.5z" fill="#009200" stroke-width="4.464"/></g><g fill="none"><g stroke="#006800" stroke-width="4.05"><path d="m376.3 249.8c.9.7 4.7 2.5 8.3 2.5 4 .7 4.8 2.2 5.8 5.8 2.2 1.3 3.5 1.7 7.5 1.7 4.4.9 4.3 2.2 7.5 5"/><path d="m352.2 296.4c1.8.3 8.2.8 12.5.8 3.3-1.9 4.9-3.2 7.5-5 3.9 0 5.3.4 7.5 1.7 2.1.7 7.1 1 9.2 1.7 0 1.1-.3.8.8.8"/><path d="m384.6 283.1c.1 0 3.3-1.9 5.8-2.5 2.8-2 5.9-2.9 9.2-4.2 2.1-.5 7.1-.4 8.3-.8"/><path d="m425.4 270.6v.8c0-2.3-.1-1.1 1.7 3.3.9 4.1 1.9 7.5 3.3 10.8 2.5 3.8 4.1 5.5 7.5 7.5 2.9 2.3 5.2 4.7 8.3 5.8 2.2 2 5.1 3.6 8.3 5 4.3 0 7.6.7 11.7.8h2.5"/><path d="m470.4 224v.8c0-2.2.1-1.1-.8 3.3-1.3 2.7-2.7 5.1-4.2 7.5-3.9 1.4-5.4 4.3-6.7 7.5-1.4 2.2-3.5 5.2-5 7.5-2.6 3.2-3.6 4.2-8.3 5.8"/><path d="m503.7 241.4c0 .2-1.5 2.4-2.5 5-1.7 2.4-2.1 6.9-2.5 10 0 3.6 0 7.6.8 10 2.5 3.1 3.2 4.8 7.5 6.7l-7.5-6.7c2.5 3.1 3.2 4.8 7.5 6.7"/><path d="m564.5 270.6v.8c0-2.6.2-1-4.2 2.5-3.3 3-5.6 5.4-8.3 7.5-4.7 1.3-5.5 1.2-10 .8h-7.5"/><path d="m576.1 333.9h-.8c2.3 0 1.1-.1-3.3 1.7-3.7.9-7.9 1-10.8 0-3-1.7-6-3.1-8.3-5.8-1.2-.9-1.4-1.3-2.5-1.7"/><path d="m547 359.7v-.8c0 2.6.2 1-4.2-2.5-1.9-2.8-3.7-3.8-7.5-6.7-3.2-3.9-3.7-5.5-5-10-.4-3.3-1.5-6.7 0-9.2"/><path d="m485.4 345.5c1.8 0 8.6-.2 11.7-.8 2.4-1.6 5.1-2.7 8.3-4.2 1.8-4.4 3.3-5.8 3.3-10.8"/><path d="m434.6 320.5c-.7-1.5-3.5-7.4-5-10.8-.1-3.6-.8-6.3-.8-10"/><path d="m322.2 347.2c.8.1 4.4.4 6.7 0 3.6-1.9 7-2.2 10.8-2.5 1.9-1.2 5.1-1 6.7-2.5 3.5-2.3 3.9-4.6 5.8-8.3.2-1.7.7-2.5.8-4.2"/><path d="m377.1 334.7c-1.8 0-8.7.1-12.5-.8-2-1.3-3.4-3.4-5-5 1.1 0 .8.3.8-.8"/><path d="m387.1 310.5c.4-.1 4.5-1.7 7.5-1.7 1.8-1.2 4.8-2.2 7.5-3.3 1.5-.8 2.5-1.8 4.2-2.5"/><path d="m286.4 343.8h.8c-2.2 0-1.1.1 3.3-.8 5.2-.3 8.7-2.1 12.5-3.3 2.5-2.3 5.9-4.6 8.3-5.8 0-1.4-.3-1.3.8-1.7"/><path d="m497.9 298.1h.8c-2.3 0-1.1-.1 3.3 1.7 3.5 1.3 6.7 1.8 10 2.5 3 .7 4.1 1.7 8.3 1.7 4.2 1.8 5.1 2.4 8.3 5 2.5 1.2 4.2 1.7 8.3 1.7 2.2-1.2 6.2-2.6 8.3-3.3 1.2-.9 1.3-.5 1.7-1.7"/></g><g stroke="#000"><path d="m437.6 462.9v18.8c0 6-.6 11.3-2.4 16.5 0 5.9-.1 11.6-2.4 15.3-.4 5.6-1.2 10.5-1.2 16.5-1.7 5.1-1.5 12-2.4 17.7-.7 5.5-1.4 12.1-2.4 16.5-1.8 3.7-4.7 10.3-7.1 13-.3 5.1-1.5 7.6 0 11.8 1.6 4.9 1.2 10.8 1.2 16.5 1.5 4.6 1.2 10 1.2 15.3"/><path d="m443.5 486.4c.4 2.4 2.1 10.9 2.4 16.5v25.9c0 6.3.5 11.9 1.2 17.7-.1 6.9-1.3 9.5-4.7 15.3-.7 5.6-1.7 10.9-2.4 16.5-1.6 4.9-1.2 10.8-1.2 16.5 1.4 6.3 3.7 7.5 4.7 13 0 3.4.3 5.1 1.2 7.1"/><path d="m454.1 528.8c0 2.2-.1 12.5 1.2 16.5 0 6 1.1 10.5 1.2 16.5-.7 5.3-1.5 9.1-4.7 11.8-2.1 4.4-3.3 8.2-3.5 14.1 3 2.1 6.3 8.1 9.4 10.6 2.6 5.4 5 5.6 5.9 11.8 2.5 2.7-1.7 4.2 0 5.9 1.9 2.5.7 1.5 0 3.5"/></g></g><g fill="#ffd100" stroke="#000" stroke-width="3.125"><path d="m479.1 16.6l12.6 20.3 23.9.9-11.2 21.1 11.2 21.1-23.9.8-12.6 20.3-12.7-20.3-23.9-.8 11.3-21.1-11.3-21.1 23.9-.9z"/><path d="m381.5 16.6l12.7 20.3 23.9.9-11.3 21.1 11.3 21.1-23.9.8-12.7 20.3-12.6-20.3-23.9-.8 11.2-21.1-11.2-21.1 23.9-.9z"/><path d="m286.4 35.5l15.2 18.5 23.8-2.3-8.4 22.4 13.8 19.5-23.5 3.9-10 21.8-15.1-18.5-23.8 2.3 8.4-22.4-13.9-19.5 23.6-4z"/><path d="m582.1 32.8l-15.2 18.5-23.8-2.2 8.4 22.4-13.8 19.4 23.5 4 10 21.7 15.1-18.5 23.8 2.3-8.4-22.4 13.9-19.5-23.6-3.9z"/><path d="m677.6 77.1l-18.7 15-22.8-7.1 3.6 23.6-17.5 16.2 22.2 8.7 5.3 23.4 18.6-15 22.8 7.1-3.6-23.6 17.6-16.3-22.3-8.6z"/><path d="m188.3 71.8l18.6 15 22.8-7.1-3.6 23.6 17.6 16.2-22.3 8.7-5.2 23.4-18.7-15-22.8 7.1 3.6-23.6-17.5-16.2 22.2-8.7z"/></g></g></g></svg>