<svg xmlns="http://www.w3.org/2000/svg" viewBox="0 0 640 480"><g fill-rule="evenodd" stroke-width="1.25" transform="scale(.80632.96758)"><path fill="#06f" d="M 0,0 H793.73 V496.07 H0 z"/><path fill="#fff" d="m264.58 0h264.58v496.08h-264.58z"/></g><path d="m401.82 305.02c-1.76-1.831-11.128-4.69-17.788-5.264-5.755-.454-9.467-4.238-12.877-4.612-9.856-9.91-22.741-13.697-31.17-32.99-1.602-5.79-2.741-12.841-2.912-19.585 3.18-22.53 5.238-21.922 9.985-36.818" transform="matrix(-2.0498 0 0 2.0497 1136.23-264.43)" stroke="#000" stroke-width=".5" fill="none"/><g fill="#0c5c1d" fill-rule="evenodd"><g stroke-width=".769"><path d="m348.74 354.44c.353 3.407 10.761 15.973 28.738 13.764-1.607-3.468-5.512-5.956-11.11-11.177-2.564-2.642-17.753-4.198-17.624-2.587"/><path d="m370.14 350.88c-2.091.182-3.95 1.427-.377 4.565 6.03 5.065 27.644 9.724 30.901 3.294-9.568-1.291-15.947-3.318-16.931-3.282-4.444-1.455-10.173-4.899-13.592-4.577"/></g><g stroke-width=".512"><path d="m359.36 349.33c4.36-2.999 7.738-2.751 10.559-3.343 7.223-.5 12.164.492 15.187 1.742 4.475 1.927 10.993 6.75 11.819 10.253-6.643-.125-11.05-5.139-19.6-7.04-4.364-.377-12.43-.939-17.964-1.613"/><path d="m347.81 348.02c12.6-7.754 24.546-21.97 25.771-36.826-15.736 12.314-26.405 30.09-25.771 36.826"/><path d="m354.93 347.88c10.655-4.622 25.09-14.975 26.842-36.507-14.619 9.201-19.295 22.807-26.842 36.507"/><path d="m377.41 337.5c-.822-6.077 13.773-37.833 22.287-46.01.931 12.224-10.958 46.557-22.287 46.01"/><path d="m376.97 338.71c2.216 9.418 26.305 11.864 34.08.822-9.683-1.615-21.654-2.556-34.08-.822"/><path d="m387.55 332.24c9.853 6.207 33.87 1.859 47.867-9.237-20.906-6.299-46.789 5.713-47.867 9.237"/><path d="m406.54 318.67c1.564-6.844 21.83-20.36 34.902-19.612-8.304 11.269-11.151 9.34-15.476 14.34-2.956 3.708-13.27 6.432-19.426 5.272"/><path d="m413.21 303.12c-7.175-2.718-5.573-23.42-.775-31.865 4.858 11.401 6.157 29.17.775 31.865"/><path d="m423.11 295.47c-9.548-5.311-6.106-31.28-1.019-38.565 3.989 7.756 6.082 34.792 1.019 38.565"/><path d="m426.76 295.24c5.528-8.704 24.783-9.08 33.24-5.715-9.188 8.99-23.334 9.442-33.24 5.715"/><path d="m432.45 289.65c-7.955-12.438-3.02-19.03 1.841-34.429 2.349 13.08.455 26.876-1.841 34.429"/><path d="m442.54 262.07c1.369-11.53 11.814-16.975 23.688-20.94-2.465 8.489-7.588 17.677-23.688 20.94"/><path d="m439.7 268.35c-12.429-2.129-13.01-13.985-12.748-25.582 3.544 6.388 12.05 14.613 12.748 25.582"/><path d="m436.54 248.25c2.942-7.205-2.225-26.689-14.916-33.866.202 11.929 8.324 26.755 14.916 33.866"/><path d="m443.58 244.06c1.819-4.297 2.997-6.482 5.743-11.955 4.762-9.998 1.686-6.65 8.121-18.748 3.476 13.505-3.48 29.622-13.863 30.702"/><path d="m444.42 207.89c-8.602 4.718-17.326 1.659-29.27-7.906 9.853-.89 18.694 3.846 29.27 7.906"/><path d="m442.05 203.1c5.145-17.09 8.17-19.996 12.394-38.542-10.56 8.548-15.99 27.07-12.394 38.542"/><path d="m440.11 201.96c-11.586-8.412-14.311-17.964-27.645-21.448.281 4.776 19.454 24.716 27.645 21.448"/><path d="m437.12 190.26c-7.397-9.205-11.48-16.719-22.437-23.372 1.753 11.23 14.02 27.547 22.437 23.372"/><path d="m423.09 169.72c2.349-12.846-13.558-21.369-19.07-27.955-.623 11.349 9.308 24.703 19.07 27.955"/><path d="m423 154.95c3.69-11.574-6.679-19.415-11.843-25.318.826 11.292 2.535 22.944 11.843 25.318"/><path d="m438.02 177.92c4.567-7.458 1.968-24.567-.986-31.774-3.688 3.949-5.452 30.425.986 31.774"/><path d="m430.95 162.75c5.176-9.146 2.273-18.916-.763-26.11-3.351 10.681-5.777 20.958.763 26.11"/><path d="m441.49 235.21c7.677-.984 13.11-16.994 7.826-31.31-4.919 12.742-4.909 18.806-7.826 31.31"/><path d="m439.53 206.86c9.554.489 15.575-7.769 20.638-22.21-7.866 5.05-11.738 18.401-20.638 22.21"/><path d="m445.98 239.14c-8.737 2.092-18.589-20.794-11.827-33.691 7.416 14.782 9.09 20.979 11.827 33.691"/><path d="m436.68 272.69c1.2-8.738 19.948-10.961 29.362-9.04-7.531 6.05-22.852 9.795-29.362 9.04"/></g><path d="m432.24 286.56c5.324-4.65 13.748.366 27.26-25.982-18.17 10.366-25.15 22.437-27.26 25.982" stroke-width=".552"/></g><path d="m399.56 306.24c-1.412-2-8.867-4.168-15.527-4.742-5.755.242-11.03-1.107-15.833-3.568-9.857-9.91-20.828-16.48-29.25-35.773-1.602-5.79-2.568-11.1-2.739-17.846 3.18-22.53 3.499-24.704 12.246-39.6" transform="matrix(2.0498 0 0 2.0497-493.42-266.93)" stroke="#000" stroke-width=".5" fill="none"/><g fill-rule="evenodd"><g fill="#0c5c1d"><g stroke-width=".769"><path d="m282.22 354.72c-.353 3.407-12.274 13.956-28.738 13.764 1.607-3.468 17.798-7.182 22.21-13.446 1.304-1.886 6.662-1.929 6.533-.318"/><path d="m270.13 349.89c2.07-.348 3.194.67-.379 3.808-6.03 5.065-16.3 7.455-31.405 10.1 5.03-5.071 17.208-9.367 18.19-9.33 4.444-1.455 9.669-3.89 13.592-4.577"/></g><g stroke-width=".512"><path d="m278.9 349.35c-1.587-3.503-3.2-5.272-6.02-5.864-7.223-.5-12.92.744-15.187 1.742-2.458 1.422-10.237 6.498-11.06 10 5.887-1.638 9.786-6.147 18.34-7.291 4.112-1.386 9.909-1.191 13.93 1.412"/><path d="m294.99 345.53c-12.6-7.754-20.514-17.686-21.739-32.542 15.736 12.314 22.373 25.809 21.739 32.542"/><path d="m287.12 347.65c-11.915-5.126-16.267-14.723-24.573-30.459 14.871 7.436 21.06 15.246 24.573 30.459"/><path d="m260.35 342.3c2.585-10.615-1.927-26.24-9.685-33.908-.678 11.972 1.632 31.936 9.685 33.908"/><path d="m256.25 339.49c-2.216 9.418-26.809 9.595-34.08.822 7.414 1.662 23.671 1.982 34.08-.822"/><path d="m249.71 332.01c-7.584 5.702-38.15-3.687-38.54-8.985 4.02-.503 37.461 5.46 38.54 8.985"/><path d="m247.5 330.05c4.432-8.752-7.756-36.452-12.631-36.23 2.88 20.718 8.089 30.14 12.631 36.23"/><path d="m239.53 322.73c-2.825-6.592-24.1-17.839-34.902-19.612 8.808 9.252 14.476 7.953 17.493 13.835 2.199 3.96 11.758 4.667 17.409 5.776"/><path d="m235.53 317.75c2.216-8.309 1.107-11.634-4.323-17.617-.553 8.752.555 12.188 4.323 17.617"/><path d="m227.56 308.47c5.981-3.92 2.327-23.977-2.993-29.583-1.107 14.458-2.548 27.23 2.993 29.583"/><path d="m216.92 293.48c10.304-3.546 2.324-22.713-.998-30.25-3.989 7.754 2.993 11.853.998 30.25"/><path d="m215.03 294.75c-8.553-8.199-23.775-8.829-32.23-5.464 10.195 3.445 25.854 5.661 32.23 5.464"/><path d="m206.06 276.47c-2.237-8.532-21.12-8.496-30.23-5.464 8.2 5.107 23.859 6.991 30.23 5.464"/></g><path d="m212 289.86c-5.324-4.65-13.748.366-27.26-25.982 18.17 10.366 25.15 22.437 27.26 25.982" stroke-width=".552"/><g stroke-width=".512"><path d="m209.85 290.18c7.955-12.438 3.02-19.03-1.841-34.429-2.349 13.08-.455 26.876 1.841 34.429"/><path d="m197.72 261.84c-2.378-11.278-13.07-16.975-23.939-18.419 2.969 5.716 11.12 7.846 23.939 18.419"/><path d="m199.59 267.57c12.558-1.142 14.07-12.915 14.726-24.497-4.04 6.088-13.161 13.618-14.726 24.497"/><path d="m199.47 252.76c7.326.736 16.471-15.19 13.205-27.991-5.976 14.18-6.508 19.16-13.205 27.991"/><path d="m196.35 239.22c7.726-.464 14.229-16.07 9.92-30.713-3.573 13.54-1.943 19.477-9.92 30.713"/><path d="m195 246.21c-1.861-4.517-5.396-5.967-7.05-11.863-2.999-10.546-8.707-12.21-7.834-20.451 13.276 15.456 16.782 24.694 14.884 32.31"/><path d="m195.67 234.65c-3.332-29.881 2.588-17.17-10.355-45.34 19.279 17.268 13.952 44.17 10.355 45.34"/><path d="m196.55 222.01c-.643-9.545 7.516-15.698 21.87-20.994-4.924 7.946-18.21 12.03-21.87 20.994"/><path d="m199.97 200.1c-5.145-17.09-8.17-19.996-12.394-38.542 10.56 8.548 15.99 27.07 12.394 38.542"/><path d="m204.7 199.46c11.586-8.412 14.311-17.964 27.645-21.448-.281 4.776-19.454 24.716-27.645 21.448"/><path d="m203.91 191.55c7.397-9.205 11.48-16.719 22.437-23.372-1.753 11.23-14.02 27.547-22.437 23.372"/><path d="m220.78 162.67c.376-13.05 17.709-18.08 24.476-23.372-1.753 11.23-14.247 22.22-24.476 23.372"/><path d="m219.38 153.7c-2.306-11.927 8.913-18.496 14.734-23.752-2.146 11.12-5.212 22.487-14.734 23.752"/><path d="m204.03 172.9c-4.567-7.458-1.968-24.567.986-31.774 3.688 3.949 5.452 30.425-.986 31.774"/><path d="m212 162.36c-3.809-9.794.467-19.05 4.505-25.731 1.782 11.05 2.707 21.57-4.505 25.731"/></g></g><path d="m273.41 324.1c34.728-33.968 64.923-63.41 113.24-93.76-78.21 60.919-75.79 65.67-108.71 96.25-1.359-1.133-3.171-1.359-4.53-2.492" stroke-width=".512" fill="#6f8593"/><g fill="#6a0d06" stroke-width=".25"><path d="m343.95 292.26l6.312 6.936 19.13-29.04 8.05-8.554-1.949-2.836-12.363 12.09-1.422 2.833-17.759 18.578" transform="matrix(2.0498 0 0 2.0497-493.42-266.93)"/><path d="m343.29 292.26l8.08 7.157 18.02-29.26 10.482-11.427-2.833-1.952-13.91 14.07-1.422 2.833-18.422 18.578" transform="matrix(-2.0498 0 0 2.0497 1129.32-266.02)"/></g><path d="m372.1 296.72c.34-2.152 3.167-6.34-3.173-12 .152-3.02 3.245-6.151 5.664-7.699 2.038 0 7.925 4.112 10.53 8.717 1.474 3.21 2.228 8.191.34 12-1.398 2.113-3.02 4.567-4.756 5.549-.83.603-2.681.414-4.19-.228-2.378-1.207-4.19-4.679-4.415-6.34" stroke-width=".512" fill="#bbcdcd"/><path d="m409.48 224.97l14.11-14.237.845.034.293.94.453 1.307 1.671 1.571 22.03-20.663-20.72 22.601-.978.011-3.02-3.146-1.273.296-10.389 12.167-3.02-.881" transform="matrix(-2.0498 0 0 2.0497 1132.21-270.36)" stroke-width=".25"/><g stroke-width=".512"><path d="m330.6 364.68c52.914-85.93 99.01-145.15 14.57-221.08-3.159-3.179-14.07-13.247-20.898-15.416-.951-6.151 3.71-15.865-8.201-16.668-5.065.269-7.566 2.078-7.463 6.651.01 3.554 1.888 5.11.92 8.289-.357 1.589-4.303 5.212-4.061 9.834 1.533 9.847 5.336 12.257 6.49 13.659 2.066 2.054 3.302 3.501 9.37 6.01.672.808 2.464 2.314 3.384 3.327 11.149 2.386 21.312 1.168 28.515 4.759 3.14.967 8.177 6.297 9.814 8.965 20.344 22.305 29.15 58.1-1.96 95.89 6.231.51 21.15-25.02 24.553-46.702-4.766 32.34-15.314 43.632-20.541 53.3 10.45-6.961 18.86-31.473 20.818-36.509-8.285 44.618-51.19 99.71-78.18 111.28 24.434-5.665 40.826-30.01 49.52-38.737-8.466 17.459-25.879 42.17-26.645 53.17z"/><path d="m366.96 326.36c-33.822-34.19-87.8-85.83-114.6-91.49 41.748 26.949 78.51 63.18 110.07 93.98 1.359-1.133 3.171-1.359 4.53-2.492" fill="#6f8593"/></g><path d="m408.07 226.08l15.517-15.345.845.034.293.94.453 1.307 1.671 1.571 22.03-20.663-20.72 22.601-.978.011-3.02-3.146-1.273.296-13.21 14.636-1.608-2.242" transform="matrix(2.0498 0 0 2.0497-490.68-270.36)" stroke-width=".25"/><g stroke-width=".512"><path d="m261.64 181.42c1.662-9.06 4.454-15.627 13.816-17.211 24.534-1.058 47.26-1.209 72.924-.681 7.322 5.813-.301 17.74-7.927 18.345 11.702 20.228 27.707 35.704 29.896 59.56.754 12.532-3.659 20.655-8.093 25.17-33.727.822-50.07 5.02-78.26 7.205-7.875.947-13.797-8.213-13.721-15.838.045-7.881 3.286-14.04 12.04-15.13 2.718-.295 6.502-.115 9.898-.039-6.568-19.626-31.932-42.876-30.575-61.37" fill="#e3cf6e"/><path d="m305.92 133.15c-2.911 9.347 4.403 17.373 5.557 18.775 2.066 2.054 3.415 3.728 9.482 6.233.672.808 9.355 5.758 10.597 6.93 9.234 2.421 14.14-1.728 24.655.853-2.706-6.682-30.798-34.09-50.29-32.791" fill="#336446"/><path d="m306.17 137.39c-2.829 4.622 4.643 15.69 5.797 17.09 2.066 2.054 3.415 3.728 9.482 6.233.672.808 3.679 2.328 4.12 2.859 0 0 7.953 1.455 7.953 1.455-2.706-6.682-18.07-29.799-27.353-27.64" fill="#402e08"/></g><path d="m391.7 190.53l-.922.671 1.342.671-.42-1.342" transform="matrix(2.0498 0 0 2.0497-493.75-268.94)"/><g stroke-width=".512"><path d="m305.45 140.63c1.533 9.847 5.2 12.526 6.436 13.852 1.984 2.13 3.495 3.489 9.562 6.233 2.435 2.01 3.36 2.57 5.243 3.581 0 0 6.424.955 6.424.955-2.706-6.682-18.727-21.905-27.666-24.621" fill="#8c361d"/><path d="m263.9 295.92c-.34-2.152-3.167-6.34 3.173-12-.152-3.02-3.245-6.151-5.664-7.699-2.038 0-7.925 4.112-10.53 8.717-1.474 3.21-2.228 8.191-.34 12 1.398 2.113 3.02 4.567 4.756 5.549.83.603 2.681.414 4.19-.228 2.378-1.207 4.19-4.679 4.415-6.34" fill="#bbcdcd"/><path d="m268.43 327.28c-2.87 3.323-14.11 9.814-16.306 12.01-1.812 2.415 2.491 5.737 5.209 6.114 4.831-3.624 9.663-8.607 14.04-11.548 6.106-5.641 5.703-6.104 15.63-3.173-1.435-5.284-11.475-9.435-17.212-10.642-9.665 1.056-14.12 5.057-16.08 10.642 6.416-4.831 10.796-7.172 14.722-3.398" fill="#d4be72"/><g fill="#fff"><path d="m373.76 296.58c.18-1.033.76-1.591.777-3.62 2.117 3.046 3.128 4.595 5.881 8.463-.992 1.324-2.423.699-3.772.057-1.257-.806-3.06-3.4-2.886-4.901"/><path d="m262.53 295.9c-.18-1.033-.76-1.591-.777-3.62-2.117 3.046-3.128 4.595-5.881 8.463.992 1.324 2.423.699 3.772.057 1.257-.806 3.06-3.4 2.886-4.901"/></g><path d="m369.91 329.54c2.87 3.323 14.11 9.814 16.306 12.01 1.812 2.415-2.491 5.737-5.209 6.114-4.831-3.624-9.663-8.607-14.04-11.548-5-6.01-7.174-5.737-15.63-3.173 1.435-5.284 11.475-9.435 17.212-10.642 9.665 1.056 14.12 5.057 16.08 10.642-6.416-4.831-10.796-7.172-14.722-3.398" fill="#d4be72"/><path d="m292.06 242.87c2.402 3.443 4.403 11.05 4.725 15.932.426 9.447-9.156 14.252-12.414 13.852-6.19-.748-11.264-5.417-11.77-12.651.986-8.432 4.536-13.11 10.409-13.452 3.845.668 8.168 5.26 8.168 10.81-.107 4.591-1.414 9.181-4.245 9.287-6.885-.533-6.486-4.509-7.607-6.645-.293-1.574-.539-5.835.242-6.885 1.027-1.275 5.764-2.962 8.08.32 2.509 2.56-3.708-1.361-6.164.398-1.254 1.789-.426 4.698-.08 5.846.428 1.148.375 4.938 5.125 4.725 1.736-.264 2.349-3.819 2.482-7.287.269-2.374-3.069-7.151-6.406-8.166-2.322-.373-8.01 4.376-7.767 11.05.455 7.58 6.672 10.195 10.01 9.687 3.388-.906 10.462-3.575 10.169-11.128-.748-8.328-2.298-11.771-4.967-15.774 1.041 0 .963 0 2 .082"/></g><path d="m407.42 220.01l-.704-1.133h-15.16c-4.297.391-10.841 1.042-13.09 2.02-5.768 2.839-7.339-2.174-7.652-3.424-.335-1.146.381-3.216 1.501-3.945.443-.847 2.919-1.774 4.416-1.214 1.693.716 2.429 2.853 2.159 4.299-.508 2.149-4.574 3.476-3.128 1.289.182-.961.914-3.633-.375-5.547l-1.18.234c1.64 3.415.135 5.109.057 6.085-.077 1.641 1.325 1.498 2.411 1.456.742-.039 1.994-.978 2.502-1.486.611-.533.705-1.567.78-2.772.192-3.18-2.721-5.443-4.687-5.157-5.976 1.485-6.12 6.471-4.766 9.06.755 1.302 1.628 2.097 3.086 2.852 1.224.365 3.075.156 4.531-.391 2.883-1.035 7.555-1.953 13.376-2.096l15.922-.13" transform="matrix(2.0498 0 0 2.0497-493.42-266.93)" stroke-width=".25"/></g><g fill="#8c361d" stroke-width="1.25"><g transform="matrix(.97231 0 .49155.87501-318.76-243.6)"><g transform="translate(-8.839 144.07)"><path d="m400.5 402.91l.239 2.137-.21.023c-.179-.479-.357-.817-.532-1.013-.175-.201-.402-.351-.681-.449-.154-.053-.417-.059-.785-.018l-.589.066.681 6.091c.045.403.094.653.148.749.058.096.155.176.292.239.14.059.322.076.548.05l.262-.029.024.216-4.134.462-.024-.216.261-.029c.23-.026.409-.087.54-.184.095-.066.165-.168.208-.306.032-.098.026-.345-.018-.741l-.68-6.091-.571.064c-.532.059-.905.215-1.122.466-.302.353-.465.825-.489 1.417l-.222.025-.239-2.137 7.093-.792"/><path d="m379.71 405.7l.359 3.214.157-.017c.5-.056.847-.254 1.036-.594.191-.339.282-.819.276-1.44l.221-.024.461 4.134-.22.025c-.097-.445-.238-.803-.421-1.073-.18-.271-.374-.445-.583-.519-.209-.079-.502-.098-.879-.056l.249 2.226c.048.434.096.698.142.791.049.093.128.165.236.216.107.05.274.063.499.038l.472-.053c.738-.082 1.309-.318 1.713-.71.408-.391.67-.947.787-1.667l.215-.024-.075 2.549-6.825.762-.024-.216.263-.029c.228-.025.409-.087.539-.184.095-.066.162-.167.202-.305.032-.098.026-.345-.018-.741l-.581-5.194c-.039-.357-.074-.576-.102-.655-.054-.132-.138-.228-.251-.291-.16-.092-.368-.124-.623-.095l-.262.029-.024-.215 6.608-.738.261 2.334-.22.025c-.177-.558-.382-.949-.616-1.175-.229-.226-.537-.377-.922-.451-.226-.045-.637-.035-1.235.032l-.815.091"/><path d="m369.04 414.2l.024.216-4.128.461-.024-.216.262-.029c.229-.026.409-.087.539-.184.095-.066.162-.167.202-.305.033-.099.026-.345-.018-.741l-.58-5.195c-.045-.403-.094-.653-.148-.75-.054-.095-.152-.173-.292-.232-.137-.064-.316-.083-.537-.059l-.262.03-.024-.215 4.128-.461.024.215-.261.029c-.23.025-.409.087-.54.184-.095.066-.164.168-.207.307-.033.097-.027.345.017.74l.58 5.195c.045.404.095.654.149.749.058.096.156.176.292.239.14.059.321.076.543.051l.261-.029"/><path d="m363.96 412.18l.013 2.805-7.01.783-.024-.215.262-.03c.229-.025.409-.086.54-.184.094-.066.162-.167.201-.305.032-.098.027-.345-.017-.741l-.581-5.194c-.045-.404-.095-.654-.149-.75s-.151-.174-.29-.232c-.137-.065-.317-.084-.538-.059l-.262.029-.024-.215 4.21-.47.024.215-.344.038c-.228.026-.408.087-.539.184-.095.066-.164.168-.208.307-.032.097-.026.345.019.741l.561 5.03c.046.405.097.66.157.768.058.103.159.174.301.214.101.024.338.015.711-.026l.658-.074c.419-.047.76-.16 1.022-.338.264-.179.479-.439.645-.78.17-.341.311-.832.425-1.474l.238-.027"/></g><path d="m401.74 553.85l-.024-.215.261-.03c.23-.025.401-.08.513-.163.116-.088.196-.196.24-.327.026-.086.017-.332-.029-.74l-.58-5.194c-.045-.404-.095-.654-.149-.75s-.15-.174-.291-.232c-.137-.065-.316-.084-.538-.059l-.261.029-.024-.215 3.534-.394c.944-.106 1.717-.062 2.32.129.738.237 1.323.652 1.755 1.249.436.595.699 1.295.789 2.099.062.555.03 1.078-.096 1.568-.127.485-.315.897-.564 1.236-.249.334-.55.615-.902.843-.349.223-.785.416-1.31.577-.231.072-.601.138-1.11.195l-3.534.394m2.178-7.784l.688 6.161c.037.326.075.524.114.595.039.07.098.12.176.151.112.046.266.058.464.036.648-.072 1.118-.348 1.411-.829.399-.65.528-1.604.387-2.861-.113-1.014-.362-1.805-.748-2.376-.305-.445-.665-.731-1.081-.857-.293-.09-.763-.096-1.411-.02"/><path d="m397.68 552.03l-2.79.311-.246.807c-.08.267-.111.485-.092.652.024.221.132.374.322.459.112.051.376.069.79.053l.025.216-2.627.293-.024-.215c.278-.075.499-.217.66-.427.161-.215.341-.638.542-1.27l2.121-6.615.11-.013 3.57 6.157c.341.583.607.944.8 1.084.145.105.34.155.583.147l.024.216-3.82.427-.025-.216.157-.018c.308-.034.518-.101.633-.2.078-.071.11-.165.097-.282-.007-.07-.026-.141-.058-.211-.012-.034-.086-.174-.223-.418l-.529-.937m-.247-.408l-1.48-2.589-.907 2.855 2.387-.266"/><path d="m379.17 552.73l.247 2.212c.048.427.103.695.166.802.067.102.17.179.309.231.139.051.389.056.751.015l.024.216-4.04.452-.024-.216c.365-.041.608-.101.728-.181.125-.085.206-.185.245-.299.041-.114.039-.386-.009-.813l-.572-5.124c-.048-.428-.105-.692-.171-.794-.063-.108-.165-.187-.304-.238s-.39-.057-.751-.017l-.024-.214 3.669-.41c.955-.107 1.661-.119 2.118-.036.457.082.847.286 1.166.612.318.323.505.722.558 1.199.065.583-.091 1.087-.468 1.515-.241.27-.596.493-1.063.667l2.197 2.461c.287.317.488.513.602.587.173.102.364.147.575.136l.024.216-2.486.277-2.946-3.314-.519.058m-.433-3.873l.387 3.459.332-.037c.539-.06.937-.154 1.195-.281.256-.13.446-.333.569-.606.126-.277.166-.623.119-1.039-.067-.602-.259-1.03-.574-1.286-.311-.256-.779-.35-1.405-.28l-.623.07"/><path d="m365.33 553.68c.769.091 1.318.244 1.649.458.474.305.742.739.805 1.302.067.593-.117 1.111-.552 1.553-.534.536-1.359.865-2.477.99l-4.01.448-.024-.215c.365-.041.607-.102.728-.181.124-.086.205-.185.244-.299.042-.115.039-.386-.009-.813l-.572-5.125c-.048-.427-.105-.691-.171-.793-.064-.108-.164-.187-.304-.238-.139-.051-.389-.057-.75-.017l-.024-.215 3.784-.422c.905-.101 1.555-.092 1.95.029.394.117.718.325.971.622.253.295.399.622.44.984.042.379-.057.735-.3 1.065-.242.325-.701.614-1.376.867m-2.138.079c.551-.061.95-.169 1.196-.322.25-.154.433-.35.548-.592.114-.241.152-.536.113-.885-.039-.35-.141-.627-.305-.833-.161-.209-.376-.359-.646-.446-.269-.088-.687-.098-1.253-.031l.347 3.109m.051.455l.283 2.533.027.292c.023.209.094.363.21.459.121.093.286.127.496.104.31-.035.587-.134.832-.299.249-.169.429-.392.539-.667.11-.28.147-.581.111-.903-.041-.369-.163-.689-.367-.962-.203-.276-.461-.455-.773-.538-.311-.083-.765-.09-1.358-.019"/></g><g transform="matrix(.97231 0 .45806.87501-294.02-255.34)"><g transform="translate(-8.839 144.07)"><path d="m384.01 417.29l.359 3.214.158-.017c.501-.056.846-.254 1.036-.594.19-.339.281-.819.276-1.44l.221-.024.462 4.134-.222.025c-.097-.445-.237-.803-.42-1.073-.18-.271-.374-.444-.583-.519-.21-.079-.502-.098-.879-.055l.248 2.225c.049.434.097.698.142.791.05.093.129.165.237.216.108.05.274.063.499.038l.472-.053c.737-.082 1.309-.318 1.713-.709.408-.392.671-.948.786-1.668l.216-.024-.075 2.549-6.825.762-.024-.215.262-.03c.229-.025.409-.087.539-.184.096-.066.163-.167.203-.305.032-.098.025-.345-.019-.741l-.58-5.194c-.04-.357-.073-.576-.102-.655-.054-.132-.137-.228-.251-.291-.159-.092-.367-.124-.624-.095l-.262.029-.024-.215 6.61-.738.261 2.335-.222.024c-.176-.558-.382-.949-.615-1.175-.23-.226-.537-.376-.923-.451-.225-.045-.637-.035-1.234.032l-.816.091"/><path d="m364.97 418.96l3.698-.413-.421 1.567-3.11.348-.209.819c1.345-.099 2.413.12 3.205.656.65.443 1.018 1.043 1.102 1.799.054.486-.031.977-.254 1.473-.224.493-.572.893-1.045 1.202-.473.304-1.01.49-1.606.557-.645.072-1.154.007-1.525-.195-.26-.144-.403-.325-.427-.542-.019-.167.027-.322.137-.464.114-.142.254-.223.421-.242.152-.017.309-.003.471.042s.446.178.852.4c.255.137.471.226.649.27.126.033.264.041.415.024.319-.036.576-.182.771-.439.199-.259.281-.551.245-.877-.077-.684-.481-1.2-1.212-1.551-.73-.351-1.616-.468-2.656-.351-.106.011-.263.031-.472.057l.971-4.14"/><path d="m361.06 419.23l.721 6.458c.054.485.11.793.168.924.058.127.158.226.304.296s.368.089.666.056l.181-.021.024.216-4.158.464-.024-.215.21-.024c.338-.037.574-.103.709-.197.135-.093.22-.211.256-.352.035-.142.025-.461-.031-.958l-.457-4.094c-.041-.365-.084-.59-.129-.675-.045-.09-.119-.16-.223-.211-.101-.056-.213-.076-.337-.063-.198.023-.432.111-.702.267l-.128-.198 2.758-1.651.192-.022"/></g><path d="m364.3 570.11l-.024-.215.262-.03c.229-.025.4-.08.512-.163.116-.088.197-.197.242-.327.025-.086.015-.332-.031-.74l-.58-5.194c-.045-.404-.094-.654-.148-.75s-.151-.174-.292-.232c-.137-.065-.316-.084-.536-.059l-.263.029-.024-.215 3.535-.394c.943-.106 1.717-.062 2.32.129.738.236 1.322.652 1.754 1.249.436.595.7 1.295.789 2.099.062.555.03 1.078-.096 1.568-.126.485-.315.897-.564 1.236-.249.334-.55.615-.902.843-.348.223-.784.416-1.309.577-.232.072-.602.138-1.11.194l-3.535.395m2.179-7.784l.688 6.161c.036.326.074.524.113.595.04.07.098.12.176.151.112.046.266.058.465.036.648-.072 1.118-.348 1.411-.83.398-.649.528-1.603.388-2.86-.114-1.014-.363-1.805-.75-2.376-.305-.445-.665-.731-1.08-.857-.292-.09-.763-.096-1.411-.02"/></g><g transform="matrix(.97231 0 .5011.87501-347.09-263.59)"><g transform="translate(-8.839 144.07)"><path d="m432.07 424l.359 3.214.157-.017c.501-.056.846-.254 1.036-.594.191-.339.282-.819.276-1.44l.221-.024.461 4.134-.22.025c-.097-.445-.238-.803-.421-1.073-.18-.271-.374-.444-.583-.519-.209-.079-.502-.098-.879-.056l.249 2.226c.048.434.096.698.142.791.049.093.128.165.236.216.107.05.274.063.499.038l.472-.053c.738-.082 1.308-.318 1.713-.71.408-.391.67-.947.787-1.667l.215-.024-.075 2.549-6.824.762-.025-.216.262-.029c.229-.025.409-.087.54-.184.095-.066.162-.167.201-.305.032-.098.027-.345-.017-.741l-.58-5.194c-.04-.357-.075-.576-.103-.655-.054-.132-.138-.228-.251-.291-.16-.092-.368-.124-.624-.095l-.261.029-.024-.215 6.609-.738.26 2.334-.22.025c-.177-.558-.382-.949-.616-1.175-.229-.226-.537-.377-.922-.451-.226-.045-.637-.035-1.235.032l-.815.091"/><path d="m407.21 431.58l1.561-5.445 3.215-.359.024.215-.256.029c-.233.026-.415.087-.545.184-.091.066-.158.166-.203.301-.032.098-.026.343.018.734l.581 5.207c.046.403.095.653.149.749.054.097.151.176.292.239.14.059.32.076.542.051l.256-.028.024.215-4.123.461-.024-.216.256-.028c.234-.027.415-.088.546-.185.091-.066.158-.167.202-.305.032-.099.026-.346-.018-.741l-.653-5.853-2.224 7.542-.14.015-3.874-6.807.621 5.561c.044.388.08.626.11.713.072.188.199.335.379.441.185.102.457.132.818.091l.024.216-2.701.302-.025-.216.082-.009c.174-.015.335-.061.48-.136.144-.079.249-.173.316-.283s.11-.258.133-.445c.003-.044-.015-.242-.055-.595l-.558-4.997c-.044-.4-.094-.646-.147-.738-.054-.096-.151-.174-.291-.232-.141-.064-.322-.083-.543-.058l-.25.028-.024-.215 3.226-.36 2.799 4.957"/><path d="m396.29 427.99l.359 3.214.157-.017c.501-.056.846-.254 1.037-.594.19-.339.281-.819.276-1.439l.22-.025.462 4.134-.221.025c-.097-.445-.237-.803-.42-1.073-.181-.271-.375-.444-.584-.519-.209-.079-.502-.097-.878-.055l.248 2.225c.049.434.097.698.142.791.05.093.128.165.237.216.107.05.273.063.499.038l.472-.053c.737-.082 1.308-.318 1.713-.709.408-.392.67-.948.786-1.668l.215-.024-.074 2.549-6.825.762-.024-.215.261-.03c.23-.025.409-.087.54-.184.095-.066.163-.167.202-.305.032-.098.026-.345-.018-.741l-.58-5.194c-.04-.357-.074-.576-.102-.655-.054-.132-.138-.228-.251-.291-.16-.092-.368-.124-.625-.095l-.261.029-.024-.215 6.609-.738.261 2.335-.221.024c-.177-.558-.382-.949-.615-1.175-.23-.226-.537-.376-.923-.451-.225-.045-.637-.035-1.235.032l-.815.091"/><path d="m393.57 435.61l.024.216-4.128.461-.024-.216.262-.029c.229-.026.409-.087.539-.184.095-.066.163-.167.202-.306.033-.098.026-.345-.018-.74l-.58-5.195c-.045-.403-.094-.653-.148-.75-.054-.096-.151-.173-.292-.232-.137-.064-.316-.084-.537-.059l-.262.029-.024-.214 4.128-.461.024.214-.262.03c-.229.025-.409.087-.539.184-.095.066-.164.168-.207.306-.033.098-.027.346.017.741l.58 5.195c.045.403.095.653.149.749.057.096.155.176.292.239.14.059.321.076.542.051l.262-.029"/><path d="m387.92 428.47l.239 2.136-.21.024c-.179-.479-.357-.818-.532-1.014-.175-.2-.402-.35-.681-.449-.155-.053-.417-.059-.786-.018l-.588.066.68 6.091c.045.404.096.654.149.749.058.097.155.176.292.239.14.059.323.076.548.051l.262-.029.024.215-4.134.462-.024-.216.261-.029c.23-.025.409-.087.54-.184.095-.066.165-.167.208-.306.032-.098.026-.345-.018-.74l-.68-6.092-.571.064c-.532.06-.905.215-1.122.467-.301.352-.465.824-.489 1.417l-.222.024-.239-2.136 7.093-.792"/><path d="m368.45 431.1l.359 3.214.157-.017c.501-.056.847-.254 1.037-.594.19-.339.282-.819.276-1.439l.22-.025.462 4.134-.221.025c-.097-.445-.237-.803-.42-1.073-.18-.271-.374-.444-.583-.519-.21-.079-.502-.097-.879-.055l.248 2.225c.049.434.097.698.142.791.05.093.128.165.237.216.107.05.274.063.499.038l.472-.053c.737-.082 1.309-.318 1.713-.709.408-.392.67-.948.787-1.668l.215-.024-.075 2.549-6.825.762-.024-.215.262-.03c.229-.025.409-.087.539-.184.096-.066.163-.167.203-.305.032-.098.026-.345-.019-.741l-.58-5.194c-.04-.357-.074-.576-.102-.655-.054-.132-.138-.228-.251-.291-.159-.092-.368-.124-.623-.095l-.263.029-.024-.215 6.609-.738.261 2.335-.221.024c-.177-.558-.382-.949-.615-1.175-.23-.226-.537-.376-.923-.451-.225-.045-.637-.035-1.234.032l-.816.091"/><path d="m364.1 430.94l.357 2.625-.238.026c-.186-.647-.524-1.146-1.01-1.496-.484-.354-.982-.504-1.495-.447-.396.045-.698.187-.908.427-.205.235-.293.49-.262.766.019.175.077.325.175.452.133.169.333.33.601.481.197.108.644.288 1.34.54.975.351 1.647.711 2.01 1.078.363.368.573.812.631 1.333.074.66-.121 1.257-.583 1.793-.46.53-1.086.84-1.878.928-.248.028-.485.029-.713.003-.226-.026-.515-.089-.864-.192-.195-.057-.352-.078-.474-.065-.1.011-.203.062-.307.152-.103.09-.181.219-.233.387l-.216.024-.333-2.982.216-.024c.264.819.664 1.423 1.198 1.811.538.385 1.089.545 1.652.482.434-.049.767-.205.997-.471.234-.265.332-.556.297-.87-.021-.187-.091-.361-.211-.525-.117-.164-.285-.312-.504-.445-.219-.136-.6-.302-1.14-.497-.758-.274-1.308-.516-1.65-.729-.342-.214-.616-.465-.821-.752-.201-.288-.322-.617-.364-.986-.07-.629.101-1.19.514-1.684.412-.494.97-.781 1.673-.859.256-.029.508-.026.755.01.189.026.419.088.694.187.278.095.469.137.574.125.1-.011.176-.051.228-.12.051-.068.089-.224.113-.466l.175-.02"/></g><path d="m367.97 578.16l.244 2.189c.048.428.103.695.166.802.067.102.169.179.309.231.143.05.393.056.75.016l.024.216-4.01.448-.024-.216c.366-.041.609-.101.729-.181.124-.085.205-.185.244-.299.042-.114.039-.386-.008-.813l-.573-5.124c-.047-.428-.104-.692-.171-.794-.063-.108-.165-.187-.304-.238s-.389-.057-.751-.017l-.024-.214 3.442-.385c1.134-.126 1.969-.015 2.507.333.538.349.841.826.909 1.431.057.513-.053.969-.33 1.37-.277.4-.689.698-1.233.892-.366.135-.998.253-1.894.353m-.432-3.866l.381 3.412c.129-.007.226-.013.293-.021.473-.053.823-.234 1.047-.541.225-.312.304-.764.238-1.353-.065-.587-.241-1-.528-1.244-.286-.244-.684-.336-1.193-.28l-.238.027"/><path d="m409.08 572.94c.768.091 1.319.244 1.649.459.474.304.743.738.806 1.301.066.593-.118 1.111-.552 1.553-.534.536-1.359.865-2.477.99l-4.01.448-.025-.215c.365-.041.608-.102.729-.181.124-.086.205-.185.243-.299.043-.115.04-.386-.008-.813l-.572-5.125c-.048-.427-.105-.691-.172-.793-.063-.108-.163-.187-.303-.238-.139-.051-.39-.057-.75-.017l-.024-.215 3.784-.422c.904-.101 1.555-.092 1.949.029.395.117.718.325.971.622.254.295.4.622.44.984.043.379-.056.735-.299 1.065-.243.325-.701.614-1.377.867m-2.137.079c.551-.061.95-.169 1.196-.322.25-.154.432-.351.547-.592.114-.241.153-.536.114-.885-.039-.35-.142-.627-.306-.833-.161-.209-.376-.359-.645-.446-.269-.088-.687-.098-1.253-.031l.347 3.109m.051.455l.283 2.533.026.292c.024.209.094.363.211.459.12.093.285.127.495.104.31-.035.588-.134.833-.299.248-.169.428-.392.538-.667.111-.28.148-.581.112-.903-.041-.369-.164-.689-.367-.962-.204-.276-.462-.455-.774-.538-.311-.083-.764-.09-1.357-.019"/><path d="m414.96 572.88l.247 2.213c.048.427.103.694.166.801.067.102.17.179.309.231.139.051.389.056.751.016l.024.216-4.04.451-.024-.216c.365-.04.608-.101.729-.181.124-.085.205-.185.244-.299.041-.114.039-.385-.008-.813l-.573-5.124c-.048-.427-.105-.691-.171-.794-.063-.107-.165-.187-.304-.237-.139-.051-.39-.057-.751-.017l-.024-.215 3.669-.41c.956-.106 1.662-.119 2.119-.036s.846.287 1.165.612c.319.323.505.723.558 1.2.065.582-.091 1.087-.467 1.514-.242.271-.596.493-1.064.667l2.197 2.462c.287.317.488.513.602.586.173.103.364.148.575.136l.024.216-2.486.278-2.946-3.315-.519.058m-.433-3.873l.387 3.46.332-.037c.539-.06.937-.154 1.195-.282.256-.13.446-.332.569-.606.126-.276.166-.623.12-1.038-.068-.602-.259-1.031-.575-1.286-.311-.256-.779-.35-1.405-.28l-.623.069"/></g><g transform="matrix(.97231 0 .30367.87501-221.41-275.64)"><g transform="translate(-8.839 144.07)"><path d="m401.16 438.9l.721 6.458c.054.485.111.793.168.924.057.128.159.226.304.296.146.071.368.089.667.056l.181-.021.024.216-4.158.465-.025-.216.21-.024c.338-.037.574-.103.71-.196.134-.094.22-.212.255-.353.036-.142.025-.461-.03-.958l-.458-4.094c-.04-.365-.084-.589-.128-.675-.046-.09-.12-.16-.224-.21-.101-.057-.213-.077-.337-.063-.198.022-.433.11-.702.266l-.128-.198 2.758-1.651.192-.022"/><path d="m397.15 447.5l-4.647.52-.014-.129c1.235-1.855 1.972-3.093 2.209-3.713.241-.62.33-1.21.268-1.769-.046-.408-.21-.732-.492-.971-.283-.244-.606-.346-.971-.305-.598.067-1.029.418-1.292 1.053l-.224-.052c.126-.768.384-1.355.77-1.76.388-.405.861-.638 1.42-.701.4-.044.775.007 1.126.157.35.149.637.377.86.682.222.301.35.594.381.877.058.517-.028 1.057-.255 1.62-.312.763-1.056 1.86-2.233 3.293l1.707-.191c.419-.047.688-.095.809-.144.124-.049.223-.119.295-.21.072-.094.159-.282.261-.565l.21-.024-.188 2.332"/><path d="m383.27 440.9l.721 6.458c.055.485.111.793.168.924.057.128.159.226.305.296.145.071.367.089.666.056l.181-.02.024.215-4.158.465-.024-.216.209-.023c.338-.038.574-.104.71-.197.134-.094.22-.212.255-.353.036-.142.025-.461-.03-.957l-.457-4.095c-.041-.365-.084-.589-.129-.675-.045-.089-.12-.16-.224-.21-.101-.057-.213-.077-.337-.063-.198.022-.432.11-.702.266l-.127-.198 2.757-1.651.192-.022"/><path d="m371.76 442.81l.359 3.214.158-.018c.501-.056.846-.253 1.035-.593.191-.339.282-.82.276-1.44l.222-.025.462 4.135-.222.025c-.097-.445-.237-.803-.421-1.073-.179-.271-.373-.445-.582-.519-.21-.079-.503-.098-.879-.056l.248 2.225c.049.435.096.699.142.792.05.093.129.164.236.216.109.05.275.063.5.038l.472-.053c.737-.083 1.308-.318 1.713-.71.408-.391.671-.947.786-1.667l.216-.024-.076 2.549-6.824.762-.024-.216.262-.029c.229-.026.409-.087.539-.184.095-.066.163-.167.202-.305.033-.099.026-.345-.018-.741l-.58-5.195c-.04-.356-.073-.575-.102-.654-.054-.132-.138-.228-.251-.291-.159-.092-.367-.124-.624-.096l-.262.03-.024-.215 6.61-.738.261 2.334-.222.025c-.176-.558-.382-.949-.615-1.175-.23-.226-.537-.377-.923-.451-.225-.046-.637-.035-1.234.032l-.816.091"/></g><path d="m352.05 595.63l-.024-.216.262-.029c.229-.025.4-.08.512-.163.116-.088.197-.197.241-.328.026-.085.016-.331-.03-.739l-.58-5.194c-.045-.404-.094-.654-.148-.751-.054-.095-.151-.173-.292-.232-.137-.064-.316-.083-.537-.059l-.262.03-.024-.215 3.535-.395c.943-.105 1.717-.062 2.32.13.738.236 1.322.652 1.754 1.249.436.595.699 1.295.789 2.099.062.554.03 1.077-.097 1.567-.125.485-.314.898-.563 1.237-.249.333-.55.614-.902.843-.348.223-.784.416-1.309.577-.232.072-.602.137-1.11.194l-3.535.395m2.178-7.784l.688 6.161c.037.326.075.524.114.595.04.07.098.12.176.15.112.047.266.059.465.037.648-.073 1.118-.348 1.411-.83.398-.649.528-1.603.387-2.861-.113-1.013-.362-1.804-.749-2.375-.305-.445-.665-.732-1.08-.858-.293-.09-.763-.095-1.412-.019"/><path d="m380.97 587.88c.6.345 1.027.683 1.28 1.012.257.325.41.715.461 1.169.071.637-.109 1.204-.542 1.7-.428.491-1.054.783-1.877.875-.781.088-1.405-.037-1.876-.374-.469-.337-.735-.782-.797-1.337-.047-.424.034-.808.243-1.153.212-.347.591-.683 1.136-1.012-.678-.408-1.123-.753-1.336-1.036-.209-.284-.335-.625-.38-1.024-.059-.529.113-1.017.514-1.467.405-.454.999-.725 1.779-.812.754-.084 1.352.03 1.795.342.447.307.698.71.754 1.207.042.373-.032.715-.221 1.027-.186.307-.497.602-.933.883m-.477-.248c.123-.211.205-.439.249-.688.042-.249.048-.516.015-.803-.056-.505-.207-.88-.455-1.123-.186-.187-.423-.265-.71-.233-.26.029-.471.149-.632.359-.161.207-.227.45-.196.729.032.284.165.567.402.852.24.28.682.582 1.327.907m-1.027 1.359c-.108.122-.183.23-.222.325-.063.145-.111.351-.144.618-.033.266-.034.542-.002.825.041.365.122.667.243.905.12.234.271.396.455.486.187.088.372.123.553.103.284-.032.511-.162.682-.389.171-.232.236-.528.196-.889-.084-.753-.671-1.414-1.761-1.984"/></g></g></svg>