<svg xmlns="http://www.w3.org/2000/svg" viewBox="0 0 820 440" enable-background="new 0 0 820 440"><path fill="#c62139" d="m0 0h820v440h-820z"/><path fill="#00297b" d="m20 20h780v400h-780z"/><path d="m410.26 100c0 0-80.26 54.71-80.26 119.22 0 64.52 80.26 120.78 80.26 120.78s79.74-51.619 79.74-120.78c0-69.15-79.74-119.22-79.74-119.22" fill="#c62139"/><path d="m477.92 240.56c1.76-6.864 2.761-13.991 2.761-21.34 0-61.93-70.43-107.86-70.43-107.86s-71.45 47.49-71.45 107.86c0 7.251 1.018 14.316 2.813 21.16l136.31.18" fill="#66afeb"/><path d="m409.67 328.13c0 0 55.24-36.58 68.23-87.75h-136.34c13.19 50.18 68.11 87.75 68.11 87.75" fill="#007bde"/><path d="m480.34 226.45c-12.08 8.608-80.09 4.474-80.09 4.474l-3.802 9.635h81.47c.339-1.321.649-2.642.93-3.979l1.492-10.13" fill="#9c8431"/><g fill="#fff100"><path d="m406.08 287.36c-1.035-7.21-32.841-14.93-49.721-14.296 5.27 8.268 11.241 15.834 17.248 22.558 8.575-9.201 32.812-5.883 32.473-8.262"/><path d="m470.45 260.55c-4.04.145-11.376.79-16.4 3.406-7.247 3.783-23.471 7.917-30.724 5.847-7.247-2.064-18.64 4.474-17.254 5.847 2.299 2.297 18.979-.341 18.979 14.456 0 12.386-19.324 6.885-26.922 12.05-4.58 3.102-7.773 6.472-9.586 8.639 11.861 10.977 21.15 17.335 21.15 17.335s22.02-14.585 41.521-38.2l9.171-12.169c3.696-5.413 7.124-11.157 10.07-17.205"/></g><g fill="#009270"><path d="m405.86 165.17c0 0-11.01-6.451-26.02-3.36-15.01 3.097-18.254 12.51-18.254 12.51l5.05-2.317.129 2.064 4.533-2.838.129 2.064 3.884-3.607.638 2.317 3.498-3.097.263 1.677 5.691-3.613v2.322l4.533-2.069-.386 2.199 8.545-1.543c0 0-20.2 6.704-22.781 22.832l3.878-4.634.392 2.183 2.456-4.898.649 1.935 2.199-4.516.643 2.704 3.363-4.903.263 2.844 3.878-5.29v2.57l4.147-4.516-.129 3.365c0 0 4.01-3.365 5.299-3.365l-4.784 6.198 1.556.516c0 0-3.369 2.709-3.626 3.226-.257.511 2.205 0 2.205 0s-2.983 3.091-3.112 4c-.129.908 1.942 0 1.942 0s-2.72 3.478-3.106 4.779c-.392 1.29 1.421.253 1.421.253s-1.679 4.129-1.813 5.29c-.129 1.151 1.942-.263 1.942-.263l1.17 7.096 2.07-8.505 1.293 1.935v-6.069l1.164 1.027-.129-3.989 1.55 1.543-.772-4.903 1.679 1.925-.257-4.118 1.679 1.682v-5.424l1.556 1.409.257-3.726 1.813.898c0 0 .257-4.516 2.334-4.387 2.065.119 4.656 2.317 3.62 3.344l1.813-.501-.386 4.371 1.679-1.027-.257 3.226 1.421-.645-.515 4.124 1.684-1.017.123 5.02 1.936-1.409-.129 5.925 1.942-1.538v4.898l1.813-1.28 1.948 4.769-.392-7.096 1.427 1.156-2.597-5.03 1.948-.263-2.076-3.36 1.942.145-2.843-3.36 1.936-.382-4.276-3.102 2.334-.898-4.404-2.844 1.684-.645-3.1-3.226 3.234 1.29 1.029-2.064 3.884 3.102v-3.102l3.363 4.645.392-2.844 2.591 3.618.515-1.672 1.813 3.607.901-2.699 1.813 3.871.515-2.72 1.684 4.263 1.556-1.682.778 4.392 1.544-1.682 1.421 3.871 1.813-1.419 1.556 4.392c0 0 4.27-23.487-32.361-23.879l-10.873-2.054"/><path d="m389.03 144.26l2.065 2.57-1.035.784 3.498 1.935-.778 1.414 3.498 1.29-1.298 1.037 3.112 1.796-2.07.655 3.749 1.801-.515 1.672 3.234.779-1.421 1.156 3.749 2.978 4.275 2.962 2.977-1.027-1.17-5.687c0 0-12.294-16.773-21.869-16.13"/><path d="m400.29 128l1.427 3.344-1.948.392 4.404 4.387-3.498.129 4.275 3.349-2.076.655 3.889 3.871-2.076 1.027 4.01 4-2.714 1.027 4.533 4.134-2.591.134 2.714 3.473-2.457.779c0 0 2.977 5.543 2.842 7.87l5.05.253c0 0 .778-14.966.135-16.902l-1.298.903.386-5.419-1.942 1.166-.38-6.451-1.948 2.059-.509-6.322-1.427 2.199-1.427-6.198-1.55 1.935-1.427-3.995-1.164 1.543-3.234-3.355"/><path d="m413.36 165.68c1.427-9.03 10.879-22.19 28.612-22.708l-4.02 2.064 2.334 1.032-4.661 1.682 2.328 1.409-5.562.392 2.843 1.935-4.135.516-3.24.645 2.328 2.188-4.661.511 2.983 1.553c0 0-7.381 2.58-7.896 3.36 0 0 24.857-6.322 30.94 5.409l-4.796-2.064.392 2.199-3.363-2.451.515 1.806-3.492-1.806.515 2.188-3.626-2.064.778 1.946-4.661-2.199.778 2.064-4.01-1.29.392 2.188-4.02-.253.392 2.58-12.429-.263-1.556-2.58"/></g><g fill="#7b4800"><path d="m409.57 173.46l2.591-.17c-1.211 24.607-.076 59.887 3.275 72.949 5.691 22.19 22.284 30.733 26.23 32.859 2.24 1.197 1.38 6.188-3.112 5.847-4.48-.346-20.14-11.875-25.542-32.519-7.24-27.698-3.725-76.08-3.444-78.966"/><circle cx="413.75" cy="168.13" r="2.926"/><circle cx="409.09" cy="167.09" r="2.739"/><circle cx="409.09" cy="171.87" r="2.558"/><circle cx="412.59" cy="170.58" r="2.739"/></g><path d="m384.64 257.16h2.924v-31.481h-2.924v31.481"/><g fill="#7b4800"><path d="m394.14 263.1c0 0-1.199.212-3.106.454v-2.457h-1.942v2.668c-1.989.201-4.398.366-6.925.366-2.685 0-5.393-.196-7.627-.423v-2.544h-2.141v2.302c-1.848-.232-3.041-.434-3.041-.434s-.585 3.226 12.622 3.226c13.201 0 12.166-3.158 12.166-3.158"/><path d="m381.6 257.07c10.703 0 19.681-1.713 19.681-1.713s1.374 6.874-19.681 6.874c-21.06 0-19.33-5.842-19.33-5.842s8.633.681 19.33.681"/></g><path d="m372.63 227.48c0 0 16.57 6.198 23.13 27.879 0 0-15.189-3.091-23.822.346h-4.831c-.001-.011 8.287-12.05 5.521-28.22" fill="#fff"/><g fill="#c62139"><path d="m374.97 211.16h-3.071c-.24-1.321-.819-2.25-1.737-2.761-.515-.294-1.082-.434-1.708-.434-1.211 0-2.193.573-2.965 1.755-.778 1.166-1.164 2.942-1.164 5.29 0 2.379.421 4.051 1.258 5.05.836.975 1.79 1.471 2.86 1.471 1.047 0 1.901-.387 2.573-1.172.667-.774 1.076-1.801 1.24-3.076h-3.462v-3.215h6.223v10.353h-2.065l-.316-2.41c-.602.919-1.141 1.564-1.62 1.946-.825.655-1.837.981-3.041.981-1.977 0-3.603-.888-4.86-2.663-1.316-1.775-1.977-4.211-1.977-7.297 0-3.122.667-5.636 2-7.519 1.322-1.884 3.082-2.823 5.276-2.823 1.895 0 3.422.624 4.574 1.868 1.146 1.238 1.812 2.791 1.982 4.654"/><path d="m389.59 217v-11.865h3.17v11.865c0 1.321.129 2.286.368 2.9.38 1.079 1.199 1.626 2.474 1.626 1.257 0 2.082-.547 2.462-1.626.246-.614.357-1.579.357-2.9v-11.865h3.176v11.865c0 2.044-.246 3.638-.737 4.789-.924 2.085-2.673 3.133-5.264 3.133-2.585 0-4.346-1.037-5.27-3.133-.49-1.14-.736-2.745-.736-4.789"/><path d="m423.13 205.13l-5.344 19.312h3.281l1.031-3.969h5.5l.969 3.969h3.375l-5.312-19.312h-3.5m1.719 4.406l1.875 7.594h-3.781l1.906-7.594"/><path d="m451.66 220.3l2.696-15.168h4.486v19.291h-2.907v-13.04c0-.382.006-.908.012-1.584.006-.676.012-1.197.012-1.559l-2.831 16.184h-3.03l-2.807-16.184c0 .361.006.882.012 1.559.006.676.012 1.202.012 1.584v13.04h-2.907v-19.291h4.539l2.713 15.168"/></g></svg>