<svg xmlns="http://www.w3.org/2000/svg" viewBox="0 0 900 600" enable-background="new 0 0 900 600"><path fill="#de2910" d="m0 0h900v600h-900z"/><path d="m449.96 299.91c-105.26-44.486-58.6-181.58 42.07-174.69-20.366 10.467-23.318 29.998-11.687 48.09 13.02 20.256-1.199 52.849-18.806 60.767-28.935 13.03-34.728 47.751-11.577 65.834" fill="#fff"/><g fill="#de2910"><path d="m444.27 200.92l-5.92 9.294-2.145-10.814-10.678-2.759 9.625-5.389-.671-11 8.08 7.489 10.256-4.04-4.611 10.01 7 8.505-10.942-1.292"/><path d="m450.56 298.76c-12.731-6.535-22.996-20.15-27.468-36.431-5.115-18.67-2.173-38.742 8.08-55.04l-2.208-1.394c-10.641 16.929-13.693 37.743-8.386 57.12 4.728 17.222 15.214 31.1 28.787 38.06l1.192-2.32"/></g><path d="m450.07 299.94c9.781-113.86 154.59-111.84 179.14-13.972-16.248-16.13-35.735-12.907-49.35 3.746-15.24 18.646-50.633 15.191-63.61.893-21.328-23.494-56.14-18.273-66.19 9.333" fill="#fff"/><g fill="#de2910"><path d="m542.46 263.94l-10.668-2.758 9.622-5.381-.675-11.01 8.1 7.488 10.254-4.04-4.624 10 7.01 8.505-10.944-1.292-5.926 9.287-2.153-10.808"/><path d="m451.35 300.15c2.281-14.13 12.06-28.1 26.16-37.38 16.18-10.634 36.17-14.04 54.842-9.32l.643-2.531c-19.388-4.889-40.13-1.36-56.915 9.675-14.918 9.818-24.875 24.08-27.306 39.14l2.576.417"/></g><path d="m450.08 300.05c111.31-25.882 154.14 112.46 68.65 166.06 10.324-20.439 1.232-37.974-18.812-45.775-22.443-8.732-30.09-43.46-20.504-60.22 15.753-27.545.029-59.04-29.33-60.07" fill="#fff"/><g fill="#de2910"><path d="m512.87 376.79l-.674-10.998 8.091 7.488 10.261-4.04-4.619 10.02 7.01 8.504-10.943-1.307-5.921 9.299-2.153-10.808-10.664-2.766 9.614-5.385"/><path d="m450.28 301.33c14.14-2.197 30.451 2.789 43.636 13.328 15.11 12.1 24.53 30.07 25.811 49.28l2.605-.17c-1.342-19.95-11.11-38.583-26.789-51.14-13.948-11.154-30.587-16.217-45.663-13.874l.4 2.577"/></g><path d="m449.98 300.09c59.01 97.86-59.32 181.35-136.72 116.6 22.629 3.503 36.497-10.563 37.722-32.04 1.369-24.04 32.03-42.05 50.932-38.11 31.06 6.47 56.16-18.218 48.06-46.46" fill="#fff"/><g fill="#de2910"><path d="m396.4 383.52l10.252-4.04-4.621 10.01 7.02 8.509-10.954-1.297-5.923 9.294-2.139-10.812-10.673-2.758 9.613-5.388-.665-10.996 8.093 7.478"/><path d="m448.82 300.68c6.459 12.77 6.758 29.823.809 45.619-6.836 18.11-21.01 32.62-38.89 39.775l.967 2.425c18.559-7.441 33.26-22.486 40.36-41.28 6.298-16.712 5.971-34.1-.915-47.715l-2.329 1.177"/></g><path d="m449.91 300.01c-74.837 86.36-190.8-.378-153.14-93.99 3.661 22.604 21.324 31.446 42.13 25.976 23.289-6.128 49.891 17.471 51.982 36.664 3.446 31.543 34.681 47.784 59.03 31.353" fill="#fff"/><g fill="#de2910"><path d="m354 274.83l7.01 8.502-10.948-1.302-5.924 9.303-2.152-10.819-10.669-2.761 9.621-5.375-.676-11 8.095 7.478 10.253-4.03-4.61 10.01"/><path d="m448.99 299.08c-10.149 10.09-26.27 15.643-43.14 14.866-19.337-.905-37.518-9.906-49.846-24.695l-2.01 1.669c12.812 15.351 31.664 24.686 51.732 25.626 17.84.825 34.28-4.859 45.1-15.616l-1.839-1.85"/></g></svg>