<svg xmlns="http://www.w3.org/2000/svg" viewBox="0 0 640 480"><g stroke-width="1.25"><path fill="#006" d="m0 0h640v480h-640z"/><g transform="scale(6.9913 9.1204)"><g fill="#fff"><path d="m0 0v3.354l53.29 26.646h6.708v-3.354l-53.29-26.646h-6.708m60 0v3.354l-53.29 26.646h-6.708v-3.354l53.29-26.646h6.708"/><path d="m25 0v30h10v-30h-10m-25 10v10h60v-10h-60"/></g><g fill="#c00"><path d="m0 12v6h60v-6h-60m27-12v30h6v-30h-6"/><path d="m0 30l20-10h4.472l-20 10h-4.472m0-30l20 10h-4.472l-15.528-7.764v-2.236m35.528 10l20-10h4.472l-20 10h-4.472m24.472 20l-20-10h4.472l15.528 7.764v2.236"/></g></g><g fill="#fff" fill-rule="evenodd"><path transform="matrix(4.8659 0 0 4.8659-5.249 185.38)" d="m26.873 47.49l-5.643-.49 4.87-2.89-3.136-4.72 5.296 2.01 1.74-5.4 1.736 5.4 5.304-2.01-3.14 4.72 4.874 2.89-5.644.49.775 5.62-3.905-4.11-3.91 4.11z"/><g transform="matrix(7.1944 0 0 7.1944-144.62 77.43)"><path d="m88.51 51.19l-2.69-.236 2.32-1.378-1.49-2.246 2.52.95.83-2.566.83 2.566 2.52-.95-1.49 2.246 2.32 1.378-2.69.236.37 2.671-1.86-1.956-1.86 1.956z"/><path d="m88.51 11.188l-2.69-.234 2.32-1.378-1.49-2.248 2.52.956.83-2.57.83 2.57 2.52-.956-1.49 2.248 2.32 1.378-2.69.234.37 2.673-1.86-1.956-1.86 1.956z"/><path d="m73.51 27.438l-2.688-.238 2.318-1.374-1.49-2.248 2.52.956.83-2.57.826 2.57 2.524-.956-1.493 2.248 2.323 1.374-2.69.238.37 2.672-1.86-1.95-1.86 1.95z"/><path d="m101.84 23.438l-2.68-.238 2.32-1.374-1.5-2.248 2.53.956.82-2.57.83 2.57 2.52-.956-1.49 2.248 2.32 1.374-2.69.238.37 2.672-1.86-1.95-1.86 1.95z"/><path d="m98.38 31.728l-1.32 1.115.41 1.679-1.47-.911-1.47.911.41-1.679-1.32-1.115 1.73-.127.65-1.601.65 1.601z"/></g></g></g></svg>