<svg xmlns="http://www.w3.org/2000/svg" viewBox="0 0 1000 500" enable-background="new 0 0 1000 500"><path fill="#0073cf" d="m0 0h1000v500h-1000z"/><path fill="#fff" d="m0 166.67h1000v166.67h-1000z"/><g fill="#0073cf"><path d="m506.24 241.42l-6.24-19.2-6.24 19.2h-20.18l16.33 11.86-6.24 19.19 16.33-11.86 16.33 11.86-6.24-19.19 16.33-11.86z"/><path d="m628.8 208.83l-6.24 19.2 16.33-11.86 16.33 11.86-6.24-19.2 16.33-11.86h-20.18l-6.24-19.19-6.24 19.19h-20.18z"/><path d="m645.13 280.31l-6.24-19.2-6.24 19.2h-20.18l16.33 11.86-6.24 19.19 16.33-11.86 16.33 11.86-6.24-19.19 16.33-11.86z"/><path d="m361.11 177.78l-6.23 19.19h-20.19l16.33 11.86-6.24 19.2 16.33-11.86 16.33 11.86-6.24-19.2 16.33-11.86h-20.18z"/><path d="m367.35 280.31l-6.24-19.2-6.23 19.2h-20.19l16.33 11.86-6.24 19.19 16.33-11.86 16.33 11.86-6.24-19.19 16.33-11.86z"/></g></svg>