<svg xmlns="http://www.w3.org/2000/svg" viewBox="0 0 600 300" enable-background="new 0 0 600 300"><path d="M0,0h600v300H0V0z" fill="#cf142b"/><g stroke="#000"><path d="m309.85 214.99c.102-.308.307-3.479.204-3.479-.103 0-4.809-5.525-4.706-5.525.103 0 6.04 1.33 6.04 1.125 0-.204 2.353-5.831 2.353-5.934 0-.102 2.865 6.855 2.865 6.855l5.831 2.558-4.093 3.376c0 0 .921 6.548.921 6.651 0 .102-4.093-3.888-4.093-3.888l-4.502.512c.001-.001-.612-2.047-.816-2.251z" fill="#f9dd16" fill-opacity=".988"/><path d="m278.15 129.01c-3.888 2-18.808 19.06-20.854 21.716-1.714 3.862-5.068 8.747-8.521 11.891-3.687 2.789-5.736 6.6-5.228 10.207-.041 4.489 2.476 7.546 4.481 10.705 1.187 1.443 2.783 2.376 4.481 2.489 3.483.46 3.792 1.532 5.535 2.196 6.866 9.348 17.11 16.242 24.485 21.703 4.702 2.478 7.972 4.957 9.09 6.31 2.16 4.124 1.762 8.145 1.466 10.121-1.825 6.888-3.651 13.776-5.477 20.663-.921 5.627 3.969 4.362 4.232 3.236 2.207-2.865 5.5-.853 10.206-17.427 2.157-2.904 4.315-5.809 6.473-8.713 0 0 2.49-.996 2.49-1.245 3.786-4.546.903-7.147-1.245-7.966-1.577-.581-3.153-1.162-4.73-1.743 0 0-5.477-5.477-5.726-5.477-2.603-7.571-15.377-23.734-18.345-25.985-2.054-2.14-3.03-3.052-4.981-4.243-2.998-1.434-3.965-1.9-5.801-2.633-1.529-.613-.44-2.292.532-3.059 10.118-5.508 18.14-11.629 27.848-17.853.497-.332.996-.664 1.493-.996-1.161-6.638-2.324-13.277-3.485-19.915-5.394-1.909-10.788-3.818-16.182-5.726-.848.582-1.492 1.163-2.239 1.744z" fill="#fff"/></g><path d="m291.69 233.87c.051-.204 10.128-2.046 10.128-2.046s-1.177 3.735-1.228 3.735l-10.03 3.02 1.126-4.707" fill="#f9dd16"/><g stroke="#000"><g fill="none"><path d="m265.43 195.92c1.944-5.167 7.34-9.258 10.964-10.386"/><path d="m291.32 233.96c.65-.183 3.539-1.026 4.38-1.157.898-.21 1.791-.445 2.654-.724.996-.203 1.619-.391 2.654-.579.81-.309 1.611-.521 2.477-.724m-13.99 9.415c.084-.113.771-.719 1.264-1.013.581-.183 2.567-1.026 3.318-1.157.802-.21 1.599-.445 2.37-.724.89-.203 1.446-.391 2.371-.579.724-.309 1.439-.521 2.212-.724"/><path d="m293.59 197.38c-.049 0-.097 0-.145 0 .453 0 .175-.038-.434.724-.217.585-2.074 1.881-3.472 1.881-.675.072-1.712.145-2.388.145-.192 0-.458-.145-.651-.145"/><path d="m293.45 227.19c.048 0 .096 0 .145 0-.193 0 .386 0 .578 0 .75 0 1.503.134 2.171.145.724 0 1.447.205 2.171.205.73.103 1.61.07 2.366.177.847.029 1.527.196 2.409.196.711.027 1.094.145 1.882.145l-1.882-.145c.711.027 1.094.145 1.882.145"/><path d="m288.53 244.84c.077-.113.706-.719 1.157-1.013.532-.183 2.351-1.026 3.039-1.157.734-.21 1.464-.445 2.17-.724.815-.203 1.324-.391 2.171-.579.663-.309 1.318-.521 2.025-.724"/><path d="m302.07 219.69c-.409 1.188.121 1.487.34 1.999.382.497 1.356 1.254 2.894 1.736.593.16 1.05.316 1.736.579.455.042.678.155 1.013.289"/><path d="m244.83 176.12c.048 0 .097 0 .145 0-.454 0-.182.029.579-.579.47-.525.862-.763 1.302-1.302" stroke-width="2.403"/><path d="m254.2 186.42c.097 0 8.417-4.194 9.306-5.089.629-.456 1.106-.938 1.872-1.456.491-.256.843-.585 1.303-.868.382-.554.882-.888 1.157-1.395.511-.443.292-.923.706-1.456.196-.546.562-1.466.682-1.966"/><path d="m279.82 180.41c.045.299-.133 1.221-.12 1.923-.029.814-1.075 3.326-2.34 4.077"/><path d="m264.87 180.32c.049 0 1.315.412 3.432 1.063 2.548.916 7.848 4.256 8.374 4.715.537.423 1.498.8 1.866 1.302.576.498.998 1.072 1.447 1.592.529.645.979 1.19 1.302 1.736 1.609 1.305 5.938 10.342 6.077 10.852.243.477.544 1.142.724 1.592.321.37.539.892.868 1.447.303.719.641 1.047 1.014 1.592.479.333 1.124.965 1.736 1.302.652.558 1.264.785 1.736 1.158.682.29 8.308 5.11 8.662 5.352.697.56 2.824 2.764 1.33 4.367-.634.542-1.204 1.26-1.745 1.566-.551.552-1.319.799-1.952 1.085-3.435 1.015-5.185.651-5.861.651-.241 0-.482 0-.724 0"/><path d="m248.03 163.27c.977.382.582.1 1.461.5.591.259.98.266 1.561.477.616.197 2.337.508 3.164 1.338.607.548 1.07 1.01 1.736 1.411.788.544 1.357.786 2.335 1.193.824.308 1.746.65 2.58.68.866.05 1.074.008 1.905.008.676 0 1.35 0 2.026 0h-2.026c.676 0 1.35 0 2.026 0"/></g><path d="m247.8 172.93c2.17-.145 5.787.507 5.859.507.001 0 4.775-.072 4.775-.072 2.509-.242 3.062-1.206 3.472-1.882.94-1.446 1.592-1.953 2.315-3.038 1.157-.868 2.75 1.157 2.822 1.157 4.051 3.835.795 8.537.578 8.681-2.025 1.857-2.46 1.977-3.689.796-1.23-1.447-1.592-2.098-2.604-2.604-1.953-.94-6-.217-6.078-.217-.072 0-2.098.796-2.098.796-.989.361-1.616 1.23-3.328 1.519-1.736.121-2.315-.048-3.183-1.446-1.156-1.81-.578-3.98 1.159-4.197z" fill="#ffe606"/><path d="m361.08 85.17c-.318.062-3.183 1.438-3.133 1.527.05.089-2.459 6.899-2.509 6.81-.05-.089-1.799-5.914-1.978-5.813-.178.1-6.236.807-6.326.857-.089.05 4.571-5.857 4.571-5.857l-.628-6.337 4.948 1.913c0 0 5.257-4.01 5.346-4.062.089-.05-1.384 5.473-1.384 5.473l2.652 3.673c.002.001-1.481 1.538-1.559 1.816z" fill="#f9dd16" fill-opacity=".988"/><path d="m301.67 154.94c3.65 2.408 25.829 7.06 29.15 7.535 4.206-.398 10.11.131 14.542 1.6 4.238 1.847 8.564 1.765 11.46-.445 3.933-2.164 5.364-5.856 7.135-9.152.676-1.742.707-3.591-.026-5.126-1.306-3.261-.523-4.056-.798-5.901 4.784-10.566 5.773-22.873 6.918-31.98-.144-5.313.414-9.378 1.044-11.02 2.536-3.904 6.236-5.528 8.103-6.238 6.898-1.785 13.797-3.568 20.696-5.353 5.357-1.955 1.857-5.597.747-5.275-3.579-.52-3.439-4.376-20.19-.356-3.589-.457-7.178-.915-10.767-1.372 0 0-2.088-1.682-2.305-1.561-5.818-1.072-6.673 2.715-6.333 4.99.266 1.659.532 3.318.799 4.977 0 0-2.09 7.458-1.968 7.675-5.324 5.979-13.249 25.18-13.757 28.869-.24 3.467-1.55 2.841-1.198 6.211.013 2.633-.293.989.586 6.414.214 1.633-1.782 1.507-2.927 1.035-9.76-6.12-19.03-10.112-29.21-15.525-.533-.271-1.067-.543-1.6-.814-5.217 4.266-10.435 8.532-15.652 12.798.98 5.637 1.959 11.275 2.939 16.912.92.457 1.743.734 2.615 1.1z" fill="#fff"/></g><path d="m386.43 91.75c-.203.055-6.747-7.826-6.747-7.826s3.832-.805 3.857-.76l7.544 7.26-4.654 1.326" fill="#f9dd16"/><g stroke="#000"><g fill="none"><path d="m366.23 133.24c-5.456.838-11.667-1.861-14.427-4.467"/><path d="m386.69 92.03c-.478-.477-2.629-2.582-3.155-3.251-.623-.679-1.266-1.343-1.931-1.959-.665-.768-1.134-1.22-1.805-2.03-.667-.555-1.244-1.149-1.845-1.805m15.06 7.581c-.139-.018-1-.319-1.502-.605-.444-.416-2.152-1.734-2.635-2.325-.576-.596-1.172-1.176-1.792-1.711-.613-.676-1.049-1.069-1.667-1.783-.624-.479-1.159-.999-1.715-1.573"/><path d="m353.7 107.97c.024.042.047.084.071.126-.222-.395-.119-.134.844.024.616-.098 2.656.886 3.341 2.105.394.553.965 1.421 1.296 2.01.094.168.098.47.193.639"/><path d="m379.75 93.49c-.023-.042-.047-.084-.071-.126.095.168-.189-.336-.283-.504-.368-.654-.62-1.376-.938-1.963-.355-.631-.53-1.362-.885-1.993-.268-.687-.728-1.438-1-2.149-.39-.752-.578-1.427-1.01-2.195-.325-.633-.41-1.025-.795-1.711l.795 1.711c-.325-.633-.41-1.025-.795-1.711"/><path d="m397.55 89.13c-.136-.012-.973-.263-1.45-.512-.42-.374-2.046-1.546-2.498-2.082-.543-.537-1.106-1.058-1.694-1.537-.577-.611-.99-.963-1.569-1.608-.595-.426-1.1-.893-1.623-1.411"/><path d="m368.99 89.64c1.236-.226 1.237-.834 1.576-1.276.246-.576.429-1.796.095-3.374-.152-.595-.239-1.07-.346-1.797-.186-.417-.197-.667-.244-1.024"/><path d="m359.06 160.9c-.023-.042-.047-.084-.071-.126.222.396.115.144-.788-.221-.688-.152-1.088-.378-1.773-.497" stroke-width="2.403"/><path d="m363.45 147.68c-.047-.084-7.781-5.282-8.997-5.617-.706-.325-1.36-.504-2.187-.918-.464-.302-.923-.448-1.395-.71-.67-.062-1.206-.333-1.783-.325-.636-.228-.947.198-1.615.098-.572.097-1.554.229-2.048.37"/><path d="m345.66 128.29c.239-.186 1.129-.483 1.735-.838.723-.374 3.426-.693 4.7.041"/><path d="m352.9 141.37c-.024-.042-.286-1.348-.755-3.513-.45-2.67-.136-8.926.007-9.61.105-.675-.037-1.697.22-2.264.152-.746.445-1.395.678-2.042.303-.777.557-1.437.875-1.986.349-2.042 6.104-10.244 6.481-10.615.297-.446.729-1.034 1.033-1.411.165-.461.514-.907.836-1.466.479-.616.598-1.072.891-1.664.055-.581.29-1.453.284-2.151.167-.842.065-1.486.159-2.081-.082-.737.383-9.746.42-10.173.146-.882 1.025-3.816 3.155-3.3.783.287 1.688.432 2.221.754.751.21 1.343.758 1.902 1.17 2.569 2.497 3.109 4.201 3.44 4.79.118.21.236.42.355.631"/><path d="m346.26 164.11c-.023-.042-.047-.084-.071-.126.191.341.085.171-.158-.576-.064-.642-.262-1.51-.362-2.12-.13-.634-.427-1.356-.346-1.797-.227-.644-.084-1.175-.023-1.813.18-.797.262-1.374.284-2.151.088-.954.017-1.629.072-2.531-.251-.742-.302-1.363-.685-2.104-.341-.709-.601-1.365-1.01-2.089-.331-.589-.662-1.177-.993-1.766l.993 1.766c-.331-.589-.662-1.177-.993-1.766"/></g><g fill="#f9dd16"><path d="m354.83 159.87c-1.189-1.821-2.394-5.293-2.43-5.356 0-.001-2.403-4.127-2.403-4.127-1.44-2.068-2.552-2.078-3.342-2.105-1.722-.111-2.483-.43-3.783-.529-1.324-.583-.339-2.964-.374-3.03 1.357-5.41 7.05-4.877 7.284-4.759 2.612.855 2.929 1.175 2.502 2.826-.658 1.782-1.048 2.415-.994 3.547.137 2.163 2.754 5.34 2.79 5.404.035.063 1.722 1.438 1.722 1.438.8.685 1.864.806 2.955 2.157.956 1.454 1.093 2.042.299 3.484-1.01 1.895-3.186 2.455-4.226 1.047z"/><path d="m220.48 109.59c.226.232 2.946 1.875 2.994 1.784.047-.091 7.119-1.722 7.07-1.631-.047.091-3.962 4.744-3.78 4.839.181.094 4.091 4.775 4.182 4.823.09.047-7.404-.616-7.404-.616l-4.957 3.997-1.11-5.188c0 0-6.236-2.2-6.327-2.247-.09-.047 5.337-1.841 5.337-1.841l1.62-4.231c-.001 0 2.098.398 2.373.311z" fill-opacity=".988"/></g><path d="m311.39 121.07c.015-4.373-8.247-25.473-9.664-28.515-2.637-3.301-5.428-8.528-6.627-13.04-.777-4.557-3.214-8.131-6.65-9.343-3.965-2.105-7.838-1.28-11.565-.956-1.827.388-3.391 1.376-4.274 2.83-2.01 2.879-3.107 2.659-4.499 3.9-11.461 1.786-22.298 7.7-30.544 11.731-4.366 3.03-8.07 4.791-9.789 5.162-4.655.017-8.04-2.189-9.658-3.362-5.272-4.794-10.543-9.588-15.815-14.382-4.57-3.41-5.7 1.513-4.822 2.265 1.526 3.279-1.777 5.275 10.764 17.09 1.584 3.253 3.167 6.507 4.751 9.759 0 0-.264 2.669-.043 2.783 2.29 5.455 5.927 4.095 7.644 2.565 1.242-1.132 2.484-2.263 3.726-3.395 0 0 7.384-2.337 7.499-2.558 7.919 1.179 28.323-2.709 31.688-4.305 3.03-1.698 3.226-.26 5.852-2.4 2.196-1.454.988-.297 5.05-4 1.249-1.074 2.237.665 2.47 1.882.226 11.518 1.963 21.457 3.01 32.942.065.594.13 1.19.196 1.784 6.427 2.028 12.854 4.056 19.281 6.084 4.179-3.907 8.359-7.815 12.538-11.723-.127-1.019-.346-1.859-.517-2.79z" fill="#fff"/></g><path d="m212.09 84.77c.158.14-2.851 9.932-2.851 9.932s-2.772-2.765-2.749-2.811l1.941-10.289 3.659 3.168" fill="#f9dd16"/><g stroke="#000"><g fill="none"><path d="m257.87 78.948c3.69 4.106 4.834 10.78 4.166 14.517"/><path d="m212.18 84.41c-.137.662-.72 3.614-.991 4.421-.227.893-.43 1.795-.581 2.689-.278.978-.399 1.617-.709 2.622-.099.862-.28 1.67-.499 2.532m-1.909-16.754c.061.126.283 1.015.316 1.588-.105.6-.272 2.751-.502 3.478-.183.808-.342 1.625-.45 2.437-.23.884-.32 1.464-.579 2.371-.059.785-.201 1.517-.377 2.296" stroke-width="1.106"/><path d="m243.59 103.27c.022-.043.045-.086.067-.128-.209.402-.047.173-.442-.719-.419-.462-.714-2.707-.069-3.949.247-.632.661-1.586.972-2.186.089-.171.339-.34.428-.511"/><path d="m217.21 89.41c-.022.043-.044.085-.067.128.089-.172-.178.342-.266.513-.346.666-.811 1.273-1.129 1.86-.333.642-.849 1.19-1.182 1.832-.428.601-.804 1.397-1.247 2.02-.416.739-.877 1.265-1.284 2.047-.351.619-.633.904-.996 1.603l.996-1.603c-.351.619-.633.904-.996 1.603"/><path d="m203.81 76.909c.064.12.313.958.366 1.494-.083.557-.172 2.559-.373 3.23-.152.748-.279 1.505-.358 2.259-.195.817-.263 1.356-.486 2.193-.031.731-.145 1.41-.291 2.131"/><path d="m219.88 100.52c-.866-.911-1.375-.578-1.931-.619-.617.11-1.737.625-2.875 1.769-.415.453-.764.786-1.314 1.274-.247.384-.45.53-.723.766"/><path d="m284.94 69.796c-.022.043-.045.086-.067.128.209-.403.058-.175.247.781.25.659.28 1.117.556 1.755"/><path d="m271.47 73.36c-.045.086-.157 9.403.229 10.604.115.769.323 1.414.43 2.332.001.554.131 1.018.17 1.556.315.595.382 1.192.705 1.67.158.658.685.684.967 1.298.395.425 1.042 1.175 1.431 1.511"/><path d="m265 98.87c-.286-.098-1.023-.681-1.651-.993-.709-.4-2.457-2.487-2.54-3.955"/><path d="m271.97 85.65c-.022.043-.971.978-2.525 2.556-1.987 1.839-7.393 5-8.04 5.259-.623.282-1.4.96-2.01 1.056-.707.282-1.411.392-2.079.551-.816.172-1.507.321-2.141.355-1.9.827-11.915.505-12.431.393-.536-.004-1.264-.044-1.746-.091-.476.115-1.04.067-1.684.104-.778-.063-1.225.087-1.88.166-.516.272-1.374.553-1.955.941-.796.322-1.279.76-1.828 1.01-.572.472-8.364 5.02-8.741 5.222-.818.36-3.754 1.232-4.489-.832-.189-.812-.563-1.649-.586-2.271-.236-.744-.102-1.539-.063-2.233.682-3.517 1.811-4.902 2.123-5.502.111-.214.222-.428.333-.642"/><path d="m294.64 78.75c-.022.043-.045.086-.067.128.18-.347.096-.165-.395.447-.502.405-1.12 1.046-1.575 1.464-.459.456-.9 1.1-1.314 1.274-.414.542-.937.714-1.504 1.013-.766.286-1.293.534-1.955.941-.846.449-1.373.878-2.156 1.326-.483.617-.974 1-1.385 1.726-.406.673-.812 1.251-1.195 1.988-.311.6-.622 1.199-.934 1.798l.934-1.798c-.311.6-.622 1.199-.934 1.798"/><path d="m288.13 128.02c.045-.086.089-.172.134-.257-.247.475-.16.35.072-.451.002-.962.23-2.125.24-2.974.144-.898.291-1.869.301-2.778-.054-1.064-.053-2.02-.212-3.044-.012-.945-.123-1.924-.151-2.85-.017-.917-.086-1.703-.285-2.593-.018-.667-.06-1.581-.222-2.398.087-.643-.096-1.235-.233-1.751-.249-.992-.346-1.57-.607-2.598-.157-.55-.313-1.254-.55-2.079-.086-.781-.504-1.796-.674-2.469-.232-.496-.466-1.166-.556-1.756-.243-.544-.59-1.208-.684-1.823-.256-.469-.529-1.199-.812-1.889-.244-.567-.424-1.266-.684-1.822-.262-.702-.582-1.302-.746-2.02-.251-.243-.308-.509-.442-.718"/></g><g fill="#f9dd16"><path d="m286.4 73.896c-.872 1.992-3.116 4.902-3.15 4.967 0 .001-2.136 4.271-2.136 4.271-.941 2.338-.341 3.274.07 3.949.85 1.501 1 2.313 1.629 3.455.237 1.427-2.294 1.907-2.327 1.971-5.27 1.828-7.943-3.228-7.971-3.487-.715-2.653-.622-3.094.994-3.641 1.851-.425 2.595-.446 3.511-1.111 1.735-1.3 2.959-5.229 2.993-5.294.033-.064.26-2.228.26-2.228.135-1.044-.347-2 .186-3.653.693-1.597 1.109-2.033 2.75-2.159 2.139-.195 3.799 1.319 3.191 2.96z"/><path d="m279.48 125.33c-.796-.723 14.975 5.715 17.14 5.788 2.967-1.085 15.193-11.43 15.193-11.43.121 1.013.554 3.641 1.735 4.196-4.726 3.835-9.02 7.524-13.745 11.357.338 6.077-.771 12.516 2.315 19.316 0 0-3.689.072-3.689 0-3.256-3.256-4.414-18.954-4.414-18.954-5.184-2.315-10.37-4.558-15.554-6.873.748-.482 1.351-1.977 1.014-3.4z" fill-opacity=".987"/></g><g fill="none"><path d="m294.49 141.42c.252-.183-2.845 1.439-3.64 1.846-14.328 7.643-21.702 18.761-22.16 19.18-.248.474-.703 1.105-1.121 1.724-.336.519-.818 1.056-1.135 1.58-.439.608-1.362 1.808-1.866 2.342-.063.344.239-.118.14.111"/><path d="m304.28 132.34c-.278-.141 2.581 1.872 3.307 2.393 13.351 9.246 26.61 10.717 27.19 10.934.534.004 1.305.12 2.046.208.615.061 1.313.244 1.925.287.741.112 2.231.383 2.936.588.334-.101-.214-.158.034-.176"/></g></g></svg>