<svg xmlns="http://www.w3.org/2000/svg" viewBox="0 0 1350 900" enable-background="new 0 0 1350 900"><path fill="#f93" d="m0 0h1350v900h-1350z"/><path fill="#fff" d="m0 300h1350v300h-1350z"/><path fill="#128807" d="m0 600h1350v300h-1350z"/><path d="m675 330c-66.27 0-120 53.726-120 120s53.726 120 120 120 120-53.726 120-120-53.726-120-120-120m109.31 134.39c-.378 2.875-3.02 4.898-5.89 4.52-.039-.005-.074-.021-.113-.027-1.025 5.643-2.504 11.126-4.392 16.416.035.013.07.017.105.032 2.679 1.11 3.951 4.181 2.841 6.859-1.11 2.679-4.181 3.951-6.859 2.841-.035-.015-.064-.038-.099-.053-2.444 5.147-5.296 10.06-8.511 14.708.035.026.075.041.11.068 2.3 1.765 2.734 5.061.969 7.361-1.765 2.3-5.061 2.734-7.361.969-.037-.028-.063-.064-.099-.093-3.676 4.321-7.694 8.34-12.01 12.01.029.036.065.062.093.099 1.765 2.3 1.331 5.596-.969 7.361-2.3 1.765-5.596 1.331-7.361-.969-.027-.035-.042-.075-.068-.11-4.645 3.215-9.56 6.067-14.708 8.511.015.035.039.064.053.099 1.11 2.679-.162 5.75-2.841 6.859-2.679 1.11-5.75-.162-6.859-2.841-.014-.035-.018-.07-.032-.105-5.29 1.888-10.773 3.367-16.416 4.392.006.039.021.074.027.113.378 2.875-1.645 5.512-4.52 5.89s-5.512-1.645-5.89-4.52c-.006-.044.001-.086-.004-.13-2.805.225-5.637.344-8.498.344s-5.693-.119-8.496-.343c-.005.044.002.086-.004.13-.378 2.875-3.02 4.898-5.89 4.52s-4.898-3.02-4.52-5.89c.005-.039.021-.074.027-.113-5.643-1.025-11.126-2.504-16.416-4.392-.013.035-.017.07-.032.105-1.11 2.679-4.181 3.951-6.859 2.841-2.679-1.11-3.951-4.181-2.841-6.859.015-.035.038-.064.053-.099-5.147-2.444-10.06-5.296-14.708-8.511-.026.035-.041.075-.068.11-1.765 2.3-5.061 2.734-7.361.969-2.3-1.765-2.734-5.061-.969-7.361.028-.037.064-.063.093-.099-2.16-1.838-4.25-3.756-6.255-5.761-2-2-3.923-4.094-5.761-6.255-.036.029-.062.065-.099.093-2.3 1.765-5.596 1.331-7.361-.969-1.765-2.3-1.331-5.596.969-7.361.035-.027.075-.042.11-.068-3.215-4.645-6.067-9.56-8.511-14.708-.035.015-.064.039-.099.053-2.679 1.11-5.75-.162-6.859-2.841-1.11-2.679.163-5.75 2.841-6.859.035-.014.07-.018.105-.032-1.888-5.29-3.367-10.773-4.392-16.416-.039.006-.074.021-.113.027-2.875.378-5.512-1.645-5.89-4.52-.378-2.875 1.645-5.512 4.52-5.89.044-.006.086.001.13-.004-.225-2.804-.344-5.636-.344-8.497s.119-5.693.343-8.496c-.044-.005-.086.002-.13-.004-2.875-.378-4.898-3.02-4.52-5.89.378-2.875 3.02-4.898 5.89-4.52.039.005.074.021.113.027 1.025-5.643 2.504-11.126 4.392-16.416-.035-.014-.071-.017-.105-.032-2.679-1.11-3.951-4.181-2.841-6.859 1.11-2.679 4.181-3.951 6.859-2.841.035.015.064.038.099.053 2.444-5.147 5.296-10.06 8.511-14.708-.035-.026-.075-.041-.11-.068-2.3-1.765-2.734-5.061-.969-7.361 1.765-2.3 5.061-2.734 7.361-.969.037.028.063.064.099.093 1.838-2.16 3.756-4.25 5.761-6.255 2-2 4.094-3.923 6.255-5.761-.029-.036-.065-.062-.093-.099-1.765-2.3-1.331-5.596.969-7.361 2.3-1.765 5.596-1.331 7.361.969.027.035.042.075.068.11 4.645-3.215 9.56-6.067 14.708-8.511-.015-.035-.039-.064-.053-.099-1.11-2.679.162-5.75 2.841-6.859 2.679-1.11 5.75.162 6.859 2.841.014.035.018.07.032.105 5.29-1.888 10.773-3.367 16.416-4.392-.006-.039-.021-.074-.027-.113-.378-2.875 1.645-5.512 4.52-5.89 2.875-.378 5.512 1.645 5.89 4.52.006.044-.001.086.004.13 2.803-.224 5.636-.343 8.496-.343s5.693.119 8.496.343c.005-.044-.002-.086.004-.13.378-2.875 3.02-4.898 5.89-4.52 2.875.378 4.898 3.02 4.52 5.89-.005.039-.021.074-.027.113 5.643 1.025 11.126 2.504 16.416 4.392.013-.035.017-.07.032-.105 1.11-2.679 4.181-3.951 6.859-2.841 2.679 1.11 3.951 4.181 2.841 6.859-.015.035-.038.064-.053.099 5.147 2.444 10.06 5.296 14.708 8.511.026-.035.041-.075.068-.11 1.765-2.3 5.061-2.734 7.361-.969 2.3 1.765 2.734 5.061.969 7.361-.028.037-.064.063-.093.099 2.16 1.838 4.25 3.756 6.255 5.761 2 2 3.923 4.094 5.761 6.255.036-.029.062-.065.099-.093 2.3-1.765 5.596-1.331 7.361.969 1.765 2.3 1.331 5.596-.969 7.361-.035.027-.075.042-.11.068 3.215 4.645 6.067 9.56 8.511 14.708.035-.015.064-.039.099-.053 2.679-1.11 5.75.162 6.859 2.841 1.11 2.679-.163 5.75-2.841 6.859-.035.014-.07.018-.105.032 1.888 5.29 3.367 10.773 4.392 16.416.039-.006.074-.021.113-.027 2.875-.378 5.512 1.645 5.89 4.52.378 2.875-1.645 5.512-4.52 5.89-.044.006-.086-.001-.13.004.224 2.803.343 5.636.343 8.496s-.119 5.693-.343 8.496c.044.005.086-.002.13.004 2.877.379 4.9 3.02 4.522 5.891" fill="#008"/><g fill="#fff"><path d="m676.07 429.05c1.129.057 2.239.184 3.314.412l3-20.967 19.783-59.922-12.828 61.785-7.881 19.662c1.069.346 2.095.782 3.082 1.287l8.334-19.485 34.618-52.76-28.382 56.36-12.707 16.959c.938.609 1.816 1.295 2.643 2.042l13.1-16.672 47.09-42c-2-2-4.094-3.923-6.255-5.761-1.784 2.205-5 2.607-7.268.87-2.265-1.738-2.71-4.956-1.037-7.251-4.645-3.215-9.56-6.067-14.708-8.511-1.146 2.607-4.163 3.837-6.806 2.742-2.644-1.095-3.908-4.101-2.873-6.754-5.29-1.888-10.773-3.367-16.416-4.392-.434 2.812-3.03 4.78-5.864 4.406-2.831-.373-4.824-2.937-4.524-5.76-2.802-.223-5.634-.342-8.495-.342l3.6 63-2.527 21.05"/><path d="m654.05 448.93c.057-1.129.184-2.239.412-3.314l-20.967-3-59.922-19.783 61.785 12.828 19.662 7.881c.346-1.069.782-2.095 1.287-3.082l-19.485-8.334-52.76-34.618 56.36 28.382 16.959 12.707c.609-.938 1.295-1.816 2.042-2.643l-16.672-13.1-42-47.09c-2 2-3.923 4.094-5.761 6.255 2.205 1.784 2.607 5 .87 7.268-1.738 2.265-4.957 2.71-7.251 1.037-3.215 4.645-6.067 9.56-8.511 14.708 2.607 1.146 3.837 4.163 2.742 6.806-1.095 2.644-4.1 3.908-6.754 2.873-1.888 5.29-3.367 10.773-4.392 16.416 2.812.434 4.78 3.03 4.406 5.864-.373 2.831-2.937 4.824-5.76 4.524-.223 2.802-.342 5.634-.342 8.495l63-3.6 21.05 2.527"/><path d="m673.93 470.95c-1.129-.057-2.239-.184-3.314-.412l-3 20.967-19.783 59.922 12.828-61.785 7.881-19.662c-1.069-.346-2.096-.782-3.082-1.287l-8.334 19.485-34.618 52.76 28.382-56.36 12.707-16.959c-.938-.609-1.816-1.295-2.643-2.042l-13.1 16.672-47.09 42c2 2 4.094 3.923 6.255 5.761 1.784-2.205 5-2.607 7.268-.87 2.265 1.738 2.71 4.957 1.037 7.251 4.645 3.215 9.56 6.067 14.708 8.511 1.146-2.607 4.163-3.837 6.806-2.742 2.644 1.095 3.908 4.101 2.873 6.754 5.29 1.888 10.773 3.367 16.416 4.392.434-2.812 3.03-4.78 5.864-4.406 2.831.373 4.824 2.937 4.524 5.76 2.803.224 5.636.343 8.496.343l-3.6-63 2.526-21.06"/><path d="m660.95 434.43c.826-.746 1.705-1.433 2.643-2.042l-12.707-16.959-28.382-56.36 34.618 52.76 8.334 19.485c.986-.505 2.01-.941 3.082-1.287l-7.881-19.662-12.828-61.785 19.783 59.922 3 20.967c1.075-.229 2.185-.355 3.314-.412l-2.527-21.06 3.6-63c-2.861 0-5.693.119-8.496.343.301 2.823-1.693 5.388-4.524 5.76-2.835.373-5.43-1.594-5.864-4.406-5.643 1.025-11.126 2.504-16.416 4.392 1.035 2.654-.229 5.659-2.873 6.754-2.643 1.095-5.661-.136-6.806-2.742-5.147 2.444-10.06 5.296-14.708 8.511 1.672 2.295 1.228 5.513-1.037 7.251-2.263 1.737-5.483 1.335-7.268-.87-2.16 1.838-4.25 3.756-6.255 5.761l47.09 42 13.1 16.672"/><path d="m690.57 435.95c.746.826 1.433 1.705 2.042 2.643l16.959-12.707 56.36-28.382-52.76 34.618-19.485 8.334c.505.986.941 2.01 1.287 3.082l19.662-7.881 61.785-12.828-59.922 19.783-20.967 3c.229 1.075.355 2.185.412 3.314l21.05-2.527 63 3.6c0-2.861-.119-5.693-.343-8.496-2.823.301-5.388-1.693-5.76-4.524-.373-2.835 1.594-5.43 4.406-5.864-1.025-5.643-2.504-11.126-4.392-16.416-2.654 1.035-5.659-.229-6.754-2.873-1.095-2.643.136-5.661 2.742-6.806-2.444-5.147-5.296-10.06-8.511-14.708-2.295 1.672-5.513 1.228-7.251-1.037-1.737-2.263-1.335-5.483.87-7.268-1.838-2.16-3.756-4.25-5.761-6.255l-42 47.09-16.672 13.1"/><path d="m659.43 464.05c-.746-.826-1.433-1.705-2.042-2.643l-16.959 12.707-56.36 28.382 52.76-34.618 19.485-8.334c-.505-.986-.941-2.01-1.287-3.082l-19.662 7.881-61.785 12.828 59.922-19.783 20.967-3c-.229-1.075-.355-2.185-.412-3.314l-21.05 2.527-63-3.6c0 2.861.119 5.693.343 8.496 2.823-.301 5.388 1.693 5.76 4.524.373 2.835-1.594 5.43-4.406 5.864 1.025 5.643 2.504 11.126 4.392 16.416 2.654-1.035 5.659.229 6.754 2.873 1.095 2.643-.136 5.661-2.742 6.806 2.444 5.147 5.296 10.06 8.511 14.708 2.295-1.672 5.513-1.228 7.251 1.037 1.737 2.263 1.335 5.483-.87 7.268 1.838 2.16 3.756 4.25 5.761 6.255l42-47.09 16.672-13.1"/><path d="m773.9 463.02c.373-2.831 2.937-4.824 5.76-4.524.224-2.803.343-5.636.343-8.496l-63 3.6-21.05-2.526c-.057 1.129-.184 2.239-.412 3.314l20.967 3 59.922 19.783-61.785-12.828-19.662-7.881c-.346 1.069-.782 2.095-1.287 3.082l19.485 8.334 52.76 34.618-56.36-28.382-16.959-12.707c-.609.938-1.295 1.816-2.042 2.643l16.672 13.1 42 47.09-47.09-42-13.1-16.672c-.826.746-1.705 1.433-2.643 2.042l12.707 16.959 28.382 56.36-34.618-52.76-8.334-19.485c-.986.505-2.01.941-3.082 1.287l7.881 19.662 12.828 61.785-19.783-59.922-3-20.967c-1.075.229-2.185.355-3.314.412l2.526 21.05-3.6 63c2.861 0 5.693-.119 8.496-.343-.301-2.823 1.693-5.388 4.524-5.76 2.835-.373 5.43 1.594 5.864 4.406 5.643-1.025 11.126-2.504 16.416-4.392-1.035-2.654.229-5.659 2.873-6.754 2.643-1.095 5.661.136 6.806 2.742 5.147-2.444 10.06-5.296 14.708-8.511-1.672-2.295-1.228-5.513 1.037-7.251 2.263-1.737 5.483-1.335 7.268.87 4.321-3.676 8.34-7.694 12.01-12.01-2.205-1.784-2.607-5-.87-7.268 1.738-2.265 4.957-2.71 7.251-1.037 3.215-4.645 6.067-9.56 8.511-14.708-2.607-1.146-3.837-4.163-2.742-6.806 1.095-2.644 4.101-3.908 6.754-2.873 1.888-5.29 3.367-10.773 4.392-16.416-2.812-.434-4.78-3.03-4.406-5.864"/></g><g fill="#008"><path d="m695.95 448.93c-.057-1.129-.184-2.239-.412-3.314l-8.942 1.282 8.384-3.36c-.346-1.069-.782-2.095-1.287-3.082l-8.297 3.547 7.222-5.411c-.609-.938-1.295-1.816-2.042-2.643l-7.087 5.568 5.568-7.087c-.826-.746-1.705-1.433-2.643-2.042l-5.41 7.223 3.548-8.295c-.986-.505-2.01-.941-3.082-1.287l-3.36 8.384 1.282-8.942c-1.075-.229-2.185-.355-3.314-.412l-1.074 8.944-1.073-8.946c-1.129.057-2.239.184-3.314.412l1.282 8.942-3.36-8.384c-1.069.346-2.095.782-3.082 1.287l3.548 8.295-5.411-7.222c-.938.609-1.816 1.295-2.643 2.042l5.568 7.087-7.087-5.568c-.746.826-1.433 1.705-2.042 2.643l7.222 5.411-8.295-3.548c-.505.986-.941 2.01-1.287 3.082l8.384 3.36-8.942-1.282c-.229 1.075-.355 2.185-.412 3.314l8.944 1.075-8.946 1.073c.057 1.129.184 2.239.412 3.314l8.942-1.282-8.384 3.36c.346 1.069.782 2.095 1.287 3.082l8.295-3.548-7.222 5.411c.609.938 1.295 1.816 2.042 2.643l7.087-5.568-5.568 7.087c.826.746 1.705 1.433 2.643 2.042l5.411-7.222-3.548 8.296c.986.505 2.01.941 3.082 1.287l3.36-8.384-1.282 8.942c1.075.229 2.185.355 3.314.412l1.075-8.945 1.073 8.946c1.129-.057 2.239-.184 3.314-.412l-1.282-8.942 3.36 8.384c1.069-.346 2.096-.782 3.082-1.287l-3.547-8.297 5.411 7.222c.938-.609 1.816-1.295 2.643-2.042l-5.568-7.087 7.087 5.568c.746-.826 1.433-1.705 2.042-2.643l-7.223-5.41 8.295 3.548c.505-.986.941-2.01 1.287-3.082l-8.384-3.36 8.942 1.282c.229-1.075.355-2.185.412-3.314l-8.944-1.074 8.946-1.073"/><path d="m779.79 458.5c-.044-.006-.086.001-.13-.004-.281 3.514-.735 6.979-1.354 10.387.039.006.074.021.113.027 2.875.378 5.512-1.645 5.89-4.52.379-2.874-1.644-5.511-4.519-5.89"/><path d="m773.9 463.02c-.373 2.835 1.594 5.43 4.406 5.864.619-3.408 1.072-6.873 1.354-10.387-2.823-.301-5.388 1.692-5.76 4.523"/><path d="m676.07 470.95c-.357.018-.711.054-1.073.054s-.716-.036-1.073-.054l-2.527 21.05 3.6 63 3.6-63-2.527-21.05"/><path d="m673.93 470.95c.358.018.711.054 1.073.054s.716-.036 1.073-.054l-1.073-8.946-1.073 8.946"/><path d="m770 495.03c2.679 1.11 5.75-.162 6.859-2.841 1.11-2.679-.163-5.75-2.841-6.859-.035-.014-.07-.018-.105-.032-1.18 3.306-2.519 6.536-4.01 9.679.035.015.064.038.099.053"/><path d="m767.16 488.17c-1.095 2.643.136 5.661 2.742 6.806 1.493-3.143 2.832-6.373 4.01-9.679-2.653-1.035-5.659.228-6.754 2.873"/><path d="m660.65 489.64l-12.828 61.785 19.783-59.922 3-20.967c-.707-.15-1.4-.339-2.079-.559l-7.881 19.663"/><path d="m668.53 469.98c.679.22 1.371.408 2.079.559l1.282-8.942-3.361 8.383"/><path d="m755.11 518.09c2.3 1.765 5.596 1.331 7.361-.969 1.765-2.3 1.331-5.596-.969-7.361-.035-.027-.075-.042-.11-.068-1.991 2.876-4.121 5.647-6.381 8.305.036.029.062.065.099.093"/><path d="m754.14 510.72c-1.737 2.263-1.335 5.483.87 7.268 2.261-2.658 4.391-5.429 6.381-8.305-2.294-1.673-5.513-1.228-7.251 1.037"/><path d="m650.88 484.57l-28.382 56.36 34.618-52.76 8.334-19.485c-.64-.328-1.263-.684-1.863-1.074l-12.707 16.959"/><path d="m663.59 467.61c.6.39 1.222.746 1.863 1.074l3.548-8.296-5.411 7.222"/><path d="m734.75 536.5c1.765 2.3 5.061 2.734 7.361.969 2.3-1.765 2.734-5.061.969-7.361-.028-.037-.064-.063-.093-.099-2.658 2.261-5.429 4.391-8.305 6.381.026.035.041.075.068.11"/><path d="m735.72 529.14c-2.265 1.738-2.71 4.957-1.037 7.251 2.876-1.991 5.647-4.121 8.305-6.381-1.785-2.205-5-2.607-7.268-.87"/><path d="m660.95 465.57c-.532-.481-1.038-.987-1.519-1.519l-16.672 13.1-42 47.09 47.09-42 13.1-16.671"/><path d="m659.43 464.05c.481.532.987 1.038 1.519 1.519l5.568-7.087-7.087 5.568"/><path d="m710.33 549.02c1.11 2.679 4.181 3.951 6.859 2.841 2.679-1.11 3.951-4.181 2.841-6.859-.015-.035-.038-.064-.053-.099-3.143 1.493-6.373 2.832-9.679 4.01.014.035.018.071.032.105"/><path d="m713.17 542.16c-2.644 1.095-3.908 4.1-2.873 6.754 3.306-1.18 6.536-2.519 9.679-4.01-1.146-2.606-4.163-3.837-6.806-2.742"/><path d="m636.83 467.88l-52.76 34.618 56.36-28.382 16.959-12.707c-.39-.6-.746-1.223-1.074-1.863l-19.485 8.334"/><path d="m656.31 459.55c.328.64.684 1.263 1.074 1.863l7.222-5.411-8.296 3.548"/><path d="m683.5 554.79c.378 2.875 3.02 4.898 5.89 4.52s4.898-3.02 4.52-5.89c-.005-.039-.021-.074-.027-.113-3.408.619-6.873 1.072-10.387 1.354.005.043-.002.085.004.129"/><path d="m688.02 548.9c-2.831.373-4.824 2.937-4.524 5.76 3.514-.281 6.979-.735 10.387-1.354-.433-2.812-3.03-4.78-5.863-4.406"/><path d="m633.5 457.39l-59.922 19.783 61.785-12.828 19.662-7.881c-.22-.679-.408-1.371-.559-2.079l-20.966 3"/><path d="m654.47 454.39c.15.707.339 1.4.559 2.079l8.384-3.36-8.943 1.281"/><path d="m656.09 553.42c-.378 2.875 1.645 5.512 4.52 5.89s5.512-1.645 5.89-4.52c.006-.044-.001-.086.004-.13-3.514-.281-6.979-.735-10.387-1.354-.007.04-.022.075-.027.114"/><path d="m661.98 548.9c-2.835-.373-5.43 1.594-5.864 4.406 3.408.619 6.873 1.072 10.387 1.354.301-2.823-1.692-5.388-4.523-5.76"/><path d="m654.05 451.07c-.018-.357-.054-.711-.054-1.073s.036-.716.054-1.073l-21.05-2.527-63 3.6 63 3.6 21.05-2.527"/><path d="m654.05 448.93c-.018.357-.054.711-.054 1.073s.036.716.054 1.073l8.946-1.073-8.946-1.073"/><path d="m629.97 545c-1.11 2.679.162 5.75 2.841 6.859 2.679 1.11 5.75-.162 6.859-2.841.014-.035.018-.07.032-.105-3.306-1.18-6.536-2.519-9.679-4.01-.015.035-.038.064-.053.099"/><path d="m636.83 542.16c-2.643-1.095-5.661.136-6.806 2.742 3.143 1.493 6.373 2.832 9.679 4.01 1.035-2.653-.228-5.659-2.873-6.754"/><path d="m635.36 435.65l-61.785-12.828 59.922 19.783 20.967 3c.15-.707.339-1.4.559-2.079l-19.663-7.881"/><path d="m655.02 443.53c-.22.679-.408 1.371-.559 2.079l8.942 1.282-8.383-3.361"/><path d="m606.91 530.11c-1.765 2.3-1.331 5.596.969 7.361 2.3 1.765 5.596 1.331 7.361-.969.027-.035.042-.075.068-.11-2.876-1.991-5.647-4.121-8.305-6.381-.029.036-.065.062-.093.099"/><path d="m614.28 529.14c-2.263-1.737-5.483-1.335-7.268.87 2.658 2.261 5.429 4.391 8.305 6.381 1.673-2.294 1.228-5.513-1.037-7.251"/><path d="m640.43 425.88l-56.36-28.382 52.76 34.618 19.485 8.334c.328-.64.684-1.263 1.074-1.863l-16.959-12.707"/><path d="m657.39 438.59c-.39.6-.746 1.223-1.074 1.863l8.295 3.548-7.221-5.411"/><path d="m588.5 509.75c-2.3 1.765-2.734 5.061-.969 7.361 1.765 2.3 5.061 2.734 7.361.969.037-.028.063-.064.099-.093-2.261-2.658-4.391-5.429-6.381-8.305-.036.026-.075.041-.11.068"/><path d="m595.86 510.72c-1.738-2.265-4.957-2.71-7.251-1.037 1.991 2.876 4.121 5.647 6.381 8.305 2.205-1.785 2.607-5 .87-7.268"/><path d="m659.43 435.95c.481-.532.987-1.038 1.519-1.519l-13.1-16.672-47.09-42 42 47.09 16.671 13.1"/><path d="m660.95 434.43c-.532.481-1.038.987-1.519 1.519l7.087 5.568-5.568-7.087"/><path d="m575.98 485.33c-2.679 1.11-3.951 4.181-2.841 6.859 1.11 2.679 4.181 3.951 6.859 2.841.035-.015.064-.038.099-.053-1.493-3.143-2.832-6.373-4.01-9.679-.035.014-.071.018-.105.032"/><path d="m582.84 488.17c-1.095-2.644-4.101-3.908-6.754-2.873 1.18 3.306 2.519 6.536 4.01 9.679 2.606-1.146 3.837-4.163 2.742-6.806"/><path d="m657.12 411.83l-34.618-52.76 28.382 56.36 12.707 16.959c.6-.39 1.223-.746 1.863-1.074l-8.334-19.485"/><path d="m665.45 431.31c-.64.328-1.263.684-1.863 1.074l5.411 7.222-3.548-8.296"/><path d="m570.21 458.5c-2.875.378-4.898 3.02-4.52 5.89.378 2.875 3.02 4.898 5.89 4.52.039-.005.074-.021.113-.027-.619-3.408-1.072-6.873-1.354-10.387-.043.005-.085-.002-.129.004"/><path d="m576.1 463.02c-.373-2.831-2.937-4.824-5.76-4.524.281 3.514.735 6.979 1.354 10.387 2.812-.433 4.78-3.03 4.406-5.863"/><path d="m667.61 408.5l-19.783-59.922 12.828 61.785 7.881 19.662c.679-.22 1.371-.408 2.079-.559l-3-20.966"/><path d="m670.61 429.47c-.707.15-1.4.339-2.079.559l3.36 8.384-1.281-8.943"/><path d="m571.58 431.09c-2.875-.378-5.512 1.645-5.89 4.52-.378 2.875 1.645 5.512 4.52 5.89.044.006.086-.001.13.004.281-3.514.735-6.979 1.354-10.387-.04-.007-.075-.022-.114-.027"/><path d="m576.1 436.98c.373-2.835-1.594-5.43-4.406-5.864-.619 3.408-1.072 6.873-1.354 10.387 2.823.301 5.388-1.692 5.76-4.523"/><path d="m673.93 429.05c.358-.018.711-.054 1.073-.054s.716.036 1.073.054l2.527-21.05-3.6-63-3.6 63 2.527 21.05"/><path d="m676.07 429.05c-.357-.018-.711-.054-1.073-.054s-.716.036-1.073.054l1.073 8.946 1.073-8.946"/><path d="m580 404.97c-2.679-1.11-5.75.162-6.859 2.841-1.11 2.679.163 5.75 2.841 6.859.035.014.07.018.105.032 1.18-3.306 2.519-6.536 4.01-9.679-.035-.015-.064-.038-.099-.053"/><path d="m582.84 411.83c1.095-2.643-.136-5.661-2.742-6.806-1.493 3.144-2.832 6.373-4.01 9.679 2.654 1.035 5.659-.228 6.754-2.873"/><path d="m689.35 410.36l12.828-61.785-19.783 59.922-3 20.967c.707.15 1.4.339 2.079.559l7.881-19.663"/><path d="m681.47 430.02c-.679-.22-1.371-.408-2.079-.559l-1.282 8.942 3.361-8.383"/><path d="m594.89 381.92c-2.3-1.765-5.596-1.331-7.361.969-1.765 2.3-1.331 5.596.969 7.361.035.027.075.042.11.068 1.991-2.876 4.121-5.647 6.381-8.305-.036-.029-.062-.065-.099-.093"/><path d="m595.86 389.28c1.737-2.263 1.335-5.483-.87-7.268-2.261 2.658-4.391 5.429-6.381 8.305 2.294 1.673 5.513 1.228 7.251-1.037"/><path d="m699.12 415.43l28.382-56.36-34.618 52.76-8.334 19.485c.64.328 1.263.684 1.863 1.074l12.707-16.959"/><path d="m686.41 432.39c-.6-.39-1.223-.746-1.863-1.074l-3.548 8.296 5.411-7.222"/><path d="m615.25 363.5c-1.765-2.3-5.061-2.734-7.361-.969-2.3 1.765-2.734 5.061-.969 7.361.028.037.064.063.093.099 2.658-2.261 5.429-4.391 8.305-6.381-.026-.036-.041-.075-.068-.11"/><path d="m614.28 370.86c2.265-1.738 2.71-4.956 1.037-7.251-2.876 1.991-5.647 4.121-8.305 6.381 1.785 2.205 5 2.607 7.268.87"/><path d="m689.05 434.43c.532.481 1.038.987 1.519 1.519l16.672-13.1 42-47.09-47.09 42-13.1 16.671"/><path d="m690.57 435.95c-.481-.532-.987-1.038-1.519-1.519l-5.568 7.087 7.087-5.568"/><path d="m639.67 350.98c-1.11-2.679-4.181-3.951-6.859-2.841-2.679 1.11-3.951 4.181-2.841 6.859.015.035.038.064.053.099 3.143-1.493 6.373-2.832 9.679-4.01-.014-.035-.018-.071-.032-.105"/><path d="m636.83 357.84c2.644-1.095 3.908-4.1 2.873-6.754-3.306 1.18-6.536 2.519-9.679 4.01 1.146 2.606 4.163 3.837 6.806 2.742"/><path d="m713.17 432.12l52.76-34.618-56.36 28.382-16.959 12.707c.39.6.746 1.223 1.074 1.863l19.485-8.334"/><path d="m693.69 440.45c-.328-.64-.684-1.263-1.074-1.863l-7.222 5.411 8.296-3.548"/><path d="m666.5 345.21c-.378-2.875-3.02-4.898-5.89-4.52-2.875.378-4.898 3.02-4.52 5.89.005.039.021.074.027.113 3.408-.619 6.873-1.072 10.387-1.354-.005-.043.002-.085-.004-.129"/><path d="m661.98 351.1c2.831-.373 4.824-2.937 4.524-5.76-3.514.281-6.979.735-10.387 1.354.433 2.812 3.03 4.78 5.863 4.406"/><path d="m716.5 442.61l59.922-19.783-61.785 12.828-19.662 7.881c.22.679.408 1.371.559 2.079l20.966-3"/><path d="m695.53 445.61c-.15-.707-.339-1.4-.559-2.079l-8.384 3.36 8.943-1.281"/><path d="m693.91 346.58c.378-2.875-1.645-5.512-4.52-5.89-2.875-.378-5.512 1.645-5.89 4.52-.006.044.001.086-.004.13 3.514.281 6.979.735 10.387 1.354.007-.04.022-.075.027-.114"/><path d="m688.02 351.1c2.835.373 5.43-1.594 5.864-4.406-3.408-.619-6.873-1.072-10.387-1.354-.301 2.823 1.692 5.388 4.523 5.76"/><path d="m695.95 448.93c.018.358.054.711.054 1.073s-.036.716-.054 1.073l21.05 2.527 63-3.6-63-3.6-21.05 2.527"/><path d="m695.95 448.93l-8.946 1.073 8.946 1.073c.018-.358.054-.711.054-1.073s-.036-.716-.054-1.073"/><path d="m720.03 355c1.11-2.679-.162-5.75-2.841-6.859-2.679-1.11-5.75.162-6.859 2.841-.014.035-.018.07-.032.105 3.306 1.18 6.536 2.519 9.679 4.01.015-.035.038-.064.053-.099"/><path d="m713.17 357.84c2.643 1.095 5.661-.136 6.806-2.742-3.143-1.493-6.373-2.832-9.679-4.01-1.035 2.653.228 5.659 2.873 6.754"/><path d="m714.64 464.35l61.785 12.828-59.922-19.783-20.967-3c-.15.707-.339 1.4-.559 2.079l19.663 7.881"/><path d="m694.98 456.47c.22-.679.408-1.371.559-2.079l-8.942-1.282 8.383 3.361"/><path d="m743.09 369.89c1.765-2.3 1.331-5.596-.969-7.361-2.3-1.765-5.596-1.331-7.361.969-.027.035-.042.075-.068.11 2.876 1.991 5.647 4.121 8.305 6.381.029-.036.065-.062.093-.099"/><path d="m735.72 370.86c2.263 1.737 5.483 1.335 7.268-.87-2.658-2.261-5.429-4.391-8.305-6.381-1.673 2.294-1.228 5.513 1.037 7.251"/><path d="m709.57 474.12l56.36 28.382-52.76-34.618-19.485-8.334c-.328.64-.684 1.263-1.074 1.863l16.959 12.707"/><path d="m692.61 461.41c.39-.6.746-1.223 1.074-1.863l-8.296-3.548 7.222 5.411"/><path d="m761.5 390.25c2.3-1.765 2.734-5.061.969-7.361-1.765-2.3-5.061-2.734-7.361-.969-.037.028-.063.064-.099.093 2.261 2.658 4.391 5.429 6.381 8.305.036-.026.075-.041.11-.068"/><path d="m754.14 389.28c1.738 2.265 4.957 2.71 7.251 1.037-1.991-2.876-4.121-5.647-6.381-8.305-2.205 1.785-2.607 5-.87 7.268"/><path d="m689.05 465.57l13.1 16.672 47.09 42-42-47.09-16.672-13.1c-.48.532-.986 1.038-1.518 1.518"/><path d="m689.05 465.57c.532-.481 1.038-.987 1.519-1.519l-7.087-5.568 5.568 7.087"/><path d="m774.02 414.67c2.679-1.11 3.951-4.181 2.841-6.859-1.11-2.679-4.181-3.951-6.859-2.841-.035.015-.064.038-.099.053 1.493 3.144 2.832 6.373 4.01 9.679.035-.014.071-.018.105-.032"/><path d="m767.16 411.83c1.095 2.644 4.1 3.908 6.754 2.873-1.18-3.306-2.519-6.536-4.01-9.679-2.606 1.146-3.837 4.163-2.742 6.806"/><path d="m692.88 488.17l34.618 52.76-28.382-56.36-12.707-16.959c-.6.39-1.222.746-1.863 1.074l8.334 19.485"/><path d="m684.55 468.69c.64-.328 1.263-.684 1.863-1.074l-5.411-7.222 3.548 8.296"/><path d="m779.79 441.5c2.875-.378 4.898-3.02 4.52-5.89-.378-2.875-3.02-4.898-5.89-4.52-.039.005-.074.021-.113.027.619 3.408 1.072 6.873 1.354 10.387.043-.005.085.002.129-.004"/><path d="m773.9 436.98c.373 2.831 2.937 4.824 5.76 4.524-.281-3.514-.735-6.979-1.354-10.387-2.812.433-4.78 3.03-4.406 5.863"/><path d="m682.39 491.5l19.783 59.922-12.828-61.785-7.881-19.662c-.679.22-1.371.408-2.079.559l3 20.966"/><path d="m679.39 470.53c.707-.15 1.4-.339 2.079-.559l-3.36-8.384 1.281 8.943"/></g></svg>