<svg xmlns="http://www.w3.org/2000/svg" viewBox="0 0 640 480" xmlns:xlink="http://www.w3.org/1999/xlink"><defs><path id="0" d="m496.06 549.21l17.717 70.866 35.433-53.15-17.717 88.58 35.433-35.433-35.433 88.58 35.433-35.433-35.433 88.58 35.433-35.433-35.433 106.3 35.433-35.433-35.433 106.3 35.433-35.433-35.433 106.3-17.716 53.15-17.717 17.72-17.717-17.72-17.716-53.15-35.433-106.3 35.433 35.433-35.433-106.3 35.433 35.433-35.433-106.3 35.433 35.433-35.433-88.58 35.433 35.433-35.433-88.58 35.433 35.433-17.717-88.58 35.433 53.15 17.717-70.866z" stroke-width="8.25" fill-rule="evenodd" stroke="#fff" fill="#006d00"/><path id="1" d="m602.37 644.06c0 0 70.86 106.3 70.86 106.3 0 0 70.87-106.3 70.87-106.3" stroke="#000" stroke-width="1.25" fill="none"/><path id="2" d="m602.37 502.33c0 0 70.866 106.3 70.866 106.3 0 0 70.866-106.3 70.866-106.3" stroke="#000" stroke-width="1.25" fill="none"/><path id="3" d="m602.37 396.03c0 0 70.866 88.58 70.866 88.58 0 0 70.866-88.58 70.866-88.58" stroke="#000" stroke-width="1.25" fill="none"/><path id="4" d="m673.23 325.16v720.12" stroke="#000" stroke-width="1.25" fill="none"/><path id="5" d="m602.37 449.18c0 0 70.866 88.58 70.866 88.58 0 0 70.866-88.58 70.866-88.58" stroke="#000" stroke-width="1.25" fill="none"/><use id="6" xlink:href="#8"/><path id="8" d="m602.37 573.19c0 0 70.866 106.3 70.866 106.3 0 0 70.866-106.3 70.866-106.3" stroke="#000" stroke-width="1.25" fill="none"/><path id="9" d="m620.08 342.88c0 0 53.15 106.3 53.15 106.3 0 0 53.15-106.3 53.15-106.3" stroke="#000" stroke-width="1.25" fill="none"/><clipPath id="7"><path d="m0 0h682.67v512h-682.67z"/></clipPath></defs><g clip-path="url(#7)" transform="scale(.9375)"><g fill-rule="evenodd"><path fill="#fff" d="m0 0h1024v512h-1024z"/><g fill="#000063"><path d="m1024 445.24c-11.474 6.903-21.332 23.04-51.814 23.04-60.947 0-76.19-33.965-121.9-33.965-30.474 0-45.712 33.965-76.19 33.965-60.952 0-76.19-33.965-121.9-33.965-30.477 0-45.715 33.965-76.19 33.965-60.952 0-76.19-33.965-121.9-33.965-30.477 0-45.715 33.965-76.19 33.965-60.952 0-76.19-33.965-121.9-33.965-30.478 0-45.715 33.965-76.19 33.965-60.952 0-76.19-33.965-121.91-33.965-30.476 0-39.619 24.2-57.905 24.2v43.727c18.286 0 27.428-24.2 57.905-24.2 45.715 0 60.955 33.96 121.9 33.96 30.476 0 45.713-33.965 76.19-33.965 45.713 0 60.952 33.965 121.9 33.965 30.476 0 45.714-33.965 76.19-33.965 45.714 0 60.952 33.965 121.9 33.965 30.476 0 45.714-33.965 76.19-33.965 45.714 0 60.952 33.965 121.9 33.965 30.476 0 45.714-33.965 76.19-33.965 45.715 0 60.956 33.965 121.9 33.965 30.482 0 40.34-9.625 51.814-16.528v-50.24z"/><path d="m1024 360.32c-11.474 6.903-21.332 23.04-51.814 23.04-60.947 0-76.19-33.965-121.9-33.965-30.474 0-45.712 33.965-76.19 33.965-60.952 0-76.19-33.965-121.9-33.965-30.477 0-45.715 33.965-76.19 33.965-60.952 0-76.19-33.965-121.9-33.965-30.477 0-45.715 33.965-76.19 33.965-60.952 0-76.19-33.965-121.9-33.965-30.478 0-45.715 33.965-76.19 33.965-60.952 0-76.19-33.965-121.91-33.965-30.476 0-39.619 24.2-57.905 24.2v43.727c18.286.01 27.428-24.2 57.905-24.2 45.714 0 60.953 33.965 121.91 33.965 30.476 0 45.713-33.965 76.19-33.965 45.713 0 60.952 33.965 121.9 33.965 30.476 0 45.714-33.965 76.19-33.965 45.714 0 60.952 33.965 121.9 33.965 30.476 0 45.714-33.965 76.19-33.965 45.714 0 60.952 33.965 121.9 33.965 30.476 0 45.714-33.965 76.19-33.965 45.715 0 60.956 33.965 121.9 33.965 30.482 0 40.34-9.625 51.814-16.528v-50.24z"/><path d="m1024 275.41c-11.474 6.903-21.332 23.04-51.814 23.04-60.947 0-76.19-33.965-121.9-33.965-30.474 0-45.712 33.965-76.19 33.965-60.952 0-76.19-33.965-121.9-33.965-30.477 0-45.715 33.965-76.19 33.965-60.952 0-76.19-33.965-121.9-33.965-30.477 0-45.715 33.965-76.19 33.965-60.952 0-76.19-33.965-121.9-33.965-30.478 0-45.715 33.965-76.19 33.965-60.952 0-76.19-33.965-121.91-33.965-30.476 0-39.619 24.2-57.905 24.2v43.727c18.286 0 27.428-24.2 57.905-24.2 45.714 0 60.953 33.965 121.91 33.965 30.476 0 45.713-33.965 76.19-33.965 45.713 0 60.952 33.965 121.9 33.965 30.476 0 45.714-33.965 76.19-33.965 45.714 0 60.952 33.965 121.9 33.965 30.476 0 45.714-33.965 76.19-33.965 45.714 0 60.952 33.965 121.9 33.965 30.476 0 45.714-33.965 76.19-33.965 45.715 0 60.956 33.965 121.9 33.965 30.482 0 40.34-9.625 51.814-16.528v-50.24z"/><path d="m1024 190.5c-11.474 6.903-21.332 23.03-51.814 23.03-60.947 0-76.19-33.965-121.9-33.965-30.474 0-45.712 33.965-76.19 33.965-60.952 0-76.19-33.965-121.9-33.965-30.477 0-45.715 33.965-76.19 33.965-60.952 0-76.19-33.965-121.9-33.965-30.477 0-45.715 33.965-76.19 33.965-60.952 0-76.19-33.965-121.9-33.965-30.478 0-45.715 33.965-76.19 33.965-60.952 0-76.19-33.965-121.91-33.965-30.476 0-39.619 24.2-57.905 24.2v43.727c18.286 0 27.428-24.2 57.905-24.2 45.714 0 60.953 33.965 121.91 33.965 30.476 0 45.713-33.965 76.19-33.965 45.713 0 60.952 33.965 121.9 33.965 30.476 0 45.714-33.965 76.19-33.965 45.714 0 60.952 33.965 121.9 33.965 30.476 0 45.714-33.965 76.19-33.965 45.714 0 60.952 33.965 121.9 33.965 30.476 0 45.714-33.965 76.19-33.965 45.715 0 60.956 33.965 121.9 33.965 30.482 0 40.34-9.625 51.814-16.528v-50.23"/><path d="m1024 105.59c-11.474 6.903-21.332 23.03-51.814 23.03-60.947 0-76.19-33.965-121.9-33.965-30.474 0-45.712 33.965-76.19 33.965-60.952 0-76.19-33.965-121.9-33.965-30.477 0-45.715 33.965-76.19 33.965-60.952 0-76.19-33.965-121.9-33.965-30.477 0-45.715 33.965-76.19 33.965-60.952 0-76.19-33.965-121.9-33.965-30.478 0-45.715 33.965-76.19 33.965-60.952 0-76.19-33.965-121.91-33.965-30.491-.002-39.634 24.2-57.92 24.2v43.727c18.286 0 27.428-24.2 57.905-24.2 45.714 0 60.953 33.965 121.91 33.965 30.476 0 45.713-33.965 76.19-33.965 45.713 0 60.952 33.965 121.9 33.965 30.476 0 45.714-33.965 76.19-33.965 45.714 0 60.952 33.965 121.9 33.965 30.476 0 45.714-33.965 76.19-33.965 45.714 0 60.952 33.965 121.9 33.965 30.476 0 45.714-33.965 76.19-33.965 45.715 0 60.956 33.965 121.9 33.965 30.482 0 40.34-9.625 51.814-16.528v-50.23z"/><path d="m1024 20.675c-11.474 6.903-21.332 23.04-51.814 23.04-60.947 0-76.19-33.965-121.9-33.965-30.474 0-45.712 33.965-76.19 33.965-60.952 0-76.19-33.965-121.9-33.965-30.477 0-45.715 33.965-76.19 33.965-60.952 0-76.19-33.965-121.9-33.965-30.477 0-45.715 33.965-76.19 33.965-60.952 0-76.19-33.965-121.9-33.965-30.478 0-45.715 33.965-76.19 33.965-60.952 0-76.19-33.965-121.91-33.965-30.491 0-39.634 24.2-57.92 24.2v43.727c18.286 0 27.428-24.2 57.905-24.2 45.714 0 60.953 33.965 121.91 33.965 30.476 0 45.713-33.965 76.19-33.965 45.713 0 60.952 33.965 121.9 33.965 30.476 0 45.714-33.965 76.19-33.965 45.714 0 60.952 33.965 121.9 33.965 30.476 0 45.714-33.965 76.19-33.965 45.714 0 60.952 33.965 121.9 33.965 30.476 0 45.714-33.965 76.19-33.965 45.715 0 60.956 33.965 121.9 33.965 30.482 0 40.34-9.625 51.814-16.528v-50.23z"/><path stroke-width="1.25" d="m0 .063h261.31v157.91h-261.31z"/></g></g><g stroke-width="1.25" transform="matrix(4.3552 0 0 5.2635 0 .063)"><g fill="#fff"><path d="m0 0v3.354l53.29 26.646h6.708v-3.354l-53.29-26.646h-6.708m60 0v3.354l-53.29 26.646h-6.708v-3.354l53.29-26.646h6.708"/><path d="m25 0v30h10v-30h-10m-25 10v10h60v-10h-60"/></g><g fill="#c00"><path d="m0 12v6h60v-6h-60m27-12v30h6v-30h-6"/><path d="m0 30l20-10h4.472l-20 10h-4.472m0-30l20 10h-4.472l-15.528-7.764v-2.236m35.528 10l20-10h4.472l-20 10h-4.472m24.472 20l-20-10h4.472l15.528 7.764v2.236"/></g></g><g transform="matrix(1.0321 0 0 1.0321-382-15.937)"><path d="m814.96-301.18l-17.72 708.66c0 37.3 80.1 37.3 88.58 0l-17.717-708.66h-53.15z" fill-rule="evenodd" transform="matrix(.2 0 0 .475 575.17 274.56)" stroke="#fff" stroke-width="6.935" fill="#a24300"/><g transform="matrix(.7252 0 0 .6231 202.06 41.43)"><g transform="matrix(-.31451.10485-.13829-.30324 1046.5 373.32)"><use transform="translate(177.17-224.05)" xlink:href="#0"/><use xlink:href="#4"/><use xlink:href="#1"/><use xlink:href="#8"/><use xlink:href="#2"/><use xlink:href="#5"/><use xlink:href="#3"/><use xlink:href="#9"/></g><g transform="matrix(.23652-.28186.29496.22762 354.57 204.65)"><use transform="translate(177.17-224.05)" xlink:href="#0"/><use xlink:href="#4"/><use xlink:href="#1"/><use xlink:href="#8"/><use xlink:href="#2"/><use xlink:href="#5"/><use xlink:href="#3"/><use xlink:href="#9"/></g><g transform="matrix(.15164.33524-.3329.16731 907.54-153.47)"><use transform="translate(177.17-224.05)" xlink:href="#0"/><use xlink:href="#4"/><use xlink:href="#1"/><use xlink:href="#6"/><use xlink:href="#2"/><use xlink:href="#5"/><use xlink:href="#3"/><use xlink:href="#9"/></g><g transform="matrix(-.20952.30246-.3147-.19945 1141.4 167.58)"><use transform="translate(177.17-224.05)" xlink:href="#0"/><use xlink:href="#4"/><use xlink:href="#1"/><use xlink:href="#6"/><use xlink:href="#2"/><use xlink:href="#5"/><use xlink:href="#3"/><use id="D" xlink:href="#9"/></g><g transform="matrix(-.20772-.25838.23618-.23515 689.99 567.28)"><use transform="translate(177.17-224.05)" xlink:href="#0"/><use xlink:href="#4"/><use xlink:href="#1"/><use xlink:href="#6"/><use xlink:href="#2"/><use xlink:href="#5"/><use xlink:href="#3"/><use xlink:href="#D"/></g><g transform="matrix(-.36218-.09947-.20981.31773 1222.4-24.23)"><path d="m460.63 549.21l28.643 70.866 42.22-53.15-10.184 88.58 27.9-35.433-17.716 88.58 25.25-35.433-25.25 88.58 35.433-35.433-35.433 106.3 35.433-35.433-35.433 106.3 35.433-35.433-35.433 106.3-17.716 53.15-17.717 17.72-17.717-17.72-17.716-53.15-35.433-106.3 35.433 35.433-35.433-106.3 35.433 35.433-35.433-106.3 35.433 35.433-45.617-88.58 45.617 35.433-53.15-88.58 42.966 35.433-25.25-88.58 35.433 53.15v-70.866z" fill-rule="evenodd" transform="translate(283.46-124.02)" stroke="#fff" stroke-width="8.25" fill="#006d00" id="E"/><path d="m750.67 460.63c0 0 28.855 124.02 28.855 124.02v460.64" stroke="#000" stroke-width="1.25" fill="none" id="F"/><path d="m719.69 761.81c0 0 59.833 88.58 59.833 88.58 0 0 60.682-88.58 60.682-88.58" stroke="#000" stroke-width="1.25" fill="none" id="G"/><path d="m717.99 690.94c0 0 61.53 88.58 61.53 88.58 0 0 60.682-88.58 60.682-88.58" stroke="#000" stroke-width="1.25" fill="none" id="H"/><path d="m718.84 620.08c0 0 60.682 88.58 60.682 88.58 0 0 59.833-88.58 59.833-88.58" stroke="#000" stroke-width="1.25" fill="none" id="I"/><path d="m716.3 566.92c0 0 63.23 70.866 63.23 70.866 0 0 53.15-70.866 53.15-70.866" stroke="#000" stroke-width="1.25" fill="none" id="J"/><path d="m708.66 513.78c0 0 70.866 70.865 70.866 70.865 0 0 45.41-70.865 45.41-70.865" stroke="#000" stroke-width="1.25" fill="none" id="K"/><path d="m719.58 469.22c0 0 53.15 86.89 53.15 86.89 0 0 35.33-95.48 35.33-95.48" stroke="#000" stroke-width="1.25" fill="none" id="L"/></g><g transform="matrix(.36088.10411.01321.38052 452.76-239.27)"><use xlink:href="#E"/><use xlink:href="#F"/><use xlink:href="#G"/><use xlink:href="#H"/><use xlink:href="#I"/><use xlink:href="#J"/><use xlink:href="#K"/><use xlink:href="#L"/></g><g transform="matrix(.04613-.36474.32602.0648 379.58 479.54)"><g transform="translate(442.91-42.966)"><path d="m354.33 531.5l88.58 88.58 17.716-53.15v88.58l35.433-35.433-17.716 88.58 35.432-35.434-17.716 88.58 35.433-35.433-17.716 106.3 35.433-35.433-35.433 106.3 35.433-35.433-17.717 106.3-17.716 53.15-17.717 17.72-17.717-17.72-17.716-53.15-53.15-82.29 35.434 11.429-35.433-106.3 35.433 35.433-53.15-106.3 35.433 35.433-53.15-88.58 53.15 35.434-70.866-88.58 53.15 35.433-70.866-70.866 70.866 35.433-53.15-88.58z" fill-rule="evenodd" stroke="#fff" stroke-width="8.25" fill="#006d00"/><path d="m378.96 560.02l63.952 95.5 17.716 53.15 8.859 45.21 8.858 78.81 9.315 70.866 8.401 141.74" stroke="#000" stroke-width="1.25" fill="none"/></g><g fill="none" stroke="#000" stroke-width="1.25"><path d="m868.11 860.57c0 0 63.67 70.866 63.67 70.866 0 0 50.749-88.58 50.749-88.58"/><path d="m859.99 771.99c0 0 70.58 88.58 70.58 88.58 0 0 50.75-88.58 50.75-88.58"/><path d="m850.39 709.47c0 0 70.867 80.24 70.867 80.24 0 0 45.948-88.58 45.948-88.58"/><path d="m814.96 594.83c0 0 88.58 70.866 88.58 70.866 0 0 25.831-70.866 25.831-70.866"/><path d="m803.53 559.39c0 0 82.3 53.15 82.3 53.15 0 0 10.515-53.15 10.515-53.15"/><path d="m832.67 647.97c0 0 81.1 70.866 81.1 70.866 0 0 33.946-70.866 33.946-70.866"/></g></g></g></g><g fill-rule="evenodd" transform="matrix(.13659 0 0 .12573 266.36 208.19)"><g stroke="#000" stroke-width="1.25"><path d="m541.46 1173.3l-1.7-229.13-61.1-106.94c-15.277-52.618-7.754-78.08 16.973-79.78 24.728-1.698 49.22 13.579 84.87 15.276 35.645 1.697 28.856-59.41 81.47-57.71 52.618 1.697 144.28 32.25 222.36 37.34 78.08 5.092 118.81-27.16 208.77-30.553 89.97-3.395 113.73 42.43 118.82 42.43s30.55-18.672 56.01-22.07c25.46-3.395 33.95 10.184 33.95 10.184s-1.7 57.71-13.58 91.66c-11.88 33.948-54.32 89.96-56.01 89.96-1.7 0-15.28 249.52-15.28 251.21 0 1.7-675.55-6.79-675.55-11.88z" fill="#c00"/><g transform="matrix(-1 0 0 1 1771.7 354.33)"><path d="m531.5 584.65s-67.982-52.1-69.813-177.17c-1.053-71.929 34.38-124.02 122.96-124.02 124.02 0 301.18 53.15 301.18 53.15v17.717s-141.73-53.15-301.18-53.15c-70.866 0-106.3 52.09-106.3 105.24 0 88.58 70.867 178.23 70.867 178.23v141.73h-17.717v-141.73z" fill="#fff100"/><g fill="#fff"><path d="m494.37 547.51c0 9.785-7.932 17.717-17.717 17.717-9.785 0-17.717-7.932-17.717-17.717 0-9.785 7.932-17.717 17.717-17.717 9.785 0 17.717 7.932 17.717 17.717z"/><path d="m476.65 506.99c0 9.785-7.932 17.717-17.717 17.717-9.785 0-17.717-7.932-17.717-17.717 0-9.785 7.932-17.717 17.717-17.717 9.785 0 17.717 7.932 17.717 17.717z"/><path d="m467.42 465.72c0 9.785-7.932 17.717-17.717 17.717-9.785 0-17.717-7.932-17.717-17.717 0-9.785 7.932-17.717 17.717-17.717 9.785 0 17.717 7.932 17.717 17.717z"/><path d="m460.63 421.59c0 9.785-7.932 17.717-17.717 17.717-9.785 0-17.717-7.932-17.717-17.717 0-9.785 7.932-17.717 17.717-17.717 9.785 0 17.717 7.932 17.717 17.717z"/><path d="m462.33 373.74c0 9.785-7.932 17.717-17.717 17.717-9.785 0-17.717-7.932-17.717-17.717 0-9.785 7.932-17.717 17.717-17.717 9.785 0 17.717 7.932 17.717 17.717z"/><path d="m519.83 583.16c0 9.785-7.932 17.717-17.717 17.717-9.785 0-17.717-7.932-17.717-17.717 0-9.785 7.932-17.717 17.717-17.717 9.785 0 17.717 7.932 17.717 17.717z"/><path d="m477.4 328.55c0 9.785-7.932 17.717-17.717 17.717-9.785 0-17.717-7.932-17.717-17.717 0-9.785 7.932-17.717 17.717-17.717 9.785 0 17.717 7.932 17.717 17.717z"/><path d="m509.65 292.91c0 9.785-7.932 17.717-17.717 17.717-9.785 0-17.717-7.932-17.717-17.717 0-9.785 7.932-17.717 17.717-17.717 9.785 0 17.717 7.932 17.717 17.717z"/><path d="m553.78 269.15c0 9.785-7.932 17.717-17.717 17.717-9.785 0-17.717-7.932-17.717-17.717 0-9.785 7.932-17.717 17.717-17.717 9.785 0 17.717 7.932 17.717 17.717z"/><path d="m597.91 265.75c0 9.785-7.932 17.717-17.717 17.717-9.785 0-17.717-7.932-17.717-17.717 0-9.785 7.932-17.717 17.717-17.717 9.785 0 17.717 7.932 17.717 17.717z"/><path d="m645.43 267.45c0 9.785-7.932 17.717-17.717 17.717-9.785 0-17.717-7.932-17.717-17.717 0-9.785 7.932-17.717 17.717-17.717 9.785 0 17.717 7.932 17.717 17.717z"/><path d="m692.96 274.24c0 9.785-7.932 17.717-17.717 17.717-9.785 0-17.717-7.932-17.717-17.717 0-9.785 7.932-17.717 17.717-17.717 9.785 0 17.717 7.932 17.717 17.717z"/><path d="m740.49 281.03c0 9.785-7.932 17.717-17.717 17.717-9.785 0-17.717-7.932-17.717-17.717 0-9.785 7.932-17.717 17.717-17.717 9.785 0 17.717 7.932 17.717 17.717z"/><path d="m791.41 289.51c0 9.785-7.932 17.717-17.717 17.717-9.785 0-17.717-7.932-17.717-17.717 0-9.785 7.932-17.717 17.717-17.717 9.785 0 17.717 7.932 17.717 17.717z"/><path d="m835.54 301.4c0 9.785-7.932 17.717-17.717 17.717-9.785 0-17.717-7.932-17.717-17.717 0-9.785 7.932-17.717 17.717-17.717 9.785 0 17.717 7.932 17.717 17.717z"/></g></g><g fill="#fff"><path d="m494.37 901.84c0 9.785-7.932 17.717-17.717 17.717-9.785 0-17.717-7.932-17.717-17.717 0-9.785 7.932-17.717 17.717-17.717 9.785 0 17.717 7.932 17.717 17.717z"/><path d="m476.65 861.32c0 9.785-7.932 17.717-17.717 17.717-9.785 0-17.717-7.932-17.717-17.717 0-9.785 7.932-17.717 17.717-17.717 9.785 0 17.717 7.932 17.717 17.717z"/><path d="m467.42 820.05c0 9.785-7.932 17.717-17.717 17.717-9.785 0-17.717-7.932-17.717-17.717 0-9.785 7.932-17.717 17.717-17.717 9.785 0 17.717 7.932 17.717 17.717z"/><path d="m460.63 775.92c0 9.785-7.932 17.717-17.717 17.717-9.785 0-17.717-7.932-17.717-17.717 0-9.785 7.932-17.717 17.717-17.717 9.785 0 17.717 7.932 17.717 17.717z"/><path d="m462.33 728.07c0 9.785-7.932 17.717-17.717 17.717-9.785 0-17.717-7.932-17.717-17.717 0-9.785 7.932-17.717 17.717-17.717 9.785 0 17.717 7.932 17.717 17.717z"/><path d="m477.4 682.88c0 9.785-7.932 17.717-17.717 17.717-9.785 0-17.717-7.932-17.717-17.717 0-9.785 7.932-17.717 17.717-17.717 9.785 0 17.717 7.932 17.717 17.717z"/><path d="m509.65 647.24c0 9.785-7.932 17.717-17.717 17.717-9.785 0-17.717-7.932-17.717-17.717 0-9.785 7.932-17.717 17.717-17.717 9.785 0 17.717 7.932 17.717 17.717z"/><path d="m553.78 623.48c0 9.785-7.932 17.717-17.717 17.717-9.785 0-17.717-7.932-17.717-17.717 0-9.785 7.932-17.717 17.717-17.717 9.785 0 17.717 7.932 17.717 17.717z"/><path d="m597.91 620.08c0 9.785-7.932 17.717-17.717 17.717-9.785 0-17.717-7.932-17.717-17.717 0-9.785 7.932-17.717 17.717-17.717 9.785 0 17.717 7.932 17.717 17.717z"/><path d="m645.43 621.78c0 9.785-7.932 17.717-17.717 17.717-9.785 0-17.717-7.932-17.717-17.717 0-9.785 7.932-17.717 17.717-17.717 9.785 0 17.717 7.932 17.717 17.717z"/><path d="m692.96 628.57c0 9.785-7.932 17.717-17.717 17.717-9.785 0-17.717-7.932-17.717-17.717 0-9.785 7.932-17.717 17.717-17.717 9.785 0 17.717 7.932 17.717 17.717z"/><path d="m740.49 635.36c0 9.785-7.932 17.717-17.717 17.717-9.785 0-17.717-7.932-17.717-17.717 0-9.785 7.932-17.717 17.717-17.717 9.785 0 17.717 7.932 17.717 17.717z"/><path d="m791.41 643.84c0 9.785-7.932 17.717-17.717 17.717-9.785 0-17.717-7.932-17.717-17.717 0-9.785 7.932-17.717 17.717-17.717 9.785 0 17.717 7.932 17.717 17.717z"/><path d="m835.54 655.73c0 9.785-7.932 17.717-17.717 17.717-9.785 0-17.717-7.932-17.717-17.717 0-9.785 7.932-17.717 17.717-17.717 9.785 0 17.717 7.932 17.717 17.717z"/><path d="m519.83 937.49c0 9.785-7.932 17.717-17.717 17.717-9.785 0-17.717-7.932-17.717-17.717 0-9.785 7.932-17.717 17.717-17.717 9.785 0 17.717 7.932 17.717 17.717z"/></g><path d="m531.5 938.98s-67.982-52.1-69.813-177.17c-1.053-71.929 34.38-124.02 122.96-124.02 124.02 0 301.18 53.15 301.18 53.15v-336.61s-141.73 301.18-301.18 301.18c-70.866 0-106.3 52.09-106.3 105.24 0 88.58 70.867 178.23 70.867 178.23v-212.6h-17.717v-141.73z" fill="#fff100"/></g><path d="m1240.2 531.5s15.35-35.433 70.86-35.433c37.79 0 70.87 35.433 70.87 70.866v70.866h35.43v-70.866c0-35.47 35.44-70.866 70.87-70.866 53.15 0 70.87 35.433 70.87 35.433s0-106.3-70.87-106.3c-53.15 0-70.87 35.433-70.87 35.433s17.72-53.15 17.72-106.3-35.43-88.58-35.43-88.58c0 6.79-35.44 35.433-35.44 88.58 0 53.15 17.72 106.3 17.72 106.3s-17.72-35.433-70.87-35.433c-70.86 0-70.86 106.3-70.86 106.3z" transform="matrix(.33333 0 0 .38095 242.13 802.31)" stroke="#000" stroke-width="2.992" fill="#fff100" id="A"/><use transform="translate(354.33)" xlink:href="#A"/><g stroke="#000" stroke-width="1.25"><g fill="#fff100"><path d="m531.5 1187.01v-513.78s35.433 407.48 88.58 407.48c43.489 0 88.58-70.866 88.58-70.866s41.515 53.15 88.58 53.15c42.02 0 88.52-68.57 88.52-68.57s43.21 68.57 88.65 68.57c45.44 0 88.58-53.15 88.58-53.15s46.29 70.866 106.3 70.866c53.15 0 70.87-53.15 70.87-53.15v-194.88h-708.66z"/><path d="m531.49 1187.01v-478.35s-70.87 389.76-70.87 478.35h70.87z"/><path d="m1240.14 1187.01v-478.35s425.18 389.76 425.18 478.35h-425.18z"/><path d="m602.36 1187.01c0-88.58 106.37-144.6 106.37-144.6s106.23 56.02 106.23 144.6h-212.6z"/><path d="m956.69 1187.01c0-88.58 106.37-144.6 106.37-144.6s106.23 56.02 106.23 144.6h-566.93z"/><path d="m761.81 1187.01c0-88.58 124.08-159.45 124.08-159.45s123.95 70.866 123.95 159.45h-425.19z"/></g><path d="m1275.6 655.51c-35.43-17.716-166.02-35.433-376.28-35.433s-350.1 17.717-385.53 35.433c-35.434 17.717-35.434 53.15-.001 70.866 35.433 17.716 175.28 35.433 385.54 35.433s340.84-17.716 376.28-35.433c35.43-17.716 35.43-53.15 0-70.866z" transform="matrix(.98876 0 0 1-3.385 531.5)" fill="#fff"/></g><path d="m1240.18 1257.87c0 35.433-294.72 35.433-354.33 35.433-64.41 0-354.33 9.602-354.33-35.433 0-35.433 292.32-35.433 354.33-35.433 62.01.001 354.33 7.202 354.33 35.433" stroke-width="1.161" fill="#808080"/><g fill="#c00"><path d="m566.93 1130.61c0 11.58-7.932 20.967-17.717 20.967-9.785 0-17.717-9.387-17.717-20.967s7.932-20.967 17.717-20.967c9.785 0 17.717 9.387 17.717 20.967"/><path d="m1240.16 1130.61c0 11.58-7.932 20.967-17.717 20.967-9.785 0-17.717-9.387-17.717-20.967s7.932-20.967 17.717-20.967c9.785 0 17.717 9.387 17.717 20.967"/></g><path d="m921.26 1119.4c0 11.58-15.864 20.967-35.434 20.967-19.569 0-35.434-9.387-35.434-20.967s15.864-20.967 35.434-20.967c19.569 0 35.434 9.387 35.434 20.967" stroke-width="2"/><g fill="#006300" stroke-width="1.5"><path d="m1091.22 1119.4c0 11.58-11.898 20.967-26.575 20.967-14.677 0-26.576-9.387-26.576-20.967s11.898-20.967 26.576-20.967c14.677 0 26.575 9.387 26.575 20.967"/><path d="m726.38 1119.4c0 11.58-11.898 20.967-26.576 20.967-14.677 0-26.576-9.387-26.576-20.967s11.898-20.967 26.576-20.967c14.677 0 26.576 9.387 26.576 20.967"/></g><path d="m1257.9 496.06s35.44-53.15 70.87-53.15h35.43v35.433c0 53.15-53.15 70.867-53.15 70.867h141.74s-53.15-17.717-53.15-70.867v-35.433h35.43c35.43 0 70.87 53.15 70.87 53.15v-141.73s-35.44 53.15-70.87 53.15h-35.43v-35.433c0-53.15 53.15-70.867 53.15-70.867h-141.74s53.15 17.717 53.15 70.867v35.433h-35.43c-35.43 0-70.87-53.15-70.87-53.15v141.73z" transform="matrix(.57141 0 0 .57143 96.2 713.72)" stroke="#000" stroke-width="2.188" fill="#fff100" id="B"/><path d="m1381.9 549.21h70.87s-53.15-17.717-53.15-70.867v-35.433h35.43c35.43 0 70.87 53.15 70.87 53.15v-141.73s-35.44 53.15-70.87 53.15h-35.43v-35.433c0-53.15 53.15-70.867 53.15-70.867h-70.87v248.03z" transform="matrix(.28571 0 0 .5 136.68 788.39)" stroke="#000" stroke-width="3.307" fill="#fff100" id="C"/><use transform="matrix(-1 0 0 1 1771.68 0)" xlink:href="#C"/><path d="m903.54 956.69c0 9.785-7.932 17.717-17.717 17.717-9.785 0-17.717-7.932-17.717-17.717 0-9.785 7.932-17.717 17.717-17.717 9.785 0 17.717 7.932 17.717 17.717z" stroke="#000" stroke-width="1.25" fill="#fff"/><use transform="translate(.003-372.04)" xlink:href="#B"/><g stroke="#000" stroke-width="1.25"><path d="m905.24 587.62c0 9.785-7.932 17.717-17.717 17.717-9.785 0-17.717-7.932-17.717-17.717 0-9.785 7.932-17.717 17.717-17.717 9.785 0 17.717 7.932 17.717 17.717z" fill="#fff"/><g fill="#fff100"><path d="m850.39 655.51h70.866v53.15h-70.866z"/><path d="m850.39 683.3h70.866v202.53h-70.866z"/></g><g fill="#fff"><path d="m903.55 850.39c0 9.785-7.932 17.717-17.717 17.717-9.785 0-17.717-7.932-17.717-17.717 0-9.785 7.932-17.717 17.717-17.717 9.785 0 17.717 7.932 17.717 17.717z"/><path d="m903.55 804.56c0 9.785-7.932 17.717-17.717 17.717-9.785 0-17.717-7.932-17.717-17.717 0-9.785 7.932-17.717 17.717-17.717 9.785 0 17.717 7.932 17.717 17.717z"/><path d="m903.55 761.81c0 9.785-7.932 17.717-17.717 17.717-9.785 0-17.717-7.932-17.717-17.717 0-9.785 7.932-17.717 17.717-17.717 9.785 0 17.717 7.932 17.717 17.717z"/><path d="m903.55 717.68c0 9.785-7.932 17.717-17.717 17.717-9.785 0-17.717-7.932-17.717-17.717 0-9.785 7.932-17.717 17.717-17.717 9.785 0 17.717 7.932 17.717 17.717z"/></g></g><path d="m923.46 1187.4c0 7.954-16.12 14.403-36.01 14.403-19.886 0-36.01-6.448-36.01-14.403 0-7.954 16.12-14.403 36.01-14.403 19.886 0 36.01 6.448 36.01 14.403"/><path d="m1249.76 1222.56c-1.992 5.453-19.53 5.907-39.17 1.014-19.642-4.893-33.949-13.28-31.957-18.734 1.992-5.453 19.53-5.907 39.17-1.014 19.642 4.893 33.949 13.28 31.957 18.734" stroke-width="1.019"/><path d="m1113.38 1198.67c-.788 7.02-17.855 11.456-38.12 9.918-20.264-1.538-36.05-8.472-35.26-15.487.788-7.02 17.855-11.456 38.12-9.918 20.264 1.538 36.05 8.472 35.26 15.487" stroke-width="1.024"/><path d="m514 1222.56c1.992 5.453 19.53 5.907 39.17 1.014 19.642-4.893 33.949-13.28 31.957-18.734-1.992-5.453-19.53-5.907-39.17-1.014-19.642 4.893-33.949 13.28-31.957 18.734" stroke-width="1.019"/><path d="m657.21 1195.28c.788 7.02 17.855 11.456 38.12 9.918 20.264-1.538 36.05-8.472 35.26-15.487-.788-7.02-17.855-11.456-38.12-9.918-20.264 1.538-36.05 8.472-35.26 15.487" stroke-width="1.024"/></g></g></svg>