<svg xmlns="http://www.w3.org/2000/svg" viewBox="0 0 900 600" enable-background="new 0 0 900 600"><path d="m0 0h900v600h-900z"/><path fill="#fff" d="m0 0h900v400h-900z"/><path fill="#ce1126" d="m0 0h900v200h-900z"/><g fill="#007a3d"><path d="m273.65 374.3l-5.173-5.676 5.22-5.625 5.22-5.625 5.173 5.676 5.173 5.677-5.22 5.625-5.22 5.625-5.166-5.687-.007.01m-35.507-2.86c-1.86-.739-4.878-3.174-6.857-5.527-3.729-4.437-4.578-6.507-2.073-5.05 3.736 2.176 11.135 3.589 13.768 2.636 9.713-3.528 11.921-17.629 4.165-26.574-1.522-1.754-2.768-3.793-2.768-4.532 0-.739 1.619-2.121 3.595-3.071 2.768-1.331 4.121-2.782 5.893-6.32 1.797-3.592 2.536-4.376 3.4-3.596 1.234 1.113 5.401 11.928 5.401 14.02 0 1.103 1.506 1.345 8.323 1.345h8.323l-1.299-3.392c-.714-1.863-1.891-4.372-2.615-5.574-1.171-1.948-1.177-2.292-.053-3.163.692-.538 2.997-2.302 5.123-3.919 2.123-1.617 4.108-3.65 4.406-4.519.736-2.152 5.339-8.36 6.194-8.36.379 0 .692 6.507.692 14.462v14.462h103.9v-41.43l-2.89-1.944-2.89-1.944-2.928 2.428-2.928 2.428v29.615h-43.638c-24 0-43.64-.163-43.64-.361 0-.317 21.715-32.21 24.37-35.795.551-.746 1.916-2.779 3.03-4.519 1.115-1.74 2.251-3.368 2.521-3.616.276-.249 1.4-1.876 2.508-3.616 1.105-1.74 2.395-3.64 2.868-4.219.473-.582 8.338-12.05 17.481-25.481s16.896-24.449 17.234-24.48c.335-.031.811 1.066 1.058 2.431 1.371 7.566 2.424 11.802 3.51 14.13 1.39 2.98.576 4.093-3.097 4.216-1.738.058-5.743 5.404-24.52 32.741-12.343 17.969-22.567 32.993-22.72 33.388s10.975.719 24.727.719h25.01l.013-9.718c.006-5.343.288-10.137.623-10.651 1.569-2.404 18.1-14.966 19.254-14.632.717.208 5.138 3.552 9.826 7.43l8.52 7.06v60.29h-144.38l-1.45 5.83c-1.741 6.987-4.587 12.03-8.41 14.874-3.632 2.656-11.805 3.405-16.595 1.498l.022.005m179.95-69.16c0-32.816.272-47.15.902-47.577.495-.334 2.646 1.383 4.778 3.814s5.934 6.337 8.451 8.676c3.97 3.698 4.384 4.379 3.159 5.19-4.093 2.704-3.989 1.852-3.989 33.05v29.31h7.956c7.06 0 8.37-.262 11.636-2.346 4.055-2.585 4.324-2.244 2.317 2.915-.751 1.924-1.591 5.738-1.872 8.472l-.507 4.972-16.417.245-16.414.245v-46.992.027"/><path d="m504.04 337.05c.435-13.216 1.691-17.7 6.15-21.957 3.432-3.276 8.342-4.829 14.03-4.43l4.255.3.257-5.407c.323-6.851-.247-9.296-2.342-10.02-2.514-.868-2-3.708 1.046-5.775 1.49-1.01 5.141-4.515 8.11-7.788 2.968-3.272 5.693-5.949 6.05-5.949s.651 13.07.651 29.04v29.04h11.679v-29.881c0-25.954-.172-30.07-1.312-31.31-.72-.783-1.66-1.427-2.085-1.427-1.872 0-.548-3.633 1.935-5.319 1.494-1.01 5.123-4.495 8.07-7.743 2.946-3.249 5.671-5.697 6.05-5.442.379.255.689 18.609.689 40.791v40.33h11.679v-82.59l-2.085-1.972c-1.146-1.083-2.085-2.465-2.085-3.068 0-.603 2.596-3.375 5.768-6.163 3.172-2.789 6.576-6.303 7.565-7.815 4.258-6.507 4.19-7.478 4.19 56.686v59.43h-88.64l.532-11.578-.148.013m24.831-8.853v-5.898h-3.272c-4.393 0-8.407 4.148-8.407 8.69v3.106h11.679v-5.891-.007m72.61-26.697c0-32.942.272-47.34.905-47.761.498-.334 2.658 1.389 4.797 3.831 2.142 2.442 5.956 6.361 8.479 8.711 3.986 3.712 4.402 4.396 3.172 5.21-4.108 2.714-4 1.863-4 33.18v29.428h8.151c7.393 0 8.445-.218 11.329-2.35 1.75-1.291 3.385-2.125 3.635-1.852s-.2 2.247-1 4.389c-.805 2.142-1.697 6.14-1.982 8.884l-.52 4.992-16.48.245-16.479.245v-47.16l.003.013m-65.69-49.37c-1.472-.586-3.163-1.624-3.754-2.305-.908-1.042-.457-1.144 2.843-.63 5.93.919 9.566-.174 12.872-3.882l2.909-3.255 4.04 1.56c2.223.858 4.546 1.348 5.166 1.09 1.603-.671 4.509-5.68 4.218-7.274-.354-1.944 1.287-1.648 2.301.412 1.991 4.045.329 9.177-3.476 10.74-1.863.766-3.664.787-6.682.085-3.707-.865-4.315-.773-5.94.882-3.632 3.712-9.174 4.699-14.497 2.588l-.002-.011m10.113-14.983c-2.01-1.492-6.253-9.136-6.413-11.567-.141-2.084.2-2.721 1.562-2.935 2.386-.371 3.488 1.355 5.323 8.339 1.503 5.721 1.346 7.526-.47 6.163h-.002"/></g></svg>