<svg xmlns="http://www.w3.org/2000/svg" viewBox="0 0 630 360" enable-background="new 0 0 630 360"><path fill="#da0000" d="m0 0h630v360h-630z"/><path fill="#fff" d="m0 0h630v240h-630z"/><path fill="#239f40" d="m0 0h630v120h-630z"/><g fill="none" stroke="#fff" stroke-width="2"><path d="m8.4 101.8h36.4m-35 12.6v-7h11.2v5.6h11.2v-5.6h-7m-11.2 5.6h2.8m28 0h-7v-5.6h11.2m0-7v12.6h11.2v-12.6m-5.6 0v12.6"/><path d="m8.4 120h25.2m2.8 0h25.2"/><path d="m8.4 240h25.2m2.8 0h25.2"/><path d="m8.4 247h36.4m-35 12.6v-7h11.2v5.6h11.2v-5.6h-7m-11.2 5.6h2.8m28 0h-7v-5.6h11.2m0-7v12.6h11.2v-12.6m-5.6 0v12.6"/><path d="m64.4 247h36.4m-35 12.6v-7h11.2v5.6h11.2v-5.6h-7m-11.2 5.6h2.8m28 0h-7v-5.6h11.2m0-7v12.6h11.2v-12.6m-5.6 0v12.6"/><path d="m64.4 240h25.2m2.8 0h25.2"/><path d="m64.4 101.8h36.4m-35 12.6v-7h11.2v5.6h11.2v-5.6h-7m-11.2 5.6h2.8m28 0h-7v-5.6h11.2m0-7v12.6h11.2v-12.6m-5.6 0v12.6"/><path d="m64.4 120h25.2m2.8 0h25.2"/><path d="m176.4 101.8h36.4m-35 12.6v-7h11.2v5.6h11.2v-5.6h-7m-11.2 5.6h2.8m28 0h-7v-5.6h11.2m0-7v12.6h11.2v-12.6m-5.6 0v12.6"/><path d="m176.4 120h25.2m2.8 0h25.2"/><path d="m176.4 247h36.4m-35 12.6v-7h11.2v5.6h11.2v-5.6h-7m-11.2 5.6h2.8m28 0h-7v-5.6h11.2m0-7v12.6h11.2v-12.6m-5.6 0v12.6"/><path d="m120.4 101.8h36.4m-35 12.6v-7h11.2v5.6h11.2v-5.6h-7m-11.2 5.6h2.8m28 0h-7v-5.6h11.2m0-7v12.6h11.2v-12.6m-5.6 0v12.6"/><path d="m120.4 120h25.2m2.8 0h25.2"/><path d="m120.4 240h25.2m2.8 0h25.2"/><path d="m120.4 247h36.4m-35 12.6v-7h11.2v5.6h11.2v-5.6h-7m-11.2 5.6h2.8m28 0h-7v-5.6h11.2m0-7v12.6h11.2v-12.6m-5.6 0v12.6"/><path d="m176.4 240h25.2m2.8 0h25.2"/><path d="m232.4 101.8h36.4m-35 12.6v-7h11.2v5.6h11.2v-5.6h-7m-11.2 5.6h2.8m28 0h-7v-5.6h11.2m0-7v12.6h11.2v-12.6m-5.6 0v12.6"/><path d="m232.4 120h25.2m2.8 0h25.2"/><path d="m232.4 240h25.2m2.8 0h25.2"/><path d="m232.4 247h36.4m-35 12.6v-7h11.2v5.6h11.2v-5.6h-7m-11.2 5.6h2.8m28 0h-7v-5.6h11.2m0-7v12.6h11.2v-12.6m-5.6 0v12.6"/><path d="m288.4 101.8h36.4m-35 12.6v-7h11.2v5.6h11.2v-5.6h-7m-11.2 5.6h2.8m28 0h-7v-5.6h11.2m0-7v12.6h11.2v-12.6m-5.6 0v12.6"/><path d="m288.4 120h25.2m2.8 0h25.2"/><path d="m288.4 240h25.2m2.8 0h25.2"/><path d="m288.4 247h36.4m-35 12.6v-7h11.2v5.6h11.2v-5.6h-7m-11.2 5.6h2.8m28 0h-7v-5.6h11.2m0-7v12.6h11.2v-12.6m-5.6 0v12.6"/><path d="m344.4 101.8h36.4m-35 12.6v-7h11.2v5.6h11.2v-5.6h-7m-11.2 5.6h2.8m28 0h-7v-5.6h11.2m0-7v12.6h11.2v-12.6m-5.6 0v12.6"/><path d="m344.4 120h25.2m2.8 0h25.2"/><path d="m344.4 240h25.2m2.8 0h25.2"/><path d="m344.4 247h36.4m-35 12.6v-7h11.2v5.6h11.2v-5.6h-7m-11.2 5.6h2.8m28 0h-7v-5.6h11.2m0-7v12.6h11.2v-12.6m-5.6 0v12.6"/><path d="m400.4 101.8h36.4m-35 12.6v-7h11.2v5.6h11.2v-5.6h-7m-11.2 5.6h2.8m28 0h-7v-5.6h11.2m0-7v12.6h11.2v-12.6m-5.6 0v12.6"/><path d="m400.4 120h25.2m2.8 0h25.2"/><path d="m400.4 240h25.2m2.8 0h25.2"/><path d="m400.4 247h36.4m-35 12.6v-7h11.2v5.6h11.2v-5.6h-7m-11.2 5.6h2.8m28 0h-7v-5.6h11.2m0-7v12.6h11.2v-12.6m-5.6 0v12.6"/><path d="m456.4 101.8h36.4m-35 12.6v-7h11.2v5.6h11.2v-5.6h-7m-11.2 5.6h2.8m28 0h-7v-5.6h11.2m0-7v12.6h11.2v-12.6m-5.6 0v12.6"/><path d="m456.4 120h25.2m2.8 0h25.2"/><path d="m456.4 240h25.2m2.8 0h25.2"/><path d="m456.4 247h36.4m-35 12.6v-7h11.2v5.6h11.2v-5.6h-7m-11.2 5.6h2.8m28 0h-7v-5.6h11.2m0-7v12.6h11.2v-12.6m-5.6 0v12.6"/><path d="m512.4 101.8h36.4m-35 12.6v-7h11.2v5.6h11.2v-5.6h-7m-11.2 5.6h2.8m28 0h-7v-5.6h11.2m0-7v12.6h11.2v-12.6m-5.6 0v12.6"/><path d="m512.4 120h25.2m2.8 0h25.2"/><path d="m512.4 240h25.2m2.8 0h25.2"/><path d="m512.4 247h36.4m-35 12.6v-7h11.2v5.6h11.2v-5.6h-7m-11.2 5.6h2.8m28 0h-7v-5.6h11.2m0-7v12.6h11.2v-12.6m-5.6 0v12.6"/><path d="m568.4 101.8h36.4m-35 12.6v-7h11.2v5.6h11.2v-5.6h-7m-11.2 5.6h2.8m28 0h-7v-5.6h11.2m0-7v12.6h11.2v-12.6m-5.6 0v12.6"/><path d="m568.4 120h25.2m2.8 0h25.2"/><path d="m568.4 247h36.4m-35 12.6v-7h11.2v5.6h11.2v-5.6h-7m-11.2 5.6h2.8m28 0h-7v-5.6h11.2m0-7v12.6h11.2v-12.6m-5.6 0v12.6"/></g><g fill="#da0000"><path d="m342.05 191.29c5.113-15.736.277-33-12.265-43.794 13.626 20.16 8.71 47.4-10.833 61.59l1.361-33.597v-26.45c-2.118-1.015-3.945-2.549-5.312-4.459-1.367 1.91-3.194 3.443-5.312 4.459v26.45l1.361 33.597c-19.544-14.19-24.46-41.42-10.833-61.59-12.542 10.791-17.378 28.06-12.265 43.794 3.451 10.621 10.826 18.865 19.995 23.667-5.6 2.046-11.584 2.974-17.612 2.684 7.07 2.299 14.317 2.561 21.11 1.129l.057 1.414 3.501 4.82 3.501-4.819.057-1.414c6.791 1.431 14.03 1.169 21.11-1.129-6.03.291-12.01-.638-17.612-2.684 9.169-4.802 16.544-13.05 19.995-23.668"/><path d="m355.39 162.8c-4.658-8.06-12.384-13.884-21.412-16.15 19.865 14.935 23.862 43.15 8.927 63.01-.025.033-.05.067-.076.1 16.438-9.5 22.06-30.527 12.561-46.965"/><path d="m296.03 146.65c-9.03 2.261-16.755 8.09-21.412 16.15-9.5 16.438-3.877 37.465 12.561 46.966-.025-.033-.05-.067-.076-.1-14.935-19.866-10.938-48.08 8.927-63.01"/><path d="m305.95 144.17c2.933 2.063 6.984 1.358 9.05-1.575 2.063 2.934 6.114 3.639 9.05 1.575 2.46-1.73 3.41-4.924 2.296-7.718-.629 3.331-3.839 5.522-7.17 4.893-1.755-.331-3.278-1.41-4.173-2.955-.895 1.545-2.418 2.624-4.173 2.955-3.331.629-6.542-1.562-7.17-4.893-1.116 2.794-.166 5.987 2.294 7.718"/></g></svg>