<svg xmlns="http://www.w3.org/2000/svg" viewBox="0 0 1000 600" enable-background="new 0 0 1000 600"><path fill="#fff" d="m0 0h1000v600h-1000z"/><path d="M0,0l1000,600 M0,600L1000,0" stroke="#df112d" stroke-width="60"/><g stroke="#000"><g stroke-width=".015"><path d="m552.33 89.77c12.85 52.03 5.803 116.3-52.24 151.96-58.05-35.657-65.1-99.92-52.24-151.96 13.683-12.439 75.873-20.11 104.48 0h.002z" fill="#e8112d"/><g fill="#f9dd16"><path d="m500 79.32c21.281 0 41.1 5.633 52.784 12.935 2.293-17.942 10.429-35.883 20.03-49.44-10.01-.209-14.501 5.111-14.603 10.639-2.504-7.093-12.31-6.676-15.336-2.816 10.954 7.406 2.504 20.549-7.403 17.837-4.655-1.273-7.114-4.519-7.986-9.231 2.968-.188 5.221-2.747 5.03-5.714-.188-2.968-2.747-5.221-5.714-5.03-2.968.188-5.221 2.747-5.03 5.714.133 2.091 1.466 3.915 3.418 4.676-3.132 5.111-8.747 6.646-12.77 5.519-5.216-1.46-7.407-6.154-7.407-10.327 0-10.848 10.429-12.517 13.56-10.639-.203-7.302-11.68-13.14-15.227-7.093 3.963-7.093 3.757-17.11-3.34-23.783-7.09 6.676-7.3 16.69-3.333 23.783-3.547-6.05-15.02-.208-15.23 7.093 3.127-1.878 13.56-.209 13.56 10.639 0 4.172-2.191 8.866-7.407 10.327-4.02 1.126-9.639-.408-12.774-5.519 2.771-1.08 4.141-4.202 3.06-6.973-1.08-2.771-4.202-4.141-6.973-3.06-2.771 1.08-4.141 4.202-3.06 6.973.761 1.952 2.585 3.285 4.676 3.418-.873 4.712-3.337 7.957-7.987 9.231-9.907 2.712-18.357-10.431-7.407-17.837-3.02-3.86-12.827-4.277-15.333 2.816-.107-5.528-4.59-10.848-14.603-10.639 9.594 13.56 17.73 31.502 20.03 49.44 11.683-7.302 31.503-12.935 52.78-12.935z"/><path d="m544.14 130.35c-1.283.306-1.283 1.959-1.955 1.959 3.335-.092 4.956-1.01 5.966-2.693-.733.673-.093 1.959-.338 2.265 2.447-.857 3.612-2.938 2.757-4.345.55.795 2.142 1.224 2.631 1.285-1.714-1.347-.489-4.407-3.246-5.998.92-.061 2.696.979 3.184 2.203-.428-2.754-.859-4.53-3.123-6.06.243.275 1.531.52 2.081 0-1.466-.918-1.898-2.448-1.771-3.428.17-1.37-.737-1.653-2.451-1.224-1.543.386-5.078.612-7.159.612-4.284 0-8.02 0-11.569-2.448 5.326 2.203 12.12-2.448 12.12-6.304 0-4.285-5.265-7.773-15.914-5.447-10.649 2.326-23.623 1.346-23.623-2.203 0-3.55 9.301-4.04 14.08-3.305 4.773.734 8.197 1.224 17.14-1.959-2.203.857-9.305 1.102-14.933-.489-5.632-1.591-19.465-1.591-19.587 5.876-.123 7.467 14.729 6.787 27.544 4.896 7.464-1.102 11.382-.367 11.382 2.081 0 2.326-6.854 3.305-12.12 2.693-5.261-.612-10.649-.489-16.891 1.347-5.212 1.533-8.812 0-14.566.979-2.789.474-9.549 0-12.884-5.509-2.052 1.469-8.234 4.545-9.272 7.544-1.47 2.754-.489 5.493 1.466 8.186 2.468 3.389-1.222 2.877-3.852 2.999-3.608.168-8.438-.383-10.958-3.244-2.232-2.535-5.204-4.567-7.578-2.688-1.222.967-.05 2.24.916 1.884.957-.352 2.089.356 3.111.804-1.633-.702-3.429-.157-4.129.469-.965.865.207 2.518 1.376 1.934.916-.458 2.798-.764 4.02.356-1.323-.255-2.7-.201-3.36.509-.66.71-.15 1.743 1.275 1.68 2.289-.102 2.875 1.502 5.168 1.172-1.409.184-2.207.918-2.574 1.469 2.142-.979 4.508 1.661 7.285 1.04-1.083.446-2.83 1.511-2.814 2.326 1.649-1.898 12.73 1.469 12.974-2.693.307.857.243 2.142-.611 3.244 1.417-.857 5.998-1.163 7.403-4.468.123.979-.06 2.265-.916 2.571 1.47.481 3.404-.614 5.383-3.55.786-1.165.973-1.939.839-2.814 1.963.074 3.384-.419 4.915-1.715 1.592-1.346 3.307 1.102 5.998-.612 2.696-1.714 5.02-.245 6.487-1.102 1.47-.857 3.49.306 5.082-.673 1.592-.979 4.06.479 6.695-1.602 4.146 1.519 8.983 4.332 20.85 2.152 6.801-1.25 8.934 1.04 8.934 4.162 0 2.142-1.254 2.328-2.203 2.387-3.783.233-5.408-1.416-6.902-.888-1 .357-1.613 1.986-.163 2.546-1.197.611-1.043 1.756-.432 2.176.611.42 2.187.038 3.258-.458-1.376.623-2.802 1.743-1.987 2.914.493.711 1.739 1.313 2.903-.203 1.167-1.529 3.305-2.801 4.665-2.599z"/><path d="m468.77 98.04c-3.429-1.407-4.585-1.446-3.795 1.347.338 1.194 1.161 2.877 1.987 3.642.033-1.163.46-4.377 1.808-4.989z"/><path d="m479.48 98.04c3.429-1.407 4.585-1.446 3.795 1.347-.338 1.194-1.165 2.877-1.991 3.642-.028-1.163-.456-4.377-1.804-4.989z"/><path d="m474.14 96.16c6.487 0 7.297 3.045 7.265 6.839-.029 4.101-2.232 2.693-3.486 7.957-.489 2.058-2.13 2.173-3.779 2.173-1.653 0-3.29-.115-3.783-2.173-1.247-5.264-3.453-3.856-3.483-7.957-.03-3.794.78-6.839 7.27-6.839h-.004z"/><path d="m457.42 111.19c-1.653-.979-2.72-.302-3.392-.118 2.142.551 2.227 3.3 7.126 4.586-1.104-.306-1.714.306-2.757-.245 2.02 1.591 4.284 3.434 9.06 3.489 2.663.031.823 1.408-.92.612 1.808 1.867 5.388.337 7.652 3.734.428-2.632-4.223-6.794-2.081-9.793-6.605-.281-7.147-3.942-10.954-6.855-3.099-2.368-3.376-4.776-4.744-9.283-.623-2.041-3.01-3.314-4.337-2.83-1.156.423-1.58 1.426-.586 2.176.994.751 2.264.853 2.537 2.755-1.291-1.546-3.225-2.106-4.154-1.139-.566.589-.338 1.963.88 2.087 1.983.204.558 2.138 2.814 4.03-1.999-2.249-3.73-2.452-4.801-1.231-.639.732 0 2.036 1.376 1.896 1.99-.201 4.299 4.85 7.28 6.129z"/><path d="m510.67 130.11c-1.042.184-.733 1.898-2.142 2.02 3.368 0 5.078-.796 6.67-2.081-.733.428-1.038 1.53-1.1 2.142 1.775-1.53 5.998-1.652 8.201-1.224 2.203.428 2.57-.612 3.364-2.02.798-1.408-.307-2.203-1.405-3.305-1.104-1.102-1.348-2.632-1.104-5.203-5.876-7.834-16.403-4.04-16.525-.612 3.795 4.407 4.284 3.917 7.468 4.529 3.18.612 5.131.61 2.997 2.387-.733.612-3.795.325-6.182.428-5.339.232-7.782-3.688-9.358-1.652-1.299 1.674.04 2.414 2.688 2.325-1.833.013-4.264-.086-3.848 1.621.7 2.876 3.449-.535 4.52.649-.916-.216-2.341.344-2.394 1.209-.05.866 2.036 1.985 4.329.165 1.255-.997 2.855-1.37 3.821-1.378z"/><path d="m515.22 118.16c-1.91-.699-3.661-1.126-5.901-.663"/><path d="m486.43 117.25c-1.572 3.377-.619 5.05-.387 6.612"/><path d="m469.69 101.25c1.079.54 1.686-.985 3.27.634-.436-.472-.977 1.255-2.191.109"/><path d="m478.5 101.25c-1.079.54-1.686-.985-3.27.634.436-.472.977 1.255 2.191.109"/><path d="m475.23 101.88c-.371.306-.407-.244-.127 1.2.521 2.652 1.136 3.893-1.01 3.893-2.191 0-1.527-1.241-1.01-3.893.287-1.444.25-.895-.123-1.2"/></g></g><g fill="#ff0016" stroke-width=".008"><path d="m474.13 112.05c1.743 0 2.753-.031 2.48-2.479-.113-.983 1.193-1.374.733-2.969.489 1.958-3.213 1.771-3.213.884 0 .888-3.702 1.075-3.213-.884-.46 1.595.843 1.986.733 2.969-.274 2.449.737 2.479 2.48 2.479z"/><path d="m472.56 107.1l-4.187-1.168"/><path d="m472.56 107.32l-4.675-.039"/><path d="m472.6 107.56l-3.987 1.068"/><path d="m475.7 107.1l4.186-1.168"/><path d="m475.7 107.32l4.675-.039"/><path d="m475.65 107.56l3.987 1.068"/></g><g fill="#0051ba" stroke-width=".002"><path d="m452.44 94.57c-1.218-1.516-4.268-.236-4.329 1.645 1.03-1.219 2.712.537 3.628.168.636-.256 1.194-1.196.701-1.813z"/><path d="m450.86 98.16c-1.218-1.516-4.264-.236-4.325 1.645 1.026-1.219 2.708.537 3.628.168.636-.255 1.194-1.196.697-1.813z"/><path d="m450.07 102.98c-1.38-1.369-4.264.246-4.113 2.121.888-1.327 2.753.229 3.624-.241.603-.325 1.051-1.322.489-1.88z"/><path d="m451.52 117.93c-1.531-1.201-4.207.734-3.844 2.581.729-1.42 2.761-.089 3.571-.656.562-.394.897-1.436.273-1.925z"/><path d="m451.45 121.2c-1.824-.673-3.779 1.993-2.863 3.638.253-1.575 2.598-.934 3.197-1.724.415-.547.407-1.64-.334-1.914z"/><path d="m453.79 123.64c-1.824-.673-3.779 1.993-2.867 3.638.257-1.576 2.602-.935 3.201-1.725.415-.546.407-1.639-.334-1.913z"/><path d="m501.59 128.37c-1.824-.673-3.779 1.993-2.863 3.638.257-1.575 2.598-.934 3.197-1.724.415-.547.407-1.64-.334-1.914z"/><path d="m504.05 130.59c-1.89-.461-3.527 2.41-2.431 3.94.073-1.594 2.476-1.224 2.981-2.077.35-.59.22-1.676-.55-1.863z"/><path d="m502.32 125.23c-1.686-.973-4.064 1.321-3.441 3.098.521-1.509 2.72-.479 3.445-1.155.501-.469.68-1.547-.004-1.943z"/><path d="m536.32 129.06c-1.89-.461-3.527 2.41-2.431 3.94.077-1.594 2.48-1.224 2.981-2.077.351-.59.22-1.676-.55-1.863z"/><path d="m536.38 126.06c-1.714-.915-4.01 1.461-3.331 3.215.468-1.526 2.704-.572 3.404-1.273.485-.486.627-1.57-.073-1.942z"/><path d="m537.71 131.75c-1.906-.378-3.417 2.562-2.256 4.04.008-1.596 2.423-1.332 2.887-2.205.327-.605.147-1.684-.631-1.837z"/><path d="m474.27 110.58c1.197 0 1.682.349 1.682 2.512 0 4.582-.053 6.552-1.527 6.552-1.478 0-1.376-1.872-1.376-5.236 0-1.755 0-2.633-.354-2.486-.001-1.146.508-1.342 1.575-1.342z"/></g><g fill="#f9dd16" stroke-width=".015"><path d="m538.18 173.03c-1.154.275-1.154 1.763-1.759 1.763 3-.083 4.46-.909 5.369-2.424-.66.606-.084 1.763-.304 2.038 2.203-.771 3.251-2.644 2.481-3.911.495.716 1.928 1.102 2.368 1.157-1.543-1.212-.44-3.966-2.921-5.398.828-.055 2.426.881 2.866 1.983-.385-2.479-.773-4.077-2.811-5.453.219.248 1.378.468 1.873 0-1.319-.826-1.708-2.203-1.594-3.085.153-1.233-.663-1.488-2.206-1.102-1.389.347-4.57.551-6.443.551-3.856 0-7.216 0-10.412-2.203 4.794 1.983 10.907-2.203 10.907-5.674 0-3.856-4.739-6.996-14.323-4.903-9.584 2.093-21.26 1.212-21.26-1.983 0-3.195 8.371-3.636 12.67-2.975 4.295.661 7.378 1.102 15.422-1.763-1.983.771-8.375.991-13.439-.441-5.069-1.432-17.519-1.432-17.629 5.288-.111 6.72 13.256 6.108 24.79 4.407 6.718-.992 10.244-.331 10.244 1.873 0 2.093-6.168 2.974-10.907 2.424-4.735-.55-9.584-.441-15.202 1.212-4.691 1.379-7.931 0-13.11.881-2.51.427-8.594 0-11.596-4.958-1.847 1.322-7.411 4.09-8.345 6.789-1.323 2.479-.44 4.944 1.319 7.368 2.221 3.05-1.099 2.589-3.467 2.699-3.247.151-7.594-.345-9.862-2.92-2.01-2.281-4.684-4.11-6.821-2.419-1.099.87-.045 2.02.825 1.695.861-.317 1.88.321 2.8.723-1.47-.632-3.086-.142-3.716.422-.868.779.186 2.266 1.239 1.741.825-.412 2.518-.687 3.617.321-1.191-.229-2.43-.181-3.02.458-.594.639-.135 1.569 1.147 1.512 2.06-.092 2.588 1.352 4.651 1.055-1.268.165-1.986.826-2.316 1.322 1.928-.881 4.057 1.495 6.557.936-.975.401-2.547 1.36-2.533 2.093 1.484-1.708 11.457 1.322 11.677-2.424.276.771.219 1.928-.55 2.92 1.275-.771 5.398-1.047 6.663-4.02.111.881-.054 2.038-.825 2.314 1.323.432 3.064-.553 4.845-3.195.707-1.048.876-1.745.755-2.533 1.766.067 3.046-.377 4.424-1.544 1.433-1.212 2.976.992 5.398-.551 2.426-1.542 4.519-.22 5.838-.991 1.323-.771 3.141.275 4.574-.606 1.433-.881 3.654.431 6.03-1.441 3.731 1.367 8.09 3.899 18.765 1.937 6.121-1.125 8.04.936 8.04 3.746 0 1.928-1.129 2.096-1.983 2.148-3.405.209-4.867-1.275-6.212-.799-.901.321-1.451 1.787-.147 2.291-1.078.55-.938 1.581-.389 1.959.55.378 1.968.035 2.932-.412-1.239.561-2.521 1.569-1.789 2.623.443.64 1.565 1.182 2.613-.183 1.052-1.372 2.976-2.518 4.2-2.336z"/><path d="m470.34 143.94c-3.086-1.267-4.127-1.301-3.416 1.212.304 1.074 1.045 2.589 1.789 3.278.03-1.046.414-3.938 1.627-4.49z"/><path d="m479.98 143.94c3.086-1.267 4.127-1.301 3.416 1.212-.304 1.074-1.048 2.589-1.792 3.278-.026-1.046-.411-3.938-1.624-4.49z"/><path d="m475.18 142.25c5.838 0 6.568 2.74 6.538 6.155-.026 3.691-2.01 2.424-3.137 7.161-.44 1.852-1.917 1.956-3.401 1.956-1.488 0-2.961-.104-3.405-1.956-1.122-4.738-3.108-3.471-3.135-7.161-.027-3.415.702-6.155 6.543-6.155h-.003z"/><path d="m460.13 155.79c-1.488-.881-2.448-.271-3.053-.106 1.928.496 2 2.97 6.414 4.127-.993-.275-1.543.276-2.481-.22 1.818 1.432 3.856 3.091 8.155 3.14 2.397.027.74 1.267-.828.551 1.627 1.68 4.849.303 6.887 3.36.385-2.369-3.801-6.115-1.873-8.814-5.945-.253-6.432-3.548-9.859-6.17-2.789-2.132-3.038-4.298-4.27-8.355-.561-1.837-2.712-2.982-3.903-2.547-1.041.38-1.422 1.283-.528 1.959.894.676 2.038.767 2.283 2.48-1.162-1.392-2.903-1.896-3.738-1.025-.509.53-.304 1.767.792 1.879 1.785.183.502 1.924 2.533 3.627-1.799-2.024-3.357-2.207-4.321-1.108-.575.659 0 1.833 1.239 1.707 1.791-.182 3.869 4.364 6.551 5.515z"/><path d="m508.05 172.81c-.938.165-.66 1.708-1.928 1.818 3.03 0 4.57-.716 6-1.873-.66.386-.934 1.377-.99 1.928 1.598-1.377 5.398-1.487 7.381-1.101 1.983.386 2.313-.551 3.03-1.818.718-1.267-.276-1.983-1.265-2.975-.993-.992-1.213-2.369-.993-4.682-5.289-7.05-14.763-3.636-14.872-.551 3.416 3.966 3.856 3.525 6.722 4.076 2.862.551 4.618.549 2.697 2.148-.66.551-3.416.292-5.563.386-4.805.209-7-3.319-8.422-1.487-1.169 1.507.036 2.173 2.419 2.092-1.649.012-3.837-.077-3.463 1.459.63 2.588 3.104-.481 4.068.584-.825-.195-2.107.309-2.155 1.088-.045.779 1.832 1.787 3.896.149 1.129-.898 2.569-1.234 3.438-1.241z"/><path d="m512.14 162.06c-1.719-.629-3.295-1.013-5.311-.597"/><path d="m486.23 161.24c-1.415 3.04-.557 4.54-.348 5.95"/><path d="m471.17 146.83c.971.486 1.517-.887 2.943.57-.392-.425-.88 1.13-1.972.098"/><path d="m479.1 146.83c-.971.486-1.517-.887-2.943.57.392-.425.88 1.13 1.972.098"/><path d="m476.15 147.4c-.334.275-.367-.22-.114 1.08.469 2.387 1.022 3.504-.909 3.504-1.972 0-1.374-1.117-.909-3.504.258-1.3.225-.805-.111-1.08"/></g><g fill="#ff0016" stroke-width=".008"><path d="m475.16 156.56c1.569 0 2.477-.027 2.232-2.231-.102-.884 1.074-1.237.66-2.672.44 1.762-2.892 1.594-2.892.795 0 .799-3.331.967-2.892-.795-.414 1.435.759 1.787.66 2.672-.246 2.204.664 2.231 2.232 2.231z"/><path d="m473.75 152.1l-3.768-1.051"/><path d="m473.75 152.3l-4.207-.035"/><path d="m473.79 152.51l-3.588.961"/><path d="m476.57 152.1l3.768-1.051"/><path d="m476.57 152.3l4.207-.035"/><path d="m476.53 152.51l3.588.961"/></g><g fill="#0051ba" stroke-width=".002"><path d="m455.65 140.83c-1.096-1.364-3.841-.212-3.896 1.481.927-1.097 2.441.483 3.265.151.573-.231 1.075-1.077.631-1.632z"/><path d="m454.22 144.06c-1.096-1.364-3.837-.212-3.892 1.481.924-1.097 2.437.483 3.265.151.572-.23 1.075-1.077.627-1.632z"/><path d="m453.51 148.4c-1.242-1.233-3.837.221-3.702 1.909.799-1.194 2.477.206 3.262-.217.543-.293.946-1.19.44-1.692z"/><path d="m454.82 161.84c-1.378-1.081-3.786.661-3.46 2.322.656-1.278 2.485-.08 3.214-.591.507-.353.807-1.29.246-1.731z"/><path d="m454.75 164.79c-1.642-.605-3.401 1.794-2.576 3.274.228-1.418 2.338-.841 2.877-1.552.374-.492.367-1.475-.301-1.722z"/><path d="m456.86 166.99c-1.642-.606-3.401 1.793-2.58 3.274.231-1.418 2.342-.841 2.881-1.552.373-.492.366-1.475-.301-1.722z"/><path d="m499.88 171.25c-1.642-.605-3.401 1.794-2.576 3.274.231-1.418 2.338-.841 2.877-1.552.374-.492.367-1.475-.301-1.722z"/><path d="m502.09 173.24c-1.701-.415-3.174 2.169-2.188 3.546.066-1.435 2.228-1.102 2.683-1.87.316-.531.198-1.508-.495-1.676z"/><path d="m500.53 168.42c-1.517-.876-3.658 1.189-3.097 2.788.469-1.358 2.448-.431 3.101-1.039.451-.422.612-1.392-.004-1.749z"/><path d="m531.14 171.87c-1.701-.415-3.174 2.169-2.188 3.546.069-1.435 2.232-1.102 2.683-1.87.316-.53.198-1.507-.495-1.676z"/><path d="m531.19 169.17c-1.543-.823-3.61 1.315-2.998 2.893.421-1.373 2.434-.515 3.064-1.146.437-.436.565-1.411-.066-1.747z"/><path d="m532.38 174.28c-1.715-.34-3.075 2.306-2.03 3.638.007-1.436 2.181-1.198 2.599-1.985.294-.544.132-1.515-.569-1.653z"/><path d="m475.29 155.24c1.078 0 1.514.314 1.514 2.261 0 4.124-.048 5.897-1.374 5.897-1.331 0-1.239-1.685-1.239-4.712 0-1.58 0-2.369-.319-2.238 0-1.031.458-1.208 1.418-1.208z"/></g><g fill="#f9dd16" stroke-width=".015"><path d="m530.73 209.27c.054-.086.111-.169.161-.262-.076.077-.124.168-.161.262z"/><path d="m534.27 208.41c-1.149-1.01-.327-3.305-2.175-4.498.617-.046 1.806.734 2.133 1.653-.287-2.066-.576-3.397-2.093-4.545.163.207 1.026.39 1.394 0-.982-.689-1.271-1.836-1.187-2.571.114-1.028-.494-1.24-1.642-.918-1.034.289-3.402.459-4.796.459-2.87 0-5.372 0-7.751-1.836 3.569 1.652 8.12-1.836 8.12-4.728 0-3.214-3.528-5.83-10.662-4.086-7.135 1.744-15.827 1.01-15.827-1.653 0-2.663 6.232-3.03 9.432-2.479 3.198.551 5.492.918 11.481-1.469-1.476.643-6.234.826-10-.367-3.773-1.194-13.04-1.194-13.12 4.407-.083 5.6 9.869 5.09 18.455 3.672 5-.826 7.626-.275 7.626 1.561 0 1.744-4.592 2.479-8.12 2.02-3.525-.459-7.135-.367-11.317 1.01-3.492 1.15-5.904 0-9.759.735-1.85.352-6.305.001-8.562-4.02-.24.582-.609.921-.997 1.496l.579-.005-.579.005c-.154.229-.311.502-.464.839l.55.165-.55-.165c-.214.473-.421 1.076-.598 1.909-.204.961-.708 1.357-1.325 1.519 0 .033.003.057.003.091 0 3.437-.036 4.914-1.023 4.914-.99 0-.922-1.404-.922-3.927 0-.396-.001-.725-.007-.999-.347-.036-.671-.121-.953-.29-.083.176-.14.352-.201.527.174.018.345.038.533.047-1.435 2.249 1.681 5.371 1.394 7.345-.069-.116-.141-.216-.214-.317-.154.892-1.818.708-3.108.776-2.417.126-5.653-.287-7.342-2.433-1.421-1.807-3.29-3.268-4.838-2.198.109.045.218.091.316.177.417.367.193 1.148-.183 1.443-.01.008-.024.008-.035.015.092.007.185-.001.277-.039.641-.264 1.4.267 2.084.603-1.094-.526-2.297-.118-2.767.352-.007.007-.008.015-.015.022.193-.035.39-.024.587.057.486.201.5.987.24 1.405.037-.013.073-.013.111-.034.614-.344 1.874-.573 2.693.267-.698-.151-1.41-.146-1.9.118.141-.004.283.018.425.076.497.205.502 1.025.224 1.435-.005.008-.015.011-.021.019 1.425-.003 1.847 1.113 3.338.873-.944.138-1.479.688-1.724 1.102 1.435-.734 3.02 1.245 4.881.78-.726.334-1.896 1.133-1.885 1.745 1.105-1.423 8.529 1.102 8.693-2.02.205.643.163 1.606-.409 2.433.949-.643 4.02-.872 4.96-3.351.083.735-.04 1.699-.614 1.928.985.36 2.281-.461 3.607-2.662.527-.873.652-1.454.562-2.111-.155-1.175-.793-2.426.26-4.958l-.259 4.958c1.314.055 2.266-.314 3.292-1.286 1.067-1.01 2.216.826 4.02-.459 1.806-1.285 3.364-.183 4.346-.826.676-.441 1.525-.176 2.337-.199-.068-.087-.132-.167-.203-.26.082-2.571 7.135-5.417 11.07.459-.006.066-.008.125-.013.189 2.117.421 4.844.505 8.667-.282 4.556-.937 5.986.78 5.986 3.122 0 1.606-.84 1.746-1.476 1.79-2.43.167-3.529-.947-4.498-.692.066.023.132.052.197.09.469.279.374 1.092.049 1.456-.158.177-.434.211-.74.225.074.061.154.119.258.164-.279.159-.442.368-.528.584.277-.186.593-.267.922-.178.475.13.583.826.414 1.282.37-.086.761-.232 1.084-.4-.603.306-1.212.773-1.414 1.304.253-.165.54-.241.842-.174.521.115.642.924.423 1.378-.041.086-.106.156-.185.218.3-.036.627-.226.947-.693.783-1.146 2.215-2.1 3.127-1.949-.859.229-.859 1.469-1.31 1.469 2.071-.064 3.15-.666 3.836-1.758.037-.095.086-.185.161-.262-.05.093-.107.176-.161.262-.208.523.073 1.242-.065 1.437 1.64-.643 2.42-2.203 1.847-3.259.367.598 1.433.92 1.761.965z"/><path d="m475.16 186.33c.218.863.739 2.062 1.273 2.661-.007-1.519.157-2.871.978-3.799-2.057-.914-2.756-.86-2.251 1.138z"/><path d="m487.42 186.33c.504-1.993-.19-2.051-2.236-1.144.821.923.989 2.268.982 3.78.526-.608 1.038-1.785 1.254-2.636z"/><path d="m479.13 191.77l-1.698-.53 1.698.53c.002-.009.002-.016.004-.025-.002.009-.001.017-.003.026l1.106.345-1.106-.345c-.039.195-.027.359.021.498l1.085.01-1.085-.01c.063.182.185.322.346.42l.767-.23-.767.23c.629.383 1.788.174 1.788-.281 0 .384.823.591 1.459.417.075-.056.149-.113.224-.168l-.663-.199.663.199c.138-.101.276-.201.413-.298.014-.029.027-.059.038-.09l-1.083.01 1.083-.01c.048-.139.06-.303.021-.498l-1.104.345 1.104-.345c-.002-.009-.001-.017-.003-.026.002.01.002.017.004.026l1.435-.448c.374-.258.7-.488.939-.68.022.041.048.076.071.116.166-.402.271-.92.276-1.722 0-.025-.001-.048 0-.073-.027.031-.054.068-.081.095-.019-.872-.306-3.282-1.209-3.741.112-.051.203-.088.307-.134-.706-.793-1.893-1.277-3.884-1.277-1.997 0-3.185.486-3.891 1.283.1.044.186.079.292.128-.903.459-1.19 2.869-1.211 3.741-.02-.02-.039-.048-.059-.07 0 .016 0 .031 0 .047.013 1.963.62 2.247 1.275 3.219l1.373.013c-.002-.149.009-.31.055-.498zm5.087-4.046l-.723.557c-.813.86-1.176-.436-1.468-.082 1.061-1.214 1.468-.07 2.191-.475zm-2.276 1.376c.349 1.989.761 2.92-.677 2.92-1.468 0-1.023-.931-.677-2.92.192-1.083.168-.671-.083-.9h1.521c-.247.229-.272-.184-.084.9zm-1.434-.901c-.292-.354-.655.942-1.468.082l-.723-.557c.723.405 1.13-.739 2.191.475z"/><path d="m479.08 192.27l-1.373-.013c.153.228.309.499.46.833l1.01-.303c-.058-.148-.092-.321-.098-.517z"/><path d="m479.94 195.59c-.288-.237-.41-.7-.319-1.612.046-.459-.275-.746-.449-1.186l-1.01.303c.215.474.422 1.078.599 1.915.147.689.453 1.078.838 1.308.002-.004.003-.008.004-.011.074-.239.194-.479.338-.717z"/><path d="m483.5 192.28c.005-.004.011-.007.016-.011h-.015c-.001.004-.001.007-.001.011z"/><path d="m483.5 192.27h.015c.489-.345.958-.663 1.367-.946l-1.435.448c.046.188.057.349.053.498z"/><path d="m480.45 195.79c-.201-.034-.374-.092-.508-.202-.144.239-.264.479-.338.718-.002.004-.003.008-.004.011.282.168.606.254.953.29-.01-.428-.037-.706-.103-.817z"/><path d="m483.38 192.36c-.137.097-.275.197-.413.298l.105.031c.133-.081.239-.191.308-.329z"/><path d="m484.88 191.32l.264-.083-.264.083c-.41.283-.878.6-1.367.946l1.38-.013c.388-.575.756-.914.997-1.496-.023-.04-.048-.075-.071-.116-.239.191-.565.421-.939.679z"/><path d="m483.5 192.28c-.007.191-.041.36-.099.506l1.031.309c.153-.337.309-.61.464-.839l-1.38.013c-.006.004-.011.007-.016.011z"/><path d="m482.97 192.66c-.075.055-.149.112-.224.168.118-.032.231-.076.329-.136l-.105-.032z"/><path d="m482.95 193.97c.107 1.078-.088 1.523-.499 1.714.035.224.052.502.055.838.618-.162 1.121-.557 1.325-1.519.177-.834.384-1.436.598-1.909l-1.031-.309c-.174.439-.495.726-.448 1.185z"/><path d="m477.7 185.32c-.106-.049-.192-.083-.292-.128-.821.928-.986 2.28-.978 3.799.02.022.039.049.059.07.022-.872.308-3.282 1.211-3.741z"/><path d="m486.09 189.06c.027-.028.054-.064.081-.095.006-1.512-.161-2.857-.982-3.78-.104.046-.195.083-.307.134.902.459 1.188 2.869 1.208 3.741z"/><path d="m480.59 202.44c-1.196-1.844-1.832-3.717-1.187-5.601-3.917-.403-4.363-3-6.806-5.095-2.076-1.776-2.262-3.582-3.179-6.963-.396-1.453-1.852-2.372-2.758-2.154.032.035.072.053.1.093.33.463-.044 1.168-.469 1.36-.105.047-.229.038-.359.012.052.068.112.135.187.199.666.563 1.517.64 1.7 2.066-.692-.927-1.654-1.37-2.332-1.143.074.062.153.114.214.199.333.463-.041 1.168-.467 1.36-.043.019-.094.015-.141.02.128.143.3.249.532.276 1.181.136.562 1.297 1.47 2.55.137.144.274.295.415.472-.168-.158-.302-.316-.415-.472-.894-.943-1.688-1.178-2.3-.864.135.062.263.15.374.274.377.418.076 1.166-.327 1.41-.06.036-.132.048-.205.057.161.081.354.121.578.096 1.333-.152 2.879 3.632 4.875 4.594.001.001.002.001.003.002-.001-.001-.002-.001-.003-.002-1.106-.731-1.82-.224-2.269-.086 1.435.413 1.492 2.475 4.775 3.439-.739-.229-1.149.23-1.847-.183 1.353 1.194 2.87 2.576 6.071 2.617 1.784.023.551 1.056-.617.459 1.156 1.336 3.392.36 4.913 2.484.057-.329-.083-.795-.526-1.476z"/><path d="m467.1 189.62c.114.157.247.315.415.472-.141-.177-.279-.328-.415-.472z"/><path d="m479.94 196.89c-.188-.009-.359-.029-.533-.047-.645 1.884-.009 3.757 1.187 5.601.443.681.583 1.147.527 1.474.072.101.145.201.214.317.286-1.975-2.83-5.096-1.395-7.345z"/><path d="m508.82 200.41c-1.765 1.561-3.419.467-4.485 1.201-.334.23-.698.295-1.068.306 2.353 3.01 2.727 2.691 4.801 3.137 2.131.459 3.438.458 2.01 1.79-.491.459-2.543.244-4.142.321-3.237.157-4.883-2.224-5.95-1.549.065.026.129.056.192.096.458.297.338 1.106.003 1.457-.118.123-.295.169-.499.187.359.237.974.344 1.785.313-.806.006-1.775-.016-2.273.326.164-.015.33.004.496.072.497.206.502 1.025.224 1.435-.085.125-.229.197-.394.253.751.154 1.874-1.032 2.398-.383-.472-.125-1.142.097-1.444.5.263-.16.56-.225.866-.141.512.14.601.942.372 1.387.448-.041.964-.237 1.501-.715.84-.748 1.913-1.028 2.559-1.034-.698.138-.491 1.423-1.435 1.515 2.256 0 3.402-.597 4.469-1.561-.491.321-.696 1.148-.737 1.607 1.189-1.147 4.02-1.239 5.495-.918s1.722-.459 2.254-1.515c.535-1.056-.206-1.653-.941-2.479-.714-.798-.888-1.902-.752-3.713-2.287-.455-3.861-1.304-5.303-1.895z"/><path d="m503.06 201.66c.071.093.135.173.203.26.37-.011.734-.076 1.068-.306 1.067-.734 2.72.359 4.485-1.201l-3.953-.497c1.501-.347 2.674-.027 3.953.498 1.441.591 3.02 1.441 5.301 1.896.005-.065.007-.123.013-.189-3.935-5.878-10.988-3.03-11.07-.461z"/><path d="m508.82 200.41c-1.279-.524-2.452-.844-3.953-.497l3.953.497z"/><path d="m489.27 204.69l.259-4.958c-1.053 2.533-.415 3.783-.259 4.958z"/><path d="m480.51 188.2c-1.061-1.214-1.468-.071-2.191-.475l.723.557c.814.86 1.177-.436 1.468-.082z"/><path d="m483.5 188.28l.723-.557c-.723.405-1.13-.739-2.191.475.292-.354.655.942 1.468.082z"/><path d="m482.03 188.2h-1.521c.25.229.275-.183.083.9-.346 1.989-.791 2.92.677 2.92 1.438 0 1.026-.931.677-2.92-.189-1.083-.164-.67.084-.9z"/></g><g fill="#ff0016" stroke-width=".008"><path d="m483.44 191.75c.002.009.001.017.003.026-.002-.009-.001-.016-.003-.026z"/><path d="m479.15 192.27l-.075-.001c.006.196.04.369.099.517l.323-.097c-.161-.098-.284-.237-.347-.419z"/><path d="m479.13 191.77c-.047.188-.058.35-.054.498l.075.001c-.048-.14-.06-.304-.021-.499z"/><path d="m483.5 192.27l-.075.001c-.011.031-.024.061-.038.09.038-.027.075-.053.113-.08-.001-.004-.001-.007 0-.011z"/><path d="m482.75 192.83c-.635.173-1.459-.033-1.459-.417 0 .455-1.159.664-1.788.281l-.323.097c.174.44.495.727.449 1.186-.091.911.031 1.375.319 1.612.585-.968 1.68-1.92 2.802-2.759z"/><path d="m483.44 191.77c.038.194.026.359-.022.498l.075-.001c.004-.148-.007-.309-.053-.497z"/><path d="m479.13 191.75c-.002.009-.002.016-.004.025.003-.008.002-.015.004-.025z"/><path d="m480.33 195.74c0-.859.341-1.01 1.056-1.01.613 0 .946.159 1.069.955.411-.19.606-.635.499-1.714-.047-.459.274-.746.449-1.186l-.322-.097c-.099.06-.211.104-.329.136-1.122.838-2.217 1.79-2.802 2.758.134.11.307.168.508.202-.033-.053-.074-.073-.128-.048z"/><path d="m483.08 192.69l.322.097c.058-.146.091-.315.099-.506-.038.027-.075.053-.113.08-.069.138-.175.248-.308.329z"/></g><g fill="#0051ba" stroke-width=".002"><path d="m466.51 182.66c.045-.018.099-.019.148-.031-.867-.957-2.76-.034-2.8 1.327.572-.758 1.441.008 2.072.137-.404-.529-.107-1.152.58-1.433z"/><path d="m466.29 184.08c.426-.192.799-.897.469-1.36-.029-.04-.069-.058-.1-.093-.049.012-.103.012-.148.031-.687.281-.984.904-.58 1.433.13.027.254.036.359-.011z"/><path d="m465.04 185.5c.125-.145.281-.233.451-.289-.908-.769-2.645.128-2.683 1.433.64-.851 1.654.214 2.289.146-.322-.36-.329-.973-.057-1.29z"/><path d="m465.7 185.41c-.061-.085-.141-.136-.214-.199-.17.057-.327.144-.451.289-.272.316-.265.93.057 1.29.048-.005.098-.001.141-.02.427-.192.8-.897.467-1.36z"/><path d="m464.29 189.17c.148-.189.319-.32.502-.414-.988-.455-2.47.628-2.382 1.865.533-.892 1.589-.055 2.223-.125-.499-.251-.667-.911-.343-1.326z"/><path d="m465.17 189.03c-.111-.124-.239-.212-.374-.274-.183.094-.354.225-.502.414-.324.415-.156 1.075.344 1.327.073-.008.144-.02.205-.057.403-.244.703-.992.327-1.41z"/><path d="m465.59 200.24c.079-.07.159-.127.24-.182-1.037-.43-2.48.859-2.26 2.112.48-1.046 1.796-.11 2.358-.478-.561-.042-1.041-.829-.338-1.452z"/><path d="m466.14 200.24c-.098-.086-.207-.131-.316-.177-.081.056-.161.113-.24.182-.703.623-.222 1.41.337 1.452.01-.007.025-.007.035-.015.377-.294.601-1.075.184-1.442z"/><path d="m465.5 202.63c-1.01.181-1.846 1.75-1.331 2.785.17-1.181 1.741-.701 2.142-1.293.006-.009.01-.02.016-.03-.736.268-1.408-.839-.827-1.462z"/><path d="m466.09 202.69c-.196-.081-.394-.092-.587-.057-.581.623.091 1.73.826 1.463.261-.418.247-1.204-.239-1.406z"/><path d="m466.88 204.71c.094-.113.219-.193.351-.264-1.075.028-2.036 1.714-1.496 2.805.17-1.166 1.698-.717 2.123-1.275-.043 0-.079-.008-.124-.006-.954.047-1.295-.728-.854-1.26z"/><path d="m467.66 204.52c-.141-.058-.284-.08-.424-.076-.132.071-.257.151-.351.264-.442.532-.1 1.307.854 1.26.045-.002.081.006.124.006.006-.007.016-.011.021-.019.278-.41.273-1.23-.224-1.435z"/><path d="m498.89 208.89c-.096-.44.044-.712.305-.89-1.046.098-1.953 1.734-1.422 2.8.136-.931 1.132-.835 1.748-1.04-.278-.057-.505-.29-.631-.87z"/><path d="m499.69 208.07c-.165-.068-.332-.087-.495-.072-.261.178-.4.45-.305.89.126.58.354.813.63.87.165-.055.309-.127.394-.253.278-.41.273-1.23-.224-1.435z"/><path d="m500.31 210.28c.008-.15.069-.286.16-.407-.823.5-1.318 1.944-.762 2.814.049-1.196 1.659-.918 1.997-1.558.002-.003.003-.007.004-.01-.833.075-1.421-.417-1.399-.839z"/><path d="m501.34 209.74c-.307-.084-.603-.019-.867.141-.091.121-.152.257-.16.407-.022.422.566.914 1.399.839.229-.445.14-1.248-.372-1.387z"/><path d="m499.66 205.93c.1-.145.208-.239.32-.31-1.108-.441-2.508 1.161-2.114 2.42.265-.857 1.172-.623 1.809-.679-.425-.281-.487-.749-.015-1.431z"/><path d="m500.18 205.72c-.063-.04-.127-.071-.192-.096-.112.071-.22.165-.32.31-.472.681-.411 1.149.015 1.431.204-.018.381-.064.499-.187.337-.352.457-1.161-.002-1.458z"/><path d="m522.28 209.82c-.267-.205-.398-.642-.238-1.048-.789.53-1.25 1.928-.706 2.778.051-1.196 1.662-.918 1.997-1.558.019-.035.032-.076.046-.115-.453.104-.874.116-1.099-.057z"/><path d="m522.96 208.59c-.329-.09-.646-.008-.923.178-.16.406-.029.843.238 1.048.225.173.646.161 1.099.056.169-.455.061-1.152-.414-1.282z"/><path d="m522.67 206.28c.042-.016.085-.015.127-.026-1.118-.395-2.465 1.259-2.035 2.501.208-.76.936-.702 1.541-.73-.615-.51-.232-1.506.367-1.745z"/><path d="m523 206.34c-.064-.038-.13-.067-.197-.09-.042.011-.085.009-.127.026-.599.239-.982 1.235-.368 1.745.306-.014.583-.048.74-.225.326-.364.421-1.177-.048-1.456z"/><path d="m523.13 211.66c-.189-.303-.189-.601-.083-.882-.813.531-1.262 2.01-.669 2.858.005-1.04 1.225-1.028 1.75-1.436-.431.052-.803-.226-.998-.54z"/><path d="m524.31 211.98c.219-.454.098-1.263-.423-1.378-.303-.067-.59.009-.842.174-.107.281-.106.578.083.882.195.314.567.592.998.54.078-.062.143-.132.184-.218z"/><path d="m480.56 196.6c.006.274.007.603.007.999 0 2.523-.068 3.927.922 3.927.987 0 1.023-1.478 1.023-4.914 0-.034-.002-.058-.003-.091-.374.098-.79.111-1.207.111-.251 0-.501-.007-.742-.032z"/><path d="m481.29 195.83c-.319 0-.597-.006-.835-.045.066.111.093.389.103.817.242.025.492.032.743.032.417 0 .833-.013 1.207-.111-.003-.336-.021-.614-.055-.838-.289.133-.681.145-1.163.145z"/><path d="m482.45 195.69c-.123-.797-.456-.955-1.069-.955-.715 0-1.056.148-1.056 1.01.054-.025.095-.005.127.049.238.04.516.045.835.045.482.001.874-.011 1.163-.145z"/></g></g></svg>