<svg xmlns="http://www.w3.org/2000/svg" viewBox="0 0 500 300" enable-background="new 0 0 500 300"><path fill="#ffc61e" d="m0 0h500v300h-500z"/><path fill="#fff" d="m0 75h500v225h-500z"/><path fill="#ce1126" d="m0 150h500v150h-500z"/><path fill="#3a75c4" d="m0 225h500v75h-500z"/><path d="M0,300l250-150L0,0V300z" fill="#3d8e33"/><circle cx="85" cy="150" r="67.5" fill="#fff"/><circle cx="115" cy="150" r="67.5" fill="#3d8e33"/><g fill="#fff"><path d="m88.11 97.83h9.08l2.806-8.638 2.805 8.637h9.08l-7.347 5.338 2.805 8.638-7.345-5.338-7.347 5.338 2.805-8.638-7.346-5.337"/><path d="m88.11 130.03h9.08l2.805-8.637 2.805 8.637h9.08l-7.347 5.337 2.805 8.638-7.344-5.337-7.347 5.338 2.805-8.638-7.346-5.338"/><path d="m88.11 162.24h9.08l2.805-8.637 2.805 8.637h9.08l-7.347 5.338 2.805 8.637-7.344-5.338-7.347 5.338 2.805-8.637-7.346-5.338"/><path d="m88.11 194.45h9.08l2.805-8.637 2.805 8.637h9.08l-7.347 5.338 2.805 8.637-7.344-5.338-7.347 5.338 2.805-8.637-7.346-5.338"/></g></svg>