<svg xmlns="http://www.w3.org/2000/svg" viewBox="0 0 900 600" enable-background="new 0 0 900 600"><path fill="#fff" d="m-36-24h900v600h-900z"/><g stroke-width="20"><g stroke="#000"><path d="m112.38 165.06l83.2-124.81m-52 145.61l83.2-124.81m-52 145.61l83.2-124.81"/><path d="m570.01 470.14l83.21-124.81m-52 145.61l83.21-124.81m-52 145.61l83.21-124.81"/></g><path d="m590.81 393.87l104.01 69.34" stroke="#fff"/></g><circle cx="414" cy="276" r="150" fill="#c60c30"/><path d="m289.19 192.79c-22.976 34.465-13.663 81.03 20.801 104.01 34.465 22.977 81.03 13.664 104.01-20.801s69.54-43.778 104.01-20.801 43.778 69.54 20.801 104.01c-45.953 68.929-139.08 87.56-208.01 41.603s-87.55-139.08-41.602-208.01" fill="#003478"/><g stroke-width="20"><g stroke="#000"><path d="m195.59 511.75l-83.2-124.81m114.41 104.01l-83.2-124.81m114.41 104.01l-83.2-124.81"/><path d="m653.21 206.66l-83.21-124.81m114.41 104.01l-83.21-124.81m114.41 104.01l-83.21-124.81"/></g><path d="m169.59 438.94l31.2-20.801m390.02-260.02l36.402-24.268m31.2-20.801l31.2-20.801" stroke="#fff"/></g></svg>