<svg xmlns="http://www.w3.org/2000/svg" viewBox="0 0 1000 600" enable-background="new 0 0 1000 600"><path fill="#002b7f" d="m0 0h1000v600h-1000z"/><path fill="#ce1126" d="m0 300h1000v300h-1000z"/><g fill="#ffd83d"><path d="m216.38 122.29l-1.838 62.5h-63.42c-7.803-15.168-14.246-28.05-14.246-45.496 0-14.6 11.483-26.19 28.03-26.19 17.519-.001 36.768 5.903 51.47 9.191"/><g stroke="#000" stroke-linejoin="round" stroke-linecap="round" stroke-width="1.5"><path d="m144.46 125.16v36.07"/><path d="m149.55 121.48v48.03"/><path d="m154.64 118.95v57.22"/><path d="m159.74 117.77v44.881"/><path d="m164.83 117.55v45.33"/><path d="m169.92 115.97v46.885"/><path d="m175.02 115.97v46.885"/><path d="m180.11 116.42v46.885"/><path d="m185.2 116.88v46.885"/><path d="m190.3 119.87v46.885"/><path d="m195.39 120.33v52.859"/><path d="m200.48 120.33v46.885"/><path d="m205.58 120.33v46.885"/></g></g><g stroke="#000" stroke-linejoin="round" stroke-linecap="round"><path d="m176.4 117.92c10.763 1.775 34.406 12.837 31.71 27.803-3.821 21.21-16.208 12.698-32.629 9.651l-12.408 4.136c-4.44 4.532-10.978 8.684-15.395 3.217h-7.353v28.722h81.34v-69.39l-45.27-4.136z" stroke-width="1.5"/><g fill="#ffd83d" stroke-width="2"><circle cx="212.81" cy="112.98" r="4.94"/><circle cx="201.71" cy="110.31" r="4.94"/><circle cx="190.45" cy="107.48" r="4.94"/><circle cx="179.14" cy="105.6" r="4.94"/><circle cx="167.84" cy="104.48" r="4.94"/><circle cx="156.75" cy="105.11" r="4.94"/><circle cx="146.18" cy="108.73" r="4.94"/><circle cx="137.28" cy="115.28" r="4.94"/><circle cx="130.96" cy="124.41" r="4.94"/><circle cx="127.91" cy="135.16" r="4.94"/><circle cx="128.03" cy="146.3" r="4.94"/><circle cx="130.15" cy="157.22" r="4.94"/><path d="m215 119.53l-.46 6.434c-12.291-1.883-29.715-8.732-45.956-8.732-15.01 0-26.654 6-26.654 21.14 0 14.918 6.318 28.485 14.706 42.28l-8.732 4.136c-7.803-15.168-14.246-28.05-14.246-45.496 0-14.6 11.483-28.952 31.25-28.952 17.52 0 35.39 5.904 50.09 9.191z"/></g></g><g fill="#ffd83d"><path d="m227.56 122.29l1.838 62.5h63.42c7.803-15.168 14.246-28.05 14.246-45.496 0-14.6-11.483-26.19-28.03-26.19-17.519-.001-36.768 5.903-51.47 9.191"/><g stroke="#000" stroke-linejoin="round" stroke-linecap="round" stroke-width="1.5"><path d="m299.48 125.16v36.07"/><path d="m294.39 121.48v48.03"/><path d="m289.29 118.95v57.22"/><path d="m284.2 117.77v44.881"/><path d="m279.11 117.55v45.33"/><path d="m274.01 115.97v46.885"/><path d="m268.92 115.97v46.885"/><path d="m263.83 116.42v46.885"/><path d="m258.73 116.88v46.885"/><path d="m253.64 119.87v46.885"/><path d="m248.55 120.33v52.859"/><path d="m243.45 120.33v46.885"/><path d="m238.36 120.33v46.885"/></g></g><g stroke="#000" stroke-linejoin="round" stroke-linecap="round"><path d="m267.54 117.92c-10.763 1.775-34.406 12.837-31.71 27.803 3.821 21.21 16.208 12.698 32.629 9.651l12.408 4.136c4.44 4.532 10.978 8.684 15.395 3.217h7.353v28.722h-81.34v-69.39l45.27-4.136z" stroke-width="1.5"/><g fill="#ffd83d" stroke-width="2"><circle cx="231.12" cy="112.98" r="4.94"/><circle cx="242.22" cy="110.31" r="4.94"/><circle cx="253.49" cy="107.48" r="4.94"/><circle cx="264.8" cy="105.6" r="4.94"/><circle cx="276.1" cy="104.48" r="4.94"/><circle cx="287.19" cy="105.11" r="4.94"/><circle cx="297.76" cy="108.73" r="4.94"/><circle cx="306.66" cy="115.28" r="4.94"/><circle cx="312.98" cy="124.41" r="4.94"/><circle cx="316.03" cy="135.16" r="4.94"/><circle cx="315.91" cy="146.3" r="4.94"/><circle cx="313.79" cy="157.22" r="4.94"/><path d="m228.94 119.53l.46 6.434c12.291-1.883 29.715-8.732 45.956-8.732 15.01 0 26.654 6 26.654 21.14 0 14.918-6.318 28.485-14.706 42.28l8.732 4.136c7.803-15.168 14.246-28.05 14.246-45.496 0-14.6-11.483-28.952-31.25-28.952-17.52 0-35.39 5.904-50.09 9.191z"/><path d="m221.97 53.13l-5.156 9.656 5.156 9.625 5.156-9.625-5.156-9.656zm0 24.375l-5.156 9.625 5.156 9.656 5.156-9.656-5.156-9.625z"/><path d="m203.59 74.953l8.132 5.156 8.105-5.156-8.105-5.156-8.132 5.156zm20.526 0l8.105 5.156 8.132-5.156-8.132-5.156-8.105 5.156z"/><circle cx="221.97" cy="75.07" r="3.906"/><circle cx="221.97" cy="100" r="10.455"/></g><path d="m219.34 89.88c0 3.114-.022 4.924-.031 6.625-2.52.112-5.01.377-7.438.781m20.19 0c-2.432-.405-4.917-.669-7.438-.781 0-1.698 0-3.503 0-6.625m-12.78 12.687c3.295-.55 6.674-.844 10.125-.844s6.83.293 10.125.844" fill="none" stroke-width="1.5"/><g fill="#ffd83d" stroke-width="2"><path d="m211.75 117.69c-.992 17.08-3.01 34.479-9.656 47.13l10.812-4.375c3.776-14.329 4.57-32.843 5.719-41.594l-6.875-1.156zm20.438 0l-6.875 1.156c1.149 8.751 1.942 27.27 5.719 41.594l10.812 4.375c-6.648-12.645-8.665-30.04-9.656-47.13z"/><path d="m221.95 154.69c-12.913 0-22.399 6.087-22.969 21.594-3.157-5.555-16.51-23.03-28.969-20.688-7.41 1.391-13.957 11.666-12.844 23.438-6.135-17.63-24.11-20.519-37.22-10.09 11.642 9.573 16.821 37.835 26.625 50.09h75.38 75.37c9.804-12.259 15.01-40.521 26.656-50.09-13.11-10.425-31.08-7.536-37.22 10.09 1.113-11.772-5.465-22.05-12.875-23.438-12.459-2.338-25.781 15.13-28.938 20.688-.567-15.508-10.08-21.594-22.998-21.594z"/></g><g stroke-width="1.5"><path d="m297.11 219.03c0 5.581-33.662 11.719-75.14 11.719s-75.14-6.138-75.14-11.719c0-5.581 33.662-8.502 75.14-8.502s75.14 2.921 75.14 8.502z"/><g fill="#ffd83d"><circle cx="221.97" cy="114.44" r="3.504"/><circle cx="221.97" cy="122.03" r="3.734"/><circle cx="221.97" cy="130.18" r="4.079"/><circle cx="221.97" cy="139.26" r="4.653"/><circle cx="221.97" cy="149.37" r="5.113"/></g></g></g><path d="m219.94 159.21c-.553-.007-1.076.459-.938 1.344.163 1.044.367 2.995.562 4.312.221 1.493 1.091 1.13 1.312-.031.221-1.161.132-1.906.188-4.062.028-1.079-.572-1.556-1.124-1.563m4.062 0c-.553.007-1.153.484-1.125 1.562.055 2.157-.034 2.901.188 4.062.221 1.161 1.092 1.524 1.312.031.195-1.317.4-3.269.562-4.312.139-.884-.384-1.35-.937-1.343m-7.687.562c-.506.07-1.03.581-1 1.125.055.995.33 2.189.438 3.688.11 1.548 1.202.947 1.312.062.11-.885.235-2.192.125-3.906-.041-.643-.322-.926-.656-.969-.07-.009-.147-.01-.219 0m11.09 0c-.334.043-.615.326-.656.969-.11 1.714.015 3.02.125 3.906.111.884 1.202 1.486 1.312-.062.107-1.499.382-2.692.438-3.688.03-.544-.494-1.055-1-1.125-.072-.01-.149-.009-.219 0m-15.437 1.75c-.463.12-.888.677-.75 1.312.276 1.272.531 2.678.531 3.969 0 1.106.945.711 1-.062.055-.774.156-2.413.156-3.906 0-1.115-.474-1.432-.937-1.313m19.687 0c-.329.091-.625.477-.625 1.312 0 1.493.101 3.132.156 3.906.055.774 1 1.169 1 .062 0-1.291.255-2.697.531-3.969.138-.636-.287-1.193-.75-1.312-.115-.029-.202-.029-.312.001m-59.09.171c-.554-.018-.943.733-.562 1.562.608 1.327 1.254 2.165 1.875 3.594.553 1.272 1.401.479 1.125-.406-.277-.885-.577-1.87-1.406-3.75-.312-.705-.7-.989-1.032-1m98.81 0c-.332.011-.72.295-1.031 1-.829 1.88-1.13 2.865-1.406 3.75-.276.885.572 1.678 1.125.406.621-1.429 1.267-2.266 1.875-3.594.38-.828-.009-1.58-.563-1.562m-94.81.063c-.408.124-.655.642-.406 1.25.498 1.216 1.217 2.464 1.719 3.781.442 1.161 1.426.832 1.094-.219-.332-1.051-.43-1.665-1.094-3.656-.333-.995-.906-1.281-1.313-1.156m90.5 0c-.349.074-.751.41-1 1.156-.663 1.991-.762 2.606-1.094 3.656-.332 1.051.652 1.38 1.094.219.502-1.318 1.221-2.565 1.719-3.781.249-.608.002-1.126-.406-1.25-.102-.031-.196-.025-.313 0m-85.5.969c-.514.098-.912.882-.562 1.844.443 1.216 1.072 2.368 1.625 3.75s1.471 1.103 1.25.219c-.221-.885-.492-2.351-1.156-4.562-.291-.969-.758-1.327-1.157-1.251m80.81 0c-.4-.076-.866.282-1.156 1.25-.664 2.212-.935 3.678-1.156 4.562s.697 1.164 1.25-.219 1.182-2.534 1.625-3.75c.349-.961-.049-1.746-.563-1.843m-93.19.687c-.557.057-1.064.965-.719 1.656.553 1.106.904 1.482 1.438 2.656.553 1.216 1.159.274.938-.5-.221-.774-.505-1.676-.781-2.781-.204-.81-.542-1.065-.876-1.031m105.56 0c-.334-.034-.672.221-.875 1.031-.276 1.106-.56 2.01-.781 2.781s.384 1.716.938.5c.534-1.174.884-1.55 1.438-2.656.344-.691-.163-1.599-.72-1.656m-67.03 2.798c-.584-.001-1.207.774-1 1.5.332 1.161.845 2.191 1.219 3.688.332 1.327 1.274.666 1.219-.219-.055-.885-.207-2.088-.594-3.969-.146-.705-.494-1-.844-1m28.5 0c-.35 0-.699.295-.844 1-.387 1.88-.538 3.084-.594 3.969-.055.885.887 1.546 1.219.219.374-1.497.887-2.526 1.219-3.688.207-.726-.416-1.501-1-1.5m-14.25 1.187c-.719 0-.819.966-.844 1.75-.083 2.571-1.15 5.069-2.062 6.312-.912 1.244-2.256.913-3.5.25-1.244-.663-1.986-1.161-3.312-2.156-1.327-.995-2.334-.413-.75 1.844 4.617 6.58 9.625 12.205 9.625 22.938 0 1.388.242 1.812.844 1.812s.875-.425.875-1.812c0-10.733 4.976-16.357 9.594-22.938 1.584-2.257.577-2.839-.75-1.844-1.327.996-2.068 1.493-3.312 2.156-1.244.663-2.588.994-3.5-.25-.913-1.244-1.98-3.741-2.062-6.312-.028-.784-.127-1.75-.846-1.75m-35.28-1.61c-.063-.002-.132.014-.188.031-.269.085-.448.409-.344.969.185 1 .88 2.967 1.156 3.906.277.94 1.433.74 1.156-.531-.277-1.272-.262-1.656-.594-3.094-.18-.786-.746-1.269-1.186-1.281m70.56 0c-.441.012-1.01.495-1.188 1.281-.332 1.438-.317 1.822-.594 3.094-.276 1.271.88 1.471 1.156.531.276-.94.971-2.904 1.156-3.906.104-.56-.075-.884-.344-.969-.054-.017-.123-.033-.186-.031m-91.53.406c-.579.045-.994.772-.406 1.844.634 1.157 1.721 2.608 2.219 3.438s1.358.27.75-.781c-.608-1.051-.812-2.257-1.531-3.75-.271-.561-.685-.778-1.032-.751m112.5 0c-.347-.027-.762.19-1.031.75-.719 1.493-.923 2.699-1.531 3.75-.608 1.051.252 1.611.75.781s1.585-2.281 2.219-3.438c.587-1.07.172-1.797-.407-1.843m-144.19 3.329c-.668-.035-.877 1.17-.25 1.969.913 1.161 1.548 1.777 2.594 2.719.83.746 1.071-.222.656-.969-.415-.746-1.014-1.506-1.844-2.75-.454-.682-.852-.952-1.156-.969m175.88 0c-.304.016-.702.287-1.156.969-.829 1.244-1.429 2-1.844 2.75s-.173 1.715.656.969c1.046-.942 1.681-1.558 2.594-2.719.627-.798.418-2-.25-1.969m-170.84 1c-.532.007-.883.4-.469 1.312.594 1.306 1.377 2.786 1.875 3.781.498.995 2.01 1.329 1.406-.219-.608-1.548-.728-2.344-1.281-3.781-.277-.718-.999-1.1-1.531-1.093m165.81 0c-.532-.007-1.255.375-1.531 1.094-.553 1.438-.673 2.233-1.281 3.781-.608 1.548.909 1.214 1.406.219.498-.996 1.281-2.475 1.875-3.781.414-.913.063-1.306-.469-1.313m-175.56.344c-.774.008-.84.784-.156 1.281.913.663 2 1.4 3.062 2.25 1.244.995 1.726.08 1.062-.75-.663-.829-1.31-1.67-2.969-2.5-.414-.207-.742-.284-.999-.281m185.31 0c-.258-.003-.585.074-1 .281-1.659.83-2.305 1.671-2.969 2.5-.663.83-.181 1.745 1.062.75 1.062-.85 2.15-1.587 3.062-2.25.685-.497.619-1.273-.155-1.281m-109.66.719c-.433.061-.806.552-.625 1.188.332 1.161.708 2.391.938 3.594.221 1.161 1.565 1.176 1.344.125-.221-1.051-.332-2.365-.719-3.969-.145-.601-.448-.89-.75-.938-.064-.01-.126-.009-.188 0m33.812 0c-.302.047-.605.336-.75.938-.387 1.604-.498 2.918-.719 3.969-.221 1.051 1.122 1.036 1.344-.125.229-1.202.606-2.433.938-3.594.181-.635-.192-1.127-.625-1.188-.062-.009-.125-.01-.188 0m-63.906-1.985c-.34.094-.536.744-.281 1.656 1.41 5.06 1.843 7.724 1.594 8.969-.249 1.244-.932 1.415-1.844 1s-1.983-1.013-2.812-1.594c-.829-.581-1.692.114-.5 1.094 6.06 4.977 10.252 10.664 11.875 17.562.332 1.41 1.218 1.576.969 0-1.372-8.69-1.636-15.833.438-20.312.779-1.683-.006-3.3-1.25-.562-.829 1.825-2.171 2.545-3.25.969-1.078-1.576-3.305-5.78-3.969-7.688-.249-.715-.556-1.046-.812-1.094-.055-.01-.109-.014-.158 0m94.03 0c-.257.047-.564.378-.812 1.094-.663 1.908-2.891 6.112-3.969 7.688-1.078 1.576-2.421.856-3.25-.969-1.244-2.737-2.029-1.121-1.25.562 2.074 4.479 1.81 11.623.438 20.312-.249 1.576.637 1.41.969 0 1.623-6.898 5.82-12.586 11.875-17.562 1.192-.98.329-1.675-.5-1.094-.829.581-1.9 1.179-2.812 1.594s-1.595.244-1.844-1c-.249-1.244.184-3.909 1.594-8.969.254-.912.059-1.562-.281-1.656-.05-.014-.104-.01-.158 0m-124.47 2.422c-.546.007-.999.389-.75 1.219.399 1.329 1.224 2.764 1.5 3.594.277.829 1.166.442 1-.719-.166-1.161-.247-1.853-.469-3.125-.111-.636-.735-.976-1.281-.969m155.06 0c-.546-.007-1.171.333-1.281.969-.221 1.272-.303 1.964-.469 3.125-.166 1.161.723 1.548 1 .719.276-.829 1.101-2.265 1.5-3.594.249-.829-.204-1.212-.75-1.219m-136.28-1.735c-.635-.114-.726 1.524-.188 2.188.719.885 1.717 1.955 2.719 3.156.829.996 1.342.111.844-.719-.498-.83-1.236-1.711-2.562-3.812-.333-.526-.602-.775-.813-.813m117.5 0c-.212.038-.481.287-.812.812-1.327 2.101-2.065 2.983-2.562 3.812-.498.829.014 1.714.844.719 1-1.201 2-2.271 2.719-3.156.537-.663.446-2.301-.189-2.187m-132 3.954c-.394-.028-.728.292-.562 1.094.231 1.116.567 2.043.844 3.094.276 1.051 1 .871 1-.125 0-.995-.178-2.106-.344-3.156-.084-.526-.544-.879-.938-.907m146.5 0c-.394.028-.855.381-.938.906-.166 1.051-.344 2.161-.344 3.156 0 .996.724 1.176 1 .125.277-1.051.612-1.977.844-3.094.166-.801-.168-1.121-.562-1.093m-133.41 1.421c-.619.094-1.163.692-.438 1.625 1.161 1.493 2.432 2.541 2.875 3.094.442.553 1.563.349.844-.812-.735-1.186-1.846-2.615-2.344-3.5-.187-.332-.566-.463-.937-.407m120.06 0c-.272.029-.548.157-.688.406-.498.885-1.609 2.314-2.344 3.5-.719 1.161.402 1.366.844.812.443-.553 1.714-1.601 2.875-3.094.726-.933.181-1.531-.438-1.625-.092-.013-.158-.008-.249.001m-140.72 4.173c-.488-.044-.657.35 0 1.25 1.493 2.046 3.14 5.142 3.25 6.469.111 1.327-.545 1.312-1.156 1.312-1.825 0-2.716-1.332-4.375-1.719-1.659-.387-1.9.485-.719 1.344 6.082 4.424 12.179 9.359 14.625 13.844.995 1.825 2.341 2.492 1.594.75-2.287-5.337-2.841-9.857-2.344-12.594.498-2.737 1.177-4.58 1.094-6.156-.083-1.576-.977-1.468-1.344 0-.249.996-.731 2.315-1.062 2.812-.332.498-1.666.777-2.938-.938-1.272-1.714-4.481-5.01-5.531-5.844-.394-.31-.801-.504-1.094-.53m161.63 0c-.293.027-.7.22-1.094.531-1.051.829-4.259 4.13-5.531 5.844-1.272 1.714-2.606 1.435-2.938.938-.332-.498-.814-1.817-1.062-2.812-.367-1.468-1.261-1.576-1.344 0-.083 1.576.596 3.419 1.094 6.156.498 2.737-.057 7.257-2.344 12.594-.747 1.742.599 1.075 1.594-.75 2.446-4.485 8.543-9.42 14.625-13.844 1.181-.858.94-1.731-.719-1.344-1.659.387-2.55 1.719-4.375 1.719-.611 0-1.267.015-1.156-1.312.11-1.327 1.757-4.423 3.25-6.469.657-.902.489-1.295 0-1.251"/><path d="m150.13 212.65l1.95 6.174m2.06-7.344l1.728 6.24m2.605-6.953l1.187 6.365m2.833-7.169l1.27 6.349m3.886-6.858l1.033 6.392m4.451-6.385l1.112 6.378m4.242-8.189l.804 6.425m4.233-6.1l.804 6.425m4.07-7.07l.804 6.425m4.089-6.93l.442 6.46m4.786-6.462l.383 6.463m4.358-6.79l.327 6.466m4.9-6.792l.271 6.469m5.74-6.631l.271 6.469m79.04.177l-1.95 6.174m-2.061-7.344l-1.728 6.24m-2.604-6.953l-1.187 6.365m-2.833-7.169l-1.27 6.349m-3.886-6.858l-1.033 6.392m-4.452-6.385l-1.112 6.378m-4.241-8.189l-.804 6.425m-4.233-6.1l-.804 6.425m-4.071-7.07l-.804 6.425m-4.088-6.93l-.442 6.46m-4.787-6.462l-.383 6.463m-4.357-6.79l-.327 6.466m-4.9-6.792l-.271 6.469m-5.741-6.631l-.271 6.469m-7.202-6.89v7.123" fill="#ffd83d" stroke="#000" stroke-linejoin="round" stroke-linecap="round" stroke-width="1.5"/></svg>