<svg xmlns="http://www.w3.org/2000/svg" viewBox="0 0 1200 600" enable-background="new 0 0 1200 600"><path fill="#ffb700" d="m0 0h1200v600h-1200z"/><path d="M50,300L215,50h165v500H215L50,300z" fill="#ff5b00"/><path fill="#005641" d="m50 50h165v500h-165z"/><path fill="#8d2029" d="m430 50h725v500h-725z"/><g stroke="#000"><g fill="#ffb700"><g stroke-width="2.126"><path d="m1086.1 466.06c0 0 6.798 13.841 14.309 19.48 11.128 8.356 33.945 7.752 43.629 17.5 11.604 11.495-.9 26.682-.796 28l.636 8.02c0 0-7.824.094-11.12.608-4.954.772-6.886 4.803-16.11 4.205-23.19-1.505-22.254-22.397-23.566-40.25-1.165-6.798-3.859-15.662-5.391-22.458-1.312-5.829-1.593-15.11-1.593-15.11z"/><path d="m498.9 466.06c0 0-6.798 13.841-14.309 19.48-11.128 8.356-33.945 7.752-43.629 17.5-11.604 11.495.9 26.682.796 28l-.636 8.02c0 0 7.824.094 11.12.608 4.954.772 6.886 4.803 16.11 4.205 23.19-1.505 22.254-22.397 23.566-40.25 1.165-6.798 3.859-15.662 5.391-22.458 1.312-5.829 1.593-15.11 1.593-15.11z"/><path d="m1086.1 133.94c0 0 6.798-13.841 14.309-19.48 11.128-8.356 33.945-7.752 43.629-17.5 11.604-11.495-.9-26.682-.796-28l.636-8.02c0 0-7.824-.094-11.12-.608-4.954-.772-6.886-4.803-16.11-4.205-23.19 1.505-22.254 22.397-23.566 40.25-1.165 6.798-3.859 15.662-5.391 22.458-1.312 5.829-1.593 15.11-1.593 15.11z"/><path d="m498.9 133.94c0 0-6.798-13.841-14.309-19.48-11.128-8.356-33.945-7.752-43.629-17.5-11.604-11.495.9-26.682.796-28l-.636-8.02c0 0 7.824-.094 11.12-.608 4.954-.772 6.886-4.803 16.11-4.205 23.19 1.505 22.254 22.397 23.566 40.25 1.165 6.798 3.859 15.662 5.391 22.458 1.312 5.829 1.593 15.11 1.593 15.11z"/></g><g stroke-width="5.56"><path d="m681.54 479.56l4.359-2.517 1.865 2.522c2.485 3.359 9.359 3.322 13.921-.077l3.488-2.599 2.921 2.599c3.84 3.417 11.01 3.421 15.591.012 3.206-2.388 3.653-2.436 5.773-.619 1.264 1.083 4.97 2.316 8.237 2.74 5.883.764 5.972.722 9.414-4.442 2.883-4.324 3.333-6.075 2.646-10.269-.456-2.781-.947-7.256-1.091-9.945-.261-4.869-.233-4.9 6.86-7.37 3.917-1.364 8.451-3.193 10.08-4.065 2.833-1.52 10.643-10.699 10.643-12.508 0-.479-3.051-1.214-6.78-1.632-14.833-1.664-17.345-9.629-7.702-24.423 15.725-24.13 25.22-47.625 25.278-62.59.029-6.691.409-8.937 1.269-7.482 3.513 5.946-2.781 30.877-12.316 48.78l-3.839 7.209 3.664-.843c2.01-.464 13.861-5.462 26.325-11.11 34.12-15.451 45.833-18.479 67.911-17.549 18.497.779 26.374 4.393 39.434 18.09 6.919 7.257 13.583 12.449 25.775 20.08 25.975 16.259 27.06 17.667 28.29 36.788 1.252 19.373.629 20.424-14.02 23.661-12.524 2.767-20.375 8.605-22.481 16.717-1.125 4.332 1.242 4.457 7.556.398l4.628-2.974 2.058 2.974c2.705 3.91 8.455 3.926 13.23.036l3.607-2.938 3.687 2.938c5.729 4.565 13.347 3.458 15.497-2.252.413-1.098 1.516-.746 3.75 1.195 4.185 3.637 14.914 5.198 16.07 2.338.442-1.091-.398-3.786-1.867-5.989-6.242-9.36-8.195-13.823-8.276-18.918-.113-7.086 2-10.505 10.06-16.268 9.791-7 12.816-16.03 5.371-16.03-4.597 0-9.232-4.063-12.187-10.686-6.01-13.461-4.83-28.552 4.187-53.657 9.159-25.5 10.175-30.2 10.211-47.26.03-13.789-.318-16.17-3.455-23.734-1.918-4.622-5.81-11.505-8.649-15.294l-5.161-6.89 6.627-5.49c20.234-16.763 16.1-44.2-8.263-54.769-7.452-3.234-9.313-3.519-22.372-3.432-7.834.053-19.78 1.084-26.546 2.291-6.899 1.231-18.575 2.22-26.585 2.253-12.725.051-14.885-.263-19.789-2.873-5.113-2.722-5.99-4.01-6.991-10.305-.206-1.293-1.11-2.583-2.01-2.867-1.739-.548-9.771 6.422-10.958 9.51-.585 1.523-1.063 1.418-2.781-.613-1.141-1.349-2.733-4.449-3.539-6.888-2.027-6.135.462-10.735 7.674-14.181l5.595-2.674-3.299-2.047c-6.808-4.225-18.385-1.335-22.572 5.635-1.184 1.971-2.476 3.588-2.871 3.592-.394.003-2.646-1.876-5-4.18-8.79-8.589-5.767-21.297 5.991-25.18 6.27-2.069 11.818-.491 12.972 3.69 1.762 6.383 7.241-2.01 6.258-9.584-.653-5.04-.555-5.212 2.93-5.212 4.847 0 15.16 6.362 18.356 11.319 3.706 5.757 3.437 14.823-.642 21.58l-3.203 5.305 4.189-.839c6.143-1.23 12.11-5.04 15.13-9.672 3.192-4.891 3.535-14.416.705-19.555-2.743-4.981-2.428-5.772 1.627-4.089 6.897 2.863 10.584 6.02 13.35 11.431 2.491 4.873 2.63 6.084 1.281 11.156-.832 3.129-2.683 7.246-4.114 9.149-2.227 2.963-2.303 3.459-.529 3.459 3.305 0 10.206-3.128 12.658-5.737 1.238-1.318 3.044-4.564 4.01-7.213l1.761-4.816 2.023 3.671c2.861 5.191 8.422 9.863 15.204 12.77 7.293 3.126 10.33 3.303 6.516.378-2.572-1.972-7.311-15.878-5.875-17.238.845-.8 10.747 6.819 22.05 16.968 10.695 9.601 17.415 12.746 27.24 12.746 12.548 0 19.854-10.923 14.214-21.251-3.288-6.02-10.613-6.858-14.896-1.701-1.97 2.371-2.51 4.258-1.933 6.745.707 3.047.431 3.453-2.345 3.453-3.647 0-10.837-4.666-23.606-15.321-19.471-16.248-43.13-30.02-60.21-35.05-10.963-3.228-34.383-4.488-45.528-2.449-12.06 2.207-26.329 9.11-34.1 16.499-13.772 13.09-13.991 30.518-.581 46.38l3.841 4.545-2.601 4.04c-3.783 5.876-3.459 13.785.803 19.61 1.877 2.566 3.771 4.664 4.208 4.662.437-.001.917-1.651 1.065-3.665.376-5.097 2.564-8.511 6.318-9.863 3.382-1.218 5.568-.643 21.05 5.538 16.289 6.501 43.08 6.948 71.56 1.194 13.964-2.821 30.43-2.655 37.674.38 13.279 5.563 16.357 20.04 6.596 31.02-4.226 4.756-8.301 6.693-21.983 10.448-10.412 2.858-12.878 3.047-36.543 2.811-20.22-.202-27.484.186-35.737 1.91-8.96 1.871-14.471 2.059-40.79 1.396l-30.431-.767 3.375 2.794c1.856 1.537 4.478 3.428 5.827 4.202 2.295 1.317 2.219 1.494-1.193 2.759-2 .743-6.455 1.352-9.889 1.352h-6.243l-.84 5.306c-.462 2.918-.427 6.325.078 7.571.745 1.838.467 2.102-1.47 1.398-1.313-.477-4.97-1.416-8.127-2.086-3.156-.67-7.405-2.034-9.442-3.03-3.425-1.677-3.805-1.632-5.067.6-1.126 1.993-11.702 9.864-13.254 9.864-.25 0-.574-1.518-.718-3.372s-1.67-6.684-3.39-10.731c-1.72-4.047-3.516-8.462-3.991-9.811-.717-2.035-1.041-2.139-1.906-.613-.573 1.012-1.41 3.771-1.859 6.132-.449 2.361-2.043 6.196-3.541 8.522l-2.724 4.23-1.737-3.617c-1.865-3.883-4.961-7.909-6.083-7.909-.378 0-1.023 1.242-1.432 2.759-.855 3.169-8.197 11.957-9.99 11.957-.66 0-1.201-2.483-1.201-5.519s-.583-5.519-1.295-5.519-1.295.785-1.295 1.745c0 2.333-6.271 9.292-8.374 9.292-.918 0-2.394.828-3.281 1.84-2.312 2.638-4.203 2.268-3.231-.632.456-1.36.159-4.533-.658-7.05-.818-2.519-1.688-5.2-1.932-5.957-.309-.954-2.556-.701-7.312.824-7.685 2.464-10.261 2.028-6.309-1.068 1.445-1.132 3.643-5.05 4.884-8.711 1.241-3.659 3.073-6.906 4.07-7.215 1.396-.433 1.322.102-.324 2.327-1.175 1.589-2.14 3.732-2.145 4.762 0 1.03-.889 3.473-1.966 5.428-1.077 1.955-1.753 3.748-1.504 3.984.249.236 3.174-.875 6.498-2.468l6.04-2.898.025 2.592c.014 1.426.742 5.188 1.619 8.359l1.594 5.767 4.114-1.891c4.205-1.933 8.187-8.822 8.187-14.164 0-2.641 1.513-2.235 2.132.571.182.824 1.131 3.915 2.11 6.869l1.779 5.372 2.817-3.392c1.549-1.865 3.492-5.524 4.316-8.131 1.432-4.525 3.679-6.471 3.679-3.185 0 2.368 6.462 10.861 7.709 10.131.603-.353 1.802-3.54 2.666-7.083 1.797-7.369 4.695-12.38 6.537-11.302.693.405.962 1.192.599 1.748-.363.556 1.125 5.347 3.307 10.646 2.182 5.299 4.373 10.634 4.869 11.856.797 1.963 1.517 1.678 6.195-2.453 2.911-2.571 5.553-5.449 5.871-6.395.481-1.431 1.13-1.379 3.852.311 3.807 2.362 16.605 6.168 17.593 5.232.37-.351.75-3.712.844-7.469l.17-6.832 3.68.763c2.024.42 6.281.394 9.458-.057l5.778-.821-5.149-3.533c-2.832-1.943-5.696-4.457-6.364-5.587-.711-1.204-3.232-2.226-6.087-2.469-7.715-.656-21.388-8.324-21.388-11.996 0-.689 1.894.483 4.208 2.604 5.135 4.707 12.269 7.661 18.499 7.661h4.662l-2.884-3.836c-1.657-2.203-3.143-6.383-3.491-9.822-.556-5.481-1.135-6.353-6.858-10.331-3.438-2.39-7.696-5.972-9.462-7.96l-3.212-3.615-1.639 4.292c-.901 2.361-2 4.292-2.448 4.292-.445 0-2.178-1.38-3.85-3.066-1.673-1.686-3.377-3.06-3.787-3.052-.41.007-1.892 2.279-3.293 5.05l-2.547 5.03-1.968-2.901c-1.083-1.596-3.64-4.419-5.683-6.274-2.043-1.855-3.117-3.372-2.388-3.372.73 0 3.251 1.932 5.603 4.294l4.276 4.294 1.74-3.146c1.033-1.867 1.42-4.735.952-7.05-.682-3.38-.586-3.576.71-1.455.824 1.349 3.326 3.935 5.56 5.747l4.062 3.295 2.803-5.134c2.789-5.109 2.809-5.119 4.078-2.068 1.697 4.081 13.98 14.15 24.437 20.03 1.612.907.932-2.211-2.044-9.381-.788-1.899-1.433-5.322-1.433-7.607 0-3.39-.978-4.899-5.314-8.198-6.259-4.763-8.284-8.15-9.463-15.835-.478-3.113-1.573-6.575-2.434-7.694-1.277-1.66-1.488-.731-1.147 5.05.23 3.894-.276 8.736-1.126 10.759l-1.544 3.679-1.194-3.066c-.657-1.686-3.56-4.619-6.453-6.517-2.893-1.898-4.923-3.769-4.512-4.159.411-.39 3.387 1.34 6.613 3.844 4.915 3.814 5.997 4.227 6.678 2.547.8-1.974-.001-10.562-1.546-16.563-.771-2.997-.704-2.981 2.993.716 2.727 2.726 4.234 5.978 5.402 11.65 1.484 7.207 2.232 8.407 8.896 14.258 4 3.514 7.484 6.191 7.739 5.95.255-.241.76-9.331 1.122-20.2.695-20.841-.091-25.8-5.11-32.24l-2.579-3.309 4.054-4.373c5.289-5.704 7.717-10.277 8.77-16.515l.857-5.075-4.575 4.333c-3.746 3.548-5.535 4.333-9.874 4.333-4.297 0-5.975-.72-8.87-3.805-3.474-3.702-9.63-7.263-15.549-8.997-2.187-.64-2.914-.361-2.914 1.118 0 1.084-1.208 4.213-2.684 6.954l-2.684 4.983-5.624-5.559c-3.45-3.41-7.544-6.06-10.589-6.864-7.781-2.046-8.202-1.843-8.202 3.954 0 8.793-3.754 10.431-10.511 4.587-5.151-4.455-9.424-5.424-19.19-4.35l-7.544.829 1.357 3.405c1.134 2.845.878 4.04-1.551 7.273-3.94 5.24-9.06 7.51-16.948 7.51-3.632 0-8.177.752-10.1 1.67-1.923.919-6.702 1.977-10.619 2.352-3.917.375-8.092 1.044-9.278 1.487-1.855.693-2.059.122-1.461-4.098.915-6.458-3.596-11.222-10.627-11.222-9.122 0-13.329 8.159-9.757 18.922.688 2.071 1.587 5.338 1.999 7.259.427 1.993 4.536 7.283 9.569 12.318 4.851 4.854 9.435 9.904 10.188 11.223.753 1.319 3.241 3.436 5.529 4.704l4.161 2.306-.549-4.452c-.603-4.893.463-5.66 3.066-2.208.931 1.234 3.294 3.229 5.253 4.433 3.085 1.897 3.561 1.935 3.561.288 0-1.045.629-3.454 1.398-5.353l1.398-3.452 2.425 4.697c1.334 2.583 5.671 8.455 9.639 13.05 7.699 8.912 12.389 18.871 9.968 21.16-.982.93-3.636.858-9.138-.248-4.265-.857-9.539-1.31-11.722-1.01-4.457.62-4.808.044-2.067-3.388 2.893-3.623 2.433-4.22-3.251-4.22-6.576 0-22.901-3.152-29.17-5.632-6.093-2.411-7.499-1.811-9.293 3.969-.807 2.601-2.285 7.314-3.284 10.474l-1.817 5.744 6.593-.635c3.626-.349 8.29-1.143 10.364-1.764 2.074-.621 3.959-.951 4.189-.734.23.218-.695 2.462-2.054 4.988l-2.472 4.592 4.11-.838c2.261-.461 5.662-1.589 7.558-2.506 3.3-1.596 3.565-1.48 6.168 2.697 3.201 5.138 5.761 4.927 6.329-.522.587-5.633 2.44-4.799 5.925 2.664 3.352 7.177 6.839 9.711 7.508 5.457.222-1.413 2.028-3.712 4.01-5.11 4.01-2.828 7.04-1.979 8.772 2.46 1.795 4.595-2.208 9.332-13.853 16.391-23.327 14.14-36.886 33.479-40.757 58.13-3.492 22.23 7.413 45.21 29.29 61.708 10.469 7.897 27.1 16.231 26.04 13.05-4.488-13.505-4.34-39.27.25-43.621.689-.652.452 2.036-.527 5.975-3.645 14.672-2.062 26.363 7.282 53.763 8.451 24.782 7.281 35.37-4.679 42.37-3.841 2.248-6.315 2.619-16.643 2.494-11.207-.136-12.428.09-16.03 2.956-3.488 2.78-8.01 11.906-8.01 16.17 0 2.307 2.562 2 7.597-.905h.01z"/><path d="m863.45 479.06l4.701-3.02 3.19 3.02c4.18 3.958 9.08 3.87 13.09-.237 1.754-1.792 3.328-3.034 3.499-2.759.171.274.953 1.603 1.738 2.952.993 1.708 3.036 2.566 6.722 2.826 4.442.313 5.634-.116 7.399-2.667l2.104-3.041 4.628 2.974c12.669 8.143 19.42-.4 13.758-17.411-2.879-8.65-1.296-13.512 7.983-24.521 3.913-4.642 7.118-9.597 7.122-11.01 0-2.254-.724-2.556-5.931-2.453-4.983.099-6.441-.436-9.06-3.323-4.266-4.697-4.01-10.07.756-16.04l3.81-4.768-6.76-4.587c-3.718-2.523-10.422-8.492-14.899-13.265-10.05-10.719-19.939-15.802-32.975-16.955l-8.74-.773.013 6.616c.017 8.517 4.01 16.71 14.924 30.588 12.405 15.779 13.271 18.222 13.774 38.846l.425 17.442-3.59 3.406c-3.244 3.077-4.706 3.47-15.173 4.074-9.964.575-12.06 1.089-14.982 3.679-3.884 3.44-5.04 5.312-6.244 10.06-.699 2.769-.416 3.372 1.583 3.372 1.339 0 4.549-1.36 7.135-3.02v-.002z"/><path d="m596.82 433.98c1.109-1.499 2.02-3.92 2.02-5.379 0-2.205.985-2.794 5.831-3.482l5.831-.828-3.889-3.099c-4.62-3.682-5.05-6.558-.975-6.565 4.056 0 10.925-4.212 11.969-7.328.485-1.448.18-3.383-.69-4.377-2.274-2.595-6.549-2.203-7.343.672-.853 3.091-2.282 3.099-5.522.031-4.873-4.615-4.983-14.169-.226-19.732 2.242-2.622 2.222-2.794-.636-5.5-3.075-2.912-5.27-8.675-3.826-10.04.46-.435 2.889-.088 5.398.771 3.566 1.221 4.973 1.24 6.442.085 4.45-3.497-.371-7.994-7.507-7-2.872.399-4.058 0-4.471-1.49-.312-1.13-2.824-2.605-5.654-3.32-5.057-1.278-5.093-1.263-5.093 2.221 0 3.818-2.179 4.538-6.321 2.089-3.365-1.99-6.629-.445-6.629 3.138 0 3.343 3.362 4.992 9.388 4.604 4.622-.298 4.794 3.139.404 8.08l-3.157 3.553 2.501 3.593c3.704 5.321 3.392 14.158-.654 18.547l-3.172 3.441-2.081-2.759c-2.892-3.835-6.848-3.578-7.932.515-.71 2.68-.123 3.905 3.233 6.745 2.255 1.909 5.549 3.47 7.318 3.47 4.378 0 4.207 3.443-.344 6.922l-3.561 2.722 5.503.854c3.03.47 5.503 1.353 5.503 1.963 0 2.339 3.814 9.615 5.04 9.615.708 0 2.195-1.227 3.303-2.726h.003z"/><path d="m668.48 402.92c5-1.971 15.821-11.134 15.821-13.398 0-.712-2.987-3.997-6.637-7.3-7.682-6.951-16.04-18.657-18.204-25.501-1.129-3.569-6.584-9.678-21.951-24.581l-20.448-19.832-5.893 1.493c-3.241.821-7.196 1.513-8.789 1.537-2.744.042-2.694.199.954 3.02l3.849 2.979 5.396-2.995c5.23-2.903 5.417-2.921 6.06-.585.378 1.368-.437 3.738-1.883 5.479-1.402 1.688-2.2 3.602-1.775 4.255.426.652-.921 2.02-2.993 3.03-3.84 1.88-6.505 8.07-3.475 8.07 2.726 0 8.737-7.417 8.04-9.926-.355-1.285-.183-2.606.381-2.936 2.341-1.37 2.195 4.453-.184 7.317-1.402 1.688-2.2 3.602-1.775 4.255.426.652-.921 2.02-2.993 3.03-3.815 1.868-6.507 8.07-3.503 8.07 2.944 0 8.857-7.087 8.124-9.739-.383-1.387-.235-2.793.33-3.123 1.577-.923 2.427 3.674 1.096 5.926-.713 1.207-.706 2.854.017 4.16 1.31 2.366-.018 6.911-2.432 8.323-1.034.605-.334 1.794 2.175 3.689 3.631 2.742 3.701 3.03 3.701 15.13 0 10.112.408 12.722 2.266 14.482 2.085 1.975 2.266 1.983 2.266.088 0-2.069 3.632-4.598 6.603-4.598.876 0 6.352 4.64 12.167 10.312 5.851 5.706 11.973 10.561 13.707 10.87 1.723.307 3.589.634 4.146.726.558.089 3.181-.69 5.829-1.734z"/><path d="m605.96 354c0-3.26-6.724-6.739-14.767-7.642-6.493-.728-6.6-.687-6.6 2.556 0 2.685 1.021 3.741 5.503 5.693 7.203 3.136 15.864 2.805 15.864-.607z"/><path d="m613.33 353.7c3.28-2.976 4.834-6.516 2.861-6.516-2.269 0-8.293 5.405-8.293 7.442 0 3.179 1.118 2.988 5.432-.926z"/><path d="m606.34 344.06c.278-1.839-.86-3.067-4.27-4.607-7.356-3.322-16.15-4.861-18.268-3.196-3.901 3.066-1.302 7.183 5 7.923 2.538.298 5.98 1.072 7.648 1.72 4.846 1.883 9.454 1.025 9.887-1.84z"/><path d="m606.34 334.21c.396-2.624-1.282-3.563-14.978-8.383-10.225-3.599-14.752-1.902-11.484 4.306 1.138 2.162 3.049 3.15 7.334 3.792 3.187.477 7.543 1.41 9.679 2.074 5.708 1.771 9.01 1.147 9.449-1.789z"/><path d="m613.2 324.98c2.067-2.095 3.757-4.567 3.757-5.494 0-3.01-8.161 2.312-9.202 5.996-1.247 4.419.776 4.233 5.445-.502z"/><path d="m606.34 324.36c.451-2.989-4.52-5.688-14.294-7.762-7.171-1.522-10.334-.659-9.797 2.674.293 1.819 2.681 3.148 9.457 5.263 10.843 3.383 14.1 3.344 14.634-.175z"/><path d="m615.9 310.45c12.525-5.576 13.608-19.635 1.798-23.326-4.904-1.533-8.03-.707-9.911 2.615-1.437 2.543-.476 7.168 1.49 7.168.664 0 1.208.856 1.208 1.902 0 4.882-19.12 7.094-26.965 3.119-2.755-1.396-3.955-5.02-1.662-5.02 1.713 0 2.898-3.694 2.023-6.306-1.193-3.559-4.78-4.792-9.983-3.432-11.74 3.07-11.41 16.865.543 22.719 9.8 4.8 31.29 5.092 41.459.562z"/><path d="m608.11 299.64c.725-.687.41-1.742-.806-2.698-2.663-2.093-2.521-5.206.4-8.769 2.193-2.676 2.467-6.68 3.222-47.07 1.301-69.61 6.477-121.97 13.3-134.53 2.716-5 2.335-5.02-4.684-.245-9.04 6.152-15.926 14.163-22.03 25.631-11.516 21.651-15.518 50.78-15.518 112.96 0 35.31.241 39.924 2.252 43.24 1.91 3.152 2.01 4.316.67 7.683-.87 2.182-1.265 4.268-.877 4.635 2.571 2.435 21.302 1.789 24.07-.83v-.006z"/><path d="m713.34 233.26c.392-.601-.475-3.636-1.926-6.745-2.263-4.847-3.175-5.652-6.4-5.652-10.1 0-26.341-4.514-43.08-11.976-9.668-4.309-13.01-5.299-14.166-4.201-2.958 2.801 1.958 9.451 9.571 12.946 6.754 3.101 25.635 6.911 34.25 6.911 4.997 0 5.115.225 2.271 4.335l-2.091 3.02 5.652.145c3.109.08 7.4.566 9.537 1.081 5.549 1.337 5.601 1.338 6.388.133h-.001z"/></g></g><g stroke-width="5.56"><path d="m772.35 264.63c0-1.799-5.284-6.675-10.638-9.817-4.205-2.467-4.899-2.542-4.909-.53-.014 3.055-2.731 10.731-3.798 10.731-.602 0-1.491-1.5-1.977-3.333-.486-1.833-2.524-5.446-4.529-8.03l-3.646-4.696-2.839 4.351c-2.647 4.056-7.232 8.03-9.266 8.03-.486 0-.581-2.136-.211-4.746.402-2.836.092-5.086-.771-5.591-.794-.465-1.443-.302-1.443.36 0 1.528-6.367 8.751-7.714 8.751-.555 0-1.332-2.069-1.727-4.599-.395-2.529-1.066-6.53-1.491-8.891-.425-2.361.481-.76 2.01 3.558l2.788 7.85 3.058-4.784c1.682-2.631 3.061-5.506 3.064-6.389 0-.883.573-1.274 1.264-.869.691.405 1.654 3.568 2.139 7.03l.881 6.293 3.365-3.689c1.851-2.029 4.02-4.745 4.819-6.04 1.427-2.304 1.508-2.302 4.346.106 1.591 1.349 4.04 4.576 5.435 7.17 1.398 2.595 2.73 4.526 2.958 4.292.229-.234.741-2.909 1.139-5.944.398-3.035.753-5.631.789-5.769.198-.752 10.135 5.707 13.812 8.978 2.363 2.102 4.607 3.528 4.987 3.168.38-.36.691-3.461.691-6.892 0-5.317-.564-6.742-3.815-9.648-3.739-3.342-3.844-3.361-5.225-.916-1.793 3.173-3.908 3.219-3.908.085 0-2.288-7.07-11.08-8.904-11.08-.477 0-1.965 1.932-3.307 4.292-1.342 2.361-2.786 4.29-3.208 4.287-1.812-.011-11.774-11.12-11.769-13.12 0-1.594.671-1.187 2.418 1.476 1.327 2.023 3.978 5.04 5.89 6.713 3.873 3.379 5.281 2.557 6.776-3.954.426-1.855 1.166-3.372 1.644-3.372 1.656 0 10.327 9.21 11.547 12.264l1.224 3.066.927-3.372c1.134-4.124 2.385-4.277 4.196-.514.756 1.572 4.492 4.84 8.301 7.263l6.926 4.405 1.39-4.43c.765-2.437 1.777-3.837 2.251-3.112.706 1.082-1.094 8.423-2.453 10-.204.237-2.448-1.07-4.987-2.905l-4.617-3.335-.018 5.971c-.013 3.284-.369 7.212-.799 8.73-.842 2.964-3.071 3.799-3.071 1.146z"/><path d="m737.82 217.03c-8.231-6.872-9.481-8.445-9.299-11.702l.194-3.467.537 3.348c.314 1.955 2.506 4.885 5.269 7.04l4.732 3.694 2.908-3.363c1.599-1.85 2.929-4.053 2.954-4.896.067-2.198.462-2.01 6.03 2.822 4.951 4.296 5.03 4.317 5.765 1.533.41-1.552.265-4.474-.324-6.493-1.618-5.55-1.301-6.387 1.151-3.04 1.221 1.668 3.185 4.03 4.364 5.239 2.052 2.113 2.177 2.087 2.941-.613.439-1.551.806-4.39.815-6.309l.018-3.488 4.464 5.061c4.17 4.727 4.554 4.902 5.827 2.649.75-1.326 1.372-4.517 1.382-7.091.014-3.325.364-4.164 1.21-2.898 1.412 2.114.432 7.87-2.176 12.775l-1.871 3.52-2.457-3.826c-3.142-4.893-4.188-4.814-6.204.466-1.905 4.99-3.144 5.37-5 1.533-1.201-2.483-1.43-2.179-2.283 3.037l-.948 5.797-5.679-4.407-5.679-4.407-2.553 2.902c-1.404 1.596-2.572 3.592-2.596 4.435-.049 1.828-1.414 1.885-3.497.147z"/><path d="m811.04 191.43c-2.996-2.699-5.06-5.275-4.587-5.723.473-.448 1.01-.577 1.185-.285.178.291 2.627 2.867 5.442 5.723 6.482 6.576 5.15 6.762-2.04.285z"/><path d="m713.51 181.35c-2.726-3.685-2.537-6.127.78-10.121 2.397-2.886 3.492-3.278 7.679-2.746 2.685.341 8.464 2.714 12.841 5.272 5.05 2.955 10.285 4.935 14.335 5.427 3.507.426 6.376.587 6.376.357s-1.457-2.603-3.237-5.274c-4.228-6.343-4.083-7.02.686-3.224 4.895 3.901 10.751 5.04 23.836 4.644l6.393-.194-3.709-3.666c-5.187-5.127-3.591-5.587 2.138-.616 5.372 4.663 5.04 4.991-6.271 6.12-4.805.48-9.972.132-14.267-.96-6.426-1.634-6.675-1.609-5.458.545.702 1.241 1.838 2.257 2.525 2.257.687 0 1.25.629 1.25 1.398 0 2.364-13.879.285-20.511-3.073-15.15-7.671-17.06-8.336-20.664-7.199-2.01.632-4.01 2.483-4.707 4.338-2.309 6.187 6.466 10.997 10.09 5.527 1.049-1.585.804-2.67-1.04-4.599-2.525-2.642-2.288-3.02 1.12-1.78 2.42.879 2.745 6.689.494 8.821-2.577 2.439-8.455 1.749-10.674-1.254z"/><path d="m773.19 166.07c-1.895-1.794-.409-2.234 8.09-2.392 10.508-.196 16.89-1.947 24.42-6.701 6.03-3.809 7.669-3.059 1.942.89-5.224 3.603-13.372 6.372-21.239 7.219-3.809.41-8.151.978-9.647 1.262-1.497.285-3.099.159-3.561-.278z"/></g></g><g fill="#ffb700"><path d="m681.54 479.56l4.359-2.517 1.865 2.522c2.485 3.359 9.359 3.322 13.921-.077l3.488-2.599 2.921 2.599c3.84 3.417 11.01 3.421 15.591.012 3.206-2.388 3.653-2.436 5.773-.619 1.264 1.083 4.97 2.316 8.237 2.74 5.883.764 5.972.722 9.414-4.442 2.883-4.324 3.333-6.075 2.646-10.269-.456-2.781-.947-7.256-1.091-9.945-.261-4.869-.233-4.9 6.86-7.37 3.917-1.364 8.451-3.193 10.08-4.065 2.833-1.52 10.643-10.699 10.643-12.508 0-.479-3.051-1.214-6.78-1.632-14.833-1.664-17.345-9.629-7.702-24.423 15.725-24.13 25.22-47.625 25.278-62.59.029-6.691.409-8.937 1.269-7.482 3.513 5.946-2.781 30.877-12.316 48.78l-3.839 7.209 3.664-.843c2.01-.464 13.861-5.462 26.325-11.11 34.12-15.451 45.833-18.479 67.911-17.549 18.497.779 26.374 4.393 39.434 18.09 6.919 7.257 13.583 12.449 25.775 20.08 25.975 16.259 27.06 17.667 28.29 36.788 1.252 19.373.629 20.424-14.02 23.661-12.524 2.767-20.375 8.605-22.481 16.717-1.125 4.332 1.242 4.457 7.556.398l4.628-2.974 2.058 2.974c2.705 3.91 8.455 3.926 13.23.036l3.607-2.938 3.687 2.938c5.729 4.565 13.347 3.458 15.497-2.252.413-1.098 1.516-.746 3.75 1.195 4.185 3.637 14.914 5.198 16.07 2.338.442-1.091-.398-3.786-1.867-5.989-6.242-9.36-8.195-13.823-8.276-18.918-.113-7.086 2-10.505 10.06-16.268 9.791-7 12.816-16.03 5.371-16.03-4.597 0-9.232-4.063-12.187-10.686-6.01-13.461-4.83-28.552 4.187-53.657 9.159-25.5 10.175-30.2 10.211-47.26.03-13.789-.318-16.17-3.455-23.734-1.918-4.622-5.81-11.505-8.649-15.294l-5.161-6.89 6.627-5.49c20.234-16.763 16.1-44.2-8.263-54.769-7.452-3.234-9.313-3.519-22.372-3.432-7.834.053-19.78 1.084-26.546 2.291-6.899 1.231-18.575 2.22-26.585 2.253-12.725.051-14.885-.263-19.789-2.873-5.113-2.722-5.99-4.01-6.991-10.305-.206-1.293-1.11-2.583-2.01-2.867-1.739-.548-9.771 6.422-10.958 9.51-.585 1.523-1.063 1.418-2.781-.613-1.141-1.349-2.733-4.449-3.539-6.888-2.027-6.135.462-10.735 7.674-14.181l5.595-2.674-3.299-2.047c-6.808-4.225-18.385-1.335-22.572 5.635-1.184 1.971-2.476 3.588-2.871 3.592-.394.003-2.646-1.876-5-4.18-8.79-8.589-5.767-21.297 5.991-25.18 6.27-2.069 11.818-.491 12.972 3.69 1.762 6.383 7.241-2.01 6.258-9.584-.653-5.04-.555-5.212 2.93-5.212 4.847 0 15.16 6.362 18.356 11.319 3.706 5.757 3.437 14.823-.642 21.58l-3.203 5.305 4.189-.839c6.143-1.23 12.11-5.04 15.13-9.672 3.192-4.891 3.535-14.416.705-19.555-2.743-4.981-2.428-5.772 1.627-4.089 6.897 2.863 10.584 6.02 13.35 11.431 2.491 4.873 2.63 6.084 1.281 11.156-.832 3.129-2.683 7.246-4.114 9.149-2.227 2.963-2.303 3.459-.529 3.459 3.305 0 10.206-3.128 12.658-5.737 1.238-1.318 3.044-4.564 4.01-7.213l1.761-4.816 2.023 3.671c2.861 5.191 8.422 9.863 15.204 12.77 7.293 3.126 10.33 3.303 6.516.378-2.572-1.972-7.311-15.878-5.875-17.238.845-.8 10.747 6.819 22.05 16.968 10.695 9.601 17.415 12.746 27.24 12.746 12.548 0 19.854-10.923 14.214-21.251-3.288-6.02-10.613-6.858-14.896-1.701-1.97 2.371-2.51 4.258-1.933 6.745.707 3.047.431 3.453-2.345 3.453-3.647 0-10.837-4.666-23.606-15.321-19.471-16.248-43.13-30.02-60.21-35.05-10.963-3.228-34.383-4.488-45.528-2.449-12.06 2.207-26.329 9.11-34.1 16.499-13.772 13.09-13.991 30.518-.581 46.38l3.841 4.545-2.601 4.04c-3.783 5.876-3.459 13.785.803 19.61 1.877 2.566 3.771 4.664 4.208 4.662.437-.001.917-1.651 1.065-3.665.376-5.097 2.564-8.511 6.318-9.863 3.382-1.218 5.568-.643 21.05 5.538 16.289 6.501 43.08 6.948 71.56 1.194 13.964-2.821 30.43-2.655 37.674.38 13.279 5.563 16.357 20.04 6.596 31.02-4.226 4.756-8.301 6.693-21.983 10.448-10.412 2.858-12.878 3.047-36.543 2.811-20.22-.202-27.484.186-35.737 1.91-8.96 1.871-14.471 2.059-40.79 1.396l-30.431-.767 3.375 2.794c1.856 1.537 4.478 3.428 5.827 4.202 2.295 1.317 2.219 1.494-1.193 2.759-2 .743-6.455 1.352-9.889 1.352h-6.243l-.84 5.306c-.462 2.918-.427 6.325.078 7.571.745 1.838.467 2.102-1.47 1.398-1.313-.477-4.97-1.416-8.127-2.086-3.156-.67-7.405-2.034-9.442-3.03-3.425-1.677-3.805-1.632-5.067.6-1.126 1.993-11.702 9.864-13.254 9.864-.25 0-.574-1.518-.718-3.372s-1.67-6.684-3.39-10.731c-1.72-4.047-3.516-8.462-3.991-9.811-.717-2.035-1.041-2.139-1.906-.613-.573 1.012-1.41 3.771-1.859 6.132-.449 2.361-2.043 6.196-3.541 8.522l-2.724 4.23-1.737-3.617c-1.865-3.883-4.961-7.909-6.083-7.909-.378 0-1.023 1.242-1.432 2.759-.855 3.169-8.197 11.957-9.99 11.957-.66 0-1.201-2.483-1.201-5.519s-.583-5.519-1.295-5.519-1.295.785-1.295 1.745c0 2.333-6.271 9.292-8.374 9.292-.918 0-2.394.828-3.281 1.84-2.312 2.638-4.203 2.268-3.231-.632.456-1.36.159-4.533-.658-7.05-.818-2.519-1.688-5.2-1.932-5.957-.309-.954-2.556-.701-7.312.824-7.685 2.464-10.261 2.028-6.309-1.068 1.445-1.132 3.643-5.05 4.884-8.711 1.241-3.659 3.073-6.906 4.07-7.215 1.396-.433 1.322.102-.324 2.327-1.175 1.589-2.14 3.732-2.145 4.762 0 1.03-.889 3.473-1.966 5.428-1.077 1.955-1.753 3.748-1.504 3.984.249.236 3.174-.875 6.498-2.468l6.04-2.898.025 2.592c.014 1.426.742 5.188 1.619 8.359l1.594 5.767 4.114-1.891c4.205-1.933 8.187-8.822 8.187-14.164 0-2.641 1.513-2.235 2.132.571.182.824 1.131 3.915 2.11 6.869l1.779 5.372 2.817-3.392c1.549-1.865 3.492-5.524 4.316-8.131 1.432-4.525 3.679-6.471 3.679-3.185 0 2.368 6.462 10.861 7.709 10.131.603-.353 1.802-3.54 2.666-7.083 1.797-7.369 4.695-12.38 6.537-11.302.693.405.962 1.192.599 1.748-.363.556 1.125 5.347 3.307 10.646 2.182 5.299 4.373 10.634 4.869 11.856.797 1.963 1.517 1.678 6.195-2.453 2.911-2.571 5.553-5.449 5.871-6.395.481-1.431 1.13-1.379 3.852.311 3.807 2.362 16.605 6.168 17.593 5.232.37-.351.75-3.712.844-7.469l.17-6.832 3.68.763c2.024.42 6.281.394 9.458-.057l5.778-.821-5.149-3.533c-2.832-1.943-5.696-4.457-6.364-5.587-.711-1.204-3.232-2.226-6.087-2.469-7.715-.656-21.388-8.324-21.388-11.996 0-.689 1.894.483 4.208 2.604 5.135 4.707 12.269 7.661 18.499 7.661h4.662l-2.884-3.836c-1.657-2.203-3.143-6.383-3.491-9.822-.556-5.481-1.135-6.353-6.858-10.331-3.438-2.39-7.696-5.972-9.462-7.96l-3.212-3.615-1.639 4.292c-.901 2.361-2 4.292-2.448 4.292-.445 0-2.178-1.38-3.85-3.066-1.673-1.686-3.377-3.06-3.787-3.052-.41.007-1.892 2.279-3.293 5.05l-2.547 5.03-1.968-2.901c-1.083-1.596-3.64-4.419-5.683-6.274-2.043-1.855-3.117-3.372-2.388-3.372.73 0 3.251 1.932 5.603 4.294l4.276 4.294 1.74-3.146c1.033-1.867 1.42-4.735.952-7.05-.682-3.38-.586-3.576.71-1.455.824 1.349 3.326 3.935 5.56 5.747l4.062 3.295 2.803-5.134c2.789-5.109 2.809-5.119 4.078-2.068 1.697 4.081 13.98 14.15 24.437 20.03 1.612.907.932-2.211-2.044-9.381-.788-1.899-1.433-5.322-1.433-7.607 0-3.39-.978-4.899-5.314-8.198-6.259-4.763-8.284-8.15-9.463-15.835-.478-3.113-1.573-6.575-2.434-7.694-1.277-1.66-1.488-.731-1.147 5.05.23 3.894-.276 8.736-1.126 10.759l-1.544 3.679-1.194-3.066c-.657-1.686-3.56-4.619-6.453-6.517-2.893-1.898-4.923-3.769-4.512-4.159.411-.39 3.387 1.34 6.613 3.844 4.915 3.814 5.997 4.227 6.678 2.547.8-1.974-.001-10.562-1.546-16.563-.771-2.997-.704-2.981 2.993.716 2.727 2.726 4.234 5.978 5.402 11.65 1.484 7.207 2.232 8.407 8.896 14.258 4 3.514 7.484 6.191 7.739 5.95.255-.241.76-9.331 1.122-20.2.695-20.841-.091-25.8-5.11-32.24l-2.579-3.309 4.054-4.373c5.289-5.704 7.717-10.277 8.77-16.515l.857-5.075-4.575 4.333c-3.746 3.548-5.535 4.333-9.874 4.333-4.297 0-5.975-.72-8.87-3.805-3.474-3.702-9.63-7.263-15.549-8.997-2.187-.64-2.914-.361-2.914 1.118 0 1.084-1.208 4.213-2.684 6.954l-2.684 4.983-5.624-5.559c-3.45-3.41-7.544-6.06-10.589-6.864-7.781-2.046-8.202-1.843-8.202 3.954 0 8.793-3.754 10.431-10.511 4.587-5.151-4.455-9.424-5.424-19.19-4.35l-7.544.829 1.357 3.405c1.134 2.845.878 4.04-1.551 7.273-3.94 5.24-9.06 7.51-16.948 7.51-3.632 0-8.177.752-10.1 1.67-1.923.919-6.702 1.977-10.619 2.352-3.917.375-8.092 1.044-9.278 1.487-1.855.693-2.059.122-1.461-4.098.915-6.458-3.596-11.222-10.627-11.222-9.122 0-13.329 8.159-9.757 18.922.688 2.071 1.587 5.338 1.999 7.259.427 1.993 4.536 7.283 9.569 12.318 4.851 4.854 9.435 9.904 10.188 11.223.753 1.319 3.241 3.436 5.529 4.704l4.161 2.306-.549-4.452c-.603-4.893.463-5.66 3.066-2.208.931 1.234 3.294 3.229 5.253 4.433 3.085 1.897 3.561 1.935 3.561.288 0-1.045.629-3.454 1.398-5.353l1.398-3.452 2.425 4.697c1.334 2.583 5.671 8.455 9.639 13.05 7.699 8.912 12.389 18.871 9.968 21.16-.982.93-3.636.858-9.138-.248-4.265-.857-9.539-1.31-11.722-1.01-4.457.62-4.808.044-2.067-3.388 2.893-3.623 2.433-4.22-3.251-4.22-6.576 0-22.901-3.152-29.17-5.632-6.093-2.411-7.499-1.811-9.293 3.969-.807 2.601-2.285 7.314-3.284 10.474l-1.817 5.744 6.593-.635c3.626-.349 8.29-1.143 10.364-1.764 2.074-.621 3.959-.951 4.189-.734.23.218-.695 2.462-2.054 4.988l-2.472 4.592 4.11-.838c2.261-.461 5.662-1.589 7.558-2.506 3.3-1.596 3.565-1.48 6.168 2.697 3.201 5.138 5.761 4.927 6.329-.522.587-5.633 2.44-4.799 5.925 2.664 3.352 7.177 6.839 9.711 7.508 5.457.222-1.413 2.028-3.712 4.01-5.11 4.01-2.828 7.04-1.979 8.772 2.46 1.795 4.595-2.208 9.332-13.853 16.391-23.327 14.14-36.886 33.479-40.757 58.13-3.492 22.23 7.413 45.21 29.29 61.708 10.469 7.897 27.1 16.231 26.04 13.05-4.488-13.505-4.34-39.27.25-43.621.689-.652.452 2.036-.527 5.975-3.645 14.672-2.062 26.363 7.282 53.763 8.451 24.782 7.281 35.37-4.679 42.37-3.841 2.248-6.315 2.619-16.643 2.494-11.207-.136-12.428.09-16.03 2.956-3.488 2.78-8.01 11.906-8.01 16.17 0 2.307 2.562 2 7.597-.905h.01"/><path d="m863.45 479.06l4.701-3.02 3.19 3.02c4.18 3.958 9.08 3.87 13.09-.237 1.754-1.792 3.328-3.034 3.499-2.759.171.274.953 1.603 1.738 2.952.993 1.708 3.036 2.566 6.722 2.826 4.442.313 5.634-.116 7.399-2.667l2.104-3.041 4.628 2.974c12.669 8.143 19.42-.4 13.758-17.411-2.879-8.65-1.296-13.512 7.983-24.521 3.913-4.642 7.118-9.597 7.122-11.01 0-2.254-.724-2.556-5.931-2.453-4.983.099-6.441-.436-9.06-3.323-4.266-4.697-4.01-10.07.756-16.04l3.81-4.768-6.76-4.587c-3.718-2.523-10.422-8.492-14.899-13.265-10.05-10.719-19.939-15.802-32.975-16.955l-8.74-.773.013 6.616c.017 8.517 4.01 16.71 14.924 30.588 12.405 15.779 13.271 18.222 13.774 38.846l.425 17.442-3.59 3.406c-3.244 3.077-4.706 3.47-15.173 4.074-9.964.575-12.06 1.089-14.982 3.679-3.884 3.44-5.04 5.312-6.244 10.06-.699 2.769-.416 3.372 1.583 3.372 1.339 0 4.549-1.36 7.135-3.02v-.002"/><path d="m596.82 433.98c1.109-1.499 2.02-3.92 2.02-5.379 0-2.205.985-2.794 5.831-3.482l5.831-.828-3.889-3.099c-4.62-3.682-5.05-6.558-.975-6.565 4.056 0 10.925-4.212 11.969-7.328.485-1.448.18-3.383-.69-4.377-2.274-2.595-6.549-2.203-7.343.672-.853 3.091-2.282 3.099-5.522.031-4.873-4.615-4.983-14.169-.226-19.732 2.242-2.622 2.222-2.794-.636-5.5-3.075-2.912-5.27-8.675-3.826-10.04.46-.435 2.889-.088 5.398.771 3.566 1.221 4.973 1.24 6.442.085 4.45-3.497-.371-7.994-7.507-7-2.872.399-4.058 0-4.471-1.49-.312-1.13-2.824-2.605-5.654-3.32-5.057-1.278-5.093-1.263-5.093 2.221 0 3.818-2.179 4.538-6.321 2.089-3.365-1.99-6.629-.445-6.629 3.138 0 3.343 3.362 4.992 9.388 4.604 4.622-.298 4.794 3.139.404 8.08l-3.157 3.553 2.501 3.593c3.704 5.321 3.392 14.158-.654 18.547l-3.172 3.441-2.081-2.759c-2.892-3.835-6.848-3.578-7.932.515-.71 2.68-.123 3.905 3.233 6.745 2.255 1.909 5.549 3.47 7.318 3.47 4.378 0 4.207 3.443-.344 6.922l-3.561 2.722 5.503.854c3.03.47 5.503 1.353 5.503 1.963 0 2.339 3.814 9.615 5.04 9.615.708 0 2.195-1.227 3.303-2.726h.003"/><path d="m668.48 402.92c5-1.971 15.821-11.134 15.821-13.398 0-.712-2.987-3.997-6.637-7.3-7.682-6.951-16.04-18.657-18.204-25.501-1.129-3.569-6.584-9.678-21.951-24.581l-20.448-19.832-5.893 1.493c-3.241.821-7.196 1.513-8.789 1.537-2.744.042-2.694.199.954 3.02l3.849 2.979 5.396-2.995c5.23-2.903 5.417-2.921 6.06-.585.378 1.368-.437 3.738-1.883 5.479-1.402 1.688-2.2 3.602-1.775 4.255.426.652-.921 2.02-2.993 3.03-3.84 1.88-6.505 8.07-3.475 8.07 2.726 0 8.737-7.417 8.04-9.926-.355-1.285-.183-2.606.381-2.936 2.341-1.37 2.195 4.453-.184 7.317-1.402 1.688-2.2 3.602-1.775 4.255.426.652-.921 2.02-2.993 3.03-3.815 1.868-6.507 8.07-3.503 8.07 2.944 0 8.857-7.087 8.124-9.739-.383-1.387-.235-2.793.33-3.123 1.577-.923 2.427 3.674 1.096 5.926-.713 1.207-.706 2.854.017 4.16 1.31 2.366-.018 6.911-2.432 8.323-1.034.605-.334 1.794 2.175 3.689 3.631 2.742 3.701 3.03 3.701 15.13 0 10.112.408 12.722 2.266 14.482 2.085 1.975 2.266 1.983 2.266.088 0-2.069 3.632-4.598 6.603-4.598.876 0 6.352 4.64 12.167 10.312 5.851 5.706 11.973 10.561 13.707 10.87 1.723.307 3.589.634 4.146.726.558.089 3.181-.69 5.829-1.734"/><path d="m605.96 354c0-3.26-6.724-6.739-14.767-7.642-6.493-.728-6.6-.687-6.6 2.556 0 2.685 1.021 3.741 5.503 5.693 7.203 3.136 15.864 2.805 15.864-.607"/><path d="m613.33 353.7c3.28-2.976 4.834-6.516 2.861-6.516-2.269 0-8.293 5.405-8.293 7.442 0 3.179 1.118 2.988 5.432-.926"/><path d="m606.34 344.06c.278-1.839-.86-3.067-4.27-4.607-7.356-3.322-16.15-4.861-18.268-3.196-3.901 3.066-1.302 7.183 5 7.923 2.538.298 5.98 1.072 7.648 1.72 4.846 1.883 9.454 1.025 9.887-1.84"/><path d="m606.34 334.21c.396-2.624-1.282-3.563-14.978-8.383-10.225-3.599-14.752-1.902-11.484 4.306 1.138 2.162 3.049 3.15 7.334 3.792 3.187.477 7.543 1.41 9.679 2.074 5.708 1.771 9.01 1.147 9.449-1.789"/><path d="m613.2 324.98c2.067-2.095 3.757-4.567 3.757-5.494 0-3.01-8.161 2.312-9.202 5.996-1.247 4.419.776 4.233 5.445-.502"/><path d="m606.34 324.36c.451-2.989-4.52-5.688-14.294-7.762-7.171-1.522-10.334-.659-9.797 2.674.293 1.819 2.681 3.148 9.457 5.263 10.843 3.383 14.1 3.344 14.634-.175"/><path d="m615.9 310.45c12.525-5.576 13.608-19.635 1.798-23.326-4.904-1.533-8.03-.707-9.911 2.615-1.437 2.543-.476 7.168 1.49 7.168.664 0 1.208.856 1.208 1.902 0 4.882-19.12 7.094-26.965 3.119-2.755-1.396-3.955-5.02-1.662-5.02 1.713 0 2.898-3.694 2.023-6.306-1.193-3.559-4.78-4.792-9.983-3.432-11.74 3.07-11.41 16.865.543 22.719 9.8 4.8 31.29 5.092 41.459.562"/><path d="m608.11 299.64c.725-.687.41-1.742-.806-2.698-2.663-2.093-2.521-5.206.4-8.769 2.193-2.676 2.467-6.68 3.222-47.07 1.301-69.61 6.477-121.97 13.3-134.53 2.716-5 2.335-5.02-4.684-.245-9.04 6.152-15.926 14.163-22.03 25.631-11.516 21.651-15.518 50.78-15.518 112.96 0 35.31.241 39.924 2.252 43.24 1.91 3.152 2.01 4.316.67 7.683-.87 2.182-1.265 4.268-.877 4.635 2.571 2.435 21.302 1.789 24.07-.83v-.006"/><path d="m713.34 233.26c.392-.601-.475-3.636-1.926-6.745-2.263-4.847-3.175-5.652-6.4-5.652-10.1 0-26.341-4.514-43.08-11.976-9.668-4.309-13.01-5.299-14.166-4.201-2.958 2.801 1.958 9.451 9.571 12.946 6.754 3.101 25.635 6.911 34.25 6.911 4.997 0 5.115.225 2.271 4.335l-2.091 3.02 5.652.145c3.109.08 7.4.566 9.537 1.081 5.549 1.337 5.601 1.338 6.388.133h-.001"/></g><path d="m772.35 264.63c0-1.799-5.284-6.675-10.638-9.817-4.205-2.467-4.899-2.542-4.909-.53-.014 3.055-2.731 10.731-3.798 10.731-.602 0-1.491-1.5-1.977-3.333-.486-1.833-2.524-5.446-4.529-8.03l-3.646-4.696-2.839 4.351c-2.647 4.056-7.232 8.03-9.266 8.03-.486 0-.581-2.136-.211-4.746.402-2.836.092-5.086-.771-5.591-.794-.465-1.443-.302-1.443.36 0 1.528-6.367 8.751-7.714 8.751-.555 0-1.332-2.069-1.727-4.599-.395-2.529-1.066-6.53-1.491-8.891-.425-2.361.481-.76 2.01 3.558l2.788 7.85 3.058-4.784c1.682-2.631 3.061-5.506 3.064-6.389 0-.883.573-1.274 1.264-.869.691.405 1.654 3.568 2.139 7.03l.881 6.293 3.365-3.689c1.851-2.029 4.02-4.745 4.819-6.04 1.427-2.304 1.508-2.302 4.346.106 1.591 1.349 4.04 4.576 5.435 7.17 1.398 2.595 2.73 4.526 2.958 4.292.229-.234.741-2.909 1.139-5.944.398-3.035.753-5.631.789-5.769.198-.752 10.135 5.707 13.812 8.978 2.363 2.102 4.607 3.528 4.987 3.168.38-.36.691-3.461.691-6.892 0-5.317-.564-6.742-3.815-9.648-3.739-3.342-3.844-3.361-5.225-.916-1.793 3.173-3.908 3.219-3.908.085 0-2.288-7.07-11.08-8.904-11.08-.477 0-1.965 1.932-3.307 4.292-1.342 2.361-2.786 4.29-3.208 4.287-1.812-.011-11.774-11.12-11.769-13.12 0-1.594.671-1.187 2.418 1.476 1.327 2.023 3.978 5.04 5.89 6.713 3.873 3.379 5.281 2.557 6.776-3.954.426-1.855 1.166-3.372 1.644-3.372 1.656 0 10.327 9.21 11.547 12.264l1.224 3.066.927-3.372c1.134-4.124 2.385-4.277 4.196-.514.756 1.572 4.492 4.84 8.301 7.263l6.926 4.405 1.39-4.43c.765-2.437 1.777-3.837 2.251-3.112.706 1.082-1.094 8.423-2.453 10-.204.237-2.448-1.07-4.987-2.905l-4.617-3.335-.018 5.971c-.013 3.284-.369 7.212-.799 8.73-.842 2.964-3.071 3.799-3.071 1.146"/><path d="m737.82 217.03c-8.231-6.872-9.481-8.445-9.299-11.702l.194-3.467.537 3.348c.314 1.955 2.506 4.885 5.269 7.04l4.732 3.694 2.908-3.363c1.599-1.85 2.929-4.053 2.954-4.896.067-2.198.462-2.01 6.03 2.822 4.951 4.296 5.03 4.317 5.765 1.533.41-1.552.265-4.474-.324-6.493-1.618-5.55-1.301-6.387 1.151-3.04 1.221 1.668 3.185 4.03 4.364 5.239 2.052 2.113 2.177 2.087 2.941-.613.439-1.551.806-4.39.815-6.309l.018-3.488 4.464 5.061c4.17 4.727 4.554 4.902 5.827 2.649.75-1.326 1.372-4.517 1.382-7.091.014-3.325.364-4.164 1.21-2.898 1.412 2.114.432 7.87-2.176 12.775l-1.871 3.52-2.457-3.826c-3.142-4.893-4.188-4.814-6.204.466-1.905 4.99-3.144 5.37-5 1.533-1.201-2.483-1.43-2.179-2.283 3.037l-.948 5.797-5.679-4.407-5.679-4.407-2.553 2.902c-1.404 1.596-2.572 3.592-2.596 4.435-.049 1.828-1.414 1.885-3.497.147"/><path d="m811.04 191.43c-2.996-2.699-5.06-5.275-4.587-5.723.473-.448 1.01-.577 1.185-.285.178.291 2.627 2.867 5.442 5.723 6.482 6.576 5.15 6.762-2.04.285"/><path d="m713.51 181.35c-2.726-3.685-2.537-6.127.78-10.121 2.397-2.886 3.492-3.278 7.679-2.746 2.685.341 8.464 2.714 12.841 5.272 5.05 2.955 10.285 4.935 14.335 5.427 3.507.426 6.376.587 6.376.357s-1.457-2.603-3.237-5.274c-4.228-6.343-4.083-7.02.686-3.224 4.895 3.901 10.751 5.04 23.836 4.644l6.393-.194-3.709-3.666c-5.187-5.127-3.591-5.587 2.138-.616 5.372 4.663 5.04 4.991-6.271 6.12-4.805.48-9.972.132-14.267-.96-6.426-1.634-6.675-1.609-5.458.545.702 1.241 1.838 2.257 2.525 2.257.687 0 1.25.629 1.25 1.398 0 2.364-13.879.285-20.511-3.073-15.15-7.671-17.06-8.336-20.664-7.199-2.01.632-4.01 2.483-4.707 4.338-2.309 6.187 6.466 10.997 10.09 5.527 1.049-1.585.804-2.67-1.04-4.599-2.525-2.642-2.288-3.02 1.12-1.78 2.42.879 2.745 6.689.494 8.821-2.577 2.439-8.455 1.749-10.674-1.254"/><path d="m773.19 166.07c-1.895-1.794-.409-2.234 8.09-2.392 10.508-.196 16.89-1.947 24.42-6.701 6.03-3.809 7.669-3.059 1.942.89-5.224 3.603-13.372 6.372-21.239 7.219-3.809.41-8.151.978-9.647 1.262-1.497.285-3.099.159-3.561-.278"/></svg>