<svg xmlns="http://www.w3.org/2000/svg" viewBox="0 0 640 480"><g fill-rule="evenodd"><path stroke-width="1.25" fill="#fff" d="m0 0h640v480h-640z"/><g stroke-width="1.298" transform="matrix(1.3415 0 0 1.0076-3.912-35.91)"><path d="m479.6 510.93l.4-475.29-477.08 476.36 476.68-1.07" fill="#3662a2"/><path d="m479.6 511.76l-.24-319.66-319.28 319.9 319.52-.24" fill="#38a100"/></g><g fill="#826006" transform="matrix(1.3302 0 0 1.3302-14.159-67.827)"><path d="m117.49 84.38c1.425.468 7.333 16.404 7.584 29.359 1.88 6.883 3.794 7.376 3.225 16.391-.877 4.844-2.843 4.063-2.467 8.267-.215 2.532 4.728 3.876 8.02 5.04 2.15.448 2.518 1.131 4.897.641 3.138-1.129 9.506-14.314 9.506-14.314-6.357-19.72 8.788-26.851 17.722-21.17 8.934 5.684 11.657 24.18-9.523 26.07-3.443 4.514-4.659 5.532-7.731 10.836-1 2.351-1.35 3.732-.051 4.274 22.09 11.392 36.31 37.13 39.27 56.29 1.063 4.22.531 7.535-1.064 10.488-3.308 5.546-9.1 5.485-13.11 4.701-2.304-1.085-9.05-9.755-9.228-14.796-.797-5.605-1.887-11.05-8.887-18.55-4.785-3.948-11.867-3.036-14.526.52-3.781 5.184-2.951 10.1-1.327 14.647 7.326 13.14 10.873 23.414 18.199 36.554 1.92 5.484.384 10.608-.886 11.663-1.713 1.718-3.592 3.073-6.103 2.44-1.182-.542-4.685-2.983-5.781-1.627-1.157 1.808.761 3.526 1.115 4.611 4.844 7.956 10.142 20.245 13.72 28.711 3.721 6.6-.817 10.791-4.717 5.728-7.443-14.465-11.823-23.876-19.267-38.34-2.185-4.841-5.384-10.06-8.176-12.731-1.915-1.918-8.752-3.196-10.414-2.813-1.349.076-1.446 1.048-1.417 2.531-.355 18.444-.082 37.02-.437 55.46.168 3.237-2.706 5.135-3.916 4.92-2.246-71.847-1.997-145.94 5.778-215.8z" stroke-width="1.244"/><path d="m117.47 84.27c-1.439.468-.94.935-1.746 2.17-1.391 1.417-1.179 3.346-1.432 5.786 0 0-5.472 4.292-5.726 8.234-1.898 6.882 1.79 22.14 1.79 22.14.886 4.844.38 9.176 0 13.38-.358 2.532-1.431 4.34-3.758 5.786-3.46 2.351-7.276 1.989-10.915 1.809 0 0-2.863-.724-3.221-1.085-.358-.362-8.231-18.806-8.231-18.806 5.607-.723 10.497-.722 16.1-1.446-11.09-7.233-22.367-14.647-33.461-21.88-.835 13.14-.954 27.364-1.789 40.504 3.101-3.857 6.919-9.161 10.02-13.02 3.102 5.304 4.951 11.15 8.05 16.454 1.014 2.351.596 4.883-.715 5.425-22.307 11.391-36.03 35.08-39.01 54.25-1.074 4.219-.537 7.535 1.074 10.488 3.34 5.545 9.185 5.484 13.241 4.701 2.326-1.085 5.189-5.333 5.458-9.403.805-5.605 1.789-16.636 8.857-24.14 4.831-3.948 12.884-2.291 15.568 1.266 3.818 5.183 3.251 10.457 1.61 15.01-7.397 13.14-14.434 25.828-21.83 38.967-1.938 5.485-.388 10.608.895 11.663 1.73 1.719 4.801 2.712 7.337 2.08 1.193-.543 2.743-.904 3.578 0 .627 1.266-.715 2.17-1.073 3.255-4.891 7.956-9.782 15.912-14.672 23.868-3.758 6.6 2.505 11.573 6.442 6.51 7.515-14.466 13.891-26.25 21.407-40.712 2.462-4.841 4.164-7.38 9.283-9.279 1.551-.512 4.494-1.023 6.171-.64 1.362.077 1.46 1.048 1.431 2.532.358 18.443.083 37.02.441 55.46-.17 3.237 2.191 4.683 3.413 4.468 2.267-71.847 3.141-143.95 5.408-215.8z" stroke-width="1.25"/></g></g></svg>