<svg xmlns="http://www.w3.org/2000/svg" viewBox="0 0 640 480" xmlns:xlink="http://www.w3.org/1999/xlink"><defs><path id="0" d="m283.46 574.02c.417 0 17.716-17.717 17.716-17.717l17.717 17.717s17.716-17.717 17.716-17.717l17.717 17.717" fill="none"/><path id="1" d="m301.39 539.27l-.208 176.48" fill="none"/></defs><g fill-rule="evenodd" stroke-width="1.25" transform="scale(1.25.9375)"><path fill="#00319c" d="m0 0h170.67v512h-170.67z"/><path fill="#ffde00" d="m170.67 0h170.67v512h-170.67z"/><path fill="#de2110" d="m341.33 0h170.67v512h-170.67z"/></g><g transform="matrix(1.2303 0 0 1.2303 4.069-75.14)"><path d="m289.61 321.48s18.628 26.877 19.724 28.458c1.096 1.581 2.192 3.162.537 4.209-1.655 1.047-1.118 5.257-.022 6.837 2.192 3.162 4.942 3.696 6.597 2.649 1.654-1.047 13.236-8.377 14.89-9.424 1.655-1.047 2.214-3.675.022-6.837-1.258-1.594-4.942-3.696-6.597-2.649-1.654 1.047-2.75-.534-3.846-2.115-1.096-1.581-17.533-25.296-19.724-28.458" fill-rule="evenodd" stroke="#000" stroke-width=".556" fill="#ff1900"/><path d="m177.17 696.26c0 24.461-9.518 44.29-21.26 44.29-11.741 0-21.26-19.83-21.26-44.29s9.518-44.29 21.26-44.29c11.741 0 21.26 19.83 21.26 44.29z" fill-rule="evenodd" transform="matrix(.42858-.34452.36055.40954-29.658 77.26)" stroke="#000" stroke-width="2.54" fill="#a77b3b" id="2"/><g stroke="#000"><g fill-rule="evenodd"><path d="m209.61 309.91l-17.413 29.803c-.968 1.656-1.935 3.312-3.667 2.387-1.733-.925-5.401 1.463-6.368 3.118-1.935 3.312-1.17 5.892.563 6.816 1.733.924 13.862 7.395 15.594 8.32 1.733.925 4.433.193 6.368-3.118.905-1.799 1.17-5.892-.563-6.816-1.733-.924-.765-2.58.202-4.236.967-1.656 15.478-26.492 17.413-29.803" stroke-width=".556" fill="#ff1900"/><g fill="#a77b3b" stroke-width="1.391"><path d="m265.87 289.13h-15.876c-.525.502-5.04 28.935-9.922 39.822-5.953 13.274-23.783 24.987-23.783 24.987s10.682 3.235 13.861 5.353c.79-.222 17.83-3.792 19.814-24.652 1.985 20.86-11.876 30.341-11.876 30.341s19.845 5.689 19.845 18.963c0-13.274 19.845-18.963 19.845-18.963s-9.954-9.481-11.938-30.341c3.969 20.86 19.08 24.43 19.876 24.652 3.178-2.118 13.861-5.353 13.861-5.353s-17.83-11.713-23.783-24.987c-4.883-10.887-9.397-39.32-9.922-39.822z"/><path d="m198.37 194.3l29.768 9.481c9.922 0 19.845-9.471 19.845-18.953.33-21.09-7.938-28.454-9.923-28.454l3.969-3.793-5.953-5.689s1.99-9.838 21.829-9.472c19.838.367 19.845 9.482 19.845 18.963 0 9.482-9.922 9.482-9.922 28.445 0 9.482 9.922 18.963 19.845 18.963l29.768-9.481v94.81h-119.07v-94.82z"/></g></g><g fill="none" transform="matrix(.56007 0 0 .53518 9.841-55.998)"><path d="m302.16 292.24l14.645 14.964 14.644-14.964 14.645 14.964 29.29-14.964 14.261 15.809 15.03-15.809 21.605 15.809 22.329-15.809 14.645 14.964 14.645-14.964" transform="matrix(.24195 0 0 .71037 345 267.2)" stroke-width=".49"/><g stroke-width=".203"><path d="m432.28 435.83c0 0-7.086 38.976-7.086 38.976"/><path d="m435.83 435.83v38.976"/><path d="m442.91 435.83v38.976"/><path d="m450 435.83c0 0 3.543 38.976 3.543 38.976"/><path d="m457.09 435.83l3.543 38.976"/></g></g><g stroke-width="2.54" transform="matrix(.56007 0 0 .53518 9.841-55.998)"><path d="m318.9 361.42c35.433 17.717 35.433 53.15 35.433 70.866-1.251 16.12 0 354.33 0 354.33s-2.306-20.02-17.717-35.433l-17.716-17.716-17.717-17.717c-12.951-11.774-17.716-35.433-17.716-53.15v-248.03s0-17.717 35.433-53.15z" fill-rule="evenodd" transform="matrix(-1 0 0 1 620.08 0)" fill="#a77b3b" id="7"/><use transform="matrix(-1 0 0 1 620.08-141.73)" xlink:href="#0"/><use transform="matrix(-1 0 0-1 620.08 1024)" xlink:href="#0"/><use transform="matrix(-1 0 0 1 620.08-70.866)" xlink:href="#0"/><path d="m301.39 556.99l-.208 158.76" transform="matrix(-1 0 0 1.8971 620.08-642.07)" fill="none" id="8"/><use transform="matrix(-1 0 0 1.7027 602.57-485.94)" xlink:href="#1"/><use transform="matrix(-1 0 0 1.9074 584.85-614.03)" xlink:href="#1"/><use transform="matrix(-1 0 0 1 885.83 0)" xlink:href="#7"/><use transform="translate(265.75-141.73)" xlink:href="#0"/><use transform="matrix(1 0 0-1 265.75 1024)" xlink:href="#0"/><use transform="translate(265.75-70.866)" xlink:href="#0"/><use transform="matrix(-1 0 0 1 885.83 0)" xlink:href="#8"/><use transform="matrix(1 0 0 1.7027 283.26-485.94)" xlink:href="#1"/><use transform="matrix(1 0 0 1.9074 300.97-614.03)" xlink:href="#1"/></g></g><use transform="matrix(.45879.84905-.92988.45877 375.69-83.48)" xlink:href="#2"/><g transform="matrix(.56007 0 0 .53518 9.841-55.998)"><g fill-rule="evenodd"><path stroke-width="1.25" fill="#f00" d="m336.61 485.43h212.6v106.3h-212.6z"/><path d="m336.61 591.73h212.6v53.15c0 35.433-53.15 35.433-106.3 70.866-53.15-35.433-106.3-35.433-106.3-70.866v-53.15" stroke-width="2.5" fill="#564dff"/></g><path d="m336.61 485.43h212.6v159.45c.002 35.433-53.15 35.433-106.3 70.866-53.15-35.433-106.3-35.433-106.3-70.866v-159.45z" stroke="#ff0" stroke-width="2.032" fill="none"/><path d="m385.59 129.9s-50.618 55.45-50.618 108.6c0 53.15 53.15 70.866 53.15 70.866s-17.717 0-17.717 70.866c0 35.433 53.15 17.717 53.15 35.433 0 17.717-.751 60.58 0 88.58 0 17.716-35.433 0-35.433 17.716 0 8.859 26.575 53.15 53.15 53.15 26.574 0 53.15-44.29 53.15-53.15 0-17.716-35.433 0-35.433-17.716v-88.58c0-17.716 53.15 0 53.15-35.433 0-70.866-17.717-70.866-17.717-70.866s53.15-17.717 53.15-70.866-50.619-108.6-50.619-108.6c0-.001 28.473 73.16 28.473 108.6 0 17.717-13.287 53.15-48.72 53.15 0 0-8.961-17.716-17.717 0 0 0-10.189-17.716-17.716 0-2.598 6.115-7.207-17.716-17.717 0-4.465 4.697-7.984-17.716-17.717 0-17.716 0-53.15-17.716-53.15-53.15 0-35.433 32.902-108.6 32.902-108.6z" fill-rule="evenodd" transform="matrix(.7 0 0 .46956 134.02 431.52)" stroke="#000" stroke-width="2.448" fill="#ff0"/><path d="m382.68 248.03c-3.543 3.543 4.581 61.27 7.087 63.779 3.543 3.543 24.803 3.543 28.346 0 2.525-2.525 0-56.693-3.543-60.24-3.543-3.544-29.384-6.05-31.89-3.543z" fill-rule="evenodd" transform="matrix(.7 0 0 .46956 136.69 524.92)" stroke="#000" stroke-width="2.448" fill="#ff0" id="4"/><use transform="matrix(-1 0 0 1 885.83 0)" xlink:href="#4"/><path d="m414.57 228.54c0 8.806-7.139 15.945-15.945 15.945-8.806 0-15.945-7.139-15.945-15.945 0-8.806 7.139-15.945 15.945-15.945 8.806 0 15.945 7.139 15.945 15.945z" fill-rule="evenodd" transform="matrix(.80459 0 0 .58536 96.53 497.79)" stroke="#000" stroke-width="2.448" fill="#ff0" id="5"/><use transform="translate(51.31-.009)" xlink:href="#5"/><g fill-rule="evenodd"><g stroke-width=".486"><path d="m465.24 685.77c0 2.297-2.776 4.16-6.201 4.16-3.425 0-6.201-1.862-6.201-4.16 0-2.297 2.776-4.16 6.201-4.16 3.425 0 6.201 1.862 6.201 4.16"/><path d="m432.99 685.77c0 2.297-2.776 4.16-6.201 4.16-3.425 0-6.201-1.862-6.201-4.16 0-2.297 2.776-4.16 6.201-4.16 3.425 0 6.201 1.862 6.201 4.16"/></g><path transform="matrix(.97561 0 0 .97561 14.26 16.248)" stroke="#000" stroke-width="1.016" fill="#ff0" d="m439.37 549.92l-7.78-10.26-12.77 1.75 1.76-12.76-10.26-7.78 10.26-7.79-1.76-12.76 12.77 1.76 7.78-10.27 7.78 10.27 12.77-1.76-1.76 12.76 10.26 7.79-10.26 7.78 1.76 12.76-12.77-1.75z"/></g><path d="m496.06 591.73l21.26 10.63 21.26-10.63-21.26-10.63-21.26 10.63z" fill-rule="evenodd" stroke="#000" stroke-width="1.016" fill="#ff0" id="6"/><use transform="translate(-152.36)" xlink:href="#6"/><g fill="#ff0" fill-rule="evenodd" stroke="#000" stroke-width="1.016"><path d="m529.04 655.17c-6.601-4.38-17.584-2.16-23.729 1.369-6.146 3.529-12.291 7.06-13.14 19.806-7.06-12.29-1.481-23.666 7.848-29.02 9.327-5.357 23.666-1.479 29.02 7.849z"/><path d="m382.68 634.25c0 3.914-3.173 7.087-7.087 7.087s-7.087-3.173-7.087-7.087 3.173-7.087 7.087-7.087 7.087 3.173 7.087 7.087z"/><path d="m375.59 659.06c0 3.914-3.173 7.087-7.087 7.087s-7.087-3.173-7.087-7.087 3.173-7.087 7.087-7.087 7.087 3.173 7.087 7.087z"/><path d="m372.05 644.88c0 3.914-3.173 7.087-7.087 7.087s-7.087-3.173-7.087-7.087 3.173-7.087 7.087-7.087 7.087 3.173 7.087 7.087z"/><path d="m389.76 659.06c0 3.914-3.173 7.087-7.087 7.087s-7.087-3.173-7.087-7.087 3.173-7.087 7.087-7.087 7.087 3.173 7.087 7.087z"/><path d="m393.31 644.88c0 3.914-3.173 7.087-7.087 7.087s-7.087-3.173-7.087-7.087 3.173-7.087 7.087-7.087 7.087 3.173 7.087 7.087z"/><path d="m382.68 648.43c0 3.914-3.173 7.087-7.087 7.087s-7.087-3.173-7.087-7.087 3.173-7.087 7.087-7.087 7.087 3.173 7.087 7.087z"/></g></g><g fill-rule="evenodd" transform="matrix(.56007 0 0 .53518 9.841-55.998)"><path d="m408.67 401.58c-17.883 0-20.248 2.953-28.347 5.907 0-8.15 19.914-17.717 37.797-17.717 0 5.905-4.725 11.812-9.449 11.81" stroke-width="1.429" fill="#da4500"/><path d="m435.83 382.68c0 3.914-3.173 7.087-7.087 7.087s-7.087-3.173-7.087-7.087 3.173-7.087 7.087-7.087 7.087 3.173 7.087 7.087" fill="#cac9c7"/><path d="m361.42 357.87v10.63h17.717v53.15h10.63v-53.15h17.716v-10.63h-17.716v-14.173h-10.63v14.173h-17.717z" stroke="#000" stroke-width="1.016" fill="#ff0"/><path d="m418.09 389.78c-20.862 0-33.07 1.967-42.519 5.904 0-10.867 12.208-23.622 33.07-23.622 4.724 0 9.449 11.811 9.449 17.718" stroke-width="1.667" fill="#da4500"/><path d="m67.32 612.99c-14.173-14.17-16.634-21.36 3.543-10.1l283.75 247.5-3.366 6.968-283.93-244.37z" transform="matrix(.5634.45036-.20424.35982 321.13 327.02)" stroke="#000" stroke-width=".711" fill="#008500"/><g fill="#008f00"><g stroke-width=".353"><path d="m307.99 720.56c1.116-16.08-27.01-33.467-28.12-32.34-1.113 1.129 1.71 10.489 7.04 15.367-10.214-5.506-20.912-8.898-21.14-6.507-.833 3.223 15.873 10.92 17.26 13.893.227 2.125-12.268 1.847-12.04 3.972.227 2.125 35.19 20.614 36.995 5.611z"/><path d="m279.89 673.73c1.116-16.08-27.01-33.467-28.12-32.34-1.113 1.129 1.71 10.489 7.04 15.367-10.214-5.506-20.912-8.898-21.14-6.507-.833 3.223 15.873 10.92 17.26 13.893.227 2.125-12.268 1.847-12.04 3.972.227 2.125 35.19 20.614 36.995 5.611z"/><path d="m258.38 631.21c1.116-16.08-27.01-33.467-28.12-32.34-1.113 1.129 1.71 10.489 7.04 15.367-10.214-5.506-20.912-8.898-21.14-6.507-.833 3.223 15.873 10.92 17.26 13.893.227 2.125-12.268 1.847-12.04 3.972.227 2.125 35.19 20.614 36.995 5.611z"/><path d="m237.12 585.14c1.116-16.08-27.01-33.467-28.12-32.34-1.113 1.129 1.71 10.489 7.04 15.367-10.214-5.506-20.912-8.898-21.14-6.507-.833 3.223 15.873 10.92 17.26 13.893.227 2.125-12.268 1.847-12.04 3.972.227 2.125 35.19 20.614 36.995 5.611z"/></g><path d="m244.43 583.05c13.609-8.631 10.944-41.591 9.374-41.817-1.569-.227-7.434 7.595-8.201 14.782-1.62-11.49-5.229-22.12-7.288-20.88-3.09 1.24.614 19.257-.958 22.14-1.577 1.442-8.76-8.786-10.337-7.344-1.577 1.442 4.259 40.564 17.41 33.12" stroke-width=".223"/><path d="m264.14 623.5c15.709-3.592 24.2-35.551 22.797-36.29-1.404-.738-9.543 4.677-12.666 11.196 2.31-11.371 2.455-22.593.102-22.11-3.326.137-5.85 18.357-8.294 20.546-1.968.833-5.324-11.206-7.292-10.373-1.968.833-9.528 39.658 5.353 37.03" stroke-width=".25"/><path d="m287.69 664.87c14.327-7.376 14.626-40.444 13.08-40.809-1.543-.366-8.08 6.898-9.493 13.988-.584-11.589-3.227-22.496-5.387-21.449-3.188.958-1.114 19.235-2.938 21.962-1.7 1.295-7.937-9.535-9.637-8.24-1.7 1.295.607 40.782 14.372 34.547z" stroke-width=".225"/><path d="m313.18 718.89c15-5.889 18.642-38.757 17.14-39.28-1.498-.521-8.741 6.05-10.859 12.956.592-11.589-.934-22.707-3.19-21.884-3.269.631-3.054 19.02-5.144 21.552-1.822 1.116-6.932-10.289-8.754-9.173-1.822 1.117-3.522 40.635 10.803 35.824z" stroke-width=".232"/></g></g><path d="m209.06 775.98c0 7.828-10.312 14.173-23.03 14.173-12.72 0-23.03-6.346-23.03-14.173 0-7.828 10.312-14.173 23.03-14.173 12.72 0 23.03 6.346 23.03 14.173z" fill-rule="evenodd" transform="matrix(.48902.26089-.27302.46728 313.35-58.25)" stroke="#000" stroke-width="1.016" fill="#ff1900" id="3"/><g stroke="#000" fill-rule="evenodd" fill="#ff0" transform="matrix(.40549.12769-.14842.38307 363.63 58.05)"><path d="m155.91 414.57v-7.087h7.086v-7.086h7.087v7.086h7.086v7.087h-7.086v17.716h-7.087v-17.716h-7.086z" stroke-width=".508"/><path stroke-width=".512" d="m162.99 474.8h7.087v205.51h-7.087z"/><g stroke-width=".508"><path d="m159.45 676.77h14.173v56.693h-14.173z"/><path d="m155.91 439.37h21.259c14.174 0-3.543 38.976-3.543 38.976h-14.173s-17.717-38.976-3.543-38.976z"/><path d="m173.62 434.06c0 2.935-3.173 5.315-7.087 5.315s-7.087-2.38-7.087-5.315 3.173-5.315 7.087-5.315 7.087 2.38 7.087 5.315z"/></g></g><use transform="matrix(.45878-.84905.92988.45879-94.73 357.27)" xlink:href="#3"/></g></svg>