<svg xmlns="http://www.w3.org/2000/svg" viewBox="0 0 640 480"><defs><clipPath id="0"><path d="m-85.69-1.46h684.61v513.46h-684.61z"/></clipPath></defs><g clip-path="url(#0)" fill-rule="evenodd" transform="matrix(.93483 0 0 .93483 80.1 1.365)"><path fill="#ed3d00" d="m-126.62-.364h767.07v512h-767.07z"/><g fill="#ffd100"><path d="m-126.59 200.87l.156 109.9 385.87-54.964-386.03-54.936z"/><path d="m-128 512l159.3-.3 228.68-257.41-387.98 257.71"/><path d="m311.72 511.64l-109.9-.103 54.964-253.87 54.936 253.97z"/><path d="m641.24-1.46l-159.3.305-228.69 259.45 387.99-259.75z"/><path d="m201.52 0l109.9.103-54.97 253.87-54.93-253.97z"/><path d="m640.5 511.64l-159.3-.31-228.69-257.41 387.99 257.72"/><path d="m640.5 200.87l-.16 109.9-385.87-54.97 386.03-54.93"/><path d="m-126.96 0l159.3.302 228.69 257.41-387.99-257.71z"/></g><path d="m346.43 255.81c0 48.34-40.14 87.52-89.66 87.52-49.51 0-89.66-39.18-89.66-87.52 0-48.34 40.14-87.52 89.66-87.52 49.51 0 89.66 39.18 89.66 87.52" fill="#ed3d00" stroke-width=".922"/><path d="m339.51 255.81c0 45.41-37.04 82.22-82.73 82.22-45.692 0-82.73-36.81-82.73-82.22 0-45.41 37.04-82.22 82.73-82.22 45.692 0 82.73 36.81 82.73 82.22" fill="#ffd100" stroke-width=".851"/></g></svg>