<svg xmlns="http://www.w3.org/2000/svg" viewBox="0 0 640 480"><defs><clipPath id="0"><path d="m0 0h640v480h-640z"/></clipPath></defs><g fill-rule="evenodd" clip-path="url(#0)"><path fill="#fff" d="m0 0h640v480h-640z"/><g transform="matrix(.9375 0 0 .9375-20.901 0)"><path d="m-5.838.239l.856 368.58 573.98-368.82-574.84.239z" fill="#3662a2"/><path d="m733.09 511.53l-1.347-383.25-578.98 383.54 580.33-.283z" fill="#38a100"/><path d="m-5.468 396.61l.487 115.39 125.25-.16 611.76-410.14-.69-100.32-123.76-1.141-613.05 396.37z" fill="#c70000"/></g><g transform="matrix(.9375 0 0 .9375 75.1 0)"><path transform="matrix(.62436.0238-.025.6244 20.58 22.369)" stroke-width="1.25" fill="#ffe700" d="m223.81 249.35l-37.97-20.97-19.94 38.52-22.39-37.15-36.53 23.4-.82-43.37-43.34 1.99 20.976-37.97-38.53-19.94 37.15-22.39-23.39-36.53 43.37-.82-1.99-43.34 37.97 20.975 19.94-38.53 22.39 37.16 36.53-23.399.82 43.37 43.33-1.99-20.97 37.97 38.52 19.94-37.15 22.39 23.4 36.53-43.37.82z"/><path d="m167.77 119.93c0 27.25-22.261 49.34-49.721 49.34s-49.721-22.09-49.721-49.34 22.261-49.34 49.721-49.34 49.721 22.09 49.721 49.34" fill="#3662a2" stroke-width=".878"/><path d="m156.98 119.93c0 21.5-17.429 38.929-38.929 38.929s-38.929-17.429-38.929-38.929 17.429-38.929 38.929-38.929 38.929 17.429 38.929 38.929" fill="#ffe700" stroke-width=".687"/></g></g></svg>