<svg xmlns="http://www.w3.org/2000/svg" viewBox="0 0 640 480" xmlns:xlink="http://www.w3.org/1999/xlink"><defs><path id="0" d="m519.07 108.73l-22.03-16.2-22.84 15.03 8.6-25.95-21.35-17.08 27.34.16 9.64-25.58 8.31 26.04 27.3 1.27-22.2 15.94z" fill="#fff"/><path id="1" d="m511.2 91.03l-13.47-8.73-12.87 9.59 4.15-15.5-13.11-9.28 16.04-.85 4.77-15.329 5.76 14.983 16.05-.198-12.46 10.112z" fill="#f00"/></defs><g fill-rule="evenodd" stroke-width="1.25"><path fill="#00006a" d="m.004 0h640v480h-640z"/><g transform="matrix(1.342 0 0 1.2608-.001-1.376)"><path d="m64.5 291.57l514.08 508.63h105.45l-502.98-508.39-116.55-.24" transform="matrix(.46237 0 0 .47458-29.823-137.28)" fill="#fff" id="2"/><path d="m105.54 296.01l503.84 506.72 39.21-.619-505.95-506.11h-37.1z" transform="matrix(-.4619 0 0-.47635 317.39 383.47)" fill="#f00"/><use transform="matrix(-1 0 0 1 286.46 0)" xlink:href="#2"/><path d="m105.54 296.01l503.84 506.72 39.21.02-505.95-506.74h-37.1" transform="matrix(-.46172 0 0 .47635 317.32-139.91)" fill="#f00"/><g fill="#fff"><path d="m120.31 1.095h45.831v241.38h-45.831z"/><path d="m.005 97.65h286.44v48.28h-286.44z"/></g><g fill="#f00"><path d="m130.34 1.095h25.78v241.38h-25.78z"/><path d="m.005 109.72h286.44v24.14h-286.44z"/></g></g><g transform="matrix(.86562 0 0 .86562 58.74 83.943)"><g transform="scale(1.0266 1.0321)"><use transform="translate(0-1.966)" xlink:href="#0"/><use transform="matrix(.99883.04836-.04836.99883 4.04-21.997)" xlink:href="#1"/></g><g transform="matrix(1.0266 0 0 1.0321-86.8 144.08)"><use transform="translate(0-1.966)" xlink:href="#0"/><use transform="matrix(.99883.04836-.04836.99883 4.04-21.997)" xlink:href="#1"/></g><g transform="matrix(1.0266 0 0 1.0321 90.83 129.88)"><use transform="translate(0-1.966)" xlink:href="#0"/><use transform="matrix(.99883.04836-.04836.99883 4.04-21.997)" xlink:href="#1"/></g><g transform="matrix(1.0266 0 0 1.0321-2.02 334.84)"><use transform="translate(0-1.966)" xlink:href="#0"/><use transform="matrix(.99883.04836-.04836.99883 4.04-21.997)" xlink:href="#1"/></g></g></g></svg>