<svg xmlns="http://www.w3.org/2000/svg" xmlns:xlink="http://www.w3.org/1999/xlink" viewBox="0 0 1200 600" enable-background="new 0 0 1200 600"><defs><path id="1" d="m0 1.237h618.85v309.43h-618.85z"/><clipPath id="0"><use xlink:href="#1"/></clipPath></defs><path fill="#00247d" d="m0 0h1200v600h-1200z"/><g clip-path="url(#0)"><circle cx="309.43" cy="155.95" r="412.57" fill="#00247d"/><path d="m-103.14-50.33l825.14 412.57m-825.14 0l825.14-412.57" stroke="#fff" stroke-width="45"/><path d="m-103.14-50.33l825.14 412.57m-825.14 0l825.14-412.57" stroke="#cf142b" stroke-width="30"/><path d="m309.43 155.95l412.57 206.28h-61.885l-412.57-206.28m61.885 0l412.57-206.28h61.885l-412.57 206.28m-61.885 0l-412.57 206.28h-61.885l412.57-206.28m61.885 0l-412.57-206.28h61.885l412.57 206.28" fill="#fff"/><path d="m-103.14 155.95h825.14m-412.57-206.28v412.57" stroke="#fff" stroke-width="90"/><path d="m-103.14 155.95h825.14m-412.57-206.28v412.57" stroke="#cf142b" stroke-width="40"/></g><g transform="matrix(.11827 0 0 .11827-18.381-8.684)"><g stroke="#000" stroke-width=".125"><g fill="#f7e017"><path d="m7142.2 2907.77c-100.99 85.67-197.21 210.5-220.84 323.34-66.51 317.72-154.85 388.39-291.3 320.16 0 170.57 149.59 183.69 215.2 83.975 0 160.09 58.03 298.82 188.92 417.24 55.12 49.863 65.61 15.75 39.38-39.34-26.24-55.12-26.24-233.56-78.71-335.91 83.975 60.35 207.29 26.24 196.8-139.08-107.6 62.981-214.53 60.52-225.69-89.23-13.1-175.82 55.5-430.92 176.24-541.14z"/><path d="m7014.45 1643.88c7.128-63.04-6.345-127.78-52.4-168.38-88.976-78.36-176.16-52.4-241.03 10.7-97.11-52.49-148.69 133.63-258.9 102.14 18.362 60.36 47.25 86.6 102.34 65.61-57.738 52.48 0 115.46-68.23 178.44 123.35 39.37 188.96-28.865 183.7-146.96 47.25 41.987 120.7 39.37 160.07-7.871-65.61-20.994-65.911-78.1-39.37-131.21 39.37-78.73 224.31-75.67 213.82 97.52z"/></g><path d="m7299.26 2556.68c-139.1 73.48-393.64 41.987-417.26-139.08-23.625-181.07 152.2-262.42 199.45-286.04 73.64-36.829 131.19 28.865 107.6 104.97 81.32-28.865 99.73-123.34 60.35-178.45 107.6 7.875 207.32-73.48 249.31-188.94-37.732 35.934-140.63 11.637-225.35 6.177 26.24-28.865 25.902-84.9 18.03-113.77-89.24 91.85-217.81 49.859-388.37 314.9 26.24-91.85 76.1-275.54 104.95-396.26 2.874-12.07 5.113-23.942 6.494-36.31 10.487-173.2-174.22-176.3-213.59-97.57 43.14 48.694 20.49 105.5 5.04 191.62-18.362 102.35-57.737 338.52-91.85 417.25-10.487-123.34-91.85-131.21-107.6-191.57-23.625 15.743-36.726 57.73-31.463 86.6-28.887-31.489-128.61 7.871-165.34-39.36-39.37 78.73 23.625 157.45 89.2 191.57-38.03 2.624-47.21 48.549-89.2 48.549 56.43 65.61 114.13 91.85 181.05 97.09 66.918 5.247 116.78 30.16 157.46 111.53 65.61 131.21 315.56 216.49 551.1 97.09z" fill="#337321"/><path d="m7645.64 2396.61c-78.71 217.81-293.91 372.64-391.02 396.25-165.23 40.19-502.24 203.78-592.71 287.99-14.294-3.165-27.543-8.345-37.1-15.07-44.6-31.489-81.32-133.83-2.612-220.43 246.7-230.93 511.72-131.21 677.06-288.66-139.1 73.48-393.64 41.987-417.26-139.08 149.59 39.36 419.87 41.987 635.07-188.94 28.849 31.489 112.82 131.21 128.57 167.95z" fill="#f7e017"/><path d="m7142.2 2907.77c-124.66 105.76-189.34 365.32-176.23 541.14 3.657 48.914 17.392 82.06 38.18 102.4 9.182-99.72 78.53-357.39 255.73-472.41 149.59-97.1 383.15-314.91 469.73-564.21-15.75-44.611-41.987-76.1-91.85-107.59-85.69 235.27-315.82 348.13-495.56 500.67z" fill="#337321"/><path d="m7565.62 2295.57c-44.637 66.918-145.67 158.76-242.74 195.5 20.975-23.617 27.543-53.8 28.85-78.73-123.35 47.24-370.01 41.987-469.74 5.251 149.59 39.36 419.87 41.987 635.07-188.94 20.974 23.614 39.34 44.608 48.556 66.915z" fill="#316d3a"/><path d="m6622.19 2845.34c-200.57 187.76-68.23 351.64 10.487 388.38-20.975 131.21 102.38 115.47 99.73 225.68 49.862-28.865 63-104.97 55.13-165.33 62.963 68.23 223.04-7.871 257.15 118.09 21.01-139.08-86.59-278.17-220.42-265.05 55.13-49.858 23.625-131.21-28.85-152.2-10.487 102.34-125.96 102.34-170.6 70.852-44.599-31.488-81.32-133.83-2.612-220.43z" fill="#337321"/><g fill="#f7e017"><path d="m7056.51 4039.37c-21.908 12.503-20.303 40.719-6.568 59.04 27.543 36.725-19.408 119.99 69.53 137.76 26.27 5.263 46.47-10.786 56.43-40.681 27.543-82.67-60.35-91.85-68.23-131.19-7.875-39.38-32.806-35.456-51.17-24.931z"/><path d="m7131.31 4194.18c-29.446 13.585-55.12 32.806-43.29 127.27 4.852 39.08 2.612 133.84-31.5 135.14 20.975 10.525 65.61 21.647 83.975-2.612 17.69 29.521 57.737 21.01 73.49-15.75 20.975 17.06 49.862-11.794 49.862-36.725 18.362 11.793 55.09-5.262 45.906-61.66 22.319 7.838 51.17-7.875 61.66-22.318-32.806-6.569-115.44-51.17-135.14-86.59-19.669-35.458-70.838-52.51-104.95-36.764z"/></g><g fill="none"><path d="m6676.65 1540.13c13.212-19.579 27.992-37.983 44.38-53.923"/><path d="m7175.91 1887.51c23.18-13.242 58.37-14.705 97.45-12.193"/><path d="m7140.49 4453.98c-9.182-13.1-12.466-68.23-5.896-101.7"/><path d="m7213.98 4438.23c-14.444-11.16-41.987-49.19-46.578-82.67"/><path d="m7263.84 4401.51c-18.4-8.547-63-66.28-72.853-103.64"/><path d="m7309.74 4339.85c-21.647-4.628-87.89-47.921-115.48-93.83"/></g><path d="m8519.5 2847.97c322.8 270.29 343.77 485.48 293.91 611.44-26.24-118.09-160.08-301.78-299.17-349.02l5.263-262.42z" fill="#f7e017"/></g><g><g><g stroke="#000" stroke-width=".125"><path d="m7942.17 2695.77h598.35c0 0 0 157.45 0 708.54 0 603.57-335.9 960.44-677.06 1149.4-341.16-188.96-677.06-545.84-677.06-1149.4 0-551.09 0-708.54 0-708.54h419.87c.671 36.74 3.956 91.85 47.25 146.96 99.05-9.843 211.24-83.975 288.65-146.96z" fill="#337321"/><path d="m8540.51 2695.77c0 0 0 157.45 0 708.54 0 182.21-30.642 341.94-82.74 481.34l-594.32-1090.16-594.32 1090.16c-52.14-139.4-82.74-299.13-82.74-481.34 0-551.09 0-708.54 0-708.54h1354.12z" fill="#006ec7"/></g><path d="m8475.87 3833.35c-10.486 32.13-29.521 84.31-44.26 116.45l-568.15-1055.85-568.15 1055.85c-14.742-32.14-33.776-84.31-44.26-116.45l612.42-1135.55 612.42 1135.55" fill="#f7e017"/></g><g stroke="#000" stroke-width=".125"><g fill="#f7e017"><path d="m8133.59 4221.62c15.75 7.875 44.749 22.431 57.887 27.693 31.499-63 36.725-152.2 26.24-230.95-34.11 86.63-149.59 83.975-181.05 136.45 19.37 9.704 37.32 22.393 52.811 33.59-39.37 39.34-131.56 105.51-184.03 121.26v-562.9c0-39.36-13.14-72.17-13.14-104.97 0 0 0-90.12 0-116.36 0-26.24-5.225-64.29-28.85-64.29-23.625 0-28.85 38.05-28.85 64.29 0 26.24 0 116.36 0 116.36 0 32.802-13.14 70.853-13.14 104.97v562.9c-28.85-83.975-141.9-55.24-194.37-139.21 20.527-5 42.14-6.531 63.15-2.5-39.34-133.84-146.94-144.32-167.95-183.7 0 55.13-23.588 183.7 13.14 238.82 8.249-9.891 20.639-20.04 35.53-29.15 44.6 97.11 245.24 97.37 292.49 257.45 37.919-58.784 174.52-127.08 270.14-229.76z"/><path d="m7863.45 3753.32c44.6 0 186.31-14.511 237.48-14.511 13.324 0 24.15-19.938 24.15-44.533s-10.823-44.536-24.15-44.536c-51.17 0-192.88-14.507-237.48-14.507-44.6 0-186.31 14.507-237.48 14.507-13.324 0-24.15 19.941-24.15 44.536s10.823 44.533 24.15 44.533c51.17 0 192.88 14.511 237.48 14.511z"/><path d="m7834.72 3522.65c-9.48-7.617-21.908-12.234-35.531-12.234-29.746 0-53.818 21.998-53.818 49.13 0 27.14 24.07 49.13 53.818 49.13 29.709 0 53.782-21.994 53.782-49.13 0-20.994 30.529-20.994 30.529 0 0 42.525-37.733 76.999-84.31 76.999-46.578 0-84.35-34.475-84.35-76.999 0-42.521 37.77-76.995 84.35-76.995 13.959 0 27.13 3.101 38.74 8.599-1.044 7.05-3.209 20.19-3.209 31.499z"/><path d="m7625.97 3738.81c13.324 0 24.11-19.938 24.11-44.533s-10.786-44.536-24.11-44.536"/><path d="m7645.79 3738.81c13.324 0 24.11-19.938 24.11-44.533s-10.786-44.536-24.11-44.536"/><path d="m7775.34 3747.96c16.05 0 29.07-24.04 29.07-53.68 0-29.649-13.02-53.68-29.07-53.68"/><path d="m7805.49 3750.39c16.794 0 30.417-25.12 30.417-56.12 0-30.996-13.623-56.12-30.417-56.12"/><path d="m7906.19 3751.03c16.981 0 30.753-25.413 30.753-56.752 0-31.347-13.772-56.752-30.753-56.752"/><path d="m7938.02 3749.23c16.795 0 30.38-24.603 30.38-54.949 0-30.35-13.585-54.953-30.38-54.953"/><path d="m8078.95 3739.69c13.585 0 24.633-20.333 24.633-45.41s-11.05-45.41-24.633-45.41"/><path d="m7570.96 4193.92c16.236-9.928 35.568-18.474 56.13-23.476"/><path d="m8104.89 4199.45c-4.815-3.434-9.965-7.091-15.414-11.05"/><path d="m8133.59 4221.62c36.762-39.449 67.37-84.05 84.12-135.03"/></g><path d="m7743.28 3196.66c0-12.79 10.524-18.284 22.767-27.555 14.779-11.152 20.676-16.399 34.11-16.399h172.24c12.764 0 15.712 3.281 15.712 15.09v234.21c0 11.809-2.948 15.09-15.712 15.09h-229.12v-222.73" fill="#fff"/><path d="m7929.74 3437.45c22.618 0 18.549-.492 34.449-16.399 16.571-16.567 15-15.09 15-30.335v-214.15c0-11.04-2.724-14.11-14.592-14.11h-159.37c-12.465 0-17.915 4.908-31.574 15.339-11.346 8.666-20.938 13.805-20.938 25.771v233.89h177.02z" fill="#e5e5e5"/><path d="m7946.79 3432.51c0 11.809-2.949 15.09-15.75 15.09h-172.2c-12.802 0-15.563-3.281-15.563-15.09v-234.21c0-11.809 2.762-15.09 15.563-15.09h172.2c12.801 0 15.75 3.281 15.75 15.09v234.21z" fill="#fff"/></g></g><g><path d="m8280.64 2558.53c33.553 37.4 44.6 87.8 26.312 137.01h-49.861c20.975-62.981 7.874-123.11-81.36-130.98-133.43-11.775-288.65 246.67-522.21 278.16-68.23-81.35-64.57-236.31 22.02-309.79-44.749-129.07-139.32-271-204.75-332.44-42.846-6.968-92.34-10.458-124.32-8.573 34.11-73.48 131.34-150.82 210.09-182.3 12.727-18.635 26.424-36.538 39.23-52.56 7.875-101.03 488.1-53.796 590.44 9.185-.001 112.84 44.561 489.95 94.42 592.29z" fill="#96877d" stroke="#000" stroke-width=".125"/><g><path d="m7698.56 2627.41c-11.42-174.92-82.11-318.97-181.5-417.13 47.21 13.12 144.32 13.12 209.94-34.11 86.59-57.734 312.27-158.77 394.94-115.46 6.569 14.429 10.488 47.24 5.225 68.23-19.668-52.49-237.48 28.865-299.14 53.796-59.04 27.551-85.28 64.29-64.31 146.96-34.11-28.869-22.319-56.42-57.737-77.42 14.443 34.12 26.24 95.78 30.19 145.65-13.14-35.426-36.762-111.53-87.93-156.14 44.637 86.6 83.34 294.56 64.978 404.78 35.418 0 113.5-34.769 144.96-59.7-27.544 39.36-106.93 66.918-158.1 77.41-22.953 27.555-38.703 98.41-37.4 137.77-3.917-48.546 11.385-166.88 35.868-174.63"/><path d="m8280.64 2558.53c-43.44-48.36-124.51-74.55-228.26-46.45 15.75-7.875 49.862-20.994 80.06-26.24-3.918-27.559-28.85-145.65-32.806-174.51l28.887-11.805c14.406 70.852 32.769 152.2 44.6 185.01 9.181 2.624 30.16 6.561 48.556 15.742-7.875-27.551-52.51-225.68-51.17-246.67l39.34-20.994c15.75 107.59 40.681 263.73 70.8 325.93"/></g><g stroke="#000" stroke-width=".125"><g fill="#96877d"><path d="m8257.09 2695.53c20.975-62.981 7.874-123.11-81.36-130.98-69.16-6.106-144.18 61.11-232.97 130.98h314.33z"/><path d="m7677.14 2130.25c-39.37 5.251-127.27-2.624-171.9-17.06 2.575-11.846 7.166-24.11 13.06-37.11-27.581 18.37-79.981 54.16-99.65 79.09 62.999 13.12 192.99 19.658 258.49-24.931z"/></g><g fill="none"><path d="m7675.54 2532.93c14.481 41.834 23.924 82.25 25.23 118.22"/><path d="m7556.55 2009.61c-23.812 34.762-44.488 71.968-51.32 103.58 44.637 14.432 132.53 22.308 171.9 17.06"/><path d="m7470.79 2200.49c16.981 2.754 32.88 6.076 46.28 9.793 47.21 13.12 144.32 13.12 209.94-34.11 65.61-47.24 244.05-194.19 446.11-209.94"/><path d="m7418.65 2155.18c63 13.12 192.99 19.657 258.49-24.931 152.2-103.65 299.14-164.01 446.11-171.89"/></g></g></g><g stroke="#000" stroke-width=".125"><g fill="#337321"><path d="m8519.5 2847.97c220.42 152.2 383.15 299.16 430.36 535.34 47.25 236.18 136.49 299.16 246.7 236.18-26.24 136.46-162.73 152.21-278.16 47.24 10.487 157.45-52.51 346.41-215.2 414.64-10.487-94.5 51.952-169.29 34.11-246.7-7.875-34.11-10.487-112.83 34.11-149.57-86.59 28.865-223.04-26.24-236.17-154.83 99.73 47.24 228.3 55.11 278.16-70.856 49.863-125.96 28.888-341.15-293.91-611.44z"/><path d="m8797.66 1619.84c68.23-178.45 246.7-160.08 307.05-83.975 175.83-99.72 199.45 125.96 349 81.35-2.611 41.987-52.48 81.35-107.56 78.73 57.699 52.48-23.625 131.21 99.69 178.44-104.95 52.49-251.92-2.62-291.26-146.96-34.11 68.23-157.46 68.23-207.32 13.12 107.6-28.865 99.73-128.59 39.38-167.95-60.799-39.646-167.95-23.616-188.96 47.24z"/><path d="m8265.34 2012.81c48.967 157.94 150.26 304.72 259.43 404.79 125.96 115.46 316.19 86.59 422.49-23.621 2.612 219.78-225.02 236.84-351.65 167.95-55.796-30.358-100.96-14.406-47.21 34.12 81.33 73.48 259.31 128.11 469.7 173.2 367.4 78.73 236.21 370.01 128.61 367.39 30.829-.661 56.13-32.948 11.795-72.823-318.84-286.7-967.02-173.85-956.53-814.16-68.23 167.95-349 102.34-217.81-97.1 41.987 34.12 115.48 36.736 136.49-15.746 16.31-40.838 5.636-111.87-67.889-172.9 12.09-.955 38.03.03 35.38-30.15 3.285 17.709 19.37 43.954 60.686 35.1 11.831 18.698 24.22 30.992 41.02 24.274 3.285-1.314 13.14-6.233 9.182-24.931 3.284 34.773 44.599 47.24 66.32 44.611z"/></g><g fill="#f7e017"><path d="m8595.6 2561.93c152.2 99.72 324.29 99.65 482.87-83.975 49.862-57.734 128.57-107.59 183.7-112.84 55.09-5.247 52.48-57.734 94.46-68.23-26.24-7.875-36.763-39.36-76.1-35.426 98.38-34.12 69.53-112.84 118.09-150.89-39.37 14.432-101.03-44.611-157.46 30.18 14.443-34.12-5.263-74.79-19.669-90.54 5.226 39.36-77.44 47.24-93.16 146.96-8.846 55.953-39.37 52.49-44.638-34.12-3.845-63.35-34.11-238.8-70.838-328.02-36.762-89.22-45.16-211.71 4.703-230.08-7.502-12.689-18.03-23.901-30.939-32.34-60.799-39.647-167.95-23.617-188.96 47.24-68.23 178.44 123.35 280.79 107.6 474.98-28.851-144.33-262.41-181.07-259.8-322.78-76.1 34.11-65.61 97.09-36.725 146.96-47.25-73.48-154.85 47.23-246.7-52.49-10.487 131.21 104.99 181.07 199.45 186.32-47.25 83.975 15.75 154.83 78.71 178.44 2.65-146.96 303.99-86.64 307.05 165.33 2.612 215.18-228.3 233.55-351.65 165.32z"/><path d="m9018.09 2769.24c367.4 78.73 236.21 370.01 128.61 367.39-68.52-1.672-133.84-59.05-137.79-108.91-78.71 41.987-57.699 124.65 2.65 157.45-165.34-19.684-234.87 89.22-238.82 208.62 30.19-55.11 122.04-59.05 156.16-47.24 34.11 11.809 122.01 18.366 157.46-20.994-28.888 24.927 18.361 82.66-22.319 127.27 137.76-5.247 198.14-133.84 174.52-190.25 178.44-162.7 144.32-427.75-220.46-493.35z"/><path d="m8738.4 4016.08c23.923 14.929 20.9 46.32 4.74 66.17-32.358 39.823 16.421 134.81-83.64 150.78-29.521 4.703-51.39-14.11-61.21-47.885-27.13-93.45 71.4-99.87 81.89-143.47 10.525-43.591 38.18-38.14 58.22-25.602z"/><path d="m8648.15 4185.64c32.28 16.459 60.09 39 42.809 143.95-7.166 43.4-8.771 149.25 29.26 152.24-23.924 10.786-74.2 21.273-93.64-6.606-21.05 32.17-65.35 20.938-81.32-20.788-24.19 18.14-55.12-15.339-54.04-43.18-21.01 12.391-61.28-8.248-48.593-70.837-25.23 7.837-56.768-11.01-67.853-27.581 36.912-5.897 131.11-52.06 154.63-90.77 23.513-38.667 81.36-55.5 118.76-36.428z"/></g><g fill="none"><path d="m8626.58 4475.22c10.823-14.257 16.907-75.61 11.05-113.23"/><path d="m8545.25 4454.43c16.607-11.794 49-53.07 55.609-90.21"/><path d="m8491.21 4411.25c20.863-8.696 73.19-71.21 85.8-112.53"/><path d="m8442.62 4340.41c24.371-4.18 100.21-49.601 132.98-99.65"/></g><g fill="#f7e017"><path d="m8201.97 2249.65c-4.404 268.98 107.41 405.05 262.26 493.67-57.55-34.437-32.62-152.52-110.06-190.58 18.4-1.31 47.25 24.931 93.19 14.432-22.318-49.859-59.08-125.96-144.36-136.46 22.318-2.624 70.874 5.248 102.37-6.561-44.638-68.23-162.72-35.426-203.41-174.51z"/><path d="m8174.12 1993.86c-9.442-3.109-17.467-12.63-25.305-25.01-41.31 8.857-57.4-17.388-60.686-35.1 2.65 30.18-23.438 29.04-35.568 29.999 73.861 61.1 84.42 132.14 68.08 173.05-21.01 52.48-94.5 49.862-136.49 15.746-5.225 111.53 139.1 148.27 191.57 7.871 0 23.617 30.19 20.994 38.07 52.49 37.473-60.33 9.182-146.95-39.672-219.05z"/></g></g><g><g stroke="#000" stroke-width=".125"><path d="m7943.51 1461.07c-65.61-60.35-95.81-161.39-93.19-219.12 2.65-57.734 26.27-120.71 110.25-94.47-26.27 0-7.875 52.49-35.456 57.734 22.318 7.871 52.51-10.499 56.43-22.307 5.263 18.37 39.38 13.12 41.987 34.12 13.14-10.499-1.306-61.67-20.975-72.17 14.406-7.871 22.281-48.549 15.712-68.23-13.1 2.627-32.769 20.994-36.725 47.24 6.568-20.994-1.306-73.48-38.03-81.35-10.524 14.432-13.14 49.859 1.307 69.54-34.11-7.875-83.975 14.432-95.81 43.3 2.649-34.773 7.426-84.28 28.887-115.46 7.203-10.499-10.525-28.865-24.297-3.938-25.566-49.859-93.79-76.1-123.98-51.17-30.19 24.927-70.837-11.809-95.77 27.555-24.931 39.36-109.39 43.51-104.99 85.28 2.612 24.931-3.396 63.45-15.75 77.42-30.16 34.11 14.443 59.04 22.318 89.22-5.262-99.72 153.51-293.91 312.27-217.81-14.444 24.931-27.06 74.73-31.5 135.15-6.532 89.23 6.568 215.19 93.15 288.66l34.15-9.186z" fill="#337321"/><path d="m7990.72 1148.8c-.858-23.64 40.01-54.35 95.13-53.796 66.25.653 117.42 61.01 170.56 55.11 53.15-5.904 26.909 23.617 15.75 31.489-11.159 7.875-17.69 19.684-13.772 34.12 3.919 14.432-2.873 23.871-24.26 10.499-47.25-29.522-94.5 11.809-156.83-11.156-54.04-19.912-85.28-30.832-86.59-66.26z" fill="#cf142b"/><path d="m7720.44 1768.11c-26.24-82.66-125.96-173.2-174.52-194.19l-2.613-44.615c26.24-10.495 89.2-60.35 118.09-87.91 196.8 94.47 464.47-39.36 587.82-178.44l47.25 28.865-23.625 31.489-24.932-13.12c-30.19 36.74-142.87 142.76-176.98 165.06 45.868 11.592 108.57 19.587 125.81 18.631 110.21-78.73 196.8-149.58 238.79-154.83l35.419 47.23-31.463 22.304-24.931-14.429c-118.09 97.09-251.92 309.66-304.44 451.36-73.45-15.743-335.9-5.248-389.68-77.41z" fill="#96877d"/><g fill="none"><path d="m8070.93 1475.25c-16.982-4.299-31.612-9.207-40.831-14.175-21.01 19.683-73.49 36.74-140.4 39.36"/><path d="m7730.92 1739.24c-17.69-97.75 10.487-206 60.35-238.8 108.91 72.17 295.26 72.17 405.47-6.557"/><path d="m7730.92 1688.07c83.975-2.627 266.37 11.809 310.97 18.366 44.637 6.561 119.39 24.931 108.91 47.24"/><path d="m7769.77 1674.14l24.15-24.12-24.15-24.12-24.11 24.12 24.11 24.13z"/></g><path d="m7826.73 1185.53c-30.19-41.987-113.35-55.27-131.23 1.314-7.875 24.931-19.668 51.17-39.37 62.981-19.669 11.805-15.04 47.567-6.531 62.981 20.975 38.05 2.612 74.79 43.29 99.72 0-30.18 44.6-61.67 82.67-69.54 38.03-7.875 95.77-41.987 103.64-80.04 7.876-38.05 20.977-69.55-52.47-77.42z" fill="#337321"/><g fill="#96877d"><path d="m7637.77 1563.42h10.488l.187 71.77c2.127.743 4.516 1.75 6.233 3.307l61.843-35.665 5.262 9.09-62.07 36.02c.411 2.239.747 4.796.262 7.07l61.805 35.725-5.262 9.09-62.22-35.74c-1.716 1.493-3.77 3.042-6.01 3.766l-.037 71.39h-10.488l-.149-71.77c-2.165-.743-4.554-1.75-6.27-3.307l-61.843 35.665-5.225-9.1 62.03-36.02c-.411-2.236-.746-4.792-.261-7.07l-61.768-35.732 5.225-9.09 62.25 35.747c1.716-1.493 3.77-3.042 5.971-3.766l.036-71.39z"/><path d="m7731.26 1738.91c-22.542 22.692-53.744 36.744-88.23 36.744-68.67 0-124.36-55.662-124.36-124.33 0-68.66 55.684-124.32 124.36-124.32 40.35 0 76.17 19.217 98.9 48.993-6.419 15.627-13.846 50.743-14.406 66.64-4.329-42.838-40.532-76.28-84.5-76.28-46.951 0-84.982 38.04-84.982 84.964 0 46.925 38.03 84.96 84.982 84.96 39.26 0 73.23-27.454 82.967-63.64-.039 15.578.335 53.14 5.262 66.26z"/></g><path d="m7590.52 1857.33c-7.837-9.185-22.281-34.12-20.975-52.48 11.793-1.314 34.11 6.557 44.6 17.06-1.306-13.12-6.531-41.987-3.919-55.11 14.444 5.248 44.601 22.304 55.09 41.987-2.612-13.12-7.875-47.24-2.612-68.23 15.75 9.185 41.988 34.12 47.25 51.17 1.306-26.24 10.487-69.54 18.362-80.04 11.794 11.805 30.16 22.304 41.987 38.05 2.613-20.994 13.1-45.921 28.851-52.49 11.831 13.12 30.19 43.3 34.11 77.42 11.831-3.938 27.582-23.617 34.11-34.12 6.569 10.499 13.14 28.865 9.219 51.17 14.407-13.12 31.463-31.492 35.418-47.24 10.488 7.875 30.16 27.559 35.419 48.552-2.612-17.06-1.307-47.23-6.568-64.3 19.706 10.495 35.418 28.869 39.38 48.549 5.262-18.37 17.06-51.17 27.544-59.05 10.487 20.994 21.01 45.925 19.706 66.918 6.531-13.12 17.06-36.74 27.543-41.987 9.182 14.436 7.875 45.925 5.225 62.981 9.219-13.12 26.27-28.865 36.762-34.11 1.307 7.871 2.613 23.617 0 35.422 11.794-6.557 31.5-41.987 38.03-60.35 18.4 9.185 36.763 40.677 38.07 56.42 13.1-5.247 39.38-28.865 47.21-41.987 0 9.185 3.956 34.12-1.306 53.796 7.875-7.875 15.75-23.617 19.706-30.18 5.225 13.12 1.306 44.615-3.956 61.67 11.831-10.499 28.887-17.06 39.37-17.06 1.307 22.304-14.443 61.66-28.888 90.53-125.96-35.425-389.68-48.544-654.74-62.98z" fill="#337321"/></g><path d="m8029.8 1162.22c-.634-9.67 20.975-31.56 59.6-31.34 46.35.269 89.16 34.29 126.37 31.873 37.21-2.415 18.848 9.663 11.05 12.884-7.838 3.221-12.429 8.05-9.666 13.955 2.762 5.904-2.02 9.767-16.981 4.296-33.07-12.08-66.14 4.829-109.77-4.564-37.846-8.149-59.716-12.616-60.61-27.11" fill="#f7e017"/></g><g stroke="#000" stroke-width=".125"><g fill="#f7e017"><path d="m7631.2 1936.06c-39.34 47.23-78.71 39.36-86.59 9.185-7.875-30.18 21.01-44.611 10.488-70.856-10.488-26.24 17.06-38.05 30.19-26.24 13.1 11.809 55.09-26.24 73.49 13.12 18.362 39.36 32.806 66.915 22.281 82.66-10.487 15.746-41.987 7.875-49.862-7.871z"/><path d="m7800.45 1865.2c-7.39-17.265 33.478-50.51 54.45-26.898 21.01 23.621 53.818-25.584 72.18 11.809 18.363 37.4 24.26 57.08 33.479 78.07 9.181 20.994-49.862 32.15-68.26 13.779 2.65 12.462-50.982 22.22-65.57-13.12-7.875-19.02-16.422-40.674-26.28-63.64z"/><path d="m8073.39 1886.85c-9.853-18.366 38.07-44.611 62.962-11.152 6.569-13.776 53.818-16.403 57.1 23.618 3.285 40.02 4.591 63.64 5.897 79.38 1.306 15.746-28.85 30.18-50.53-9.842-38.703 7.875-56.39-13.779-60.984-36.74s-9.18-34.11-14.443-45.27z"/></g><g fill="#337321"><path d="m7656.8 1860.61c-5.896-13.12 33.441-39.36 60.35-19.68 26.909 19.68 64.16-16.982 80.06 18.366 32.13 71.51 34.11 76.76 24.26 90.54-9.853 13.779-51.84 8.528-62.33-10.499-1.978 13.13-38.18 10.961-57.07.661-21.646-11.812-36.762-55.766-45.27-79.38z"/><path d="m7932.98 1863.89c-9.182-20.341 52.51-38.05 79.38-2.624 13.772-12.466 43.965-13.12 61.02 25.584 17.06 38.71 19.669 60.36 7.204 70.2-8.771 6.92-40.682 12.462-51.17-5.247-14.444 9.185-59.04 1.31-68.859-23.621-9.854-24.928-18.4-46.578-27.581-64.29z"/><path d="m8194.09 1902.6c-1.306-18.37 32.17-26.898 44.638 0 12.466 26.898 52.33 2.676 55.759 47.23.634 8.528-4.591 41.33-17.06 57.08-12.466 15.746-73.49 0-77.41-33.456-3.957-33.46-5.263-52.49-5.935-70.856z"/></g><g fill="none"><path d="m7631.2 1936.06c-14.406-19.684-34.11-51.17-59.04-17.06"/><path d="m7759.14 1939.33c-8.509-11.152-19.668-29.518-23.625-43.954"/><path d="m7892.3 1941.96c-9.181-6.561-22.953-19.684-30.16-33.459"/><path d="m7880.51 1873.08c22.953 2.624 38.703 24.271 45.906 34.11 7.241 9.842 22.319 27.559 34.15 29.526"/><path d="m8029.43 1951.8c-7.875-12.469-15.75-23.621-17.69-32.802"/><path d="m8012.37 1861.27c7.875 11.152 13.772 20.337 18.362 30.832"/><path d="m8148.82 1968.86c-10.487-19.684-26.872-38.707-40.643-45.27"/><path d="m8143.59 1896.69c1.307 38.707 53.15 41.33 55.09 68.885"/><path d="m8238.73 1902.6c5.225 9.838 7.203 19.68 7.875 36.08"/></g></g></g></svg>