<svg xmlns="http://www.w3.org/2000/svg" viewBox="0 0 640 480" xmlns:xlink="http://www.w3.org/1999/xlink"><defs><path id="0" d="m332.03 604.94c1.177 0 21.19-164.84 21.19-164.84l17.661 164.84-20.02 28.26-18.839-28.26z"/><path id="1" d="m248.44 462.47c29.436 48.27 77.71 121.28 101.26 170.73 26.295-51.807 74.962-128.34 104.79-175.44-31.79 36.11-71.822 88.7-104.79 116.56-33.36-27.866-70.25-78.1-101.26-111.86z"/><path id="2" d="m320.26 487.2c0 59.825-11.597 108.32-25.903 108.32s-25.903-48.5-25.903-108.32c0-59.825 11.597-108.32 25.903-108.32s25.903 48.5 25.903 108.32"/><path id="3" d="m151.53 682.7c0 1.665-41.628-24.978-49.954-33.3-8.333-8.33-6.668-46.62-33.31-64.94s-54.949-9.99-68.27 1.66c-13.321 11.656-8.326 38.3 23.312 61.61s53.28 1.666 69.936 9.991c16.651 8.326 43.29 24.976 56.62 38.3 13.321-9.99 46.623-21.646 64.94-29.972 18.316-8.325 64.941 11.656 96.58-11.656 26.642-18.316 38.3-56.61 19.981-68.27-18.317-11.656-51.619-6.66-71.6 4.996-19.982 11.656-29.972 58.28-49.955 66.61-14.986 4.995-56.61 28.31-58.28 24.977z"/><clipPath id="4"><path d="m-64 0h640v512h-640z"/></clipPath></defs><g clip-path="url(#4)" transform="matrix(1 0 0 .9375 64 0)"><g fill-rule="evenodd" stroke-width="1.25" transform="matrix(1.0321 0 0 1.0321-256 0)"><path fill="#fff" d="M 0,166.54 H992.13 V329.53 H0 z"/><path fill="#3d25ca" d="M 0,329.53 H992.13 V496.07 H0 z"/><path fill="#d60000" d="m0 0h992.13v166.54h-992.13z"/></g><g transform="matrix(.18125 0 0 .18125 183.75 156.78)"><g stroke="#000"><path d="m744.14 567.26c0 192.48-157.09 348.52-350.87 348.52s-350.87-156.04-350.87-348.52 157.09-348.52 350.87-348.52 350.87 156.04 350.87 348.52z" fill-rule="evenodd" transform="matrix(1.0351 0 0 1.0421-8.442-43.697)" stroke-width="12.91" fill="#fff"/><g transform="matrix(.4059 0 0 .40681 257.18 329.71)" stroke-width="2.637"><g fill="#006700" fill-rule="evenodd"><g transform="matrix(.89726.20468-.22354.9298 260.11-31.435)"><path d="m259.03 105.71s400.32 70.64 414.45 395.62c14.13 324.97-188.39 367.36-259.03 419.16-70.64 51.807-113.03 113.03-146 113.03-32.968 0-80.06-14.13-80.06-14.13s9.42 51.81 75.36 47.1c65.936-4.71 127.16-113.03 164.84-131.87s277.88-98.9 259.04-428.58c-14.13-353.23-423.88-390.91-428.59-400.33z"/><g transform="matrix(.375-.6002.56218.35125 34.02 138.2)"><use transform="matrix(.50148.47086-.3188.60446 320.67 92.87)" xlink:href="#2"/><use transform="matrix(.5715.29659-.20081.68886 224.73 97.25)" xlink:href="#2"/><use transform="matrix(.5061-.46199.3128.61002-64.59 364.47)" xlink:href="#2"/><use transform="matrix(.5931-.20779.14069.7149 9.635 223.61)" xlink:href="#2"/><use transform="matrix(.61321 0 0 .73913 93.44 155.35)" xlink:href="#2"/><use transform="matrix(.52514 0 0 .27822 191.54 402.47)" xlink:href="#3"/></g><g transform="matrix(.73572-.67729.67729.73572-14.339 19.529)"><use transform="matrix(.50148.47086-.3188.60446 320.67 92.87)" xlink:href="#2"/><use transform="matrix(.5715.29659-.20081.68886 224.73 97.25)" xlink:href="#2"/><use transform="matrix(.5061-.46199.3128.61002-64.59 364.47)" xlink:href="#2"/><use transform="matrix(.5931-.20779.14069.7149 9.635 223.61)" xlink:href="#2"/><use transform="matrix(.61321 0 0 .73913 93.44 155.35)" xlink:href="#2"/><use transform="matrix(.52514 0 0 .27822 191.54 402.47)" xlink:href="#3"/></g><g transform="matrix(.8489-.52856.52856.8489 124.02 41.877)"><use transform="matrix(.50148.47086-.3188.60446 320.67 92.87)" xlink:href="#2"/><use transform="matrix(.5715.29659-.20081.68886 224.73 97.25)" xlink:href="#2"/><use transform="matrix(.5061-.46199.3128.61002-64.59 364.47)" xlink:href="#2"/><use transform="matrix(.5931-.20779.14069.7149 9.635 223.61)" xlink:href="#2"/><use transform="matrix(.61321 0 0 .73913 93.44 155.35)" xlink:href="#2"/><use transform="matrix(.52514 0 0 .27822 191.54 402.47)" xlink:href="#3"/></g><g transform="matrix(.98953-.14433.14433.98953 329.61 1.645)"><use transform="matrix(.50148.47086-.3188.60446 320.67 92.87)" xlink:href="#2"/><use transform="matrix(.5715.29659-.20081.68886 224.73 97.25)" xlink:href="#2"/><use transform="matrix(.5061-.46199.3128.61002-64.59 364.47)" xlink:href="#2"/><use transform="matrix(.5931-.20779.14069.7149 9.635 223.61)" xlink:href="#2"/><use transform="matrix(.61321 0 0 .73913 93.44 155.35)" xlink:href="#2"/><use transform="matrix(.52514 0 0 .27822 191.54 402.47)" xlink:href="#3"/></g><g transform="matrix(1.1499.1852-.17928 1.1312 447.09-8.153)"><use transform="matrix(.50148.47086-.3188.60446 320.67 92.87)" xlink:href="#2"/><use transform="matrix(.5715.29659-.20081.68886 224.73 97.25)" xlink:href="#2"/><use transform="matrix(.5061-.46199.3128.61002-64.59 364.47)" xlink:href="#2"/><use transform="matrix(.5931-.20779.14069.7149 9.635 223.61)" xlink:href="#2"/><use transform="matrix(.61321 0 0 .73913 93.44 155.35)" xlink:href="#2"/><use transform="matrix(.52514 0 0 .27822 191.54 402.47)" xlink:href="#3"/></g><g transform="matrix(1.0178.80745-.82443.96298 756.4 48.616)"><use transform="matrix(.50148.47086-.3188.60446 320.67 92.87)" xlink:href="#2"/><use transform="matrix(.5715.29659-.20081.68886 224.73 97.25)" xlink:href="#2"/><use transform="matrix(.5061-.46199.3128.61002-64.59 364.47)" xlink:href="#2"/><use transform="matrix(.5931-.20779.14069.7149 9.635 223.61)" xlink:href="#2"/><use transform="matrix(.61321 0 0 .73913 93.44 155.35)" xlink:href="#2"/><use transform="matrix(.52514 0 0 .27822 191.54 402.47)" xlink:href="#3"/></g><g transform="matrix(.70068.98883-.97411.69025 782.3 222.78)"><path d="m356.4 534.52c-16.729 41.841-39.635 72.02-51.16 67.41s-7.311-42.26 9.418-84.11c16.729-41.841 39.635-72.02 51.16-67.41s7.311 42.26-9.418 84.11z" id="5"/><path d="m286.91 518.59c21.889 39.39 30.837 76.21 19.985 82.24s-37.39-21.01-59.28-60.4c-21.889-39.39-30.837-76.21-19.985-82.24s37.39 21.01 59.28 60.4z" stroke-width="2.637" id="6"/><path d="m324.7 521.19c0 45.06-10.06 81.59-22.479 81.59s-22.479-36.53-22.479-81.59c0-45.06 10.06-81.59 22.479-81.59s22.479 36.53 22.479 81.59z" stroke-width="2.637" id="7"/></g><g transform="matrix(.16083-.47509.76898.18492-139.38 169.17)"><use xlink:href="#5"/><use xlink:href="#6"/><use xlink:href="#7"/></g></g><g transform="matrix(.99936-.02588.01748.95569 103.72 108.05)"><path d="m339.1 586.1s113.03 32.968 211.94 89.48c98.9 56.52 252.16 272.38 292.21 280.92 44.682-1.342 105.85-37.846 126.48-164.27-67.86 43.25-107.82 101.54-174.96 40.06-23.55-14.13-102.44-137.87-187.22-199.09-84.77-61.23-254.32-122.45-254.32-122.45l-14.13 75.36z" transform="matrix(.67307.06127-.02185.36561-223.16 555.09)"/><use transform="matrix(-.2202-.58061-.5617.20187 498.33 149.41)" xlink:href="#0"/><use transform="matrix(-.22082-.58039-.56146.20252 482.16 153.62)" xlink:href="#1"/><use transform="matrix(-.31222-.53799-.51625.29737 485.55 82.61)" xlink:href="#0"/><use transform="matrix(-.23174-.60068-.55952.20773 468.36 154.89)" xlink:href="#1"/><use transform="matrix(-.16989-.59613-.57891.14997 463.29 195.77)" xlink:href="#0"/><use transform="matrix(-.29638-.58472-.52952.27541 460.33 120.12)" xlink:href="#1"/><use transform="matrix(-.41657-.46086-.43642.40677 449.75-4.342)" xlink:href="#0"/><use transform="matrix(-.37077-.61687-.53581.34039 481.04 103.22)" xlink:href="#1"/><use transform="matrix(-.39501-.59481-.51356.36652 476.42 82.78)" xlink:href="#0"/><use transform="matrix(-.27938-.66608-.64876.38722 494.14 95.88)" xlink:href="#1"/><use transform="matrix(-.31006-.64126-.62984.41526 493.2 73.61)" xlink:href="#0"/><use transform="matrix(-.36811-.60966-.58877.47184 474.07 44.859)" xlink:href="#1"/><use transform="matrix(-.46201-.52149-.51837.56778 463.19-42.07)" xlink:href="#0"/><use transform="matrix(-.33504-.62763-.6138.43994 455.59 76.11)" xlink:href="#1"/><use transform="matrix(-.31416-.6493-.61924.41561 461.59 103.3)" xlink:href="#0"/><use transform="matrix(-.40162-.57445-.57246.50741 441.37 35.733)" xlink:href="#1"/><use transform="matrix(-.53889-.41956-.44565.64143 415.43-105.63)" xlink:href="#0"/><use transform="matrix(-.50728-.62456-.5684.59428 465.65 14.525)" xlink:href="#1"/><use transform="matrix(-.5321-.58958-.53942.61853 457.63-8.756)" xlink:href="#0"/><use transform="matrix(-.5327-.58889-.53882.61919 441.32 7.02)" xlink:href="#1"/><use transform="matrix(-.61584-.4762-.44141.70952 410.66-84.73)" xlink:href="#0"/><use transform="matrix(-.47964-.63197-.59086.57072 436.11 57.18)" xlink:href="#1"/><use transform="matrix(-.42049-.68402-.63433.50718 448.7 118.68)" xlink:href="#0"/><use transform="matrix(-.43061-.69232-.61096.52059 413.98 112.33)" xlink:href="#1"/><use transform="matrix(-.57704-.52972-.4751.68536 385.94-50.897)" xlink:href="#0"/><use transform="matrix(-.59455-.63298-.59222.76522 451.58-30.354)" xlink:href="#1"/><use transform="matrix(-.6199-.58928-.55891.78836 441.41-55.635)" xlink:href="#0"/><use transform="matrix(-.62052-.5884-.55822.78902 424.35-35.14)" xlink:href="#1"/><use transform="matrix(-.70568-.44711-.44574.87684 385.32-134.92)" xlink:href="#0"/><use transform="matrix(-.62455-.58268-.55371.79325 403.49-26.09)" xlink:href="#1"/><use transform="matrix(-.56829-.65639-.61131.73342 427.06 39.506)" xlink:href="#0"/><use transform="matrix(-.7337-.39339-.39064.90553 351.09-132.23)" xlink:href="#1"/><use transform="matrix(-.81096-.13952-.18237.97738 252.19-272.91)" xlink:href="#0"/><use transform="matrix(-.73184-.39768-.39411.90366 340.67-115.45)" xlink:href="#1"/><use transform="matrix(-.75038-.35265-.35755.92216 327.56-141.21)" xlink:href="#0"/><use transform="matrix(-.7978-.31648-.31043.97647 313.84-165.52)" xlink:href="#1"/><use transform="matrix(-.83868-.1475-.17163 1.0158 244.27-245.48)" xlink:href="#0"/><use transform="matrix(-.76499-.40186-.38396.94508 327.22-101.8)" xlink:href="#1"/><use transform="matrix(-.72444-.49104-.45587.90197 365.88-43.31)" xlink:href="#0"/><use transform="matrix(-.7561-.31701-.29476.99159 283.06-143.75)" xlink:href="#1"/><use transform="matrix(-.85152-.04061-.08661 1.0261 186.79-259.73)" xlink:href="#0"/><use transform="matrix(-.76356-.31091-.26627.99585 253.97-135.08)" xlink:href="#1"/><use transform="matrix(-.77576-.26144-.22831 1.01 237.89-160.04)" xlink:href="#0"/><use transform="matrix(-.7845-.23176-.19317 1.0177 217.81-158.32)" xlink:href="#1"/><use transform="matrix(-.80583-.05705-.05829 1.0422 144.06-231.29)" xlink:href="#0"/><use transform="matrix(-.79918-.19047-.14475 1.0357 195.61-167.06)" xlink:href="#1"/><use transform="matrix(-.78151-.28937-.22108 1.0126 244.54-119.77)" xlink:href="#0"/><use transform="matrix(-.81036-.07338-.05442 1.0506 150.3-187.11)" xlink:href="#1"/><use transform="matrix(-.79583.20748.16214 1.0325 11.425-282.66)" xlink:href="#0"/><use transform="matrix(-.8323-.07382-.06323 1.0471 158.58-166.22)" xlink:href="#1"/><use transform="matrix(-.83441-.02211-.02213 1.0495 137.26-185.67)" xlink:href="#0"/><use transform="matrix(-.83091-.09424-.07947 1.0455 168.16-145.21)" xlink:href="#1"/><use transform="matrix(-.83242.08318.0616 1.0464 84.09-204.96)" xlink:href="#0"/><use transform="matrix(-.82497-.15415-.12707 1.0384 176.47-102.86)" xlink:href="#1"/><use transform="matrix(-.80889-.25347-.20596 1.0187 223.56-57.902)" xlink:href="#0"/><use transform="matrix(-.83401-.03699-.03396 1.0491 137.38-132.48)" xlink:href="#1"/><use transform="matrix(-.81322.24218.18814 1.0214-19.326-209.79)" xlink:href="#0"/><use transform="matrix(-.82635.15381.1178 1.0384 58.12-162.22)" xlink:href="#1"/><use transform="matrix(-.80657.27576.21488 1.0129 7.574-201.31)" xlink:href="#0"/><use transform="matrix(-.82529.16284.12499 1.037 53.836-147.04)" xlink:href="#1"/><use transform="matrix(-.77235.4034.31656.96913-65.33-189.99)" xlink:href="#0"/><use transform="matrix(-.80048.28493.23828 1.0098-10.356-150.92)" xlink:href="#1"/><use transform="matrix(-.8276.14227.10861 1.0401 83.04-122.66)" xlink:href="#0"/><use transform="matrix(-.76878.39613.32636.97156-59.06-143.04)" xlink:href="#1"/><use transform="matrix(-.6549.6393.51831.83196-220.52-149.44)" xlink:href="#0"/><use transform="matrix(-.77032.39153.32271.97342-55.22-122.15)" xlink:href="#1"/><use transform="matrix(-.75348.43904.36029.95294-81.31-127.85)" xlink:href="#0"/><use transform="matrix(-.75308.44009.36113.95245-73.12-100.27)" xlink:href="#1"/><use transform="matrix(-.6815.59422.4828.86473-169.94-99.1)" xlink:href="#0"/><use transform="matrix(-.75044.44697.36657.94924-75.72-73.31)" xlink:href="#1"/><use transform="matrix(-.78227.35344.29256.98789-13.05-71.77)" xlink:href="#0"/><use transform="matrix(-.70471.55038.44824.89327-122.62-55.47)" xlink:href="#1"/><use transform="matrix(-.49745.81292.67456.65902-326.81-30.979)" xlink:href="#0"/><use transform="matrix(-.67755.57664.49337.8733-146.45-46.2)" xlink:href="#1"/><use transform="matrix(-.65241.61898.52617.84381-172.89-45.26)" xlink:href="#0"/><use transform="matrix(-.65182.61993.5269.84312-159.84-20.278)" xlink:href="#1"/><use transform="matrix(-.50705.80342.66738.67058-286.39 19.592)" xlink:href="#0"/><use transform="matrix(-.60805.68475.57686.79138-190.41 12.602)" xlink:href="#1"/><use transform="matrix(-.66079.60532.5156.85367-130.32-7.105)" xlink:href="#0"/><use transform="matrix(-.53968.769.64128.70978-230.83 45.662)" xlink:href="#1"/><use transform="matrix(-.1955.9766.82904.34045-469.03 180.53)" xlink:href="#0"/><use transform="matrix(-.54271.76564.63872.71342-219.87 62.62)" xlink:href="#1"/><use transform="matrix(-.37436.87687.7651.5484-348.1 103.99)" xlink:href="#0"/><use transform="matrix(-.37351.87749.76552.54743-327.73 121.39)" xlink:href="#1"/><use transform="matrix(-.23925.95715.81749.39183-403.67 188.09)" xlink:href="#0"/><use transform="matrix(-.36797.88142.7682.54107-316.2 145.59)" xlink:href="#1"/><use transform="matrix(-.44027.82519.72917.62347-265.88 104.33)" xlink:href="#0"/><use transform="matrix(-.2797.93643.80455.43904-344.27 192.27)" xlink:href="#1"/><use transform="matrix(-.05663 1.0193.8499.17535-456.93 323.18)" xlink:href="#0"/><use transform="matrix(.02017-.39188-.61627.0403 498.97 161.08)" xlink:href="#0"/><use transform="matrix(.01602-.40284-.61767.03636 470.02 162.81)" xlink:href="#1"/><use transform="matrix(-.08459-.37938-.61077.10615 525.98 120.63)" xlink:href="#0"/><use transform="matrix(-.18817-.47728-.59826.20148 516.32 112.47)" xlink:href="#1"/><use transform="matrix(.07434-.39391-.61211.00565 437.32 192.49)" xlink:href="#0"/><use transform="matrix(-.05405-.3842-.61423.08711 464.53 145.6)" xlink:href="#1"/><use transform="matrix(-.21479-.34741-.57798.18575 503.79 66.8)" xlink:href="#0"/><use transform="matrix(-.12891-.54735-.45778.08623 407.59 198.43)" xlink:href="#1"/><use transform="matrix(-.15109-.5387-.44765.11133 408.8 182.53)" xlink:href="#0"/><use transform="matrix(.02956.99554.88443.1449-527.6 335.38)" xlink:href="#0"/><use transform="matrix(-.16718.93867.86898.36192-427.03 233.56)" xlink:href="#0"/><use transform="matrix(-.01745.98644.88475.19757-462.22 328.02)" xlink:href="#0"/><use transform="matrix(-.15992.94166.87035.35408-386.57 266.9)" xlink:href="#1"/><use transform="matrix(-.24302.90317.8509.44315-346.84 215.36)" xlink:href="#0"/><use transform="matrix(-.06152.97537.88278.24648-403.41 318.71)" xlink:href="#1"/><use transform="matrix(.17448 1.0058.86755-.02064-483.67 471.63)" xlink:href="#0"/><use transform="matrix(.10114.99083.89256.08086-503.33 405.32)" xlink:href="#0"/><use transform="matrix(-.09917.94827.89278.29843-410.35 296.52)" xlink:href="#0"/><use transform="matrix(.0536.98514.89668.13336-438.65 393.27)" xlink:href="#0"/><use transform="matrix(-.09172.95073.89358.29051-367.59 326.87)" xlink:href="#1"/><use transform="matrix(-.17738.91832.88059.38075-331.68 272.6)" xlink:href="#0"/><use transform="matrix(.00885.97727.89823.18229-380.66 379.75)" xlink:href="#1"/><use transform="matrix(.24643.99065.86381-.08304-449.71 538.06)" xlink:href="#0"/></g></g><g transform="matrix(1.1008 0 0 1.0798 111.21 31.501)"><g fill-rule="evenodd"><path d="m374.65 434.6c0 66.21-53.676 119.89-119.89 119.89-66.21 0-119.89-53.676-119.89-119.89 0-66.21 53.676-119.89 119.89-119.89 66.21 0 119.89 53.676 119.89 119.89z" transform="matrix(2.1427 0 0 2.2166-324.43-513.33)" fill="#3d25ca"/><path d="m353.57 628.49l-130.85-89.51-130.85 89.51 49.07-143.21-114.5-89.51h147.21l49.07-143.21 49.07 143.21h147.21l-114.49 89.51 49.07 143.21z" transform="matrix(1.0832 0 0 .98968-10.924-12.555)" fill="#ffd900"/></g><g fill="none"><path d="m17.716 379.13l212.6 53.15"/><path d="m230.32 237.4v194.88"/><path d="m230.32 432.28v88.58"/><path d="m230.32 432.28l88.58 35.434"/><path d="m177.16 379.13l53.15 53.15"/><path d="m230.32 432.28l53.15-53.15"/><path d="m442.91 379.13-212.59 53.15"/><path d="m230.32 432.28l141.73 177.17"/><path d="m230.32 432.28-141.74 177.17"/><path d="m141.73 467.72l88.58-35.434"/></g></g></g></g><g><path d="m631.18 547.46c0 128.37-104.18 232.54-232.54 232.54s-232.54-104.18-232.54-232.54c0-128.36 104.18-232.54 232.54-232.54 128.36 0 232.54 104.18 232.54 232.54zm77.51 0c0 171.15-138.9 310.05-310.05 310.05s-310.05-138.9-310.05-310.05 138.9-310.05 310.05-310.05 310.05 138.9 310.05 310.05z" fill-rule="evenodd" stroke="#000" stroke-width="1.412" fill="#d60000"/><g fill="#ffe600" stroke-width="1.25"><path d="m790.76 189.65v-21.772l-17.561-29.625h7.335l8.985 15.497c1.654 2.898 3.198 5.796 4.63 8.694 1.363-2.688 3.02-5.715 4.969-9.08l8.826-15.11h7.02l-18.18 29.625v21.772h-6.03" transform="matrix(-.34698.93787-.93787-.34698 1087.2-72.78)"/><path d="m692.37 524.72h33.06v29.695c-67.06 366.57-71.19 366.5-74.32 365.8-3.134-.703-5.8-2.294-8-4.786-2.175-2.472-3.502-5.891-3.98-10.256-.465-4.245-.019-7.803 1.335-10.679 1.355-2.88 3.526-5.065 6.513-6.56 3.01-1.498 7.222-2.541 12.636-3.134v-360.08h6.02v29.661c-39.76 336.89-42.996 337.61-45.03 338.57-2.01.967-3.488 2.398-4.433 4.294-.942 1.918-1.272 4.162-.989 6.741.482 4.402 1.952 7.421 4.412 9.05 2.458 1.624 6.894 2.088 13.306 1.386v-389.7"/><path d="m651.15 464.84v-301.38c-4.263 300.18-.395 319.08-.395 319.08v-300.05c-41.582 301.47-44.16 298.87-46.11 296.05-1.932-2.824-3.227-5.856-3.885-9.105-.89-4.388-.645-8.593.735-12.612 1.406-4.01 3.927-7.327 7.566-9.97 3.638-2.638 7.931-4.46 12.879-5.463 4.902-.994 9.656-1.016 14.259-.066 4.631.961 8.323 2.94 11.08 5.931 2.753 2.993 4.58 6.713 5.482 11.162.654 3.228.65 6.26-.015 9.1-.637 2.857-1.859 5.242-3.665 7.15-1.808 1.909-4.328 3.595-7.562 5.05 0 0-2.729-4.993-2.729-4.993 2.429-1.19 4.276-2.431 5.541-3.721 1.264-1.295 2.144-2.951 2.64-4.978.519-2.026.549-4.17.093-6.421-.548-2.703-1.491-4.941-2.829-6.721-1.316-1.785-2.854-3.134-4.612-4.04-1.755-.889-3.605-1.487-5.551-1.792-3.346-.506-6.839-.388-10.482.351-4.49.91-8.108 2.353-10.857 4.322-2.743 1.996-4.583 4.452-5.518 7.369-.934 2.917-1.103 5.846-.507 8.788.518 2.557 1.575 4.946 3.169 7.161 1.615 2.205 3.181 3.814 4.696 4.817v-310.38h-13.392"/><path d="m435.66 302.42v-164.17h6.02v45.33h22.439v6.06h-28.464"/><path d="m385.6 299.02v-160.77h32.941v6.07h-26.91v15.741h25.2v6.03h-25.2v17.495h27.966v6.06h-33.997"/><path d="m243.24 331.3c0 0 5.696-2.609 5.696-2.609 2.67 5.066 3.708 9.791 3.118 14.169-.589 4.348-2.687 8.06-6.292 11.144-3.733 3.191-7.502 4.936-11.306 5.237-3.803.268-7.707-.699-11.716-2.9-3.992-2.214-7.582-5.188-10.771-8.919-3.478-4.068-5.822-8.199-7.04-12.388-1.211-4.223-1.217-8.199-.018-11.93 1.2-3.762 3.331-6.952 6.382-9.56 3.468-2.964 7.229-4.457 11.292-4.487 4.064-.029 8.1 1.363 12.11 4.173 0 0-3.486 5.056-3.486 5.056-3.232-2.157-6.17-3.228-8.803-3.222-2.636.009-5.114 1-7.428 2.983-2.661 2.275-4.276 4.9-4.84 7.872-.551 2.963-.146 5.967 1.209 9.02 1.339 3.036 3.114 5.839 5.316 8.415 2.84 3.323 5.746 5.865 8.723 7.626 2.978 1.728 5.895 2.432 8.754 2.11 2.857-.322 5.345-1.387 7.454-3.189 2.568-2.195 4.03-4.888 4.377-8.08.354-3.193-.562-6.698-2.739-10.526"/><path d="m221.73 376.52v-238.27h6.03v51.4h-6.03"/><path d="m197.01 405.71v-267.46h6.03v45.33h22.434v6.06h-28.464"/><path d="m120.57 436.02h-7.03v29.695c41.659 275.31 45.28 277.3 47.726 279.38 2.442 2.086 4.055 4.739 4.837 7.97.767 3.203.342 6.846-1.276 10.928-1.573 3.969-3.63 6.908-6.173 8.821-2.542 1.908-5.484 2.83-8.822 2.751-3.361-.083-7.572-1.13-12.635-3.136v-336.41h6.03v29.661c59.796 302.78 62.995 303.66 65.24 303.77 2.232.08 4.206-.495 5.928-1.73 1.729-1.255 3.07-3.085 4.02-5.491 1.634-4.122 1.745-7.478.332-10.07-1.414-2.585-5.119-5.068-11.12-7.445v-308.69"/><path d="m150.58 560.38v-422.13h32.941v6.07h-26.916v15.741h25.2v6.03h-25.2v17.495h27.972v6.06h-33.997"/><path d="m342.52 306.3v-168.05h15.693c10.318 113.86 13.01 113.57 14.94 113.68 2.692.148 5.117.91 7.278 2.286 2.809 1.769 5.146 4.291 7.01 7.563 1.883 3.245 3.275 7.112 4.181 11.602.772 3.826 1.062 7.297.868 10.412-.199 3.116-.718 5.772-1.562 7.97-.849 2.174-1.904 3.972-3.159 5.395-1.244 1.395-2.848 2.589-4.827 3.585-1.954.99-4.282 1.758-6.985 2.303h-33.434m22.03 109.51h-6.277c18.759 113.06 20.999 112.28 22.538 111.33 1.565-.96 2.725-2.1 3.497-3.423 1.08-1.863 1.739-4.202 1.977-7.02.249-2.84-.01-6.162-.778-9.965-1.063-5.269-2.649-9.158-4.762-11.665-2.097-2.533-4.336-4.06-6.725-4.58-1.724-.367-4.341-.196-7.855.513h-17.619v39.27"/><path d="m508.63 326.8v-188.55h17.189c66.44 152.33 68.42 153.54 69.68 154.57 1.79 1.408 3.081 2.991 3.87 4.747.799 1.735 1.114 3.758.935 6.06-.156 2.317-.824 4.606-2 6.865-2.02 3.875-4.826 6.591-8.418 8.144-3.581 1.533-8.228.809-13.942-2.171h-61.28v20.895h-6.03m59.757 116.04h-41.948c55.844 150.25 58.677 150.8 60.881 150.11 2.21-.693 3.999-2.357 5.372-4.988.994-1.906 1.41-3.759 1.252-5.556-.133-1.808-.781-3.294-1.952-4.458-.758-.737-2.352-1.74-4.779-3.01h-72.55v18.37"/><path d="m504.14 189.65l17.497-51.4h6.491l18.648 51.4h-6.868l-5.314-15.566h-19.05l-5 15.566h-6.401m13.14-21.11h15.45l-4.757-14.234c-1.448-4.323-2.525-7.876-3.23-10.657-.584 3.295-1.4 6.567-2.456 9.816l-5.01 15.07" transform="matrix(.74426.66789-.66789.74426 286.34-137.51)"/><path d="m571.62 374.9v-236.65h20.2c55.27 224.6 56.783 227.34 57.33 229.58.565 2.234.304 4.56-.779 6.989-1.085 2.425-2.75 4.498-4.994 6.219-2.892 2.22-5.967 3.262-9.227 3.123-3.256-.135-6.487-1.735-9.685-4.789.286 1.792.345 3.271.185 4.444-.374 2.507-1.169 5.215-2.379 8.13 0 0-6.273 14.802-6.273 14.802h-11.806c7.189 211.08 12 199.79 12 199.79 1.375-3.275 2.364-5.865 2.968-7.766.607-1.896.889-3.41.852-4.532-.023-1.106-.216-2.107-.577-2.999-.286-.642-.902-1.58-1.849-2.813h-39.931v22.824h-6.03m46.38 172.55h-27.391c36.954 213.73 38.519 215.25 39.966 216.1 1.465.835 2.998 1.142 4.604.933 1.622-.229 3.091-.848 4.408-1.858 1.929-1.48 3.036-3.319 3.319-5.522.296-2.186-.584-4.62-2.641-7.3h-62.61v17"/><path d="m592.55 189.65l17.497-51.4h6.492l18.647 51.4h-6.868l-5.314-15.566h-19.05l-5 15.566h-6.402m13.14-21.11h15.449l-4.757-14.234c-1.448-4.323-2.53-7.876-3.23-10.657-.583 3.295-1.4 6.567-2.456 9.816l-5.01 15.07" transform="matrix(.48763.87305-.87305.48763 475.73-199.8)"/><path d="m730.47 189.65l17.497-51.4h6.491l18.648 51.4h-6.868l-5.314-15.566h-19.05l-5 15.566h-6.401m13.14-21.11h15.445l-4.752-14.234c-1.454-4.323-2.53-7.876-3.23-10.657-.584 3.295-1.401 6.567-2.456 9.816l-5.01 15.07" transform="matrix(-.104.99458-.99458-.104 908.9-163.73)"/><path d="m-53.15 189.65v-51.4h20.2c4.063 0 7.149.468 9.26 1.403 2.116.912 3.803 2.535 5.07 4.873 1.262 2.337 1.893 4.92 1.893 7.748 0 3.646-1.045 6.72-3.14 9.221-2.09 2.501-5.325 4.09-9.695 4.768 1.596.864 2.806 1.718 3.638 2.559 1.761 1.823 3.426 4.102 5 6.837l7.924 13.988h-7.584l-6.03-10.693c-1.761-3.085-3.214-5.446-4.354-7.082-1.135-1.636-2.164-2.781-3.076-3.435-.891-.655-1.803-1.111-2.731-1.368-.684-.164-1.803-.246-3.357-.246h-6.99v22.824h-6.03m6.03-28.713h12.957c2.753 0 4.911-.316 6.465-.947 1.554-.654 2.731-1.683 3.543-3.085.806-1.426 1.209-2.969 1.209-4.628 0-2.431-.785-4.429-2.36-5.995-1.554-1.566-4.02-2.349-7.399-2.349h-14.415v17" transform="matrix(-.21523-.97656.97656-.21523-37.95 596.54)"/><path d="m152.43 514.84v-376.59h17.18c50.608 352.04 50.969 349.76 51.43 348.2.611-2.194 1.575-3.99 2.893-5.399 1.294-1.406 3.04-2.469 5.236-3.196 2.199-.748 4.569-1.012 7.106-.794 4.355.375 7.94 1.924 10.756 4.636 2.792 2.716 3.913 7.284 3.36 13.704h-91.94v20.895h-6.03m90.92 316.87h-73.11c74.46 328.22 73.879 325.4 72.39 323.62-1.49-1.773-3.714-2.784-6.671-3.039-2.142-.184-4.01.144-5.61.981-1.618.819-2.74 1.989-3.364 3.517-.389.989-.701 2.841-.936 5.567h-67.59v18.37"/><path d="m173.91 438.87v-300.62h17.09c2.137 254.99 4.119 252.97 6.157 251.81 2.027-1.186 4.275-1.67 6.738-1.448 2.454.195 4.663.948 6.628 2.258 1.828 1.219 3.257 2.803 4.286 4.757 1.026 1.959 1.446 4.151 1.252 6.591 2.287-1.789 4.752-2.682 7.398-2.691 2.655-.021 5.228.796 7.717 2.455 2 1.335 3.617 2.959 4.842 4.873 1.216 1.882 1.923 3.686 2.121 5.412s-.019 3.588-.647 5.585c-.637 1.966-1.76 4.156-3.367 6.565h-60.22m29.13 227.68h-13.254c20.2 247.06 21.1 245.35 21.411 244.17.423-1.561.352-2.991-.214-4.293-.556-1.314-1.584-2.47-3.081-3.469-1.419-.946-2.864-1.477-4.336-1.585-1.49-.127-2.806.246-3.941 1.108-1.156.848-2.639 2.632-4.454 5.354h-15.232v15.531m42.851 270.64h-31.506c38.879 235.85 39.57 234.66 39.87 233.92.537-1.312.789-2.532.763-3.673-.027-1.14-.388-2.304-1.086-3.491-.718-1.198-1.756-2.254-3.117-3.161-1.595-1.063-3.217-1.622-4.867-1.676-1.668-.067-3.169.392-4.497 1.374-1.337.951-2.81 2.634-4.419 5.05h-33.992v17.67"/><path d="m260.06 189.65l17.497-51.4h6.497l18.642 51.4h-6.863l-5.314-15.566h-19.05l-5.01 15.566h-6.401m13.148-21.11h15.444l-4.752-14.234c-1.453-4.323-2.53-7.876-3.235-10.657-.578 3.295-1.395 6.567-2.456 9.816l-5 15.07" transform="matrix(.84688-.53178.53178.84688-62.48 318.04)"/></g></g></g></g></svg>