<svg xmlns="http://www.w3.org/2000/svg" viewBox="0 0 640 480"><defs><clipPath id="0"><path d="m-170.67 0h682.67v512h-682.67z"/></clipPath></defs><g clip-path="url(#0)" fill-rule="evenodd" transform="matrix(.9375 0 0 .9375 160 0)" stroke-width="1.25"><path fill="#009af4" d="m-256 0h768v256h-768z"/><path fill="#1c8f31" d="m-256 384h768v128h-768z"/><path fill="#efef00" d="m-256 256h768v128h-768z"/><path transform="matrix(1.0321 0 0 1.0321-253.76 1.683)" fill="#ffda00" d="m673.46 171.02l-36.02-19.86 21.41 35.11-29.64-28.51 11.59 39.47-21.26-35.21.99 41.11-11.42-39.51-9.69 39.97-.8-41.12-19.71 36.1 9.87-39.93-28.38 29.78 19.86-36.02-35.11 21.41 28.5-29.64-39.46 11.59 35.21-21.26-41.11.99 39.51-11.42-39.97-9.69 41.12-.81-36.1-19.7 39.92 9.87-29.77-28.38 36.02 19.86-21.41-35.12 29.64 28.51-11.59-39.46 21.26 35.21-.99-41.12 11.42 39.52 9.69-39.974.8 41.12 19.71-36.1-9.87 39.924 28.38-29.766-19.86 36.02 35.11-21.41-28.5 29.64 39.46-11.59-35.21 21.26 41.11-.99-39.51 11.42 39.97 9.69-41.12.8 36.1 19.71-39.92-9.87z"/></g></svg>