<svg xmlns="http://www.w3.org/2000/svg" viewBox="0 0 640 480" xmlns:xlink="http://www.w3.org/1999/xlink"><defs><clipPath id="0"><path d="m-85.33 0h682.67v512h-682.67z"/></clipPath></defs><g clip-path="url(#0)" transform="matrix(.9375 0 0 .9375 80 0)"><g fill-rule="evenodd"><path fill="#3e5eb9" d="m-128 0h768v512h-768z"/><path fill="#ffd900" d="m-128 91.43h768v329.14h-768z"/><path fill="#b10c0c" d="m-128 128h768v256h-768z"/><rect rx="5.767" ry="5.486" height="10.971" width="621.71" stroke="#000" y="250.51" x="-51.44" stroke-width="1.474" fill="#ffd900"/></g><g stroke="#000" transform="matrix(1.0321 0 0 1.0321-757.03-25.6)"><path d="m-106.3 265.75l-88.58 35.433 88.58 35.433 88.58-35.433-88.58-35.433z" fill-rule="evenodd" transform="matrix(.34 0 0 .3 1256.8 136.42)" stroke-width="4.175" fill="#fff" id="1"/><rect fill-rule="evenodd" rx="4.108" ry="3.543" height="7.087" width="442.91" y="223.23" x="761.81" stroke-width="1.333" fill="#ffd900" id="2"/><path d="m1194.09 230.31c1.77 0 3.545-1.772 3.545-3.543s-1.775-3.543-3.545-3.543" stroke-width="1.334" fill="none" id="3"/><path d="m1190.59 230.31c1.77 0 3.545-1.772 3.545-3.543s-1.775-3.543-3.545-3.543" stroke-width="1.334" fill="none" id="4"/><path d="m1186.99 230.31c1.77 0 3.545-1.772 3.545-3.543s-1.775-3.543-3.545-3.543" stroke-width="1.334" fill="none" id="5"/></g><g stroke="#000" transform="matrix(1.0321 0 0 1.0321-786.29-3.657)"><use xlink:href="#1"/><use xlink:href="#2"/><use xlink:href="#3"/><use xlink:href="#4"/><use xlink:href="#5"/></g><g fill-rule="evenodd" transform="matrix(.48305 0 0 .4852 228.79 259.6)"><path d="m338.07-.416c-5.571 12.442 4.275-4.138 28.3 16.691 4.452 3.87 8.342 14.09 8.342 21.18-1.13-.975-1.969-3.144-3.214-4.552-1.743 2.253 1.664 12.577 2.162 17.457-3.756-2.711-3.394-3.994-4.642-7.324.249 4.03-.645 15.12.849 19.386-2.96-1.09-2.764-4.163-4.31-4.78 1.052 4.834-.916 10.09-.394 15.528-1.73-2.208-3.573-3.938-4.376-4.829-.135 2.588-3.327 9.388-3.4 11.835-1.468-1.144-1.866-2.927-2.111-4.126-1.824 2.955-8.308 13.872-8.724 17.202-4.996-5.689-17.793-19.545-19.459-26.899-1.473 4.175-3.604 5.583-7.817 8.632-1.665-11.656-7.891-24.756-4.561-34.747-2.359 1.804-4.302 3.608-6.66 5.828 2.234-16.88 13.628-36.674 30.02-46.48z" transform="matrix(2.0586 0 0 1.5894-79.54-15.739)" stroke="#000" stroke-width="1.333" fill="#3d5da7"/><g fill="#a70000"><path d="m573.62 81.54c4.763-9.476 9.147-12.482 12.224-18.582 5.436-10.724 6.21-19.257 10.946-18.01 4.736 1.251 4.731 5.642-1.404 16.187-6.135 10.545-9.05 12.797-21.767 20.401" stroke-width="1.275"/><path d="m605.83 104.11c-.611-7.214 1.49-10.227 1.106-14.874-.655-8.176-4.01-13.787.354-14.186 4.366-.399 6.408 2.389 6.421 10.628.013 8.239-1.267 10.402-7.881 18.432" stroke-width="1.131"/><path d="m630.27 118.26c-1.908-10.07-.481-14.539-1.701-21.03-2.126-11.419-6.331-18.934-2.284-19.978 4.047-1.045 6.488 2.648 8.02 14.227 1.533 11.578.724 14.761-4.04 26.78" stroke-width="1.052"/><path d="m655.68 47.68c-5.968-4.509-9.451-4.811-13.299-7.71-6.779-5.085-10.209-10.526-12.389-7.824-2.18 2.702-.633 5.656 6.47 10.347 7.103 4.69 9.508 5.061 19.218 5.187" stroke-width=".692"/><path d="m651.47 81.12c-3.146-6.502-6.455-8.152-8.49-12.336-3.597-7.352-3.602-13.713-7.503-12.08-3.901 1.631-4.215 4.96-.042 12.08 4.172 7.116 6.355 8.404 16.03 12.342" stroke-width="1.037"/></g></g><g fill-rule="evenodd"><path d="m329.6 20.703c-.272-2.662.253-2.981-1.258-4.989 2.2.997 2.284 3.649 4.959 1.767.983-.551 1.411-.569.217-3.526 2.79.14 11.927 3.535 13.39 3.614 3.842.191 10.855-4.373 15.723 1.239 4.672 5.118 3.112 10.429 3.112 17.516-1.877-.975-.973-1.455-2.965-3.989 1.494 6.195-.08 17.364-.08 23.934-.767-1.584-.654-.896-1.404-2.537-1.992 5.997-4.38 7.231-4.38 14.318-.719-2.779-.025-2.192-.825-3.654-1.936 4.552-14.925 8.444-9.92 13.03-4.518-2.87-6.499-2.569-8.548-5.15-.882.617-1.584 1.785-2.404 3.387-7.943-3.96-5.103-12.501-11.326-18.206-1.077 2.392-.586 2.045-1.75 5.938-1.26-5.408-1.604-8.844-3.02-12.819-1.223 2.204-1.113 1.359-3.333 4.689-.918-6.587-2.413-8.142-1.822-12.501-2.359 1.804-.815 1.073-3.173 3.294 2.234-16.88 11.884-29.352 18.808-25.358z" transform="matrix(1.1372 0 0 1.04949-399.42 239.16)" stroke="#000" stroke-width="1.333" fill="#3d5da7"/><g transform="matrix(1.0321 0 0 1.0321-128 0)"><path d="m637.8 230.32c-53.15 59.05-124.02 177.16-265.75 177.16-124.02 0-212.6-118.11-265.75-177.16 53.15-59.06 141.73-177.17 265.75-177.17 141.73 0 212.6 118.11 265.75 177.17z" transform="matrix(.66667 0 0 .6 124.02 109.84)" stroke="#000" stroke-width="2.108" fill="#fff"/><path d="m359.69 178.71c9.427 10.603 1.555 14.877 11.533 15.573 10.523.773 4.558 11.203 13.409 11.566 6.188.27-.618 24.991 5.339 33.15 6.068 8.504 11.15 2.492 11.257 8.636.105 6.354-16.515 5.713-16.807 25.288-.487 11.28-14.03 12-14.672 19.261-.803 6.827 26.672 10.66 26.306 16.771-.377 6.093-29.667 5.139-30.943 12.09-.654 6.241 40.24 11.357 43.528 29.408-6.102 1.996-23.463 3.874-36.585 3.884-82.67.066-141.73-70.866-177.17-106.3 35.434-35.436 94.49-106.3 177.17-106.3 0 0-24.542 22.424-12.366 36.976" stroke-width=".833"/><g transform="matrix(.48485 0 0 .53333 183.72 210.24)" stroke-width="1.25" fill="#fff"><path d="m159.45 0h17.717v53.15h-17.717z" id="6"/><path d="m159.45 88.58h17.717v53.15h-17.717z" id="7"/><path d="m194.88 0h17.717v53.15h-17.717z" id="8"/><path d="m194.88 88.58h17.717v53.15h-17.717z" id="9"/><path d="m230.31 0h17.717v53.15h-17.717z" id="A"/><path d="m230.31 88.58h17.717v53.15h-17.717z" id="B"/><path d="m265.75 0h17.717v53.15h-17.717z" id="C"/><path d="m265.75 88.58h17.717v53.15h-17.717z" id="D"/><path d="m301.18 0h17.717v53.15h-17.717z" id="E"/><path d="m301.18 88.58h17.717v53.15h-17.717z" id="F"/><path d="m336.61 0h17.717v53.15h-17.717z" id="G"/><path d="m336.61 88.58h17.717v53.15h-17.717z" id="H"/></g><g transform="matrix(.48485 0 0 .53333 313.64 210.24)" stroke-width="1.25"><use xlink:href="#6"/><use xlink:href="#7"/><use xlink:href="#8"/><use xlink:href="#9"/><use xlink:href="#A"/><use xlink:href="#B"/><use xlink:href="#C"/><use xlink:href="#D"/><use xlink:href="#E"/><use xlink:href="#F"/><use xlink:href="#G"/><use xlink:href="#H"/></g></g><g transform="matrix(.54409 0 0 .5327 19.257 165.99)"><path d="m338.07-.416c-5.571 12.442 9.754-4.138 33.778 16.691 4.452 3.87 10.833 19.16 10.833 26.25-5.115-1.256-14.173-7.087-14.173-7.087s10.63 12.295 10.63 26.468c-3.756-2.711-5.635-2.304-6.883-5.635 0 4.589 3.34 7.513 3.34 14.599-2.711-2.498-5.01-4.163-7.3-5.625 3.543 7.087-6.457 20.834-1.452 25.423-8.752-1.462-17.707-7.919-21.25-15.01-1.878 1.462-2.082 3.756-2.155 6.203.276.264-13.322-11.656-12.07-16.235-1.824 2.955-2.081 4.579-2.497 7.909-4.996-5.689-9.574-11.378-11.24-18.733-2.22 3.33-2.359 3.33-4.579 6.66-1.665-11.656-1.665-11.24 1.665-21.23-2.359 1.804-4.302 3.608-6.66 5.828 2.234-16.88 13.628-36.674 30.02-46.48z" transform="matrix(1.6714 0 0 1.4783-238.63.199)" stroke="#000" stroke-width="1.333" fill="#3d5da7"/><g fill="#a70000"><path d="m303.48 89.46c1.488-12.675 4.733-17.45 5.703-25.612 1.729-14.356-.322-24.848 4.658-24.582 4.981.265 6.415 5.561 3.953 19.885-2.462 14.324-4.537 17.804-14.314 30.31" stroke-width="1.298"/><path d="m329.47 112.67c-1.01-10.694.924-15.247.283-22.14-1.106-12.12-4.771-20.331-.431-21.09 4.341-.755 6.535 3.311 7 15.549.469 12.237-.691 15.499-6.857 27.672" stroke-width="1.125"/><path d="m370.06 131.6c-4.413-9.253-8.205-12.01-11.06-17.968-5.03-10.468-6.083-19.02-9.965-17.466-3.882 1.549-3.669 5.971 1.937 16.217 5.606 10.246 8.14 12.335 19.08 19.218" stroke-width="1.054"/><path d="m384.09 48.724c-11.241-6.04-17.01-6.12-24.26-10-12.756-6.809-20.18-14.502-22.816-10.268-2.636 4.234.882 8.444 14.03 14.634 13.15 6.19 17.191 6.483 33.04 5.636" stroke-width="1.01"/><path d="m388.21 83.33c-8.186-6.955-13.02-7.979-18.303-12.451-9.299-7.851-13.928-15.56-17.03-12.435-3.106 3.125-1.031 7.253 8.73 14.65 9.761 7.396 13.1 8.314 26.608 10.236" stroke-width=".975"/></g></g></g></g></svg>