<svg xmlns="http://www.w3.org/2000/svg" viewBox="0 0 640 480"><defs><clipPath id="0"><path d="m-85.33 0h682.67v512h-682.67z"/></clipPath></defs><g fill-rule="evenodd" clip-path="url(#0)" transform="matrix(.9375 0 0 .9375 80 0)"><path stroke-width="1.25" fill="#e70013" d="m-128 0h768v512h-768z"/><path d="m385.81 255.77c0 71.32-57.813 129.13-129.13 129.13-71.32 0-129.13-57.813-129.13-129.13 0-71.32 57.813-129.13 129.13-129.13 71.32 0 129.13 57.813 129.13 129.13" fill="#fff" stroke-width="1.06"/><g fill="#e70013" stroke-width="1.25"><path d="m256.68 341.41c-47.27 0-85.63-38.36-85.63-85.63s38.36-85.64 85.63-85.64c11.818 0 25.27 2.719 34.407 9.429-62.63 2.357-78.47 55.48-78.47 76.885s10.128 69.15 78.47 76.2c-7.777 5.01-22.588 8.75-34.406 8.75z"/><path transform="matrix(1.0321 0 0 1.0321-128 0)" d="m445.8 282.71l-37.68-13.74-24.92 31.41 1.43-40.07-37.58-14 38.56-11.02 1.69-40.07 22.4 33.27 38.63-10.77-24.71 31.58z"/></g></g></svg>