<svg xmlns="http://www.w3.org/2000/svg" viewBox="0 0 640 480"><g fill-rule="evenodd"><path stroke-width="1.25" fill="#f31930" d="m0 0h640v480h-640z"/><g transform="matrix(.9375 0 0 .9375 132.01 7.246)"><path d="m293.3 256.24c0 70.63-58.25 127.88-130.1 127.88s-130.1-57.25-130.1-127.88 58.25-127.88 130.1-127.88 130.1 57.25 130.1 127.88" fill="#fff" stroke-width=".714"/><path d="m299.81 256.24c0 56.5-46.598 102.3-104.08 102.3s-104.08-45.803-104.08-102.3 46.598-102.3 104.08-102.3 104.08 45.803 104.08 102.3" fill="#f31830" stroke-width="1.301"/><path d="m318.63 196.5l-1.05 47.27-44.1 11.973 43.47 15.482-1.05 43.35 28.352-33.854 42.842 14.863-24.782-36.33 30.24-36.12-46.41 12.798-27.512-39.43z" stroke-width="1.25" fill="#fff"/></g></g></svg>