<svg xmlns="http://www.w3.org/2000/svg" viewBox="0 0 640 480"><defs><clipPath id="0"><path d="m0 0h682.67v512h-682.67z"/></clipPath></defs><g fill-rule="evenodd" clip-path="url(#0)" transform="scale(.9375)" stroke-width="1.25"><path fill="#de2110" d="m0 0h768v512h-768z"/><path fill="#08399c" d="m0 0h385.69v256h-385.69z"/><path transform="matrix(1.0321 0 0 1.0321.82 1.044)" fill="#fff" d="m272.53 171.99l-45.86-9.43 9.77 45.79-35.01-31.09-14.44 44.54-14.77-44.44-34.77 31.36 9.43-45.86-45.79 9.76 31.09-35-44.54-14.44 44.43-14.77-31.35-34.77 45.86 9.42-9.76-45.79 35 31.1 14.44-44.543 14.77 44.43 34.77-31.355-9.43 45.865 45.79-9.77-31.09 35.01 44.54 14.43-44.43 14.77z"/><path transform="matrix(1.0437 0 0 1.0409-2.01.449)" fill="#005387" d="m230.41 167.62l-14.31 7.62-13.96 8.27-16.21-.56-16.21.19-13.76-8.59-14.14-7.95-7.62-14.32-8.27-13.95.55-16.21-.18-16.22 8.59-13.76 7.95-14.14 14.31-7.62 13.96-8.27 16.21.56 16.22-.18 13.76 8.58 14.13 7.95 7.62 14.32 8.27 13.95-.55 16.21.18 16.22-8.59 13.76z"/><path d="m244.64 128.28c0 28.645-23.22 51.866-51.866 51.866s-51.866-23.22-51.866-51.866 23.22-51.866 51.866-51.866 51.866 23.22 51.866 51.866" fill="#fff" stroke-width="1.29"/></g></svg>