<svg xmlns="http://www.w3.org/2000/svg" xmlns:xlink="http://www.w3.org/1999/xlink" viewBox="0 0 640 480"><defs><clipPath id="0"><path d="m0 0h640v512h-640z"/></clipPath><linearGradient id="6" y2="459.27" xlink:href="#4" gradientUnits="userSpaceOnUse" x2="0" gradientTransform="matrix(.00521-.77508 1.37615.01053-371.84 498.74)" y1="360.52"/><linearGradient id="7" y2="459.27" xlink:href="#4" gradientUnits="userSpaceOnUse" x2="0" gradientTransform="matrix(-.51572.54605-.96951-1.04181 390.96 726.4)" y1="360.52"/><linearGradient id="8" y2="459.27" xlink:href="#4" gradientUnits="userSpaceOnUse" x2="0" gradientTransform="matrix(-.50826-.55395.98355-1.02677-212.76 802.79)" y1="360.52"/><linearGradient id="9" y2="459.27" xlink:href="#4" gradientUnits="userSpaceOnUse" x2="0" gradientTransform="matrix(-.72659-.01003.0178-1.4678 101.58 898.93)" y1="360.52"/><linearGradient id="5" y2="459.27" xlink:href="#4" gradientUnits="userSpaceOnUse" x2="0" gradientTransform="matrix(.51684-.54484.96736 1.04408-283.29 162.58)" y1="360.52"/><linearGradient id="4"><stop stop-color="#faff00"/><stop stop-color="#f5c402" offset="1"/></linearGradient><linearGradient id="1" y2="459.27" xlink:href="#4" gradientUnits="userSpaceOnUse" x2="0" gradientTransform="matrix(.51117.5509-.97812 1.03263 317.95 85.38)" y1="360.52"/><linearGradient id="3" y2="459.27" xlink:href="#4" gradientUnits="userSpaceOnUse" x2="0" gradientTransform="matrix(.72665 0 0 1.4679 0-8.463)" y1="360.52"/><linearGradient id="2" y2="459.27" xlink:href="#4" gradientUnits="userSpaceOnUse" x2="0" gradientTransform="matrix(-.00313.77509-1.37618-.00631 478.78 389.72)" y1="360.52"/></defs><g clip-path="url(#0)" transform="scale(1 .9375)"><g fill-rule="evenodd" transform="matrix(.48345 0 0 .48345 116.34-61.37)"><path stroke-width="1.25" fill="#fff" d="m-240.65 126.95h1587v1059h-1587z"/><g stroke="#cbaa19" fill-opacity=".561" stroke-width="3.228"><path d="m-25.558 413.63c-19.603-6.06-38.778-8.04-62.932-20.221-25.483-23.05-27.309-30.449-43.487-37.23-6.09-2.309-10.547-1.336-20.756-10.569-13.05-14.771-7.878-21.627-1.568-27.13 5.322 3.232 7.01 7.06 21.898 6.946 8.432.311 20.469 2.717 32.3 9.495 9.306 7.775 20.809 18.468 34.33 23.536 16.14 3.946 21.919 7.929 32.996 7.391 12.978 1.029 15.07 3.828 25.952 8.188 4.914 21.12-1.424 30.06-18.737 39.594z" fill="url(#7)"/><path d="m6.252 360.58c-9.406-18.236-21.426-33.31-29.656-59.07-1.402-34.33 2.598-40.819-3.896-57.11-2.619-5.963-6.435-8.462-6.998-22.22 1.4-19.659 9.915-20.773 18.262-20.12 1.422 6.06-.127 9.945 10.384 20.493 5.685 6.235 12.4 16.51 15.851 29.701.97 12.09 1.398 27.788 7.257 40.989 8.49 14.281 9.696 21.2 17.841 28.724 8.358 9.982 7.828 13.438 12.337 24.26-11.628 18.3-22.448 20.04-41.38 14.366z" fill="url(#9)"/><path d="m65.48 345.99c6.202-19.559 8.317-38.72 20.666-62.787 23.23-25.32 30.642-27.09 37.537-43.22 2.352-6.074 1.41-10.537 10.715-20.68 14.863-12.943 21.682-7.725 27.14-1.376-3.27 5.299-7.107 6.958-7.101 21.849-.371 8.429-2.861 20.449-9.723 32.23-7.841 9.25-18.615 20.678-23.778 34.17-4.06 16.11-8.08 21.862-7.624 32.943-1.121 12.97-3.934 15.05-8.371 25.893-21.15 4.764-30.05-1.637-39.46-19.02z" fill="url(#8)"/><path d="m117.69 377.35c18.18-9.511 33.18-21.618 58.902-29.996 34.33-1.6 40.833 2.363 57.09-4.226 5.948-2.653 8.425-6.484 22.17-7.126 19.666 1.287 20.829 9.795 20.229 18.15-6.05 1.457-9.946-.069-20.433 10.502-6.202 5.721-16.438 12.495-29.609 16.02-12.08 1.04-27.779 1.559-40.947 7.493-14.232 8.572-21.14 9.818-28.621 18.01-9.934 8.415-13.393 7.906-24.18 12.477-18.367-11.522-20.17-22.332-14.604-41.3z" fill="url(#6)"/><path d="m132.62 436.57c19.589 6.106 38.76 8.128 62.887 20.359 25.433 23.11 27.24 30.509 43.41 37.33 6.085 2.322 10.544 1.359 20.732 10.614 13.02 14.8 7.83 21.644 1.508 27.13-5.315-3.244-6.993-7.07-21.883-6.994-8.431-.33-20.463-2.762-32.28-9.566-9.288-7.796-20.768-18.514-34.28-23.612-16.13-3.981-21.901-7.977-32.98-7.463-12.976-1.057-15.07-3.861-25.934-8.245-4.867-21.13 1.49-30.06 18.825-39.553z" fill="url(#5)"/><path d="m42.04 504.1c-6.092 19.594-8.1 38.766-20.313 62.902-23.09 25.45-30.489 27.26-37.29 43.43-2.317 6.087-1.351 10.545-10.599 20.74-14.79 13.03-21.639 7.846-27.13 1.528 3.24-5.317 7.07-6.998 6.978-21.888.323-8.431 2.747-20.465 9.542-32.29 7.789-9.294 18.499-20.782 23.586-34.3 3.969-16.13 7.961-21.907 7.439-32.985 1.048-12.977 3.85-15.07 8.226-25.94 21.12-4.883 30.06 1.468 39.567 18.795z" fill="url(#1)"/><path d="m-10.472 472.86c-18.15 9.563-33.12 21.713-58.816 30.17-34.32 1.698-40.84-2.246-57.08 4.389-5.941 2.67-8.406 6.508-22.15 7.19-19.67-1.231-20.857-9.735-20.281-18.09 6.05-1.474 9.946.041 20.403-10.56 6.186-5.738 16.402-12.543 29.563-16.11 12.08-1.075 27.774-1.638 40.925-7.61 14.207-8.613 21.11-9.879 28.569-18.09 9.909-8.443 13.37-7.944 24.15-12.546 18.4 11.469 20.234 22.274 14.723 41.26z" fill="url(#2)"/></g><g fill="#002993" stroke-width="1.25"><path d="m345.13 247.98h1001.2v120.52h-1001.2z"/><path d="m345.13 482.62h1001.2v120.52h-1001.2z"/></g><path d="m101.66 488.82c9.641 18.11 21.855 33.03 30.418 58.686 1.846 34.31-2.07 40.849 4.635 57.06 2.696 5.929 6.544 8.378 7.285 22.12-1.146 19.675-9.645 20.899-18 20.359-1.5-6.04-.002-9.946-10.648-20.357-5.765-6.161-12.613-16.348-16.234-29.493-1.126-12.07-1.758-27.767-7.786-40.892-8.674-14.17-9.97-21.07-18.211-28.491-8.486-9.873-8-13.336-12.65-24.09 11.39-18.449 22.19-20.33 41.19-14.9z" fill-opacity=".561" stroke="#cbaa19" stroke-width="3.228" fill="url(#3)"/><g fill="#002993" stroke-width="1.25"><path d="m-240.65 714.54h1587v120.52h-1587z"/><path d="m-240.65 947.82h1587v120.52h-1587z"/></g><g stroke="#cbaa19" stroke-width="3.228"><path d="m82.66 496.87l-29.12 159.36v-159.36h29.12z" stroke-linecap="round" fill="#faff00"/><path d="m24.42 496.87c0 0 29.12 159.36 29.12 159.36v-159.36h29.12z" fill="#f5c402"/><path d="m124.99 455.1c0 0 92.34 133.11 92.34 133.11v-91.34h29.12z" stroke-linecap="round" fill="#faff00"/><path d="m83.89 496.36c0 0 133.44 91.85 133.44 91.85v-91.34h29.12z" fill="#f5c402"/><path d="m125.34 395.75c0 0 159.42 28.812 159.42 28.812v72.31h29.12z" stroke-linecap="round" fill="#faff00"/><path d="m125.46 453.99c0 0 159.3-29.426 159.3-29.426v72.3h29.12z" fill="#f5c402"/><path d="m83.925 353.68c0 0 133.49-91.78 133.49-91.78v234.97h29.12z" stroke-linecap="round" fill="#faff00"/><path d="m125.01 394.95c0 0 92.41-133.06 92.41-133.06v234.97h29.12z" fill="#f5c402"/><path d="m24.278 353.21c0 0 28.807-159.42 28.807-159.42v303.08h29.12z" stroke-linecap="round" fill="#faff00"/><path d="m82.52 353.1c0 0-29.431-159.3-29.431-159.3v303.07h29.12z" fill="#f5c402"/><path d="m-17.922 394.92c0 0-92.35-133.1-92.35-133.1v235.05h29.12z" stroke-linecap="round" fill="#faff00"/><path d="m23.19 353.66c0 0-133.45-91.84-133.45-91.84v235.05h29.12z" fill="#f5c402"/><path d="m-17.996 454.92c0 0-159.67-27.355-159.67-27.355v69.31h29.12z" stroke-linecap="round" fill="#faff00"/><path d="m-18.634 396.69c0 0-159.03 30.879-159.03 30.879v69.3h29.12z" fill="#f5c402"/><path d="m23.85 496.63c0 0-132.58 93.08-132.58 93.08v-92.85h29.12z" stroke-linecap="round" fill="#faff00"/><path d="m-17.636 455.76c0 0-91.1 133.96-91.1 133.96v-92.85h29.12z" fill="#f5c402"/><ellipse fill="#faff00" transform="translate(.956 2.868)" cx="52.585" rx="82.22" cy="422.29" ry="81.27"/></g></g></g></svg>