<svg xmlns="http://www.w3.org/2000/svg" viewBox="0 0 500 500" enable-background="new 0 0 500 500"><g fill="#fff"><path d="m0 0h500v500h-500z"/><path stroke="#000" stroke-width="3.205" stroke-linecap="round" stroke-linejoin="round" d="m388.9 135.6c0 0-1-3.4-1.8-5-.5-.9-1.2-1.8-1.8-2.6-.8-1-1.6-2-2.6-2.8-.9-.7-1.9-1.3-2.9-1.8-1.1-.6-2.2-1.2-3.4-1.5-1.2-.3-3.8-.3-3.8-.3s-2.6 0-3.8.3c-1.2.3-2.3.9-3.4 1.5-1 .5-2 1.1-2.9 1.8-1 .8-1.8 1.8-2.6 2.8-.7.8-1.3 1.6-1.8 2.6-.8 1.6-1.8 5-1.8 5l16.3-.6 16.3.6z"/></g><path fill="#ce9d09" stroke="#000" stroke-width="3.205" stroke-linecap="round" stroke-linejoin="round" d="m374.1 121.7c.8.1 1.7.9 2.3.3.3-.2.1-.7 0-1.1-.3-.8-1.7-.9-1.7-1.7-.1-.7 1-1 1.3-1.7.1-.3.1-.7 0-1.1-.6-1.3-2.9-1.4-3.3-2.7-.2-.6 1.2-1.3 1.4-1.4.9-.4 1.9.5 2.8.2.6-.3 1.2-.8 1.2-1.5 0-.7-.7-1.3-1.4-1.5-1.2-.5-3.2 1.2-4 .1-.7-1 1.7-2.2 1.4-3.4-.2-.6-1.4-1.1-1.4-1.1s-1.2.5-1.4 1.1c-.3 1.2 2.1 2.4 1.4 3.4-.8 1.1-2.8-.6-4-.1-.6.3-1.4.8-1.4 1.5 0 .6.6 1.2 1.2 1.5.9.4 1.9-.5 2.8-.2.2.1 1.5.8 1.4 1.4-.4 1.3-2.8 1.4-3.3 2.7-.1.3-.1.7 0 1.1.2.7 1.3 1 1.3 1.7-.1.8-1.4 1-1.7 1.7-.1.3-.3.8 0 1.1.6.5 1.5-.3 2.3-.3.5 0 1.5 0 1.5 0s.8-.1 1.3 0z"/><path fill="#ffe000" d="m0 0h250v500h-250z"/><path fill="#fff" d="m359.3 161.4l-9.2 1.8-3.4-10.2 2.5-2.8 10.7-4.9 12.8-.9 12.8.9 10.7 4.9 2.5 2.8-3.4 10.2-9.2-1.8-13.3-2.2-13.5 2.2"/><g stroke="#000" stroke-linejoin="round"><g stroke-width="3.205"><g stroke-linecap="round"><g fill="#ce9d09"><path d="m368.4 145.8c-2.4.1-4.8.3-7.2.7-2.5.5-4.9 1.1-7.2 1.9-2.2.8-4.6 4.5-6.4 3-.4-.3.2-1 .3-1.5.4-.9.9-1.8 1.5-2.5.5-.5 1.6-.6 1.7-1.3.1-.5-.7-.8-.9-1.3-.2-.6-.3-1.4-.1-2 .2-.8 1.3-1.2 1.5-2.1.2-.7-.5-1.6-.2-2.2.4-.8 2.3-.6 2.4-1.5.1-.5-.8-.6-.9-1-.1-.3.1-.6.1-1 0-.4.1-.9-.1-1.3-.2-.4-.7-.4-.9-.8-.1-.4 0-.8.2-1.1.2-.2.7.1.9-.2.3-.5-.5-1.1-.7-1.6-.3-.6-.6-1.3-.8-1.9-.1-.5-.6-1.4-.1-1.7.5-.3 1.1.6 1.6 1 .7.5 1.4 1 1.9 1.7.3.5.1 1.3.6 1.7.5.5 1.6.1 2.1.6.5.4.9 1.1.7 1.7-.1.6-1.5.6-1.4 1.1.2.7 1.4.6 2.1.5.4-.1.7-.4 1-.7.3-.2.5-.4.8-.6.3-.1 1.1-.2 1.1-.2l-.4-.1c0 0-.6-.5-.7-.9-.1-.3.1-.7.3-1 .3-.3.7-.4 1.1-.4.3 0 .7.1.9.4.2.2.4.6.3 1 0 .3-.2.6-.5.8-.3.2-.9.3-.9.3l.5.1 1.2 1.7 5.3-.3c0 0 .7-.7.5-1-.1-.4-.5-.5-1.1-.5-1.7.1-2.1-1.4-2-2.4.1-.9 1.1-1.5 1.9-1.8.8-.3 2.2.7 2.5 0 .3-.7-1.2-1-1.4-1.7-.1-.3-.1-.7 0-1 .4-.7 1.1-1.2 1.9-1.5.3-.1 1-.2 1-.2s.7 0 1 .2c.7.3 1.5.8 1.9 1.5.1.3.1.7 0 1-.2.7-1.7 1-1.4 1.7.4.8 1.7-.3 2.5 0 .8.3 1.8.9 1.9 1.8.1 1-.3 2.5-2 2.4-.6 0-1 .1-1.1.5-.1.4.5 1 .5 1l5.3.3 1.2-1.7.5-.1c0 0-.7-.1-.9-.3-.2-.2-.4-.5-.5-.8 0-.3.1-.7.3-1 .2-.2.6-.4.9-.4.4 0 .8.1 1.1.4.2.3.4.7.3 1-.1.4-.7.9-.7.9l-.4.1c0 0 .7 0 1.1.2.3.1.5.4.8.6.3.2.6.6 1 .7.7.1 1.9.2 2.1-.5.1-.6-1.2-.6-1.4-1.1-.1-.6.3-1.3.7-1.7.5-.5 1.6-.1 2.1-.6.4-.4.3-1.2.6-1.7.5-.7 1.2-1.2 1.9-1.7.5-.4 1.1-1.4 1.6-1 .5.3 0 1.1-.1 1.7-.2.7-.5 1.3-.8 1.9-.2.5-1 1.1-.7 1.6.1.3.7 0 .9.2.3.3.3.7.2 1.1-.1.4-.7.4-.9.8-.2.4-.1.9-.1 1.3 0 .3.2.7.1 1-.2.4-1 .6-.9 1 .1.9 2 .6 2.4 1.5.3.7-.4 1.5-.2 2.2.2.8 1.3 1.2 1.5 2.1.2.6.1 1.4-.1 2-.2.5-.9.8-.9 1.3.1.7 1.2.8 1.7 1.3.7.7 1.2 1.6 1.5 2.5.2.5.7 1.2.3 1.5-1.8 1.5-4.2-2.2-6.4-3-2.3-.9-4.8-1.5-7.2-1.9-2.4-.4-4.8-.6-7.2-.7-1.4-.1-4.2-.1-4.2-.1s-2.4 0-3.8.1z"/><path d="m371.2 112.3c-.5-1.1.4-1.9 1.3-2.8 1 .8 1.9 1.7 1.3 2.8"/></g><path fill="none" d="m357.1 134.2c0 0-1.4.1-1.9-.3-.5-.4-.8-1.2-.6-1.8.1-.5 1.1-1 1.1-1"/><path fill="#ce9d09" d="m354 137.1c0 0 2.5-.6 3.8-.9 1.4-.3 2.8-.6 4.2-.7 1.6-.2 3.2-.3 4.9-.4 1.9-.1 5.8-.1 5.8-.1s3.9 0 5.8.1c1.6.1 3.3.2 4.9.4 1.4.2 2.8.5 4.2.7 1.3.3 3.8.9 3.8.9"/><g fill="#fbe704"><path d="m353 133.8l2.3.1"/><path d="m353.2 131.8l1.5.2"/><path d="m359.2 134.9l.5.9"/></g><g fill="#ce9d09"><path d="m351.7 140.9c0 0 2.3-.6 3.4-.8 1.6-.4 3.2-.8 4.9-1.1 1.9-.3 3.7-.6 5.6-.7 2.3-.2 7-.1 7-.1s4.7-.1 7 .1c1.9.1 3.7.4 5.6.7 1.6.3 3.2.7 4.9 1.1 1.1.3 3.4.8 3.4.8"/><path d="m371 153.1l-1.7-1.4c0 0-2.7 1.1-3.6 2.2-.3.3-.5.7-.4 1.1.1 1.4 2.1 3.6 2.1 3.6l4-1.7"/></g></g><g fill="#ce9d09"><path d="m369.8 191c-1.7 0-3.5-.1-5.2 0-2.6.3-5.2.8-7.8 1.5-1.3.3-3.7 1.2-3.7 1.2l-.2-2 .8-1-1.9-4.1-2.1-1.9v-4c0 0-1 .6-1.5.5-.6-.1-1.1-.7-1.3-1.2-.2-.4.1-1 0-1.4-.1-.4-.4-.8-.7-1.1-.3-.4-.5-.8-.8-1.1-.3-.4-1.1-.7-1.1-1.2 0-.4.8-.8.8-.8l1.1-.2 2.3-3.9-.2-4.3c0 0-.9-.6-1.2-1.1-.2-.4-.2-1.2-.2-1.2l2.4-3.1c0 0-.7 0-1-.1-.5-.3-1.2-1.3-1.2-1.3s-1.3.9-2.1.8c-.4-.1-.7-.4-.8-.7-.2-.3-.3-.8-.2-1.1.1-.3.3-.5.6-.7.5-.4 1.3-.3 1.6-.8.2-.4.1-1 0-1.4-.3-.9-.9-1.7-1.5-2.5-.3-.5-1.1-.9-1.1-1.5 0-.3.4-.9.4-.9s1 0 1.5.1c.8.2 1.7.6 2.2 1.2.5.5.6 1.3.9 1.9.2.5.5 1.5.5 1.5s1.2 0 1.7.2c.7.3 1.4.8 1.7 1.5.2.6.2 1.3 0 1.8-.2.6-.7 1-1.2 1.4-.6.4-1.9.6-1.9.6s1.2 1.2 2 1.5c.4.1.9.1 1.3 0 .5-.2.9-.6 1.3-.9.9-.7 1.8-1.5 2.6-2.4.4-.5 1.1-1.7 1.1-1.7s-1.1-.6-1.5-1c-.3-.3-.5-.7-.5-1.1 0-.5.1-1 .4-1.3.3-.3.8-.4 1.3-.4.4 0 .8.1 1.1.4.3.3.6.7.6 1.1 0 .4-.1.7-.3 1.1-.3.5-1.1 1.2-1.1 1.2s2.6 2 4.1 2.4c1.5.4 3.2.3 4.7-.1.4-.1 1-.6 1-.6 1.8-1.1 3.5-1.7 5.3-1.6 1.8-.2 3.5.4 5.3 1.6 0 0 .6.5 1 .6 1.5.4 3.2.5 4.7.1 1.5-.4 4.1-2.4 4.1-2.4s-.8-.8-1.1-1.2c-.2-.3-.3-.7-.3-1.1.1-.4.3-.9.6-1.1.3-.2.7-.4 1.1-.4.4 0 .9.1 1.3.4.3.3.5.8.4 1.3 0 .4-.3.8-.5 1.1-.4.4-1.5 1-1.5 1s.6 1.2 1.1 1.7c.7.9 1.7 1.7 2.6 2.4.4.3.8.7 1.3.9.4.1.9.1 1.3 0 .8-.3 2-1.5 2-1.5s-1.4-.2-1.9-.6c-.5-.3-1-.8-1.2-1.4-.2-.6-.2-1.3 0-1.8.3-.7 1-1.2 1.7-1.5.5-.2 1.7-.2 1.7-.2s.3-1 .5-1.5c.3-.7.4-1.4.9-1.9.6-.6 1.4-1 2.2-1.2.5-.1 1.5-.1 1.5-.1s.4.6.4.9c-.1.6-.8 1-1.1 1.5-.5.8-1.2 1.6-1.5 2.5-.1.5-.3 1 0 1.4.3.5 1.1.5 1.6.8.2.2.5.4.6.7.1.4 0 .8-.2 1.1-.2.3-.5.6-.8.7-.7.1-2.1-.8-2.1-.8s-.7 1-1.2 1.3c-.3.1-1 .1-1 .1l2.4 3.1c0 0 0 .8-.2 1.2-.2.5-1.2 1.1-1.2 1.1l-.2 4.3 2.3 3.9 1.1.2c0 0 .8.4.8.8 0 .5-.7.8-1.1 1.2-.3.4-.6.7-.8 1.1-.2.4-.6.7-.7 1.1-.1.5.2 1 0 1.4-.2.5-.8 1.1-1.3 1.2-.5.1-1.5-.5-1.5-.5v4l-2.1 1.9-1.9 4.1.8 1-.2 2c0 0-2.4-.9-3.7-1.2-2.6-.6-5.1-1.2-7.8-1.5-1.7-.2-3.5 0-5.2 0-.9 0-2.8 0-2.8 0s-2.3 0-3.2 0z"/><g stroke-linecap="round"><path d="m349 155c0 0-.8.7-1.1 1.2-.3.4-.5.9-.6 1.4-.1.6 0 1.7 0 1.7"/><path d="m348.2 166c0 0 2.2-1 3.3-1.4 2.1-.7 4.2-1 6.4-1.5 2.5-.5 5.1-.6 7.5-1.2.8-.2 1.5-.6 2.3-.7 1.1-.2 2.2-.6 3.3-.3.6.1 1.6.9 1.6.9s1-.8 1.6-.9c1.1-.2 2.2.1 3.3.3.8.2 1.5.5 2.3.7 2.5.6 5 .7 7.5 1.2 2.1.4 4.3.8 6.4 1.5 1.1.4 3.3 1.4 3.3 1.4"/></g></g><g stroke-linecap="round"><g fill="none"><path d="m348.4 170.3c0 0 3.5-1.2 5.3-1.7 1.8-.6 3.6-1.2 5.5-1.6 2.2-.5 4.5-.7 6.8-1 2.2-.2 6.7-.5 6.7-.5s4.4.2 6.7.5c2.3.2 4.6.5 6.8 1 1.9.4 3.7 1.1 5.5 1.6 1.8.6 5.3 1.7 5.3 1.7"/><path d="m369.4 173.4c0 0-1 .2-1.4.5-.6.4-1.2 1-1.4 1.7-.2.5-.2 1.1 0 1.5.3.7 1 1.1 1.7 1.5.4.2.9.3 1.3.3.6-.1 1.5-.8 1.5-.8"/></g><g fill="#ce9d09"><path d="m347.6 175l1.1 2.4c-1.2 0-1.6.6-1.9 1.3"/><path d="m349.7 178.1c0 0 1-1.1 1.7-1.2.4-.1.9 0 1.3.3.5.3.8.9.9 1.5.1.5.1 1.1-.1 1.6-.2.4-.4.9-.8 1-1 .4-3.1-.4-3.1-.4"/><path d="m348.6 177.2l1.1.9-.1 2.8"/></g><path fill="none" d="m369.6 178.9c0 0-.6 1.1-1.1 1.4-1.6.8-3.6.6-5.3.1-1-.3-2.6-.6-2.8-1.6-.1-.4.6-.6.7-1 .1-.3.2-.7.1-1-.2-.5-.5-.9-1-1.1-.4-.2-.9-.2-1.3 0-.4.1-.8.4-1 .7-.2.4-.3 1-.1 1.4.1.5.8.6 1 1.1.1.5 0 1.1-.3 1.5-.6.8-1.6 1.2-2.6 1.5-.6.2-1.3.5-1.9.2-.4-.2-.9-1.1-.9-1.1"/><path fill="#fbe704" d="m358.7 178.9l1.7-.2"/></g><path fill="#fff" d="m375.4 200.2c4.3-.3 8.7-.8 12.9-1.9 1.2-.3 2.6-.5 3.5-1.3.4-.4.7-.9.7-1.5.1-.6-.1-1.3-.4-1.7-1.5-1.9-4.1-2.8-6.4-3.4-4.2-1.2-13.1-.9-13.1-.9s-8.9-.3-13.1.9c-2.3.7-4.9 1.5-6.4 3.4-.4.5-.5 1.1-.4 1.7.1.5.3 1.1.7 1.5.9.8 2.3 1 3.5 1.3 4.2 1.1 8.6 1.6 12.9 1.9.9.1 2.8 0 2.8 0s1.9 0 2.8 0z"/><g stroke-linecap="round"><path fill="#fbe704" d="m374.6 119.1h-2-2"/><path fill="none" d="m388 134.2c0 0 1.4.1 1.9-.3.5-.4.8-1.2.6-1.8-.1-.5-1.1-1-1.1-1"/><g fill="#fbe704"><path d="m392.2 133.8l-2.3.1"/><path d="m392 131.8l-1.5.2"/><path d="m386 134.9l-.5.9"/></g><path fill="none" d="m394 146.2c0 0-2.4-1-3.6-1.4-1-.4-2-.7-3.1-1-1.3-.3-2.6-.5-3.9-.7-1.9-.3-3.8-.4-5.7-.6-1.7-.1-5.2-.1-5.2-.1s-3.4 0-5.2.1c-1.9.1-3.8.3-5.7.6-1.3.2-2.6.4-3.9.7-1 .3-2.1.6-3.1 1-1.2.4-3.6 1.4-3.6 1.4"/><g fill="#ce9d09"><path d="m369.7 133.8l1.6-1.2h1.3-1.3c0 0-.7-.5-.9-.9-.2-.4-.3-.8-.2-1.2.1-.5.4-1.1.9-1.4.4-.3 1.6-.1 1.6-.1s1.1-.2 1.6.1c.5.3.8.8.9 1.4.1.4 0 .8-.2 1.2-.2.4-.9.9-.9.9h-1.3 1.3l1.6 1.2"/><path d="m374.2 153.1l1.7-1.4c0 0 2.7 1.1 3.6 2.2.3.3.5.7.4 1.1-.1 1.4-2.1 3.6-2.1 3.6l-4-1.7"/><path d="m371.4 157.1c0 0-1.3-1.2-1.5-2-.1-.3-.1-.8.1-1.1.2-.4 1.2-.9 1.2-.9s-1.4-.7-1.8-1.3c-.2-.4-.2-.8-.1-1.3.2-.6.7-1.2 1.2-1.6.6-.5 2.2-1.1 2.2-1.1s1.6.5 2.2 1.1c.5.4 1 1 1.2 1.6.1.4.1.9-.1 1.3-.4.6-1.8 1.3-1.8 1.3s.9.5 1.2.9c.2.3.2.7.1 1.1-.2.8-1.5 2-1.5 2l-1.2.1-1.4-.1z"/></g><path fill="#fff" d="m399.3 174.2c0 0-1 .8-1.7.8-.9-.1-1.4-1.1-2.2-1.5-1-.6-2-1-3-1.4-1.4-.6-2.9-1.1-4.3-1.6-1.9-.6-3.7-1.2-5.7-1.4-1.9-.3-3.9-.4-5.9-.2-1.3.1-3.9.7-3.9.7s1.1.4 1.6.8c.6.4 1.3.6 1.6 1.3.3.5.3 1.2 0 1.7-.3.6-.9 1.1-1.5 1.3-.5.2-1.8.1-1.8.1s1.4.1 1.9.5c.3.3.5.8.5 1.3 0 .6-.3 1.3-.8 1.7-.4.3-1.6.3-1.6.3s.6.1.9 0c.4-.1.8-.3 1-.6.3-.3.4-.8.4-1.2 0-.4 0-.9-.2-1.3-.2-.3-1-.5-1-.5s.6-.2.9-.3c.4-.2 1.2-.9 1.2-.9s.6 0 .9.1c.6.3 1.1.7 1.5 1.2.4.5.7 1.2.6 1.9-.1.6-.7 1.2-1.2 1.5-.5.4-1.8.7-1.8.7s0 .4.2.6c.4.6 1.1.9 1.8 1.1 1 .3 2.2.2 3.3 0 1.1-.2 1.8-.5 3-1 .4-.2.8-1.1.8-1.1s-.9-.7-.9-1.2c-.1-.5.2-1 .5-1.4.3-.3.8-.6 1.2-.6.6 0 1.4.3 1.7.8.3.5.2 1.2 0 1.7-.2.5-1.1 1-1.1 1 .2.9.6 1.4.9 1.8 1.3.7 2.5 1.1 3.8 1.5l.7-.5.5-.9c0 0-.7-1-.8-1.6 0-.5.2-1 .5-1.4.2-.4.6-.7.9-.9.4-.2.8-.1 1.2 0 .6.2 1.5 1 1.5 1s.9-.8 1.3-1.2c.3-.5.7-1.6.7-1.6l1.9-1.1z"/><path fill="#ce9d09" d="m396.2 155c0 0 .8.7 1.1 1.2.3.4.5.9.6 1.4.1.6 0 1.7 0 1.7"/><path fill="none" d="m375.8 173.4c0 0 1 .2 1.4.5.6.4 1.2 1 1.4 1.7.2.5.2 1.1 0 1.5-.3.7-1 1.1-1.7 1.5-.4.2-.9.3-1.3.3-.6-.1-1.5-.8-1.5-.8"/><g fill="#ce9d09"><path d="m397.6 175l-1.1 2.4c1.2 0 1.6.6 1.9 1.3"/><path d="m395.5 178.1c0 0-1-1.1-1.7-1.2-.4-.1-.9 0-1.3.3-.5.3-.8.9-.9 1.5-.1.5-.1 1.1.1 1.6.2.4.4.9.8 1 1 .4 3.1-.4 3.1-.4"/><path d="m396.6 177.2l-1.1.9.1 2.8"/></g><path fill="none" d="m375.6 178.9c0 0 .6 1.1 1.1 1.4 1.6.8 3.6.6 5.3.1 1-.3 2.6-.6 2.8-1.6.1-.4-.6-.6-.7-1-.1-.3-.2-.7-.1-1 .2-.5.5-.9 1-1.1.4-.2.9-.2 1.3 0 .4.1.8.4 1 .7.2.4.3 1 .1 1.4-.1.5-.8.6-1 1.1-.1.5 0 1.1.3 1.5.6.8 1.6 1.2 2.6 1.5.6.2 1.3.5 1.9.2.4-.2.9-1.1.9-1.1"/><path fill="#fbe704" d="m386.4 178.9l-1.7-.2"/><path fill="#ce9d09" d="m393.5 186.6c0 0-.6-.6-1-.8-.7-.5-1.6-.9-2.4-1.2-1.1-.4-2.3-.7-3.5-.9-1.3-.3-2.7-.6-4-.8-1.6-.2-3.2-.3-4.8-.3-1.7 0-5.2.2-5.2.2s-3.4-.3-5.2-.2c-1.6 0-3.2.1-4.8.3-1.4.2-2.7.5-4 .8-1.2.3-2.4.5-3.5.9-.8.3-1.6.7-2.4 1.2-.4.2-1 .8-1 .8"/><path fill="none" d="m391.6 190.7c0 0-1.4-.6-2.2-.9-1.3-.5-2.7-.9-4-1.3-1.3-.4-2.6-.7-4-.9-2.9-.3-8.8 0-8.8 0s-5.9-.3-8.8 0c-1.4.2-2.7.5-4 .9-1.4.4-2.7.8-4 1.3-.7.3-2.2.9-2.2.9"/></g></g><g stroke-width="2"><g fill="#fff"><path d="m344.8 228.4l8.3 7.2c0 0-1.7 1.5-2.7 1.9-2 .9-4.2 1.5-6.3 1.5-1.5 0-3.1-.6-4.5-1.2-3.1-1.4-6.6-2.9-8.6-5.7-.7-1-1-2.3-1-3.5 0-1.4 1.3-4 1.3-4s.5 1.7 1 2.4c.9 1.1 2.2 1.9 3.5 2.5 1 .5 2 .8 3.1.9 1.4.1 2.8-.1 4.1-.6.7-.5 1.8-1.4 1.8-1.4z"/><path d="m331.7 175.5c0 0 .7 1.3.9 2 .3 1.2.6 2.5.6 3.7 0 1.3-.3 2.5-.6 3.7-.5 1.8-1.3 3.6-2.1 5.3-.5 1.1-1.2 2.1-1.7 3.1-.8 1.7-1.4 3.6-2.1 5.4-.6 1.5-1.4 2.9-1.8 4.5-.6 2-.9 4.2-1.2 6.3-.2 1.8-.4 3.7-.5 5.5 0 2.2.1 4.4.5 6.5.4 2.1 1 4.2 1.9 6.2.8 1.6 1.8 3 3 4.3 1 1.1 2.1 2 3.4 2.7 1.1.7 2.4 1.1 3.6 1.5 1.7.7 5.1 1.9 5.1 1.9s-4.7-2.3-6.3-4.3c-1.4-1.6-2.1-3.7-2.6-5.8-.5-2.4-.5-4.9-.2-7.3.3-2.6 1-5.2 1.8-7.7.8-2.6 2-5.2 3.1-7.7.8-1.8 1.7-3.6 2.4-5.5.9-2.2 1.8-4.4 2.5-6.6.4-1.4 1-2.7 1.1-4.2.1-1.6-.1-3.1-.4-4.7-.5-2.1-1.1-4.3-2.4-6.1-.8-1.1-1.8-2-3-2.6-1.1-.6-2.5-1.1-3.8-.8-.5.1-1.2.7-1.2.7z"/><path d="m342.3 189.1c0 0 .9-3.6 1-5.4.1-1.6 0-3.2-.1-4.7-.2-1.7-.3-3.6-1-5.2-.7-1.7-1.8-3.2-3.1-4.5-1.3-1.2-2.9-2.3-4.5-2.9-1.8-.7-3.7-.9-5.6-1-1.6-.1-3.2 0-4.9.2-.9.1-1.9.3-2.8.6-.8.3-2.3 1.1-2.3 1.1l6 9.8c0 0 1.9-1.1 2.9-1.4 1.1-.3 2.3-.3 3.4-.2 1.2.1 2.3.2 3.4.6 1.3.6 2.5 1.6 3.5 2.7 1.2 1.3 2.3 2.8 3 4.4.6 1.5.7 3.2.9 4.8.2.4.2 1.1.2 1.1z"/></g><g fill="#ce9d09"><path d="m343.4 181.3c0 0-1.1-3.3-2.1-4.7-1.2-1.6-2.7-3.1-4.5-4-1.9-.9-6.2-1.2-6.2-1.2l2.3 4.2-4-.1-2.1-3.5-3.8 1.7-1.9-3.1 4.1-1.9-1.9-3 4.1-.4 1.8 2.9c0 0 3.2 0 4.7.3 1 .2 2.1.6 3 1.1.9.5 1.7 1.1 2.5 1.8.9.8 1.7 1.8 2.4 2.8.6 1 1.3 3.3 1.3 3.3l.3 3.8z"/><path d="m319.1 167.4l-3 1.8-2.9 2.2 6.2 9.4 2.7-2.1 2.8-1.6-5.8-9.7z"/><path d="m316.3 169l6.4 9.3"/><path d="m330.8 207.2l3.6-7.4 3.8 1.5 1.6-3.8-3.8-1.8 2-4.3-2.8-1.3-2.1 4.1-3.8-1.6-1.7 4 3.7 1.6-3.4 7.3 2.9 1.7z"/></g><path fill="#fff" d="m356.2 198.1l3.2.8 5.1.8 2.4.3-.4 10c0 0-.6 6.6-1.5 9.8-.7 2.3-3.2 6.6-3.2 6.6l-1.5 2.3-9.1-7.9c0 0 1.5-2.2 2.1-3.4.7-1.5 1.5-4.8 1.5-4.8l.9-5.2.5-6.6v-2.7z"/><path fill="#ce9d09" d="m359.4 205l3.6-.1v4.2l3.5.2-.6 4.3-3.3-.2c0 0-.5 2.5-1 3.7-.5 1.2-1.9 3.5-1.9 3.5l-3.9-1c0 0 1.4-2.2 1.9-3.4.5-1.1 1.1-3.3 1.1-3.3l-4-.5.7-4 3.6.3.3-3.7z"/><g fill="#fff"><path d="m400.4 228.4l-8.3 7.2c0 0 1.7 1.5 2.7 1.9 2 .9 4.2 1.5 6.3 1.5 1.5 0 3.1-.6 4.5-1.2 3.1-1.4 6.6-2.9 8.6-5.7.7-1 1-2.3 1-3.5 0-1.4-1.3-4-1.3-4s-.5 1.7-1 2.4c-.9 1.1-2.2 1.9-3.5 2.5-1 .5-2 .8-3.1.9-1.4.1-2.8-.1-4.1-.6-.7-.5-1.8-1.4-1.8-1.4z"/><path d="m413.5 175.5c0 0-.7 1.3-.9 2-.3 1.2-.6 2.5-.6 3.7 0 1.3.3 2.5.6 3.7.5 1.8 1.3 3.6 2.1 5.3.5 1.1 1.2 2.1 1.7 3.1.8 1.7 1.4 3.6 2.1 5.4.6 1.5 1.4 2.9 1.8 4.5.6 2 .9 4.2 1.2 6.3.2 1.8.4 3.7.5 5.5 0 2.2-.1 4.4-.5 6.5-.4 2.1-1 4.2-1.9 6.2-.8 1.6-1.8 3-3 4.3-1 1.1-2.1 2-3.4 2.7-1.1.7-2.4 1.1-3.6 1.5-1.7.7-5.1 1.9-5.1 1.9s4.7-2.3 6.3-4.3c1.4-1.6 2.1-3.7 2.6-5.8.5-2.4.5-4.9.2-7.3-.3-2.6-1-5.2-1.8-7.7-.8-2.6-2-5.2-3.1-7.7-.8-1.8-1.7-3.6-2.4-5.5-.9-2.2-1.8-4.4-2.5-6.6-.4-1.4-1-2.7-1.1-4.2-.1-1.6.1-3.1.4-4.7.5-2.1 1.1-4.3 2.4-6.1.8-1.1 1.8-2 3-2.6 1.1-.6 2.5-1.1 3.8-.8.6.1 1.2.7 1.2.7z"/><path d="m402.9 189.1c0 0-.9-3.6-1-5.4-.1-1.6 0-3.2.1-4.7.2-1.7.3-3.6 1-5.2.7-1.7 1.8-3.2 3.1-4.5 1.3-1.2 2.9-2.3 4.5-2.9 1.8-.7 3.7-.9 5.6-1 1.6-.1 3.2 0 4.9.2.9.1 1.9.3 2.8.6.8.3 2.3 1.1 2.3 1.1l-6 9.8c0 0-1.9-1.1-2.9-1.4-1.1-.3-2.3-.3-3.4-.2-1.2.1-2.3.2-3.4.6-1.3.6-2.5 1.6-3.5 2.7-1.2 1.3-2.3 2.8-3 4.4-.6 1.5-.7 3.2-.9 4.8-.1.4-.2 1.1-.2 1.1z"/></g><g fill="#ce9d09"><path d="m401.8 181.3c0 0 1.1-3.3 2.1-4.7 1.2-1.6 2.7-3.1 4.5-4 1.9-.9 6.2-1.2 6.2-1.2l-2.3 4.2 4-.1 2.1-3.5 3.8 1.7 1.9-3.1-4.1-1.9 1.9-3-4.1-.4-1.8 2.9c0 0-3.2 0-4.7.3-1 .2-2.1.6-3 1.1-.9.5-1.7 1.1-2.5 1.8-.9.8-1.7 1.8-2.4 2.8-.6 1-1.3 3.3-1.3 3.3l-.3 3.8z"/><path d="m426.1 167.4l3 1.8 2.9 2.2-6.2 9.4-2.7-2.1-2.8-1.6 5.8-9.7z"/><path d="m428.9 169l-6.4 9.3"/><path d="m414.5 207.2l-3.6-7.4-3.8 1.5-1.6-3.8 3.8-1.8-2-4.3 2.8-1.3 2.1 4.1 3.8-1.6 1.7 4-3.7 1.6 3.4 7.3-2.9 1.7z"/></g><path fill="#fff" d="m389 198.1l-3.2.8-5.1.8-2.4.3.4 10c0 0 .6 6.6 1.5 9.8.7 2.3 3.2 6.6 3.2 6.6l1.5 2.3 9.1-7.9c0 0-1.5-2.2-2.1-3.4-.7-1.5-1.5-4.8-1.5-4.8l-.9-5.2-.5-6.6v-2.7z"/><path fill="#ce9d09" d="m385.9 205l-3.6-.1v4.2l-3.5.2.6 4.3 3.3-.2c0 0 .5 2.5 1 3.7.5 1.2 1.9 3.5 1.9 3.5l3.9-1c0 0-1.4-2.2-1.9-3.4-.5-1.1-1.1-3.3-1.1-3.3l4-.5-.7-4-3.6.3-.3-3.7z"/></g><g fill="#ce9d09"><g stroke-width="3.205"><path d="m306.7 180.8c0 0 .1-1 0-1.5-.2-.8-.7-1.5-1.3-2-.5-.5-1.2-.8-1.8-.9-.7-.1-1.5 0-2.2.2-.5.1-1.4.7-1.4.7l-3 1.2-1.1 3.5c0 0-.6 1.1-.8 1.7-.2.7-.3 1.4-.1 2 .2.8.6 1.5 1.3 2 .6.5 1.3.7 2.1.8.6 0 1.7-.4 1.7-.4.2-3.7 1.9-6.5 6.6-7.3z"/><path d="m300.1 177.1l-7.8-3.4-.6.6 4.2 7.6c0 0 1.2-1.7 1.9-2.5.7-.8 2.3-2.3 2.3-2.3z"/></g><path stroke-width="2" d="m294.6 173.1c0 1.8-1.4 3.2-3.2 3.2s-3.2-1.4-3.2-3.2c0-1.8 1.4-3.2 3.2-3.2s3.2 1.4 3.2 3.2z"/></g><g stroke-width="3.205"><path fill="#ccc" d="m306.7 180.8l20.2 17.3c0 0-1 2.2-1.5 3.4-.4 1.1-.8 2.1-1 3.3-.4 1.6-.8 5-.8 5l-23.6-21.6c.3-5 3.1-6.7 6.7-7.4z"/><g fill="#ce9d09"><path d="m313.2 186.5c.7 5.6 1.5 11.2 3.2 16.8l6.2 5.7c-1.3-5.8-3.7-11.7-3.7-17.5l-5.7-5z"/><path d="m322.6 194.5l-17.1-1.3 5.4 5 15.6.7.2-.8-4.1-3.6z"/></g><g fill="#ccc"><path d="m303.8 191.6l-4.9 5.4 3 2.9-4.7 4.6-3-3-5.1 5.4v6.7l11.6 9.1 4-3-.2-6.5 3.1 1.7 3.1-1.9.2 5.8-2.5-1.8-2.7 3.6-.3 6.4 8.8 7.8 10.6-9.4-.8-2.8-.5-2.5-.2-5 .4-5.5-19.9-18z"/><path d="m298.9 197.1l-.1 6 3.1-3.1-3-2.9z"/></g><g fill="none"><path d="m289.2 206.9l11.5 9.8 3.8-3.4-3-2.5 3.3-3.1 2.6 2.2 2.9-3 3.8 3.7-3.4 2.7 3.2 2.9-3 2.8"/><path d="m305.6 220.8l8.8 7.4 9-7.9"/><path d="m300.6 216.6l.1 6.1"/><path d="m304.7 207.8l.1 5.8"/><path d="m307.5 209.9l.2 5.2"/><path d="m310.3 207l.1 6.4"/></g><g fill="#ccc"><path d="m380.3 245.9l9.7 8.9 2.2 6.3-12.5-1.3-7.1-7.1 7.7-6.8z"/><path d="m335.9 206.5l36.6 32.4-7.6 6.7-32.8-28.4c0 0 .7-2.6 1.1-3.9.6-1.9 1.4-3.7 2.1-5.5.2-.4.6-1.3.6-1.3z"/></g><g fill="#ce9d09"><path d="m343.7 213.4c-4.5 1.7-6.3 4.5-7.6 7.4-1.3.1-2.5.1-2.9-.8 1.1-6.9 6-9.1 7.2-9.5 3-.6 2.4 1.7 3.3 2.9z"/><path d="m349.2 218.6c-4.5 1.7-6.3 4.5-7.6 7.4-1.3.1-2.5.1-2.9-.8 1.1-6.9 6-9.1 7.2-9.5 3-.6 2.4 1.7 3.3 2.9z"/></g><g fill="#ccc"><path d="m438.5 180.5c0 0-.1-1 0-1.5.2-.8.7-1.5 1.3-2 .5-.5 1.2-.8 1.8-.9.7-.1 1.5 0 2.2.2.5.1 1.4.7 1.4.7l3 1.2 1.1 3.5c0 0 .6 1.1.8 1.7.2.7.3 1.4.1 2-.2.8-.6 1.5-1.3 2-.6.5-1.3.7-2.1.8-.6 0-1.7-.4-1.7-.4-.8-4.6-3.1-7-6.6-7.3z"/><path d="m445.1 176.9l7.8-3.4.6.6-4.2 7.6c0 0-1.2-1.7-1.9-2.5-.7-.8-2.3-2.3-2.3-2.3z"/></g></g><path fill="#ccc" stroke-width="2" d="m450.5 172.8c0 1.8 1.4 3.2 3.2 3.2s3.2-1.4 3.2-3.2c0-1.8-1.4-3.2-3.2-3.2s-3.2 1.5-3.2 3.2z"/><g stroke-width="3.205"><path fill="#ce9d09" d="m438.5 180.6l-20.2 17.3c0 0 1 2.2 1.5 3.4.4 1.1.8 2.1 1 3.3.4 1.6.8 5 .8 5l23.6-21.6c-.7-3.5-1.9-6.9-6.7-7.4z"/><g fill="#ccc"><path d="m431.9 186.2c-.7 5.6-1.5 11.2-3.2 16.8l-6.2 5.7c1.3-5.8 3.7-11.7 3.7-17.5l5.7-5z"/><path d="m422.6 194.3l17.1-1.3-5.4 5-15.6.7-.2-.8 4.1-3.6z"/></g><g fill="#ce9d09"><path d="m441.4 191.4l4.9 5.4-3 2.9 4.7 4.6 3-3 5.1 5.4v6.7l-11.6 9.1-4-3 .2-6.5-3.1 1.7-3.1-1.9-.2 5.8 2.5-1.8 2.7 3.6.3 6.4-8.8 7.8-10.6-9.4.8-2.8.5-2.5.2-5-.4-5.5 19.9-18z"/><path d="m446.2 196.8l.1 6-3.1-3.1 3-2.9z"/></g><g fill="none"><path d="m456 206.7l-11.5 9.8-3.8-3.4 3-2.5-3.3-3.1-2.6 2.2-2.9-3-3.8 3.7 3.4 2.7-3.2 2.9 3 2.8"/><path d="m439.6 220.6l-8.8 7.4-9-7.9"/><path d="m444.6 216.4l-.1 6.1"/><path d="m440.4 207.6l-.1 5.8"/><path d="m437.7 209.7l-.2 5.2"/><path d="m434.9 206.8l-.1 6.4"/></g><path fill="#ce9d09" d="m409.3 206.4l-54.8 48.4-3.8 4.6 6.9 4.8 5.9-3.7 49.7-43.5c0 0-.7-2.6-1.1-3.9-.6-1.9-1.4-3.7-2.1-5.5-.3-.3-.7-1.2-.7-1.2z"/><g fill="#ccc"><path d="m401.5 213.3c4.5 1.7 6.3 4.5 7.6 7.4 1.3.1 2.5.1 2.9-.8-1.1-6.9-6-9.1-7.2-9.5-3-.6-2.4 1.7-3.3 2.9z"/><path d="m396 218.5c4.5 1.7 6.3 4.5 7.6 7.4 1.3.1 2.5.1 2.9-.8-1.1-6.9-6-9.1-7.2-9.5-3-.6-2.4 1.7-3.3 2.9z"/></g></g><g stroke-width="2"><path fill="#ccc" d="m335.7 284.1l.3.2c0 0 4.2.5 5.4-.8 1.1-1.1.5-4.7.5-4.7-1.6-.1-3.2-.7-4.7-2.4-1.8-1.9-2.4-3.6-2.4-5.2 0 0-4-.9-5.2.3-1 1-.4 4.3-.4 4.3l.1.2c2.7 2.3 4.9 5 6.4 8.1z"/><g fill="#ce9d09"><path d="m330 315c-.1-.4 0-.8 0-1.1-.5.8-1.2 1.5-1.9 1.3-1-.2-1.1-2-.8-3.1 0-.1.1-.2.1-.3-.1.1-.3.1-.4.1-1.3.9-2.9 1.4-4.5 1.4-4.5 0-8.1-3.6-8.1-8.1l-1.6-.1c0 0-.1 0-.1 0-.1 0-.1 0-.2 0h-.9c0 4.5-3.6 8.1-8.1 8.1-4.5 0-8.1-3.6-8.1-8.1 0-4.3 3.4-7.9 7.7-8.1-.1-.3-.2-.6-.2-1 0-.2 0-.4.1-.6-4.3-.2-7.7-3.7-7.7-8.1 0-4.5 3.6-8.1 8.1-8.1 4.2 0 7.7 3.3 8.1 7.4.4-.2.9-.3 1.4-.3.6 0 1.1.2 1.5.4.2-4.3 3.7-7.7 8.1-7.7 4.5 0 8.1 3.6 8.1 8.1 0 4.4-3.5 7.9-7.8 8.1.1.3.1.6.1.9 0 .4-.1.8-.2 1.1 4.4 0 8 3.6 8 8.1 0 1.8-.6 3.5-1.6 4.8.2-.1.4-.1.6-.1.8.2 1.1 1.5 1 2.5.5-.8 1.3-1.4 2-1.2.3.1.5.4.7.7 3.4-4.4 5.5-9.9 5.5-15.9 0-4.3-1.1-8.4-2.9-11.9l-5.2-3.3-1.2-4.7c-4.5-3.8-10.3-6-16.6-6-6.3 0-12.1 2.3-16.6 6-.4 1.2-1.3 2.1-2.5 2.4-4.2 4.6-6.8 10.8-6.8 17.5 0 6.4 2.3 12.2 6.1 16.7.9.4 1.6 1.1 2 2.1 4.7 4.4 10.9 7.2 17.9 7.2 5.7 0 11-1.8 15.2-4.9 0-1.1.7-1.8 1.7-2.2zm2.9-23.7c1.2 2.6.9 5.9 0 8.8-.9-1.9-2.4-3.2-4.4-4.4 2.2-1.1 3.2-2.6 4.4-4.4zm-16.2-15.5c-1.9 1.2-3.3 2.2-4.4 4.4-1.2-2-2.5-3.5-4.4-4.4 3-.9 6.2-1.1 8.8 0zm-24.4 25c-.9-2.9-1.2-6.1 0-8.8 1.2 1.9 2.2 3.3 4.4 4.4-2 1.1-3.5 2.5-4.4 4.4zm16.5 15.3c1.9-.9 3.2-2.4 4.4-4.4 1.1 2.2 2.5 3.2 4.4 4.4-2.7 1.1-5.9.9-8.8 0z"/><path d="m335.7 284.1c-1.6-3.1-3.8-5.8-6.4-8l1.2 4.7 5.2 3.3z"/></g><path fill="#fff" d="m326.5 311.9c-.9-.3-1-2.1-.5-3.2.1-.3.4-.7.7-1-.3-.7-.1-1.9.3-2.7.5-.9 1.9-2 2.7-1.5.8.4.7 2.1.2 3-.2.4-.5.7-.8 1.1.3.7.2 1.6 0 2.3 0 .1-.1.1-.1.2 1-1.3 1.6-3 1.6-4.8 0-4.5-3.6-8.1-8-8.1-.4 1.1-1.5 1.8-2.7 1.8-1.6 0-2.9-1.3-2.9-2.9s1.3-2.9 2.9-2.9c1.3 0 2.4.9 2.8 2.1 4.4-.1 7.8-3.7 7.8-8.1 0-4.5-3.6-8.1-8.1-8.1-4.3 0-7.9 3.4-8.1 7.7.8.5 1.4 1.4 1.4 2.5 0 1.6-1.3 2.9-2.9 2.9s-2.9-1.3-2.9-2.9c0-1.1.6-2.1 1.6-2.6-.4-4.1-3.8-7.4-8.1-7.4-4.5 0-8.1 3.6-8.1 8.1 0 4.3 3.4 7.9 7.7 8.1.3-1.3 1.5-2.3 2.9-2.3 1.6 0 2.9 1.3 2.9 2.9s-1.3 2.9-2.9 2.9c-1.3 0-2.3-.8-2.7-1.9-4.3.2-7.7 3.7-7.7 8.1 0 4.5 3.6 8.1 8.1 8.1 4.5 0 8.1-3.6 8.1-8.1h.9c-1.5-.1-2.7-1.4-2.7-2.9 0-1.6 1.3-2.9 2.9-2.9s2.9 1.3 2.9 2.9c0 1.6-1.3 2.9-2.8 2.9l1.6.1c0 4.5 3.6 8.1 8.1 8.1 1.7 0 3.2-.5 4.5-1.4-.3 0-.5 0-.6-.1z"/><g fill="#ce9d09"><path d="m342 278.9c2.6.1 5.2-1.4 7.5-2.9 3.6-2.4 9.9-10.3 18.9-16.3l-2.8-2.6c-.1 0-.1.1-.2.1-.2 0-.4 0-.6-.1l-6.5 3 6.5-3c-.5-.3-.9-1-1.1-1.7l-1.1-1c-.4.4-.9.6-1.3.5-.8-.2-1.1-1.5-.9-2.6l-.5-.4c-.3.2-.6.3-.9.2-.6-.1-.9-1-.8-1.8l-.4-.4c0 0-.1 0-.1 0-.2 0-.4-.1-.6-.2-.3 1.5-.1 3.1-.6 4.4-.6 1.5-2.8 4-2.8 4s1.4.2 2.1.4c.9.4 2.4.5 2.6 1.5.2.9-.8 1.6-1.4 2.3-.6.6-1.3 1.1-2.1 1.5-1.2.7-2.5 1.5-3.9 1.8-1.8.3-5-2.2-5.3-.4-.1.7 1.5.3 2.1.6 1.6.8 2.3 2.4 1 3.6-.9.7-2.3.5-3.4.6-1.1.1-2.4-.5-3.3 0-1.1.7-2.5 2.2-1.9 3.4.6 1.2 2.9 1.2 4 .4.8-.6.6-1.9.7-2.9 0-.3 0-.6 0-.9 0 .3 0 .6 0 .9-.1 1 .1 2.3-.7 2.9-1.1.8-3.4.8-4-.4-.6-1.2.8-2.7 1.9-3.4 1-.6 2.2.1 3.3 0 1.1-.1 2.5.2 3.4-.6 1.4-1.2.6-2.8-1-3.6-.7-.3-2.3.1-2.1-.6.3-1.8 3.6.7 5.3.4 1.4-.3 2.7-1.1 3.9-1.8.7-.4 1.5-.9 2.1-1.5.6-.6 1.6-1.4 1.4-2.3-.2-1-1.7-1.2-2.6-1.5-.7-.3-2.1-.4-2.1-.4s2.2-2.5 2.8-4c.6-1.4.3-3 .6-4.4-.3-.2-.5-.7-.7-1.2l-1.3-1.2c-5.4 7.6-14.5 14.7-17.3 18.2-1.6 1.9-2.8 3.8-2.9 5.9l4 3.4 3.1 4.1z"/><path d="m337.3 276.5c1.5 1.7 3.1 2.3 4.7 2.4l-3.1-4.2-4-3.4c0 1.5.6 3.3 2.4 5.2z"/></g><g fill="#ccc"><path d="m296.1 276.1c.1-.3.2-.7.2-1 0-2-1.6-3.5-3.5-3.5-2 0-3.5 1.6-3.5 3.5s1.6 3.5 3.5 3.5c.3 0 .6 0 .9-.1.7-.9 1.5-1.6 2.4-2.4z"/><path d="m296.1 276.1c-.9.7-1.7 1.5-2.5 2.4 1.2-.3 2.2-1.2 2.5-2.4z"/><path d="m292.9 312.7c-.4-.2-.9-.3-1.4-.3-2 0-3.5 1.6-3.5 3.5 0 2 1.6 3.5 3.5 3.5s3.5-1.6 3.5-3.5c0-.4-.1-.8-.2-1.2-.6-.5-1.3-1.2-1.9-2z"/><path d="m292.9 312.7c.6.7 1.3 1.4 2 2.1-.4-.9-1.1-1.7-2-2.1z"/><path d="m330.8 316.4c-.4-.1-.7-.5-.8-1.1-.7.6-1.4 1.2-2.1 1.7-.2.4-.3.8-.3 1.3 0 2 1.6 3.5 3.5 3.5 2 0 3.5-1.6 3.5-3.5 0-1.4-.8-2.6-2-3.2-.3.8-1.1 1.5-1.8 1.3z"/><path d="m330 315c-.9.4-1.7 1.1-2 2 .7-.5 1.4-1.1 2.1-1.7-.1-.1-.1-.2-.1-.3z"/></g><g fill="#ce9d09"><path d="m314.2 287.1c0-.1 0-.2 0-.4-.4-.3-1-.4-1.5-.4-.5 0-.9.1-1.4.3 0 .2 0 .5 0 .7l2.9-.2z"/><path d="m309.8 289.2c0 1.6 1.3 2.9 2.9 2.9s2.9-1.3 2.9-2.9c0-1.1-.6-2-1.4-2.5 0 .1 0 .2 0 .4l-2.8.2c0-.2 0-.5 0-.7-1 .5-1.6 1.5-1.6 2.6z"/><path d="m303.3 295.4c-.1 0-.3 0-.4 0 0 .2-.1.4-.1.6 0 .4.1.7.2 1 .1 0 .3 0 .4 0l-.1-1.6z"/><path d="m305.8 299c1.6 0 2.9-1.3 2.9-2.9s-1.3-2.9-2.9-2.9c-1.4 0-2.6 1-2.9 2.3.1 0 .3 0 .4 0l.1 1.6c-.1 0-.3 0-.4 0 .5 1 1.5 1.9 2.8 1.9z"/><path d="m312.6 305.2c0 0 .1 0 0 0h-.2c.1-.1.1 0 .2 0z"/><path d="m315.5 302.2c0-1.6-1.3-2.9-2.9-2.9s-2.9 1.3-2.9 2.9c0 1.5 1.2 2.8 2.7 2.9h.3c1.6 0 2.8-1.3 2.8-2.9z"/><path d="m322.4 297.1c0 0 .1 0 0 0 .2-.3.3-.7.3-1.1 0-.3-.1-.6-.1-.9-.1 0-.2 0-.3 0l.1 2z"/><path d="m319.8 293.1c-1.6 0-2.9 1.3-2.9 2.9s1.3 2.9 2.9 2.9c1.2 0 2.3-.8 2.7-1.8 0 0 0 0-.1 0l-.1-2c.1 0 .2 0 .3 0-.4-1.1-1.5-2-2.8-2z"/></g><g fill="#fff"><path d="m312.4 280.2c1.1-2.2 2.5-3.2 4.4-4.4-2.6-1.2-5.9-.9-8.8 0 1.8.9 3.2 2.4 4.4 4.4z"/><path d="m292.3 292c-1.2 2.6-.9 5.9 0 8.8.9-1.9 2.4-3.2 4.4-4.4-2.2-1.1-3.2-2.6-4.4-4.4z"/><path d="m332.9 300c.9-2.9 1.2-6.1 0-8.8-1.2 1.9-2.2 3.3-4.4 4.4 2 1.2 3.5 2.6 4.4 4.4z"/><path d="m313.2 311.7c-1.2 2-2.5 3.5-4.4 4.4 2.9.9 6.1 1.2 8.8 0-1.9-1.2-3.3-2.2-4.4-4.4z"/></g></g><path fill="#ce9d09" stroke-width="3.205" d="m414.3 276.1l.1-.2c0 0 .6-3.3-.4-4.3-1.3-1.2-5.2-.3-5.2-.3.1 1.6-.6 3.3-2.4 5.2-1.5 1.7-3.1 2.3-4.7 2.4 0 0-.6 3.5.5 4.7 1.3 1.3 5.4.8 5.4.8l.3-.2c1.6-3.2 3.8-5.9 6.4-8.1z"/><g fill="#ccc" stroke-width="2"><path d="m456.9 296c0-6.8-2.6-12.9-6.8-17.5-1.2-.3-2.2-1.2-2.5-2.4-4.5-3.8-10.3-6-16.6-6-6.3 0-12.1 2.3-16.6 6l-1.2 4.7-5.2 3.3c-1.9 3.6-2.9 7.6-2.9 11.9 0 1.3.1 2.6.3 3.8l1.1 4.5c.9 2.7 2.3 5.3 4 7.5.7-.3 1.7-.3 2.4 0 1.1.4 2.4 1.7 2.1 2.6-.1.4-.5.6-1 .7.9.4 1.6 1.1 1.9 2 4.3 3.1 9.5 4.9 15.2 4.9 6.9 0 13.2-2.7 17.9-7.2.3-.9 1-1.7 2-2.1 3.6-4.5 5.9-10.3 5.9-16.7zm-21.2-20.2c-1.9.9-3.2 2.4-4.4 4.4-1.1-2.2-2.5-3.2-4.4-4.4 2.7-1.1 5.9-.9 8.8 0zm-25 24.2c-.9-2.9-1.2-6.1 0-8.8 1.2 1.9 2.2 3.3 4.4 4.4-2 1.2-3.4 2.6-4.4 4.4zm15.4 16.1c1.9-1.2 3.3-2.2 4.4-4.4 1.2 2 2.5 3.5 4.4 4.4-3 .9-6.2 1.1-8.8 0zm14.1-2.9c-4.5 0-8.1-3.6-8.1-8.1h-.8c-.1 0-.2 0-.2 0 0 0-.1 0-.1 0l-1.6.1c0 4.5-3.6 8.1-8.1 8.1-.9 0-1.7-.1-2.5-.4 0 0 0 .1 0 .1-.3.9-2.1.9-3.2.5-1-.4-2.2-1.6-1.8-2.5.2-.4.6-.7 1.2-.7-1.1-1.4-1.8-3.2-1.8-5.1 0-.4 0-.8.1-1.2v-.2c0 0 0 0 0 0 .6-3.8 3.9-6.7 7.9-6.7-.1-.3-.2-.7-.2-1.1 0-.3.1-.6.1-.9-4.4-.1-7.8-3.7-7.8-8.1 0-4.5 3.6-8.1 8.1-8.1 4.3 0 7.9 3.4 8.1 7.7.4-.3 1-.4 1.5-.4.5 0 .9.1 1.3.3.4-4.1 3.8-7.4 8.1-7.4 4.5 0 8.1 3.6 8.1 8.1 0 4.3-3.4 7.9-7.7 8.1 0 .2.1.4.1.6 0 .4-.1.7-.2 1 4.3.2 7.7 3.7 7.7 8.1-.1 4.6-3.7 8.2-8.2 8.2zm11.2-12.4c-.9-1.9-2.4-3.2-4.4-4.4 2.2-1.1 3.2-2.5 4.4-4.4 1.1 2.6.9 5.9 0 8.8z"/><path d="m414.3 276.1c-2.6 2.2-4.8 4.9-6.4 8l5.2-3.3 1.2-4.7z"/></g><g stroke-width="3.205"><path fill="#fff" d="m440.6 297c-.4 1.1-1.5 1.9-2.7 1.9-1.6 0-2.9-1.3-2.9-2.9 0-1.6 1.3-2.9 2.9-2.9 1.4 0 2.6 1 2.9 2.3 4.3-.2 7.7-3.7 7.7-8.1 0-4.5-3.6-8.1-8.1-8.1-4.2 0-7.7 3.3-8.1 7.4.9.5 1.6 1.5 1.6 2.6 0 1.6-1.3 2.9-2.9 2.9s-2.9-1.3-2.9-2.9c0 0 0 0 0 0 0-1.1.6-2 1.4-2.5-.2-4.3-3.7-7.7-8.1-7.7-4.5 0-8.1 3.6-8.1 8.1 0 4.4 3.5 7.9 7.8 8.1.4-1.2 1.5-2.1 2.8-2.1 1.6 0 2.9 1.3 2.9 2.9 0 1.6-1.3 2.9-2.9 2.9-1.2 0-2.3-.8-2.7-1.8-4 0-7.3 2.9-7.9 6.7.4.1 3.4 1.3 3 2.5-.2 1-3 .6-3 .6l-.1-2.9c-.1.4-.1.8-.1 1.2 0 1.9.7 3.7 1.8 5.1.3 0 .6 0 .9 0-.9-.5-1.9-1.6-1.6-2.4.3-.9 2-.9 3-.6 1.1.4 2.4 1.7 2.1 2.6-.2.6-1.2.8-2.1.7.9.5 1.8 1.5 1.7 2.3.8.2 1.6.4 2.5.4 4.5 0 8.1-3.6 8.1-8.1l1.6-.1c-1.6-.1-2.8-1.3-2.8-2.9 0-1.6 1.3-2.9 2.9-2.9s2.9 1.3 2.9 2.9c0 0 0 0 0 0 0 1.5-1.2 2.8-2.7 2.9h.8c0 4.5 3.6 8.1 8.1 8.1s8.1-3.6 8.1-8.1c-.1-4.3-3.5-7.9-7.8-8.1z"/><g fill="#ccc"><path d="m408.7 271.2c-.1-2.1-1.3-3.9-2.9-5.9-2.8-3.4-11.9-10.6-17.3-18.2l-2.3 2.2c0 .3-.1.6-.3.8-.2.2-.5.2-.8.2l-.5.5c.3.7.3 1.5-.2 1.9-.4.4-1.2.3-1.8 0l-.5.5c.2.6.2 1.3-.2 1.7-.3.3-.9.3-1.3.1.3.4.5.8.4 1.2-.2.6-1 1-1.8 1l6.1 2.7-6.1-2.7c-.2 0-.5 0-.7-.1-.2 0-.3-.1-.5-.2l-.2.2c0 .5-.2 1.1-.4 1.5-.4.6-1.1 1.3-1.8 1.5.2.1.3.2.5.3 1.2.9 2.4 1.8 3.6 2.7l.7.5c0 0 0 0 0 .1 6.2 5.1 10.8 10.4 13.6 12.3 2.2 1.5 4.9 3 7.5 2.9l3.1-4.2 4.1-3.5zm-5.1 2c-.6 1.2-2.9 1.2-4 .4-.8-.6-.6-1.9-.7-2.9 0-.3 0-.6 0-.9 0 .3 0 .6 0 .9.1 1-.1 2.3.7 2.9 1.1.8 3.3.8 4-.4.6-1.2-.8-2.7-1.9-3.4-1-.6-2.2.1-3.3 0-1.1-.1-2.5.2-3.4-.6-1.4-1.2-.6-2.8 1-3.6.7-.3 2.3.1 2.1-.6-.3-1.8-3.6.7-5.3.4-1.4-.3-2.7-1.1-3.9-1.8-.7-.4-1.5-.9-2.1-1.5-.6-.6-1.6-1.4-1.4-2.3.2-1 1.7-1.2 2.6-1.5.7-.3 2.1-.4 2.1-.4s-2.2-2.5-2.8-4c-.6-1.5-.2-3.3-.7-4.9.5 1.6.1 3.4.7 4.9.6 1.5 2.8 4 2.8 4s-1.4.2-2.1.4c-.9.4-2.4.5-2.6 1.5-.2.9.8 1.6 1.4 2.3.6.6 1.3 1.1 2.1 1.5 1.2.7 2.5 1.5 3.9 1.8 1.8.3 5-2.2 5.3-.4.1.7-1.5.3-2.1.6-1.6.8-2.3 2.4-1 3.6.9.7 2.3.5 3.4.6 1.1.1 2.4-.5 3.3 0 1 .7 2.5 2.3 1.9 3.4z"/><path d="m406.4 276.5c1.8-1.9 2.4-3.6 2.4-5.2l-4 3.4-3.1 4.2c1.5-.1 3.1-.7 4.7-2.4z"/></g></g><g stroke-width="2"><g fill="#ce9d09"><path d="m450.1 278.5c.3.1.6.1.9.1 2 0 3.5-1.6 3.5-3.5 0-2-1.6-3.5-3.5-3.5-2 0-3.5 1.6-3.5 3.5 0 .4.1.7.2 1 .7.7 1.6 1.5 2.4 2.4z"/><path d="m450.1 278.5c-.8-.9-1.6-1.7-2.5-2.4.3 1.2 1.2 2.1 2.5 2.4z"/><path d="m448.8 314.8c-.1.4-.2.8-.2 1.2 0 2 1.6 3.5 3.5 3.5 2 0 3.5-1.6 3.5-3.5 0-2-1.6-3.5-3.5-3.5-.5 0-.9.1-1.4.3-.5.7-1.2 1.4-1.9 2z"/><path d="m448.8 314.8c.7-.7 1.3-1.4 2-2.1-.9.4-1.7 1.2-2 2.1z"/><path d="m411.6 314.9c-.3.1-.6.2-.9.3.1.3.1.5 0 .8-.2.5-.8.7-1.5.8-.2.5-.4 1-.4 1.5 0 2 1.6 3.5 3.5 3.5s3.5-1.6 3.5-3.5c0 0 0 0 0 0 0-.5-.1-.9-.3-1.3-.8-.6-1.6-1.2-2.3-1.9-.4.1-1.1 0-1.6-.2z"/><path d="m413.8 315.1c-.1 0-.3.1-.4.1.7.7 1.5 1.3 2.3 1.9-.3-1-1-1.7-1.9-2z"/></g><g fill="#ccc"><path d="m432.2 287.3c0-.2 0-.5 0-.7-.4-.2-.9-.3-1.3-.3-.6 0-1.1.2-1.5.4 0 .1 0 .2 0 .4l2.8.2z"/><path d="m428 289.2c0 0 0 0 0 0 0 1.6 1.3 2.9 2.9 2.9s2.9-1.3 2.9-2.9c0 0 0 0 0 0 0-1.1-.6-2.1-1.6-2.6 0 .2 0 .5 0 .7l-2.8-.2c0-.1 0-.2 0-.4-.8.5-1.4 1.4-1.4 2.5z"/><path d="m440.2 297c.1 0 .3 0 .4 0 .1-.3.2-.6.2-1 0-.2 0-.4-.1-.6-.1 0-.3 0-.4 0l-.1 1.6z"/><path d="m437.9 293.1c-1.6 0-2.9 1.3-2.9 2.9 0 1.6 1.3 2.9 2.9 2.9 1.3 0 2.3-.8 2.7-1.9-.1 0-.3 0-.4 0l.1-1.6c.1 0 .3 0 .4 0-.3-1.3-1.4-2.3-2.8-2.3z"/><path d="m431.1 305.2c.1 0 .2 0 .2 0h-.2c-.1 0-.1 0 0 0z"/><path d="m434 302.2c0 0 0 0 0 0 0-1.6-1.3-2.9-2.9-2.9s-2.9 1.3-2.9 2.9c0 0 0 0 0 0 0 1.6 1.3 2.9 2.8 2.9h.3c1.5-.1 2.7-1.3 2.7-2.9z"/><path d="m421.3 295.2c-.1 0-.2 0-.3 0-.1.3-.1.6-.1.9 0 .4.1.8.2 1.1 0 0 0 0 .1 0l.1-2z"/><path d="m423.9 299c1.6 0 2.9-1.3 2.9-2.9 0-1.6-1.3-2.9-2.9-2.9-1.3 0-2.4.9-2.8 2.1.1 0 .2 0 .3 0l-.1 2c0 0 0 0-.1 0 .4.9 1.4 1.7 2.7 1.7z"/></g></g><g fill="#fff"><path stroke-width="3.205" d="m431.3 280.2c1.2-2 2.5-3.5 4.4-4.4-2.9-.9-6.1-1.2-8.8 0 1.9 1.2 3.3 2.2 4.4 4.4z"/><g stroke-width="2"><path d="m447 296.4c2 1.2 3.5 2.5 4.4 4.4.9-2.9 1.2-6.1 0-8.8-1.2 1.8-2.2 3.3-4.4 4.4z"/><path d="m410.7 291.3c-1.2 2.6-.9 5.9 0 8.8.9-1.9 2.4-3.2 4.4-4.4-2.2-1.1-3.2-2.6-4.4-4.4z"/><path d="m430.4 311.7c-1.1 2.2-2.5 3.2-4.4 4.4 2.6 1.2 5.9.9 8.8 0-1.8-1-3.2-2.4-4.4-4.4z"/></g></g><g stroke-width="3.205"><g fill="#fa0204"><path d="m363.1 373.3c3.8 2.4 7.4 2.2 10.8.1-1.1-1.2-8-1.7-10.8-.1z"/><path d="m378 369c0 0 0 0 0 0-1-.3-2.1-.4-3.2-.3-.1.6-.1 1.2-.2 1.8 1.7.1 3.2-.2 5-.7 0 0 0 0 0 0-.5-.4-1-.6-1.6-.8z"/></g><path fill="#ce9d09" d="m372.6 353.9c.7-.4 1.5-.5 2.5-.5 1.1.1 2 .4 2.7 1 .2-1.9.3-6.9-2.4-7.3-.2 0-.4 0-.6 0-.1 0-.1 0-.2 0-2.4.3-3 3.8-3.2 5.5.1.3.2.7.3 1l.9.3z"/><g fill="#fa0204"><path d="m377.8 354.5c0 .5-.1.8-.1.8l-5.1-1.3c-.3.1-.5.3-.8.5.1.9.1 1.6.1 1.6h-.2c2.4 1.8 3.1 5.6 3.2 9.2l1.2-1.1 1.8 2.8-.8-8.6c1.3 3.2 2.1 6 1.3 9.4l1.2 1.9c.5-.2 2.4-11.7-1.8-15.2z"/><path d="m374.8 368.7c1.1 0 2.3.1 3.2.3l-.2-2-1.8-2.8-1.2 1.1c.1 1.1.1 2.3 0 3.4z"/><path d="m378 369c.6.2 1.1.4 1.5.7l-1.2-1.9c0 .4-.1.8-.3 1.2z"/><path d="m372.6 353.9l5.1 1.3c0 0 .1-.3.1-.8-.7-.6-1.6-1-2.7-1-1 0-1.8.2-2.5.5z"/><path d="m376.4 321.6c.5.4.4 1.3 0 2.1.1.2.2.3.2.5.1.2.3.3.4.5.9.7 2.6 1.3 3.2.5.6-.8-.3-2.4-1.2-3.1-.7-.6-2-1-2.6-.5z"/><path d="m372.6 323.7c.2-.5.5-1 .8-1.3.2-.2.4-.4.6-.5-.7-.2-1.3-.1-1.7.3-.1.2-.2.4-.2.7 0 .1.1.1.1.2.2.1.4.4.4.6z"/><path d="m375.8 324.7c-.2.2-.4.4-.7.6.6-.2 1.2-.2 1.5.1 0 0 0 0 0 .1.2-.3.1-.8 0-1.2-.1-.1-.2-.3-.3-.4-.1.2-.3.5-.5.8z"/><path d="m376.3 323.8c.1.1.2.3.3.4-.1-.2-.1-.3-.2-.5 0 0 0 .1-.1.1z"/><path d="m370.4 323.2c-.3.3-.8.3-1.3.2 0 .2.1.4.1.6.2.1.3.2.4.4.4.4.7.9.9 1.5.6.5 1.3.8 1.8.4.2-.1.4-.4.4-.7 0 0-.1 0-.1 0-.4-.4-.4-1-.2-1.6-.2-.4-.3-.8-.3-1.1-.4-.5-1-1-1.6-1.2.3.5.3 1.2-.1 1.5z"/><path d="m372.6 323.7c-.1-.3-.2-.5-.3-.7 0-.1-.1-.1-.1-.2 0 .4.1.8.3 1.1.1 0 .1-.1.1-.2z"/><path d="m365.7 323.6c.1.2.1.4.2.6.2.3.4.5.6.8-.1-.6-.1-1.1.3-1.4.5-.5 1.6-.2 2.4.4 0-.2-.1-.4-.1-.6-.6-.2-1.3-.6-1.7-1.1-.3-.3-.6-.8-.7-1.3-.2 0-.4 0-.6.1-.4.3-.6.9-.5 1.5 0 .4 0 .7.1 1z"/><path d="m373.8 235.2c0-1.1-.9-1.4-2.6-1.4s-2.6.3-2.6 1.3.8 1.6 2.6 1.6c.1 0 .1 0 .2 0 .2 0 .5 0 .7 0 1.1-.2 1.7-.7 1.7-1.5z"/><path d="m372.1 236.6c-.2 0-.5 0-.7 0-1 .1-1.5.5-1.5 1.3 0 .7.4 1.2 1.1 1.4.5-.3 1.2-.2 2.3.1 1.2-.1 1.8-.6 1.8-1.4 0-1.1-.9-1.4-2.6-1.4-.2 0-.3 0-.4 0z"/><path d="m371.4 236.6c.3 0 .5 0 .7 0-.3 0-.5 0-.7 0z"/><path d="m371 239.3c-.2.1-.3.3-.4.6-.4 1 .2 1.8 1.9 2.3s2.6.5 3-.5-.4-1.6-2-2.2c-.1 0-.1 0-.2 0-.3 0-.5 0-.8 0-.6 0-1.1-.1-1.5-.2z"/><path d="m371 239.3c.4.1.9.2 1.5.2.3 0 .6 0 .8 0-1.1-.4-1.8-.5-2.3-.2z"/><path d="m373.2 242.6c-1.7-.3-2.6-.2-2.8.8-.2 1.1.5 1.7 2.2 2.1s2.7.1 2.9-.9c.2-1.2-.6-1.7-2.3-2z"/><path d="m371.2 246.6c-.2 1.1.5 1.7 2.2 2.1s2.7.1 2.9-.9c.2-1.1-.6-1.6-2.3-1.9-1.7-.4-2.6-.3-2.8.7z"/><path d="m384.5 243.9c.1.1.2.2.3.3.8.2 1.3-1 1.5-1.8.2-.5-.2-1.6-.2-1.6s-1.4 1-1.7 1.8c0 .1 0 .1 0 .2.1.3.2.8.1 1.1z"/><path d="m382.9 245.8c.8.2 1.3-1 1.5-1.8 0 0 0-.1 0-.2-.1-.3-.1-.8 0-1.1 0-.3-.1-.5-.1-.5s-1.7 1-1.9 1.9c-.1.6 0 1.6.5 1.7z"/><path d="m384.5 243.9c.1-.3 0-.8 0-1.1-.1.3-.1.8 0 1.1z"/><path d="m380.3 248c.8.2 1.4-1 1.5-1.8.2-.8.2-2.3-.6-2.5-.7-.2-1.3.9-1.5 1.6-.2 1-.3 2.5.6 2.7z"/><path d="m377.7 250.4c.8.2 1.7-.9 1.9-1.7.2-.9-.1-2.4-1-2.6-.9-.2-1.8 1-2 1.9-.1.9.3 2.3 1.1 2.4z"/><path d="m384.2 250.2c0 0 0 0 0 0 .3.2.6.2.9.2l1.1-1c0-.6-.2-1.3-.6-1.8-.6-.7-2-1.3-2.6-.7-.6.6-.3 1.8.2 2.6.4.1.8.4 1 .7z"/><path d="m385.9 250.2c.2-.2.3-.5.3-.8l-1.1 1c.3 0 .6 0 .8-.2z"/><path d="m384.2 250.2c-.4-.2-.7-.4-.9-.6 0 0-.1-.1-.1-.1-.6-.3-1.2-.4-1.7 0-.7.6-.3 2 .4 2.7.2.2.4.4.7.5l1.9-1.8c0-.3-.1-.5-.3-.7z"/><path d="m384.5 252.7c.5-.4.4-1.2.2-1.9l-1.9 1.8c.5.4 1.2.5 1.7.1z"/><path d="m384.2 250.2c0 0 0 0 0 0-.3-.3-.6-.6-1-.8 0 0 .1.1.1.1.3.3.6.6.9.7z"/><path d="m380.4 254.8l1.8-1.6c-.1-.3-.3-.6-.4-.8-.6-.7-2-1.3-2.6-.7-.7.6-.3 2 .3 2.6.3 0 .6.2.9.5z"/><path d="m380.6 255c.5.2 1 .2 1.3-.1.4-.4.4-1.1.2-1.7l-1.8 1.6c.2.1.2.1.3.2z"/><path d="m377.4 255.6c.3.2.5.7.5 1.2.1 0 .1.1.2.1l2.2-2.1c-.3-.2-.7-.4-.9-.6 0 0 0 0 0-.1-.9-.2-2.3 0-2.6.9 0 .1 0 .3 0 .4.2.1.5.1.6.2z"/><path d="m378.1 257c.2.1.3.2.5.2.2 0 .4.1.7.1l-1-.4 1 .4c.8 0 1.6-.3 1.8-1 .1-.4-.1-.9-.4-1.2-.1 0-.2-.1-.3-.1l-2.3 2z"/><path d="m380.3 254.9c-.2-.4-.6-.6-.9-.7 0 0 0 0 0 .1.3.2.6.4.9.6z"/><path d="m380.3 254.9c.1 0 .2.1.3.1-.1-.1-.1-.1-.3-.1z"/><path d="m373.3 250.5c0 .1 0 .1 0 0 .2.4.3.9.3 1.3.3.6.9 1 1.4 1.2.8.3 2.1-.1 2.3-1.1.2-1-.7-2.1-1.5-2.4-.8-.3-2.2-.1-2.5 1z"/><path d="m362.6 247.6c1.1.2 2.7-.8 3.3-1.6.5-.7.6-2-.5-2.2-1-.2-2.6.7-3.1 1.4-.7.8-.8 2.1.3 2.4z"/><path d="m362.5 244.4c.3-.7-.3-.9-.7-1.4-.4-.5-1.5-1-1.5-1s.2 1.8.6 2.3c.4.6 1.3.8 1.6.1z"/><path d="m365.3 249.2c1 .5 2.8-.2 3.5-.8.7-.6 1-1.8 0-2.2-1-.4-2.7.1-3.4.7-.7.5-1.1 1.8-.1 2.3z"/><path d="m371.9 250.2c.5-.6.6-1.6-.2-2-1-.4-2.7.1-3.4.7-.8.6-1.2 1.9-.2 2.4.7.3 1.8.1 2.7-.3.3-.3.7-.6 1.1-.8z"/><path d="m373.3 250.6c-.2-.2-.4-.4-.7-.5-.2 0-.5 0-.7.1-.1.1-.1.2-.2.2-.2.2-.5.4-.9.5-.3.3-.5.6-.6.9-.4.9-.2 2.4.8 2.5 1 .2 2.2-1.1 2.5-2 .1-.2.1-.4.1-.6-.2-.2-.3-.7-.3-1.1z"/><path d="m373.3 250.6c-.1.4.1.8.3 1.2 0-.4-.1-.8-.3-1.2z"/><path d="m371.9 250.2c-.4.1-.8.4-1.1.8.3-.2.6-.3.9-.5 0-.1.1-.2.2-.3z"/><path d="m357.2 249.1l.6.6c.2-.1.4-.2.6-.4 0 0 0 0 0-.1.1-.3.3-.7.6-1 .1-.4.2-.8.2-1.1 0-.9-.6-2.2-1.4-2.1-.8.1-1.5 1.4-1.5 2.4 0 .3 0 .6.1 1l.8.7z"/><path d="m357.2 249.1l-.8-.7c.1.5.4.9.7 1.2 0-.2 0-.3.1-.5z"/><path d="m357.1 249.6c.2.1.4.2.6.2 0 0 .1 0 .1 0l-.6-.6c-.1.1-.1.2-.1.4z"/><path d="m358.2 250.1l1.7 1.6c.6-.4 1.2-1.1 1.4-1.7.3-.9.1-2.3-.7-2.5-.5-.1-1.1.3-1.6.8-.1.4-.4.8-.6 1-.1.3-.2.6-.2.8z"/><path d="m359 251.9c.3.1.6 0 .9-.2l-1.7-1.6c0 .8.2 1.7.8 1.8z"/><path d="m358.4 249.4c.3-.3.5-.6.6-1-.3.2-.5.6-.6 1z"/><path d="m364 252.3c.3-1.1.1-2.8-.8-3-1-.2-2.2 1.1-2.6 2.2-.1.2-.1.5-.2.7l2.2 2.1c.7-.5 1.2-1.3 1.4-2z"/><path d="m361.3 254.7c.4.1.9-.1 1.3-.5l-2.2-2.1c-.2 1.1.1 2.4.9 2.6z"/><path d="m365.3 256.8l.3.3c.3-.1.5-.3.7-.6-.1-.3-.2-.6-.2-.9 0-.7.3-1.6.8-2.1-.2-1.1-.9-2.2-1.8-2.1-1 .1-1.7 1.8-1.6 3 0 .3.1.6.1.9l1.7 1.5z"/><path d="m364.9 257l.5-.2-1.6-1.5c.1.7.5 1.4 1.1 1.7z"/><path d="m364.9 257c.2.1.4.2.6.1.1 0 .1 0 .2-.1l-.3-.3-.5.3z"/><path d="m366.4 256.5c.3.8.8 1.5 1.5 1.5.3 0 .6-.3.9-.6.1-.5.3-1.1.6-1.5 0-.2 0-.4 0-.6-.1-.9-.8-2.2-1.7-2.1-.2 0-.5.2-.7.4 0 .1 0 .3.1.4 0 .7-.2 1.8-.7 2.5z"/><path d="m366.4 256.5c.5-.7.8-1.8.7-2.6 0-.1 0-.3-.1-.4-.5.5-.8 1.4-.8 2.1 0 .3.1.6.2.9z"/><path d="m369.9 264.4c0 0 0-.1-.1-.1-.1-.1-.2-.1-.3-.2.1.1.3.2.4.3z"/><path d="m367.2 263.9c.5-.5 1.4-.3 2.1.2-.3-.2-.6-.4-.8-.7-.2-.2-.4-.5-.5-.8-.7-.3-1.4-.4-1.8 0-.6.6-.3 1.9.3 2.8.1.1.3.1.4.2-.1-.7-.1-1.4.3-1.7z"/><path d="m370.9 261.1c-.7-.8-2.2-1.4-2.9-.7-.5.5-.3 1.4 0 2.2.4.2.9.5 1.2.8.2.3.5.6.6 1 .7.3 1.4.4 1.8 0 .7-.6.2-2.1-.5-3-.1-.1-.2-.2-.2-.3z"/><path d="m368 262.6c.1.3.3.6.5.8.2.2.5.5.8.7.1 0 .1.1.2.1.1.1.2.1.3.2-.2-.4-.4-.7-.6-1-.3-.4-.7-.6-1.2-.8z"/><path d="m367.2 266c-.1-.1-.2-.2-.4-.3-.1-.1-.2-.2-.2-.3-.7-.3-1.4-.4-1.8 0-.6.6-.3 1.8.3 2.7.4.2.9.6 1.2 1.1.2.1.4.2.7.3-.2-.6-.1-1.2.2-1.5.3-.3.9-.3 1.5-.1 0-.1 0-.1-.1-.2-.3-.2-.6-.4-.8-.7-.3-.3-.5-.7-.6-1z"/><path d="m367.2 266c-.1-.1-.1-.3-.1-.4-.1-.1-.3-.2-.4-.2.1.1.1.2.2.3 0 .1.1.2.3.3z"/><path d="m368.8 257.7c0 1 .7 2.4 1.7 2.3.1 0 .2 0 .3-.1.1-.5.3-1 .5-1.3.2-.2.4-.5.7-.6 0-.2.1-.4 0-.6-.1-.9-.8-2.2-1.7-2.1-.4 0-.7.3-.9.6-.1.5-.3 1.1-.6 1.5 0 0 0 .2 0 .3z"/><path d="m369.4 255.8c-.3.4-.5 1-.6 1.5.3-.4.5-1 .6-1.5z"/><path d="m372.3 254.1c-.6.8-.9 2.4 0 2.9.8.5 2.2-.4 2.8-1.2.5-.8.7-2.2-.1-2.7-.8-.5-2.1.3-2.7 1z"/><path d="m370.7 259.9c-.1.4 0 .9.1 1.2.1.1.1.2.2.2 0 0 .1.1.1.1.8.5 2.2-.4 2.8-1.2.5-.8.7-2.2-.1-2.7-.5-.3-1.4 0-2 .4 0 .8-.4 1.7-1.1 2z"/><path d="m370.9 261.1c.1.1.1.2.2.3-.1-.1-.1-.2-.2-.3z"/><path d="m371.2 258.6c-.3.4-.4.8-.5 1.3.6-.3 1.1-1.2 1.2-2-.2.2-.5.5-.7.7z"/><path d="m377.9 257.1c0-.1 0-.2 0-.3-.5-.3-1-.8-1.1-1.4-.7.1-1.5.7-1.8 1.3-.5.9-.8 2.6 0 3.2.2.2.5.2.8.1-.2-.1-.4-.3-.6-.4l2.7-2.5z"/><path d="m377.5 258.6c.2-.4.4-.9.4-1.5l-2.7 2.6c.2.1.4.3.6.4.6-.2 1.4-.8 1.7-1.5z"/><path d="m377.9 256.9c0-.5-.2-1-.5-1.2-.2-.1-.4-.2-.6-.1.1.4.6.9 1.1 1.3z"/><path d="m375.4 263.4c.8-.6 1.5-2.1 1-2.8-.1-.1-.1-.2-.2-.2-.6-.4-1.8-.1-2.5.4-.8.6-1.7 2.1-1.2 2.9.3.5 1.1.5 1.8.3.2-.2.5-.3.8-.4.2-.1.2-.1.3-.2z"/><path d="m376.2 260.4c0 0 0 0 0 0z"/><path d="m375.2 263.6c-.2.2-.5.3-.8.4 0 0-.1 0-.1.1-.8.6-1.7 2.1-1.2 2.9.5.8 2.1.3 2.9-.3.5-.4 1-1.1 1.1-1.8-.1-.4-.2-.8-.2-1.2-.4-.3-1.1-.3-1.7-.1z"/><path d="m374.4 264c.3-.1.6-.2.8-.4-.3.1-.6.2-.8.4z"/><path d="m374.2 267.6c-.8.6-1.7 2.1-1.2 2.9.5.8 2.1.3 2.9-.3.8-.6 1.5-2.1 1-2.8-.4-.7-1.9-.4-2.7.2z"/><path d="m375.8 273.9c.8-.6 1.5-2.1 1-2.8-.5-.7-1.9-.4-2.7.2-.8.6-1.7 2.1-1.2 2.9.2.4.7.5 1.2.4.4-.3 1-.5 1.5-.6.1 0 .2 0 .2-.1z"/><path d="m372.9 277.6c.5.8 2.1.3 2.9-.3.8-.6 1.5-2.1 1-2.8-.2-.4-.7-.5-1.2-.4-.4.3-1 .5-1.5.6-.8.6-1.7 2.1-1.2 2.9z"/><path d="m374.1 274.6c.5-.1 1.1-.3 1.5-.6-.5.1-1.1.3-1.5.6z"/><path d="m376 280.8c.8-.6 1.5-2.1 1-2.8-.5-.7-1.9-.4-2.7.2-.8.6-1.7 2.1-1.2 2.9.2.4.7.5 1.2.4.4-.2.8-.4 1.3-.4.1-.1.2-.2.4-.3z"/><path d="m372.8 284.6c.5.8 2.1.3 2.9-.3.8-.6 1.5-2.1 1-2.8-.2-.4-.7-.5-1.2-.4-.4.2-.9.4-1.3.4-.1 0-.2.1-.2.2-.8.6-1.7 2.1-1.2 2.9z"/><path d="m374.3 281.6c.4 0 .9-.2 1.3-.4-.5 0-1 .1-1.3.4z"/><path d="m372.3 288.4c.6.8 2.3.4 3.2-.3.8-.6 1.7-2.1 1.1-2.9-.5-.8-2.1-.4-3 .2-.9.7-1.9 2.2-1.3 3z"/><path d="m373.5 289.5c-.8.8-1.4 2.5-.7 3.2.7.7 2.3-.1 3.1-.9.7-.8 1.2-2.4.6-3.1-.8-.6-2.3 0-3 .8z"/><path d="m373.6 293.6c-.8.8-1.4 2.5-.7 3.2.7.7 2.3-.1 3.1-.9.7-.8 1.2-2.4.6-3.1-.7-.6-2.2 0-3 .8z"/><path d="m376.6 296.8c-.7-.6-2.2 0-2.9.8-.8.8-1.4 2.5-.7 3.2.7.7 2.3-.1 3.1-.9.7-.8 1.2-2.4.5-3.1z"/><path d="m373.6 301.9c-.8.8-1.4 2.5-.7 3.2.7.7 2.3-.1 3.1-.9.7-.8 1.2-2.4.6-3.1-.8-.6-2.3 0-3 .8z"/><path d="m376.6 305.2c-.7-.6-2.2 0-2.9.8-.8.8-1.4 2.5-.7 3.2.7.7 2.3-.1 3.1-.9.7-.9 1.2-2.5.5-3.1z"/><path d="m375.9 312.3c.7-.8 1.2-2.4.6-3.1-.7-.6-2.2 0-2.9.8-.8.8-1.4 2.5-.7 3.2.7.7 2.3-.1 3-.9z"/><path d="m376.5 313.3c-.7-.6-2.2 0-2.9.8-.8.8-1.4 2.5-.7 3.2.7.7 2.3-.1 3.1-.9.7-.8 1.2-2.4.5-3.1z"/><path d="m373.6 318.2c-.8.8-1.4 2.5-.7 3.2.7.7 2.3-.1 3.1-.9.7-.8 1.2-2.4.6-3.1-.7-.6-2.2.1-3 .8z"/><path d="m373.4 325.1c-.2-.2-.4-.4-.6-.6.1.4.1.8 0 1.2.4.3.9.3 1.4.1 0 0 .1 0 .1-.1-.3-.2-.6-.4-.9-.6z"/><path d="m376 323.1c-.2-.5-.2-1.1 0-1.4.1-.1.1-.1.2-.2-.5-.4-1.5-.1-2.2.3.5.1 1 .3 1.3.6.3.3.5.5.7.7z"/><path d="m376.1 321.7c-.3.4-.2.9 0 1.4.1.2.3.4.4.6.3-.8.4-1.7 0-2.1 0 0-.1 0-.1-.1-.2.1-.3.1-.3.2z"/><path d="m372.6 323.7c.1.2.2.5.2.8.2.2.4.5.6.6.2.2.6.4.9.5.2-.2.5-.3.8-.4.3-.2.5-.4.7-.6.2-.2.4-.5.5-.9-.1-.2-.2-.4-.3-.7-.2-.2-.4-.5-.6-.6-.3-.3-.8-.5-1.3-.6-.2.2-.5.3-.6.5-.4.4-.7.9-.9 1.4z"/><path d="m376 323.1c.1.2.2.5.3.7 0 0 0-.1 0-.1 0-.2-.1-.4-.3-.6z"/><path d="m372.8 324.5c-.1-.2-.2-.3-.3-.5-.2.6-.2 1.3.2 1.6 0 0 .1 0 .1 0 .1-.3.1-.7 0-1.1z"/><path d="m372.6 323.7c0 .1-.1.2-.1.3.1.2.2.3.3.5 0-.3-.1-.5-.2-.8z"/><path d="m374.3 325.7c0 0-.1 0-.1 0-.2.1-.4.3-.5.4-.8.8-1.4 2.5-.7 3.2.4.4 1.1.3 1.7 0 0 0 .1 0 .1-.1.5-.2.9-.6 1.2-.9.7-.8 1.2-2.3.6-3 0 0 0 .1-.1.1-.3.7-1.3.6-2.2.3z"/><path d="m376.6 325.4c-.3-.3-.9-.3-1.5-.1-.2.2-.5.3-.8.4.8.4 1.8.5 2.2-.1.1-.1.1-.1.1-.2z"/><path d="m374.3 325.6c0 .1 0 .1 0 0z"/><path d="m375.1 325.3c-.3.1-.5.2-.8.4.3-.2.6-.3.8-.4z"/><path d="m373.7 330.1c-.8.8-1.4 2.5-.7 3.2.7.7 2.3-.1 3.1-.9.7-.8 1.2-2.4.6-3.1-.4-.4-1.1-.3-1.8 0 0 0-.1 0-.1.1-.5.2-.8.4-1.1.7z"/><path d="m374.8 329.3c0 0-.1 0-.1.1.1 0 .1-.1.1-.1z"/><path d="m376.5 333.6c-.7-.6-2.2 0-2.9.8-.8.8-1.4 2.5-.7 3.2.7.7 2.3-.1 3.1-.9.6-.9 1.2-2.5.5-3.1z"/><path d="m373.6 338.6c-.8.8-1.4 2.5-.7 3.2.7.7 2.3-.1 3.1-.9.7-.8 1.2-2.4.6-3.1-.8-.6-2.3 0-3 .8z"/><path d="m367.1 343.9c.7.8 2.4 1.6 3.1.9.7-.7.1-2.4-.7-3.2-.7-.8-2.2-1.4-2.9-.8-.7.7-.2 2.3.5 3.1z"/><path d="m367.2 339.4c.7.8 2.4 1.6 3.1.9.7-.7.1-2.4-.7-3.2-.3-.3-.6-.5-1-.7 0 0-.1 0-.1-.1-.7-.3-1.4-.4-1.8 0-.7.7-.2 2.3.5 3.1z"/><path d="m370.3 336.4c.7-.7.1-2.4-.7-3.2-.7-.8-2.2-1.4-2.9-.8-.7.6-.2 2.3.6 3.1.3.3.7.7 1.2.9 0 0 .1 0 .1.1.6.2 1.3.3 1.7-.1z"/><path d="m368.4 336.4c0 0 .1 0 .1.1 0-.1 0-.1-.1-.1z"/><path d="m367.2 331.2c.7.8 2.4 1.6 3.1.9.7-.7.1-2.4-.7-3.2-.7-.8-2.2-1.4-2.9-.8-.7.7-.2 2.3.5 3.1z"/><path d="m369.6 324.8c-.1-.2-.2-.5-.3-.8 0 0 0 0-.1 0 .1.8 0 1.5-.5 1.8-.6.4-1.5-.1-2.2-.8.1.6.4 1.2.8 1.7.7.8 2.4 1.6 3.1.9.4-.4.4-1 .1-1.7-.4-.3-.7-.7-.9-1.1z"/><path d="m369.3 324c.1.3.2.5.3.8.2.4.6.8 1 1.1-.2-.6-.5-1.1-.9-1.5-.1-.2-.3-.3-.4-.4z"/><path d="m368.7 325.8c.5-.3.6-1 .5-1.8-.8-.5-1.9-.9-2.4-.4-.3.3-.4.8-.3 1.4.7.7 1.6 1.1 2.2.8z"/><path d="m368.7 322.5c.2.3.3.6.4.9 0 0 0 0 .1 0-.1-.7 0-1.4.5-1.7.3-.2.6-.2.9-.1-.2-.6-.5-1.2-.9-1.6-.7-.8-2.2-1.4-2.9-.8-.4.4-.4 1.1-.2 1.8.8.1 1.6.8 2.1 1.5z"/><path d="m369.6 321.7c-.5.3-.6 1-.5 1.7.5.1 1 .1 1.3-.2.4-.4.4-1 .2-1.6-.4-.1-.7-.1-1 .1z"/><path d="m369.1 323.4c-.1-.3-.2-.7-.4-.9-.4-.7-1.3-1.4-2-1.5.2.5.4 1 .7 1.3.3.4 1 .9 1.7 1.1z"/><path d="m370.6 319.2c.7-.7.1-2.4-.7-3.2-.7-.8-2.2-1.4-2.9-.8-.7.6-.2 2.3.6 3.1.7.8 2.3 1.6 3 .9z"/><path d="m367.1 311.2c-.7.6-.2 2.3.6 3.1.7.8 2.4 1.6 3.1.9.7-.7.1-2.4-.7-3.2-.3-.3-.6-.5-1-.7 0 0-.1 0-.1-.1-.8-.3-1.5-.3-1.9 0z"/><path d="m370.8 311.3c.7-.7.1-2.4-.7-3.2-.7-.8-2.2-1.4-2.9-.8-.7.6-.2 2.3.6 3.1.3.3.7.7 1.2.9 0 0 .1 0 .1.1.6.2 1.3.3 1.7-.1z"/><path d="m369 311.3c0 0-.1 0-.1-.1 0 .1.1.1.1.1z"/><path d="m367 303.2c-.7.6-.2 2.3.6 3.1.7.8 2.4 1.6 3.1.9.7-.7.1-2.4-.7-3.2-.1-.1-.3-.3-.5-.4-.4-.1-.9-.3-1.3-.6-.5-.1-.9-.1-1.2.2z"/><path d="m367.5 302.4c.2.2.4.4.7.6.4.1.9.3 1.3.6.4.1.9.1 1.1-.2.7-.7.1-2.4-.7-3.2-.7-.8-2.2-1.4-2.9-.8-.7.6-.2 2.2.5 3z"/><path d="m369.4 303.6c-.4-.3-.8-.5-1.3-.6.5.3.9.5 1.3.6z"/><path d="m370.1 296.1c-.7-.8-2.2-1.4-2.9-.8-.7.6-.2 2.3.6 3.1.7.8 2.4 1.6 3.1.9.6-.6 0-2.4-.8-3.2z"/><path d="m367.5 291.1c-.1 0-.2.1-.3.2-.7.6-.2 2.3.6 3.1.7.8 2.4 1.6 3.1.9.7-.7.1-2.4-.7-3.2-.8.2-2-.3-2.7-1z"/><path d="m366.7 287.9c-.7.6-.2 2.3.6 3.1.1.1.1.1.2.2.7-.3 2 .2 2.6.9.1 0 .2-.1.3-.2.7-.7.1-2.4-.7-3.2 0 0-.1-.1-.1-.1-.5-.2-1.1-.5-1.5-.9-.6-.1-1.1-.1-1.4.2z"/><path d="m367.5 291.1c.7.7 1.9 1.2 2.6.9-.7-.6-1.9-1.2-2.6-.9z"/><path d="m370.8 288.4c.7-.7.1-2.4-.7-3.2-.7-.8-2.2-1.4-2.9-.8-.7.6-.2 2.3.6 3.1.1.1.2.2.2.2.6.1 1.1.5 1.5.9.5.1 1 .1 1.3-.2z"/><path d="m369.5 288.6c-.4-.4-1-.7-1.5-.9.4.4 1 .7 1.5.9z"/><path d="m367.3 283.2c.7.8 2.4 1.6 3.1.9.7-.7.1-2.4-.7-3.2-.7-.8-2.2-1.4-2.9-.8-.8.7-.2 2.3.5 3.1z"/><path d="m370.3 277.1c-.7-.8-2.2-1.4-2.9-.8-.7.6-.2 2.3.6 3.1.7.8 2.4 1.6 3.1.9.6-.7 0-2.4-.8-3.2z"/><path d="m367.8 275.2c.7.8 2.4 1.6 3.1.9.7-.7.1-2.4-.7-3.2-.7-.8-2.2-1.4-2.9-.8-.8.7-.3 2.3.5 3.1z"/><path d="m368.4 269.3c-.4.3-.9.3-1.5.1.1.6.4 1.1.8 1.5.7.8 2.4 1.6 3.1.9.7-.7.1-2.4-.7-3.2-.3-.4-.9-.7-1.4-.9.1.7.1 1.3-.3 1.6z"/><path d="m367.1 267.9c-.4.3-.4.9-.2 1.5.6.2 1.2.2 1.5-.1.4-.3.4-.9.2-1.6-.5-.1-1.1-.1-1.5.2z"/><path d="m369.9 266.6c-.4.4-1.2.3-1.8 0 .2.3.4.7.5 1.1.8.5 1.7.8 2.3.3.7-.7.1-2.4-.7-3.2-.1-.1-.1-.1-.2-.2.2.6.4 1.5-.1 2z"/><path d="m369.3 264.1c-.7-.4-1.6-.6-2.1-.2-.4.4-.4 1-.2 1.7.3.2.5.3.7.5.1.1.2.3.3.4.7.3 1.4.4 1.8 0 .5-.5.3-1.3 0-2.1-.1-.1-.2-.2-.4-.3 0 0 0 0-.1 0z"/><path d="m369.3 264.1c.1 0 .1.1.2.1-.1-.1-.1-.1-.2-.1z"/><path d="m367.2 266c.2.4.4.7.6 1 .2.2.5.5.8.7-.1-.4-.3-.7-.5-1.1-.4-.2-.7-.4-.9-.6z"/><path d="m368 266.5c-.1-.2-.2-.3-.3-.4-.2-.2-.4-.4-.7-.5 0 .1.1.3.1.4.3.2.6.4.9.5z"/><path d="m365.1 268c-.3-.2-.6-.2-.9-.1-.9.3-1 2-.6 3 .4 1.1 1.6 2.4 2.5 2 .9-.4.9-2.2.5-3.3-.1-.2-.2-.4-.3-.6-.3-.2-.7-.5-.9-.7-.1 0-.2-.2-.3-.3z"/><path d="m365.1 268c.1.1.2.3.3.4.2.3.6.5.9.7-.3-.4-.8-.9-1.2-1.1z"/><path d="m363.9 275.9c.9-.4.9-2.2.5-3.3-.4-1-1.6-2.1-2.4-1.8-.9.3-1 2-.6 3 .4 1.2 1.6 2.5 2.5 2.1z"/><path d="m361.6 279.5c1-.2 1.3-2 1-3.1-.2-1-1.2-2.4-2.1-2.2-.9.2-1.3 1.9-1.1 2.9 0 .2.1.5.2.8.3.3.6.7.7 1.1.5.4.9.6 1.3.5z"/><path d="m358.5 277.4c-.9.2-1.3 1.9-1.1 2.9 0 .3.1.5.3.8.2.2.4.6.5.9.4.5.9.8 1.4.7 1-.2 1.3-2 1-3.1 0-.2-.1-.4-.2-.5-.3-.3-.6-.7-.7-1.1-.4-.5-.8-.7-1.2-.6z"/><path d="m359.7 277.9c.2.4.4.8.7 1.1-.1-.4-.4-.8-.7-1.1z"/><path d="m356.8 280.7c-.9 0-1.6 1.6-1.6 2.7 0 .5.1 1.1.4 1.6.2.2.4.5.5.8.2.2.5.4.8.4 1 0 1.6-1.8 1.6-2.9 0-.4-.1-.8-.3-1.2-.2-.3-.4-.6-.5-.9-.3-.4-.6-.6-.9-.5z"/><path d="m357.7 281.1c.1.3.3.6.5.9-.1-.3-.3-.7-.5-.9z"/><path d="m354.7 284.5c-.9 0-1.6 1.6-1.6 2.7 0 1.1.7 2.8 1.7 2.7 1 0 1.6-1.8 1.6-2.9 0-.4-.1-.9-.3-1.3-.2-.2-.4-.5-.5-.8-.3-.3-.6-.4-.9-.4z"/><path d="m355.6 284.9c.1.3.3.6.5.8-.1-.3-.3-.6-.5-.8z"/><path d="m352.4 293.5c1 0 1.6-1.8 1.6-2.9 0-1.1-.7-2.5-1.7-2.5-.9 0-1.6 1.6-1.6 2.7 0 .3.1.7.2 1.1.2.3.3.6.4 1 .3.3.7.6 1.1.6z"/><path d="m349.8 291.1c-.9 0-1.6 1.6-1.6 2.7 0 .3 0 .6.1.9.2.3.3.7.4 1 .3.5.7.8 1.1.8 1 0 1.6-1.8 1.6-2.9 0-.3-.1-.6-.1-.8-.2-.3-.3-.6-.4-1-.3-.4-.6-.7-1.1-.7z"/><path d="m351.4 292.8c-.1-.3-.3-.7-.4-1 0 .4.2.7.4 1z"/><path d="m347.3 294c-.9 0-1.6 1.6-1.6 2.7 0 .3 0 .6.1.9.1.2.2.4.2.6.3.7.8 1.3 1.3 1.2 1 0 1.6-1.8 1.6-2.9 0-.2-.1-.5-.1-.7-.2-.3-.3-.7-.4-1-.3-.5-.7-.9-1.1-.8z"/><path d="m348.8 295.8c-.1-.4-.2-.7-.4-1 .1.3.2.7.4 1z"/><path d="m344.4 296.3c-.9 0-1.6 1.6-1.6 2.7 0 .2 0 .5.1.7.2.3.3.7.4 1.1.3.5.7.9 1.2.9 1 0 1.6-1.8 1.6-2.9 0-.2 0-.4-.1-.7-.1-.2-.2-.4-.2-.6-.3-.7-.8-1.2-1.4-1.2z"/><path d="m346 298.1c-.1-.2-.1-.4-.2-.6 0 .2.1.4.2.6z"/><path d="m341.7 298.8c-.9 0-1.6 1.6-1.6 2.7 0 0 0 0 0 .1.2.3.3.7.2 1.1.3.8.8 1.6 1.5 1.5 1 0 1.6-1.8 1.6-2.9 0-.2 0-.3-.1-.5-.2-.3-.3-.7-.4-1.1-.3-.5-.7-.9-1.2-.9z"/><path d="m343.3 300.8c-.1-.4-.2-.8-.4-1.1.1.4.2.8.4 1.1z"/><path d="m338.6 300l-1.1 4.1c0 0 .6 1.5 1.2 1.4 1.1-.1 1.4-1.8 1.6-2.9-.1-.4-.2-.8-.2-1.1-.5-.9-1.5-1.5-1.5-1.5z"/><path d="m340.3 302.7c0-.4 0-.8-.2-1.1 0 .3.1.7.2 1.1z"/><path d="m329.6 303.5c-.8-.4-2.2.6-2.7 1.5-.4.7-.6 1.9-.3 2.7.5-.6 1.2-1 1.8-.8.3.1.5.4.6.7.3-.3.6-.7.8-1.1.5-.9.7-2.6-.2-3z"/><path d="m328.9 310.1c0-.1 0-.1 0 0z"/><path d="m327 311.9c.1 0 .3-.1.4-.1 0-.1.1-.2.1-.2-.2.1-.4.2-.5.3z"/><path d="m328.9 310.1c0-.1 0-.1 0 0l.1-.2c.2-.7.3-1.6 0-2.3-.6.6-1.4 1-2 .7-.2-.1-.4-.3-.4-.5-.3.3-.5.7-.7 1-.4 1-.4 2.8.5 3.2.2.1.3 0 .5 0 .2-.1.3-.2.5-.4.4-.7.9-1.3 1.5-1.5z"/><path d="m328.4 306.9c-.6-.2-1.3.2-1.8.8.1.2.2.4.4.5.6.3 1.4-.1 2-.7-.1-.3-.3-.5-.6-.6z"/><path d="m330.5 312.5c.1-1-.2-2.3-1-2.5-.2-.1-.4 0-.6.1-.3.7-.9 1.4-1.6 1.7 0 .1-.1.2-.1.3-.3 1.1-.1 2.9.8 3.1.7.2 1.4-.5 1.9-1.3 0-.2.1-.4.1-.6.2-.3.3-.6.5-.8z"/><path d="m328.9 310.1c0 0 0 0 0 0-.4.6-.9 1.1-1.5 1.5 0 .1-.1.2-.1.2.7-.3 1.3-1.1 1.6-1.7z"/><path d="m327.5 311.6c.5-.4 1-.9 1.4-1.5-.6.2-1.1.8-1.4 1.5z"/><path d="m333.4 313.2c0-.4-.1-.8-.2-1.2-.8 1-1.7 2-2.6 2.9.2 0 .4-.1.7-.1.6 0 1.1.1 1.6.4.2-.3.4-.7.5-1 0 0 0-.1 0-.1-.1-.4-.1-.7 0-.9z"/><path d="m332.5 311.3c-.7-.2-1.5.5-2 1.2 0 .1 0 .3-.1.4-.1.3-.3.7-.5 1-.1.4-.1.8 0 1.1.2-.1.4-.1.6-.2.9-.9 1.8-1.9 2.6-2.9-.1-.3-.3-.5-.6-.6z"/><path d="m330.6 314.9c-.2.2-.3.3-.5.5.1.5.4.9.8 1.1.7.2 1.4-.5 1.9-1.2-.5-.2-1-.4-1.6-.4-.2-.1-.4-.1-.6 0z"/><path d="m330 315.3c.2-.2.3-.3.5-.5-.2 0-.4.1-.6.2.1.1.1.2.1.3z"/><path d="m330.5 312.5c-.2.3-.3.5-.4.8-.1.2-.1.4-.1.6.2-.3.4-.7.5-1 0-.2 0-.3 0-.4z"/><path d="m334.4 311.8c-.5.1-.8.7-1 1.4 0 .3 0 .6-.1.8 0 .2 0 .5.1.7.2 1.1 1.2 2.6 2.2 2.3 1-.2 1.2-2.1 1-3.2-.3-1-1.3-2.3-2.2-2z"/><path d="m333.4 313.2c-.1.3-.1.6-.1.8.1-.2.1-.5.1-.8z"/><path d="m340 315.6c0-.2 0-.3-.1-.4-.3-1-1.2-2.3-2.1-2.1-.9.2-1.2 1.9-1 2.9.2 1.1 1.2 2.6 2.2 2.3.5-.1.8-.6.9-1.2-.2-.6-.1-1.1.1-1.5z"/><path d="m340.3 315.1c-.2.1-.3.3-.4.4 0 .5 0 1-.1 1.5.1.4.2.8.4 1.2.6 1 2 2.1 2.8 1.6.8-.5.6-2.3 0-3.3-.5-.9-1.9-1.9-2.7-1.4z"/><path d="m340 315.6c-.2.4-.2 1-.1 1.5.1-.5.1-1.1.1-1.5z"/><path d="m346.8 318c-.6-.9-1.9-1.8-2.7-1.4-.8.5-.6 2.2-.1 3.1.6 1 2 2.1 2.8 1.6.5-.3.6-1.1.5-1.9 0-.1 0-.1 0-.2-.1-.4-.3-.8-.5-1.2z"/><path d="m347.7 317.2c-.5.3-.6 1.2-.5 2 0 .1 0 .1 0 .2.1.3.2.7.3.9.6 1 2 2.1 2.8 1.6.8-.5.6-2.3 0-3.3-.4-.9-1.8-1.9-2.6-1.4z"/><path d="m347.3 319.4c0-.1 0-.1 0-.2v.2z"/><path d="m354.4 319.6c-.6-.9-1.9-1.8-2.7-1.4-.8.5-.6 2.2-.1 3.1.6 1 2 2.1 2.8 1.6.5-.3.6-1 .5-1.7-.1-.2-.1-.5-.2-.7 0-.4-.2-.7-.3-.9z"/><path d="m358.3 320.8c-.1-.2-.2-.5-.3-.7-.6-.9-1.9-1.8-2.7-1.4-.5.3-.6 1-.5 1.7.1.2.1.5.2.7.1.2.2.5.3.7.6 1 2 2.1 2.8 1.6.4-.2.5-.7.5-1.3-.3-.4-.3-.9-.3-1.3z"/><path d="m354.9 321.2c0-.3-.1-.5-.2-.7.1.2.1.4.2.7z"/><path d="m361.9 321.8c-.1-.3-.2-.7-.4-.9-.6-.9-1.9-1.8-2.7-1.4-.4.2-.5.7-.5 1.3.2.4.2.9.2 1.3.1.2.1.3.2.5.6 1 2 2.1 2.8 1.6.4-.2.5-.7.5-1.3-.1-.4-.1-.8-.1-1.1z"/><path d="m358.3 320.8c0 .4.1.9.2 1.3 0-.4-.1-.9-.2-1.3z"/><path d="m362 322.8c.1.3.2.5.3.7.6 1 2 2.1 2.8 1.6.4-.3.6-.8.5-1.5-.1-.3-.2-.7-.2-1-.1-.3-.2-.6-.4-.8-.6-.9-1.9-1.8-2.7-1.4-.4.2-.5.7-.5 1.3.2.4.2.8.2 1.1z"/><path d="m365.5 322.6c0 .3.1.7.2 1-.1-.3-.1-.6-.2-1z"/><path d="m362 322.8c0-.4-.1-.7-.2-1.1.1.4.1.8.2 1.1z"/><path d="m382.8 321.3c-.8-.7-2.4-1.1-3-.3-.6.7.2 2.3 1 2.9.9.7 2.6 1.3 3.2.5.3-.4.2-.9 0-1.5-.3-.3-.6-.7-.7-1.1-.2-.2-.4-.3-.5-.5z"/><path d="m386.2 320.6c-.9-.5-2.6-.7-3 .1-.2.3-.1.7 0 1 .3.3.5.7.7 1.1.2.3.5.5.7.6 1 .6 2.7.9 3.2 0 .6-.8-.6-2.2-1.6-2.8z"/><path d="m383.9 322.9c-.2-.4-.4-.8-.7-1.1.2.4.4.8.7 1.1z"/><path d="m390.2 320c-.9-.5-2.6-.7-3 .1-.5.8.5 2.2 1.4 2.8 1 .6 2.7.9 3.2 0 .6-.9-.6-2.3-1.6-2.9z"/><path d="m393.7 318.7c-1-.4-2.6-.5-3 .4-.4.9.7 2.1 1.7 2.6 1 .5 2.8.6 3.2-.3.4-.9-.9-2.2-1.9-2.7z"/><path d="m397.5 317.6c-1-.4-2.6-.5-3 .4-.4.9.7 2.1 1.7 2.6 1 .5 2.8.6 3.2-.3.4-.9-.9-2.3-1.9-2.7z"/><path d="m401.2 316.2c-1-.4-2.6-.3-3 .6-.3.9.8 2.1 1.8 2.5 1 .4 2.8.4 3.2-.5.4-.9-.9-2.2-2-2.6z"/><path d="m405 315c-1-.4-2.6-.3-3 .6-.3.9.8 2.1 1.8 2.5 1 .4 2.8.4 3.2-.5.4-1-.9-2.2-2-2.6z"/><path d="m410.7 315.2c-.3-.8-1.2-1.5-2-1.8-1-.4-2.6-.3-3 .6-.3.9.8 2.1 1.8 2.5.5.2 1.1.3 1.6.3.5-.7 1-1.2 1.6-1.6z"/><path d="m410.8 316c.1-.2.1-.5 0-.8-.6.3-1.2.9-1.5 1.5.7 0 1.3-.2 1.5-.7z"/><path d="m413.1 314.8c-1-.9-1.9-2-2.8-3.1-.3.1-.5.3-.6.6-.3.9.8 2.1 1.8 2.5 0 0 0 0 .1 0 .3-.1.5-.1.8-.1.3.1.5.1.7.1z"/><path d="m413.1 314.8c.2 0 .5.1.7.2.5-.1.8-.3 1-.7.3-.9-1-2.2-2.1-2.6-.7-.3-1.7-.3-2.4 0 .9 1.2 1.8 2.2 2.8 3.1z"/><path d="m413.4 315.1c-.1-.1-.2-.2-.3-.3-.2 0-.4-.1-.7-.1-.3 0-.5 0-.8.1.5.3 1.2.4 1.8.3z"/><path d="m413.4 315.1c.1 0 .3 0 .4-.1-.2-.1-.5-.2-.7-.2.1.1.2.2.3.3z"/><path d="m414.9 310.3c-.6.1-1 .3-1.2.7-.3.9.8 2.1 1.8 2.5 1 .4 2.8.4 3.2-.5 0 0 0-.1 0-.1-1.5-.4-2.8-1.4-3.8-2.6z"/><path d="m417.1 310.7c-.4 0-.8-.1-1.1-.3-.1 0-.2-.1-.3-.1-.3 0-.6 0-.9 0 1 1.2 2.3 2.1 3.8 2.6.3-.8-.6-1.7-1.5-2.2z"/><path d="m417.1 310.7c.9.1 1.9-.1 2.1-.7.3-.9-1-2.2-2.1-2.6-1-.4-2.6-.3-3 .6-.3.8.7 1.9 1.6 2.4.3 0 .6.1.9.2.2-.1.4 0 .5.1z"/><path d="m417.1 310.7c-.1-.1-.3-.1-.4-.2-.3-.1-.6-.2-.9-.2.1 0 .2.1.3.1.3.1.6.2 1 .3z"/><path d="m413.2 303.9v.2c0-.1 0-.2 0-.2z"/><path d="m416.3 306.4c.3-1.2-2.7-2.4-3-2.5 0 .1 0 .1 0 .2l.1 2.9c-.1 0 2.7.4 2.9-.6z"/><path d="m405.2 299.4c-.5 0-1 .5-1.3 1.2 0 .2-.1.4-.2.6-.1.1-.1.3-.2.4-.1.4-.1.9-.1 1.1.3 1.2 3.1 2.3 3.1 2.3l-.2-.6c-.5-1.4-.8-2.9-1.1-4.5v-.5z"/><path d="m406.3 304.3l-1.1-4.5c.3 1.6.7 3 1.1 4.5z"/><path d="m403.2 298.2c-.5-.2-1.1.1-1.7.6-.1.8-.6 1.7-1.1 2.1-.1.9 0 2 .7 2.3.8.3 1.9-.7 2.4-1.6.1-.3.2-.7.4-1 .2-1 0-2.1-.7-2.4z"/><path d="m403.9 300.6c-.2.3-.3.7-.4 1 .1-.1.1-.3.2-.4.1-.2.1-.4.2-.6z"/><path d="m401.5 298.8c0-.1 0-.3.1-.4.1-1.1-.5-2.6-1.4-2.6-.9 0-1.7 1.4-1.8 2.5-.1 1.1.4 2.8 1.4 2.9.2 0 .5-.1.7-.2.1-.3.1-.6.3-.9 0-.5.4-1 .7-1.3z"/><path d="m401.5 298.8c-.4.3-.7.8-.9 1.2-.1.3-.2.6-.3.9.7-.4 1.1-1.3 1.2-2.1z"/><path d="m395.6 295.5c-.1 1.1.4 2.8 1.4 2.9 1 0 1.8-1.6 1.9-2.7.1-1.1-.5-2.6-1.4-2.6-1-.2-1.8 1.3-1.9 2.4z"/><path d="m393.1 292.4c-.1 1.1.4 2.8 1.4 2.9 1 0 1.8-1.6 1.9-2.7.1-1.1-.5-2.6-1.4-2.6-.5 0-1 .4-1.3 1-.1.3-.2.6-.4.9-.1 0-.1.3-.2.5z"/><path d="m390.6 289.8c-.1 1.1.4 2.8 1.4 2.9.5 0 .9-.4 1.3-.9.1-.3.2-.6.4-.9.1-.3.2-.7.2-.9.1-1.1-.5-2.6-1.4-2.6-.4 0-.8.3-1.1.7-.1.2-.2.3-.3.4-.3.3-.5.8-.5 1.3z"/><path d="m393.7 290.9c-.2.3-.3.6-.4.9.2-.4.3-.6.4-.9z"/><path d="m388.5 286.2c-.1 1.1.4 2.8 1.4 2.9.4 0 .8-.3 1.1-.6.1-.2.2-.3.3-.4.3-.5.5-1.1.5-1.6.1-1.1-.5-2.6-1.4-2.6-.4 0-.8.3-1.1.7-.1.3-.3.5-.4.7-.2.2-.3.6-.4.9z"/><path d="m391.3 288c-.1.1-.2.3-.3.4.1-.1.2-.3.3-.4z"/><path d="m386.5 282c-.1.3-.2.7-.3 1-.1 1.1.4 2.8 1.4 2.9.4 0 .8-.3 1.1-.7.1-.3.3-.5.4-.7.2-.4.3-.9.3-1.3.1-1.1-.5-2.6-1.4-2.6-.3 0-.7.2-.9.5-.1.2-.3.6-.6.9z"/><path d="m389.2 284.4c-.2.2-.3.5-.4.7.2-.2.3-.4.4-.7z"/><path d="m384.8 278c-.3.5-.5 1.1-.6 1.6-.1 1.1.4 2.8 1.4 2.9.3 0 .6-.2.9-.4.2-.4.4-.8.7-1.1.2-.4.3-.8.3-1.2.1-1.1-.5-2.6-1.4-2.6-.3 0-.7.2-1 .5-.1 0-.2.1-.3.3z"/><path d="m386.5 282c.3-.3.5-.7.7-1.1-.3.3-.5.7-.7 1.1z"/><path d="m382.7 274.4c-.2.4-.3.8-.3 1.2-.1 1.1.4 2.8 1.4 2.9.4 0 .7-.2 1-.5.1-.2.2-.3.3-.4.3-.5.5-1.2.6-1.8.1-1.1-.5-2.6-1.4-2.6-.3 0-.7.2-1 .5-.2.2-.4.5-.6.7z"/><path d="m384.8 278c.1-.1.2-.3.3-.4-.1.1-.2.2-.3.4z"/><path d="m380.4 272c-.1 1.1.4 2.8 1.4 2.9.3 0 .7-.2.9-.5.1-.3.3-.6.5-.8.2-.5.4-1 .4-1.4.1-1.1-.5-2.6-1.4-2.6-.9-.2-1.7 1.3-1.8 2.4z"/><path d="m382.7 274.4c.2-.2.4-.5.5-.8-.2.2-.3.5-.5.8z"/><path d="m378.7 267.7c-.1 1.1.4 2.8 1.4 2.9 1 0 1.8-1.6 1.9-2.7.1-1.1-.5-2.6-1.4-2.6-.3 0-.7.2-.9.5-.1.2-.2.3-.4.5-.3.3-.5.9-.6 1.4z"/><path d="m376.8 260.9c0 0-.1 1.4.1 2.8 0 0 .1.1.1.1.2.3.2.6.1 1 .2.9.6 1.6 1.3 1.7.3.1.6-.1.9-.4.1-.2.2-.3.4-.5.5-.8.8-1.8.9-2-.2-.2-.5-.4-.7-.6l-3.1-2.1z"/><path d="m379.8 263.1c.2.2.5.4.7.6 0 0 0-.1 0-.1l-.7-.5z"/><path d="m377 263.9c0-.1-.1-.1-.1-.1.1.4.1.8.2 1.2.1-.5.1-.9-.1-1.1z"/><path d="m379.3 266.2c.1-.1.2-.3.4-.5-.2.1-.3.3-.4.5z"/></g></g><g fill="#ce9d09"><g stroke-width="2"><circle cx="368.7" cy="347.7" r="2.6"/><path d="m374.8 347.2c1.3-.1 2.4-1.2 2.4-2.6 0-1.4-1.2-2.6-2.6-2.6-1.4 0-2.6 1.2-2.6 2.6 0 1.4 1.2 2.6 2.6 2.6 0 0 .1 0 .2 0z"/><path d="m374.8 347.2c-.1 0-.1 0-.2 0 0 0 .1 0 .2 0z"/></g><g stroke-width="3.205"><path d="m370.8 355.5c.3-.4.6-.8 1-1.1 0-.2-.1-.5-.1-.7l-.4-.1c0 0 0-.4.1-1-.5-1.3-1.3-2.4-2.8-2.3-4.1.2-3.2 5.6-3.2 5.6h.2c.9-.6 2-.9 3.3-.9.7.1 1.3.2 1.9.5z"/><path d="m371.7 353.7c-.1-.3-.2-.7-.3-1-.1.6-.1 1-.1 1h.4z"/><path d="m370.8 355.5c.3.1.6.3.9.5h.2c0 0 .1-.7-.1-1.6-.4.3-.7.7-1 1.1z"/></g></g><g stroke-width="3.205"><g fill="#fa0204"><path d="m364.6 368.7c-.3-1.9-.1-4.1.6-6.6l.2 4.1.4-1.2 1.7 1.8c-.1-1.4 0-2.9.1-4.5l.5 5.2 1.3 1.3c-.6-2.4-1.2-9.1 1-12.8l-5-.1c-5.4 3.6-3.3 17.4-2.5 17.4 0 0 0 0-.1 0l1.8-4.6z"/><path d="m373.9 373.4c0 0 0 0 0 0 .1.1.5-1.1.7-2.9-1.2 0-2.6-.3-4.1-.7l3.4 3.6z"/><path d="m370.5 369.8c-.2 0-.3-.1-.5-.1-.1 0-.3-.3-.4-.9l-1.3-1.3.5 4.7c-.7-1.6-1.1-3.4-1.2-5.4l-1.7-1.8-.4 1.2.4 6.2c-.6-1.1-1-2.3-1.2-3.6l-1.5 4.5c0 0 0 0 .1 0 2.8-1.6 9.7-1.1 10.8.1l-3.6-3.6z"/><path d="m370.2 369.5l.2.2c1.6.4 2.9.6 4.1.7.1-.5.1-1.1.2-1.8-1.6.1-3.3.5-4.5.9z"/><path d="m370.5 369.8l-.2-.2c-.1 0-.2.1-.3.1.1 0 .3 0 .5.1z"/><path d="m369.5 368.8l.6.6 4.7-4.2c-.1-3.6-.9-7.4-3.2-9.2h-1.2c-2.1 3.7-1.5 10.4-.9 12.8z"/><path d="m370.1 369.5l-.6-.6c.1.5.3.9.4.9l.2-.3z"/><path d="m370.2 369.5c1.1-.5 2.9-.8 4.6-.9.1-1.1.1-2.3.1-3.5l-4.7 4.4z"/><path d="m369.9 369.7c0 0 0 0 0 0 .1 0 .2-.1.3-.1l-.1-.1-.2.2z"/><path d="m370.8 355.5c-.6-.3-1.2-.4-2-.5-1.3-.1-2.4.3-3.3.9l5 .1c.1-.2.2-.4.3-.5z"/><path d="m370.5 356h1.2c-.3-.2-.6-.4-.9-.5-.1.1-.2.3-.3.5z"/><path d="m364.6 368.7l.9-2.6-.2-4.1c-.8 2.6-1 4.8-.7 6.7z"/><path d="m365.8 372.3l-.4-6.2-.9 2.6c.3 1.3.7 2.5 1.3 3.6z"/><path d="m367.6 366.8l.7.7-.5-5.2c-.3 1.5-.3 3-.2 4.5z"/><path d="m368.7 372.1l-.5-4.7-.7-.7c.2 2 .5 3.8 1.2 5.4z"/><path d="m378 369c0 0 0 0 0 0z"/><path d="m377.1 358.4l.8 8.6.5.8c.7-3.4-.1-6.2-1.3-9.4z"/><path d="m378 369c.1-.4.2-.8.3-1.2l-.5-.8.2 2c0 0 0 0 0 0z"/></g><g fill="#fff" stroke-linecap="round"><path d="m370.4 177.1c0-.2-.1-.3-.1-.5 0-.2 0-.4 0-.6 0 .1 0 .3 0 .4-.1.2 0 .4.1.7z"/><path d="m370.9 177.9c-.3-.2-.4-.5-.6-.9.1.3.2.5.3.7.2.1.3.2.3.2z"/><path d="m370.5 175.3c-.1.2-.2.4-.2.7.1-.3.2-.6.4-.8.3-.3 1.1-.4 1.5-.5-.3 0-.8 0-1.2-.1.2.1.4.1.4.1s-.7.3-.9.6z"/><path d="m371 174.6c-.1 0-.2-.1-.3-.1 0 0 .1 0 .1.1.1 0 .2 0 .2 0z"/><path d="m370.7 174.5c-.1 0-.1-.1-.2-.1l.2.1z"/><path d="m371.1 178.1c-.1 0-.1-.1-.2-.2 0 0 .1.1.1.1.1.1.1.1.1.1z"/><path d="m370.5 174.4c-.3-.2-.7-.5-.9-.7.3.3.6.5.9.7z"/><path d="m372.2 174.7c.2 0 .4 0 .4 0s-.2 0-.4 0z"/><path d="m347.4 175l-1.5-.8c0 0 .9.7 1.5.8z"/><path d="m348.4 176.7c.3.5 1.3 1.2 1.3 1.2s1-.8 1.5-1c.4-.1.8-.1 1.2 0 .4.2.7.5.9.9.3.4.5.9.5 1.4 0 .6-.8 1.6-.8 1.6l.5.9.7.5c1.3-.4 2.5-.8 3.8-1.5.3-.4.7-.9.9-1.8 0 0-.9-.5-1.1-1-.2-.5-.3-1.2 0-1.7.3-.5 1.1-.8 1.7-.8.5 0 .9.2 1.2.6.3.4.6.9.5 1.4-.1.5-.9 1.2-.9 1.2s.4.9.8 1.1c1.2.5 2 .8 3 1 1 .2 2.2.3 3.3 0 .7-.2 1.4-.5 1.8-1.1.1-.2.2-.6.2-.6s-1.3-.3-1.8-.7c-.5-.4-1.1-.9-1.2-1.5-.1-.6.2-1.3.6-1.9.4-.5.9-.9 1.5-1.2.3-.1.9-.1.9-.1s.1.1.2.2c-.1-.1-.2-.3-.3-.5-.2-.5-.2-1.2 0-1.7.3-.6 1-.9 1.6-1.3.5-.3 1.6-.8 1.6-.8s-2.6-.6-3.9-.7c-2-.1-3.9-.1-5.9.2-1.9.3-3.8.9-5.7 1.4-1.5.5-2.9 1-4.3 1.6-1 .4-2.1.9-3 1.4-.8.4-1.3 1.4-2.2 1.5-.1 0-.1 0-.2 0l.2.1c.1.1.5 1.2.9 1.7z"/><path d="m372.6 178.4c0 0-.8 0-1.3-.2.2.1.3.1.5.2.2 0 .8 0 .8 0z"/><path d="m371.1 178.1c.1 0 .1 0 0 0z"/><path d="m371.2 178.2c0 0 0 0 0 0z"/></g></g></g></svg>