<svg xmlns="http://www.w3.org/2000/svg" viewBox="0 0 640 480"><defs><clipPath id="0"><path d="m-170.67 0h682.67v512h-682.67z"/></clipPath></defs><g fill-rule="evenodd" clip-path="url(#0)" transform="matrix(.9375 0 0 .9375 160 0)"><g stroke-width="1.25"><path fill="#198a00" d="m-256 0h768v512h-768z"/><path fill="#ef7d00" d="m421.87 183.94h90.13v328.03h-90.13z"/><path d="m331.85 183.78h90.03v328.1h-90.03z"/><path fill="#de2010" d="m239.95 183.98h91.94v328.02h-91.94z"/></g><g stroke="#000" fill="#ef7d00" transform="matrix(.99757 0 0 .99757-222.45 4.582)"><g stroke-linejoin="round"><g stroke-width=".996"><path d="m675.7 61.16s33.999-14.528 37.29-17.524c1.498 1.797-13.63 20.07-42.985 26.81 26.66-6.291 49.43-26.06 54.07-25.462 1.348.3 1.048 19.321-60.06 35.796 42.24-11.08 66.799-31.453 66.5-29.21.299.449-4.193 16.03-41.19 28.16 10.335-2.397 38.34-19.471 38.04-16.18.898 1.348-27.11 37.29-77.73 25.612 40.44 10.484 66.65-14.828 70.39-14.379.749.15-7.489 22.17-58.41 23.515 24.414-2.546 17.374-.15 17.374-.15s-14.379 11.233-31.752 3.595c13.63 3.745 15.13 3.894 15.427 5.092-.898 1.497-12.13 3.745-22.915-2.097 8.686 3.594 16.475 4.194 16.624 5.542-.149.449-5.691 3.594-10.633 1.348-4.943-2.247-50.47-30.25-50.47-30.25 0 0 77.58-21.268 77.58-21.268 0 0 2.845 1.048 2.845 1.048z"/><path d="m584.49 136.92c-6.822 0-7.01 6.071-7.01 6.071s-.563.438-.187 3.381c1.126-2 1.69-2.63 1.69-2.63.751.125 3.881 1.064 8.825-2.816-4.507 4.694-1.815 6.447-1.815 6.447s-1.064 3.693 2.378 4.444c-1.063-1.503-.438-2.817-.438-2.817s4.819-.5 4.506-6.384c.188 5.32 3.067 6.634 3.067 6.634s0 2.942 3.129 3.193c-1.689-1.503-1.314-3.819-1.314-3.819s4.069-2.942.626-7.949c2.066-1.19 3.756-4.506 3.756-4.506s-2.816-1.19-4.131-2.19c-.627-1.315-.063-8.513-.063-8.513 0 0-1.69-9.326-1.69-9.326 0 0-4.82 14.522-4.82 14.522.187-2.066.313 6.259-6.509 6.259z"/></g><path d="m215.59 136.88c.2.201 6.819 7.622 13.236 7.22 2.406-2-5.01-6.417-5.01-7.42 2.607 2.407 13.637 11.832 20.657 8.423 2.807-4.01-5.01-3.409-13.638-14.239 6.02 4.01 21.06 12.835 28.08 9.426 3.01-3.209-15.643-13.237-21.86-21.06l-16.04-8.222-21.86 17.849 16.445 8.02z" transform="matrix(.74683 0 0 .74683 457.18 13.745)" stroke-width="1.333"/><g stroke-width=".996"><path d="m599.76 70.44s5.541-3.295 27.708-1.648c2.397.299 15.13-4.343 19.17-5.691 6.44-1.198 26.959-5.692 32.501-9.885 3.894-.449-1.049 7.189-5.991 8.987-5.243 2.396-24.26 8.987-31 8.09 8.09.15 3.595 6.74-9.885 3.595 6.441 3.595 4.04 4.194 4.04 4.194s-11.382.599-14.378-1.947c7.639 2.846 4.493 3.894 4.493 3.894s-7.788.749-11.383-.899c5.541 1.648 2.696 2.696 2.696 2.696s-4.493.749-8.238-.599c-3.744-1.348-9.435-10.783-9.735-10.783z" stroke-linecap="round"/><path d="m608.65 119.08c0 0 .814 14.647.814 14.647s-.438.751-.814 1.19c-.376.438-10.391-1.565-9.01 6.071 0 3.13.063 3.943 2.191 5.696-.564-2.066-.376-3.505-.376-3.505s2.816 1.69 5.571-2.942c-1.878 4.569-.564 6.196-.125 6.322.438.814-.751 4.506 3 4.444-1.439-1.377-.751-3.38-.751-3.38s3.943-.625 2.566-7.761c1.44-1.44 2-.063 2-.063s.438 4.256 3.881 3.38c1.565.876-.25 3.192-.25 3.192s2.503.063 3.255-2.066c.751-2.128 1.627-5.946-2.504-7.511-.5-1.502 1.628-1.627 1.628-1.627s2.629.876 3.379 2.19c.751 1.314.501-3.442-2.754-3.943-4.01-.125-4.256-.939-4.256-1.126 0-.188-.689-10.641-1-13.645 0 0-6.447.438-6.447.438z"/><g stroke-linecap="round"><path d="m622.59 131.56c.049-.671-6.833-9.939-5.087-11.137 1.745.359 4.608 4.574 6.927 3.206-.703-1.643-2.774-.718-5.127-4.924-2.352-4.755-2.695-11.893-10.933-19.68 5.333 8.24 17.431 13.07 17.943 10.667s-10.653-11.488-10.08-13.677c2.22 4.497 13.431 14.516 21.691 13.686.566-1.929-6.764-5.822-8.651-9.458-5.276-3.544-19.397-15.716-19.68-18.539-5.138-7.494-8.346-9.761-9.839-10.624-.577-.68-.722-1.33-.835-1.743-3.19-7.52 1.035-9.961 3.508-10.323 2.035-.226 2.626.078 4.09-.631-1.734-.678-3.468-1.313-5.201-1.991 2.261 1.658 8.04.198 6.783 4.975 2.532-.963 7.919-7.372-6.105-8.819-4.564-5.236-23.328-8.245-28.02 14.607.375.32.571.584 1.765 1.475-5.93-2.866-21.912-5.081-27.67-6.01-15.564-4.49-31.725-15.31-33.28-13.979-2.078.922 9.402 11.603 8.805 11.839-9.954-5.804-19.05-9.916-27.509-13.658-5.953-2.225-11.915-7.406-12.573-6.42-2.19 4.538 9.544 15.946 11.727 17.288 2.183 1.284 19.35 9.247 19.1 9.347-25.857-11.736-30.19-13.864-31.489-15.217-2.279-.514-7.831-8.01-9.378-7.527-.847.832.852 12.676 13.191 17.993 2.01 1.466 26.448 10.232 26.21 10.919-.06.172-27.989-11.527-29.07-11.946-5.385-2.112-11.992-9.513-13.227-8.68-1.179.755 3.046 8.766 8.487 11.279 2.852 1.259 13.792 6.677 23.648 10.126.629.227-17.716-6.957-26.537-10.643-3.999-2.22-5.883-4.986-6.492-4.391-.901.595 1.456 12.429 29.8 19.11.747.318 9.978-2.187 9.521-1.855-.114.083-9.166 2.054-10.05 1.986-.784-.12-5.743.587-5.833.844-.3.801 1.797 5.04 16.432 4.154 1.871-.112 12.02-3.697 11.171-2.926-.427.386-13.826 4.74-14.846 4.826-.886.125-5.594.617-5.768 1.118-.213.683 3.484 3.699 11.344 4.182 6.959.37 20.18-4.252 19.916-3.952-.265.3-12.747 4.577-13.07 4.837-.452.255-5.02.503-5.183.854-.372.873 6.593 7.387 27.19.435-2.069 2.795-12.05 4.707-12.04 5.211-.046.365 2.2 2.535 5.691 3.312 1.745.388 4.135.309 6.318-.036 3.921-.785 8.05-2.336 13.303-7.188.627 1.523-13.12 8.477-12.47 9.14 2.98 2.763 12.878-.356 13.527-.718.649-.363 19.06-10.745 18.998-11.947.286 1.54-23.738 14.594-23.479 15.13 1.542 2.461 9.749-.129 10.141-.355.391-.226 10.474-5.672 10.75-5.833.276-.161-11.849 7.096-10.769 8.201-.522 4.712 18.936-3.252 20.461-4.244.763-.496-9.347 4.445-9.374 6.792 3.255 5.504 13.68 3.758 15.288 2.547.804-.606-.946 4.089-.382 3.662.196-.088 2.267-2.537 3.063-4.309-.254 1.538-1.397 3.96-2.063 6.74-.668 2.78-.859 5.916-1.775 9.249-.21 1.464 6.423-2.862 5.46-13.202.568 5.379-2.095 15.436-1.398 15.959 1.394 1.046 5.246-5.01 5.636-9.103 1.144 2.068 3.545 6.385 5.611 7.378-.225-3.128.04-2.985-.89-6.06.536-4.082.611-9.732.741-16.11 5.613 10.753 7.852 15.294 6.284 23.528 1.669.696 4.335-5.748 4.12-9.06 2.143 9.216 11.395 10.598 11.542 10.329z"/><path d="m529.09 63.29s-3.821 2.887-8.575 2.717c1.189 4.754 11.04 1.104 11.04 1.104s-4.754 5.264-8.151 6.113c2.038 1.698 10.612 1.104 12.06.255 1.443-.849 3.99-4.16 3.99-4.16s-8.83 10.188-10.1 10.1c-.17 1.189 9.255.764 11.208-1.019 1.952-1.783 6.877-4.415 6.877-4.415s-12.905 8.999-13.5 8.999c4.839 1.274 14.518-1.528 20.716-5.349-9.17 6.113-10.02 7.217-14.688 9.254 4.161.934 6.282 3.736 20.377-2.377 8.07-3.82 12.65-10.783 12.65-10.783-5.01 6.707-12.905 12.396-21.649 17.999-.51 1.019 9.338 5.179 21.904-7.896"/></g></g></g><g stroke-width=".996"><g stroke-linecap="round"><path d="m597.35 91.65s.849 3.99 4.245 7.05c3.397 3.056 3.651 6.03 3.651 6.03"/><path d="m595.66 65.67s1.188 3.566 4.669 5.858c3.566 2.292 8.916 9.509 9.34 10.783.411 1.541 2.462 12.651 2.292 13.839"/><path d="m574.01 71.19c.255 1.358-5.01 8.235 2.207 16.301-6.538 7.98-6.537 8.999-6.537 8.999s3.651 2.037 10.188-3.566c10.782 13.245 7.189 19.306 7.189 19.306"/><path stroke-linejoin="round" d="m586.19 102.88s-.993-1.423.777-6.736c1.594 1.921 3.367 2.331 4.145 3.108.777.777 8.918 1.956 9.435 7.397"/></g><path d="m595.76 53.01c0-.4-1.639-3.917-7.755.48 3.278.2 6.515 2.079 7.755-.48z"/><path stroke-linejoin="round" d="m654.13 69.09c.299.15 18.273 4.04 24.26 2.097-7.639 10.185-22.916 3.295-22.916 3.295 7.488 2.247 7.789 2.097 10.185 4.194.749 1.947-13.779 1.048-18.572-1.648 13.33 4.194 13.63 3.894 14.08 5.542.6 2.247-21.867-.599-23.814-3.595 5.991 4.643 9.286 5.542 12.581 7.639-4.04 1.797-11.533 3.594-25.312-6.141 18.12 16.475 34.448 15.427 36.995 18.422-6.291 9.286-30.704-5.541-41.937-13.03-11.233-7.488 24.563 18.12 27.859 17.673-1.648 2.546-13.48.299-14.229-.898"/><g stroke-linecap="round"><path d="m658.78 86.32c-2.096.3-8.387.3-9.285.15"/><path stroke-linejoin="round" d="m523.83 60.57s13.669 7.217 19.442 6.707c-1.528 1.443-3.821 2.038-3.821 2.038 1.444.594 5.434 2.717 11.462 1.358-1.444 1.443-3.311 3.057-3.311 3.057s5.179 1.953 11.04-1.104c-1.783 2.207-2.802 3.821-2.802 3.821 0 0 4.075.255 4.075.255"/></g></g></g></g></svg>